<svg xmlns="http://www.w3.org/2000/svg" width="871" height="69" style="shape-rendering:geometricPrecision;text-rendering:geometricPrecision;image-rendering:optimizeQuality;fill-rule:evenodd;clip-rule:evenodd"><path fill="#2594c6" d="M306 0h19q36 11 25 49-9 16-27 20h-14q-36-10-29-46 7-19 26-23m2 12q33-4 30 30-10 19-30 13-13-3-15-16-3-19 15-27" style="opacity:1"/><path d="M828 0h18q13 2 25 12v3l-8 7q-16-13-35-9-23 12-11 35 12 11 28 8l19-8 7 6v2q-10 10-24 13h-15q-39-6-32-45 7-19 28-24M0 67v-2L32 3q7-3 14 1l34 62H65l-8-14q-18-3-35-1l-8 15zm38-49 12 21-3 1H27zm101 51h-13q-19-1-27-18-2-25-1-49h14q-1 22 1 46 13 14 32 6 6-5 7-13l1-39h13l-1 46q-3 9-10 15zm52-67h68v12h-27v53h-14V14h-27zm190 0h15l4 2q11 22 26 43l27-45h17v65h-14l-1-45-26 44q-6 2-9-1l-26-43v45h-13zm144 0q6-1 12 2l34 61q-7 3-15 0l-8-14q-18-2-35 1l-7 13q-7 3-15 0zm5 16 12 21-2 1-9 1-11-2zm47-16h69v12h-28v53h-13V14h-28zm86 0h69v12h-28v53h-13V14h-28zm102 0h7v65h-13V8q6 0 6-6M318 21q9-2 8 8l-13 19q-10 1-8-8z" style="opacity:1"/></svg>