<svg height="23.85" viewBox="0 0 86.43 23.85" width="86.43" xmlns="http://www.w3.org/2000/svg"><g fill="#1d1d1b"><path d="m6.78 23.82a51.28 51.28 0 0 1 -6.78-.48v-23.34h4v6.8a9.16 9.16 0 0 1 4-.81c4.68 0 6.84 2.37 6.84 7.51v2.35c-.08 5.71-2.78 7.97-8.06 7.97zm4-10.35c0-3.06-.87-4.12-3.39-4.12a9.22 9.22 0 0 0 -3.46.65v10.3c.66 0 1.68.12 2.91.12 2.76 0 4-1 4-4.57z"/><path d="m28.87 23.37v-.87a8.71 8.71 0 0 1 -4.71 1.29c-4 0-6.34-2.38-6.34-7.55v-2.41c0-6 2.82-7.82 8-7.82a59.74 59.74 0 0 1 6.82.42v16.94zm-.21-13.9c-1.08-.09-2.5-.15-3-.15-2.52 0-3.84.69-3.84 4.51v2.41c0 3 1 4.21 3.45 4.21a8.64 8.64 0 0 0 3.43-.75z"/><path d="m43.75 23.82a51.28 51.28 0 0 1 -6.75-.48v-23.34h4v6.8a9.19 9.19 0 0 1 4-.81c4.68 0 6.85 2.37 6.85 7.51v2.35c0 5.71-2.71 8-8 8zm4-10.35c0-3.06-.87-4.12-3.39-4.12a9.22 9.22 0 0 0 -3.46.65v10.3c.66 0 1.68.12 2.91.12 2.76 0 4-1 4-4.57z"/><path d="m55.55 3.82v-3.82h4.08v3.82zm0 19.55v-16.93h4v16.93z"/><path d="m67.34 16.15v.3c0 2.47.36 4.06 4.5 4.06 1.77 0 3.87-.18 6.09-.39v3a27.6 27.6 0 0 1 -6.27.72c-6.09 0-8.25-2.35-8.25-8.3v-1.08c0-5.68 2.59-8.46 7.59-8.46 5.64 0 7.62 3.67 7.62 8.82v1.32zm7.35-2.86c0-1.95-.39-4.09-3.66-4.09s-3.66 2.17-3.66 4.09v.27h7.32z"/><path d="m82.43 23.37v-23.37h4v23.37z"/></g></svg>