<svg height="56.001" viewBox="0 0 275.493 42.001" width="367.325" xmlns="http://www.w3.org/2000/svg" xmlns:xlink="http://www.w3.org/1999/xlink"><clipPath id="a"><path d="m27.022 3a1.975 1.975 0 0 1 1.978 1.973v22.063a1.973 1.973 0 0 1 -1.973 1.973h-3.027a3 3 0 0 0 -3 3v3.214l-5.984-5.435a3 3 0 0 0 -2.016-.779h-8.027a1.973 1.973 0 0 1 -1.973-1.973v-22.063a1.973 1.973 0 0 1 1.973-1.973zm0-3h-22.049a4.974 4.974 0 0 0 -4.973 4.973v22.063a4.974 4.974 0 0 0 4.973 4.973h8.027l11 9.991v-9.991h3.022a4.973 4.973 0 0 0 4.978-4.973v-22.063a4.973 4.973 0 0 0 -4.978-4.973zm-9.373 24.185a1.652 1.652 0 1 0 -1.649 1.652 1.651 1.651 0 0 0 1.649-1.652zm-.149-4.552v-.24a1.953 1.953 0 0 1 1.2-1.722 6.109 6.109 0 0 0 3.452-5.525 6.231 6.231 0 0 0 -6.152-6.146 6.155 6.155 0 0 0 -6.15 6.146 1.5 1.5 0 0 0 3 0 3.152 3.152 0 0 1 3.15-3.146 3.23 3.23 0 0 1 3.148 3.148 3.132 3.132 0 0 1 -1.769 2.83 4.948 4.948 0 0 0 -2.879 4.415v.24a1.5 1.5 0 0 0 3 0z"/></clipPath><path d="m58.611 25.276a11.926 11.926 0 0 1 -4.871.84c-5.993 0-9.633-3.752-9.633-9.492 0-6.216 4.312-9.968 10.08-9.968a10.844 10.844 0 0 1 4.593.84l-.757 2.744a9.167 9.167 0 0 0 -3.695-.728c-3.836 0-6.608 2.408-6.608 6.944 0 4.144 2.436 6.8 6.579 6.8a9.642 9.642 0 0 0 3.753-.7zm2.243-8.676c0-1.848-.028-3.164-.112-4.4h3l.112 2.6h.112a4.067 4.067 0 0 1 3.724-2.912 3.618 3.618 0 0 1 .812.084v3.248a4.788 4.788 0 0 0 -1.008-.112 3.036 3.036 0 0 0 -3.08 2.6 5.921 5.921 0 0 0 -.114 1.072v7.056h-3.446zm22.66 2.292c0 5.012-3.528 7.252-7 7.252-3.864 0-6.832-2.66-6.832-7.028 0-4.48 2.94-7.224 7.056-7.224 4.062 0 6.776 2.856 6.776 7zm-10.276.14c0 2.632 1.288 4.62 3.388 4.62 1.96 0 3.332-1.932 3.332-4.676 0-2.128-.952-4.564-3.3-4.564-2.44 0-3.42 2.352-3.42 4.62zm12.522 3.64a7.67 7.67 0 0 0 3.5.98c1.512 0 2.184-.616 2.184-1.512 0-.924-.56-1.4-2.24-1.988-2.66-.924-3.78-2.38-3.752-3.976 0-2.408 1.988-4.284 5.152-4.284a8.007 8.007 0 0 1 3.612.812l-.672 2.436a6.124 6.124 0 0 0 -2.884-.783c-1.232 0-1.9.587-1.9 1.427 0 .868.644 1.288 2.38 1.9 2.464.9 3.612 2.156 3.64 4.172 0 2.464-1.932 4.256-5.544 4.256a8.8 8.8 0 0 1 -4.144-.952zm11.219 0a7.67 7.67 0 0 0 3.5.98c1.512 0 2.184-.616 2.184-1.512 0-.924-.56-1.4-2.24-1.988-2.66-.924-3.78-2.38-3.752-3.976 0-2.408 1.988-4.284 5.152-4.284a8.007 8.007 0 0 1 3.612.812l-.672 2.436a6.124 6.124 0 0 0 -2.884-.783c-1.232 0-1.9.587-1.9 1.427 0 .868.644 1.288 2.38 1.9 2.464.9 3.612 2.156 3.64 4.172 0 2.464-1.932 4.256-5.544 4.256a8.8 8.8 0 0 1 -4.144-.952zm13.79-10.472 1.428 6.188c.308 1.456.616 2.94.868 4.424h.056c.28-1.484.728-3 1.12-4.4l1.764-6.216h2.8l1.708 6.048c.42 1.6.784 3.08 1.092 4.564h.056c.224-1.484.532-2.968.9-4.564l1.512-6.048h3.388l-4.284 13.636h-3.192l-1.624-5.544a41.8 41.8 0 0 1 -1.036-4.368h-.056a35.96 35.96 0 0 1 -1.036 4.368l-1.736 5.544h-3.22l-4.036-13.632zm31.304 6.692c0 5.012-3.528 7.252-7 7.252-3.864 0-6.831-2.66-6.831-7.028 0-4.48 2.939-7.224 7.055-7.224 4.06 0 6.776 2.856 6.776 7zm-10.276.14c0 2.632 1.288 4.62 3.388 4.62 1.96 0 3.332-1.932 3.332-4.676 0-2.128-.952-4.564-3.3-4.564-2.44 0-3.417 2.352-3.417 4.62zm12.818-2.432c0-1.848-.028-3.164-.112-4.4h3l.112 2.6h.112a4.067 4.067 0 0 1 3.724-2.912 3.618 3.618 0 0 1 .812.084v3.248a4.788 4.788 0 0 0 -1.008-.112 3.036 3.036 0 0 0 -3.08 2.6 5.921 5.921 0 0 0 -.112 1.064v7.056h-3.444zm22.299-10.644v16.044c0 1.4.055 2.912.112 3.836h-3.08l-.141-2.156h-.056a4.906 4.906 0 0 1 -4.452 2.464c-3.248 0-5.823-2.772-5.823-6.972-.028-4.563 2.827-7.28 6.1-7.28a4.345 4.345 0 0 1 3.836 1.792h.055v-7.728zm-3.445 11.928a4.767 4.767 0 0 0 -.084-.9 3.015 3.015 0 0 0 -2.968-2.436c-2.211 0-3.444 1.96-3.444 4.508 0 2.492 1.233 4.312 3.416 4.312a3.039 3.039 0 0 0 2.969-2.436 3.837 3.837 0 0 0 .111-1.008zm6.673 4.788a7.674 7.674 0 0 0 3.5.98c1.513 0 2.185-.616 2.185-1.512 0-.924-.561-1.4-2.241-1.988-2.66-.924-3.78-2.38-3.752-3.976 0-2.408 1.989-4.284 5.153-4.284a8.006 8.006 0 0 1 3.611.812l-.672 2.436a6.121 6.121 0 0 0 -2.884-.783c-1.232 0-1.9.587-1.9 1.427 0 .868.645 1.288 2.38 1.9 2.464.9 3.612 2.156 3.641 4.172 0 2.464-1.933 4.256-5.544 4.256a8.8 8.8 0 0 1 -4.145-.952zm24.581-3.78c0 5.012-3.527 7.252-7 7.252-3.863 0-6.831-2.66-6.831-7.028 0-4.48 2.939-7.224 7.056-7.224 4.059 0 6.775 2.856 6.775 7zm-10.275.14c0 2.632 1.288 4.62 3.387 4.62 1.96 0 3.332-1.932 3.332-4.676 0-2.128-.952-4.564-3.3-4.564-2.44 0-3.419 2.352-3.419 4.62zm12.889-13.076h3.473v19.88h-3.473zm9.11 6.244 2.212 6.916c.391 1.2.672 2.3.923 3.416h.084c.252-1.12.56-2.184.924-3.416l2.157-6.916h3.639l-5.208 13.636h-3.388l-5.068-13.636zm13.772 7.784c.084 2.464 2.016 3.528 4.2 3.528a10.248 10.248 0 0 0 3.78-.616l.5 2.38a12.841 12.841 0 0 1 -4.76.84c-4.424 0-7.028-2.715-7.028-6.888 0-3.78 2.3-7.336 6.664-7.336 4.424 0 5.88 3.64 5.88 6.636a8.475 8.475 0 0 1 -.112 1.456zm5.992-2.408c.028-1.259-.532-3.332-2.828-3.332-2.128 0-3.024 1.932-3.164 3.332zm5.816-.976c0-1.848-.028-3.164-.112-4.4h3l.111 2.6h.112a4.067 4.067 0 0 1 3.724-2.912 3.618 3.618 0 0 1 .812.084v3.248a4.786 4.786 0 0 0 -1.007-.112 3.037 3.037 0 0 0 -3.081 2.6 5.921 5.921 0 0 0 -.112 1.064v7.056h-3.444z" fill="#484848"/><path d="m239.27 24.611a1.347 1.347 0 0 1 1.369-1.421 1.423 1.423 0 0 1 0 2.844 1.349 1.349 0 0 1 -1.369-1.423zm10.801.955a6.411 6.411 0 0 1 -2.485.45 4.211 4.211 0 0 1 -4.519-4.465 4.535 4.535 0 0 1 4.88-4.682 5.524 5.524 0 0 1 2.142.414l-.4 1.657a3.886 3.886 0 0 0 -1.674-.342 2.615 2.615 0 0 0 -2.684 2.844 2.6 2.6 0 0 0 2.684 2.828 4.334 4.334 0 0 0 1.746-.342zm9.661-4.195a4.344 4.344 0 0 1 -4.5 4.663 4.241 4.241 0 0 1 -4.394-4.519 4.33 4.33 0 0 1 4.538-4.646 4.207 4.207 0 0 1 4.356 4.502zm-6.608.09c0 1.692.829 2.971 2.179 2.971 1.26 0 2.143-1.242 2.143-3.007 0-1.368-.613-2.935-2.125-2.935-1.567 0-2.197 1.51-2.197 2.971zm8.292-1.783c0-1.008-.018-1.855-.072-2.611h1.908l.091 1.3h.054a3.036 3.036 0 0 1 2.7-1.494 2.529 2.529 0 0 1 2.431 1.621h.036a3.319 3.319 0 0 1 1.08-1.1 2.922 2.922 0 0 1 1.765-.523c1.458 0 2.934.99 2.934 3.8v5.168h-2.16v-4.847c0-1.458-.505-2.322-1.567-2.322a1.689 1.689 0 0 0 -1.548 1.17 3.125 3.125 0 0 0 -.109.738v5.258h-2.159v-5.077c0-1.225-.486-2.089-1.512-2.089a1.729 1.729 0 0 0 -1.585 1.26 1.9 1.9 0 0 0 -.126.721v5.185h-2.161z" fill="#f18f0b"/><g clip-path="url(#a)"><path d="m9.85 20.795.339.338h-.339z" fill="#f7a226"/><path d="m9.85 20.329.804.804h-.465l-.339-.338z" fill="#f7a327"/><path d="m9.85 19.864 1.269 1.269h-.465l-.804-.804z" fill="#f7a328"/><path d="m9.85 19.398 1.735 1.735h-.466l-1.269-1.269z" fill="#f7a429"/><path d="m9.85 18.933 2.2 2.2h-.465l-1.735-1.735z" fill="#f7a42a"/><path d="m9.85 18.468 2.666 2.665h-.466l-2.2-2.2z" fill="#f7a42b"/><path d="m9.85 18.002 3.131 3.131h-.465l-2.666-2.665z" fill="#f8a52c"/><path d="m9.85 17.537 3.597 3.596h-.466l-3.131-3.131z" fill="#f8a52d"/><path d="m9.85 17.071 4.062 4.062h-.465l-3.597-3.596z" fill="#f8a62e"/><path d="m9.85 16.606 4.527 4.527h-.465l-4.062-4.062z" fill="#f8a62f"/><path d="m9.85 16.14 4.993 4.993h-.466l-4.527-4.527z" fill="#f8a730"/><path d="m9.85 15.675 5.458 5.458h-.465l-4.993-4.993z" fill="#f8a731"/><path d="m9.85 15.21 5.924 5.923h-.466l-5.458-5.458z" fill="#f8a832"/><path d="m9.85 14.744 6.389 6.389h-.465l-5.924-5.923z" fill="#f8a833"/><path d="m9.85 14.279 6.854 6.854h-.465l-6.389-6.389z" fill="#f8a934"/><path d="m9.85 13.813 7.32 7.32h-.466l-6.854-6.854z" fill="#f8a935"/><path d="m9.85 13.348 7.785 7.785h-.465l-7.32-7.32z" fill="#f8aa36"/><path d="m9.85 12.883 8.251 8.25h-.466l-7.785-7.785z" fill="#f8aa37"/><path d="m9.85 12.417 8.716 8.716h-.465l-8.251-8.25z" fill="#f9ab38"/><path d="m9.85 11.952 9.182 9.181h-.466l-8.716-8.716z" fill="#f9ab39"/><path d="m9.85 11.486 9.647 9.647h-.465l-9.182-9.181z" fill="#f9ac3a"/><path d="m9.85 11.021 9.958 9.958-.154.154h-.157l-9.647-9.647z" fill="#f9ac3b"/><path d="m9.85 10.555 10.191 10.191-.233.233-9.958-9.958z" fill="#f9ad3c"/><path d="m9.85 10.09 10.424 10.423-.233.233-10.191-10.191z" fill="#f9ad3d"/><path d="m9.85 9.625 10.657 10.656-.233.232-10.424-10.423z" fill="#f9ae3f"/><path d="m9.85 9.159 10.889 10.889-.232.233-10.657-10.656z" fill="#f9ae40"/><path d="m9.85 8.694 11.122 11.121-.233.233-10.889-10.889z" fill="#f9ae41"/><path d="m9.85 8.228 11.355 11.355-.233.232-11.122-11.121z" fill="#f9af42"/><path d="m9.85 7.763 11.587 11.587-.232.233-11.355-11.355z" fill="#f9af43"/><path d="m9.85 7.297 11.82 11.82-.233.233-11.587-11.587z" fill="#f9b044"/><path d="m9.85 6.832 12.053 12.052-.233.233-11.82-11.82z" fill="#f9b045"/><path d="m9.85 6.367 12.286 12.285-.233.232-12.053-12.052z" fill="#fab146"/><path d="m9.947 5.998 12.198 12.198v.446l-.009.01-12.286-12.285v-.369z" fill="#fab147"/><path d="m10.413 5.998 11.732 11.732v.466l-12.198-12.198z" fill="#fab248"/><path d="m10.878 5.998 11.267 11.267v.465l-11.732-11.732z" fill="#fab249"/><path d="m11.344 5.998 10.801 10.801v.466l-11.267-11.267z" fill="#fab34a"/><path d="m11.809 5.998 10.336 10.336v.465l-10.801-10.801z" fill="#fab34b"/><path d="m12.274 5.998 9.871 9.871v.465l-10.336-10.336z" fill="#fab44c"/><path d="m12.74 5.998 9.405 9.405v.466l-9.871-9.871z" fill="#fab44d"/><path d="m13.205 5.998 8.94 8.94v.465l-9.405-9.405z" fill="#fab54e"/><path d="m13.671 5.998 8.474 8.474v.466l-8.94-8.94z" fill="#fab54f"/><path d="m14.136 5.998 8.009 8.009v.465l-8.474-8.474z" fill="#fab650"/><path d="m14.601 5.998 7.544 7.543v.466l-8.009-8.009z" fill="#fab651"/><path d="m15.067 5.998 7.078 7.078v.465l-7.544-7.543z" fill="#fbb752"/><path d="m15.532 5.998 6.613 6.613v.465l-7.078-7.078z" fill="#fbb753"/><path d="m15.998 5.998 6.147 6.147v.466l-6.613-6.613z" fill="#fbb754"/><path d="m16.463 5.998 5.682 5.682v.465l-6.147-6.147z" fill="#fbb855"/><path d="m16.929 5.998 5.216 5.216v.466l-5.682-5.682z" fill="#fbb856"/><path d="m17.394 5.998 4.751 4.751v.465l-5.216-5.216z" fill="#fbb957"/><path d="m17.859 5.998 4.286 4.286v.465l-4.751-4.751z" fill="#fbb958"/><path d="m18.325 5.998 3.82 3.82v.466l-4.286-4.286z" fill="#fbba59"/><path d="m18.79 5.998 3.355 3.355v.465l-3.82-3.82z" fill="#fbba5a"/><path d="m19.256 5.998 2.889 2.889v.466l-3.355-3.355z" fill="#fbbb5b"/><path d="m19.721 5.998 2.424 2.424v.465l-2.889-2.889z" fill="#fbbb5c"/><path d="m20.187 5.998 1.958 1.958v.466l-2.424-2.424z" fill="#fbbc5d"/><path d="m20.652 5.998 1.493 1.493v.465l-1.958-1.958z" fill="#fcbc5e"/><path d="m21.117 5.998 1.028 1.028v.465l-1.493-1.493z" fill="#fcbd5f"/><path d="m21.583 5.998.562.562v.466l-1.028-1.028z" fill="#fcbd60"/><path d="m22.048 5.998.097.097v.465l-.562-.562z" fill="#fcbe61"/><path d="m22.145 6.095-.097-.097h.097z" fill="#fcbe62"/><path d="m14.346 25.756.081.081h-.081z" fill="#f7a225"/><path d="m14.346 25.29.547.547h-.466l-.081-.081z" fill="#f7a226"/><path d="m14.346 24.825 1.012 1.012h-.465l-.547-.547z" fill="#f7a327"/><path d="m14.346 24.359 1.477 1.478h-.465l-1.012-1.012z" fill="#f7a328"/><path d="m14.346 23.894 1.943 1.943h-.466l-1.477-1.478z" fill="#f7a429"/><path d="m14.346 23.429 2.408 2.408h-.465l-1.943-1.943z" fill="#f7a42a"/><path d="m14.346 22.963 2.874 2.874h-.466l-2.408-2.408z" fill="#f7a42b"/><path d="m14.382 22.534 3.267 3.267v.036h-.429l-2.874-2.874v-.429z" fill="#f8a52c"/><path d="m14.848 22.534 2.801 2.801v.466l-3.267-3.267z" fill="#f8a52d"/><path d="m15.313 22.534 2.336 2.336v.465l-2.801-2.801z" fill="#f8a62e"/><path d="m15.779 22.534 1.87 1.87v.466l-2.336-2.336z" fill="#f8a62f"/><path d="m16.244 22.534 1.405 1.405v.465l-1.87-1.87z" fill="#f8a730"/><path d="m16.709 22.534.94.939v.466l-1.405-1.405z" fill="#f8a731"/><path d="m17.175 22.534.474.474v.465l-.94-.939z" fill="#f8a832"/><path d="m17.64 22.534.009.009v.465l-.474-.474z" fill="#f8a833"/><path d="m17.649 22.543-.009-.009h.009z" fill="#f8a934"/><path d="m0 29.096 12.905 12.905h-12.905z" fill="#f49000"/><path d="m0 28.63 13.37 13.371h-.465l-12.905-12.905z" fill="#f49000"/><path d="m0 28.165 13.836 13.836h-.466l-13.37-13.371z" fill="#f49001"/><path d="m0 27.699 14.301 14.302h-.465l-13.836-13.836z" fill="#f49102"/><path d="m0 27.234 14.767 14.767h-.466l-14.301-14.302z" fill="#f49103"/><path d="m0 26.768 15.232 15.233h-.465l-14.767-14.767z" fill="#f49204"/><path d="m0 26.303 15.698 15.698h-.466l-15.232-15.233z" fill="#f49205"/><path d="m0 25.838 16.163 16.163h-.465l-15.698-15.698z" fill="#f49306"/><path d="m0 25.372 16.628 16.629h-.465l-16.163-16.163z" fill="#f59307"/><path d="m0 24.907 17.094 17.094h-.466l-16.628-16.629z" fill="#f59408"/><path d="m0 24.441 17.559 17.56h-.465l-17.094-17.094z" fill="#f59409"/><path d="m0 23.976 18.025 18.025h-.466l-17.559-17.56z" fill="#f5950a"/><path d="m0 23.511 18.49 18.49h-.465l-18.025-18.025z" fill="#f5950b"/><path d="m0 23.045 18.956 18.956h-.466l-18.49-18.49z" fill="#f5960c"/><path d="m0 22.58 19.421 19.421h-.465l-18.956-18.956z" fill="#f5960d"/><path d="m0 22.114 19.886 19.887h-.465l-19.421-19.421z" fill="#f5970e"/><path d="m0 21.649 20.352 20.352h-.466l-19.886-19.887z" fill="#f5970f"/><path d="m0 21.183 20.817 20.818h-.465l-20.352-20.352z" fill="#f59810"/><path d="m0 20.718 21.283 21.283h-.466l-20.817-20.818z" fill="#f59811"/><path d="m0 20.253 21.748 21.748h-.465l-21.283-21.283z" fill="#f59912"/><path d="m0 19.787 22.213 22.214h-.465l-21.748-21.748z" fill="#f69913"/><path d="m0 19.322 22.679 22.679h-.466l-22.213-22.214z" fill="#f69a14"/><path d="m0 18.856 23.144 23.145h-.465l-22.679-22.679z" fill="#f69a15"/><path d="m0 18.391 23.61 23.61h-.466l-23.144-23.145z" fill="#f69a16"/><path d="m0 17.925 24.075 24.076h-.465l-23.61-23.61z" fill="#f69b17"/><path d="m0 17.46 24.541 24.541h-.466l-24.075-24.076z" fill="#f69b18"/><path d="m0 16.995 25.006 25.006h-.465l-24.541-24.541z" fill="#f69c19"/><path d="m0 16.529 25.471 25.472h-.465l-25.006-25.006z" fill="#f69c1a"/><path d="m0 16.064 25.937 25.937h-.466l-25.471-25.472z" fill="#f69d1b"/><path d="m0 15.598 26.402 26.403h-.465l-25.937-25.937z" fill="#f69d1c"/><path d="m0 15.133 26.848 26.848-.019.02h-.427l-26.402-26.403z" fill="#f69e1d"/><path d="m0 14.668 27.081 27.08-.233.233-26.848-26.848z" fill="#f69e1e"/><path d="m0 14.202 27.314 27.314-.233.232-27.081-27.08z" fill="#f79f1f"/><path d="m0 13.737 27.546 27.546-.232.233-27.314-27.314z" fill="#f79f20"/><path d="m0 13.271 27.779 27.779-.233.233-27.546-27.546z" fill="#f7a021"/><path d="m0 12.806 28.012 28.012-.233.232-27.779-27.779z" fill="#f7a022"/><path d="m0 12.34 28.244 28.245-.232.233-28.012-28.012z" fill="#f7a123"/><path d="m0 11.875 28.477 28.477-.233.233-28.244-28.245z" fill="#f7a124"/><path d="m0 11.41 28.71 28.709-.233.233-28.477-28.477z" fill="#f7a225"/><path d="m0 10.944 28.942 28.943-.232.232-28.71-28.709z" fill="#f7a226"/><path d="m0 10.479 29.175 29.175-.233.233-28.942-28.943z" fill="#f7a327"/><path d="m0 10.013 29.408 29.408-.233.233-29.175-29.175z" fill="#f7a328"/><path d="m0 9.548 29.641 29.641-.233.232-29.408-29.408z" fill="#f7a429"/><path d="m0 9.083 29.873 29.873-.232.233-29.641-29.641z" fill="#f7a42a"/><path d="m0 8.617 30.106 30.106-.233.233-29.873-29.873z" fill="#f7a42b"/><path d="m0 8.152 30.339 30.338-.233.233-30.106-30.106z" fill="#f8a52c"/><path d="m0 7.686 30.571 30.572-.232.232-30.339-30.338z" fill="#f8a52d"/><path d="m0 7.221 30.804 30.804-.233.233-30.571-30.572z" fill="#f8a62e"/><path d="m0 6.755 31.037 31.037-.233.233-30.804-30.804z" fill="#f8a62f"/><path d="m0 6.29 31.27 31.27-.233.232-31.037-31.037z" fill="#f8a730"/><path d="m0 5.825 31.502 31.502-.232.233-31.27-31.27z" fill="#f8a731"/><path d="m0 5.359 31.735 31.735-.233.233-31.502-31.502z" fill="#f8a832"/><path d="m0 4.894 31.968 31.967-.233.233-31.735-31.735z" fill="#f8a833"/><path d="m0 4.428 31.995 31.995v.411l-.027.027-31.968-31.967z" fill="#f8a934"/><path d="m0 3.963 31.995 31.995v.465l-31.995-31.995z" fill="#f8a935"/><path d="m0 3.497 31.995 31.996v.465l-31.995-31.995z" fill="#f8aa36"/><path d="m0 3.032 31.995 31.995v.466l-31.995-31.996z" fill="#f8aa37"/><path d="m0 2.567 31.995 31.995v.465l-31.995-31.995z" fill="#f9ab38"/><path d="m0 2.101 31.995 31.995v.466l-31.995-31.995z" fill="#f9ab39"/><path d="m0 1.636 31.995 31.995v.465l-31.995-31.995z" fill="#f9ac3a"/><path d="m0 1.17 31.995 31.995v.466l-31.995-31.995z" fill="#f9ac3b"/><path d="m0 .705 31.995 31.995v.465l-31.995-31.995z" fill="#f9ad3c"/><path d="m0 .24 31.995 31.995v.465l-31.995-31.995z" fill="#f9ad3d"/><path d="m.226 0 31.769 31.769v.466l-31.995-31.995v-.24z" fill="#f9ae3f"/><path d="m.691 0 31.304 31.304v.465l-31.769-31.769z" fill="#f9ae40"/><path d="m1.157 0 30.838 30.838v.466l-31.304-31.304z" fill="#f9ae41"/><path d="m1.622 0 30.373 30.373v.465l-30.838-30.838z" fill="#f9af42"/><path d="m2.088 0 29.907 29.907v.466l-30.373-30.373z" fill="#f9af43"/><path d="m2.553 0 29.442 29.442v.465l-29.907-29.907z" fill="#f9b044"/><path d="m3.018 0 28.977 28.977v.465l-29.442-29.442z" fill="#f9b045"/><path d="m3.484 0 28.511 28.511v.466l-28.977-28.977z" fill="#fab146"/><path d="m3.949 0 28.046 28.046v.465l-28.511-28.511z" fill="#fab147"/><path d="m4.415 0 27.58 27.58v.466l-28.046-28.046z" fill="#fab248"/><path d="m4.88 0 27.115 27.115v.465l-27.58-27.58z" fill="#fab249"/><path d="m5.345 0 26.65 26.65v.465l-27.115-27.115z" fill="#fab34a"/><path d="m5.811 0 26.184 26.184v.466l-26.65-26.65z" fill="#fab34b"/><path d="m6.276 0 25.719 25.719v.465l-26.184-26.184z" fill="#fab44c"/><path d="m6.742 0 25.253 25.253v.466l-25.719-25.719z" fill="#fab44d"/><path d="m7.207 0 24.788 24.788v.465l-25.253-25.253z" fill="#fab54e"/><path d="m7.673 0 24.322 24.322v.466l-24.788-24.788z" fill="#fab54f"/><path d="m8.138 0 23.857 23.857v.465l-24.322-24.322z" fill="#fab650"/><path d="m8.603 0 23.392 23.392v.465l-23.857-23.857z" fill="#fab651"/><path d="m9.069 0 22.926 22.926v.466l-23.392-23.392z" fill="#fbb752"/><path d="m9.534 0 22.461 22.461v.465l-22.926-22.926z" fill="#fbb753"/><path d="m10 0 21.995 21.995v.466l-22.461-22.461z" fill="#fbb754"/><path d="m10.465 0 21.53 21.53v.465l-21.995-21.995z" fill="#fbb855"/><path d="m10.931 0 21.064 21.065v.465l-21.53-21.53z" fill="#fbb856"/><path d="m11.396 0 20.599 20.599v.466l-21.064-21.065z" fill="#fbb957"/><path d="m11.861 0 20.134 20.134v.465l-20.599-20.599z" fill="#fbb958"/><path d="m12.327 0 19.668 19.668v.466l-20.134-20.134z" fill="#fbba59"/><path d="m12.792 0 19.203 19.203v.465l-19.668-19.668z" fill="#fbba5a"/><path d="m13.258 0 18.737 18.737v.466l-19.203-19.203z" fill="#fbbb5b"/><path d="m13.723 0 18.272 18.272v.465l-18.737-18.737z" fill="#fbbb5c"/><path d="m14.188 0 17.807 17.807v.465l-18.272-18.272z" fill="#fbbc5d"/><path d="m14.654 0 17.341 17.341v.466l-17.807-17.807z" fill="#fcbc5e"/><path d="m15.119 0 16.876 16.876v.465l-17.341-17.341z" fill="#fcbd5f"/><path d="m15.585 0 16.41 16.41v.466l-16.876-16.876z" fill="#fcbd60"/><path d="m16.05 0 15.945 15.945v.465l-16.41-16.41z" fill="#fcbe61"/><path d="m16.516 0 15.479 15.479v.466l-15.945-15.945z" fill="#fcbe62"/><path d="m16.981 0 15.014 15.014v.465l-15.479-15.479z" fill="#fcbf63"/><path d="m17.446 0 14.549 14.549v.465l-15.014-15.014z" fill="#fcbf64"/><path d="m17.912 0 14.083 14.083v.466l-14.549-14.549z" fill="#fcc065"/><path d="m18.377 0 13.618 13.618v.465l-14.083-14.083z" fill="#fcc066"/><path d="m18.843 0 13.152 13.152v.466l-13.618-13.618z" fill="#fcc167"/><path d="m19.308 0 12.687 12.687v.465l-13.152-13.152z" fill="#fcc168"/><path d="m19.774 0 12.221 12.222v.465l-12.687-12.687z" fill="#fcc169"/><path d="m20.239 0 11.756 11.756v.466l-12.221-12.222z" fill="#fcc26a"/><path d="m20.704 0 11.291 11.291v.465l-11.756-11.756z" fill="#fdc26b"/><path d="m21.17 0 10.825 10.825v.466l-11.291-11.291z" fill="#fdc36c"/><path d="m21.635 0 10.36 10.36v.465l-10.825-10.825z" fill="#fdc36d"/><path d="m22.101 0 9.894 9.894v.466l-10.36-10.36z" fill="#fdc46e"/><path d="m22.566 0 9.429 9.429v.465l-9.894-9.894z" fill="#fdc46f"/><path d="m23.031 0 8.964 8.964v.465l-9.429-9.429z" fill="#fdc570"/><path d="m23.497 0 8.498 8.498v.466l-8.964-8.964z" fill="#fdc571"/><path d="m23.962 0 8.033 8.033v.465l-8.498-8.498z" fill="#fdc672"/><path d="m24.428 0 7.567 7.567v.466l-8.033-8.033z" fill="#fdc673"/><path d="m24.893 0 7.102 7.102v.465l-7.567-7.567z" fill="#fdc774"/><path d="m25.359 0 6.636 6.637v.465l-7.102-7.102z" fill="#fdc775"/><path d="m25.824 0 6.171 6.171v.466l-6.636-6.637z" fill="#fdc876"/><path d="m26.289 0 5.706 5.706v.465l-6.171-6.171z" fill="#fec877"/><path d="m26.755 0 5.24 5.24v.466l-5.706-5.706z" fill="#fec978"/><path d="m27.22 0 4.775 4.775v.465l-5.24-5.24z" fill="#fec979"/><path d="m27.686 0 4.309 4.309v.466l-4.775-4.775z" fill="#feca7a"/><path d="m28.151 0 3.844 3.844v.465l-4.309-4.309z" fill="#feca7b"/><path d="m28.616 0 3.379 3.379v.465l-3.844-3.844z" fill="#fecb7c"/><path d="m29.082 0 2.913 2.913v.466l-3.379-3.379z" fill="#fecb7d"/><path d="m31.995 2.913-2.913-2.913h2.913z" fill="#fecb7d"/><path d="m3 32.096 3.128 3.127h-3.128z" fill="#f49000"/><path d="m3 31.63 3.593 3.593h-.465l-3.128-3.127z" fill="#f49000"/><path d="m3 31.165 4.058 4.058h-.465l-3.593-3.593z" fill="#f49001"/><path d="m3 30.699 4.524 4.524h-.466l-4.058-4.058z" fill="#f49102"/><path d="m3 30.234 4.989 4.989h-.465l-4.524-4.524z" fill="#f49103"/><path d="m3 29.768 5.455 5.455h-.466l-4.989-4.989z" fill="#f49204"/><path d="m3 29.303 5.92 5.92h-.465l-5.455-5.455z" fill="#f49205"/><path d="m3 28.838 6.385 6.385h-.465l-5.92-5.92z" fill="#f49306"/><path d="m3 28.372 6.851 6.851h-.466l-6.385-6.385z" fill="#f59307"/><path d="m3 27.907 7.316 7.316h-.465l-6.851-6.851z" fill="#f59408"/><path d="m3 27.441 7.782 7.782h-.466l-7.316-7.316z" fill="#f59409"/><path d="m3 26.976 8.247 8.247h-.465l-7.782-7.782z" fill="#f5950a"/><path d="m3 26.511 8.713 8.712h-.466l-8.247-8.247z" fill="#f5950b"/><path d="m3 26.045 9.178 9.178h-.465l-8.713-8.712z" fill="#f5960c"/><path d="m3 25.58 9.643 9.643h-.465l-9.178-9.178z" fill="#f5960d"/><path d="m3 25.114 10.109 10.109h-.466l-9.643-9.643z" fill="#f5970e"/><path d="m3 24.649 10.574 10.574h-.465l-10.109-10.109z" fill="#f5970f"/><path d="m3 24.183 11.04 11.04h-.466l-10.574-10.574z" fill="#f59810"/><path d="m3 23.718 11.505 11.505h-.465l-11.04-11.04z" fill="#f59811"/><path d="m3 23.253 11.97 11.97h-.465l-11.505-11.505z" fill="#f59912"/><path d="m3 22.787 12.436 12.436h-.466l-11.97-11.97z" fill="#f69913"/><path d="m3 22.322 12.901 12.901h-.465l-12.436-12.436z" fill="#f69a14"/><path d="m3 21.856 13.367 13.367h-.466l-12.901-12.901z" fill="#f69a15"/><path d="m3 21.391 13.832 13.832h-.465l-13.367-13.367z" fill="#f69a16"/><path d="m3 20.925 14.298 14.298h-.466l-13.832-13.832z" fill="#f69b17"/><path d="m3 20.46 14.763 14.763h-.465l-14.298-14.298z" fill="#f69b18"/><path d="m3 19.995 15.228 15.228h-.465l-14.763-14.763z" fill="#f69c19"/><path d="m3 19.529 15.694 15.694h-.466l-15.228-15.228z" fill="#f69c1a"/><path d="m3 19.064 16.159 16.159h-.465l-15.694-15.694z" fill="#f69d1b"/><path d="m3 18.598 16.625 16.625h-.466l-16.159-16.159z" fill="#f69d1c"/><path d="m3 18.133 17.09 17.09h-.465l-16.625-16.625z" fill="#f69e1d"/><path d="m3 17.668 17.556 17.555h-.466l-17.09-17.09z" fill="#f69e1e"/><path d="m3 17.202 18.021 18.021h-.465l-17.556-17.555z" fill="#f79f1f"/><path d="m3 16.737 18.486 18.486h-.465l-18.021-18.021z" fill="#f79f20"/><path d="m3 16.271 18.952 18.952h-.466l-18.486-18.486z" fill="#f7a021"/><path d="m3 15.806 19.417 19.417h-.465l-18.952-18.952z" fill="#f7a022"/><path d="m3 15.34 19.883 19.883h-.466l-19.417-19.417z" fill="#f7a123"/><path d="m3 14.875 20.348 20.348h-.465l-19.883-19.883z" fill="#f7a124"/><path d="m3 14.41 20.813 20.813h-.465l-20.348-20.348z" fill="#f7a225"/><path d="m3 13.944 21.279 21.279h-.466l-20.813-20.813z" fill="#f7a226"/><path d="m3 13.479 21.735 21.735-.009.009h-.447l-21.279-21.279z" fill="#f7a327"/><path d="m3 13.013 21.968 21.968-.233.233-21.735-21.735z" fill="#f7a328"/><path d="m3 12.548 22.2 22.2-.232.233-21.968-21.968z" fill="#f7a429"/><path d="m3 12.083 22.433 22.433-.233.232-22.2-22.2z" fill="#f7a42a"/><path d="m3 11.617 22.666 22.666-.233.233-22.433-22.433z" fill="#f7a42b"/><path d="m3 11.152 22.899 22.898-.233.233-22.666-22.666z" fill="#f8a52c"/><path d="m3 10.686 23.131 23.132-.232.232-22.899-22.898z" fill="#f8a52d"/><path d="m3 10.221 23.364 23.364-.233.233-23.131-23.132z" fill="#f8a62e"/><path d="m3 9.755 23.597 23.597-.233.233-23.364-23.364z" fill="#f8a62f"/><path d="m3 9.29 23.829 23.829-.232.233-23.597-23.597z" fill="#f8a730"/><path d="m3 8.825 24.062 24.062-.233.232-23.829-23.829z" fill="#f8a731"/><path d="m3 8.359 24.295 24.295-.233.233-24.062-24.062z" fill="#f8a832"/><path d="m3 7.894 24.528 24.527-.233.233-24.295-24.295z" fill="#f8a833"/><path d="m3 7.428 24.76 24.761-.232.232-24.528-24.527z" fill="#f8a934"/><path d="m3 6.963 24.993 24.993-.233.233-24.76-24.761z" fill="#f8a935"/><path d="m3 6.497 25.226 25.226-.233.233-24.993-24.993z" fill="#f8aa36"/><path d="m3 6.032 25.458 25.458-.232.233-25.226-25.226z" fill="#f8aa37"/><path d="m3 5.567 25.691 25.691-.233.232-25.458-25.458z" fill="#f9ab38"/><path d="m3 5.101 25.924 25.924-.233.233-25.691-25.691z" fill="#f9ab39"/><path d="m3 4.636 25.995 25.995v.323l-.071.071-25.924-25.924z" fill="#f9ac3a"/><path d="m3 4.17 25.995 25.995v.466l-25.995-25.995z" fill="#f9ac3b"/><path d="m3 3.705 25.995 25.995v.465l-25.995-25.995z" fill="#f9ad3c"/><path d="m3 3.24 25.995 25.995v.465l-25.995-25.995z" fill="#f9ad3d"/><path d="m3.226 3 25.769 25.769v.466l-25.995-25.995v-.24z" fill="#f9ae3f"/><path d="m3.691 3 25.304 25.304v.465l-25.769-25.769z" fill="#f9ae40"/><path d="m4.157 3 24.838 24.838v.466l-25.304-25.304z" fill="#f9ae41"/><path d="m4.622 3 24.373 24.373v.465l-24.838-24.838z" fill="#f9af42"/><path d="m5.088 3 23.907 23.907v.466l-24.373-24.373z" fill="#f9af43"/><path d="m5.553 3 23.442 23.442v.465l-23.907-23.907z" fill="#f9b044"/><path d="m6.018 3 22.977 22.977v.465l-23.442-23.442z" fill="#f9b045"/><path d="m6.484 3 22.511 22.511v.466l-22.977-22.977z" fill="#fab146"/><path d="m6.949 3 22.046 22.046v.465l-22.511-22.511z" fill="#fab147"/><path d="m7.415 3 21.58 21.58v.466l-22.046-22.046z" fill="#fab248"/><path d="m7.88 3 21.115 21.115v.465l-21.58-21.58z" fill="#fab249"/><path d="m8.345 3 20.65 20.65v.465l-21.115-21.115z" fill="#fab34a"/><path d="m8.811 3 20.184 20.184v.466l-20.65-20.65z" fill="#fab34b"/><path d="m9.276 3 19.719 19.719v.465l-20.184-20.184z" fill="#fab44c"/><path d="m9.742 3 19.253 19.253v.466l-19.719-19.719z" fill="#fab44d"/><path d="m10.207 3 18.788 18.788v.465l-19.253-19.253z" fill="#fab54e"/><path d="m10.673 3 18.322 18.322v.466l-18.788-18.788z" fill="#fab54f"/><path d="m11.138 3 17.857 17.857v.465l-18.322-18.322z" fill="#fab650"/><path d="m11.603 3 17.392 17.392v.465l-17.857-17.857z" fill="#fab651"/><path d="m12.069 3 16.926 16.926v.466l-17.392-17.392z" fill="#fbb752"/><path d="m12.534 3 16.461 16.461v.465l-16.926-16.926z" fill="#fbb753"/><path d="m13 3 15.995 15.995v.466l-16.461-16.461z" fill="#fbb754"/><path d="m13.465 3 15.53 15.53v.465l-15.995-15.995z" fill="#fbb855"/><path d="m13.931 3 15.064 15.065v.465l-15.53-15.53z" fill="#fbb856"/><path d="m14.396 3 14.599 14.599v.466l-15.064-15.065z" fill="#fbb957"/><path d="m14.861 3 14.134 14.134v.465l-14.599-14.599z" fill="#fbb958"/><path d="m15.327 3 13.668 13.668v.466l-14.134-14.134z" fill="#fbba59"/><path d="m15.792 3 13.203 13.203v.465l-13.668-13.668z" fill="#fbba5a"/><path d="m16.258 3 12.737 12.737v.466l-13.203-13.203z" fill="#fbbb5b"/><path d="m16.723 3 12.272 12.272v.465l-12.737-12.737z" fill="#fbbb5c"/><path d="m17.188 3 11.807 11.807v.465l-12.272-12.272z" fill="#fbbc5d"/><path d="m17.654 3 11.341 11.341v.466l-11.807-11.807z" fill="#fcbc5e"/><path d="m18.119 3 10.876 10.876v.465l-11.341-11.341z" fill="#fcbd5f"/><path d="m18.585 3 10.41 10.41v.466l-10.876-10.876z" fill="#fcbd60"/><path d="m19.05 3 9.945 9.945v.465l-10.41-10.41z" fill="#fcbe61"/><path d="m19.516 3 9.479 9.479v.466l-9.945-9.945z" fill="#fcbe62"/><path d="m19.981 3 9.014 9.014v.465l-9.479-9.479z" fill="#fcbf63"/><path d="m20.446 3 8.549 8.549v.465l-9.014-9.014z" fill="#fcbf64"/><path d="m20.912 3 8.083 8.083v.466l-8.549-8.549z" fill="#fcc065"/><path d="m21.377 3 7.618 7.618v.465l-8.083-8.083z" fill="#fcc066"/><path d="m21.843 3 7.152 7.152v.466l-7.618-7.618z" fill="#fcc167"/><path d="m22.308 3 6.687 6.687v.465l-7.152-7.152z" fill="#fcc168"/><path d="m22.774 3 6.221 6.222v.465l-6.687-6.687z" fill="#fcc169"/><path d="m23.239 3 5.756 5.756v.466l-6.221-6.222z" fill="#fcc26a"/><path d="m23.704 3 5.291 5.291v.465l-5.756-5.756z" fill="#fdc26b"/><path d="m24.17 3 4.825 4.825v.466l-5.291-5.291z" fill="#fdc36c"/><path d="m24.635 3 4.36 4.36v.465l-4.825-4.825z" fill="#fdc36d"/><path d="m25.101 3 3.894 3.894v.466l-4.36-4.36z" fill="#fdc46e"/><path d="m25.566 3 3.429 3.429v.465l-3.894-3.894z" fill="#fdc46f"/><path d="m26.031 3 2.964 2.964v.465l-3.429-3.429z" fill="#fdc570"/><path d="m26.497 3 2.498 2.498v.466l-2.964-2.964z" fill="#fdc571"/><path d="m26.962 3 2.033 2.033v.465l-2.498-2.498z" fill="#fdc672"/><path d="m27.428 3 1.567 1.567v.466l-2.033-2.033z" fill="#fdc673"/><path d="m27.893 3 1.102 1.102v.465l-1.567-1.567z" fill="#fdc774"/><path d="m28.359 3 .636.637v.465l-1.102-1.102z" fill="#fdc775"/><path d="m28.824 3 .171.171v.466l-.636-.637z" fill="#fdc876"/><path d="m28.995 3.171-.171-.171h.171z" fill="#fec877"/></g></svg>