<svg xmlns="http://www.w3.org/2000/svg" width="1040" height="270"><path fill="#fff" fill-rule="evenodd" d="M-15 270h1055V0H-15z"/><g fill="#db1f26"><path d="m307.897 8.983-48.53 126.497h-.545l-8.269-29.987h-48.53l37.718 96.509h34.078L353.427 8.983zM8 236.66h22.407l.506 8.995h-1.525c-.363-2.12-.814-3.65-1.354-4.586-.54-.93-1.244-1.63-2.12-2.097-.88-.463-2.026-.694-3.435-.694h-3.518c-.545 0-.941.11-1.183.325-.243.214-.364.506-.364.892v8.924h1.2c1.382 0 2.45-.391 3.21-1.178.76-.793 1.211-2.06 1.349-3.81h1.563V255.4h-1.563c-.11-1.982-.54-3.38-1.305-4.196-.765-.809-1.921-1.216-3.463-1.216h-.99v9.519c0 .418.12.715.363.886.368.259.902.385 1.602.385h3.1c2.119 0 3.853-.677 5.202-2.037 1.343-1.354 2.174-3.408 2.505-6.144h1.563l-.385 9.8H8v-1.619h2.312c.518 0 .92-.132 1.195-.396.275-.275.407-.627.407-1.085v-19.802c0-.419-.132-.722-.407-.92-.275-.198-.765-.297-1.475-.297H8zM56.671 238.644l1.619-2.296h1.233l.16 8.89h-1.564c-.815-2.554-1.97-4.464-3.468-5.736-1.498-1.266-3.15-1.9-4.96-1.9-1.542 0-2.797.42-3.766 1.256-.97.842-1.454 1.85-1.454 3.017 0 .694.193 1.332.573 1.91.385.579.996 1.08 1.855 1.487.848.413 2.34.837 4.476 1.277 2.489.523 4.212.991 5.164 1.404 1.514.677 2.643 1.564 3.403 2.67.754 1.112 1.128 2.461 1.128 4.046 0 2.379-.815 4.273-2.45 5.693-1.976 1.707-4.415 2.555-7.327 2.555-2.681 0-5.126-.93-7.345-2.803l-2.037 2.544h-1.288v-9.536h1.536c1.514 5.44 4.597 8.16 9.244 8.16 1.899 0 3.38-.435 4.432-1.31 1.057-.876 1.585-1.972 1.585-3.282 0-.914-.231-1.68-.694-2.301-.468-.622-1.183-1.123-2.158-1.503-.534-.21-1.85-.54-3.958-.991-2.84-.628-4.867-1.277-6.078-1.944-1.211-.66-2.103-1.48-2.67-2.45-.567-.963-.853-2.146-.853-3.54 0-2.34.787-4.25 2.361-5.73 1.57-1.476 3.678-2.214 6.32-2.214 2.544 0 4.867.876 6.981 2.627M69.807 236.66h22.5l.579 9.782H91.3c-.374-2.092-.853-3.721-1.448-4.894-.589-1.172-1.266-1.999-2.026-2.494a4.472 4.472 0 0 0-2.494-.743c-.523 0-.903.11-1.15.325-.242.215-.364.523-.364.93v19.908c0 .38.116.693.358.941.237.242.523.363.859.363h2.923v1.619H74.195v-1.619h2.786c.413 0 .743-.12.99-.358.243-.236.364-.55.364-.946V239.67c0-.468-.121-.804-.369-1.03-.253-.22-.644-.33-1.178-.33-2.962 0-4.96 2.709-6.006 8.131h-1.53zM110.73 242.53l-4.124 9.806h8.209zm2.796-6.517 9.651 23.089c.276.655.584 1.096.909 1.327.325.231.754.347 1.288.347h.942v1.618h-12.08v-1.618h1.13c.897 0 1.508-.1 1.85-.298.33-.198.5-.457.5-.781 0-.254-.066-.551-.204-.887l-1.987-4.768h-9.64l-.914 2.175c-.38.908-.572 1.58-.572 2.02 0 .755.275 1.366.836 1.834.556.473 1.316.705 2.285.705h.815v1.618h-9.778v-1.618h.556c.634 0 1.184-.199 1.663-.59a5.545 5.545 0 0 0 1.57-2.141l9.226-22.032zM133.066 236.66h22.5l.573 9.782h-1.58c-.375-2.092-.854-3.721-1.448-4.894-.59-1.172-1.266-1.999-2.026-2.494a4.476 4.476 0 0 0-2.5-.743c-.523 0-.903.11-1.145.325-.248.215-.363.523-.363.93v19.908c0 .38.115.693.352.941.242.242.529.363.86.363h2.922v1.619h-13.763v-1.619h2.786c.418 0 .748-.12.996-.358.242-.236.363-.55.363-.946V239.67c0-.468-.126-.804-.374-1.03-.248-.22-.644-.33-1.173-.33-2.961 0-4.965 2.709-6.006 8.131h-1.53zM163.518 236.66h22.412l.501 8.995h-1.525c-.363-2.12-.815-3.65-1.354-4.586-.534-.93-1.245-1.63-2.12-2.097-.875-.463-2.026-.694-3.435-.694h-3.518c-.545 0-.942.11-1.178.325-.248.214-.37.506-.37.892v8.924h1.2c1.383 0 2.45-.391 3.21-1.178.766-.793 1.212-2.06 1.35-3.81h1.563V255.4h-1.564c-.104-1.982-.54-3.38-1.304-4.196-.766-.809-1.922-1.216-3.463-1.216h-.991v9.519c0 .418.12.715.369.886.368.259.903.385 1.596.385h3.1c2.12 0 3.859-.677 5.202-2.037 1.344-1.354 2.18-3.408 2.505-6.144h1.57l-.386 9.8h-23.37v-1.619h2.312c.523 0 .92-.132 1.194-.396.276-.275.413-.627.413-1.085v-19.802c0-.419-.137-.722-.413-.92-.275-.198-.765-.297-1.47-.297h-2.036zM209.617 236.66h12.597v1.618h-1.371c-.942 0-1.564.093-1.872.28-.308.182-.462.43-.462.727 0 .281.126.744.39 1.393l6.458 15.592 5.29-13.313c.353-.891.53-1.723.53-2.488 0-.715-.215-1.266-.645-1.635-.43-.375-1.079-.556-1.949-.556h-1.167v-1.619h9.954v1.619h-.743c-.644 0-1.211.22-1.718.66-.506.44-.99 1.228-1.453 2.368l-8.76 21.647h-2.075l-9.42-22.743c-.314-.776-.671-1.294-1.079-1.552-.407-.254-1.057-.38-1.965-.38h-.54zM254.018 242.53l-4.124 9.806h8.203zm2.796-6.517 9.651 23.089c.276.655.578 1.096.903 1.327.33.231.754.347 1.294.347h.941v1.618h-12.078v-1.618h1.128c.892 0 1.509-.1 1.844-.298.336-.198.507-.457.507-.781 0-.254-.072-.551-.21-.887l-1.987-4.768h-9.634l-.914 2.175c-.38.908-.578 1.58-.578 2.02 0 .755.28 1.366.842 1.834.556.473 1.316.705 2.28.705h.82v1.618h-9.778v-1.618h.556c.633 0 1.184-.199 1.657-.59.678-.555 1.2-1.271 1.575-2.141l9.227-22.032zM276.073 238.277v-1.619h13.208v1.619h-2.23c-.639 0-1.08.12-1.338.369-.253.242-.38.633-.38 1.178v19.142c0 .776.121 1.277.364 1.492.242.214.814.32 1.723.32h3.71c1.377 0 2.66-.656 3.86-1.966 1.194-1.31 2.108-3.408 2.747-6.287h1.569l-.595 9.87h-22.638v-1.618h2.263c.5 0 .875-.126 1.129-.385.258-.253.39-.611.39-1.074v-19.687c0-.473-.137-.815-.396-1.03-.264-.214-.71-.324-1.349-.324zM306.664 236.66h12.949v1.618h-2.632c-.369 0-.66.126-.864.374-.21.248-.314.628-.314 1.14v14.231c0 2.01.534 3.551 1.596 4.625 1.068 1.073 2.538 1.608 4.421 1.608 1.382 0 2.637-.298 3.76-.893.82-.435 1.498-1.161 2.026-2.169.529-1.013.793-2.279.793-3.815v-10.928c0-1.387-.314-2.433-.93-3.127-.622-.7-1.454-1.046-2.5-1.046h-.38v-1.619h9.811v1.619h-.677c-1.019 0-1.795.385-2.334 1.156-.529.776-.799 1.729-.799 2.863v11.853c0 2.631-.88 4.746-2.648 6.347-1.773 1.614-4.206 2.423-7.305 2.423-2.214 0-4.14-.364-5.787-1.09-1.64-.727-2.807-1.657-3.496-2.802-.688-1.14-1.035-2.654-1.035-4.531v-14.463c0-.672-.132-1.134-.385-1.382s-.71-.374-1.37-.374h-1.9zM352.196 242.53l-4.123 9.806h8.208zm2.797-6.517 9.65 23.089c.276.655.584 1.096.91 1.327.324.231.753.347 1.287.347h.942v1.618h-12.079v-1.618h1.129c.897 0 1.508-.1 1.85-.298.33-.198.5-.457.5-.781 0-.254-.066-.551-.203-.887l-1.988-4.768h-9.64l-.913 2.175c-.38.908-.573 1.58-.573 2.02 0 .755.275 1.366.837 1.834.556.473 1.316.705 2.285.705h.814v1.618h-9.777v-1.618h.556c.633 0 1.183-.199 1.662-.59a5.545 5.545 0 0 0 1.57-2.141l9.226-22.032zM374.531 236.66h22.5l.573 9.782h-1.58c-.374-2.092-.853-3.721-1.448-4.894-.589-1.172-1.266-1.999-2.025-2.494a4.477 4.477 0 0 0-2.5-.743c-.523 0-.903.11-1.145.325-.248.215-.363.523-.363.93v19.908c0 .38.115.693.352.941.242.242.528.363.859.363h2.923v1.619h-13.763v-1.619h2.785c.419 0 .75-.12.997-.358.242-.236.363-.55.363-.946V239.67c0-.468-.126-.804-.374-1.03-.248-.22-.644-.33-1.173-.33-2.962 0-4.966 2.709-6.006 8.131h-1.53zM405.055 236.66h13.186v1.618h-2.384c-.507 0-.881.099-1.112.308-.231.198-.347.496-.347.892v19.924c0 .468.121.798.363.99.314.26.766.386 1.36.386h2.12v1.619h-13.186v-1.619h2.015c.7 0 1.19-.12 1.476-.347.28-.23.424-.577.424-1.029v-19.698c0-.485-.132-.848-.391-1.08-.264-.23-.672-.346-1.228-.346h-2.296zM439.634 237.685c-1.382 0-2.577.38-3.595 1.14-1.013.76-1.823 1.982-2.417 3.678-.6 1.69-.903 4.008-.903 6.953 0 3.1.28 5.44.831 7.036.55 1.59 1.354 2.77 2.411 3.534 1.058.771 2.285 1.15 3.69 1.15 2.075 0 3.737-.891 4.976-2.67 1.244-1.777 1.86-4.866 1.86-9.276 0-3.083-.263-5.4-.797-6.942-.535-1.553-1.327-2.703-2.384-3.463-1.057-.76-2.285-1.14-3.672-1.14m-.105-1.668c2.422 0 4.657.584 6.705 1.757a12.547 12.547 0 0 1 4.79 4.79c1.14 2.02 1.712 4.299 1.712 6.837 0 3.865-1.26 7.085-3.787 9.656-2.516 2.572-5.649 3.86-9.387 3.86-2.477 0-4.707-.584-6.673-1.757a12.809 12.809 0 0 1-4.652-4.74c-1.14-1.987-1.706-4.294-1.706-6.926 0-3.908 1.244-7.13 3.738-9.672 2.494-2.538 5.582-3.805 9.26-3.805M461.037 236.66h7.983l13.94 17.644v-11.99c0-1.184-.336-2.131-1.008-2.841-.671-.716-1.63-1.113-2.868-1.195v-1.619h9.392v1.619c-1.31.137-2.252.528-2.819 1.172-.567.645-.847 1.597-.847 2.863v20.084h-2.015l-15.861-20.304v14.061c0 1.613.369 2.786 1.106 3.518.738.737 1.646 1.106 2.742 1.106h.435v1.619h-10.389v-1.619h.71c1.024 0 1.883-.407 2.577-1.217.699-.814 1.046-1.855 1.046-3.132v-16.61c-.776-1.03-1.773-1.541-2.973-1.541h-1.15zM512.281 238.644l1.619-2.296h1.239l.154 8.89h-1.564c-.814-2.554-1.97-4.464-3.463-5.736-1.497-1.266-3.149-1.9-4.96-1.9-1.547 0-2.802.42-3.771 1.256-.969.842-1.448 1.85-1.448 3.017 0 .694.187 1.332.573 1.91.38.579.996 1.08 1.85 1.487.853.413 2.34.837 4.475 1.277 2.489.523 4.212.991 5.17 1.404 1.508.677 2.642 1.564 3.397 2.67.754 1.112 1.134 2.461 1.134 4.046 0 2.379-.82 4.273-2.456 5.693-1.97 1.707-4.41 2.555-7.327 2.555-2.676 0-5.126-.93-7.345-2.803l-2.031 2.544h-1.288v-9.536h1.53c1.514 5.44 4.597 8.16 9.25 8.16 1.893 0 3.38-.435 4.431-1.31 1.052-.876 1.586-1.972 1.586-3.282 0-.914-.237-1.68-.7-2.301-.462-.622-1.183-1.123-2.158-1.503-.528-.21-1.85-.54-3.958-.991-2.835-.628-4.867-1.277-6.078-1.944-1.211-.66-2.098-1.48-2.665-2.45-.572-.963-.853-2.146-.853-3.54 0-2.34.782-4.25 2.356-5.73 1.57-1.476 3.678-2.214 6.326-2.214 2.538 0 4.861.876 6.975 2.627M552.012 245.93c1.332-.617 2.257-1.288 2.758-2.026.5-.738.754-1.68.754-2.825 0-1.15-.242-2.02-.732-2.603-.485-.584-1.145-.876-1.982-.876-.787 0-1.432.276-1.938.826-.507.55-.76 1.294-.76 2.235 0 1.344.633 3.1 1.9 5.269m-3.507 3.562c-.947.704-1.603 1.398-1.966 2.07-.369.671-.55 1.42-.55 2.24 0 1.531.556 3.006 1.657 4.421 1.1 1.41 2.45 2.12 4.046 2.12 1.129 0 2.29-.38 3.485-1.145-1.888-2.4-3.11-4.003-3.666-4.806-.556-.81-1.564-2.44-3.006-4.9m4.244-2.158c2.054 3.446 4.069 6.358 6.05 8.731 1.586-2.07 2.384-3.677 2.384-4.828 0-.59-.242-1.063-.715-1.432-.474-.369-1.333-.572-2.56-.616v-1.563h9.865v1.563c-1.167 0-2.059.21-2.664.633-.611.424-1.404 1.492-2.379 3.204a50.156 50.156 0 0 1-2.675 4.184c.925.964 1.668 1.597 2.23 1.905.556.308 1.1.463 1.624.463.71 0 1.31-.281 1.8-.848.484-.562.765-1.454.831-2.67h1.53c-.01 2.218-.467 3.87-1.376 4.96-1.062 1.266-2.538 1.894-4.415 1.894-.93 0-1.822-.16-2.681-.485-.859-.32-1.91-.963-3.15-1.926-1.48.924-2.78 1.563-3.88 1.904-1.107.342-2.29.507-3.568.507-2.395 0-4.31-.666-5.759-1.993-1.453-1.338-2.174-3.006-2.174-5.01 0-3.386 2.23-6.05 6.694-8-.787-1.623-1.304-2.857-1.547-3.694a8.723 8.723 0 0 1-.363-2.41c0-1.608.639-2.98 1.916-4.108 1.272-1.123 2.945-1.679 5.026-1.679 2.087 0 3.689.44 4.801 1.327 1.118.886 1.674 2.01 1.674 3.364 0 1.145-.468 2.263-1.404 3.347-.93 1.085-2.637 2.175-5.115 3.276M601.747 249.345h3.188c1.112 0 2.103-.237 2.962-.716.864-.473 1.48-1.051 1.85-1.729.363-.677.544-1.778.544-3.297 0-2.092-.561-3.562-1.69-4.421-.826-.617-2.224-.92-4.206-.92-1.15 0-1.883.094-2.185.287-.309.192-.463.517-.463.98zm-9.326-12.685h15.068c2.555 0 4.608.683 6.155 2.054 1.558 1.365 2.34 3.045 2.34 5.026 0 1.509-.451 2.83-1.354 3.959-.898 1.128-2.103 1.954-3.612 2.466-1.52.506-3.017.76-4.503.76h-4.768v8.39c0 .462.132.826.402 1.079.264.259.606.38 1.03.38h2.95v1.624h-13.708v-1.624h2.296c.506 0 .897-.121 1.156-.38.264-.253.396-.617.396-1.079v-19.61c0-.44-.137-.793-.402-1.046a1.364 1.364 0 0 0-.974-.38h-2.472zM633.714 248.334h2.175c1.927 0 3.44-.49 4.558-1.48.837-.75 1.255-2.02 1.255-3.81 0-1.646-.413-2.852-1.238-3.606-.82-.76-2.252-1.145-4.284-1.145-1.084 0-1.767.12-2.048.358-.28.242-.418.77-.418 1.59zm-9.122-11.676h13.438c2.18 0 3.959.28 5.335.842 1.376.567 2.395 1.332 3.072 2.301a5.516 5.516 0 0 1 1.007 3.22c0 1.889-.847 3.42-2.538 4.592-1.293.892-3.275 1.476-5.95 1.74 1.343.22 2.377.572 3.099 1.057.72.485 1.365 1.2 1.916 2.153.737 1.255 1.337 2.758 1.8 4.503.292 1.134.545 1.839.765 2.13.226.287.468.43.749.43.77 0 1.222-1.013 1.376-3.044h1.53c-.115 2.158-.594 3.705-1.442 4.64-.848.931-2.042 1.399-3.584 1.399-1.1 0-1.987-.226-2.653-.677-.666-.452-1.179-1.118-1.525-1.988-.204-.495-.496-1.668-.87-3.512-.43-2.158-.815-3.606-1.156-4.35-.347-.742-.782-1.293-1.333-1.651-.545-.363-1.216-.54-2.02-.54h-1.894v9.48c0 .42.121.738.363.959.353.292.755.435 1.217.435h2.334v1.618h-13.036v-1.618h2.02c.523 0 .92-.138 1.184-.408.27-.275.402-.655.402-1.14v-19.406c0-.528-.121-.925-.364-1.172-.242-.248-.594-.375-1.046-.375h-2.196zM658.078 236.66h13.19v1.618h-2.389c-.506 0-.875.099-1.106.308-.237.198-.353.496-.353.892v19.924c0 .468.127.798.364.99.313.26.77.386 1.36.386h2.124v1.619h-13.19v-1.619h2.014c.7 0 1.19-.12 1.476-.347.28-.23.424-.577.424-1.029v-19.698c0-.485-.132-.848-.39-1.08-.265-.23-.673-.346-1.229-.346h-2.295zM699.857 238.608l1.2-2.56h1.289l.435 10.322h-1.602c-.496-2.967-1.437-5.175-2.82-6.612-1.375-1.442-2.955-2.158-4.728-2.158-1.955 0-3.562.925-4.84 2.78-1.277 1.856-1.915 4.784-1.915 8.781 0 4.229.704 7.372 2.103 9.426 1.128 1.613 2.785 2.417 4.982 2.417 2.191 0 4.035-.804 5.533-2.417 1.079-1.173 1.828-2.902 2.263-5.186h1.563c-.369 2.934-1.486 5.252-3.358 6.958-1.866 1.707-4.162 2.56-6.893 2.56-3.523 0-6.48-1.244-8.863-3.733-2.384-2.488-3.579-5.67-3.579-9.551 0-4.316 1.382-7.757 4.123-10.334 2.346-2.19 5.093-3.286 8.237-3.286 1.238 0 2.389.192 3.452.583 1.062.39 2.202 1.057 3.418 2.01M712.09 236.66h13.192v1.618h-2.39c-.506 0-.875.099-1.106.308-.237.198-.353.496-.353.892v19.924c0 .468.127.798.364.99.314.26.77.386 1.36.386h2.125v1.619H712.09v-1.619h2.015c.699 0 1.189-.12 1.475-.347.281-.23.424-.577.424-1.029v-19.698c0-.485-.132-.848-.39-1.08-.265-.23-.672-.346-1.228-.346h-2.296zM733.15 236.66h7.988l13.94 17.644v-11.99c0-1.184-.341-2.131-1.013-2.841-.672-.716-1.63-1.113-2.868-1.195v-1.619h9.392v1.619c-1.31.137-2.247.528-2.819 1.172-.567.645-.848 1.597-.848 2.863v20.084h-2.015l-15.86-20.304v14.061c0 1.613.368 2.786 1.106 3.518.738.737 1.651 1.106 2.741 1.106h.435v1.619h-10.388v-1.619h.71c1.024 0 1.883-.407 2.576-1.217.7-.814 1.046-1.855 1.046-3.132v-16.61c-.776-1.03-1.772-1.541-2.972-1.541h-1.151zM789.58 236.016h1.234l.627 10.284h-1.525c-.825-3.077-1.943-5.29-3.358-6.656-1.41-1.365-2.973-2.048-4.707-2.048-1.316 0-2.521.397-3.611 1.184-1.08.793-1.933 2.02-2.544 3.694-.617 1.68-.925 3.964-.925 6.86 0 3.259.253 5.681.765 7.272.507 1.586 1.289 2.77 2.33 3.535 1.045.776 2.24 1.161 3.6 1.161 1.778 0 3.176-.506 4.184-1.514 1.007-1.012 1.514-2.35 1.514-4.024v-2.35c0-.425-.116-.75-.342-.964-.225-.215-.55-.32-.985-.32h-2.692v-1.585h12.459v1.586h-1.57c-.556 0-.957.115-1.21.335-.248.232-.37.546-.37.947v9.492h-1.36l-2.174-4.339c-.974 1.509-2.109 2.61-3.397 3.303-1.3.7-2.824 1.046-4.57 1.046-2.334 0-4.459-.555-6.37-1.668a11.53 11.53 0 0 1-4.442-4.575c-1.04-1.932-1.563-4.255-1.563-6.97 0-4.002 1.233-7.283 3.688-9.843 2.461-2.56 5.473-3.843 9.035-3.843 1.32 0 2.499.193 3.534.584 1.03.385 2.125 1.068 3.287 2.042zM834.79 238.644l1.619-2.296h1.238l.155 8.89h-1.564c-.815-2.554-1.97-4.464-3.463-5.736-1.497-1.266-3.149-1.9-4.96-1.9-1.547 0-2.802.42-3.771 1.256-.97.842-1.448 1.85-1.448 3.017 0 .694.187 1.332.572 1.91.38.579.997 1.08 1.85 1.487.853.413 2.34.837 4.476 1.277 2.488.523 4.212.991 5.17 1.404 1.508.677 2.642 1.564 3.396 2.67.755 1.112 1.135 2.461 1.135 4.046 0 2.379-.82 4.273-2.456 5.693-1.97 1.707-4.41 2.555-7.327 2.555-2.676 0-5.126-.93-7.345-2.803l-2.031 2.544h-1.289v-9.536h1.531c1.514 5.44 4.597 8.16 9.25 8.16 1.893 0 3.38-.435 4.43-1.31 1.052-.876 1.586-1.972 1.586-3.282 0-.914-.236-1.68-.699-2.301-.462-.622-1.183-1.123-2.158-1.503-.528-.21-1.85-.54-3.958-.991-2.836-.628-4.867-1.277-6.078-1.944-1.211-.66-2.098-1.48-2.67-2.45-.567-.963-.848-2.146-.848-3.54 0-2.34.782-4.25 2.356-5.73 1.57-1.476 3.678-2.214 6.326-2.214 2.538 0 4.861.876 6.975 2.627M845.999 236.66h12.805v1.618h-1.767c-.628 0-1.057.077-1.305.237-.242.154-.363.357-.363.616 0 .286.104.623.314.991l5.362 9.233 3.76-7.493c.314-.617.474-1.184.474-1.701 0-.584-.21-1.041-.612-1.377-.413-.335-1.024-.506-1.855-.506h-.787v-1.619h9.953v1.619c-1.15.027-2.07.253-2.769.688-.693.435-1.282 1.134-1.773 2.098l-5.169 10.212v8.087c0 .48.132.837.396 1.068.26.226.667.347 1.223.347h2.664v1.619h-14.094v-1.619h2.643c.6 0 1.024-.115 1.272-.341.242-.226.363-.583.363-1.074v-7.184l-6.926-11.92c-.44-.764-.902-1.287-1.398-1.563-.495-.28-1.112-.418-1.855-.418h-.556zM894.773 238.644l1.618-2.296h1.24l.153 8.89h-1.563c-.815-2.554-1.971-4.464-3.463-5.736-1.497-1.266-3.15-1.9-4.96-1.9-1.542 0-2.803.42-3.772 1.256-.969.842-1.448 1.85-1.448 3.017 0 .694.188 1.332.573 1.91.38.579.997 1.08 1.85 1.487.853.413 2.34.837 4.476 1.277 2.488.523 4.211.991 5.17 1.404 1.508.677 2.642 1.564 3.396 2.67.754 1.112 1.134 2.461 1.134 4.046 0 2.379-.82 4.273-2.455 5.693-1.971 1.707-4.41 2.555-7.328 2.555-2.675 0-5.125-.93-7.344-2.803l-2.032 2.544h-1.288v-9.536h1.53c1.515 5.44 4.598 8.16 9.25 8.16 1.894 0 3.38-.435 4.432-1.31 1.051-.876 1.585-1.972 1.585-3.282 0-.914-.237-1.68-.699-2.301-.462-.622-1.184-1.123-2.158-1.503-.529-.21-1.85-.54-3.958-.991-2.836-.628-4.867-1.277-6.078-1.944-1.212-.66-2.098-1.48-2.67-2.45-.568-.963-.848-2.146-.848-3.54 0-2.34.781-4.25 2.356-5.73 1.569-1.476 3.678-2.214 6.326-2.214 2.538 0 4.86.876 6.975 2.627M907.912 236.66h22.5l.573 9.782h-1.58c-.374-2.092-.853-3.721-1.448-4.894-.589-1.172-1.266-1.999-2.026-2.494a4.477 4.477 0 0 0-2.5-.743c-.522 0-.902.11-1.144.325-.243.215-.364.523-.364.93v19.908c0 .38.116.693.353.941.242.242.528.363.864.363h2.923v1.619H912.3v-1.619h2.78c.418 0 .749-.12.997-.358.242-.236.363-.55.363-.946V239.67c0-.468-.121-.804-.374-1.03-.248-.22-.645-.33-1.173-.33-2.962 0-4.966 2.709-6.006 8.131h-1.53zM938.368 236.66h22.413l.506 8.995h-1.53c-.364-2.12-.81-3.65-1.355-4.586-.534-.93-1.244-1.63-2.12-2.097-.874-.463-2.02-.694-3.434-.694h-3.518c-.545 0-.936.11-1.179.325-.242.214-.363.506-.363.892v8.924h1.195c1.382 0 2.45-.391 3.21-1.178.765-.793 1.21-2.06 1.354-3.81h1.558V255.4h-1.558c-.11-1.982-.545-3.38-1.31-4.196-.766-.809-1.922-1.216-3.463-1.216h-.986v9.519c0 .418.121.715.363.886.37.259.903.385 1.597.385h3.1c2.12 0 3.859-.677 5.202-2.037 1.343-1.354 2.18-3.408 2.505-6.144h1.569l-.385 9.8h-23.37v-1.619h2.312c.523 0 .919-.132 1.194-.396.276-.275.413-.627.413-1.085v-19.802c0-.419-.137-.722-.413-.92-.275-.198-.765-.297-1.47-.297h-2.037zM970.525 236.66h10.367l5.847 17.435 5.819-17.436h10.63v1.619h-2.306c-.573 0-.964.105-1.178.314-.22.203-.325.567-.325 1.079v19.66c0 .5.116.842.347 1.029.352.28.826.418 1.42.418h2.043v1.619h-13.103v-1.619h2.472c.451 0 .798-.126 1.035-.385.242-.253.358-.606.358-1.063v-21.052l-8.181 24.119h-1.542l-8.148-24.328v18.812c0 1.078.342 1.965 1.024 2.653.683.688 1.68 1.107 2.979 1.244v1.619h-9.558v-1.619c1.206-.104 2.142-.534 2.813-1.271.667-.743 1.002-1.685 1.002-2.836v-16.637c0-.705-.126-1.178-.368-1.41-.243-.23-.716-.346-1.41-.346h-2.037zM1027.237 238.644l1.618-2.296h1.239l.154 8.89h-1.564c-.814-2.554-1.97-4.464-3.462-5.736-1.498-1.266-3.15-1.9-4.96-1.9-1.548 0-2.803.42-3.772 1.256-.969.842-1.448 1.85-1.448 3.017 0 .694.187 1.332.573 1.91.38.579.996 1.08 1.85 1.487.853.413 2.34.837 4.476 1.277 2.488.523 4.211.991 5.17 1.404 1.508.677 2.642 1.564 3.396 2.67.754 1.112 1.134 2.461 1.134 4.046 0 2.379-.82 4.273-2.455 5.693-1.971 1.707-4.41 2.555-7.328 2.555-2.676 0-5.126-.93-7.344-2.803l-2.032 2.544h-1.288v-9.536h1.53c1.514 5.44 4.598 8.16 9.25 8.16 1.893 0 3.38-.435 4.431-1.31 1.052-.876 1.586-1.972 1.586-3.282 0-.914-.237-1.68-.7-2.301-.462-.622-1.183-1.123-2.157-1.503-.529-.21-1.85-.54-3.959-.991-2.835-.628-4.867-1.277-6.078-1.944-1.21-.66-2.097-1.48-2.67-2.45-.567-.963-.848-2.146-.848-3.54 0-2.34.782-4.25 2.357-5.73 1.569-1.476 3.677-2.214 6.325-2.214 2.538 0 4.862.876 6.976 2.627"/></g><path fill="#4d4447" d="M11.534 8.983h131.139v39.259h-88.61v35.977h83.699v39.27H54.064v39.253h93.508v39.26H11.534zM197.157 88.814 162.11 8.981h48.53l32.046 79.833zM416.142 90.768h28.353c14.996 0 29.988-5.18 29.988-23.167 0-19.907-20.172-22.638-36.523-22.638h-21.818zM373.62 8.98h71.696c40.074 0 73.337 12.811 73.337 58.621 0 45.249-30.808 59.156-71.427 59.156h-31.083v75.241H373.62zM531.584 192.62c3.903 6.573 10.25 9.92 18.057 9.92 9.921 0 17.722-6.017 17.722-15.492 0-22.07-40.679-9.144-40.679-39.127 0-14.044 12.035-21.625 25.297-21.625 8.583 0 16.164 2.902 21.51 9.921l-6.353 4.575c-3.678-5.131-8.578-7.807-15.377-7.807-9.475 0-17.727 4.906-17.727 14.936 0 23.74 40.685 9.475 40.685 39.127 0 14.265-11.705 22.176-24.516 22.176-10.372 0-19.511-3.342-25.638-11.925zM615.637 173.224l-28.98-44.919h8.803l23.855 37.453 24.41-37.453h8.248l-28.98 44.919v33.995h-7.356zM670.933 192.62c3.903 6.573 10.251 9.92 18.058 9.92 9.92 0 17.722-6.017 17.722-15.492 0-22.07-40.68-9.144-40.68-39.127 0-14.044 12.035-21.625 25.298-21.625 8.582 0 16.163 2.902 21.51 9.921l-6.354 4.575c-3.678-5.131-8.577-7.807-15.377-7.807-9.474 0-17.727 4.906-17.727 14.936 0 23.74 40.685 9.475 40.685 39.127 0 14.265-11.705 22.176-24.516 22.176-10.372 0-19.51-3.342-25.638-11.925zM754.986 134.993H728.01v-6.69h61.308v6.69H762.34v72.224h-7.355zM808.16 128.304h48.26v6.689h-40.904v28.089h38.345v6.689h-38.345v30.764h42.694v6.689h-50.05zM880.174 128.304h11.033l28.76 66.208 28.76-66.208h10.47v78.92h-7.349v-69.56h-.225l-30.098 69.56h-3.232l-30.538-69.56h-.226v69.56h-7.355zM988.864 192.62c3.904 6.573 10.251 9.92 18.058 9.92 9.92 0 17.722-6.017 17.722-15.492 0-22.07-40.68-9.144-40.68-39.127 0-14.044 12.035-21.625 25.298-21.625 8.582 0 16.163 2.902 21.51 9.921l-6.354 4.575c-3.678-5.131-8.578-7.807-15.377-7.807-9.474 0-17.727 4.906-17.727 14.936 0 23.74 40.685 9.475 40.685 39.127 0 14.265-11.705 22.176-24.516 22.176-10.372 0-19.51-3.342-25.638-11.925z"/></svg>