<svg height="306" viewBox="0 0 590 306" width="590" xmlns="http://www.w3.org/2000/svg"><path d="m512.957581 241.383545c-8.955323 0-15.803559 5.527283-17.515595 13.949783h33.977631c-1.975403-9.606918-9.482117-13.949783-16.462036-13.949783z" fill="none"/><path d="m397.064728 241.383545c-10.272309 0-18.4375 8.159302-18.4375 18.424255 0 10.264923 8.033508 18.424225 18.4375 18.424225 10.272308 0 18.305786-8.159302 18.305786-18.424225 0-10.264953-8.033478-18.424255-18.305786-18.424255zm0 28.689178c-5.662934 0-10.140625-4.606048-10.140625-10.133331 0-5.658874 4.609375-10.133331 10.140625-10.133331 5.662933 0 10.140655 4.606064 10.140655 10.133331 0 5.527283-4.477722 10.133331-10.140655 10.133331z" fill="none"/><g fill="#13345b"><path d="m584.732117 233.224243c-1.975403 0-3.687439 1.184418-4.477661 3.02684l-14.354859 36.716874-16.857178-36.980072c-.790222-1.710831-2.370605-2.763642-4.214294-2.763642-3.424133 0-5.662903 3.553253-4.214294 6.580078l20.412963 45.270996-.658508 1.710846c-1.448608 3.421631-4.609375 8.948914-9.745544 9.870118-.131653 0-.263306 0-.263306 0-.526855.131591-1.185303.131591-1.843811.131591h-.395081c-.131713 0-.263427 0-.263427 0-2.370484.131623-4.214295 1.842438-4.345948 4.211274-.131713 2.500427 1.843689 4.73764 4.345948 4.869262h1.448669c8.428589 0 16.066956-6.185303 20.149597-16.450226l19.754456-49.87706c1.053589-3.02684-1.185303-6.316879-4.477722-6.316879z"/><path d="m37.796871 223.222504c2.63393 0 4.741078-2.105622 4.741078-4.737656s-2.107148-4.737656-4.741078-4.737656h-32.792403c-2.633928 0-4.872774 2.105622-4.872774 4.869263v62.90564c0 2.632019 2.107141 4.869262 4.872774 4.869262 2.765624 0 4.872765-2.105651 4.872765-4.869262v-26.320374h26.734377c2.633931 0 4.741059-2.105621 4.741059-4.737655 0-2.632035-2.107128-4.737656-4.741059-4.737656h-26.734377v-22.503906z"/><path d="m55.180794 212.825974c-3.292408 0-5.926338 2.632034-5.926338 5.922073s2.63393 5.922088 5.926338 5.922088c3.292412 0 5.926342-2.632049 5.926342-5.922088.131702-3.290039-2.63393-5.922073-5.926342-5.922073z"/><path d="m55.3125 233.224243c-2.63393 0-4.741081 2.105622-4.741081 4.737671v43.823364c0 2.63205 2.107151 4.737671 4.741081 4.737671s4.741081-2.105621 4.741081-4.737671v-43.823364c-.131706-2.632049-2.238857-4.737671-4.741081-4.737671z"/><path d="m98.377228 233.224243h-11.98436v-11.05455c0-1.710815-1.580376-2.895233-3.160728-2.36882l-4.477669 1.316009c-1.053581.263199-1.843765 1.31601-1.843765 2.368836v9.738525h-8.165177c-1.316963 0-2.50222 1.052811-2.50222 2.500427v4.342865c0 1.31601 1.053574 2.500428 2.50222 2.500428h8.165177v29.347198c0 5.395661 1.448669 9.212097 4.345985 11.844147 2.370544 1.974029 5.53125 3.026855 9.745552 3.158447h.26339.921867c1.712059 0 4.477669-.394806 6.453117-.65802 1.316964-.131592 2.238854-1.184418 2.238854-2.368835v-3.948029c0-1.447632-1.18528-2.500458-2.633927-2.500458l-6.18975.394806c-1.975441 0-3.555802-.394806-4.345963-1.052795-.92189-.789612-1.316963-2.368836-1.316963-4.869263v-29.347198h12.116066c1.316963 0 2.50222-1.052811 2.50222-2.500428v-4.342865c-.131683-1.316009-1.316963-2.500427-2.633926-2.500427z"/><path d="m255.095993 233.224243c-1.975449 0-3.687515 1.184418-4.477707 3.02684l-14.354904 36.716874-16.857117-36.980072c-.790191-1.710831-2.370559-2.763642-4.214309-2.763642-3.424118 0-5.662934 3.553253-4.214264 6.580078l20.412948 45.270996-.658478 1.710846c-1.448669 3.421631-4.609375 8.948914-9.745574 9.870118-.131669 0-.263367 0-.263367 0-.526779.131591-1.185257.131591-1.843735.131591h-.395126c-.131699 0-.263367 0-.263367 0-2.37056.131623-4.214294 1.842438-4.346008 4.211274-.131699 2.500427 1.84375 4.73764 4.346008 4.869262h1.448639c8.428604 0 16.066971-6.185303 20.149567-16.450226l19.75447-49.87706c1.053559-3.02684-1.185272-6.316879-4.477676-6.316879z"/><path d="m353.736603 213.747192c-2.238831 0-4.346009 1.184418-5.53125 3.158448l-21.203125 35.006042-21.203095-35.137665c-1.185302-1.974029-3.160766-3.026825-5.399566-3.026825-3.555817 0-6.321473 2.895234-6.321473 6.316864v61.458039c0 2.632019 2.107178 4.869262 4.872803 4.869262 2.633911 0 4.872772-2.105651 4.872772-4.869262v-49.745484l15.276764 25.267548 2.897339 4.73764c2.370514 4.079682 8.296845 4.079682 10.66742 0l2.633911-4.342834 15.408478-25.662354v49.745484c0 2.632019 2.107147 4.869262 4.872772 4.869262 2.633941 0 4.872803-2.105651 4.872803-4.869262v-61.326416c-.263428-3.553253-3.160767-6.448487-6.716553-6.448487z"/><path d="m397.064728 232.171417c-15.671875 0-27.919647 12.107361-27.919647 27.636383 0 15.528992 12.247772 27.636353 27.919647 27.636353 15.540161 0 27.787964-12.107361 27.787964-27.636353 0-15.529022-12.116089-27.636383-27.787964-27.636383zm0 46.060608c-10.272309 0-18.4375-8.159302-18.4375-18.424225 0-10.264953 8.033508-18.424255 18.4375-18.424255 10.272308 0 18.305786 8.159302 18.305786 18.424255 0 10.264923-8.033478 18.424225-18.305786 18.424225z"/><path d="m457.513397 232.171417c-6.189728 0-11.325928 1.97403-15.145111 5.658875 0-2.500427-2.107147-4.606049-4.741058-4.606049-2.633942 0-4.741059 2.105622-4.741059 4.737671v.526398 2.368835 41.059723c0 2.63205 2.107117 4.737671 4.741059 4.737671 2.633911 0 4.741058-2.105621 4.741058-4.737671v-23.42511c0-10.659729 5.531281-17.108215 14.750031-17.108215 7.638366 0 11.984375 4.606064 11.984375 12.502167v27.767975c0 2.632019 2.107116 4.73767 4.741027 4.73767h.131714c2.633942 0 4.741089-2.105651 4.741089-4.73767v-27.767975c0-13.160172-8.296875-21.714295-21.203125-21.714295z"/><path d="m539.165222 260.202606s0 .131592 0 0c0 .131592.131653 0 0 0z"/></g><path d="m397.064728 249.674454c-5.662934 0-10.140625 4.606064-10.140625 10.133346 0 5.658875 4.609375 10.133332 10.140625 10.133332 5.662933 0 10.140655-4.60608 10.140655-10.133332 0-5.658889-4.477722-10.133346-10.140655-10.133346z" fill="#0079ff"/><path d="m512.957581 232.171417c-15.935273 0-27.524537 11.580963-27.524537 27.636383 0 16.05539 11.720978 27.636353 27.919617 27.636353 9.613831 0 17.910767-3.948059 22.651795-11.054535 1.316955-2.237244.658508-5.264069-1.580384-6.580109-2.107116-1.184387-4.609375-.657989-6.057983 1.184418-.131775.131622-.263428.263214-.263428.526428v.131592l-.131653.131622c-2.765686 4.211243-8.033508 6.71167-14.223205 6.71167-9.087067 0-16.067017-5.39566-17.910736-13.686584h37.27005.131775c3.424072 0 6.189636-2.763642 6.189636-6.185272-1.053528-13.160187-10.140564-26.451966-26.470947-26.451966zm-17.515595 23.161911c1.84375-8.4225 8.560272-13.949783 17.515595-13.949783 6.979919 0 14.486633 4.342865 16.330383 13.949783z" fill="#13345b"/><path d="m196.622757 213.747192c-2.238815 0-4.345978 1.184418-5.531235 3.158448l-21.203125 35.006042-21.071426-35.006042c-1.185272-1.97403-3.160706-3.026856-5.399567-3.026856-3.555801 0-6.321411 2.895233-6.321411 6.316895v61.458008c0 2.632019 2.107132 4.869262 4.872757 4.869262 2.633926 0 4.872772-2.105621 4.872772-4.869262v-49.877076l15.276795 25.267548 2.897308 4.73764c2.370544 4.079682 8.29689 4.079682 10.667404 0l2.633927-4.342834 15.408493-25.662354v49.745484c0 2.632019 2.107162 4.869262 4.872757 4.869262 2.633926 0 4.872772-2.105651 4.872772-4.869262v-61.326416c-.395066-3.553253-3.292404-6.448487-6.848221-6.448487z" fill="#13345b"/><path d="m261.364532 169.701874c-44.788879-19.359864-65.62091-71.402497-46.247131-116.159165 19.165482-44.756668 71.245575-65.573715 116.034424-46.422042 44.788879 19.151702 65.620911 71.402511 46.247131 116.159179-19.165497 44.756653-71.245575 65.5737-116.034424 46.422028zm57.913056-134.47818c-29.373169-12.698395-63.53772.832702-76.245255 30.392898-12.707534 29.352051 1.041596 63.49202 30.41478 75.982254 29.373138 12.698395 63.537689-1.040847 76.245239-30.392898 12.499207-29.352051-1.041626-63.49202-30.414764-75.982254z" fill="#89b2f4" opacity=".4"/><path d="m383.02359 71.445374c-1.249908-6.036942-3.124786-12.282059-5.624634-17.902665-2.083221-4.996109-5.208008-8.951339-10.624328-10.616714-4.583069-1.457184-9.582764-.416321-13.540833 2.498047-3.749786 2.914398-6.04129 7.702316-6.04129 12.490249.208313 4.996094 3.33313 9.784012 4.583038 14.57193 2.708161 9.575852 3.124817 19.7762.833283 29.560227-5.208008 22.06607-23.123566 39.344238-45.205506 43.715805-22.915252 4.371582-46.87207-5.41243-59.787933-24.980454-5.624664-8.743164-8.957779-18.943527-9.37442-29.35205-.208328-5.20427.208313-10.6167 1.458236-15.820969.62497-2.498047 1.249924-4.787918 2.083207-7.077789 1.041595-2.498047 2.291519-4.996094 2.916488-7.494141 2.291519-10.408539-7.082901-19.98436-17.498916-18.110855-11.66594 2.081726-14.582413 16.029144-17.290589 25.604996-5.208008 21.441558-1.249923 45.797515 10.416016 65.365554 12.915863 21.64972 34.997818 36.846177 59.787933 41.63411 11.874268 2.289871 23.956848 1.87352 35.622773-1.040848 11.665954-2.914398 22.706939-7.077804 32.706298-14.155609 18.748841-13.531082 31.664704-34.348145 35.41446-57.246902 1.458252-10.6167 1.249939-21.233399-.833283-31.641922z" fill="#0079ff"/><path d="m332.610077 88.51535c0 20.004685-16.228668 36.22168-36.247742 36.22168-20.019073 0-36.247741-16.216995-36.247741-36.22168 0-20.004684 16.228668-36.221664 36.247741-36.221664 20.019074 0 36.247742 16.21698 36.247742 36.221664z" fill="#0079ff"/></svg>