<svg width="900" height="300" viewBox="0 0 900 300" fill="none" xmlns="http://www.w3.org/2000/svg">
<g clip-path="url(#clip0_2247_14)">
<path opacity="0.5" d="M129.753 74.2993L9.87426 174.553C4.87336 178.736 4.87336 185.516 9.87426 189.699L129.753 289.953C134.754 294.135 142.862 294.135 147.863 289.953L267.741 189.699C272.742 185.516 272.742 178.736 267.741 174.553L147.863 74.2993C142.862 70.1171 134.754 70.1171 129.753 74.2993Z" fill="#1890FF"/>
<path opacity="0.7" d="M129.752 41.6616L9.87377 141.916C4.87288 146.098 4.87288 152.879 9.87377 157.061L129.752 257.315C134.753 261.497 142.861 261.497 147.862 257.315L267.741 157.061C272.742 152.879 272.742 146.098 267.741 141.916L147.862 41.6616C142.861 37.4794 134.753 37.4794 129.752 41.6616Z" fill="#1890FF"/>
<path d="M14.6228 128.388C7.00268 122.014 7.00268 111.681 14.6228 105.308L125.014 12.989C132.635 6.61566 144.991 6.61566 152.612 12.989L263.003 105.308C270.623 111.681 270.623 122.014 263.003 128.388L152.611 220.707C144.99 227.08 132.635 227.08 125.014 220.707L14.6228 128.388Z" fill="#1890FF"/>
<path d="M84.2975 87.4162L56.0096 111.073C52.1993 114.26 52.1993 119.426 56.0096 122.613L131.903 186.082C135.714 189.269 141.891 189.269 145.702 186.082L173.989 162.425L159.445 150.262L142.252 164.64C140.347 166.233 137.258 166.233 135.353 164.64L81.6493 119.728C79.7441 118.135 79.7441 115.551 81.6493 113.958L98.8416 99.5801L84.2975 87.4162ZM178.763 134.106L195.956 119.728C197.861 118.135 197.861 115.551 195.956 113.958L142.252 69.0462C140.347 67.4526 137.258 67.4526 135.353 69.0462L118.16 83.424L103.616 71.2602L131.903 47.6039C135.714 44.4172 141.891 44.4172 145.702 47.6039L221.595 111.073C225.406 114.26 225.406 119.426 221.595 122.613L193.307 146.269L178.763 134.106Z" fill="white"/>
</g>
<path d="M308.031 205V95.8691H331.029V140.913H377.904V95.8691H400.902V205H377.904V159.883H331.029V205H308.031ZM434.89 206.538C429.714 206.538 425.051 205.635 420.9 203.828C416.799 201.973 413.576 199.238 411.232 195.625C408.889 192.012 407.717 187.52 407.717 182.148C407.717 177.559 408.547 173.75 410.207 170.723C411.867 167.646 414.138 165.156 417.019 163.252C419.899 161.348 423.171 159.907 426.833 158.931C430.495 157.954 434.377 157.271 438.479 156.88C443.215 156.44 447.023 156.001 449.904 155.562C452.785 155.122 454.885 154.463 456.203 153.584C457.57 152.656 458.254 151.338 458.254 149.629V149.263C458.254 145.894 457.18 143.281 455.031 141.426C452.932 139.57 449.953 138.643 446.096 138.643C442.043 138.643 438.796 139.546 436.354 141.353C433.962 143.11 432.375 145.356 431.594 148.091L410.573 146.406C411.647 141.426 413.747 137.129 416.872 133.516C419.997 129.854 424.025 127.046 428.957 125.093C433.938 123.091 439.699 122.09 446.242 122.09C450.783 122.09 455.129 122.627 459.279 123.701C463.43 124.775 467.116 126.436 470.339 128.682C473.61 130.879 476.198 133.735 478.103 137.251C480.007 140.767 480.959 144.941 480.959 149.775V205H459.353V193.574H458.767C457.448 196.162 455.69 198.433 453.493 200.386C451.296 202.29 448.659 203.804 445.583 204.927C442.507 206.001 438.942 206.538 434.89 206.538ZM441.408 190.864C444.729 190.864 447.658 190.205 450.197 188.887C452.785 187.52 454.787 185.713 456.203 183.467C457.668 181.172 458.4 178.608 458.4 175.776V167.061C457.717 167.5 456.74 167.915 455.471 168.306C454.25 168.696 452.883 169.038 451.369 169.331C449.855 169.624 448.342 169.893 446.828 170.137C445.314 170.332 443.947 170.527 442.727 170.723C440.041 171.113 437.697 171.748 435.695 172.627C433.693 173.457 432.131 174.604 431.008 176.069C429.934 177.485 429.396 179.268 429.396 181.416C429.396 184.492 430.52 186.836 432.766 188.447C435.012 190.059 437.893 190.864 441.408 190.864ZM559.185 146.479L538.457 147.725C537.92 145.137 536.479 142.915 534.136 141.06C531.792 139.155 528.643 138.203 524.688 138.203C521.172 138.203 518.218 138.936 515.825 140.4C513.481 141.865 512.31 143.818 512.31 146.26C512.31 148.213 513.066 149.897 514.58 151.313C516.143 152.681 518.804 153.755 522.563 154.536L537.432 157.466C545.391 159.077 551.323 161.689 555.229 165.303C559.136 168.916 561.089 173.677 561.089 179.585C561.089 185.005 559.526 189.741 556.401 193.794C553.276 197.798 548.979 200.947 543.511 203.242C538.042 205.488 531.768 206.611 524.688 206.611C513.848 206.611 505.205 204.341 498.76 199.8C492.363 195.259 488.628 189.106 487.554 181.343L509.746 180.171C510.479 183.491 512.139 186.006 514.727 187.715C517.314 189.424 520.635 190.278 524.688 190.278C528.643 190.278 531.841 189.497 534.282 187.935C536.772 186.372 538.018 184.395 538.018 182.002C538.018 177.949 534.502 175.215 527.471 173.799L513.335 170.869C505.376 169.258 499.443 166.499 495.537 162.593C491.631 158.687 489.678 153.682 489.678 147.578C489.678 142.305 491.118 137.764 493.999 133.955C496.88 130.146 500.908 127.217 506.084 125.166C511.309 123.115 517.412 122.09 524.395 122.09C534.746 122.09 542.876 124.287 548.784 128.682C554.741 133.027 558.208 138.96 559.185 146.479ZM606.648 205H578.23V185.225H605.623C612.508 185.225 618.27 184.028 622.908 181.636C627.596 179.194 631.111 175.41 633.455 170.283C635.848 165.107 637.044 158.467 637.044 150.361C637.044 142.305 635.848 135.713 633.455 130.586C631.111 125.459 627.596 121.699 622.908 119.307C618.27 116.865 612.532 115.645 605.696 115.645H577.791V95.8691H607.015C618.001 95.8691 627.449 98.0664 635.359 102.461C643.27 106.807 649.349 113.057 653.597 121.211C657.845 129.316 659.969 139.033 659.969 150.361C659.969 161.738 657.82 171.504 653.523 179.658C649.275 187.812 643.172 194.087 635.213 198.481C627.254 202.827 617.732 205 606.648 205ZM590.975 95.8691V205H567.977V95.8691H590.975ZM692.052 206.538C686.876 206.538 682.213 205.635 678.062 203.828C673.961 201.973 670.738 199.238 668.395 195.625C666.051 192.012 664.879 187.52 664.879 182.148C664.879 177.559 665.709 173.75 667.369 170.723C669.029 167.646 671.3 165.156 674.181 163.252C677.062 161.348 680.333 159.907 683.995 158.931C687.657 157.954 691.539 157.271 695.641 156.88C700.377 156.44 704.186 156.001 707.066 155.562C709.947 155.122 712.047 154.463 713.365 153.584C714.732 152.656 715.416 151.338 715.416 149.629V149.263C715.416 145.894 714.342 143.281 712.193 141.426C710.094 139.57 707.115 138.643 703.258 138.643C699.205 138.643 695.958 139.546 693.517 141.353C691.124 143.11 689.537 145.356 688.756 148.091L667.735 146.406C668.81 141.426 670.909 137.129 674.034 133.516C677.159 129.854 681.188 127.046 686.119 125.093C691.1 123.091 696.861 122.09 703.404 122.09C707.945 122.09 712.291 122.627 716.441 123.701C720.592 124.775 724.278 126.436 727.501 128.682C730.772 130.879 733.36 133.735 735.265 137.251C737.169 140.767 738.121 144.941 738.121 149.775V205H716.515V193.574H715.929C714.61 196.162 712.853 198.433 710.655 200.386C708.458 202.29 705.821 203.804 702.745 204.927C699.669 206.001 696.104 206.538 692.052 206.538ZM698.57 190.864C701.891 190.864 704.82 190.205 707.359 188.887C709.947 187.52 711.949 185.713 713.365 183.467C714.83 181.172 715.562 178.608 715.562 175.776V167.061C714.879 167.5 713.902 167.915 712.633 168.306C711.412 168.696 710.045 169.038 708.531 169.331C707.018 169.624 705.504 169.893 703.99 170.137C702.477 170.332 701.109 170.527 699.889 170.723C697.203 171.113 694.859 171.748 692.857 172.627C690.855 173.457 689.293 174.604 688.17 176.069C687.096 177.485 686.559 179.268 686.559 181.416C686.559 184.492 687.682 186.836 689.928 188.447C692.174 190.059 695.055 190.864 698.57 190.864ZM791.811 123.115V140.254H742.519V123.115H791.811ZM753.725 103.633H776.356V179.805C776.356 182.539 776.967 184.565 778.188 185.884C779.408 187.153 781.361 187.788 784.047 187.788C784.926 187.788 785.902 187.715 786.977 187.568C788.051 187.422 788.979 187.251 789.76 187.056L793.349 204.048C790.858 204.78 788.441 205.317 786.098 205.659C783.803 206.001 781.532 206.172 779.286 206.172C771.132 206.172 764.833 204.146 760.39 200.093C755.946 195.991 753.725 190.229 753.725 182.808V103.633ZM821.989 206.538C816.813 206.538 812.15 205.635 808 203.828C803.898 201.973 800.676 199.238 798.332 195.625C795.988 192.012 794.816 187.52 794.816 182.148C794.816 177.559 795.646 173.75 797.307 170.723C798.967 167.646 801.237 165.156 804.118 163.252C806.999 161.348 810.271 159.907 813.933 158.931C817.595 157.954 821.477 157.271 825.578 156.88C830.314 156.44 834.123 156.001 837.004 155.562C839.885 155.122 841.984 154.463 843.303 153.584C844.67 152.656 845.354 151.338 845.354 149.629V149.263C845.354 145.894 844.279 143.281 842.131 141.426C840.031 139.57 837.053 138.643 833.195 138.643C829.143 138.643 825.896 139.546 823.454 141.353C821.062 143.11 819.475 145.356 818.693 148.091L797.673 146.406C798.747 141.426 800.847 137.129 803.972 133.516C807.097 129.854 811.125 127.046 816.057 125.093C821.037 123.091 826.799 122.09 833.342 122.09C837.883 122.09 842.229 122.627 846.379 123.701C850.529 124.775 854.216 126.436 857.438 128.682C860.71 130.879 863.298 133.735 865.202 137.251C867.106 140.767 868.059 144.941 868.059 149.775V205H846.452V193.574H845.866C844.548 196.162 842.79 198.433 840.593 200.386C838.396 202.29 835.759 203.804 832.683 204.927C829.606 206.001 826.042 206.538 821.989 206.538ZM828.508 190.864C831.828 190.864 834.758 190.205 837.297 188.887C839.885 187.52 841.887 185.713 843.303 183.467C844.768 181.172 845.5 178.608 845.5 175.776V167.061C844.816 167.5 843.84 167.915 842.57 168.306C841.35 168.696 839.982 169.038 838.469 169.331C836.955 169.624 835.441 169.893 833.928 170.137C832.414 170.332 831.047 170.527 829.826 170.723C827.141 171.113 824.797 171.748 822.795 172.627C820.793 173.457 819.23 174.604 818.107 176.069C817.033 177.485 816.496 179.268 816.496 181.416C816.496 184.492 817.619 186.836 819.865 188.447C822.111 190.059 824.992 190.864 828.508 190.864Z" fill="#1890FF"/>
<defs>
<clipPath id="clip0_2247_14">
<rect width="275" height="300" fill="white" transform="translate(1)"/>
</clipPath>
</defs>
</svg>
