<svg fill="none" height="17.860001" width="88.845001" xmlns="http://www.w3.org/2000/svg"><path d="m6.54 13.94h2.54v-6.86c0-1.88-1.02-3.04-3.14-3.04-1.58 0-2.78.76-3.4 1.5v-4.94h-2.54v13.34h2.54v-6.5c.44-.58 1.22-1.14 2.2-1.14 1.1 0 1.8.42 1.8 1.76zm6.321-10.9a1.52 1.52 0 1 0 0-3.04c-.82 0-1.52.68-1.52 1.52s.7 1.52 1.52 1.52zm-1.26 10.9h2.54v-9.66h-2.54zm4.859 2.48c1.22 1.06 2.5 1.44 4.16 1.44 2.38 0 5.22-.9 5.22-4.58v-9h-2.56v1.24c-.78-.98-1.82-1.48-2.98-1.48-2.44 0-4.26 1.76-4.26 4.92 0 3.22 1.84 4.92 4.26 4.92 1.18 0 2.22-.56 2.98-1.52v.98c0 1.9-1.44 2.44-2.66 2.44s-2.24-.34-3.02-1.2zm6.82-5.9c-.42.62-1.34 1.1-2.18 1.1-1.44 0-2.44-1-2.44-2.66s1-2.66 2.44-2.66c.84 0 1.76.46 2.18 1.1zm11.62 3.42h2.54v-6.86c0-1.88-1.02-3.04-3.14-3.04-1.58 0-2.78.76-3.4 1.5v-4.94h-2.54v13.34h2.54v-6.5c.44-.58 1.22-1.14 2.2-1.14 1.1 0 1.8.42 1.8 1.76zm8.3.24c1.06 0 1.74-.28 2.12-.62l-.54-1.92c-.14.14-.5.28-.88.28-.56 0-.88-.46-.88-1.06v-4.36h1.96v-2.22h-1.96v-2.64h-2.56v2.64h-1.6v2.22h1.6v5.04c0 1.72.96 2.64 2.74 2.64zm7.999 0c3.2 0 5.12-2.32 5.12-5.08 0-2.74-1.92-5.06-5.12-5.06-3.18 0-5.1 2.32-5.1 5.06 0 2.76 1.92 5.08 5.1 5.08zm0-2.26c-1.58 0-2.46-1.3-2.46-2.82 0-1.5.88-2.8 2.46-2.8s2.48 1.3 2.48 2.8c0 1.52-.9 2.82-2.48 2.82zm13.524 2.02h2.54v-9.66h-2.54v6.54c-.44.56-1.22 1.1-2.2 1.1-1.08 0-1.78-.44-1.78-1.78v-5.86h-2.54v6.86c0 1.88 1 3.04 3.12 3.04 1.58 0 2.74-.72 3.4-1.46zm4.442-4.84c0 2.98 2.14 5.08 5.12 5.08 1.98 0 3.18-.86 3.82-1.76l-1.66-1.54c-.46.64-1.16 1.04-2.04 1.04-1.54 0-2.62-1.14-2.62-2.82s1.08-2.8 2.62-2.8c.88 0 1.58.36 2.04 1.04l1.66-1.56c-.64-.88-1.84-1.74-3.82-1.74-2.98 0-5.12 2.1-5.12 5.06zm17.14 4.84h2.54v-6.86c0-1.88-1.02-3.04-3.14-3.04-1.58 0-2.78.76-3.4 1.5v-4.94h-2.54v13.34h2.54v-6.5c.44-.58 1.22-1.14 2.2-1.14 1.1 0 1.8.42 1.8 1.76z" fill="#2d3144"/></svg>