<svg height="894" viewBox="0 0 3755 894" width="3755" xmlns="http://www.w3.org/2000/svg"><path d="m3755 371.5672-30 172.999939h-71l-51 286h-213l51-286h-53l30-172.999939h53l26-147h213l-26 147zm-365-85c-16.666748 0-32.166748 5.833313-46.5 17.5-14.333252 11.666626-23.166748 25.833313-26.5 42.5l-4 25h79l-30 172.999939h-70l-51 286h-229l51-286h-61l29-172.999939h62l7-40c12.666748-68 37.666748-119.5 75-154.5s91.333252-52.5 162-52.5c21.333252 0 36.666748.666626 46 2l47 6-27 152h-13zm-450 421.999939c-19.333252 27.333313-45 52.333313-77 75-30.666748 19.333313-63.166748 34.166687-97.5 44.5s-70.333252 15.5-108 15.5-71.5-5-101.5-15c-33.333252-11.333313-60.333252-26.333313-81-45-21.333252-17.333313-37.666748-42.333313-49-75-10.666748-29.333313-13-63-7-101s19.666748-73.333313 41-106c22.666748-31.333313 47.333252-56.666687 74-76 28.666748-20.666687 61.666748-36.333313 99-46.999939 33.333252-10 70.333252-15 111-15s76 5 106 15c34 11.333313 61 26.999939 81 46.999939 23.333252 23.333313 39 48.666687 47 76 9.333252 32 10.833252 67.333313 4.5 106s-20.5 72.333313-42.5 101zm-184-151c-8.666748-12.666687-22.666748-19-42-19-18 0-34.5 6.333313-49.5 19s-23.5 28.333313-25.5 47c-4 18.666687-.333252 33.666687 11 45 9.333252 11.333313 22.833252 17 40.5 17s33.166748-5.666687 46.5-17c14.666748-13.333313 23.333252-28.333313 26-45 4-18 1.666748-33.666687-7-47zm-452-56c-14-6.666687-31.666748-10-53-10-6 0-13.166748 1.166687-21.5 3.5s-12.5 8.166687-12.5 17.5c-1.333252 5.333313-.833252 10 1.5 14s5.833252 6.333313 10.5 7l13 4c10.666748 2.666687 19.333252 4.333313 26 5 12.666748 2.666687 30.333252 7 53 13 20.666748 7.333313 35 15 43 23 10.666748 10.666687 19 23.666687 25 39 4.666748 14.666687 4.666748 33.666687 0 57-6.666748 31.333313-18 57-34 77-15.333252 19.333313-36 37-62 53-25.333252 14-50.5 24-75.5 30s-52.5 9-82.5 9c-38.666748 0-74-5-106-15-41.333374-12.666687-74-24.666687-98-36l83-139 13 8c14.666626 10.666687 31 20 49 28 22 10 41 15 57 15 7.333252 0 15-2 23-6s13.333252-10.333313 16-19c1.333252-4.666687.666748-9.666687-2-15-2-3.333313-5.666748-6.333313-11-9-1.333252-.666687-4-1.333313-8-2l-7-2c-1.333252 0-3.833252-.333313-7.5-1s-6.166748-1-7.5-1c-15.333252-2-32.333252-5.666687-51-11-18-6.666687-32.166626-14.666687-42.5-24s-18.666626-21.166687-25-35.5-7.5-32.833313-3.5-55.5c4-24.666687 14.666626-49.666687 32-75 19.333252-21.333313 39.333252-37.666687 60-49 27.333252-14.666626 52.333252-23.999939 75-27.999939 24.666748-5.333374 50.333252-8 77-8 32.666748 0 63 2.666626 91 8 31.333252 6.666626 58.333252 16.666626 81 29.999939l-76 128c-8.666748-6.666687-23-16-43-28zm-885 521 138-222-115-426.999939h224l49 177.999939 111-177.999939h218l-408 648.999939zm34-414c-6 36.666687-19.666626 70-41 100-19.333374 27.333313-45 52.333313-77 75-30 19.333313-62.166626 34.166687-96.5 44.5s-70.5 15.5-108.5 15.5-72-5-102-15c-32.666687-11.333313-59.666687-26.333313-81-45-20.666687-17.333313-37-42.333313-49-75-10.666687-29.333313-12.833313-63-6.5-101s19.833313-73.333313 40.5-106c22.666687-31.333313 47.666687-56.666687 75-76 28.666626-20.666687 61.333374-36.333313 98-46.999939 34-10 71.333374-15 112-15s76 5 106 15c34 11.333313 61 26.999939 81 46.999939 23.333374 23.333313 39 48.666687 47 76 8 30 8.666626 65.666687 2 107zm-226-51c-8.666626-12.666687-23-19-43-19-18 0-34.333374 6.333313-49 19s-23.333374 28.333313-26 47c-4 18.666687-.333374 33.666687 11 45 9.333374 11.333313 22.833374 17 40.5 17s33.166626-5.666687 46.5-17c15.333374-13.333313 24-28.333313 26-45 3.333374-8 4.333374-16.166687 3-24.5s-4.333374-15.833313-9-22.5zm-393-115c-10 13.333313-20.666687 24-32 32-12.666687 8.666687-27.666687 15-45 19v4c19.333313 6 35.333313 14 48 24 11.333313 8.666687 21 20 29 34 17.333313 26 23 58.666687 17 98-6 32-18 60.333313-36 85-18 22-40 40.666687-66 56-22 12.666687-49.666687 22.666687-83 30-26.666687 5.333313-56 8-88 8h-313l115-650.999939h264c32.666687 0 64 2.166626 94 6.5 30 4.333313 55.833313 13 77.5 26s37.833313 31.333313 48.5 55c10.666687 23.666626 12.666687 54.5 6 92.5-4 27.333313-16 54.333252-36 80.999939zm-337 232h62c7.333313 0 18-1.333313 32-4 12-4.666687 21.333313-10.333313 28-17 8-8 12.833313-18.333313 14.5-31s.166687-23.666687-4.5-33c-4-4-7.333313-7-10-9-4-3.333313-8.333313-5.333313-13-6-14-2.666687-24.666687-4-32-4h-58zm149-319.999939c-4-6.666687-9.666687-11-17-13-8-2.666687-16.333313-4-25-4h-47l-17 95.999939h25c3.333313 0 7.833313-.333313 13.5-1s10.166687-1 13.5-1 8.666687-1.333313 16-4l9-2c7.333313-2 13.666687-7 19-15 2.666687-3.333313 4.833313-7 6.5-11s2.833313-9.666626 3.5-16.99997c4.666687-11.999969 4.666687-21.333343 0-27.999969zm-646 477.999939 81-458.999939h213l-81 458.999939zm275-598.999939c-6.666656 25.333313-17.666656 43-33 53-12.666672 9.333313-29.166672 13-49.5 11s-32.833328-15-37.5-39c-3.333328-20-1-45.666687 7-77 6-21.333374 17.666672-47.333374 35-78 16-27.333374 32.166672-51.666687 48.5-73 16.333344-21.333374 26.666656-31.500061 31-30.5 4.333344 1 6.833344 8.166626 7.5 21.5 0 8.666626-1 27-3 55-5.333344 64-7.333344 116.333313-6 157z" fill="#0084ff"/></svg>