<svg height="24" viewBox="0 0 78 24" width="78" xmlns="http://www.w3.org/2000/svg"><g fill="none" fill-rule="evenodd"><g fill="#1fb141" fill-rule="nonzero"><path d="m12 0h-12v24h12z"/><path d="m18 12c3.3137085 0 6-2.6862915 6-6s-2.6862915-6-6-6-6 2.6862915-6 6 2.6862915 6 6 6zm0 12c3.3137085 0 6-2.6862915 6-6s-2.6862915-6-6-6-6 2.6862915-6 6 2.6862915 6 6 6z"/></g><path d="m29.8006751 7.04556274h-2.2851301v9.45443726h2.2851301zm10.0630672 3.42538696c-.2308213-2.262048-1.9158162-3.55464684-4.2009463-3.55464684-2.5205677 0-4.4825481 1.73115917-4.4825481 4.85647854 0 3.11147 1.9158161 4.8564785 4.4825481 4.8564785 2.5944306 0 4.0301386-1.7634742 4.2009463-3.4392362l-2.3082123-.0138493c-.1615748.9094356-.8448056 1.4495573-1.8465697 1.4495573-1.347996 0-2.1974181-.9740656-2.1974181-2.8529503 0-1.80502198.8309564-2.85295033 2.2112673-2.85295033 1.0386955 0 1.7173099.6047516 1.8327205 1.55111863zm10.2754932 1.3018317c0 3.1253193-1.9758296 4.8564785-4.5148631 4.8564785-2.5482663 0-4.5102467-1.7450085-4.5102467-4.8564785 0-3.12531937 1.9619804-4.85647854 4.5102467-4.85647854 2.5390335 0 4.5148631 1.73115917 4.5148631 4.85647854zm-2.3359107 0c0-1.85118623-.8124908-2.85295033-2.1789524-2.85295033-1.3618452 0-2.1789523 1.0017641-2.1789523 2.85295033 0 1.8511862.8171071 2.8529503 2.1789523 2.8529503 1.3664616 0 2.1789524-1.0017641 2.1789524-2.8529503zm11.7619861-4.72721866h-2.2805137v5.44738086h-.0784792l-3.7208381-5.44738086h-1.9665968v9.45443726h2.2851301v-5.4566137h.0600135l3.7623859 5.4566137h1.9388983zm6.5915819 2.83448461h2.1881852c-.0184657-1.76809056-1.4264752-2.96374449-3.6238932-2.96374449-2.1604866 0-3.7162217 1.17718823-3.7023724 2.93604594-.0046164 1.435708 1.0017641 2.2435823 2.6359783 2.6175127l.9879149.2308212c1.0386955.2400541 1.5049543.5216559 1.5141872 1.0525448-.0092329.577053-.5493545.9786819-1.468023.9786819-1.0109969 0-1.6757621-.4708753-1.7265427-1.3803109h-2.1881852c.0276985 2.2112673 1.5649679 3.2684285 3.9424265 3.2684285 2.3543764 0 3.7485366-1.066394 3.7577695-2.8621831-.0092329-1.5095708-1.0294627-2.4328557-2.8944982-2.8437175l-.8124907-.184657c-.8586549-.1846569-1.403393-.4708752-1.3849273-1.03407903.0046164-.51703953.4477932-.89096991 1.3341467-.89096991.8909699 0 1.3803109.40162892 1.4403244 1.07562689zm7.2009397 6.74921255c-2.2112673 0-3.817783-1.1494897-3.817783-2.686759 0-1.1725718.9279013-2.1235553 2.1235553-2.3082123v-.0738628c-1.043312-.1938898-1.772707-1.0433119-1.772707-2.0866238 0-1.47725582 1.4680229-2.55749914 3.4669347-2.55749914s3.4669348 1.08485974 3.4669348 2.55749914c0 1.0433119-.7478608 1.892734-1.772707 2.0866238v.0738628c1.1771882.184657 2.1235552 1.1356405 2.1235552 2.3082123 0 1.5372693-1.6065157 2.686759-3.817783 2.686759zm0-1.620365c.8355728 0 1.4218587-.521656 1.4218587-1.251051 0-.7340115-.6001351-1.2695167-1.4218587-1.2695167-.8217235 0-1.4218587.5308888-1.4218587 1.2695167 0 .7247786.5816695 1.251051 1.4218587 1.251051zm0-4.1316999c.7155458 0 1.2372018-.4801081 1.2372018-1.15410608 0-.66014869-.5124231-1.13102399-1.2372018-1.13102399-.7247786 0-1.2372017.46625887-1.2372017 1.13102399 0 .66938158.5170395 1.15410608 1.2372017 1.15410608z" fill="#333"/></g></svg>