<?xml version="1.0" encoding="UTF-8" standalone="no"?>
<svg
   width="77px"
   height="24px"
   viewBox="0 0 77 24"
   version="1.1"
   id="svg833"
   sodipodi:docname="icons8.svg"
   inkscape:version="1.1 (c4e8f9e, 2021-05-24)"
   xmlns:inkscape="http://www.inkscape.org/namespaces/inkscape"
   xmlns:sodipodi="http://sodipodi.sourceforge.net/DTD/sodipodi-0.dtd"
   xmlns="http://www.w3.org/2000/svg"
   xmlns:svg="http://www.w3.org/2000/svg">
  <defs
     id="defs837" />
  <sodipodi:namedview
     id="namedview835"
     pagecolor="#505050"
     bordercolor="#ffffff"
     borderopacity="1"
     inkscape:pageshadow="0"
     inkscape:pageopacity="0"
     inkscape:pagecheckerboard="1"
     showgrid="false"
     inkscape:zoom="6.42363"
     inkscape:cx="34.715573"
     inkscape:cy="5.2929574"
     inkscape:window-width="1359"
     inkscape:window-height="718"
     inkscape:window-x="0"
     inkscape:window-y="0"
     inkscape:window-maximized="0"
     inkscape:current-layer="svg833" />
  <g
     id="logo"
     fill-rule="nonzero"
     fill="#1fb141"
     style="stroke:none;stroke-width:1">
    <polygon
       id="Shape"
       points="12,0 0,0 0,24 12,24 " />
    <path
       d="m 18,12 c 3.313708,0 6,-2.6862915 6,-6 0,-3.3137085 -2.686292,-6 -6,-6 -3.313709,0 -6,2.6862915 -6,6 0,3.3137085 2.686291,6 6,6 z m 0,12 c 3.313708,0 6,-2.686292 6,-6 0,-3.313709 -2.686292,-6 -6,-6 -3.313709,0 -6,2.686291 -6,6 0,3.313708 2.686291,6 6,6 z"
       id="path825" />
  </g>
  <g
     aria-label="ICONS8"
     id="text"
     style="font-weight:700;font-size:13px;font-family:Inter-ExtraBold, Inter;letter-spacing:0.05;fill:#333333;fill-rule:evenodd">
    <path
       d="M 29.620667,7.0454545 H 27.621732 V 16.5 h 1.998935 z"
       id="path938" />
    <path
       d="m 39.669957,10.355469 c -0.26314,-2.183594 -1.915838,-3.4392758 -4.104049,-3.4392758 -2.497514,0 -4.404119,1.7634943 -4.404119,4.8565338 0,3.083807 1.87429,4.856534 4.404119,4.856534 2.423651,0 3.887074,-1.61115 4.104049,-3.351562 l -2.022017,-0.0092 c -0.189276,1.011008 -0.98331,1.592685 -2.049716,1.592685 -1.435725,0 -2.409802,-1.066407 -2.409802,-3.088424 0,-1.966619 0.960228,-3.088423 2.423651,-3.088423 1.094105,0 1.883523,0.6324574 2.035867,1.671165 z"
       id="path940" />
    <path
       d="m 49.841583,11.772727 c 0,-3.0930395 -1.920454,-4.8565338 -4.427201,-4.8565338 -2.520597,0 -4.427202,1.7634943 -4.427202,4.8565338 0,3.079191 1.906605,4.856534 4.427202,4.856534 2.506747,0 4.427201,-1.763494 4.427201,-4.856534 z m -2.026633,0 c 0,2.003551 -0.950994,3.088424 -2.400568,3.088424 -1.454191,0 -2.400568,-1.084873 -2.400568,-3.088424 0,-2.0035509 0.946377,-3.088423 2.400568,-3.088423 1.449574,0 2.400568,1.0848721 2.400568,3.088423 z"
       id="path942" />
    <path
       d="m 59.267648,7.0454545 h -1.989702 v 5.9460225 h -0.0831 L 53.113884,7.0454545 H 51.359622 V 16.5 h 1.998935 v -5.950639 h 0.06925 L 57.541086,16.5 h 1.726562 z"
       id="path944" />
    <path
       d="m 66.085405,9.7645597 h 1.915838 c -0.0277,-1.6850142 -1.412642,-2.8483665 -3.517756,-2.8483665 -2.072798,0 -3.591619,1.1448863 -3.582386,2.8622159 -0.0046,1.3941759 0.978693,2.1928269 2.575994,2.5759939 l 1.029475,0.258523 c 1.029474,0.24929 1.601917,0.544744 1.606534,1.181818 -0.0046,0.692472 -0.660157,1.163353 -1.675782,1.163353 -1.038707,0 -1.786576,-0.480114 -1.851207,-1.426492 h -1.934304 c 0.05078,2.0451 1.514205,3.102273 3.808594,3.102273 2.308238,0 3.665483,-1.103338 3.670099,-2.834517 -0.0046,-1.574219 -1.191051,-2.409801 -2.834517,-2.77912 l -0.849432,-0.203125 c -0.821733,-0.189275 -1.509588,-0.493963 -1.495738,-1.1725847 0,-0.609375 0.540128,-1.0571733 1.518821,-1.0571733 0.955611,0 1.541903,0.4339488 1.615767,1.1772017 z"
       id="path946" />
    <path
       d="m 72.983948,16.629261 c 2.132813,0 3.665483,-1.14027 3.6701,-2.67294 -0.0046,-1.181818 -0.914063,-2.146662 -2.049716,-2.335937 v -0.06463 c 0.987926,-0.203125 1.694247,-1.057173 1.698863,-2.0958808 -0.0046,-1.4634233 -1.408025,-2.543679 -3.319247,-2.543679 -1.915838,0 -3.319247,1.0802557 -3.314631,2.543679 -0.0046,1.0340908 0.692472,1.8927558 1.698864,2.0958808 v 0.06463 c -1.154119,0.189275 -2.054332,1.154119 -2.049716,2.335937 -0.0046,1.53267 1.532671,2.67294 3.665483,2.67294 z m 0,-1.468039 c -0.950994,0 -1.588068,-0.563211 -1.588068,-1.361861 0,-0.817117 0.669389,-1.408026 1.588068,-1.408026 0.914063,0 1.588068,0.590909 1.588068,1.408026 0,0.803267 -0.64169,1.361861 -1.588068,1.361861 z m 0,-4.224077 c -0.79865,0 -1.366477,-0.521662 -1.366477,-1.2695314 0,-0.7386363 0.558594,-1.2464488 1.366477,-1.2464488 0.803267,0 1.366477,0.512429 1.366477,1.2464488 0,0.7478694 -0.572443,1.2695314 -1.366477,1.2695314 z"
       id="path948" />
  </g>
</svg>
