<svg height="30" viewBox="0 0 100 30" width="100" xmlns="http://www.w3.org/2000/svg"><path d="m31.422 6.08c.427-.004.837.17 1.13.48.308.307.478.726.47 1.161.009.431-.16.847-.466 1.15-.289.307-.693.479-1.115.475-.432.007-.846-.17-1.14-.487-.311-.311-.481-.735-.472-1.174-.006-.426.162-.837.465-1.137.296-.305.704-.475 1.129-.469l-.001.002zm-1.256 4.132h2.51v10.037h-2.51zm7.25 0v1.11c.419-.43.916-.777 1.465-1.021.532-.229 1.105-.346 1.684-.343 1.269-.015 2.481.529 3.315 1.486.929 1.046 1.417 2.412 1.362 3.81.041 1.387-.465 2.734-1.41 3.75-.418.475-.932.856-1.508 1.116s-1.2.394-1.831.392c-.55.004-1.094-.1-1.603-.309-.549-.244-1.049-.586-1.475-1.01v4.73h-2.481v-13.712h2.481zm2.627 2.068c-.739-.021-1.453.275-1.96.813-.532.574-.812 1.336-.777 2.118-.036.795.244 1.573.778 2.163.505.544 1.218.845 1.96.827.734.013 1.437-.293 1.927-.84.53-.584.81-1.352.78-2.14.03-.78-.246-1.54-.768-2.117-.497-.543-1.204-.845-1.94-.827zm8.247-6.2c.428-.005.838.169 1.132.48.308.307.478.727.47 1.162.009.431-.16.847-.466 1.15-.289.307-.693.479-1.115.475-.432.007-.846-.17-1.14-.487-.311-.31-.482-.735-.472-1.174-.006-.426.162-.837.465-1.137.296-.305.704-.475 1.129-.469zm-1.255 4.132h2.51v10.037h-2.51zm4.768 0h2.49v1.026c.46-.412.981-.75 1.545-1.001.447-.187.927-.283 1.412-.284.949-.017 1.861.362 2.518 1.047.629.721.943 1.665.87 2.62v6.63h-2.472v-4.398c.03-.8-.024-1.6-.164-2.388-.082-.354-.279-.67-.56-.9-.282-.211-.628-.32-.98-.309-.486-.01-.956.175-1.306.513-.387.385-.65.877-.756 1.414-.096.675-.133 1.358-.11 2.04v4.03h-2.49v-10.04zm10.06 0h.89c.007-1.314.026-2.092.064-2.335.046-.512.294-.985.69-1.314.484-.352 1.075-.524 1.672-.486.601.017 1.195.14 1.755.363v1.92c-.287-.094-.586-.147-.888-.157-.228-.02-.456.045-.64.182-.119.166-.171.371-.145.574l-.01 1.253h1.585v2.14h-1.586v7.897h-2.497v-7.896h-.888v-2.14l-.001-.001zm11.115-.259c.931-.001 1.846.245 2.652.712.802.457 1.468 1.119 1.929 1.918.462.801.705 1.712.702 2.638.003.932-.238 1.848-.7 2.657-.45.806-1.11 1.474-1.91 1.934-.81.464-1.73.704-2.664.695-1.38.022-2.706-.535-3.656-1.536-.992-.985-1.539-2.332-1.515-3.73-.016-.74.13-1.474.426-2.152.295-.676.734-1.28 1.286-1.769.931-.883 2.167-1.372 3.45-1.366zm.039 2.372c-.734-.019-1.44.279-1.938.818-.524.566-.802 1.317-.772 2.088-.036.781.239 1.545.764 2.124.498.536 1.203.831 1.934.812.738.02 1.448-.28 1.95-.821.53-.573.809-1.333.777-2.113.032-.772-.242-1.526-.762-2.097-.506-.536-1.216-.831-1.953-.811zm8.65 5.295c.381-.006.748.145 1.013.419.338.343.484.832.389 1.304-.095.471-.416.865-.859 1.051-.682.285-1.469.002-1.812-.653-.202-.382-.224-.833-.06-1.233.146-.352.426-.633.778-.779.174-.072.36-.108.549-.107l.001-.002zm4.86-11.54c.428-.005.838.169 1.132.48.308.307.477.727.469 1.162.009.431-.16.847-.466 1.15-.289.307-.693.479-1.115.475-.432.007-.846-.17-1.14-.487-.311-.311-.481-.735-.472-1.174-.001-.425.166-.834.465-1.136.298-.301.704-.47 1.128-.47zm-1.255 4.132h2.51v10.037h-2.51zm9.446-.259c.931-.001 1.846.245 2.652.712.802.457 1.468 1.119 1.929 1.918.462.802.704 1.712.702 2.638.003.932-.238 1.848-.7 2.657-.45.806-1.11 1.474-1.91 1.934-.811.464-1.731.704-2.665.695-.681.01-1.357-.121-1.985-.385-.629-.265-1.197-.657-1.668-1.151-.992-.985-1.539-2.332-1.515-3.73-.016-.739.128-1.473.424-2.151.294-.676.733-1.28 1.284-1.77.931-.883 2.167-1.373 3.45-1.367zm.037 2.372c-.733-.019-1.439.279-1.937.818-.525.566-.803 1.317-.773 2.088-.035.781.24 1.545.766 2.124.498.536 1.203.831 1.934.812.737.019 1.448-.28 1.949-.821.53-.573.81-1.333.778-2.113.032-.772-.242-1.526-.762-2.097-.507-.536-1.219-.83-1.956-.809z" fill="#02121C"/><path d="m13.206 22.609 1.952 2.273 2.255-1.966 2.209-1.926c2.376-2.089 3.833-5.029 4.056-8.184.228-3.158-.796-6.278-2.85-8.687-2.057-2.386-4.979-3.856-8.121-4.087-3.141-.227-6.243.806-8.62 2.871-2.376 2.089-3.833 5.029-4.056 8.185-.227 3.157.796 6.277 2.85 8.686l7.789 9.07c.696.81 1.428 1.688 2.559.752l.034-.029.032-.029c1.082-.995.325-1.851-.371-2.662l-.486-.565-7.302-8.507c-1.535-1.804-2.3-4.14-2.13-6.503.168-2.362 1.258-4.563 3.035-6.127 1.781-1.544 4.102-2.316 6.453-2.146 2.352.173 4.539 1.273 6.08 3.058 1.535 1.804 2.3 4.14 2.13 6.503-.167 2.362-1.257 4.562-3.034 6.127l-2.208 1.926-1.952-2.273-1.952-2.273-1.91-2.225c-1.037-1.237-.906-3.074.297-4.15 1.223-1.045 3.059-.912 4.119.299.896 1.068.937 2.612.1 3.726-.399.58-.36 1.356.096 1.893.98 1.141 2.061.356 2.637-.61 1.315-2.21 1.082-5.012-.579-6.975-2.133-2.466-5.86-2.737-8.327-.606-2.45 2.167-2.717 5.896-.601 8.39l1.911 2.226 1.953 2.27 1.952 2.273z" fill="#006AA5"/></svg>