<svg height="150" viewBox="0 0 281 150" width="281" xmlns="http://www.w3.org/2000/svg"><path d="m219.408 99.455h-1.474-.818-50.802-1.498-2.697l.413-2.665.232-1.48 1.074-6.909.087-.565.157-1.014.859-.562.478-.315c12.706-8.314 17.373-11.554 23.809-17.006 7.076-5.93 11.628-12.431 12.499-17.843.262-1.625-.047-3.052-.867-4.015-.808-.95-2.147-1.472-3.77-1.472-1.891 0-3.487.391-5.174 1.266l-.045.022-.074.037c-2.806 1.277-4.655 2.731-9.533 8.389l-.962 1.117-1.734 2.009-1.751-1.993-.974-1.107-3.977-4.525-.698-.796-1.254-1.43 1.159-1.503.645-.839c2.329-3.019 4.369-5.327 6.227-7.371 7.37-7.934 17.956-12.85 27.64-12.85 7.521 0 13.954 2.669 18.115 7.516 3.723 4.338 5.259 10.075 4.324 16.158-1.276 7.785-5.143 13.55-13.349 19.923-4.085 3.054-7.681 5.447-12.521 8.255l5.467-.033c4.34 0 6.207-1.346 8.332-6l.35-.764.627-1.371 1.51.022.839.012 7.334.121 1.977.033 3.562.054-1.504 3.231-.836 1.792-10.438 22.395-.345.739z" fill="#fff"/><path d="m206.586 23.725c-10.308 0-21.54 5.2-29.317 13.57l-.018.02-.016.018c-1.893 2.082-3.972 4.432-6.346 7.512l-.647.839-2.317 3.012 2.506 2.854.697.794 3.98 4.529.971 1.107 3.506 3.991 3.465-4.023.964-1.119c4.634-5.372 6.235-6.652 8.694-7.771l.033-.016.034-.016.03-.014.087-.042.087-.045.01-.006c-.004.002-.008.004-.013.006.005-.002.011-.004.015-.006l.016-.01c-.004.002-.01.006-.014.008 1.338-.689 2.602-.998 4.098-.998.921 0 1.653.24 2.008.658.371.435.498 1.219.346 2.15-.772 4.802-5.142 10.944-11.692 16.432-6.358 5.388-10.982 8.599-23.597 16.854l-.48.314-1.718 1.125-.314 2.028-.089.564-1.074 6.91-.23 1.481-.829 5.33h5.393 1.5 50.802.818 2.945l1.242-2.669.347-.742 10.436-22.394.836-1.794 3.006-6.452-7.118-.117-1.979-.032-5.911-.097c5.538-5.32 8.475-10.732 9.561-17.362l.004-.022.004-.024c1.039-6.759-.687-13.156-4.856-18.014-4.606-5.366-11.66-8.321-19.866-8.321m0 4.62c6.835 0 12.645 2.383 16.361 6.71 3.277 3.82 4.624 8.9 3.795 14.304-1.169 7.127-4.785 12.469-12.486 18.449-5.785 4.324-10.559 7.307-20.118 12.443l14.498-.086c5.279 0 7.906-1.855 10.42-7.352l.349-.764.838.015 7.332.118 1.978.033-.835 1.794-10.438 22.394-.345.742h-.818-50.802-1.5l.232-1.482 1.074-6.909.087-.563.478-.314c12.802-8.378 17.511-11.647 24.035-17.176 7.489-6.277 12.329-13.288 13.286-19.238.371-2.306-.123-4.394-1.391-5.88-1.253-1.473-3.217-2.284-5.525-2.284-2.25 0-4.231.486-6.239 1.524l-.028.016-.031.015c-3.336 1.517-5.449 3.36-10.279 8.961l-.963 1.117-.974-1.109-3.977-4.525-.698-.794.645-.839c2.268-2.94 4.274-5.21 6.106-7.226 6.937-7.464 16.869-12.094 25.933-12.094" fill="#fff"/><path d="m206.586 27.062c-9.41 0-19.703 4.787-26.862 12.493l-.01.01-.01.01c-1.758 1.937-3.868 4.32-6.173 7.307l-1.29 1.675 1.395 1.587 3.978 4.527 1.947 2.215 1.925-2.233c4.685-5.433 6.709-7.206 9.839-8.632l.059-.028.058-.03c1.843-.955 3.585-1.381 5.649-1.381 1.955 0 3.528.635 4.55 1.832 1.018 1.198 1.409 2.917 1.098 4.844-.907 5.652-5.586 12.379-12.837 18.454-6.483 5.493-11.168 8.748-23.92 17.093l-.954.625-.175 1.127-1.076 6.91-.46 2.961h2.996 50.804 1.634l.692-1.482 10.438-22.396 1.671-3.586-3.957-.065-7.332-.119-1.677-.026-.697 1.526c-2.313 5.057-4.474 6.601-9.245 6.601l-9.42.057c6.793-3.778 10.936-6.466 15.782-10.087l.02-.016.018-.014c7.981-6.2 11.737-11.774 12.962-19.24l.002-.014.002-.014c.887-5.781-.564-11.228-4.09-15.334-3.961-4.615-10.118-7.157-17.334-7.157m0 2.566c12.575 0 20.588 8.458 18.888 19.536-1.135 6.91-4.642 11.913-12.004 17.631-6.378 4.765-11.426 7.862-24.541 14.771l19.715-.119c5.824 0 8.856-2.144 11.577-8.101l7.334.121-10.438 22.395h-50.804l1.076-6.91c13.105-8.577 17.693-11.794 24.162-17.273 7.818-6.553 12.729-13.819 13.722-20.014.883-5.478-2.552-9.649-8.182-9.649-2.345 0-4.53.478-6.83 1.669-3.663 1.667-5.993 3.812-10.72 9.293l-3.978-4.528c2.206-2.86 4.199-5.124 6.042-7.147 6.64-7.148 16.286-11.675 24.981-11.675" fill="#fff"/><path d="m206.586 27.062c-9.41 0-19.703 4.787-26.862 12.493l-.01.01-.01.01c-1.758 1.937-3.868 4.32-6.173 7.307l-1.29 1.675 1.395 1.587 3.978 4.527 1.947 2.215 1.925-2.233c4.685-5.433 6.709-7.206 9.839-8.632l.059-.028.058-.03c1.843-.955 3.585-1.381 5.649-1.381 1.955 0 3.528.635 4.55 1.832 1.018 1.198 1.409 2.917 1.098 4.844-.907 5.652-5.586 12.379-12.837 18.454-6.483 5.493-11.168 8.748-23.92 17.093l-.954.625-.175 1.127-1.076 6.91-.46 2.961h2.996 50.804 1.634l.692-1.482 10.438-22.396 1.671-3.586-3.957-.065-7.332-.119-1.677-.026-.697 1.526c-2.313 5.057-4.474 6.601-9.245 6.601l-9.42.057c6.793-3.778 10.936-6.466 15.782-10.087l.02-.016.018-.014c7.981-6.2 11.737-11.774 12.962-19.24l.002-.014.002-.014c.887-5.781-.564-11.228-4.09-15.334-3.961-4.615-10.118-7.157-17.334-7.157zm0 2.566c12.575 0 20.588 8.458 18.888 19.536-1.135 6.91-4.642 11.913-12.004 17.631-6.378 4.765-11.426 7.862-24.541 14.771l19.715-.119c5.824 0 8.856-2.144 11.577-8.101l7.334.121-10.438 22.395h-50.804l1.076-6.91c13.105-8.577 17.693-11.794 24.162-17.273 7.818-6.553 12.729-13.819 13.722-20.014.883-5.478-2.552-9.649-8.182-9.649-2.345 0-4.53.478-6.83 1.669-3.663 1.667-5.993 3.812-10.72 9.293l-3.978-4.528c2.206-2.86 4.199-5.124 6.042-7.147 6.64-7.148 16.286-11.675 24.981-11.675" fill="none" stroke="#fff" stroke-linecap="round" stroke-linejoin="round" stroke-width="7.274"/><g fill="#fff"><path d="m168.5 93.988h47.423l8.713-18.695-3.248-.055c-1.387 2.756-2.899 4.648-4.717 5.924-2.095 1.472-4.641 2.157-8.007 2.157l-19.725.119-1.008.006-.244-.977-.277-1.111-.245-.978.893-.469c12.597-6.64 17.818-9.779 24.281-14.608 7.069-5.505 10.238-10.117 11.285-16.434.133-.883.201-1.77.201-2.615-.016-8.792-6.946-14.722-17.244-14.75-8.103 0-17.36 4.345-23.601 11.07-1.512 1.665-3.159 3.521-4.984 5.809l1.541 1.754c3.689-4.177 6.172-6.43 9.879-8.122 2.429-1.257 4.935-1.87 7.669-1.87h.008c2.903 0 5.515.988 7.354 2.782 1.832 1.783 2.84 4.291 2.836 7.065 0 .653-.054 1.318-.161 1.975-1.101 6.787-6.203 14.297-14.365 21.147-6.55 5.549-11.231 8.818-23.647 16.95zm49.81 3.745h-.819-51.866-1.5l.232-1.479 1.181-7.589.041-.258.086-.567.48-.312.222-.145c12.774-8.363 17.471-11.627 23.977-17.136 7.392-6.186 12.157-13.065 13.081-18.877.076-.469.112-.935.112-1.38-.026-3.731-2.499-6.072-6.454-6.1-2.171.002-4.022.456-5.987 1.472l-.029.014-.03.014c-3.237 1.475-5.308 3.285-10.077 8.81l-.442.512-.963 1.117-.974-1.107-4.745-5.4-.698-.794.645-.836.297-.385c2.292-2.973 4.392-5.344 6.142-7.269 7.045-7.573 17.143-12.276 26.361-12.284 6.036 0 11.253 1.788 15.091 5.177 3.806 3.354 5.901 8.085 5.899 13.321 0 1.031-.085 2.107-.25 3.199-1.188 7.299-4.869 12.752-12.714 18.831-5.437 4.062-9.935 6.912-18.115 11.365l12.142-.073c2.616-.002 4.428-.458 5.884-1.477 1.476-1.035 2.748-2.79 3.999-5.53l.16-.35.348-.762.839.012 8.626.141 1.978.032-.835 1.794-10.98 23.558z"/><path d="m186.932 84.734 2.016-.012 19.713-.119c3.647 0 6.425-.76 8.747-2.389 1.831-1.284 3.363-3.11 4.754-5.678l.475.006-7.533 16.164h-45.105l.292-1.883c7.112-4.662 11.658-7.714 15.52-10.56l.353 1.405.278 1.11zm-2.999-41.302c6.007-6.469 14.889-10.647 22.63-10.647 9.549.026 15.963 5.44 15.98 13.471 0 .774-.063 1.588-.188 2.419-1.002 6.023-3.933 10.26-10.805 15.613-6.209 4.636-11.279 7.71-23.023 13.921 1.675-1.3 3.302-2.629 5.066-4.122 8.386-7.039 13.645-14.826 14.796-21.917.117-.73.177-1.463.177-2.181.005-3.12-1.14-5.956-3.225-7.984-2.074-2.026-5.001-3.145-8.239-3.145h-.002c-2.945 0-5.632.653-8.233 1.994-2.749 1.256-4.842 2.785-7.168 5.087.776-.895 1.52-1.723 2.234-2.509m22.658-16.96h-.008c-9.563.008-20.022 4.866-27.291 12.681l-.01.01-.01.012c-1.772 1.949-3.895 4.346-6.207 7.347l-.298.387-1.289 1.673 1.393 1.586 4.746 5.4 1.947 2.218 1.925-2.238.444-.512c4.62-5.351 6.602-7.097 9.638-8.48l.056-.026.057-.028c1.774-.917 3.443-1.327 5.41-1.329 3.25.023 5.139 1.784 5.161 4.834 0 .361-.032.758-.097 1.161-.863 5.43-5.586 12.193-12.633 18.091-6.465 5.477-11.14 8.724-23.864 17.053l-.216.141-.96.625-.175 1.131-.04.26-1.182 7.587-.461 2.961h2.997 51.869 1.635l.691-1.482 10.979-23.559 1.671-3.586-3.955-.065-8.626-.141-1.684-.026-.695 1.53-.159.353c-1.151 2.515-2.284 4.108-3.564 5.005-1.228.858-2.815 1.243-5.145 1.243l-7.136.045c5.632-3.201 9.436-5.709 13.855-9.01l.016-.015.018-.014c8.13-6.299 11.952-11.983 13.194-19.625l.002-.014.002-.014c.176-1.153.264-2.294.264-3.39.004-5.61-2.245-10.683-6.334-14.285-4.074-3.594-9.583-5.495-15.931-5.495m-27.053 25.607c4.437-5.112 6.828-7.272 10.452-8.917 2.371-1.232 4.667-1.736 7.088-1.736h.014.008c2.643 0 4.883.885 6.451 2.417 1.572 1.53 2.451 3.693 2.449 6.146 0 .574-.046 1.165-.145 1.77-1.042 6.42-6.041 13.755-13.921 20.37-6.455 5.469-11.066 8.704-24.006 17.172l-.927 5.971h49.74l9.894-21.232-6.04-.096c-1.336 2.838-2.788 4.853-4.663 6.168-1.947 1.368-4.301 1.925-7.269 1.925h-.016l-19.715.119-.278-1.111c13.113-6.91 18.11-9.978 24.454-14.717 7.306-5.688 10.666-10.512 11.783-17.252.145-.966.22-1.909.22-2.824-.02-9.268-7.314-16.003-18.526-16.033h-.022c-8.485-.002-18.004 4.455-24.523 11.479-1.752 1.929-3.639 4.066-5.711 6.729zm27.053-23.039c5.842 0 10.765 1.79 14.234 4.852 3.471 3.059 5.467 7.395 5.463 12.36 0 .977-.077 1.979-.234 3.007-1.149 7.071-4.806 12.254-12.232 18.009-6.044 4.517-10.926 7.554-22.489 13.694l17.31-.105c2.847-.002 4.913-.52 6.614-1.709 1.702-1.193 3.088-3.114 4.429-6.047l.159-.351 8.626.141-10.978 23.56h-51.869l1.182-7.589.04-.26.22-.143c13.107-8.579 17.657-11.77 24.108-17.233 7.751-6.486 12.568-13.684 13.518-19.653.089-.546.129-1.074.129-1.584-.03-4.336-2.963-7.349-7.729-7.384-2.268.002-4.338.454-6.588 1.615-3.556 1.623-5.787 3.665-10.517 9.141l-.441.512-4.745-5.398.296-.385c2.217-2.876 4.225-5.154 6.074-7.19 6.753-7.26 16.516-11.854 25.414-11.86z"/><path d="m114.506 42.715 1.151-4.635 1.613-6.496-8.693 1.01-.81-2.375 8.987-5.414-3.222-4.509-1.907-2.675 3.216.673 6.074 1.27 3.574-7.402 1.614-3.348.795 3.633 1.12 5.128 9.876-5.378 1.615 1.931-6.491 8.075 5.799 2.304 4.151 1.648-4.394.805-7.604 1.393-.018 7.117-.009 2.764-2.106-1.788-4.54-3.854-6.471 6.69z"/><path d="m126.565 4.91-3.234 6.694-3.136 6.499-5.09-1.065-6.433-1.348 3.818 5.352 2.413 3.38-7.797 4.699 1.62 4.747 6.852-.795-1.167 4.699-2.302 9.266 6.638-6.863 5.637-5.828 3.624 3.076 4.213 3.576.014-5.527.015-6.049 6.555-1.199 8.789-1.611-8.303-3.3-4.183-1.661 5.401-6.722-3.228-3.86-8.376 4.559-.754-3.456zm-.921 7.811 1.485 6.799 11.38-6.197-7.578 9.43 7.413 2.945-8.655 1.586-.022 8.182-5.457-4.632-7.307 7.557 2.06-8.295-10.533 1.224 10.174-6.13-4.026-5.64 7.054 1.476z"/><path d="m121.432 27.925-.446 1.798-.584 2.356 2.846-2.945.835-.864.917.78 2.804 2.378.012-4.64.002-1.066 1.05-.192 2.724-.5-2.095-.832-1.614-.641 1.088-1.355 2.22-2.761-3.859 2.1-1.502.816-.364-1.671-.494-2.265-1.651 3.418-.202.418-.437.903-.982-.206-2.808-.588 1.606 2.253.807 1.127-1.19.716-3.32 2.001 2.796-.324zm-8.027 16.775 1.151-4.635 1.939-7.796-7.848.909-1.03.121-.333-.98-.373-1.09-.334-.978.887-.534 8.44-5.086-3.725-5.222-1.909-2.675 3.217.673 7.096 1.485 4.117-8.524 1.614-3.346.794 3.63 1.319 6.027 9.186-5.001.923-.502.674.807.742.887.675.808-.659.818-5.987 7.452 6.966 2.768 4.157 1.649-4.398.806-9.151 1.675-.018 7.896-.006 2.763-2.106-1.79-5.088-4.318-7.614 7.872z"/><path d="m123.402 24.622.873-1.808.199-.415.037-.075.431 1.979 1.234-.671-.383.476 1.175.466-.429.078-.006 2.135-.004 1.876-.7-.592-1.832-1.556-1.2 1.239.327-1.316-.593.069.623-.377-1.31-1.835zm3.374-21.506-3.233 6.695-3.681 7.621-6.112-1.28-6.433-1.347 3.816 5.35 2.921 4.092-7.253 4.37-1.774 1.068.669 1.96.373 1.088.668 1.959 2.056-.239 6.009-.698-1.492 6.001-2.304 9.268 6.641-6.863 6.775-7.007 4.171 3.54 4.215 3.577.014-5.527.016-6.829 8.098-1.481 8.795-1.611-8.309-3.3-5.354-2.126 4.9-6.096 1.317-1.638-1.349-1.615-.74-.887-1.348-1.614-1.849 1.005-7.685 4.185-.951-4.358zm-5.144 17.91.121-.577zm.331.673-6.028-1.264 3.518 4.929-8.39 5.055 8.676-1.006-1.736 6.989 6.167-6.374 4.911 4.169.02-7.404 7.116-1.304-6.245-2.484 6.233-7.756-9.485 5.164-1.288-5.9-3.268 6.769zm3.892-10.774 1.681 7.7 10.691-5.819.739.887-7.075 8.806 8.583 3.409-10.198 1.869-.022 8.961-6.005-5.097-8.449 8.734 2.387-9.595-9.69 1.125-.371-1.091 9.627-5.801-4.529-6.349 8.077 1.691z"/><path d="m121.634 27.742-.448 1.798-.5 2.02 2.546-2.634.837-.865.917.778 2.663 2.26.012-4.437.002-1.066 1.05-.194 2.323-.425-1.788-.712-1.615-.641 1.087-1.354 1.87-2.328-3.366 1.832-1.502.818-.365-1.671-.443-2.036-1.46 3.022-.254.524-.437.903-.982-.206-2.54-.534 1.476 2.07.804 1.129-1.187.716-2.849 1.717 2.308-.27zm-8.521 17.475 1.153-4.635 2.032-8.175-10.072.959-.8-2.366 10.265-6.4-3.866-5.416-1.908-2.673 3.216.671 7.36 1.536 4.257-8.823 1.615-3.348.794 3.633 1.375 6.297 11.607-6.084 1.603 1.931-7.531 9.555 7.289 2.894 4.157 1.651-4.401.804-9.549 1.746-.018 8.101-.004 2.764-2.109-1.788-5.235-4.443-7.91 8.178z"/><path d="m123.478 24.794.875-1.8.099-.204.381 1.748.744-.405-.035.042.869.345-.028.006-.006 2.132-.004 1.677-.559-.473-1.832-1.556-.901.929.244-.982-.103.012.149-.088-1.177-1.651zm3.348-22.155-3.231 6.7-3.82 7.92-6.38-1.332-6.431-1.345 3.818 5.348 3.072 4.303-9.107 5.679 1.6 4.733 8.267-.788-1.594 6.418-2.306 9.268 6.64-6.866 7.076-7.313 4.318 3.665 4.215 3.578.012-5.529.016-7.035 8.499-1.552 8.799-1.609-8.313-3.302-5.689-2.259 6.465-8.202-3.207-3.862-10.116 5.301-1.016-4.652zm-5.194 18.388.151-.728zm.413.844-5.76-1.207 3.387 4.745-7.922 4.777 8.19-.956-1.651 6.654 5.866-6.067 4.772 4.048.018-7.201 6.717-1.231-5.941-2.361 5.881-7.323-8.991 4.899-1.236-5.669-3.076 6.37zm3.86-11.417 1.736 7.938 13.095-6.861-8.596 10.905 8.888 3.529-10.599 1.937-.02 9.169-6.151-5.22-8.749 9.042 2.472-9.935-11.876 1.131 11.426-7.122-4.66-6.529 8.343 1.742z"/><path d="m124.028 27.254.918.779 2.116 1.796.01-3.659.002-1.066 1.051-.194.788-.145-.625-.248-1.617-.641 1.089-1.354.528-.658-1.472.803-1.501.818-.365-1.671-.248-1.137-.718 1.486-.456.939-.437.901-.982-.205-1.514-.317.97 1.361.806 1.126-1.187.718-1.058.637.441-.052 1.843-.214-.448 1.798-.179.72 1.409-1.456zm-12.02 19.954 1.153-4.636 2.364-9.498-9.242.879-1.012.096-.327-.961-.369-1.089-.324-.961.862-.538 9.733-6.07-4.376-6.131-1.907-2.673 3.215.671 8.386 1.752 4.796-9.948 1.616-3.35.795 3.634 1.574 7.209 10.92-5.723.921-.482.664.801.735.886.662.799-.641.814-7.042 8.93 8.467 3.364 4.159 1.651-4.401.804-11.091 2.026-.019 8.881-.006 2.765-2.108-1.79-5.784-4.906-9.051 9.359z"/><path d="m123.808 25.466.431-.889.186.852 1.13-.614.238.094-.004 1.258-.002.897-.012-.01-1.687-1.431.014-.054-.069.008-.09-.079-.097.099-.151.018-.145-.204zm3.227-24.62-3.231 6.698-4.361 9.043-7.404-1.546-6.429-1.341 3.816 5.346 3.583 5.019-8.574 5.345-1.725 1.075.651 1.927.369 1.086.651 1.925 2.022-.193 7.438-.708-1.925 7.739-2.306 9.27 6.642-6.866 8.217-8.496 4.866 4.13 4.215 3.578.012-5.529.017-7.815 10.041-1.832 8.801-1.609-8.315-3.301-6.869-2.728 5.975-7.579 1.287-1.628-1.325-1.599-.736-.887-1.326-1.6-1.843.965-9.428 4.943-1.217-5.565zm-4.661 21.697-4.733-.992 2.881 4.034-6.137 3.7 6.332-.739-1.328 5.353 4.727-4.888 4.223 3.584.016-6.422 5.183-.951-4.777-1.897 4.537-5.65-7.095 3.864-1.041-4.765-2.334 4.832zm-.258-2.175 3.47-7.186 1.433 6.571 8.301-4.521.742.887-5.382 6.7 7.11 2.822-8.257 1.514-.02 7.982-5.318-4.513-5.483 5.668-.424-.407.424.407-1.524 1.576 1.975-7.954-7.346.857-.373-1.09 7.376-4.449-3.892-5.455 6.787 1.423.053-.108.016-.035-.73-.151.032-.151-6.86-1.431 4.149 5.811-9.834 6.13 9.382-.893.829-.079-2.141 8.613 7.604-7.861 5.606 4.755.02-8.391 9.06-1.655-7.713-3.064 7.374-9.357-11.333 5.94-1.534-7.026-3.887 8.056zm4-11.709 1.935 8.853 12.41-6.505.736.889-8.106 10.282 10.067 3.997-12.142 2.217-.02 9.95-6.7-5.684-9.888 10.223 2.8-11.257-11.047 1.052-.369-1.089 10.894-6.79-5.171-7.243 9.37 1.955z"/><path d="m148.807 44.992c-3.205 0-5.118 3.592-5.118 9.607 0 6.592 2.296 11.193 5.582 11.193 1.31 0 2.427-.661 3.402-2.017v-14.39c0-2.298-1.842-4.393-3.866-4.393m-48.939 13.639-1.982 1.114c-2.576 1.446-2.844 2.256-2.844 3.766 0 1.433.407 3.138 2.348 3.138.7 0 1.284-.175 2.478-1.11zm31.768 5.855c.016 2.256.334 3.256 1.278 3.693-.534-1.121-.966-2.356-1.278-3.693m20.971 11.032v-1.445-1.804c-2.512 2.062-5.423 3.152-8.42 3.152-3.121 0-5.81-.991-7.931-2.797v.854 1.284h-1.284-20.401-1.282v-.592c-1.752.915-3.251 1.251-5.205 1.251-3.231 0-5.455-1.148-7.027-3.684-.173.161-.329.3-.468.417l-.02.016-.02.014c-2.653 2.046-5.838 3.173-8.969 3.173-5.693 0-9.668-3.786-9.668-9.206 0-5.174 2.278-7.903 9.027-10.816l6.413-2.709c1.153-.502 1.691-.754 2.516-1.25v-3.112c0-2.048-.952-3.272-2.544-3.272-1.365 0-2.282.916-2.282 2.28 0 .665.189 1.278.881 2.85l.568 1.29-1.337.446-9.309 3.1-1.133.379-.457-1.105c-.835-2.015-1.353-4.1-1.353-5.44 0-6.001 7.39-10.526 17.193-10.526 8.243 0 13.366 4.134 13.366 10.79v16.172c0 .5.058.766.096.889.156-.016.42-.103 1.224-.556l1.609-.907.288 1.824.226 1.415c.185-.131.399-.343.542-.575.448-.671.53-1.064.53-4.138v-13.265c0-.188-.006-.303-.012-.371-.048-.026-.121-.065-.232-.117l-3.53-1.502-.782-.332v-.849-3.233-1.01l.984-.238c5.888-1.425 7.237-1.802 13.115-3.672l.19-.063h.199 2.444 1.284v1.284 13.278c1.955-8.791 8.378-14.891 16.445-14.891 1.804 0 2.99.238 4.592.887v-4.62c0-.225-.026-.308-.03-.324-.006 0-.074-.053-.268-.127l-.036-.014-.035-.014-3.497-1.585-.754-.342v-.829-3.233-1.022l.996-.228c5.943-1.372 7.299-1.802 13.061-3.854l.207-.074h.222 2.443 1.284v1.284 40.33c0 2.653.41 2.743 2.347 2.743h.792 1.284v1.284 3.764 1.14l-1.133.133-15.514 1.849zm-106.507 16.263h-1.058-6.602-1.093l-.175-1.081c-.845-5.256-1.202-6.946-2.776-11.477l-11.301-31.136-3.848 29.747-.014.095-.027.093c-.171.604-.231 1.141-.231 1.441 0 2.463.463 4.086 6.658 4.187l1.264.02v1.264 5.279 1.284h-1.284-21.973-1.284v-1.284-5.279-1.264l1.264-.02c5.402-.083 6.844-1.55 7.706-7.852l5.661-41.021.058-.573c.065-.612.117-1.098.117-1.612 0-2.056-.397-3.522-5.531-3.62l-1.26-.023v-1.259-5.469-1.284h1.284 22.822 1.217l.065 1.216c.272 5.16.5 6.815 2.094 11.229l9.872 27.922 9.13-24.074c1.895-4.777 2.274-7.299 2.274-15.009v-1.284h1.284 23.201 1.284v1.284 5.469 1.259l-1.26.023c-4.733.09-5.53 1.451-5.53 4.47 0 .178.018.402.041.637.024.262.048.531.052.801l4.802 42.646c.506 4.727 2 6.041 6.951 6.124l1.261.022v1.262 5.279 1.284h-1.282-31.594-1.283v-1.284-5.279-1.26l1.258-.024c4.697-.085 5.532-1.321 5.532-4.753 0-.291 0-.69-.057-.914l-.024-.094-.008-.097-2.78-29.393-11.623 30.669c-1.234 3.13-1.861 5.527-3.052 11.673zm133.691 12.822h6.697c-.375-3.378-1.46-5.09-3.234-5.09-.857 0-2.78 0-3.463 5.09m.203 6.132c.829 5.783 4.095 9.314 8.739 9.314.861 0 1.829-.153 2.877-.457 1.25-.518 1.998-1.038 3.729-2.585l.893-.796.857.835.038.038c1.17-3.279 4.085-5.15 8.441-7.029l6.412-2.711c1.178-.512 1.702-.756 2.516-1.248v-3.114c0-2.048-.951-3.271-2.544-3.271-1.365 0-2.282.917-2.282 2.282 0 .663.19 1.277.883 2.85l.567 1.288-1.337.445-9.307 3.102-.512.17.082.887h-1.409zm34.502 2.614-1.981 1.113c-2.577 1.447-2.845 2.259-2.845 3.769 0 1.431.407 3.138 2.349 3.138.697 0 1.284-.175 2.477-1.108zm16.522 6.027.291 1.822.225 1.431c.158-.103.353-.294.541-.59.377-.589.463-.831.463-3.61v-13.796c0-.185-.004-.3-.012-.369-.048-.028-.121-.066-.232-.117l-3.532-1.503-.759-.325c.058.472.086.958.086 1.455v16.174c0 .502.059.764.099.889.153-.016.417-.103 1.224-.556zm-63.28-2.242v1.887c0 3.092.681 3.943 2.53 4.1-1.153-1.739-2.016-3.751-2.53-5.987m-45.996 30.504c-3.861 0-8.07-.82-12.511-2.435-13.994-5.382-21.688-16.893-21.688-32.42 0-21.645 15.879-37.968 36.934-37.968 6.866 0 11.537 1.104 22.715 5.366l.738.282.081.786 1.604 15.559.145 1.415h-1.421-6.414-.913l-.301-.863c-.913-2.64-1.625-4.46-2.306-5.91-2.582-5.422-8.106-9.07-13.74-9.07-10.144 0-16.446 10.675-16.446 27.857 0 17.823 6.735 28.893 17.577 28.893 3.13 0 6.223-1.153 8.487-3.165 2.915-2.667 4.588-5.071 7.372-13.043l.3-.861h.913 6.507 1.381l-.086 1.165.141-.006c1.256-.063 1.558-.119 2.024-.375.252-.141.554-.452.774-.794.326-.587.471-1.167.471-3.886v-28.978c0-.194-.012-.303-.022-.359-.036-.02-.103-.055-.211-.095l-.031-.012-.03-.014-3.566-1.582-.762-.339v-.835-3.235-1.022l.994-.227c5.943-1.371 7.301-1.8 13.063-3.852l.209-.077h.222 2.508 1.284v1.284 28.081c1.857-8.343 8.205-13.985 16.441-13.985 4.528 0 8.598 1.772 11.455 4.987.979 1.054 1.731 2.056 2.32 3.172 1.701-4.751 8.346-8.093 16.77-8.093 7.553 0 12.484 3.471 13.258 9.172v-.692-3.235-1.008l.98-.238c5.792-1.415 7.283-1.816 13.049-3.672l.191-.063h.202 2.377 1.284v1.284 1.518c1.119-.758 1.975-1.229 3.13-1.76 2.004-1.001 3.814-1.437 6.018-1.437 6.713 0 10.722 4.181 10.722 11.183v14.856c0 3.818.954 4.215 3.296 4.261l1.26.023v1.259 3.764 1.284h-1.284-15.712-1.284v-1.284-23.501c0-2.701-1.094-3.072-2.282-3.072-1.056 0-2.397.608-3.731 1.687v15.579c0 3.854.836 4.215 3.227 4.261l1.26.023v1.259 3.764 1.284h-1.282-20.203-1.284v-.595c-1.75.915-3.25 1.254-5.203 1.254-3.23 0-5.455-1.151-7.025-3.687-.172.157-.327.296-.472.419-2.689 2.075-5.874 3.201-9.007 3.201-4.308 0-7.66-2.177-9.013-5.632-.04.047-.081.091-.123.135-3.254 3.536-8.098 5.564-13.291 5.564-4.592 0-8.535-1.641-11.424-4.481v2.538 1.284h-1.282-20.201-.663l-.689 9.421-.053.742-.669.32c-12.813 6.166-18.125 7.672-27.059 7.672"/><path d="m212.018 120.087c-.344 0-1.064 0-1.064-1.857 0-1.004 0-1.419 2.189-2.648l.071-.041v4.074c-.682.472-.934.472-1.196.472m-30.482-8.069h17.101.754c-1.087.846-1.978 1.792-2.651 2.896l-.47-.459-1.786 1.596c-1.677 1.498-2.306 1.911-3.3 2.328-.907.256-1.729.387-2.451.387-3.613 0-6.191-2.473-7.197-6.748m47.837 6.811v-14.529l1.883.802v12.669zm18.106-14.88c1.059-.754 1.93-1.04 2.45-1.04.623 0 1 0 1 1.788v17.2l-1.478-.028c-1.361-.027-1.582-.281-1.584-.285-.065-.08-.388-.586-.388-2.693zm-35.116 1.822-.637-1.447c-.657-1.492-.772-1.941-.772-2.332 0-.663.337-.998.998-.998.836 0 1.262.669 1.262 1.989v2.369c-.266.143-.531.272-.851.419m-31.034-2.451c.217-.915.471-1.479.689-1.826.333-.528.633-.698 1.238-.698.929 0 1.447 1.167 1.733 2.524zm-55.532 34.527c-10.051 0-16.296-10.578-16.296-27.609 0-8.311 1.53-15.209 4.423-19.953 2.679-4.395 6.293-6.622 10.74-6.622 5.151 0 10.209 3.354 12.586 8.345.657 1.397 1.352 3.181 2.249 5.771l.599 1.727h1.826 6.415 2.844l-.292-2.83-.847-8.226 2.754 1.222v28.494c0 2.417-.113 2.888-.296 3.233-.123.179-.262.304-.319.341-.038.022-.077.04-.121.056l.075-1.018h-2.762-6.507-1.823l-.6 1.721c-2.651 7.588-4.149 9.883-7.03 12.52-2.03 1.798-4.806 2.828-7.618 2.828m-34.217-61.209c3.209 0 6.461-1.078 9.229-3.048 1.751 2.113 4.122 3.115 7.275 3.115.308 0 .605-.008.897-.025-4.411 1.909-8.414 4.657-11.811 8.16-1.758 1.812-3.318 3.794-4.671 5.91v-.536-5.281-2.524l-2.524-.042c-4.527-.077-5.283-1.127-5.695-4.969l-.403-3.582c1.933 1.776 4.613 2.822 7.703 2.822m5.81-11.272c-.347 0-1.065 0-1.065-1.854 0-1.004 0-1.419 2.188-2.647l.072-.04v4.07c-.681.471-.933.471-1.195.471m17.354-1.255v-14.56l1.95.831v12.632zm-17.01-13.058-.637-1.447c-.657-1.494-.772-1.942-.772-2.333 0-.663.335-.997.998-.997.837 0 1.262.667 1.262 1.987v2.371c-.258.137-.522.268-.851.419m51.536 13.457c-2.451 0-4.298-4.261-4.298-9.912 0-1.951.276-8.322 3.835-8.322 1.171 0 2.584 1.386 2.584 3.108v13.955c-.855 1.036-1.605 1.171-2.121 1.171m-63.089-44.856h-2.566-23.201-2.568v2.566c0 7.507-.365 9.95-2.177 14.521l-.006.016-.008.019-7.888 20.798-8.699-24.61c-1.465-4.046-1.747-5.569-2.028-10.879l-.127-2.431h-2.435-22.823-2.567v2.566 5.471 2.517l2.516.049c4.276.08 4.276.929 4.276 2.336 0 .448-.049.883-.113 1.484-.018.181-.038.368-.058.57l-5.655 40.975c-.827 6.045-1.961 6.674-6.455 6.745l-2.528.038v2.528 5.281 2.566h2.566 21.975 2.569v-2.566-5.281-2.526l-2.526-.04c-5.399-.087-5.399-1.208-5.399-2.905 0-.163.041-.576.186-1.084l.052-.186.024-.191 3.173-24.515 9.497 26.17c1.538 4.43 1.889 6.089 2.716 11.247l.348 2.159h2.187 6.602 2.117l.403-2.076c1.256-6.468 1.873-8.619 2.98-11.433l.006-.016.006-.014 9.666-25.505 2.26 23.894.02.194.046.189c.018.099.018.425.018.601 0 1.431-.205 2.342-.612 2.711-.353.322-1.276.715-3.659.76l-2.52.046v2.52 5.281 2.566h2.566 31.595 1.359c-3.282 5.918-5.032 12.771-5.032 20.004 0 16.095 7.987 28.032 22.489 33.61l.022.008.022.008c4.583 1.667 8.939 2.511 12.948 2.511 9.173 0 14.591-1.532 27.616-7.798l1.338-.643.107-1.482.603-8.234h19.669 2.568v-2.397c2.875 1.99 6.37 3.058 10.14 3.058 4.973 0 9.652-1.748 13.087-4.842 1.883 2.947 5.269 4.776 9.34 4.776 3.209 0 6.462-1.079 9.228-3.05 1.752 2.112 4.125 3.116 7.277 3.116 1.52 0 2.813-.194 4.121-.661h2.367 20.201 2.566 1.526 15.712 2.566v-2.566-3.763-2.518l-2.516-.048c-1.024-.019-1.518-.186-1.629-.323-.097-.117-.409-.655-.409-2.655v-14.853c0-7.69-4.602-12.467-12.007-12.467-2.401 0-4.374.469-6.59 1.57-.455.209-.87.413-1.274.629v-1.804h-2.566-2.378-.404l-.383.125c-5.769 1.856-7.126 2.221-12.96 3.646l-1.957.478v.014c-.444-.51-.942-.986-1.494-1.421-2.562-2.032-6.187-3.106-10.482-3.106-7.721 0-14.051 2.727-16.879 6.835-.379-.502-.801-1-1.27-1.506-3.103-3.479-7.505-5.396-12.396-5.396-5.151 0-9.839 2.116-13.204 5.96-.724.829-1.377 1.726-1.955 2.681v-21.455-2.566h-2.567-2.507-.444l-.419.149c-5.699 2.03-7.039 2.455-12.918 3.812l-.947.218-.093-.889-1.476-.563c-4.086-1.558-7.317-2.701-10.111-3.523v-.429c1.939 1.088 4.177 1.675 6.648 1.675 2.49 0 4.917-.678 7.138-1.98v2.238l2.871-.341 15.514-1.848 2.262-.27v-2.278-3.764-2.566h-2.566-.793c-.499 0-.796-.034-.961-.064-.044-.206-.103-.621-.103-1.397v-40.332-2.566h-2.566-2.443-.444l-.417.149c-5.701 2.03-7.044 2.455-12.918 3.812l-1.99.457v2.042 3.235 1.655l1.508.684 3.113 1.409v2.318c-1.022-.268-2.03-.381-3.31-.381-5.185 0-9.908 2.294-13.297 6.458-.687.849-1.312 1.762-1.867 2.731v-6.293-2.566h-2.566-2.443-.399l-.379.121c-5.846 1.861-7.185 2.236-13.029 3.647l-1.963.475v.097c-.462-.54-.982-1.04-1.56-1.5-2.563-2.031-6.187-3.104-10.483-3.104-10.533 0-18.475 5.076-18.475 11.808 0 1.524.542 3.741 1.449 5.932l.915 2.21 2.268-.756.337-.113c-1.831 1.082-3.274 2.292-4.282 3.81l-2.824-25.084c-.008-.294-.033-.574-.057-.826-.018-.198-.036-.401-.036-.522 0-1.919.462-2.308.613-2.437.375-.317 1.314-.706 3.661-.748l2.517-.049v-2.517-5.471zm125.837 102.999c1.254 0 2.177-.462 3.762-1.782v-9.903c-.726.53-.792.594-1.782 1.189l-2.113 1.187c-2.705 1.52-3.497 2.641-3.497 4.886 0 2.707 1.32 4.423 3.63 4.423m-33.649-16.767h9.507c-.264-5.148-1.848-7.658-4.62-7.658-2.972 0-4.49 2.51-4.887 7.658m76.843-11.75c6.008 0 9.439 3.564 9.439 9.902v14.853c0 4.092 1.123 5.479 4.556 5.544v3.763h-15.712v-23.501c0-2.903-1.187-4.356-3.566-4.356-1.518 0-3.3.861-5.018 2.376v16.174c0 4.159 1.059 5.479 4.492 5.544v3.763h-20.201v-1.584c-2.546 1.713-4.147 2.243-6.488 2.243-3.368 0-5.283-1.318-6.668-4.487-.728.659-1.256 1.187-1.651 1.518-2.31 1.782-5.215 2.904-8.187 2.904-4.67 0-7.986-2.878-8.347-7.139-.621.788-1.194 1.471-1.734 2.058-3.036 3.3-7.592 5.146-12.345 5.146-9.043 0-15.315-6.863-15.315-16.765 0-10.298 6.602-17.889 15.712-17.889 4.092 0 7.856 1.584 10.497 4.553 2.574 2.774 3.433 5.084 3.961 10.696h-20.07c.528 7.26 4.423 11.88 10.166 11.88 1.058 0 2.179-.197 3.302-.528 1.451-.594 2.31-1.187 4.159-2.838l1.693 1.651c.361-3.804 2.516-5.934 8.19-8.383l6.403-2.707c1.518-.662 2.046-.924 3.3-1.716v-3.828c0-2.773-1.516-4.555-3.828-4.555-2.113 0-3.564 1.518-3.564 3.564 0 .923.264 1.715.989 3.366l-9.307 3.102c-.794-1.915-1.256-3.826-1.256-4.95 0-5.215 6.933-9.242 15.91-9.242 7.591 0 12.083 3.63 12.083 9.508v16.172c0 1.451.395 2.179 1.32 2.179.46 0 .857-.133 1.913-.728l.474 2.983c.522-.064.891-.197 1.326-.474.53-.197.992-.661 1.321-1.189.594-.925.661-1.518.661-4.289v-13.796c0-.991-.131-1.255-.99-1.651l-3.564-1.519v-3.236c5.941-1.449 7.392-1.846 13.136-3.694h2.378v4.025c2.375-1.78 3.367-2.375 4.949-3.102 1.849-.923 3.433-1.321 5.481-1.321m-88.759-15.315v40.201c0 3.961 1.19 5.413 4.621 5.413v3.763h-20.199v-3.697c1.32-.066 1.848-.131 2.574-.528.462-.262.923-.726 1.254-1.254.528-.925.661-1.782.661-4.553v-28.98c0-.925-.199-1.32-1.056-1.651l-3.566-1.584v-3.236c6.007-1.384 7.46-1.846 13.204-3.894zm-41.976-2.721c6.697 0 11.128 1.036 22.257 5.281l1.605 15.559h-6.415c-.848-2.451-1.602-4.432-2.358-6.035-2.829-5.942-8.771-9.808-14.902-9.808-10.845 0-17.729 11.221-17.729 29.141 0 18.575 7.261 30.177 18.862 30.177 3.395 0 6.792-1.228 9.338-3.491 3.3-3.018 4.999-5.753 7.733-13.578h6.507l-1.131 15.465c-12.545 6.037-17.637 7.544-26.503 7.544-3.866 0-7.922-.848-12.071-2.358-13.486-5.186-20.842-16.126-20.842-31.213 0-20.843 15.277-36.684 35.649-36.684m-27.087-8.166c1.254 0 2.177-.463 3.761-1.782v-9.903c-.725.528-.792.595-1.782 1.19l-2.112 1.187c-2.706 1.518-3.498 2.64-3.498 4.886 0 2.705 1.32 4.422 3.631 4.422m2.705-28.385c7.592 0 12.081 3.631 12.081 9.506v16.172c0 1.454.397 2.179 1.32 2.179.462 0 .859-.133 1.916-.725l.467 2.955c.496-.077.871-.216 1.335-.448.461-.197.99-.661 1.32-1.187.659-.99.726-1.717.726-4.82v-13.267c0-.992-.133-1.256-.99-1.651l-3.566-1.518v-3.235c6.007-1.451 7.394-1.848 13.204-3.697h2.443v24.491c0 4.092 1.057 5.412 4.621 5.479v3.697h-20.399v-1.589c-2.548 1.716-4.147 2.248-6.489 2.248-3.367 0-5.282-1.321-6.669-4.489-.725.661-1.253 1.187-1.651 1.518-2.31 1.781-5.213 2.904-8.184 2.904-4.951 0-8.384-3.235-8.384-7.92 0-4.622 1.979-6.931 8.251-9.639l6.404-2.705c1.518-.661 2.046-.925 3.3-1.717v-3.828c0-2.773-1.518-4.555-3.828-4.555-2.112 0-3.564 1.519-3.564 3.565 0 .924.262 1.716.99 3.367l-9.309 3.102c-.793-1.915-1.254-3.828-1.254-4.951 0-5.214 6.93-9.242 15.909-9.242m49.175 27.527c1.849 0 3.433-.99 4.687-2.905v-14.787c0-3.036-2.443-5.676-5.15-5.676-4.026 0-6.403 4.027-6.403 10.89 0 7.461 2.772 12.478 6.866 12.478m15.712-42.973v40.332c0 3.169.792 4.027 3.63 4.027h.793v3.764l-15.512 1.846v-4.62c-.662.726-1.389 1.32-2.049 1.782-2.31 1.915-4.951 2.905-7.658 2.905-7.195 0-11.883-6.007-11.883-15.316 0-11.088 6.668-19.34 15.778-19.34 2.112 0 3.235.33 5.876 1.584v-6.601c0-.857-.264-1.319-1.123-1.649l-3.497-1.585v-3.235c6.007-1.385 7.458-1.848 13.202-3.894zm-81.367-1.883v5.471c-4.999.093-6.791 1.602-6.791 5.751 0 .471.094 1.038.094 1.509l4.81 42.719c.567 5.281 2.546 7.168 8.205 7.263v5.281h-31.595v-5.281c5.187-.095 6.792-1.699 6.792-6.037 0-.377 0-.849-.095-1.226l-3.3-34.892-13.581 35.836c-1.228 3.112-1.887 5.563-3.113 11.882h-6.602c-.848-5.281-1.225-7.073-2.83-11.695l-13.109-36.117-4.526 34.986c-.189.661-.284 1.32-.284 1.792 0 3.961 2.074 5.376 7.922 5.471v5.281h-21.975v-5.281c6.133-.095 8.018-2.076 8.961-8.96l5.659-41.022c.094-.943.189-1.602.189-2.358 0-3.489-1.887-4.809-6.791-4.902v-5.471h22.823c.283 5.376.567 7.168 2.169 11.599l11.035 31.215 10.374-27.347c1.98-4.999 2.358-7.734 2.358-15.467z"/><path d="m148.815 45.58c-1.347.01-2.306.613-3.111 1.958-.921 1.558-1.429 4.067-1.427 7.061-.002 3.295.591 6.184 1.665 8.131.912 1.637 2.032 2.469 3.333 2.473.681-.004 1.703-.183 2.81-1.63v-14.187c0-.982-.391-1.971-1.071-2.713-.633-.695-1.433-1.093-2.199-1.093m-49.536 14.056-1.107.623c-1.121.629-1.824 1.159-2.153 1.622-.238.335-.385.726-.389 1.635 0 1.206.335 1.798.532 2.044.208.254.508.496 1.236.502.524-.006.923-.095 1.881-.814zm17.56 4.092.288 1.822.125.784c.015-.066.027-.141.041-.228.078-.546.095-1.487.095-2.924v-13.262l-3.351-1.425c.008.186.012.373.012.563v16.17.06c.121-.063.268-.143.448-.242l.736-.413zm-.395 7.879h16.655v-.117c-1.086-.197-2.298-.649-3.211-1.735-1.232-1.502-1.405-3.506-1.409-5.449v-22.622h-.28c-4.996 1.59-6.709 2.098-11.622 3.298v.526l2.443 1.04c.641.298 1.256.655 1.678 1.363.427.749.431 1.469.433 1.993v13.278c0 1.703-.02 2.656-.133 3.463-.123.903-.409 1.662-.903 2.388-.508.8-1.268 1.48-2.068 1.84-.555.279-1.055.456-1.583.565zm-16.903-16.5c-.282.129-.593.264-.951.421l-6.411 2.709c-2.931 1.264-4.772 2.407-5.786 3.594-.935 1.099-1.318 2.352-1.324 4.324.022 3.696 2.52 6.017 6.519 6.045 2.397 0 4.955-.911 7.016-2.5.008-.008.016-.014.024-.02-.385.083-.786.127-1.208.127h-.056c-1.679 0-3.143-.675-4.121-1.901-.887-1.106-1.358-2.628-1.358-4.396-.006-1.558.34-2.767 1.084-3.806.692-.959 1.698-1.769 3.369-2.711l2.098-1.179c.625-.377.809-.494 1.105-.707m2.961 12.356.301.685.328.75c1.169 2.57 2.284 3.33 4.971 3.368 2.002-.012 3.175-.427 5.427-1.929l.51-.344-.117-.736c-.135.012-.272.02-.411.02l-.067.002c-1.072 0-2.086-.589-2.586-1.502-.482-.83-.55-1.796-.554-2.541v-16.18c-.006-2.365-.821-4.163-2.488-5.491-1.766-1.403-4.435-2.143-7.721-2.143-4.027 0-7.708.857-10.379 2.411-2.361 1.376-3.659 3.136-3.657 4.954-.004.494.159 1.446.516 2.601l5.697-1.897c-.25-.754-.387-1.445-.387-2.217-.002-1.492.542-2.867 1.532-3.869.996-1.011 2.381-1.57 3.896-1.57 1.706 0 3.196.677 4.224 1.907.971 1.151 1.485 2.715 1.485 4.521v4.153.153 2.522 11.06.276.6l-.459.385zm45.575-26.107c-3.874.004-7.281 1.673-9.849 4.821-2.613 3.211-4.052 7.702-4.052 12.647.04 8.276 3.876 13.428 10.011 13.442 2.271-.002 4.507-.856 6.462-2.475l.041-.032.078-.057c.666-.467 1.25-.975 1.738-1.509l.149-.166c-1.034.605-2.171.921-3.364.921h-.029c-2.664 0-5.071-1.608-6.604-4.414-1.388-2.528-2.124-5.964-2.126-9.933.002-3.752.657-6.769 1.949-8.97 1.167-2.016 2.965-3.316 5.044-3.685v-.121l1.294.01h1.238l.004.135c3.217.676 5.753 3.806 5.767 7.41v14.967.381l-.064.1v3.101 4.035l11.768-1.403v-.27c-1.143-.105-2.3-.435-3.181-1.389-1.024-1.159-1.237-2.62-1.243-4.463v-38.463h-.246c-5.099 1.814-6.842 2.374-11.654 3.507v.542l2.326 1.054c.778.303 1.367.752 1.75 1.337.369.566.548 1.235.544 2.054v7.531 2.029l-1.832-.87-.841-.402c-2.514-1.181-3.274-1.392-5.078-1.402m-108.047 47.268h3.472c1.032-5.179 1.719-7.682 2.907-10.69l13.575-35.819.36-.951 1.008.133 1.139.153 1.012.135.095 1.016 3.29 34.779c.113.542.113 1.054.113 1.433v.079c.002 1.768-.212 4.307-2.06 5.995-1.121 1.012-2.607 1.584-4.73 1.808v1.644h27.85v-1.636c-2.389-.24-4.083-.893-5.391-2.062-1.592-1.435-2.457-3.524-2.804-6.769l-4.812-42.741-.01-.077.002-.108c0-.158-.018-.345-.038-.545-.026-.288-.055-.612-.057-.951-.006-2.681.708-4.588 2.184-5.836 1.118-.935 2.566-1.471 4.606-1.687v-1.834h-19.463c-.069 6.601-.611 9.583-2.48 14.275l-10.938 28.837-1.242 3.275-1.167-3.303-11.567-32.729c-1.508-4.149-1.911-6.271-2.175-10.355h-19.183v1.828c1.951.19 3.352.643 4.449 1.423 1.572 1.113 2.36 2.883 2.342 5.257 0 .688-.062 1.28-.137 1.966l-.062.592-5.667 41.068c-.566 4.114-1.451 6.456-3.054 8.085-1.377 1.387-3.221 2.145-5.886 2.397v1.63h18.229v-1.618c-2.399-.184-4.074-.667-5.338-1.526-1.734-1.183-2.602-3.114-2.584-5.741.002-.635.111-1.395.314-2.144l4.51-34.866.129-1.002 1.004-.109 1.139-.125 1.002-.113.344.95 13.114 36.123c1.469 4.231 1.957 6.253 2.656 10.456m140.448 15.39h5.336c-.234-1.538-.604-2.417-.905-2.907-.516-.824-.984-.994-1.655-1.006-.877.014-1.34.278-1.832 1.036-.299.47-.676 1.335-.944 2.877m.216 7.311c.945 5.113 3.885 8.125 8.043 8.135.791 0 1.69-.143 2.671-.423 1.113-.466 1.738-.867 3.54-2.47l.403-.362.893-.803.672.651c.427-.899 1.006-1.713 1.741-2.455 1.426-1.445 3.486-2.705 6.681-4.086l6.406-2.709c1.031-.447 1.533-.679 2.164-1.044v-2.775c-.047-2.657-1.496-2.679-1.974-2.685-1.052.014-1.659.623-1.675 1.713 0 .488.115.964.832 2.59l.26.593.571 1.29-1.339.445-9.99 3.328.1 1.067h-1.409zm33.214 3.031-1.105.621c-1.121.627-1.827 1.159-2.157 1.623-.242.342-.381.719-.387 1.636-.002 1.204.334 1.796.532 2.042.21.254.51.498 1.236.502.524-.004.923-.095 1.881-.814zm17.558 4.09.29 1.82.111.696c.069-.476.083-1.325.083-2.534v-13.785l-3.282-1.401c.006.177.01.356.01.536v16.17.058c.121-.062.268-.143.447-.242l.734-.413zm-62.914 2.804c.111.407.244.629.347.746.016.02.036.046.067.074-.143-.268-.283-.542-.414-.82m-15.806 5.075h16.458v-.175c-1.355-.254-2.393-.824-3.157-1.727-1.024-1.228-1.462-2.838-1.466-5.398v-38.331h-.31c-5.104 1.818-6.846 2.379-11.658 3.509v.53l2.397 1.067c.804.312 1.375.756 1.741 1.358.426.702.482 1.417.484 2.024v28.984c.006 2.87-.133 4.134-.921 5.505l-.012.024-.014.022c-.508.804-1.169 1.456-1.917 1.885-.563.312-1.075.49-1.625.597zm78.327 0h16.457v-.191c-1.056-.204-2.229-.665-3.116-1.758-1.2-1.509-1.369-3.525-1.373-5.48v-16.447-.245l-.131.096v-2.564l-.002-3.332h-.208c-4.989 1.605-6.682 2.093-11.563 3.294v.528l2.445 1.04c.637.297 1.252.651 1.676 1.363.427.744.431 1.467.437 1.993v13.806c0 1.52-.02 2.372-.127 3.11-.113.8-.379 1.5-.832 2.195-.543.857-1.226 1.48-2.026 1.839-.512.308-1.051.512-1.637.618zm24.293 0h11.968v-.199c-1.359-.274-2.393-.857-3.141-1.764-1.239-1.54-1.411-3.628-1.413-5.468v-14.856c-.004-2.653-.659-4.685-1.949-6.033-1.266-1.32-3.157-1.994-5.62-1.996-1.746.004-3.012.311-4.661 1.131-1.123.518-1.869.921-3.161 1.832.865-.33 1.716-.5 2.534-.502 1.748 0 3.201.631 4.135 1.778.879 1.083 1.308 2.54 1.308 4.449zm-55.705-5.583.065.75c.3 3.324 2.786 5.404 6.491 5.428 2.397 0 4.955-.911 7.015-2.501.008-.006.016-.013.024-.021-.385.083-.784.127-1.205.127h-.057c-1.679 0-3.142-.673-4.12-1.898-.887-1.103-1.359-2.625-1.359-4.395-.008-1.56.339-2.769 1.085-3.809.691-.96 1.695-1.772 3.368-2.711l2.097-1.18c.625-.377.804-.491 1.105-.707-.283.129-.595.266-.952.421l-6.408 2.709c-2.683 1.157-4.429 2.197-5.486 3.274-.965.987-1.421 2.022-1.572 3.568zm-15.482-24.668c-7.997.01-13.816 6.748-13.839 16.021.031 8.881 5.435 14.867 13.446 14.892 4.31 0 8.308-1.657 10.963-4.546.461-.502.959-1.088 1.516-1.792l-.152-.147c-1.217.99-2.134 1.534-3.372 2.036l-.053.022-.082.026c-1.409.416-2.697.619-3.873.619-6.757 0-11.474-5.348-12.036-13.624l-.045-.627-.087-1.195h-.223l.109-1.385.05-.635c.232-2.961.79-5.061 1.758-6.607.875-1.423 2.169-2.341 3.713-2.655v-.121h1.204.028.004.095c.064 0 .129 0 .193.002l1.042.012v.121c1.47.335 2.734 1.268 3.572 2.671.948 1.562 1.484 3.733 1.635 6.627l.035.619.06 1.169h6.699c-.54-3.999-1.365-5.513-3.248-7.558-2.266-2.548-5.495-3.943-9.112-3.945m32.95 26.111.3.68.331.749c1.167 2.572 2.284 3.332 4.973 3.373 2.002-.012 3.173-.428 5.427-1.931l.51-.343-.117-.738c-.139.014-.278.022-.419.022l-.061.002c-1.068 0-2.082-.588-2.584-1.499-.482-.829-.553-1.796-.557-2.544v-16.18c-.004-2.367-.818-4.165-2.485-5.493-1.766-1.401-4.437-2.143-7.721-2.143-4.028 0-7.709.857-10.382 2.411-2.36 1.375-3.659 3.135-3.657 4.957-.004.492.162 1.443.519 2.6l5.696-1.899c-.25-.752-.387-1.443-.387-2.217-.004-1.494.541-2.866 1.528-3.866.998-1.014 2.385-1.572 3.905-1.572 1.699 0 3.189.677 4.219 1.906.972 1.151 1.486 2.718 1.486 4.524v4.152.149 2.524 11.062.276.601l-.46.385zm-92.45-39.215c-4.713.008-8.527 2.348-11.347 6.956-2.962 4.848-4.526 11.872-4.524 20.31-.002 8.764 1.655 16.047 4.796 21.062 3.011 4.796 7.116 7.233 12.196 7.243 2.987 0 5.934-1.099 8.089-3.016 2.962-2.721 4.5-5.067 7.211-12.8l.135-.391.299-.862h.915 7.559 1.381l-.082 1.128c.814-.056.947-.112 1.243-.27.131-.074.391-.322.549-.578.248-.436.389-.813.393-3.588v-28.942l-3.861-1.715-.401-.179 1.038 10.068.146 1.415h-1.422-7.489-.917l-.296-.867-.137-.397c-.889-2.572-1.615-4.43-2.28-5.843-2.486-5.221-7.787-8.734-13.194-8.734m-.2-4.999c-19.241.012-33.764 14.978-33.778 34.813.021 14.317 6.81 24.507 19.633 29.461 4.072 1.482 7.916 2.238 11.408 2.238 8.265-.01 12.988-1.308 24.712-6.894l.908-12.372h-3.171c-2.25 6.259-3.956 9.318-6.879 12.221l.029.032-.962.853c-.006.006-.012.01-.018.016l-.911.831-.049-.053c-2.711 2.024-6.144 3.167-9.603 3.169-6.308 0-11.755-3.197-15.371-9.004-3.506-5.614-5.362-13.584-5.365-23.046.003-9.123 1.756-16.819 5.07-22.263 3.425-5.642 8.576-8.749 14.503-8.749 6.962.007 13.476 4.274 16.624 10.877.615 1.308 1.254 2.901 1.992 4.967h3.01l-1.27-12.348c-10.092-3.802-14.216-4.743-20.514-4.749zm-2.663 70.255h-.074c-3.929 0-8.211-.832-12.722-2.473-14.261-5.459-22.088-17.166-22.064-32.973-.002-10.578 3.802-20.332 10.712-27.46 4.774-4.924 10.775-8.327 17.427-9.97h-1.112-1.282v-.25c-1.474.635-2.893.912-4.552.912h-.071-.143c-3.07 0-5.374-1.109-7.003-3.379-2.79 2.145-6.098 3.31-9.352 3.312h-.014c-2.868 0-5.469-.966-7.321-2.713-.494-.468-.932-.984-1.309-1.544l.651 5.777c.242 2.245.744 3.638 1.583 4.386.869.786 2.391 1.169 4.794 1.209l.58.011 1.26.02v1.261 6.449 1.284h-1.282-32.772-1.284v-1.284-5.868-.581-1.257l1.26-.024.58-.011c2.093-.036 3.474-.348 4.105-.933.369-.332.844-1.018.846-3.231.004-.554-.028-.72-.036-.758l-.026-.103-.02-.143-2.546-26.914-10.727 28.305c-1.219 3.1-1.84 5.477-3.022 11.568l-.092.476-.2 1.04h-1.06-7.592-1.095l-.171-1.079-.081-.495c-.838-5.211-1.191-6.886-2.745-11.369l-10.475-28.857-3.544 27.386-.012.096-.04.141c-.145.502-.212 1.008-.21 1.266.014 1.835.484 2.318.966 2.655.584.407 1.945.903 5.11.949l.585.011 1.262.02v1.261 6.449 1.284h-1.284-23.153-1.282v-1.284-6.451-1.263l1.262-.018.581-.009c2.677-.042 4.211-.455 5.122-1.378.949-.95 1.586-2.842 2.008-5.963l5.658-41.001.059-.557c.066-.632.117-1.09.117-1.566-.012-1.52-.395-1.925-.784-2.209-.482-.353-1.595-.78-4.167-.822l-.585-.012-1.256-.027v-1.257-6.638-1.282h1.282 23.973 1.218l.064 1.215.028.559c.279 5.168.486 6.69 2.065 11.066l9.331 26.402 8.564-22.576c1.872-4.747 2.227-7.096 2.235-14.796v-.588-1.282h1.282 24.38 1.282v1.282 6.64 1.257l-1.258.025-.578.012c-2.558.042-3.635.516-4.09.905-.401.34-.859.983-.863 2.977-.002.161.018.347.036.548.022.252.049.534.055.831l3.094 27.486c.367-1.089.919-2.048 1.669-2.917 1.437-1.677 3.578-3.054 7.156-4.602l6.409-2.707c1.03-.449 1.532-.681 2.163-1.044v-2.778c-.048-2.656-1.498-2.677-1.974-2.683-1.052.015-1.659.621-1.675 1.714 0 .477.111.947.801 2.519l.032.071.26.595.087.195.169.385.31.708-1.336.445-10.442 3.479-1.133.379-.458-1.105-.212-.507c-.881-2.139-1.387-4.201-1.395-5.661.002-3.233 1.964-6.143 5.522-8.203 3.241-1.879 7.596-2.915 12.26-2.917 4.133 0 7.61 1.022 10.052 2.953 1.13.895 2.034 1.989 2.685 3.235v-.818-1.01l.981-.238.452-.109c5.874-1.421 7.217-1.796 13.075-3.66l.085-.029.191-.06h.2 3.124 1.284v1.282 9.915c.791-1.967 1.831-3.763 3.099-5.323 3.247-4.002 7.775-6.205 12.748-6.205h.091c1.457 0 2.582.166 3.923.627v-3.705l-.022-.01-3.847-1.741-.754-.341v-.828-4.082-1.02l.996-.232.458-.105c5.92-1.368 7.271-1.796 12.994-3.834l.095-.034.21-.075h.221 3.135 1.282v1.285 40.92c-.006 1.562.246 1.921.256 1.933.026.027.286.222 1.484.222h1.401 1.284v1.282 4.876 1.139l-1.133.135-16.694 1.988-1.433.171v-1.445-1.28c-2.387 1.677-5.07 2.556-7.827 2.556-2.768 0-5.258-.762-7.346-2.228v.284 1.282h-1.284-1.085c3.421.819 7.378 2.163 12.924 4.28l.336.129.742.28.081.788.31 3.001v-1.582-1.024l1-.226.456-.105c5.914-1.366 7.265-1.793 12.99-3.833l.089-.031.214-.078h.225 3.2 1.282v1.284 24.942c.8-1.899 1.864-3.628 3.173-5.122 3.225-3.691 7.724-5.722 12.669-5.722h.014c4.706 0 8.923 1.838 11.884 5.172.718.766 1.314 1.514 1.814 2.288.909-1.72 2.464-3.252 4.584-4.479 3.242-1.879 7.598-2.915 12.263-2.915 4.132 0 7.608 1.02 10.049 2.953 1.093.863 1.974 1.915 2.621 3.108v-.693-1.006l.977-.238.448-.111c5.862-1.433 7.225-1.798 13.008-3.66l.079-.024.196-.065h.205 3.062 1.282v1.282 1.022c.74-.453 1.436-.816 2.28-1.203 2.079-1.044 3.959-1.498 6.248-1.498 3.513 0 6.388 1.091 8.357 3.153 1.956 2.048 2.988 5.029 2.986 8.621v14.854c-.004 2.098.347 2.832.558 3.084.2.241.627.554 2.163.586l.575.012 1.258.024v1.258 4.931 1.282h-1.282-16.891-1.282v-1.282-24.09c0-1.365-.325-1.907-.466-2.076-.107-.129-.331-.401-1.236-.407-.855 0-1.996.51-3.137 1.384v15.294c-.006 2.229.369 2.92.531 3.116.112.139.417.518 2.126.554l.575.012 1.258.024v1.258 4.931 1.282h-1.282-21.381-1.284v-.248c-1.469.635-2.887.909-4.54.909l-.08-.002-.141.002c-3.072 0-5.379-1.109-7.007-3.379-2.784 2.145-6.092 3.31-9.35 3.312l-.063.002c-4.112 0-7.487-1.973-9.125-5.182-3.355 3.342-8.134 5.245-13.239 5.245-4.126.002-7.894-1.319-10.835-3.756v1.815 1.282h-1.282-20.905l-.673 9.217-.054.74-.67.323-.308.147c-12.89 6.214-18.236 7.73-27.239 7.73"/><path d="m134.428 141.284c.266-.151.526-.308.782-.474l.143.158c-.313.11-.621.215-.925.316m10.661-14.783h.891l-.749 10.25c-3.956 1.87-7.084 3.229-9.832 4.2l1.825-1.663c.004-.002.004-.004.006-.006l1.923-1.705-.095-.107c2.431-2.667 4.086-5.712 6.031-10.969m66.692-7.041s-.238-.312-.238-1.228c.004-.679.092-.806.153-.891.072-.102.292-.346.927-.761v2.715c-.312.189-.453.199-.603.201-.131-.002-.199-.016-.227-.024-.004-.002-.008-.008-.012-.012m-10.83 1.288.079-.837c.121-1.247.451-2.007 1.213-2.787.734-.748 1.944-1.524 3.675-2.355-.467 1.008-.693 2.153-.687 3.471.002 2.058.57 3.857 1.647 5.195.593.744 1.347 1.33 2.207 1.736-.951.304-1.925.465-2.868.465-3.068-.02-4.971-1.574-5.213-4.263zm-18.624-8.141h15.508c-.03.03-.063.062-.093.094-.405.408-.77.843-1.097 1.3l-.36-.354-1.787 1.6-.409.367c-1.629 1.447-2.173 1.812-3.104 2.207-.829.232-1.605.355-2.252.355-3.88-.01-5.624-2.955-6.406-5.569m47.635 5.212v-12.63l.705.3v11.933zm18.106-13.563c.885-.583 1.544-.76 1.843-.76.127.002.22.01.282.018.056.157.145.514.145 1.181v16.601l-.3-.006-.577-.01c-.677-.016-1.014-.089-1.159-.131-.076-.21-.238-.822-.234-2.249zm-36.525-2.246c.008-.383.062-.421.407-.427.268.006.647.064.673 1.425v1.888l-.097-.219-.262-.595c-.651-1.477-.717-1.826-.721-2.072m-29.037-.185c.26-.4.337-.434.748-.44.268.004.329.02.572.411.089.144.238.434.394.936h-2.117c.149-.45.294-.734.403-.907m1.282 23.878c-7.362-.021-12.135-5.368-12.166-13.62.012-5.007 1.746-9.146 4.633-11.748-.53 1.429-.865 3.165-1.032 5.307l-.051.631-.219 2.77h.419v.004l.046.631c.601 8.855 5.943 14.809 13.291 14.809.339 0 .683-.014 1.032-.042-1.816.812-3.862 1.258-5.953 1.258m18.312-21.246c-.09-.423-.131-.75-.131-.933-.002-1.832 1.893-3.207 3.022-3.864.25-.147.516-.287.79-.422-.36.849-.55 1.782-.55 2.758 0 .478.044.929.127 1.375zm-11.043 1.838-.03-.574c-.163-3.112-.76-5.479-1.824-7.232v-.002c1.177.58 2.231 1.376 3.112 2.368l.016.016.015.016c1.461 1.589 2.199 2.786 2.691 5.408zm43.299-6.083c2.536-.653 4.341-1.185 7.27-2.117v1.643 5.13l.131-.098v14.122c.006 2.144.201 4.364 1.55 6.149h-7.931c.158-.195.305-.403.446-.624.554-.853.877-1.712 1.018-2.706.127-.878.137-1.914.137-3.283v-13.796c-.004-.608-.01-1.598-.591-2.616l-.012-.022-.014-.022c-.55-.925-1.306-1.415-2.004-1.76m-15.419 4.553v-1.783c0-2.111-.619-3.961-1.79-5.352-.016-.018-.032-.036-.049-.054 1.897.255 3.446.836 4.552 1.715 1.339 1.066 1.994 2.538 2 4.491v16.166c.004.915.093 2.088.73 3.201.407.723 1.018 1.296 1.739 1.665-1.302.725-2.136.879-3.392.889-2.157-.037-2.837-.506-3.798-2.617l-.236-.534.244-.202v-1.203-.276-11.062zm33.675-7.099c.827-.264 1.621-.371 2.607-.373 2.092.002 3.67.54 4.687 1.599 1.052 1.102 1.588 2.836 1.59 5.148v14.852c.004 2.025.2 4.329 1.601 6.149h-6.447l.002-20.342c-.002-2.221-.526-3.941-1.601-5.261-.643-.792-1.475-1.391-2.439-1.772m-126.812 39.593c-4.609-.008-8.348-2.246-11.112-6.646-3.008-4.806-4.598-11.852-4.596-20.377-.002-8.204 1.496-14.997 4.334-19.643 2.572-4.199 6.019-6.333 10.243-6.339 4.93 0 9.769 3.217 12.046 8.006.64 1.357 1.347 3.175 2.226 5.713l.133.387.595 1.735h1.834 7.489 2.845l-.293-2.83-.81-7.865 1.473.655v28.109c-.002.963-.02 1.598-.05 2.024h-2.149-7.559-1.821l-.602 1.719-.137.395c-2.635 7.517-4.028 9.667-6.867 12.276-1.921 1.703-4.551 2.681-7.222 2.681m30.006-52.517c2.586-.668 4.441-1.266 7.491-2.341v36.622c.004 1.852.193 4.188 1.602 6.018h-7.978c.161-.201.31-.415.451-.639l.03-.046.029-.048c.941-1.645 1.092-3.161 1.088-6.146v-28.976c-.002-.744-.078-1.717-.665-2.685-.472-.772-1.143-1.348-2.048-1.759m-146.219 2.316c.963-.418 1.89-1.006 2.715-1.837 1.107-1.122 1.844-2.491 2.36-3.973.422 2.679 1.813 4.185 3.016 5.005.456.311.952.577 1.498.805zm101.184 53.982c-12.268-4.751-18.766-14.523-18.788-28.262.012-15.966 9.779-28.659 23.798-32.398-2.629 1.586-4.919 3.92-6.745 6.929-3.437 5.64-5.256 13.568-5.258 22.927.002 9.704 1.925 17.908 5.56 23.727 3.119 5.007 7.529 8.196 12.664 9.236h-.262c-3.333 0-7.024-.728-10.969-2.159m33.379-47.256c-.625-1.701-1.185-3.068-1.728-4.223-1.896-3.977-4.938-7.162-8.559-9.183 2.677.675 5.776 1.711 9.93 3.265l1.047 10.141zm2.582-16.718c1.377-.25 2.72-.702 4.004-1.347v1.907l2.869-.343 7.884-.939c-4.542 1.605-6.121 2.066-11.459 3.298l-.296.068-.06-.588-1.48-.563-.339-.129c-1.064-.407-2.07-.784-3.026-1.134h1.901zm-55.16.163c3.167-.002 6.366-1.008 9.132-2.852 1.506 1.614 3.435 2.564 5.769 2.836-3.588 1.846-6.87 4.267-9.726 7.216-1.333 1.375-2.554 2.842-3.659 4.392v-4.469-2.523l-2.524-.043-.58-.01c-2.016-.032-3.345-.326-3.95-.872-.58-.52-.971-1.718-1.169-3.57l-.242-2.155c1.934 1.33 4.347 2.05 6.949 2.05m5.59-12.477c-.004-.002-.008-.006-.012-.012-.075-.093-.238-.488-.238-1.23.004-.675.095-.804.155-.891.071-.099.291-.343.928-.758v2.715c-.317.19-.456.2-.607.202-.129-.002-.2-.016-.226-.026m-5.578 6.166c-3.253-.024-5.215-1.812-5.233-4.781.006-1.899.395-2.74 1.022-3.476.718-.842 1.978-1.685 3.917-2.612-.466 1.006-.694 2.153-.688 3.471 0 2.054.569 3.854 1.643 5.193.595.745 1.351 1.334 2.21 1.739-.952.305-1.925.466-2.871.466m-8.854-12.536-.457-4.064c.08.208.163.416.248.625l.213.514.855 2.06c-.308.281-.592.569-.859.865m32.601 4.721v-12.663l.772.331v11.897zm-18.419-15.809c.008-.381.075-.424.409-.43.268.006.647.065.674 1.428v1.89l-.359-.814c-.651-1.484-.72-1.822-.724-2.074m52.346 16.625c-.28 0-1.187-.002-2.197-1.818-.968-1.752-1.502-4.42-1.5-7.5-.004-3.733.784-5.622 1.252-6.416.651-1.089 1.252-1.315 2.008-1.321.399.002.863.252 1.244.672.469.512.735 1.185.735 1.848v13.731c-.721.8-1.259.802-1.542.804m-5.07 7.063c-5.428-.012-8.692-4.561-8.728-12.17 0-4.639 1.336-8.841 3.765-11.827.686-.84 1.438-1.566 2.246-2.167-.034.057-.069.115-.103.174-1.403 2.39-2.119 5.628-2.121 9.607.002 4.186.795 7.835 2.288 10.556 1.492 2.733 3.746 4.483 6.316 4.95-1.171.581-2.397.877-3.663.877m-56.718-21.243c-.089-.423-.129-.748-.129-.931-.002-1.833 1.893-3.207 3.022-3.867.25-.145.514-.286.788-.419-.361.849-.551 1.782-.549 2.756 0 .477.045.929.127 1.372zm32.336-4.239c2.458-.633 4.266-1.165 7.389-2.151v20.953c.006 2.095.197 4.259 1.509 6.021h-7.962c.155-.191.3-.391.435-.601.597-.886.944-1.812 1.093-2.908.135-.956.145-2.109.145-3.632v-13.27c-.004-.609-.01-1.596-.589-2.614l-.012-.022-.014-.023c-.548-.917-1.298-1.409-1.994-1.753m-15.5 4.545v-1.784c0-2.11-.619-3.961-1.79-5.349-.016-.019-.03-.037-.046-.055 1.901.258 3.447.837 4.55 1.714 1.34 1.068 1.995 2.537 1.999 4.491v16.166c.006.913.093 2.084.728 3.196.407.726 1.018 1.301 1.742 1.669-1.302.728-2.137.881-3.393.889-2.155-.034-2.834-.504-3.796-2.614l-.236-.538.242-.204v-1.199-.276-11.058zm50.048-20.012c2.593-.667 4.443-1.262 7.471-2.328v36.73c.008 1.855.2 3.772 1.548 5.298l.017.018.01.01-6.352.758v-2.59-2.72l.064-.098v-.764-14.963c-.004-1.314-.3-2.576-.816-3.713l.816.389v-4.059-7.535c.002-1.071-.244-1.972-.754-2.752-.472-.717-1.143-1.282-2.004-1.681m-137.363-4.656h14.526c.28 3.443.768 5.678 2.163 9.518l11.559 32.709 1.792 5.063-1.824 4.81c-1.129 2.87-1.816 5.285-2.756 9.863h-1.336c-.625-3.588-1.159-5.646-2.524-9.575l-.006-.016-.006-.016-13.111-36.126-.688-1.896-2.006.221-1.139.125-.911.101.659-4.775.006-.048.004-.047c.021-.205.043-.397.063-.58.075-.694.145-1.349.145-2.115.026-3.495-1.554-5.355-2.885-6.297-.518-.369-1.086-.673-1.725-.919m46.55 0h14.896c-.805.316-1.502.732-2.121 1.252-1.792 1.514-2.655 3.741-2.649 6.819.002.401.036.772.063 1.07.014.147.032.349.032.42v.05.143l.016.143 4.814 42.749c.256 2.399.855 5.441 3.215 7.567.673.601 1.437 1.089 2.314 1.466h-20.168c.649-.303 1.272-.696 1.84-1.208 2.238-2.046 2.494-4.946 2.492-6.954v-.101c0-.391-.002-.965-.125-1.598l-3.284-34.715-.192-2.032-2.022-.27-1.139-.151-.933-.125.409-1.08c1.807-4.546 2.413-7.529 2.542-13.445m23.229-6.313h-2.566-24.38-2.566v2.566.59c-.008 7.495-.347 9.766-2.139 14.308l-.004.014-.006.016-7.324 19.303-8.162-23.094c-1.449-4.024-1.709-5.423-1.994-10.716l-.03-.554-.127-2.433h-2.435-23.971-2.568v2.566 6.638 2.513l2.514.053.578.012c2.587.042 3.32.485 3.441.574.071.051.25.184.258 1.191 0 .393-.046.823-.108 1.415-.021.176-.041.361-.061.561l-5.65 40.955c-.379 2.794-.916 4.501-1.639 5.227-.414.417-1.286.961-4.242 1.007l-.576.008-2.53.039v2.527 6.451 2.568h2.566 23.152 2.567v-2.568-6.449-2.523l-2.524-.043-.579-.01c-3.195-.044-4.177-.562-4.403-.719-.149-.105-.405-.284-.417-1.615 0-.097.04-.48.161-.895l.006-.026.009-.024.012-.047.044-.163.02-.169 2.867-22.151 8.672 23.892c1.526 4.403 1.851 5.939 2.685 11.137l.081.496.346 2.159h2.188 7.592 2.116l.403-2.078.093-.476c1.246-6.418 1.855-8.547 2.949-11.33l.006-.014.006-.016 8.769-23.139 2.026 21.415.021.216.044.167c.006.059.014.2.012.484-.002 1.824-.343 2.223-.411 2.284l-.01.012-.012.01c-.061.054-.668.546-3.254.59l-.583.01-2.521.047v2.519.581 5.868 2.568h2.568 32.554c-3.026 5.801-4.634 12.435-4.632 19.415-.025 16.372 8.095 28.504 22.868 34.158l.02.01.02.006c4.657 1.693 9.084 2.552 13.162 2.552h.074c9.239 0 14.694-1.542 27.797-7.857l.307-.147 1.338-.645.109-1.48.587-8.028h19.711 2.566v-1.901c2.78 1.671 6.044 2.56 9.537 2.56 4.889 0 9.499-1.637 12.988-4.552 2.058 2.784 5.467 4.487 9.388 4.487h.077c3.153-.002 6.348-1.008 9.112-2.852 1.808 1.939 4.231 2.919 7.233 2.919.056 0 .11 0 .167-.002h.05c1.504 0 2.828-.202 4.149-.659h1.679 21.38 2.567.346 16.891 2.567v-2.566-4.931-2.519l-2.52-.047-.577-.01c-.744-.016-1.078-.107-1.201-.151-.073-.169-.26-.754-.256-2.231v-14.86c.002-3.929-1.153-7.218-3.343-9.508-2.217-2.322-5.41-3.55-9.234-3.55h-.053c-2.451 0-4.558.504-6.821 1.635-.144.066-.283.131-.42.195v-1.433h-2.568-3.06-.407l-.387.125-.087.028c-5.737 1.849-7.09 2.212-12.91 3.633l-.447.109-1.183.288c-.404-.436-.843-.843-1.321-1.22-2.665-2.11-6.416-3.227-10.841-3.227-4.889 0-9.471 1.099-12.908 3.09-1.633.946-2.975 2.088-3.985 3.362-.26-.312-.536-.624-.833-.941-3.207-3.598-7.757-5.577-12.813-5.577-5.34 0-10.182 2.189-13.655 6.162-.323.367-.629.745-.923 1.138v-20.114-2.566h-2.416l3.105-.371 2.262-.27v-2.278-4.876-2.566h-2.566-1.381c-.178 0-.323-.004-.444-.01-.02-.206-.034-.482-.032-.851v-40.93-2.569h-2.566-3.135-.445l-.42.152-.095.032c-5.668 2.02-7.005 2.441-12.851 3.791l-.455.107-1.99.46v2.04 4.084 1.654l1.508.684 3.112 1.409v1.201c-.836-.165-1.677-.234-2.638-.234h-.091c-5.368 0-10.249 2.373-13.744 6.68-.285.349-.557.71-.821 1.079v-4.862-2.566h-2.566-3.125-.405l-.385.125-.088.028c-5.812 1.851-7.149 2.223-12.975 3.632l-.449.109-1.244.301c-.405-.44-.849-.851-1.33-1.23-2.667-2.11-6.417-3.229-10.844-3.229-4.888.002-9.47 1.098-12.905 3.092-3.018 1.748-5.044 4.164-5.814 6.855l-1.307-11.602c-.01-.319-.036-.617-.058-.863-.014-.145-.032-.342-.032-.413.002-1.066.151-1.794.405-2.01.119-.102.782-.564 3.286-.606l.582-.01 2.518-.047v-2.519-6.64zm125.248 103c1.031-.01 1.74-.316 3.173-1.473v-8.48c-.219.145-.485.308-.905.558l-2.112 1.189c-1.325.742-2.123 1.365-2.573 2-.449.633-.62 1.31-.624 2.372 0 1.26.308 2.228.818 2.855.512.626 1.212.971 2.223.979m4.351-12.255v11.062.276l-.212.175c-1.58 1.331-2.697 1.921-4.108 1.921h-.031-.024c-1.29 0-2.395-.512-3.116-1.417-.73-.907-1.079-2.15-1.081-3.596-.004-1.185.22-2.189.845-3.057.623-.867 1.572-1.565 2.955-2.343l2.097-1.179c.989-.594.999-.623 1.737-1.159zm-33.167-12.169h.052v.589.59c-1.316.016-2.181.496-2.909 1.621-.657 1.036-1.113 2.656-1.332 4.858h8.234c-.167-2.204-.606-3.826-1.245-4.864-.708-1.129-1.545-1.601-2.748-1.615v-.59-.589h.046c1.551 0 2.873.778 3.708 2.179.856 1.411 1.318 3.406 1.457 6.037l.032.619h-10.767l.051-.635c.205-2.623.683-4.618 1.566-6.027.863-1.403 2.224-2.173 3.855-2.173m16.532 11.552-.21-.506c-.202-.492-.383-.98-.542-1.455.091.669.169 1.389.24 2.165l.062.645h-20.072c.716 6.71 4.31 10.689 9.521 10.701.974 0 2.032-.181 3.103-.494 1.374-.568 2.128-1.088 3.965-2.721l.409-.367 1.264 1.232c.318-1.488.986-2.77 2.094-3.889 1.385-1.405 3.407-2.572 6.28-3.813l6.396-2.705c1.403-.611 1.901-.851 2.947-1.502v-3.501c-.046-2.574-1.28-3.939-3.239-3.965-1.814.022-2.951 1.215-2.975 2.975 0 .79.213 1.479.941 3.128l.26.593zm-15.952 19.077c4.602 0 9.001-1.794 11.912-4.959.524-.57 1.088-1.242 1.703-2.024l.591-.748-1.814-1.769c-1.589 1.394-2.518 2.013-3.917 2.58l-.028.012-.029.008c-1.165.342-2.336.552-3.467.552h-.024c-6.1 0-10.227-5.007-10.731-12.427l-.046-.633h20.052c-.542-5.111-1.357-7.111-3.75-9.711-2.525-2.838-6.114-4.356-10.055-4.358-8.749.008-15.099 7.244-15.123 17.299.034 9.653 6.01 16.153 14.726 16.178m60.41-28.533v-4.614h-1.696c-5.525 1.778-7.099 2.214-12.641 3.57v2.383l3.223 1.372c.452.21.833.426 1.079.839.236.415.25.834.254 1.346v13.796c0 1.391-.014 2.245-.113 2.925-.097.677-.317 1.187-.637 1.679-.369.582-.875 1.121-1.548 1.401-.474.298-.96.467-1.526.532l-.567.07-.431-2.727c-.601.294-1.008.405-1.454.405h-.008c-.018.002-.036.002-.054.002-.595 0-1.175-.318-1.462-.836-.302-.52-.391-1.155-.395-1.931v-16.174c-.008-2.79-1.042-4.957-2.971-6.495-1.931-1.534-4.816-2.423-8.519-2.423h-.012c-4.395 0-8.28.994-11.017 2.586-2.748 1.603-4.296 3.742-4.294 6.068-.004.889.361 2.531 1.006 4.215l8.172-2.724c-.546-1.288-.784-2.088-.784-3.009 0-1.161.417-2.213 1.159-2.963.74-.752 1.794-1.191 2.988-1.191h.008.02c1.298 0 2.439.526 3.211 1.447.779.923 1.186 2.205 1.186 3.697v4.154l-.274.173c-1.264.801-1.863 1.099-3.387 1.76l-6.399 2.705c-2.806 1.21-4.699 2.332-5.9 3.556-1.199 1.225-1.758 2.538-1.935 4.342l-.101 1.066.075.865c.354 3.957 3.334 6.573 7.761 6.599h.008c2.818 0 5.602-1.072 7.799-2.768.361-.298.897-.834 1.631-1.501l.609-.551.328.75c1.377 3.028 2.919 4.09 6.129 4.137 2.245-.012 3.642-.466 6.158-2.145l.919-.619-.002 2.102h19.024v-2.606c-1.488-.099-2.639-.492-3.401-1.433-.84-1.058-1.082-2.558-1.088-4.676v-16.441l.199-.175c1.786-1.572 3.663-2.516 5.407-2.524h.034c1.286 0 2.383.426 3.097 1.305.717.883 1.024 2.112 1.024 3.64v22.91h14.534v-2.608c-1.496-.101-2.657-.51-3.433-1.453-.855-1.06-1.119-2.564-1.123-4.654v-14.854c-.002-3.068-.826-5.374-2.304-6.92-1.478-1.544-3.655-2.389-6.545-2.393-1.972.006-3.425.367-5.236 1.266-1.552.714-2.469 1.262-4.842 3.04zm10.986-6.19h.035.018c3.104 0 5.642.937 7.378 2.758 1.741 1.82 2.633 4.462 2.631 7.734v14.854c-.004 1.999.294 3.235.858 3.908.547.669 1.464 1.01 3.121 1.046l.576.01v4.931h-16.891v-24.09c.002-1.377-.286-2.324-.758-2.895-.467-.564-1.141-.864-2.217-.872h-.018c-1.24 0-2.835.713-4.409 2.056v15.906c-.006 2.037.28 3.277.827 3.934.526.657 1.421.984 3.084 1.02l.578.01v4.931h-21.38v-1.091c-2.088 1.28-3.725 1.75-5.828 1.75h-.07c-.049.002-.099.002-.147.002-3.169 0-5.32-1.339-6.717-4.096-.428.401-.779.738-1.095 1.002-2.403 1.854-5.425 3.025-8.545 3.027h-.065c-4.38 0-7.751-2.525-8.658-6.329-.318.381-.627.732-.925 1.056-3.163 3.437-7.874 5.338-12.779 5.338h-.014c-4.665 0-8.666-1.786-11.47-4.862-2.812-3.076-4.421-7.42-4.421-12.493 0-5.274 1.693-9.889 4.586-13.193 2.889-3.304 6.989-5.285 11.704-5.285h.012.008c4.24 0 8.173 1.65 10.918 4.743 1.524 1.624 2.484 3.16 3.121 5.226v-.072c.002-2.891 1.919-5.372 4.88-7.088 2.972-1.723 7.042-2.743 11.62-2.743 3.884 0 7.041.925 9.253 2.677 2.213 1.748 3.425 4.332 3.417 7.418v16.174c-.004.671.104 1.127.231 1.332.135.194.188.236.5.256.311-.002.567-.06 1.625-.651l.736-.417.51 3.207c.169-.061.328-.143.526-.264l.052-.035.057-.022c.353-.125.748-.494 1.032-.953.27-.427.381-.677.466-1.222.082-.542.102-1.37.102-2.751v-13.796c.003-.477-.046-.685-.092-.749-.037-.067-.149-.18-.54-.359l-3.923-1.671v-4.088l.449-.109c5.943-1.451 7.354-1.836 13.095-3.685l.087-.028h3.06v3.447c1.752-1.274 2.73-1.834 4.098-2.461 1.895-.952 3.605-1.383 5.711-1.383m-103.714 34.061h19.021v-2.598c-1.499-.076-2.671-.484-3.459-1.415-.875-1.048-1.159-2.542-1.161-4.571l-.002-39.611h-1.814c-5.516 1.965-7.114 2.475-12.718 3.773v2.383l3.189 1.417c.477.181.887.431 1.139.845.25.411.292.858.294 1.356v28.978c.002 2.761-.129 3.785-.75 4.868-.383.604-.893 1.125-1.472 1.459-.697.385-1.304.504-2.267.569zm15.578-49.374v40.79c-.004 1.931.307 3.142.883 3.809.565.669 1.498 1.01 3.149 1.014h.591v4.941h-21.381v-4.846l.561-.028c1.332-.073 1.693-.121 2.312-.452.353-.199.766-.605 1.034-1.034.448-.788.579-1.479.583-4.263v-28.978c.002-.427-.055-.641-.119-.74-.063-.1-.182-.213-.587-.373l-3.917-1.739v-4.088l.458-.103c6.005-1.387 7.39-1.83 13.137-3.876l.097-.034zm-45.3 67.532c8.712-.008 13.617-1.433 25.938-7.339l1.06-14.493h-5.455c-2.653 7.545-4.433 10.403-7.753 13.426l-.397-.435.391.439c-2.663 2.367-6.193 3.639-9.73 3.639h-.031c-5.989 0-10.918-3.05-14.25-8.398-3.346-5.357-5.167-13.003-5.169-22.368.002-9.032 1.728-16.416 4.883-21.596 3.139-5.168 7.783-8.132 13.407-8.132h.029c6.38.005 12.506 4.004 15.435 10.146.726 1.546 1.448 3.416 2.244 5.696h5.34l-1.5-14.549c-10.878-4.131-15.153-5.108-21.707-5.112-20.05.012-35.046 15.545-35.06 36.095.022 14.894 7.185 25.531 20.455 30.659 4.1 1.491 8.09 2.322 11.87 2.322m2.775-70.255c6.75 0 11.32 1.078 22.427 5.319l.339.129 1.709 16.571h-7.489l-.135-.397c-.847-2.443-1.596-4.406-2.334-5.974-2.73-5.739-8.481-9.47-14.355-9.47h-.014c-5.209.008-9.419 2.654-12.428 7.567-3 4.91-4.715 12.098-4.713 20.981-.002 9.212 1.806 16.656 4.991 21.744 3.195 5.085 7.686 7.835 13.281 7.845h.004c3.255 0 6.515-1.182 8.942-3.342 3.219-2.957 4.832-5.521 7.568-13.332l.139-.395h7.559l-1.201 16.438-.309.147c-12.506 6.027-17.784 7.603-26.682 7.603h-.074c-3.953 0-8.074-.867-12.285-2.397-13.692-5.242-21.241-16.482-21.219-31.763 0-10.566 3.876-19.891 10.351-26.569 6.473-6.678 15.549-10.707 25.888-10.705zm-27.129-8.166c1.032-.008 1.742-.315 3.173-1.471v-8.481c-.22.144-.484.309-.903.559l-2.115 1.189c-1.322.742-2.123 1.365-2.572 2-.448.633-.619 1.31-.625 2.37 0 1.262.31 2.229.82 2.856.51.625 1.212.972 2.222.978m4.352-12.251v11.058.276l-.212.177c-1.58 1.331-2.697 1.919-4.108 1.919h-.032-.024c-1.288 0-2.395-.512-3.117-1.417-.728-.907-1.078-2.149-1.078-3.596-.004-1.183.219-2.187.844-3.056.623-.868 1.573-1.564 2.954-2.342l2.098-1.179c.988-.595 1-.623 1.74-1.159zm47.03-11.974h.037v.589.59c-1.809.013-3.171.855-4.203 2.58-1.02 1.726-1.613 4.356-1.609 7.721-.004 3.656.683 6.688 1.824 8.752 1.151 2.068 2.665 3.13 4.451 3.134 1.579-.006 2.923-.79 4.097-2.495v-14.606c0-1.359-.551-2.643-1.405-3.578-.855-.937-1.994-1.508-3.149-1.508h-.006v-.59-.589c3.098.026 5.725 2.921 5.739 6.265v14.963l-.097.147c-1.308 2.017-3.094 3.17-5.158 3.17h-.021-.01c-2.304 0-4.219-1.445-5.475-3.745-1.27-2.312-1.967-5.517-1.969-9.32.002-3.498.598-6.316 1.772-8.319 1.155-1.994 2.979-3.161 5.182-3.161m-62.99 9.887 8.171-2.723c-.545-1.288-.782-2.088-.782-3.009-.002-1.163.417-2.214 1.159-2.965.738-.75 1.792-1.19 2.985-1.19h.008.02c1.299 0 2.442.526 3.212 1.445.778.926 1.187 2.208 1.187 3.697v4.155l-.274.173c-1.264.8-1.863 1.101-3.387 1.762l-6.398 2.705c-3.105 1.336-5.088 2.564-6.263 3.942-1.172 1.377-1.627 2.919-1.633 5.153.026 4.374 3.104 7.298 7.795 7.333h.004c2.818 0 5.604-1.073 7.804-2.77.36-.298.897-.832 1.63-1.501l.609-.551.329.752c1.377 3.028 2.921 4.09 6.128 4.134 2.248-.012 3.643-.465 6.159-2.144l.919-.619v2.104h19.219v-2.54c-1.546-.094-2.723-.481-3.509-1.419-.861-1.05-1.105-2.54-1.111-4.628v-23.9h-1.762c-5.588 1.78-7.102 2.215-12.706 3.572v2.38l3.223 1.373c.452.212.833.427 1.079.841.236.413.25.832.254 1.344v13.27c0 1.556-.014 2.525-.121 3.285-.103.756-.339 1.32-.696 1.844-.403.633-.977 1.149-1.556 1.403-.488.246-.947.418-1.504.504l-.582.091-.432-2.719c-.599.294-1.008.405-1.451.405h-.01c-.018 0-.035 0-.053 0-.596 0-1.177-.316-1.461-.834-.303-.521-.391-1.155-.397-1.934v-16.171c-.006-2.79-1.041-4.959-2.97-6.495-1.929-1.532-4.812-2.421-8.513-2.421h-.008-.014c-4.395-.002-8.275.992-11.011 2.584-2.749 1.603-4.298 3.741-4.295 6.065-.007.889.358 2.534 1.005 4.217m79.791-29.491v40.92c-.006 1.548.217 2.407.598 2.806.353.405 1.057.631 2.424.631h.02 1.381v4.876l-16.692 1.988v-3.891c-.375.325-.746.609-1.101.859-2.396 1.981-5.166 3.023-8.011 3.023h-.004v-.588-.591c2.563 0 5.062-.931 7.282-2.767l.016-.014.022-.015c.631-.443 1.326-1.011 1.949-1.697l1.026-1.126v5.48l14.333-1.709v-2.649h-.201c-1.46-.002-2.569-.205-3.316-1.02-.728-.822-.9-1.975-.906-3.596v-39.743h-1.751c-5.514 1.965-7.112 2.475-12.714 3.773v2.387l3.12 1.415c.49.187.901.451 1.165.852.262.404.335.863.335 1.347v7.535l-.841-.402c-2.643-1.243-3.58-1.517-5.624-1.526-4.372.003-8.136 1.966-10.847 5.294-2.708 3.328-4.341 8.028-4.341 13.457.043 9.139 4.49 14.71 11.293 14.724v.591.588h-.024c-3.483 0-6.461-1.378-8.602-3.811v3.152h-21.577v-1.092c-2.087 1.28-3.726 1.751-5.828 1.751h-.071c-.05.002-.101.002-.151.002-3.167 0-5.316-1.34-6.713-4.097-.429.403-.78.739-1.095 1.003-2.405 1.853-5.426 3.026-8.545 3.026h-.008c-2.6 0-4.85-.857-6.445-2.362-1.6-1.508-2.524-3.661-2.522-6.148-.006-2.385.531-4.31 1.918-5.918 1.38-1.611 3.523-2.891 6.694-4.262l6.399-2.705c1.401-.61 1.901-.85 2.945-1.501v-3.504c-.045-2.572-1.278-3.936-3.24-3.963-1.812.023-2.949 1.216-2.975 2.976 0 .79.216 1.479.941 3.128l-.538.236.538-.236.26.593-10.442 3.479-.21-.506c-.812-1.978-1.294-3.911-1.3-5.179.004-2.888 1.921-5.369 4.883-7.085 2.971-1.723 7.041-2.743 11.617-2.745 3.887 0 7.044.927 9.255 2.679 2.213 1.747 3.423 4.331 3.415 7.418v16.171c-.002.674.105 1.129.232 1.335.137.193.189.236.5.254.312-.002.568-.061 1.626-.649l.738-.418.5 3.165c.19-.066.381-.151.621-.268.315-.127.794-.536 1.06-.973.295-.452.424-.744.519-1.375.09-.627.11-1.57.11-3.116v-13.27c.002-.478-.048-.685-.092-.75-.037-.064-.149-.179-.541-.356l-3.922-1.674v-4.087l.451-.107c6.005-1.454 7.352-1.839 13.162-3.687l.086-.028h3.125v25.079c-.006 2.006.28 3.223.837 3.872.457.555 1.207.879 2.491.984-1.657-2.689-2.554-6.214-2.554-10.334 0-5.663 1.702-10.629 4.604-14.201 2.897-3.568 7.02-5.729 11.751-5.729h.012.081c1.891 0 3.132.309 5.205 1.248v-5.676c0-.375-.059-.573-.143-.7-.083-.127-.234-.258-.631-.413l-3.847-1.741v-4.084l.458-.105c6.003-1.387 7.39-1.83 13.137-3.876l.095-.032zm-117.911 43.234-11.567-32.729c-1.56-4.295-1.903-6.254-2.173-11.211h-21.677v4.31c2.204.09 3.825.445 4.99 1.271 1.276.904 1.814 2.369 1.802 4.203 0 .806-.099 1.488-.196 2.439l-5.658 41.022c-.48 3.475-1.188 5.821-2.699 7.359-1.43 1.439-3.448 1.992-6.254 2.094v4.117h20.796v-4.117c-2.661-.09-4.562-.463-5.9-1.374-1.448-.988-2.036-2.607-2.022-4.671 0-.534.098-1.211.292-1.907l4.522-34.946 1.139-.127 13.111 36.126c1.56 4.487 1.981 6.394 2.774 11.298h5.616c1.167-5.973 1.838-8.438 3.046-11.502l13.581-35.833 1.139.151 3.296 34.854c.107.469.098.951.1 1.32.003 2.223-.409 3.916-1.642 5.045-1.143 1.03-2.811 1.462-5.147 1.562v4.121h30.414v-4.119c-2.583-.104-4.472-.618-5.816-1.822-1.44-1.296-2.097-3.257-2.385-5.946l-4.814-42.749v-.036c.002-.401-.091-.968-.095-1.51-.004-2.143.472-3.782 1.73-4.846 1.159-.972 2.812-1.379 5.062-1.477v-4.31h-22.024c-.012 7.293-.441 10.177-2.395 15.086zm36.544-45.119v6.64l-.579.01c-2.451.04-4.011.451-4.9 1.215-.887.75-1.308 1.941-1.312 3.947-.004.389.086.937.092 1.469l4.808 42.697c.278 2.586.893 4.209 2.002 5.198 1.103.998 2.852 1.49 5.626 1.536l.581.01v6.449h-32.772v-5.868-.581l.578-.01c2.544-.042 4.095-.477 4.955-1.274.863-.78 1.254-2.06 1.256-4.172.002-.375-.006-.814-.076-1.083l-.011-.042-3.066-32.412-12.685 33.468c-1.21 3.076-1.855 5.465-3.081 11.78l-.092.478h-7.592l-.079-.496c-.851-5.283-1.207-6.988-2.802-11.586l-12.281-33.838-4.221 32.622-.012.047c-.177.606-.264 1.231-.262 1.628.016 1.895.464 2.963 1.514 3.699 1.066.746 2.947 1.141 5.83 1.181l.578.01v6.449h-23.152v-6.451l.581-.008c3.019-.048 4.83-.558 6.015-1.759 1.197-1.198 1.907-3.284 2.367-6.69l5.658-41.002c.097-.957.188-1.596.186-2.298-.012-1.655-.416-2.594-1.311-3.245-.905-.661-2.497-1.028-4.902-1.068l-.577-.012v-6.638h23.971l.028.558c.29 5.378.548 7.021 2.139 11.435l10.497 29.698 9.807-25.852c1.953-4.952 2.308-7.514 2.316-15.249v-.59z"/><path d="m115.884 39.91 1.151-4.634 1.19-4.785-6.52.758-.81-2.375 6.884-4.148-2.387-3.346-1.909-2.675 3.216.673 4.616.966 2.747-5.687 1.617-3.348.792 3.632.815 3.723 7.527-4.097 1.615 1.931-4.925 6.129 4.268 1.694 4.15 1.65-4.394.805-5.818 1.066-.014 5.426-.008 2.762-2.105-1.788-3.417-2.897-4.963 5.132z"/><path d="m126.141 7.405-3.234 6.694-2.31 4.783-3.635-.759-6.434-1.347 3.82 5.35 1.582 2.217-5.697 3.433 1.619 4.747 4.681-.543-.744 2.986-2.302 9.268 6.638-6.866 4.129-4.267 2.497 2.121 4.214 3.576.014-5.527.01-4.36 4.769-.873 8.79-1.611-8.304-3.297-2.653-1.055 3.837-4.775-3.228-3.86-6.025 3.28-.45-2.052zm-.922 7.809 1.178 5.396 9.031-4.916-6.014 7.482 5.881 2.338-6.866 1.258-.016 6.492-4.333-3.674-5.799 5.995 1.635-6.582-8.36.972 8.075-4.866-3.195-4.475 5.598 1.171z"/><path d="m122.385 26.829-.445 1.798-.159.645 1.332-1.381.837-.865.915.778 1.681 1.425.008-2.953.002-1.066 1.05-.191.936-.172-.563-.223-1.614-.641 1.088-1.355.657-.818-1.509.822-1.504.818-.365-1.671-.188-.864-.824 1.705-.202.415-.437.903-.982-.205-1.353-.285.779 1.091.804 1.129-1.187.715-1.216.732.619-.073zm-7.606 15.067 1.153-4.634 1.522-6.124-7.62.724-.8-2.367 7.908-4.928-2.904-4.07-1.907-2.672 3.213.671 5.638 1.177 3.288-6.815 1.617-3.348.792 3.632 1.018 4.656 8.902-4.664 1.605 1.931-5.755 7.303 5.45 2.165 4.159 1.651-4.4.804-7.362 1.344-.015 6.209-.004 2.765-2.108-1.788-3.965-3.366-6.104 6.311z"/><path d="m123.703 25.383-.004-.004.016.002zm.157-.108.22-.458.127.579.945-.514.123.048-.004 1.342v.192l-1.216-1.032.023-.093-.117.014-.099-.082zm2.485-19.676-3.231 6.703-2.85 5.91-4.657-.972-6.431-1.342 3.816 5.345 2.111 2.957-6.749 4.207 1.602 4.733 5.816-.554-1.086 4.366-2.306 9.268 6.642-6.864 5.269-5.446 3.048 2.586 4.216 3.578.012-5.529.01-5.142 6.311-1.153 8.8-1.607-8.314-3.303-3.854-1.53 4.691-5.951-3.207-3.862-7.413 3.884-.657-3.013zm-4.311 16.207.12-.577zm.328.671-4.572-.96 2.689 3.768-6.287 3.789 6.501-.756-1.312 5.277 4.656-4.811 3.786 3.211.014-5.715 5.332-.977-4.717-1.873 4.669-5.811-7.136 3.886-.98-4.499-2.441 5.056zm3.064-9.061 1.377 6.299 10.392-5.444-6.822 8.653 7.054 2.802-8.413 1.536-.016 7.277-4.88-4.142-6.943 7.175 1.962-7.885-9.424.897 9.067-5.652-3.699-5.18 6.622 1.382z"/><path d="m88.186 59.957h-11.551v-5.646h11.551z"/><path d="m100.562 51.765h-6.233v-7.456h6.233z"/><path d="m98.965 65.859h-3.993v-4.721h3.993z"/><path d="m117.447 65.603h-3.851v-16.682h3.851z"/><path d="m185.72 103.843h-5.374v-3.403h5.374z"/><path d="m214.467 122.834h-5.51v-23.807h5.51z"/><path d="m129.665 13.735 22.674-11.657-15.353 19.121"/><path d="m114.255 34.631-22.817 2.133 21.594-12.794"/><path d="m280.403 93.635c0 3.616-2.931 6.549-6.548 6.549-3.618 0-6.549-2.933-6.549-6.549 0-3.617 2.931-6.547 6.549-6.547 3.617 0 6.548 2.93 6.548 6.547"/></g><path d="m273.061 93.393h.582c.679 0 1.23-.225 1.23-.778 0-.485-.355-.81-1.133-.81-.325 0-.55.034-.679.065zm-.033 2.978h-1.231v-5.277c.485-.097 1.165-.194 2.042-.194 1.003 0 1.455.161 1.844.419.292.228.518.649.518 1.133 0 .617-.453 1.071-1.102 1.264v.067c.52.159.812.582.973 1.294.161.808.258 1.132.389 1.294h-1.328c-.161-.194-.26-.647-.421-1.262-.097-.583-.422-.843-1.101-.843h-.583zm.811-6.993c-2.333 0-4.083 1.909-4.083 4.241 0 2.365 1.75 4.241 4.145 4.241 2.332.035 4.048-1.876 4.048-4.241 0-2.332-1.716-4.241-4.08-4.241zm.062-1.07c3.044 0 5.411 2.364 5.411 5.311 0 3.012-2.367 5.344-5.443 5.344-3.044 0-5.471-2.332-5.471-5.344 0-2.947 2.427-5.311 5.471-5.311z" fill="#434090"/><path d="m217.935 96.888h-.819-50.802-1.5l.232-1.481 1.075-6.91.086-.562.48-.315c12.803-8.377 17.51-11.649 24.033-17.176 7.489-6.277 12.331-13.287 13.287-19.238.371-2.303-.123-4.394-1.391-5.881-1.252-1.472-3.215-2.282-5.525-2.282-2.25 0-4.232.484-6.24 1.524l-.028.016-.03.014c-3.336 1.518-5.449 3.36-10.279 8.962l-.964 1.117-.971-1.109-3.978-4.525-.697-.797.643-.836c2.268-2.941 4.276-5.211 6.106-7.226 6.937-7.465 16.869-12.095 25.932-12.095 6.838 0 12.646 2.383 16.361 6.711 3.278 3.819 4.625 8.897 3.796 14.303-1.169 7.128-4.786 12.469-12.484 18.45-5.788 4.324-10.561 7.307-20.121 12.445l14.498-.089c5.282 0 7.909-1.854 10.42-7.351l.349-.762.839.012 7.332.121 1.979.032-.836 1.792-10.439 22.395z" fill="#ed1c24"/><path d="m206.586 26.805c-9.41 0-19.703 4.787-26.862 12.493l-.01.011-.01.01c-1.758 1.937-3.868 4.319-6.173 7.307l-1.29 1.675 1.395 1.586 3.978 4.527 1.947 2.216 1.925-2.234c4.685-5.432 6.709-7.206 9.839-8.631l.059-.028.058-.031c1.843-.955 3.585-1.38 5.649-1.38 1.955 0 3.528.635 4.55 1.832 1.018 1.197 1.409 2.917 1.098 4.844-.907 5.652-5.586 12.378-12.837 18.453-6.483 5.493-11.168 8.749-23.92 17.094l-.954.624-.175 1.127-1.076 6.91-.46 2.961h2.996 50.804 1.634l.692-1.481 10.438-22.397 1.671-3.586-3.957-.064-7.332-.119-1.677-.026-.697 1.525c-2.313 5.058-4.474 6.602-9.245 6.602l-9.42.056c6.793-3.777 10.936-6.466 15.782-10.086l.02-.016.018-.015c7.981-6.2 11.737-11.773 12.962-19.239l.002-.015.002-.014c.887-5.781-.564-11.227-4.09-15.333-3.961-4.616-10.118-7.158-17.334-7.158m0 2.566c12.575 0 20.588 8.458 18.888 19.536-1.135 6.91-4.642 11.913-12.004 17.632-6.378 4.765-11.426 7.861-24.541 14.771l19.715-.119c5.824 0 8.856-2.145 11.577-8.101l7.334.121-10.438 22.394h-50.804l1.076-6.91c13.105-8.577 17.693-11.792 24.162-17.272 7.818-6.553 12.729-13.82 13.722-20.014.883-5.479-2.552-9.649-8.182-9.649-2.345 0-4.53.477-6.83 1.669-3.663 1.667-5.993 3.811-10.72 9.292l-3.978-4.527c2.206-2.861 4.199-5.124 6.042-7.148 6.64-7.148 16.286-11.675 24.981-11.675" fill="#434090"/><path d="m167.001 95.015h49.74l9.894-21.231-6.04-.099c-1.336 2.84-2.786 4.856-4.663 6.172-1.949 1.368-4.311 1.925-7.285 1.923l-19.715.119-.278-1.111c13.113-6.91 18.11-9.978 24.454-14.717 7.306-5.688 10.666-10.511 11.783-17.252.145-.966.218-1.909.218-2.824-.018-9.268-7.312-16.003-18.524-16.035-8.491-.006-18.022 4.451-24.545 11.482-1.752 1.929-3.639 4.065-5.711 6.728l3.209 3.652c4.437-5.111 6.828-7.272 10.452-8.917 2.377-1.236 4.675-1.736 7.102-1.734 2.647-.002 4.891.883 6.459 2.415 1.572 1.53 2.451 3.693 2.449 6.146 0 .575-.046 1.165-.145 1.77-1.042 6.42-6.041 13.755-13.924 20.371-6.454 5.468-11.063 8.703-24.001 17.171zm-1.377 1.179 1.182-7.589.04-.26.22-.143c13.107-8.579 17.657-11.77 24.108-17.232 7.751-6.487 12.568-13.685 13.518-19.653.087-.547.129-1.075.129-1.585-.03-4.336-2.965-7.349-7.729-7.381-2.268.002-4.338.451-6.588 1.612-3.556 1.623-5.787 3.665-10.517 9.141l-.441.514-4.745-5.4.296-.385c2.217-2.876 4.225-5.154 6.074-7.19 6.753-7.258 16.516-11.854 25.414-11.86 5.842-.002 10.769 1.79 14.24 4.852 3.471 3.06 5.467 7.395 5.463 12.36 0 .978-.079 1.98-.234 3.008-1.149 7.073-4.806 12.253-12.232 18.008-6.044 4.517-10.926 7.555-22.489 13.694l17.31-.104c2.844-.002 4.913-.52 6.614-1.71 1.702-1.191 3.088-3.114 4.429-6.047l.159-.351 8.626.142-10.978 23.559z" fill="#fff"/><path d="m121.632 20.77 4.012-8.307 1.486 6.799 11.379-6.194-7.577 9.429 7.412 2.945-8.656 1.585-.02 8.183-5.457-4.632-7.308 7.555 2.06-8.292-10.533 1.221 10.174-6.13-4.025-5.64z" fill="#fff"/><path d="m121.632 20.77.121-.579zm-3.629 15.376 6.167-6.376 4.911 4.169.018-7.404 7.12-1.304-6.247-2.482 6.233-7.756-9.485 5.164-1.288-5.9-3.268 6.769-.201.415-6.028-1.262 3.518 4.929-8.39 5.055 8.676-1.006zm.184-5.622-9.69 1.123-.371-1.089 9.627-5.801-4.529-6.349 8.077 1.689 4.554-9.428 1.681 7.7 10.691-5.819.739.887-7.075 8.806 8.583 3.409-10.198 1.866-.022 8.962-6.005-5.095-8.449 8.734z" fill="#fff"/><path d="m121.632 20.77.152-.728zm-3.344 14.857 5.866-6.065 4.772 4.046.018-7.201 6.719-1.231-5.943-2.361 5.882-7.323-8.99 4.899-1.238-5.669-3.074 6.37-.254.522-5.762-1.207 3.389 4.747-7.922 4.775 8.19-.954zm-.308-4.924-11.876 1.129 11.426-7.122-4.659-6.529 8.344 1.744 4.691-9.728 1.734 7.94 13.095-6.863-8.596 10.905 8.888 3.529-10.597 1.937-.021 9.17-6.152-5.221-8.747 9.042z" fill="#fff"/><path d="m119.389 33.642 4.727-4.888 4.223 3.584.016-6.422 5.183-.952-4.778-1.895 4.54-5.652-7.098 3.867-1.04-4.768-2.334 4.832-.454.937-4.731-.991 2.879 4.035-6.137 3.699 6.332-.738zm-2.778 5.009 7.606-7.863 5.604 4.755.02-8.39 9.059-1.655-7.712-3.066 7.374-9.354-11.334 5.938-1.534-7.025-3.886 8.057.308.062 3.469-7.184 1.434 6.57 8.301-4.52.742.885-5.382 6.701 7.11 2.823-8.257 1.512-.021 7.982-5.317-4.513-5.484 5.671-.423-.41.423.41-1.524 1.576 1.976-7.954-7.346.854-.373-1.088 7.378-4.449-3.894-5.456 6.787 1.423.052-.109.017-.032-.728-.153.03-.15-6.86-1.433 4.149 5.812-9.834 6.129 9.382-.893.829-.078zm.597-7.283-11.047 1.05-.369-1.086 10.893-6.791-5.17-7.245 9.369 1.956 5.232-10.849 1.935 8.853 12.41-6.504.737.886-8.107 10.283 10.067 3.999-12.142 2.217-.02 9.949-6.701-5.686-9.888 10.224z" fill="#fff"/><path d="m166.454 118.766v-40.199h-2.508c-5.743 2.046-7.197 2.507-13.204 3.894v3.233l3.566 1.584c.857.331 1.057.726 1.057 1.651v28.978c0 2.774-.133 3.63-.662 4.556-.33.528-.792.989-1.254 1.253-.725.397-1.253.462-2.576.528v3.697h20.201v-3.763c-3.433 0-4.62-1.451-4.62-5.412m49.326 1.848c-1.584 1.318-2.507 1.782-3.761 1.782-2.311 0-3.631-1.715-3.631-4.422 0-2.246.79-3.367 3.498-4.886l2.112-1.188c.99-.594 1.057-.659 1.782-1.187zm-32.526-22.642c2.774 0 4.356 2.509 4.623 7.657h-9.507c.395-5.148 1.913-7.657 4.884-7.657m81.397 20.663v-14.854c0-6.337-3.433-9.901-9.44-9.901-2.046 0-3.631.397-5.479 1.32-1.585.726-2.575 1.32-4.951 3.102v-4.025h-2.377c-5.743 1.848-7.195 2.243-13.138 3.695v3.235l3.567 1.52c.856.395.989.659.989 1.649v13.795c0 2.772-.066 3.366-.661 4.292-.328.528-.792.989-1.32 1.189-.436.276-.805.409-1.327.473l-.473-2.983c-1.057.593-1.454.728-1.913.728-.926 0-1.321-.728-1.321-2.179v-16.174c0-5.874-4.491-9.506-12.083-9.506-8.977 0-15.909 4.027-15.909 9.242 0 1.123.461 3.036 1.256 4.95l9.307-3.102c-.728-1.651-.99-2.443-.99-3.366 0-2.046 1.452-3.564 3.564-3.564 2.31 0 3.828 1.782 3.828 4.556v3.828c-1.254.792-1.782 1.056-3.3 1.715l-6.402 2.707c-5.675 2.449-7.83 4.58-8.191 8.383l-1.693-1.653c-1.848 1.653-2.707 2.246-4.159 2.841-1.123.33-2.245.528-3.302.528-5.743 0-9.638-4.62-10.166-11.881h20.07c-.53-5.612-1.389-7.922-3.961-10.693-2.641-2.973-6.404-4.556-10.499-4.556-9.109 0-15.709 7.592-15.709 17.89 0 9.899 6.269 16.764 15.314 16.764 4.754 0 9.31-1.846 12.346-5.148.538-.584 1.112-1.268 1.733-2.056.361 4.259 3.677 7.14 8.348 7.14 2.969 0 5.876-1.123 8.186-2.905.395-.33.924-.858 1.649-1.518 1.387 3.169 3.302 4.487 6.669 4.487 2.342 0 3.943-.532 6.487-2.243v1.584h20.203v-3.763c-3.433-.065-4.491-1.385-4.491-5.543v-16.174c1.717-1.518 3.499-2.377 5.017-2.377 2.379 0 3.566 1.454 3.566 4.356v23.501h15.712v-3.763c-3.433-.065-4.556-1.451-4.556-5.543m-163.499-52.739c-1.585 1.318-2.51 1.782-3.764 1.782-2.31 0-3.631-1.718-3.631-4.425 0-2.243.793-3.366 3.5-4.884l2.113-1.187c.989-.595 1.056-.661 1.782-1.187zm-6.405-15.513c-.725-1.651-.99-2.443-.99-3.366 0-2.048 1.452-3.566 3.567-3.566 2.31 0 3.828 1.782 3.828 4.556v3.827c-1.254.792-1.782 1.057-3.3 1.718l-6.405 2.705c-6.271 2.707-8.251 5.017-8.251 9.639 0 4.684 3.433 7.92 8.384 7.92 2.97 0 5.875-1.123 8.185-2.903.397-.333.925-.859 1.651-1.52 1.387 3.169 3.3 4.489 6.668 4.489 2.343 0 3.941-.532 6.489-2.245v1.584h20.399v-3.695c-3.564-.066-4.62-1.387-4.62-5.481v-24.488h-2.444c-5.809 1.848-7.196 2.245-13.204 3.696v3.236l3.566 1.518c.857.395.99.659.99 1.65v13.268c0 3.102-.066 3.828-.725 4.817-.331.528-.859.992-1.321 1.19-.463.229-.84.37-1.334.447l-.468-2.957c-1.056.595-1.453.728-1.915.728-.923 0-1.321-.728-1.321-2.179v-16.172c0-5.876-4.489-9.506-12.081-9.506-8.978 0-15.909 4.027-15.909 9.242 0 1.122.462 3.035 1.254 4.95zm54.06-6.932c2.707 0 5.15 2.641 5.15 5.678v14.785c-1.253 1.915-2.838 2.905-4.686 2.905-4.095 0-6.866-5.017-6.866-12.475 0-6.866 2.376-10.893 6.402-10.893m-4.62 30.431c2.707 0 5.348-.99 7.658-2.904.659-.462 1.387-1.057 2.046-1.782v4.62l15.514-1.849v-3.761h-.792c-2.838 0-3.631-.859-3.631-4.028v-40.332h-2.443c-5.743 2.046-7.197 2.508-13.202 3.895v3.235l3.498 1.584c.858.329 1.122.792 1.122 1.651v6.599c-2.64-1.253-3.763-1.584-5.876-1.584-9.11 0-15.778 8.252-15.778 19.341 0 9.308 4.689 15.315 11.884 15.315m-9.052 62.785c-2.548 2.264-5.943 3.489-9.339 3.489-11.6 0-18.861-11.6-18.861-30.177 0-17.915 6.884-29.139 17.73-29.139 6.13 0 12.073 3.866 14.901 9.809.754 1.602 1.51 3.582 2.359 6.035h6.414l-1.604-15.559c-11.13-4.246-15.563-5.282-22.258-5.282-20.372 0-35.65 15.842-35.65 36.684 0 15.088 7.356 26.027 20.844 31.213 4.148 1.51 8.204 2.359 12.071 2.359 8.866 0 13.958-1.508 26.5-7.545l1.133-15.467h-6.507c-2.733 7.827-4.433 10.563-7.733 13.58m-76.796-51.991v5.279h31.594v-5.279c-5.658-.095-7.64-1.981-8.204-7.262l-4.81-42.719c0-.472-.095-1.038-.095-1.51 0-4.148 1.792-5.658 6.79-5.753v-5.468h-23.201c0 7.732-.377 10.467-2.357 15.464l-10.375 27.349-11.033-31.215c-1.603-4.431-1.887-6.222-2.171-11.598h-22.822v5.468c4.905.095 6.791 1.415 6.791 4.904 0 .754-.094 1.415-.189 2.359l-5.661 41.021c-.941 6.884-2.826 8.865-8.958 8.96v5.279h21.975v-5.279c-5.848-.095-7.922-1.51-7.922-5.47 0-.472.094-1.131.284-1.792l4.525-34.987 13.11 36.117c1.602 4.622 1.981 6.414 2.83 11.696h6.602c1.226-6.32 1.885-8.771 3.11-11.885l13.581-35.833 3.302 34.892c.095.377.095.848.095 1.225 0 4.338-1.605 5.942-6.791 6.037" fill="#434090"/><path d="m149.27 67.408c-2.308.004-4.227-1.443-5.485-3.745-1.27-2.312-1.968-5.517-1.97-9.321.002-3.499.599-6.315 1.772-8.318 1.164-2.004 3-3.175 5.222-3.161v.589.588c-1.811.012-3.173.857-4.206 2.582-1.02 1.726-1.612 4.356-1.61 7.72-.002 3.657.687 6.689 1.826 8.753 1.151 2.068 2.665 3.13 4.451 3.134 1.579-.008 2.923-.79 4.098-2.495v-14.606c0-1.359-.55-2.645-1.407-3.58-.856-.937-1.995-1.51-3.152-1.508v-.588-.589c3.098.024 5.723 2.921 5.737 6.265v14.962l-.095.148c-1.31 2.017-3.096 3.17-5.161 3.17zm-49.612-9.713-2.113 1.189c-1.325.742-2.123 1.363-2.572 1.997-.45.635-.621 1.313-.627 2.373 0 1.262.31 2.229.82 2.856.51.625 1.212.97 2.222.978 1.032-.008 1.741-.317 3.173-1.472v-8.48c-.218.143-.484.309-.903.559m-2.27 10.572c-1.299.006-2.413-.506-3.141-1.417-.728-.907-1.079-2.151-1.079-3.596-.004-1.185.22-2.187.845-3.058.623-.867 1.572-1.562 2.953-2.34l2.099-1.181c.99-.595 1-.621 1.74-1.157l.935-.684v11.06.277l-.212.177c-1.58 1.328-2.697 1.919-4.108 1.919zm4.568.889c1.376 3.029 2.921 4.09 6.128 4.136 2.248-.012 3.643-.466 6.158-2.145l.92-.618v2.104h19.221v-2.54c-1.548-.097-2.724-.484-3.512-1.421-.86-1.05-1.104-2.538-1.11-4.626v-23.9h-1.762c-5.588 1.778-7.102 2.213-12.706 3.572v2.38l3.225 1.373c.45.21.831.427 1.076.838.236.416.25.835.254 1.347v13.267c0 1.556-.014 2.528-.12 3.286-.103.758-.339 1.322-.694 1.846-.405.633-.98 1.149-1.558 1.403-.488.246-.948.417-1.504.502l-.583.093-.431-2.719c-.603.294-1.012.407-1.462.405-.612.018-1.221-.303-1.513-.835-.301-.522-.392-1.157-.398-1.933v-16.172c-.006-2.789-1.04-4.958-2.969-6.494-1.931-1.534-4.816-2.423-8.521-2.423-4.401-.002-8.285.992-11.025 2.586-2.749 1.602-4.298 3.741-4.296 6.065-.006.889.359 2.534 1.006 4.217l8.173-2.725c-.547-1.286-.785-2.086-.785-3.01-.002-1.161.418-2.213 1.16-2.963.741-.752 1.796-1.193 2.995-1.189 1.306-.006 2.457.52 3.232 1.445.778.923 1.185 2.206 1.185 3.697v4.155l-.274.173c-1.264.8-1.863 1.098-3.387 1.759l-6.398 2.706c-3.105 1.338-5.088 2.566-6.264 3.944-1.171 1.377-1.624 2.919-1.632 5.152.026 4.375 3.104 7.299 7.795 7.334 2.82 0 5.608-1.073 7.807-2.77.361-.298.897-.832 1.633-1.502l.607-.55zm51.346 1.433c-.373.323-.746.609-1.099.859-2.399 1.981-5.172 3.023-8.017 3.023v-.588-.591c2.562 0 5.062-.931 7.281-2.767l.017-.015.022-.014c.631-.443 1.326-1.012 1.949-1.697l1.026-1.127v5.479l14.333-1.707v-2.649h-.202c-1.459-.002-2.566-.206-3.316-1.02-.727-.822-.899-1.975-.905-3.596v-39.744h-1.752c-5.511 1.966-7.112 2.476-12.714 3.774v2.387l3.121 1.415c.492.185.901.451 1.165.852.262.401.337.863.335 1.347v7.532l-.841-.399c-2.643-1.245-3.58-1.518-5.624-1.528-4.373.004-8.136 1.968-10.848 5.296-2.707 3.327-4.34 8.028-4.34 13.456.043 9.138 4.49 14.711 11.293 14.725v.591.588c-3.493.006-6.479-1.372-8.626-3.813v3.154h-21.578v-1.092c-2.11 1.294-3.759 1.761-5.898 1.751-3.25.043-5.445-1.296-6.862-4.096-.432.404-.782.74-1.097 1.004-2.405 1.853-5.425 3.024-8.545 3.026-2.603.002-4.856-.855-6.453-2.365-1.6-1.505-2.524-3.658-2.522-6.146-.006-2.386.53-4.309 1.917-5.92 1.381-1.608 3.524-2.888 6.695-4.259l6.398-2.705c1.401-.611 1.901-.852 2.946-1.502v-3.503c-.045-2.572-1.278-3.939-3.238-3.965-1.814.024-2.949 1.218-2.977 2.975 0 .793.215 1.48.941 3.129l-.538.238.538-.238.26.592-10.442 3.482-.21-.508c-.812-1.976-1.292-3.909-1.3-5.177.004-2.888 1.921-5.37 4.883-7.085 2.971-1.723 7.041-2.743 11.617-2.745 3.887 0 7.043.927 9.255 2.677 2.213 1.747 3.423 4.331 3.415 7.419v16.172c-.002.674.105 1.129.232 1.335.137.193.189.235.499.254.313-.002.569-.061 1.627-.651l.738-.416.5 3.163c.19-.065.383-.149.621-.266.314-.129.794-.536 1.06-.974.297-.451.424-.743.518-1.374.091-.627.111-1.573.111-3.119v-13.267c.002-.478-.048-.685-.092-.75-.035-.066-.15-.179-.539-.359l-3.925-1.671v-4.088l.452-.108c6.005-1.452 7.352-1.837 13.162-3.685l.088-.028h3.123v25.079c-.006 2.006.28 3.223.836 3.872.46.555 1.208.879 2.492.984-1.657-2.689-2.554-6.214-2.554-10.335 0-5.662 1.701-10.63 4.606-14.2 2.899-3.572 7.023-5.733 11.761-5.729 1.937-.01 3.185.294 5.287 1.246v-5.674c-.002-.375-.06-.575-.143-.7-.082-.127-.236-.258-.633-.415l-3.846-1.74v-4.083l.458-.105c6.003-1.387 7.39-1.83 13.137-3.876l.095-.035h3.135v40.923c-.007 1.548.219 2.407.598 2.806.355.407 1.065.633 2.443.631h1.381v4.876l-16.691 1.987zm-108.746 19.061c1.169-5.973 1.838-8.44 3.046-11.504l13.581-35.833 1.139.153 3.295 34.853c.107.47.099.952.101 1.321.002 2.223-.409 3.916-1.643 5.043-1.143 1.032-2.81 1.463-5.146 1.564v4.118h30.413v-4.118c-2.582-.103-4.471-.619-5.815-1.82-1.44-1.296-2.097-3.257-2.385-5.946l-4.814-42.751v-.035c.004-.401-.091-.967-.095-1.509-.004-2.143.472-3.784 1.732-4.848 1.159-.97 2.81-1.377 5.06-1.476v-4.309h-22.022c-.014 7.293-.443 10.177-2.397 15.085l-10.946 28.853-11.567-32.729c-1.56-4.295-1.903-6.253-2.173-11.209h-21.677v4.309c2.204.091 3.826.446 4.99 1.27 1.276.905 1.816 2.369 1.802 4.205 0 .806-.099 1.488-.196 2.437l-5.658 41.022c-.48 3.477-1.188 5.823-2.7 7.361-1.429 1.437-3.447 1.989-6.253 2.092v4.118h20.796v-4.118c-2.661-.088-4.562-.463-5.901-1.372-1.447-.988-2.036-2.609-2.022-4.671 0-.536.099-1.211.293-1.907l4.521-34.948 1.139-.125 13.112 36.125c1.56 4.488 1.981 6.392 2.775 11.299zm-6.62 1.177-.079-.494c-.851-5.285-1.208-6.989-2.802-11.586l-12.281-33.838-4.221 32.622-.012.044c-.178.609-.262 1.232-.262 1.631.016 1.895.463 2.963 1.514 3.699 1.066.744 2.947 1.141 5.83 1.181l.578.01v6.449h-23.152v-6.451l.58-.008c3.02-.048 4.83-.558 6.016-1.76 1.199-1.197 1.907-3.283 2.368-6.69l5.657-41.001c.097-.957.187-1.596.185-2.298-.012-1.655-.415-2.594-1.31-3.245-.905-.661-2.496-1.028-4.9-1.069l-.579-.012v-6.637h23.971l.03.558c.288 5.378.546 7.019 2.137 11.433l10.496 29.699 9.808-25.853c1.953-4.951 2.31-7.513 2.316-15.247v-.59h24.38v6.637l-.577.012c-2.451.041-4.013.452-4.902 1.214-.887.752-1.309 1.941-1.313 3.949-.002.389.087.937.093 1.469l4.808 42.695c.278 2.588.893 4.211 2.002 5.2 1.102.998 2.852 1.49 5.628 1.536l.579.01v6.449h-32.772v-5.868-.581l.578-.01c2.544-.042 4.092-.478 4.955-1.274.865-.78 1.254-2.06 1.256-4.172.004-.375-.006-.815-.077-1.083l-.01-.042-3.066-32.412-12.686 33.468c-1.207 3.076-1.854 5.465-3.08 11.78l-.093.476zm139.794 15.392.051-.635c.205-2.623.683-4.618 1.566-6.029.873-1.415 2.254-2.189 3.907-2.173v.59.589c-1.317.018-2.179.498-2.909 1.623-.657 1.036-1.113 2.656-1.333 4.857h8.235c-.167-2.203-.607-3.827-1.246-4.863-.705-1.129-1.544-1.601-2.747-1.617v-.589-.59c1.57-.014 2.911.768 3.755 2.181.855 1.409 1.319 3.406 1.456 6.037l.032.619zm36.558 6.194-2.115 1.189c-1.324.742-2.122 1.365-2.572 2-.447.633-.621 1.31-.625 2.372 0 1.258.309 2.228.819 2.854.512.625 1.211.972 2.223.978 1.032-.008 1.74-.314 3.173-1.471v-8.48c-.219.145-.484.308-.903.558m-2.27 10.572c-1.3.008-2.415-.506-3.14-1.415-.73-.907-1.079-2.151-1.081-3.596-.004-1.185.22-2.189.845-3.058.623-.866 1.574-1.566 2.955-2.342l2.098-1.179c.988-.595.998-.623 1.738-1.161l.938-.681v11.062.276l-.214.175c-1.581 1.331-2.695 1.919-4.106 1.919zm-60.555 4.366h19.022v-2.598c-1.5-.079-2.671-.486-3.459-1.415-.875-1.048-1.159-2.542-1.161-4.574l-.002-39.61h-1.814c-5.516 1.967-7.112 2.475-12.719 3.773v2.383l3.19 1.419c.477.181.886.431 1.138.844.25.412.293.859.295 1.357v28.978c.004 2.759-.129 3.783-.75 4.868-.383.604-.893 1.122-1.472 1.459-.697.385-1.304.502-2.268.568zm-1.179 1.179v-4.847l.561-.027c1.334-.072 1.693-.12 2.312-.451.355-.2.768-.605 1.034-1.034.449-.788.58-1.48.584-4.263v-28.978c0-.427-.054-.641-.12-.742-.063-.099-.182-.213-.587-.373l-3.915-1.737v-4.088l.456-.103c6.005-1.389 7.39-1.83 13.137-3.876l.097-.036h3.199v40.789c-.004 1.931.307 3.143.885 3.812.562.667 1.496 1.008 3.149 1.014h.589v4.94zm38.449-8.044c.974 0 2.032-.182 3.102-.494 1.375-.569 2.129-1.089 3.966-2.723l.409-.367 1.266 1.233c.316-1.489.984-2.771 2.092-3.89 1.385-1.403 3.407-2.57 6.28-3.812l6.398-2.705c1.401-.61 1.899-.85 2.945-1.501v-3.502c-.046-2.574-1.28-3.938-3.239-3.964-1.815.022-2.952 1.215-2.976 2.975 0 .79.216 1.477.942 3.128l.26.593-10.444 3.477-.21-.504c-.202-.492-.383-.98-.542-1.456.09.67.171 1.387.241 2.165l.061.645h-20.072c.716 6.711 4.31 10.69 9.521 10.702m-19.677-8.652c.034 9.654 6.009 16.154 14.726 16.178 4.602 0 9.003-1.794 11.912-4.958.524-.571 1.088-1.244 1.703-2.024l.591-.75-1.815-1.768c-1.588 1.395-2.517 2.012-3.916 2.58l-.029.013-.028.008c-1.163.342-2.336.552-3.467.552-6.112.014-10.251-4.999-10.755-12.427l-.046-.633h20.052c-.543-5.112-1.357-7.111-3.75-9.713-2.524-2.839-6.114-4.354-10.055-4.358-8.749.01-15.099 7.246-15.123 17.3m47.53 12.042c1.375 3.028 2.917 4.088 6.128 4.136 2.244-.014 3.641-.465 6.157-2.144l.919-.621-.002 2.104h19.024v-2.606c-1.488-.099-2.639-.492-3.401-1.433-.84-1.058-1.082-2.558-1.088-4.679v-16.44l.199-.175c1.786-1.57 3.665-2.516 5.407-2.524 1.3-.006 2.411.419 3.13 1.306.718.883 1.024 2.113 1.024 3.641v22.91h14.535v-2.608c-1.496-.101-2.657-.51-3.433-1.453-.855-1.061-1.119-2.564-1.123-4.657v-14.851c-.002-3.068-.826-5.376-2.304-6.922-1.478-1.542-3.655-2.387-6.546-2.391-1.971.004-3.425.367-5.235 1.266-1.552.714-2.469 1.262-4.842 3.038l-.943.707v-4.614h-1.696c-5.525 1.778-7.098 2.213-12.641 3.57v2.381l3.223 1.374c.452.208.833.426 1.079.839.235.413.252.832.254 1.346v13.796c0 1.391-.015 2.245-.113 2.925-.095.677-.317 1.187-.637 1.679-.369.582-.875 1.12-1.549 1.4-.473.297-.959.468-1.526.533l-.566.07-.431-2.727c-.605.296-1.012.407-1.462.405-.615.02-1.222-.302-1.514-.834-.302-.522-.393-1.155-.397-1.931v-16.174c-.008-2.79-1.042-4.957-2.969-6.495-1.934-1.534-4.818-2.423-8.521-2.423-4.401-.002-8.29.992-11.027 2.586-2.75 1.601-4.298 3.741-4.296 6.065-.004.891.361 2.534 1.008 4.217l8.17-2.723c-.546-1.288-.784-2.088-.784-3.009 0-1.163.417-2.214 1.159-2.965.742-.752 1.798-1.192 2.996-1.19 1.306-.006 2.457.52 3.231 1.446.778.925 1.188 2.207 1.188 3.698v4.155l-.277.173c-1.264.8-1.86 1.099-3.386 1.76l-6.399 2.705c-2.806 1.209-4.699 2.33-5.9 3.556-1.198 1.225-1.758 2.535-1.935 4.341l-.101 1.067.074.862c.357 3.959 3.335 6.574 7.762 6.602 2.82.002 5.608-1.073 7.807-2.768.361-.3.897-.834 1.633-1.501l.607-.553zm-.736 1.22c-.429.401-.78.737-1.096 1.001-2.403 1.855-5.425 3.026-8.545 3.028-4.413.024-7.812-2.509-8.723-6.329-.319.379-.625.731-.923 1.056-3.165 3.437-7.876 5.336-12.781 5.338-4.671.004-8.676-1.784-11.485-4.862-2.812-3.076-4.42-7.42-4.42-12.494 0-5.273 1.693-9.889 4.586-13.194 2.891-3.304 6.995-5.288 11.716-5.284 4.243-.002 8.18 1.649 10.928 4.743 1.522 1.625 2.482 3.159 3.119 5.227v-.075c.002-2.888 1.919-5.369 4.88-7.085 2.971-1.723 7.042-2.743 11.62-2.745 3.886 0 7.041.927 9.252 2.677 2.214 1.747 3.425 4.332 3.417 7.42v16.174c-.004.671.105 1.126.232 1.332.135.193.188.236.5.256.311-.002.567-.06 1.625-.653l.736-.415.51 3.205c.171-.059.328-.141.526-.264l.052-.033.059-.022c.35-.127.748-.494 1.03-.953.27-.43.381-.68.468-1.222.08-.542.1-1.37.1-2.751v-13.796c.002-.477-.046-.687-.092-.75-.035-.066-.15-.179-.541-.358l-3.923-1.673v-4.086l.45-.109c5.945-1.453 7.354-1.836 13.095-3.685l.087-.028h3.062v3.447c1.75-1.274 2.727-1.836 4.096-2.461 1.905-.958 3.623-1.387 5.745-1.383 3.113-.002 5.657.933 7.399 2.755 1.739 1.823 2.63 4.465 2.628 7.737v14.851c-.004 2.002.295 3.236.859 3.911.546.669 1.464 1.008 3.121 1.046l.576.01v4.93h-16.889v-24.089c0-1.377-.288-2.324-.76-2.895-.467-.564-1.139-.864-2.217-.873-1.24-.008-2.845.706-4.427 2.054v15.906c-.006 2.04.28 3.28.826 3.937.527.657 1.424.982 3.085 1.02l.578.01v4.93h-21.38v-1.09c-2.111 1.292-3.762 1.76-5.897 1.75-.05.002-.098.002-.149.002-3.169 0-5.32-1.339-6.715-4.096m-126.433-12.57c.022 14.896 7.186 25.533 20.455 30.661 4.1 1.491 8.09 2.322 11.869 2.322 8.713-.01 13.618-1.433 25.939-7.339l1.06-14.493h-5.455c-2.651 7.542-4.433 10.403-7.753 13.424l-.397-.433.391.439c-2.663 2.367-6.193 3.639-9.729 3.639-6.005.01-10.944-3.04-14.28-8.4-3.348-5.356-5.169-13.001-5.171-22.366.002-9.034 1.728-16.416 4.883-21.596 3.144-5.179 7.799-8.144 13.435-8.134 6.381.006 12.507 4.006 15.436 10.147.728 1.546 1.447 3.417 2.244 5.697h5.34l-1.5-14.55c-10.878-4.13-15.153-5.107-21.705-5.111-20.052.012-35.046 15.545-35.062 36.093m32.324 34.162c-3.953 0-8.073-.867-12.282-2.399-13.694-5.243-21.244-16.482-21.221-31.763 0-10.565 3.876-19.889 10.351-26.567 6.473-6.68 15.549-10.708 25.89-10.706 6.769-.006 11.335 1.071 22.465 5.32l.339.129 1.709 16.571h-7.489l-.137-.397c-.845-2.443-1.595-4.407-2.332-5.975-2.732-5.744-8.489-9.478-14.37-9.472-5.209.009-9.418 2.655-12.427 7.569-3 4.911-4.716 12.097-4.712 20.982-.004 9.212 1.805 16.656 4.99 21.741 3.195 5.086 7.686 7.837 13.282 7.847 3.254 0 6.518-1.181 8.945-3.342h.002c3.219-2.957 4.83-5.523 7.565-13.333l.139-.396h7.56l-1.201 16.438-.309.15c-12.504 6.027-17.782 7.603-26.682 7.603z" fill="#fff"/><path d="m122.035 21.549 3.185-6.591 1.177 5.396 9.029-4.916-6.011 7.482 5.88 2.338-6.866 1.256-.018 6.494-4.33-3.674-5.8 5.995 1.635-6.582-8.36.97 8.076-4.864-3.196-4.475z" fill="#fff"/><path d="m122.035 21.549.118-.577zm-2.653 11.791 4.654-4.813 3.786 3.211.016-5.715 5.33-.977-4.715-1.873 4.669-5.811-7.136 3.886-.982-4.499-2.439 5.056-.202.415-4.572-.96 2.687 3.768-6.285 3.789 6.501-.756zm-.244-3.908-9.426.895 9.069-5.65-3.699-5.182 6.62 1.382 3.723-7.718 1.377 6.301 10.392-5.446-6.822 8.653 7.054 2.802-8.411 1.536-.016 7.279-4.88-4.144-6.943 7.175z" fill="#434090"/><path d="m122.035 21.549.118-.577zm-2.653 11.791 4.654-4.813 3.786 3.211.016-5.715 5.33-.977-4.715-1.873 4.669-5.811-7.136 3.886-.982-4.499-2.439 5.056-.202.415-4.572-.96 2.687 3.768-6.285 3.789 6.501-.756zm-.244-3.908-9.426.895 9.069-5.65-3.699-5.182 6.62 1.382 3.723-7.718 1.377 6.301 10.392-5.446-6.822 8.653 7.054 2.802-8.411 1.536-.016 7.279-4.88-4.144-6.943 7.175z" fill="none" stroke="#434090" stroke-linecap="round" stroke-linejoin="round" stroke-width="2.908"/></svg>