<svg height="108" viewBox="0 0 512 108" width="512" xmlns="http://www.w3.org/2000/svg"><g><path d="m208.901 27.01c6.008 2.183 10.769 6.867 13.043 12.833 1.293 3.272 1.902 6.855 1.843 10.38v34.965h-15.069v-32.199c0-4.337-1.04-7.673-3.061-9.998-2.021-2.33-5.142-3.525-9.372-3.525-3.691-.072-7.211 1.551-9.551 4.402-2.576 2.96-3.799 6.855-3.799 11.763v29.498h-15.128v-32.14c0-4.337-1.041-7.673-3.062-9.998-2.021-2.33-5.141-3.525-9.366-3.525-3.693-.073-7.216 1.549-9.556 4.402-2.571 2.96-3.8 6.855-3.8 11.763v29.498h-15.063v-58.243h15.063v4.407c1.921-1.839 4.191-3.274 6.678-4.219 3.039-1.205 6.286-1.803 9.556-1.759 4.077-.073 8.13.632 11.943 2.077 3.368 1.383 6.305 3.712 8.386 6.726 2.209-2.701 4.904-4.843 8.025-6.285 3.427-1.701 7.534-2.583 12.309-2.583 3.369 0 6.796.63 9.981 1.765zm65.165.635c3.664 1.458 6.997 3.639 9.798 6.414 2.759 2.765 4.958 6.102 6.435 9.75 1.59 3.896 2.387 8.05 2.322 12.263.066 4.182-.724 8.333-2.322 12.199-1.496 3.614-3.682 6.904-6.435 9.685-2.801 2.777-6.133 4.96-9.798 6.42-7.874 3.081-16.622 3.081-24.496 0-3.665-1.46-6.997-3.643-9.798-6.42-2.773-2.765-4.961-6.059-6.435-9.685-1.592-3.868-2.383-8.018-2.323-12.199-.061-4.204.729-8.377 2.323-12.269 1.475-3.644 3.664-6.957 6.441-9.744 2.8-2.775 6.133-4.956 9.798-6.414 7.873-3.082 16.621-3.082 24.495 0zm-18.497 13.14c-1.833.812-3.552 1.948-5.018 3.39-1.45 1.506-2.594 3.278-3.368 5.219-.803 2.155-1.219 4.433-1.229 6.732 0 2.265.372 4.531 1.229 6.672.733 1.948 1.897 3.708 3.368 5.155 2.974 2.989 7.018 4.669 11.237 4.669s8.264-1.68 11.237-4.669c1.463-1.473 2.61-3.229 3.369-5.16.797-2.136 1.223-4.402 1.223-6.667 0-2.325-.366-4.59-1.223-6.726-.751-1.953-1.898-3.73-3.369-5.22-4.6-4.543-11.484-5.881-17.456-3.395zm61.979 44.468-26.209-58.297h16.599l16.961 37.548 16.966-37.613h16.045l-26.215 58.303zm41.65-40.626c1.273-3.596 3.205-6.924 5.696-9.815 2.537-2.888 5.643-5.222 9.125-6.855 3.838-1.76 8.021-2.643 12.245-2.583 3.126 0 6.305.506 9.248 1.576 2.759.942 5.271 2.454 7.351 4.531v-4.531h15.064v58.303h-15.064v-4.402c-2.058 2.053-4.579 3.585-7.351 4.467-7.039 2.39-14.727 2.007-21.493-1.071-3.485-1.6-6.593-3.914-9.125-6.791-2.503-2.858-4.436-6.168-5.696-9.75-2.634-7.47-2.634-15.614 0-23.085zm14.206 17.795c.733 1.953 1.779 3.712 3.126 5.284 1.348 1.506 2.937 2.766 4.775 3.583 1.962.883 4.042 1.324 6.123 1.324 2.021 0 3.983-.377 5.88-1.071 1.9-.682 3.649-1.73 5.147-3.083 1.589-1.383 2.818-3.142 3.675-5.09.965-2.288 1.425-4.757 1.348-7.238.051-2.477-.407-4.939-1.348-7.232-.87-1.944-2.12-3.697-3.675-5.155-1.485-1.386-3.236-2.456-5.147-3.148-1.863-.692-3.833-1.053-5.821-1.065-2.121-.019-4.216.455-6.122 1.383-1.833.882-3.487 2.136-4.835 3.648-4.166 4.908-5.389 11.822-3.126 17.865zm76.186 22.831-26.209-58.297h16.599l16.961 37.548 16.966-37.613h16.045l-26.215 58.303zm62.103-84.653v16.853h-16.476v-16.853zm-.733 84.653h-15.075v-58.367h15.069v58.367z"/><path d="m67.002 25.567c0 10.143-8.006 18.366-17.882 18.366s-17.883-8.223-17.883-18.366c0-10.142 8.007-18.365 17.883-18.365s17.882 8.223 17.882 18.365z"/><path d="m67.002 88.966c0 10.143-8.006 18.365-17.882 18.365s-17.883-8.222-17.883-18.365 8.007-18.365 17.883-18.365 17.882 8.222 17.882 18.365z"/><path d="m97.867 57.267c0 10.142-8.006 18.365-17.882 18.365s-17.882-8.223-17.882-18.365c0-10.143 8.006-18.366 17.882-18.366s17.882 8.223 17.882 18.366z"/><path d="m36.131 57.267c0 10.142-8.006 18.365-17.882 18.365s-17.883-8.223-17.883-18.365c0-10.143 8.007-18.366 17.883-18.366s17.882 8.223 17.882 18.366z"/></g></svg>