<svg fill="none" height="27.269699" viewBox="0 0 200 27.269699" width="200" xmlns="http://www.w3.org/2000/svg"><path clip-rule="evenodd" d="m51.6437 0h3.8272s-3.5602 7.68771-6.9626 14.07c-3.0941 5.8035-6.798 11.9669-7.4442 13.0369-.0618.1021-.1714.1627-.2906.1627h-3.3194c-.1536 0-.2881-.1025-.3291-.2505l-3.5246-12.7669-7.1037 12.8413c-.0601.1087-.1745.1762-.2987.1762h-3.3097c-.1537 0-.2885-.1028-.3292-.2511l-6.2478-22.76968c-.0794-.28937-.4626-.34427-.6143-.08539-.8724 1.48909-3.0902 5.34904-5.97858 10.92187-3.29855 6.3642-5.16413 10.9413-5.57163 11.9671-.05216.1313-.17855.2172-.31979.2172h-3.827s3.55979-7.6877 6.96246-14.07c3.09414-5.80358 6.79794-11.96695 7.44414-13.036919.0617-.1020964.1713-.16273609.2906-.16273609h3.3193c.1536 0 .2883.10252609.3291.25054709l3.5246 12.766908 7.1037-12.841359c.0602-.1086846.1746-.176141.2988-.176141h3.3097c.1537 0 .2885.102785.3292.251062l6.2478 22.769638c.0795.2894.4626.3443.6142.0854.8726-1.4891 3.0903-5.349 5.9786-10.9218 3.2986-6.36426 5.164-10.94138 5.5717-11.967139.0522-.1312553.1785-.217161.3198-.217161zm-20.7523 4.43942 1.4774 5.3515-.0219.04011-.0005-.00174-7.1384 13.07371c-.1471.2693-.5471.223-.6287-.0728l-1.4777-5.3525.0218-.0401.0009.0028 7.1384-13.07377c.147-.26929.5471-.223.6287.07279zm165.7906 17.03518c.59.5735 1.59.8766 2.999.9093l.319-1.9168c-.36-.0492-.664-.1065-.909-.1721-.246-.0819-.443-.1966-.59-.344-.148-.1475-.254-.3441-.32-.5898-.065-.2458-.098-.5571-.098-.9339v-15.35946l-2.285.3932v15.33486c0 1.2124.295 2.1053.884 2.6787zm-27.493.6636h-2.285v-12.77912h2.285zm-1.155-15.08919c-.409 0-.762-.13106-1.057-.3932-.278-.27852-.417-.64714-.417-1.10588s.139-.81917.417-1.08131c.295-.27852.648-.41778 1.057-.41778.41 0 .754.13926 1.032.41778.295.26214.443.62257.443 1.08131s-.148.82736-.443 1.10588c-.278.26214-.622.3932-1.032.3932zm-39.478 14.86799c.983.3932 2.072.5898 3.268.5898.688 0 1.327-.041 1.917-.1229s1.106-.1802 1.548-.2949.811-.2293 1.106-.344c.295-.1311.5-.2376.614-.3195l-.614-1.966c-.36.1802-.901.385-1.622.6144-.721.2293-1.63.344-2.728.344-.95 0-1.786-.1638-2.506-.4915-.705-.3277-1.295-.7864-1.77-1.3762-.475-.6062-.835-1.3271-1.081-2.1626-.23-.8356-.344-1.7612-.344-2.777 0-1.0486.131-1.9906.393-2.8262.278-.8519.672-1.57277 1.18-2.16257.507-.58981 1.122-1.04035 1.843-1.35164.721-.31128 1.532-.46693 2.433-.46693.426 0 .843.04096 1.253.12288.426.06553.811.15564 1.155.27033.36.11468.68.22936.958.34405.279.11468.492.22117.639.31947l.689-1.96601c-.099-.06553-.279-.16383-.541-.2949s-.606-.26214-1.032-.3932c-.41-.13107-.901-.24576-1.475-.34406-.557-.0983-1.188-.14745-1.892-.14745-1.114 0-2.163.1966-3.146.58981-.983.3932-1.843.96662-2.58 1.72026s-1.327 1.6875-1.77 2.80157c-.425 1.09769-.638 2.35919-.638 3.78459 0 1.4253.188 2.6951.565 3.8091.393 1.0977.942 2.0234 1.646 2.777.705.7537 1.549 1.3271 2.532 1.7203zm-57.458-3.6371c.2785.6062.4997 1.1059.6635 1.4991h1.9169c.1638-.3932.3768-.8929.639-1.4991.2785-.6062.5734-1.2616.8847-1.966.3113-.7045.6389-1.4254.983-2.1627.3604-.7536.6963-1.4581 1.0075-2.1134.3113-.6717.598-1.2697.8602-1.794.2785-.52428.4997-.92568.6635-1.2042.1802 1.9333.3277 4.0303.4424 6.2912.1147 2.2446.213 4.5137.2949 6.8074h2.3346c-.2785-5.8653-.6963-11.5422-1.2533-17.03062h-2.0889c-.4424.72087-.9175 1.57281-1.4254 2.55581-.5079.98301-1.0157 2.01517-1.5236 3.09651-.5079 1.0649-.9994 2.138-1.4745 3.2193-.4752 1.0649-.9093 2.0398-1.3025 2.9245-.3932-.8847-.8274-1.8596-1.3025-2.9245-.4751-1.0813-.9666-2.1544-1.4745-3.2193-.5079-1.08134-1.0158-2.1135-1.5237-3.09651-.5079-.983-.983-1.83494-1.4253-2.55581h-2.0889c-.1475 1.22875-.2867 2.53124-.4178 3.90745-.1147 1.37617-.2294 2.79337-.3441 4.25147-.0983 1.4418-.1884 2.9163-.2703 4.4236-.0819 1.4909-.1556 2.9736-.2212 4.4481h2.3347c.0819-2.2937.1802-4.5628.2949-6.8074.1147-2.2609.2621-4.3579.4423-6.2912.1639.27852.3768.67992.639 1.2042.2785.5243.5734 1.1223.8847 1.794.3113.6553.6389 1.3598.983 2.1134.3604.7373.6963 1.4582 1.0076 2.1627.3113.7044.598 1.3598.8601 1.966zm25.1181.2211c.2949-.8191.4424-1.7366.4424-2.7524 0-.9994-.1475-1.9086-.4424-2.7278-.2949-.8356-.7126-1.5483-1.2533-2.1381-.5243-.5898-1.155-1.04031-1.8923-1.35159-.7372-.32767-1.54-.49151-2.4083-.49151-.8684 0-1.6712.16384-2.4084.49151-.7373.31128-1.3762.76179-1.9169 1.35159-.5242.5898-.9338 1.3025-1.2287 2.1381-.2949.8192-.4424 1.7284-.4424 2.7278 0 1.0158.1475 1.9333.4424 2.7524.2949.8192.7045 1.5237 1.2287 2.1135.5407.5898 1.1796 1.0486 1.9169 1.3762.7372.3113 1.54.467 2.4084.467.8683 0 1.6711-.1557 2.4083-.467.7373-.3276 1.368-.7864 1.8923-1.3762.5407-.5898.9584-1.2943 1.2533-2.1135zm-2.9244-6.1683c.6553.8355.983 1.9742.983 3.4159 0 1.4418-.3277 2.5886-.983 3.4406-.639.8355-1.5155 1.2533-2.6295 1.2533-1.1141 0-1.9988-.4178-2.6542-1.2533-.6389-.852-.9584-1.9988-.9584-3.4406 0-1.4417.3195-2.5804.9584-3.4159.6554-.852 1.5401-1.2779 2.6542-1.2779 1.114 0 1.9905.4259 2.6295 1.2779zm16.7143 9.8055c-.458-1.1796-.95-2.5231-1.474-4.0304-.508-1.5236-.975-3.1046-1.401-4.743-.426 1.6384-.893 3.2194-1.401 4.743-.508 1.5073-.991 2.8508-1.45 4.0304h-1.99c-.754-1.6875-1.491-3.6126-2.212-5.7752-.7208-2.1626-1.4007-4.4973-2.0396-7.00392h2.4576c.164.77002.36 1.60562.59 2.50662.229.9011.467 1.8022.712 2.7033.262.9011.533 1.7694.811 2.605.279.8355.541 1.5646.787 2.1872.278-.77.549-1.581.811-2.433.278-.8683.54-1.7366.786-2.6049.246-.8847.475-1.7449.688-2.5804.23-.852.426-1.6466.59-2.38382h1.892c.148.73722.328 1.53182.541 2.38382.213.8355.442 1.6957.688 2.5804.246.8683.5 1.7366.762 2.6049.278.852.557 1.663.835 2.433.246-.6226.5-1.3517.762-2.1872.279-.8356.549-1.7039.811-2.605s.508-1.8022.738-2.7033c.229-.901.426-1.7366.589-2.50662h2.36c-.639 2.50662-1.319 4.84132-2.04 7.00392s-1.458 4.0877-2.212 5.7752zm33.912-1.6466c.541 0 1.016-.0082 1.425-.0245.426-.0328.778-.082 1.057-.1475v-3.8091c-.164-.082-.434-.1475-.811-.1966-.36-.0656-.803-.0983-1.327-.0983-.344 0-.713.0245-1.106.0737-.377.0491-.729.1556-1.057.3195-.311.1474-.573.3604-.786.6389-.213.2621-.32.6144-.32 1.0567 0 .8192.263 1.3926.787 1.7203.524.3113 1.237.4669 2.138.4669zm-.197-11.452c.918 0 1.688.12288 2.31.36863.639.22937 1.147.56523 1.524 1.00757.393.426.672.9421.836 1.5482.163.5899.245 1.2452.245 1.9661v7.9869c-.196.0328-.475.0819-.835.1474-.344.0492-.737.0983-1.18.1475-.442.0491-.925.0901-1.45.1229-.508.0491-1.016.0737-1.523.0737-.721 0-1.385-.0737-1.991-.2212-.606-.1474-1.13-.3768-1.573-.6881-.442-.3277-.786-.7536-1.032-1.2779s-.369-1.155-.369-1.8923c0-.7045.14-1.3107.418-1.8185.295-.5079.688-.9175 1.18-1.2288.491-.3113 1.065-.5407 1.72-.6881.655-.1475 1.343-.2212 2.064-.2212.23 0 .467.0164.713.0492.246.0164.475.0491.688.0983.23.0327.426.0655.59.0983.164.0327.278.0573.344.0737v-.639c0-.3768-.041-.7454-.123-1.1058-.082-.3769-.229-.7045-.442-.9831-.213-.2949-.508-.5242-.885-.6881-.36-.1802-.835-.2703-1.425-.2703-.754 0-1.417.0574-1.991.172-.557.0983-.975.2048-1.253.3195l-.271-1.89227c.295-.13106.787-.25394 1.475-.36862.688-.13107 1.434-.19661 2.236-.19661zm16.477 3.2931c.737.8028 1.106 1.9496 1.106 3.4405 0 .6553-.066 1.2697-.197 1.8431-.131.5571-.344 1.0486-.639 1.4746-.295.4095-.68.7372-1.155.983-.458.2293-1.015.344-1.671.344-.622 0-1.196-.1065-1.72-.3195s-.926-.4341-1.204-.6635v-8.0607c.229-.0655.532-.1228.909-.172.393-.0491.934-.0737 1.622-.0737 1.229 0 2.212.4014 2.949 1.2042zm3.096 6.1192c.263-.8192.394-1.7121.394-2.6787 0-1.0322-.156-1.9578-.467-2.777-.295-.8355-.721-1.54-1.278-2.1135-.557-.5734-1.229-1.01573-2.015-1.32702-.787-.31128-1.671-.46693-2.654-.46693-1.065 0-2.007.08192-2.827.24576-.802.14745-1.474.28671-2.015.41777v16.93232h2.286v-5.1117c.278.1803.696.3687 1.253.5653.573.1966 1.229.2949 1.966.2949.918 0 1.729-.1639 2.433-.4915.721-.3277 1.327-.7864 1.819-1.3762.491-.5898.86-1.2943 1.105-2.1135zm16.805-9.09282h-4.841v-3.9566l-2.286.3932v11.40292c0 .8519.066 1.6055.197 2.2609.147.6389.393 1.1796.737 1.6219.344.4424.795.7783 1.352 1.0076.573.213 1.294.3195 2.162.3195.737 0 1.393-.0901 1.966-.2703.574-.1639.975-.3031 1.204-.4178l-.442-1.8923c-.164.0655-.459.1802-.885.3441-.409.1474-.958.2211-1.646.2211-.393 0-.737-.0491-1.032-.1474s-.541-.2622-.738-.4915c-.196-.2458-.344-.5734-.442-.983-.098-.426-.147-.9585-.147-1.5974v-5.8981h4.841zm7.233 11.13252c.541 0 1.016-.0082 1.426-.0245.426-.0328.778-.082 1.057-.1475v-3.8091c-.164-.082-.435-.1475-.811-.1966-.361-.0656-.803-.0983-1.327-.0983-.345 0-.713.0245-1.106.0737-.377.0491-.729.1556-1.057.3195-.311.1474-.574.3604-.787.6389-.212.2621-.319.6144-.319 1.0567 0 .8192.262 1.3926.786 1.7203.525.3113 1.237.4669 2.138.4669zm-.196-11.452c.917 0 1.687.12288 2.31.36863.639.22937 1.147.56523 1.524 1.00757.393.426.671.9421.835 1.5482.164.5899.246 1.2452.246 1.9661v7.9869c-.197.0328-.475.0819-.836.1474-.344.0492-.737.0983-1.179.1475-.443.0491-.926.0901-1.45.1229-.508.0491-1.016.0737-1.524.0737-.721 0-1.384-.0737-1.99-.2212-.607-.1474-1.131-.3768-1.573-.6881-.443-.3277-.787-.7536-1.032-1.2779-.246-.5243-.369-1.155-.369-1.8923 0-.7045.139-1.3107.418-1.8185.295-.5079.688-.9175 1.179-1.2288.492-.3113 1.065-.5407 1.721-.6881.655-.1475 1.343-.2212 2.064-.2212.229 0 .467.0164.713.0492.245.0164.475.0491.688.0983.229.0327.426.0655.59.0983.163.0327.278.0573.344.0737v-.639c0-.3768-.041-.7454-.123-1.1058-.082-.3769-.23-.7045-.443-.9831-.213-.2949-.508-.5242-.884-.6881-.361-.1802-.836-.2703-1.426-.2703-.753 0-1.417.0574-1.99.172-.557.0983-.975.2048-1.254.3195l-.27-1.89227c.295-.13106.786-.25394 1.475-.36862.688-.13107 1.433-.19661 2.236-.19661z" fill="#39393a" fill-rule="evenodd"/></svg>