<svg xmlns="http://www.w3.org/2000/svg" width="400" height="196"><clipPath id="a"><path d="M-56.293-69.102h1154.475V1560.63H-56.293z"/></clipPath><clipPath id="b"><path d="M-56.293-69.102h1154.475V1560.63H-56.293z"/></clipPath><clipPath id="c"><path d="M-56.293-69.102h1154.475V1560.63H-56.293z"/></clipPath><clipPath id="d"><path d="M-56.293-69.102h1154.475V1560.63H-56.293z"/></clipPath><clipPath id="e"><path d="M-56.293-69.102h1154.475V1560.63H-56.293z"/></clipPath><clipPath id="f"><path d="M-56.293-69.102h1154.475V1560.63H-56.293z"/></clipPath><clipPath id="g"><path d="M-56.293-69.102h1154.475V1560.63H-56.293z"/></clipPath><clipPath id="h"><path d="M-56.293-69.102h1154.475V1560.63H-56.293z"/></clipPath><clipPath id="i"><path d="M-56.293-69.102h1154.475V1560.63H-56.293z"/></clipPath><clipPath id="j"><path d="M-56.293-69.102h1154.475V1560.63H-56.293z"/></clipPath><clipPath id="k"><path d="M-56.293-69.102h1154.475V1560.63H-56.293z"/></clipPath><clipPath id="l"><path d="M-56.293-69.102h1154.475V1560.63H-56.293z"/></clipPath><clipPath id="m"><path d="M-56.293-69.102h1154.475V1560.63H-56.293z"/></clipPath><clipPath id="n"><path d="M-56.293-69.102h1154.475V1560.63H-56.293z"/></clipPath><clipPath id="o"><path d="M-56.293-69.102h1154.475V1560.63H-56.293z"/></clipPath><clipPath id="p"><path d="M-56.293-69.102h1154.475V1560.63H-56.293z"/></clipPath><clipPath id="q"><path d="M-56.293-69.102h1154.475V1560.63H-56.293z"/></clipPath><clipPath id="r"><path d="M-56.293-69.102h1154.475V1560.63H-56.293z"/></clipPath><clipPath id="s"><path d="M-56.293-69.102h1154.475V1560.63H-56.293z"/></clipPath><clipPath id="t"><path d="M-56.293-69.102h1154.475V1560.63H-56.293z"/></clipPath><clipPath id="u"><path d="M-56.293-69.102h1154.475V1560.63H-56.293z"/></clipPath><clipPath id="v"><path d="M-56.293-69.102h1154.475V1560.63H-56.293z"/></clipPath><clipPath id="w"><path d="M-56.293-69.102h1154.475V1560.63H-56.293z"/></clipPath><clipPath id="x"><path d="M-56.293-69.102h1154.475V1560.63H-56.293z"/></clipPath><clipPath id="y"><path d="M-56.293-69.102h1154.475V1560.63H-56.293z"/></clipPath><clipPath id="z"><path d="M-56.293-69.102h1154.475V1560.63H-56.293z"/></clipPath><clipPath id="A"><path d="M-56.293-69.102h1154.475V1560.63H-56.293z"/></clipPath><clipPath id="B"><path d="M-56.293-69.102h1154.475V1560.63H-56.293z"/></clipPath><clipPath id="C"><path d="M-56.293-69.102h1154.475V1560.63H-56.293z"/></clipPath><clipPath id="D"><path d="M-56.293-69.102h1154.475V1560.63H-56.293z"/></clipPath><clipPath id="E"><path d="M-56.293-69.102h1154.475V1560.63H-56.293z"/></clipPath><clipPath id="F"><path d="M-56.293-69.102h1154.475V1560.63H-56.293z"/></clipPath><clipPath id="G"><path d="M-56.293-69.102h1154.475V1560.63H-56.293z"/></clipPath><clipPath id="H"><path d="M-56.293-69.102h1154.475V1560.63H-56.293z"/></clipPath><clipPath id="I"><path d="M-56.293-69.102h1154.475V1560.63H-56.293z"/></clipPath><clipPath id="J"><path d="M-56.293-69.102h1154.475V1560.63H-56.293z"/></clipPath><clipPath id="K"><path d="M-56.293-69.102h1154.475V1560.63H-56.293z"/></clipPath><path fill="#60349b" d="m72.865 104.228-.547-6.62c-.295-3.555 2.339-6.654 6.002-6.958 3.462-.284 6.769 2.33 7.06 5.885l.544 6.62 8.908-.731c2.77-.229 5.233 1.856 5.471 4.717.227 2.77-1.856 5.328-4.623 5.554l-8.908.732 1.54 18.669c.35 4.249 1.982 5.898 5.149 5.64 3.56-.294 4.817-3.182 7.984-3.44 2.97-.241 5.142 1.965 5.378 4.827.245 2.965-2.23 5.553-5.564 7.421-2.77 1.417-6.179 2.397-9.445 2.666-10.785.887-15.734-5.972-16.45-14.66l-1.652-20.05-3.167.259c-2.77.23-5.242-1.956-5.471-4.72-.235-2.867 1.854-5.321 4.624-5.554z" clip-path="url(#a)"/><path fill="#60349b" d="M123.156 140.268c.287 3.46-2.547 6.574-6.01 6.859-3.563.294-6.767-2.325-7.054-5.787l-4.649-56.393c-.294-3.558 2.446-6.57 6.009-6.859 3.663-.304 6.76 2.228 7.051 5.786l1.736 21.035c3.534-4.265 8.16-6.143 13.01-6.54 5.046-.412 9.904.48 13.628 3.357 3.405 2.606 5.864 7.076 6.417 13.789l1.823 22.128c.287 3.455-2.546 6.576-6.107 6.864-3.565.295-6.767-2.326-7.052-5.786l-1.555-18.864c-.264-3.161-.927-6.388-2.977-8.307-1.303-1.283-3.357-2.011-6.125-1.784-7.719.634-9.995 8.081-9.458 14.603z" clip-path="url(#b)"/><path fill="#60349b" d="M165.408 95.73c3.664-.305 6.769 2.324 7.052 5.786l2.841 34.467c.287 3.46-2.546 6.575-6.008 6.858-3.662.304-6.765-2.325-7.052-5.786l-2.84-34.467c-.286-3.461 2.344-6.56 6.007-6.859m-8.552-10.525c-.342-4.146 2.746-7.785 6.902-8.126s7.796 2.743 8.14 6.89c.343 4.15-2.747 7.78-6.899 8.126-4.16.34-7.802-2.74-8.143-6.89" clip-path="url(#c)"/><path fill="#60349b" d="M186.386 94.002c3.363-.273 6.13 1.882 6.88 4.903 3.45-4.057 8.358-6.152 13.105-6.543 5.049-.412 9.905.48 13.629 3.357 3.405 2.604 5.864 7.075 6.417 13.789l1.827 22.128c.287 3.455-2.548 6.57-6.11 6.864-3.564.292-6.768-2.327-7.053-5.786l-1.553-18.864c-.264-3.161-.93-6.388-2.979-8.307-1.301-1.285-3.355-2.011-6.125-1.785-7.718.635-9.993 8.08-9.456 14.598l1.31 15.905c.288 3.455-2.544 6.574-6.007 6.858-3.662.298-6.765-2.327-7.052-5.786l-2.843-34.467c-.285-3.461 2.347-6.56 6.01-6.864" clip-path="url(#d)"/><path fill="#60349b" d="m266.61 120.925-1.54-18.673c-1.886-1.134-5.232-3.046-9.386-2.706-3.167.262-5.455 1.541-6.892 3.45-1.876 2.644-2.586 6.078-2.277 9.834.343 4.15 1.611 7.43 3.768 9.437 1.829 1.64 4.094 2.547 7.162 2.294 3.86-.314 6.83-1.754 9.166-3.636m-21.52 22.947c4.352-.356 6.988 3.806 14.111 3.218 5.939-.484 9.267-3.646 8.778-9.571l-.465-5.631c-3.012 2.135-6.212 3.198-10.665 3.564-6.332.52-11.56-1.237-15.513-4.497-4.705-3.887-7.512-10.123-8.097-17.233-.53-6.42.927-12.902 4.709-17.792 3.254-4.042 8.203-6.837 14.929-7.389 4.556-.377 8.956 1.057 11.966 2.495.925-2.061 2.979-3.722 5.554-3.933 3.658-.3 6.765 2.325 7.052 5.786l3.404 41.283c.636 7.704-1.069 13.609-5.213 17.73-3.499 3.47-8.803 5.6-15.335 6.136-4.752.388-8.46.097-12.542-1.057-4.996-1.382-7.457-3.465-7.735-6.823-.252-3.063 1.796-6.017 5.062-6.286" clip-path="url(#e)"/><path fill="#60349b" d="M25.577 71.462c7.127-.589 11.146-6.189 10.545-13.5-.602-7.308-5.489-12.175-12.614-11.588-7.124.583-11.144 6.183-10.543 13.49.603 7.312 5.489 12.18 12.612 11.598m-2.98-36.153c13.657-1.12 25.273 6.874 26.488 21.59C50.299 71.617 40.138 81.3 26.48 82.42 12.828 83.543 1.313 75.64.099 60.921-1.115 46.21 8.941 36.431 22.596 35.31" clip-path="url(#f)"/><path fill="#60349b" d="M60.065 32.173c3.363-.279 6.133 1.881 6.88 4.903 3.45-4.063 8.358-6.156 13.11-6.549 5.046-.412 9.9.48 13.624 3.353 3.406 2.61 5.865 7.08 6.417 13.795L101.92 69.8c.287 3.455-2.54 6.57-6.105 6.864-3.562.294-6.768-2.327-7.053-5.78l-1.554-18.868c-.262-3.158-.925-6.39-2.979-8.309-1.3-1.283-3.355-2.011-6.124-1.785-7.72.635-9.992 8.082-9.455 14.604l1.31 15.899c.286 3.461-2.545 6.57-6.009 6.858-3.66.3-6.767-2.325-7.054-5.786l-2.84-34.467c-.286-3.46 2.35-6.56 6.01-6.858" clip-path="url(#g)"/><path fill="#60349b" d="M138.802 44.693c-.785-4.708-4.367-8.293-9.712-7.853-5.442.449-8.43 4.073-8.892 9.379zm12.441 19.169c.222 2.665-1.504 4.692-5.143 6.487-3.92 2.01-8.331 2.866-12.685 3.226-7.622.626-13.95-1.236-18.458-5.145-4.613-3.991-7.484-9.824-8.071-16.934-.56-6.818 1.43-12.846 5.058-17.225 3.63-4.274 9.076-7.11 16.2-7.693 7.322-.604 12.76 1.336 16.62 4.6 4.717 4.088 6.445 9.319 6.811 13.763.386 4.64-1.774 7.497-5.83 7.832l-24.735 2.033c1.684 5.93 6.009 8.854 12.44 8.328 6.927-.573 9.249-3.843 12.512-4.11 2.77-.226 5.045 1.969 5.281 4.838" clip-path="url(#h)"/><path fill="#60349b" d="M168.116 7.586c-.291-3.558 2.45-6.57 6.014-6.865 3.658-.298 6.757 2.228 7.05 5.786l4.65 56.4c.285 3.455-2.447 6.564-6.008 6.853-3.565.294-6.767-2.32-7.054-5.78z" clip-path="url(#i)"/><path fill="#60349b" d="M221.937 37.732c-.787-4.702-4.371-8.287-9.714-7.848-5.444.447-8.43 4.073-8.89 9.379zM234.374 56.9c.22 2.666-1.505 4.696-5.143 6.487-3.917 2.011-8.33 2.873-12.682 3.227-7.621.63-13.95-1.237-18.459-5.141-4.614-3.996-7.486-9.829-8.07-16.939-.564-6.818 1.432-12.846 5.053-17.219 3.634-4.28 9.08-7.112 16.203-7.698 7.323-.599 12.763 1.34 16.617 4.6 4.722 4.087 6.448 9.318 6.815 13.763.382 4.64-1.773 7.503-5.828 7.832l-24.74 2.038c1.683 5.924 6.01 8.853 12.442 8.322 6.926-.567 9.245-3.842 12.513-4.11 2.772-.226 5.045 1.97 5.28 4.838" clip-path="url(#j)"/><path fill="#60349b" d="M304.324 24.505c-4.055.329-6.115-1.686-10.568-1.32-2.672.216-4.577 1.267-4.389 3.542.163 1.975 2.23 2.898 4.581 3.6 3.272 1.027 6.305 1.572 9.6 2.893 5.564 2.228 7.977 6.105 8.376 10.943.687 8.3-5.828 15.093-17.307 16.036-9.103.75-17.478-.546-17.984-6.673-.238-2.86 1.753-5.312 4.624-5.548 3.956-.325 6.287 2.563 12.026 2.093 3.266-.267 5.149-1.618 4.953-3.986-.178-2.176-1.935-2.929-4.497-3.81-2.977-1.041-6.623-1.744-9.918-3.064-5.054-2.067-7.837-5.616-8.309-11.344-.684-8.297 5.217-14.058 16.697-15 8.705-.719 16.193.66 16.626 5.892.268 3.266-1.74 5.513-4.511 5.746" clip-path="url(#k)"/><path fill="#60349b" d="M266.922 27.578c-4.057.331-6.116-1.686-10.57-1.32-2.67.217-4.574 1.268-4.388 3.542.163 1.975 2.232 2.898 4.579 3.601 3.274 1.02 6.307 1.572 9.604 2.892 5.562 2.228 7.974 6.106 8.376 10.943.685 8.297-5.832 15.094-17.307 16.036-9.106.75-17.482-.546-17.988-6.672-.235-2.861 1.757-5.312 4.623-5.548 3.959-.326 6.288 2.563 12.029 2.092 3.266-.267 5.15-1.618 4.955-3.986-.183-2.175-1.938-2.928-4.502-3.81-2.975-1.04-6.619-1.743-9.916-3.064-5.052-2.067-7.835-5.62-8.31-11.35-.68-8.296 5.219-14.051 16.698-14.994 8.708-.718 16.194.66 16.625 5.893.27 3.265-1.736 5.513-4.508 5.745" clip-path="url(#l)"/><g fill="#42b0c6"><path d="M28.207 195.643q-2.844 0-4.866-1.12a7.65 7.65 0 0 1-3.106-3.152q-1.085-2.027-1.085-4.793 0-2.067.611-3.725a7.8 7.8 0 0 1 1.785-2.837q1.171-1.185 2.856-1.832t3.805-.648q1.248 0 2.533.312 1.285.311 2.232.884.625.349.85.871.225.523.138 1.048-.088.522-.425.896a1.5 1.5 0 0 1-.836.472q-.5.101-1.123-.224a5.7 5.7 0 0 0-1.573-.647 7 7 0 0 0-1.672-.2q-1.67 0-2.806.66-1.135.66-1.708 1.906-.576 1.245-.575 3.064-.001 1.793.575 3.062.574 1.272 1.708 1.93 1.136.662 2.806.66.801.001 1.635-.199a6.4 6.4 0 0 0 1.61-.621q.648-.325 1.16-.238.511.09.85.449.334.361.422.86.087.497-.112.996-.199.497-.747.846-.925.624-2.271.972-1.349.348-2.67.348" clip-path="url(#m)"/><path d="M39.256 195.37q-.948 0-1.46-.523-.511-.523-.51-1.445v-13.674q0-.97.498-1.47.498-.496 1.447-.497.924 0 1.421.498.5.499.5 1.469v12.38h6.688q.797 0 1.235.421.437.424.437 1.197 0 .797-.437 1.22t-1.235.423z" clip-path="url(#n)"/><path d="M54.215 195.37q-.974 0-1.497-.523-.525-.524-.524-1.495V179.83q0-.973.524-1.495.523-.524 1.497-.522h8.708q.748-.001 1.136.385.385.386.386 1.107-.001.75-.386 1.134-.388.386-1.136.386h-7.036v4.11h6.462q.772 0 1.161.387.385.385.386 1.132-.001.746-.386 1.132-.389.387-1.161.388h-6.462v4.382h7.036q.748 0 1.136.387.385.386.386 1.108-.001.749-.386 1.134-.388.385-1.136.385z" clip-path="url(#o)"/><path d="m75.726 181.92-3.194 7.596-.673-.972h7.81l-.673.972-3.22-7.596zm-7.087 13.672q-.698.001-1.134-.323a1.4 1.4 0 0 1-.549-.871q-.114-.548.211-1.221l6.389-13.971q.399-.847.948-1.233t1.272-.387q.722 0 1.273.387.548.386.923 1.233l6.437 13.97q.325.674.238 1.234-.089.561-.512.873-.426.31-1.097.31-.85 0-1.312-.397-.46-.4-.81-1.247l-1.497-3.461 1.547 1.07H70.561l1.546-1.07-1.472 3.46q-.372.875-.785 1.26c-.274.257-.68.384-1.21.384" clip-path="url(#p)"/><path d="M89.232 195.593q-.874 0-1.334-.486-.462-.484-.462-1.382V179.53q0-.948.462-1.446.46-.496 1.235-.497.672 0 1.036.26.36.263.834.86l8.76 11.133h-.675v-10.41q0-.872.462-1.358.462-.485 1.334-.485.875 0 1.336.485.461.487.462 1.357v14.372q0 .822-.425 1.306-.424.486-1.148.486-.698 0-1.11-.273-.412-.274-.885-.873l-8.734-11.132h.648v10.41q0 .899-.448 1.382-.449.486-1.348.486" clip-path="url(#q)"/><path d="M108.967 195.593q-.948 0-1.447-.522-.5-.523-.5-1.47v-14.023q0-.945.5-1.469.499-.522 1.447-.522.924 0 1.421.522.5.523.5 1.47V193.6q0 .946-.486 1.47-.486.522-1.435.522" clip-path="url(#r)"/><path d="M117.004 195.593q-.874 0-1.334-.486-.463-.484-.462-1.382V179.53q0-.948.462-1.446.46-.496 1.235-.497.672 0 1.036.26.36.263.834.86l8.76 11.133h-.675v-10.41q0-.872.461-1.358.463-.485 1.335-.485.874 0 1.336.485.46.487.462 1.357v14.372q0 .822-.425 1.306-.424.486-1.148.486-.699 0-1.11-.273-.412-.274-.886-.873l-8.733-11.132h.648v10.41q0 .899-.448 1.382-.45.486-1.348.486" clip-path="url(#s)"/><path d="M143.3 195.643q-2.97 0-5.028-1.12t-3.13-3.138q-1.074-2.019-1.073-4.733 0-2.091.636-3.773a7.8 7.8 0 0 1 1.847-2.863q1.21-1.185 2.944-1.832t3.929-.648q1.348 0 2.696.3 1.347.299 2.595.995.523.3.711.76.187.462.1.972-.089.512-.4.897a1.4 1.4 0 0 1-.8.497q-.486.114-1.109-.186a6.8 6.8 0 0 0-1.747-.66 9 9 0 0 0-2.02-.213q-1.772 0-2.97.66c-.8.44-1.392 1.088-1.784 1.944q-.585 1.283-.586 3.15-.001 2.815 1.36 4.258 1.359 1.446 4.03 1.446.898 0 1.846-.174a12 12 0 0 0 1.871-.5l-.723 1.57v-4.78h-2.246q-.75-.002-1.148-.374-.4-.374-.4-1.023 0-.67.4-1.033.399-.361 1.148-.362h3.918q.747 0 1.134.399.388.4.388 1.146v5.778q0 .649-.25 1.096-.251.45-.847.648-1.125.399-2.522.647-1.396.25-2.77.25" clip-path="url(#t)"/><path d="M168.128 180.102q-.8 0-1.272.46-.476.46-.476 1.259 0 .422.152.809.15.386.485.823.338.435.936 1.057l-.799-.049q.976-.499 1.534-.921.564-.424.813-.873.248-.447.248-.972 0-.796-.436-1.194-.437-.4-1.185-.4m-.4 12.628q1.074 0 1.909-.399.837-.398 1.56-1.17l-.1.897-5.066-5.03 1.598.098-.675.373a5.9 5.9 0 0 0-1.184.835q-.463.436-.673.96-.214.523-.214 1.144 0 1.072.749 1.682.75.61 2.096.61m-.225 2.915q-1.946-.001-3.38-.623-1.435-.623-2.209-1.719-.773-1.095-.772-2.565 0-.847.237-1.581.236-.736.698-1.346a7 7 0 0 1 1.111-1.146 10 10 0 0 1 1.447-.983l.873-.498-.55.773q-1.047-.997-1.533-1.994a4.6 4.6 0 0 1-.487-2.043q0-1.294.648-2.29.648-.995 1.823-1.544 1.171-.549 2.719-.548 2.146 0 3.394 1.082 1.248 1.086 1.247 2.927 0 .972-.375 1.831-.374.86-1.173 1.618-.797.761-2.094 1.408l.023-.796 3.993 4.083h-.822a6.3 6.3 0 0 0 .56-1.096q.236-.597.411-1.27.175-.671.276-1.368.148-.75.535-1.121.387-.375 1.111-.374.773 0 1.16.436.387.434.287 1.233-.148 1.12-.448 2.14-.3 1.023-.737 1.906-.436.885-.985 1.632l-.025-.872 2.246 2.192q.6.55.599 1.12 0 .573-.436.959-.438.386-1.187.387-.673 0-1.085-.261a6.4 6.4 0 0 1-.936-.761l-1.273-1.32h.825a8.6 8.6 0 0 1-2.609 1.744 7.7 7.7 0 0 1-3.107.648" clip-path="url(#u)"/><path d="M190.56 195.593q-.95 0-1.447-.522-.5-.523-.5-1.47v-14.023q0-.945.5-1.469.497-.522 1.446-.522.923 0 1.422.522.5.523.5 1.47v5.28h8.185v-5.28q-.001-.947.498-1.47.5-.522 1.422-.522.948 0 1.448.522.499.523.499 1.47V193.6q0 .946-.499 1.47-.5.522-1.448.522-.922 0-1.422-.522-.5-.523-.498-1.47v-5.528h-8.185v5.528q0 .946-.486 1.47-.486.522-1.436.522" clip-path="url(#v)"/><path d="M216.832 192.356q1.471 0 2.508-.686 1.034-.684 1.596-1.992.561-1.305.562-3.1 0-2.739-1.222-4.246-1.224-1.508-3.444-1.508-1.447 0-2.496.674-1.049.671-1.596 1.966-.55 1.296-.549 3.113 0 2.714 1.222 4.247 1.222 1.531 3.419 1.532m0 3.287q-2.596 0-4.554-1.133a7.84 7.84 0 0 1-3.045-3.175q-1.084-2.043-1.084-4.758-.001-2.067.611-3.722c.408-1.106.993-2.05 1.76-2.84a7.9 7.9 0 0 1 2.755-1.831q1.612-.647 3.557-.647 2.644 0 4.59 1.12t3.034 3.15q1.084 2.033 1.084 4.745 0 2.068-.623 3.736-.626 1.67-1.772 2.865a7.9 7.9 0 0 1-2.745 1.843q-1.597.647-3.568.647" clip-path="url(#w)"/><path d="M230.914 195.593q-.849 0-1.297-.472-.45-.475-.45-1.32v-14.422q0-.846.487-1.32.487-.471 1.336-.472.748-.001 1.185.286.435.288.81.983l5.764 10.512h-.847l5.764-10.512q.374-.695.81-.983.436-.287 1.16-.286.848 0 1.311.472.461.474.462 1.32v14.422q0 .845-.45 1.32-.45.472-1.298.472t-1.31-.472q-.461-.475-.462-1.32v-10.088h.549l-4.641 8.293q-.3.475-.636.71-.336.239-.885.237-.55 0-.9-.248a2.3 2.3 0 0 1-.622-.699l-4.692-8.318h.6v10.113q0 .845-.437 1.32-.438.471-1.31.472" clip-path="url(#x)"/><path d="M253.763 195.37q-.973 0-1.497-.523-.524-.524-.524-1.495V179.83q0-.973.524-1.495.524-.524 1.497-.522h8.708q.75-.001 1.136.385t.386 1.107q-.001.75-.386 1.134-.387.386-1.136.386h-7.037v4.11h6.464q.772 0 1.16.387.387.385.386 1.132 0 .746-.386 1.132-.388.387-1.16.388h-6.464v4.382h7.037q.75 0 1.136.387.385.386.386 1.108-.001.749-.386 1.134-.387.385-1.136.385z" clip-path="url(#y)"/><path d="M281.585 195.643q-1.048 0-2.134-.162a14 14 0 0 1-2.071-.461 8.2 8.2 0 0 1-1.76-.747q-.548-.299-.773-.784a1.77 1.77 0 0 1 .213-1.868q.312-.387.797-.498.488-.112 1.087.186a8.3 8.3 0 0 0 2.232.848q1.21.273 2.409.273 1.821 0 2.594-.56.774-.561.774-1.407 0-.722-.549-1.146-.548-.422-1.922-.722l-2.82-.598q-2.394-.497-3.554-1.705t-1.16-3.177q0-1.245.524-2.265.524-1.022 1.472-1.77.948-.746 2.257-1.145 1.312-.4 2.882-.4 1.4 0 2.746.338 1.346.335 2.37.983.497.3.687.76.185.463.124.922-.062.461-.375.81a1.4 1.4 0 0 1-.785.447q-.475.1-1.148-.223a7 7 0 0 0-1.748-.623 9 9 0 0 0-1.894-.2q-1.05 0-1.785.275-.737.274-1.122.77a1.82 1.82 0 0 0-.388 1.147q0 .724.523 1.17.524.449 1.823.723l2.82.598q2.444.523 3.642 1.68 1.199 1.16 1.197 3.051c0 .833-.165 1.582-.498 2.255a4.9 4.9 0 0 1-1.447 1.73q-.948.725-2.271 1.108-1.324.387-2.97.387" clip-path="url(#z)"/><path d="M294.11 195.37q-.972 0-1.497-.523-.524-.524-.524-1.495V179.83q0-.973.524-1.495.526-.524 1.497-.522h8.708q.75-.001 1.137.385.385.386.386 1.107-.001.75-.386 1.134-.386.386-1.137.386h-7.036v4.11h6.464q.772 0 1.16.387.387.385.386 1.132 0 .746-.386 1.132-.388.387-1.16.388h-6.464v4.382h7.036q.75 0 1.137.387.385.386.386 1.108-.001.749-.386 1.134-.386.385-1.137.385z" clip-path="url(#A)"/><path d="M311.69 185.78h3.467q1.548 0 2.333-.623.786-.621.787-1.866-.001-1.222-.787-1.843-.786-.623-2.333-.623h-3.468zm-1.923 9.813q-.947 0-1.447-.523-.499-.522-.498-1.47v-13.823q0-.97.51-1.469.512-.496 1.46-.497h6.065q2.944 0 4.54 1.419 1.598 1.419 1.598 3.96 0 1.644-.725 2.84-.724 1.196-2.083 1.843t-3.33.646l.2-.422h1.022q1.047 0 1.834.51.786.51 1.36 1.558l1.546 2.863q.35.624.325 1.221a1.3 1.3 0 0 1-.45.97q-.424.375-1.247.374-.822 0-1.336-.349-.51-.348-.91-1.07l-2.395-4.408q-.375-.697-.911-.947-.537-.25-1.31-.25h-1.896v5.032q0 .946-.487 1.47-.486.522-1.435.522" clip-path="url(#B)"/><path d="M332.831 195.593q-.8 0-1.31-.362-.51-.36-.837-1.107l-6.287-13.947q-.349-.748-.2-1.332.15-.587.625-.922.473-.336 1.148-.336.846-.001 1.297.385.449.386.749 1.134l5.513 12.726h-1.247l5.514-12.751q.325-.748.774-1.12.45-.375 1.247-.374.675 0 1.111.336.436.334.549.922.113.584-.211 1.332l-6.29 13.947q-.348.747-.836 1.107-.486.363-1.309.362" clip-path="url(#C)"/><path d="M346.166 195.593q-.95 0-1.447-.522-.5-.523-.5-1.47v-14.023q0-.945.5-1.469.497-.522 1.447-.522.921 0 1.421.522.5.523.5 1.47V193.6q0 .946-.486 1.47-.488.522-1.435.522" clip-path="url(#D)"/><path d="M360.76 195.643q-2.845 0-4.866-1.12a7.65 7.65 0 0 1-3.107-3.152q-1.085-2.027-1.086-4.793.001-2.067.613-3.725.61-1.656 1.784-2.837 1.173-1.185 2.857-1.832t3.805-.648q1.248 0 2.533.312 1.285.311 2.232.884.624.349.85.871.222.523.137 1.048-.089.522-.425.896a1.5 1.5 0 0 1-.836.472q-.5.101-1.122-.224a5.7 5.7 0 0 0-1.573-.647 7 7 0 0 0-1.672-.2q-1.67 0-2.806.66t-1.71 1.906-.573 3.064q0 1.793.572 3.062.575 1.272 1.71 1.93 1.137.662 2.807.66a7 7 0 0 0 1.635-.199 6.4 6.4 0 0 0 1.61-.621q.647-.325 1.16-.238.51.09.849.449.334.361.423.86.087.497-.113.996-.2.497-.749.846-.92.624-2.269.972t-2.67.348" clip-path="url(#E)"/><path d="M371.858 195.37q-.973 0-1.497-.523-.524-.524-.524-1.495V179.83q0-.973.524-1.495.525-.524 1.497-.522h8.708q.75-.001 1.136.385t.386 1.107q-.001.75-.386 1.134-.386.386-1.136.386h-7.036v4.11h6.464q.772 0 1.16.387.386.385.386 1.132t-.386 1.132q-.388.387-1.16.388h-6.464v4.382h7.036q.75 0 1.136.387.385.386.386 1.108-.001.749-.386 1.134-.386.385-1.136.385z" clip-path="url(#F)"/><path d="M391.727 195.643q-1.048 0-2.133-.162a14 14 0 0 1-2.071-.461 8.2 8.2 0 0 1-1.76-.747q-.548-.299-.773-.784a1.77 1.77 0 0 1 .213-1.868q.312-.387.797-.498.488-.112 1.086.186a8.3 8.3 0 0 0 2.233.848 11 11 0 0 0 2.408.273q1.822 0 2.595-.56.774-.561.774-1.407 0-.722-.549-1.146-.548-.422-1.922-.722l-2.82-.598q-2.394-.497-3.554-1.705t-1.16-3.177q0-1.245.523-2.265.525-1.022 1.472-1.77.949-.746 2.258-1.145 1.311-.4 2.882-.4 1.4 0 2.746.338 1.346.335 2.37.983.497.3.687.76.185.463.124.922-.062.461-.375.81a1.4 1.4 0 0 1-.785.447q-.475.1-1.148-.223a7 7 0 0 0-1.748-.623 9 9 0 0 0-1.894-.2q-1.05 0-1.785.275-.737.274-1.123.77a1.82 1.82 0 0 0-.387 1.147q0 .724.523 1.17.524.449 1.823.723l2.82.598q2.444.523 3.642 1.68 1.198 1.16 1.197 3.051c0 .833-.165 1.582-.499 2.255a4.9 4.9 0 0 1-1.446 1.73q-.949.725-2.271 1.108-1.324.387-2.97.387" clip-path="url(#G)"/><path d="M388.371 66.857c-8.799 7.473-16.584 15.485-23.31 23.997-2.133 9.708-3.423 22.887-1.745 39.776l-55.445-2.48c-5-18.407-2.989-47.523 5.195-62.56l38.912 2.72c5.07-5.764 10.574-11.298 16.499-16.596l-51.332-4.046c-.435 4.295-2.353 8.233-5.588 11.332-4.002 3.837-9.722 6.16-16.539 6.72q-.727.06-1.443.102c-11.938 40.411-.533 79.792-.533 79.792l89.994 3.687c-7.182-32.243-1.117-63.844 5.335-82.444" clip-path="url(#H)"/></g><path fill="#60349b" d="M337.934 117.296a6.59 6.59 0 0 1-5.745-3.352c-7.92-14.035-16.297-23.265-16.38-23.358a6.577 6.577 0 0 1 .423-9.296 6.6 6.6 0 0 1 9.31.413c.292.32 5.658 6.212 12.062 15.87 11.634-19.599 27.636-37.181 47.688-52.38a6.6 6.6 0 0 1 9.239 1.263 6.574 6.574 0 0 1-1.263 9.222c-21.705 16.45-38.264 35.81-49.216 57.545l-.23.455a6.6 6.6 0 0 1-5.737 3.616z" clip-path="url(#I)"/><path fill="#42b0c6" d="M324.282 11.085c-3.082 0-5.587 2.5-5.587 5.577 0 3.074 2.505 5.577 5.587 5.577s5.587-2.503 5.587-5.577c0-3.076-2.505-5.577-5.587-5.577m0 12.077c-3.59 0-6.512-2.917-6.512-6.5 0-3.585 2.922-6.5 6.512-6.5s6.512 2.915 6.512 6.5c0 3.583-2.922 6.5-6.512 6.5" clip-path="url(#J)"/><path fill="#42b0c6" d="M323.056 16.132h1.414q.622 0 .946-.258.32-.258.322-.772-.001-.507-.322-.765-.323-.258-.946-.257h-1.414zm-.58 3.48q-.28 0-.43-.158t-.15-.438v-5.261q.001-.29.155-.44.154-.148.435-.149h2.182q1.05.001 1.62.502.574.502.573 1.405 0 .589-.258 1.014-.26.425-.749.65-.488.227-1.186.227l.081-.135h.299q.37 0 .65.18.275.18.482.569l.681 1.256.099.372-.136.294-.372.112-.398-.104-.271-.321-.916-1.68q-.162-.308-.384-.413a1.4 1.4 0 0 0-.566-.103h-.861v2.025q0 .28-.146.438-.143.159-.434.158" clip-path="url(#K)"/></svg>