<svg xmlns="http://www.w3.org/2000/svg" shape-rendering="geometricPrecision" text-rendering="geometricPrecision" image-rendering="optimizeQuality" fill-rule="evenodd" clip-rule="evenodd" viewBox="0 0 848 656"><path fill="#82a83f" d="M848 166v20c-2 38-12 75-30 110a180 180 0 0 1-324-32c-20-58-15-114 15-167C551 32 611 0 690 2c49 2 90 21 124 57l9 12c7 14 12 30 17 46 4 16 6 32 8 49ZM671 67c19-2 39 0 59 5 24 12 39 30 46 57 11 53 1 101-31 145-37 38-79 47-128 27-42-22-64-56-66-104A135 135 0 0 1 671 67Z"/><path fill="#221f1f" d="M47 187c30-2 48 13 53 43v89c-4 28-20 42-49 43-28-1-45-15-49-42v-91c4-26 19-40 45-42Zm2 31c11 0 17 5 17 17v78c0 12-7 18-19 17-7-3-11-9-11-16v-79c0-9 5-15 13-17Zm126-31c24-1 37 11 39 36v98c-4 36-23 48-57 35l-7-6v66h-34l-1-226h33l2 13c6-10 14-15 25-16Zm-14 32c12-2 18 3 19 16v78c-1 14-8 19-21 16-6-5-9-12-9-19v-71c0-9 3-16 11-20Zm113-32c31-2 48 13 52 44l1 53h-64c-1 12 0 24 1 36 4 12 12 15 24 9 4-7 5-14 5-21h34c1 17-5 32-17 45-10 6-20 9-31 9-31 0-47-14-49-44v-85c3-28 17-43 44-46Zm0 30c11-3 17 2 19 14l1 26h-30v-26c1-7 4-11 10-14Zm128-30c20-2 33 7 38 27l2 145h-34l-1-127c-3-13-10-17-22-12-4 3-7 7-7 13-1 41-2 83-1 126h-34V190h33c-1 4 0 8 1 12 6-9 14-14 25-15Zm25 205h16v41h25v15h-25v124c0 8 5 12 13 13l11-1v14c-10 1-19 1-28-1-5-3-9-7-11-12-1-46-2-92-1-137h-20v-15h20v-41Z"/><path fill="#221f1f" d="M192 430c19-2 31 6 36 25l2 25h-17l-2-23c-3-8-8-12-16-12s-13 4-16 11c-6 16-1 30 13 41 11 7 21 15 30 25 9 14 12 29 9 46-5 25-20 35-46 31-17-3-26-13-28-29v-20h17c-2 10 0 19 5 28 8 7 17 8 28 3 4-4 6-9 7-15 3-15-1-27-10-38-13-8-24-17-35-27a56 56 0 0 1-4-55c6-10 15-16 27-16Zm172 0c21-2 33 8 37 29l1 21h-16c0-10-1-20-5-28-10-10-19-10-28 1-8 17-4 32 11 44 11 7 22 15 31 26 6 9 10 20 10 32-2 38-22 52-58 41-11-6-17-15-18-27v-19h17c-2 9 0 19 5 28 10 9 21 9 31 0 6-14 6-27 1-40-2-5-6-9-9-12-12-7-22-15-32-24a54 54 0 0 1-3-59c6-8 15-13 25-13Z" opacity=".9"/><path fill="#221f1f" d="M509 430c20-2 34 8 39 28l2 15 1 44h-60c-1 15 0 30 1 45 1 9 6 16 14 21 11 4 20 0 25-11l3-21h16c1 40-18 55-56 45-12-8-18-19-19-33-1-35-1-69 1-102 4-18 15-29 33-31Zm2 15c13 1 21 8 22 23l1 35h-43v-30c0-9 3-17 9-24 3-2 7-4 11-4Z"/><path fill="#221f1f" d="M609 430c14-2 24 5 28 19 10-18 24-23 43-17 10 5 16 14 16 27l1 138h-17l-1-134c-3-17-13-21-27-14-6 5-9 11-10 18-1 43-2 86-1 130h-17l-1-136c-4-14-12-18-25-13-7 5-10 11-11 19-1 43-2 86-1 130h-17V433h16v14c5-10 13-16 24-17Zm138 0c20-2 32 7 36 27l2 23h-17l-1-18c-3-14-11-19-24-16-7 3-11 9-11 17-2 9 0 18 6 27l31 23c15 14 20 31 17 52-4 27-19 38-46 34-19-4-29-16-29-35v-14h17c-1 9 1 18 5 27 11 10 21 10 32 0 6-15 6-29-2-43-9-9-18-17-28-23-21-18-26-39-16-64 6-11 15-17 28-17Zm-510 3c6-1 12 0 18 1l25 137 27-138h18l-41 190c-2 8-6 16-11 24-6 6-14 8-22 8l-10-1c-1-6-2-11-1-16 16 3 25-3 28-19l4-16-35-170Z" opacity=".9"/></svg>