<svg height="31.199667" viewBox="0 0 126.35864 31.199667" width="126.35863" xmlns="http://www.w3.org/2000/svg" xmlns:xlink="http://www.w3.org/1999/xlink"><linearGradient id="a" gradientUnits="userSpaceOnUse" x2="31.780001" y1="16" y2="16"><stop offset="0" stop-color="#010101" stop-opacity=".6"/><stop offset=".88" stop-color="#f4962a" stop-opacity=".1"/><stop offset="1" stop-color="#f4962a" stop-opacity="0"/></linearGradient><linearGradient id="b" gradientUnits="userSpaceOnUse" x1="1.8" x2="28.59" y1="22.235063" y2="22.235063"><stop offset="0" stop-color="#010101" stop-opacity=".4"/><stop offset=".88" stop-color="#f4962a" stop-opacity=".3"/><stop offset="1" stop-color="#3f762f" stop-opacity=".2"/></linearGradient><linearGradient id="c" gradientUnits="userSpaceOnUse" x1="16.110001" x2="28.280001" y1="12.47" y2="12.47"><stop offset="0" stop-color="#8ec25f"/><stop offset="1" stop-color="#8ec25f"/></linearGradient><linearGradient id="d" x1="27.36" x2="28.52" xlink:href="#c" y1="12.495062" y2="12.495062"/><linearGradient id="e" gradientUnits="userSpaceOnUse" x1="4.38" x2="26.76" y1="16.755061" y2="16.755061"><stop offset="0" stop-color="#fff"/><stop offset="1" stop-color="#fbc026"/></linearGradient><linearGradient id="f" gradientUnits="userSpaceOnUse" x1="4.38" x2="26.76" y1="20.565063" y2="20.565063"><stop offset="0" stop-color="#f0d037"/><stop offset="1" stop-color="#f4962a"/></linearGradient><linearGradient id="g" gradientUnits="userSpaceOnUse" x1="4.38" x2="26.7" y1="14.765062" y2="14.765062"><stop offset=".01" stop-color="#fff1a4"/><stop offset=".43" stop-color="#f3bb6d"/><stop offset="1" stop-color="#f8a815"/></linearGradient><linearGradient id="h" x1=".94" x2="16.790001" xlink:href="#a" y1="28.139999" y2="28.139999"/><linearGradient id="i" gradientTransform="matrix(.79 0 0 .81 128.9 824.84)" gradientUnits="userSpaceOnUse" x1="-138.55" x2="-136.45" y1="-1000.62" y2="-1000.62"><stop offset="0" stop-color="#818282"/><stop offset=".31" stop-color="#dadada"/><stop offset=".44" stop-color="#fffefe"/><stop offset=".55" stop-color="#fcfcfc"/><stop offset=".67" stop-color="#d5d5d4"/><stop offset="1" stop-color="#818282"/></linearGradient><linearGradient id="j" gradientTransform="matrix(.79 0 0 .81 130.36993 807.22316)" gradientUnits="userSpaceOnUse" x1="-138.55" x2="-136.45" y1="-986.14001" y2="-986.14001"><stop offset="0" stop-color="#232323"/><stop offset=".31" stop-color="#474647"/><stop offset=".44" stop-color="#50504f"/><stop offset=".55" stop-color="#504e4e"/><stop offset=".67" stop-color="#474647"/><stop offset="1" stop-color="#232323"/></linearGradient><linearGradient id="k" gradientTransform="matrix(.56 .56 -.58 .58 -479.46 663.82506)" x1="-138.56" x2="-136.45" xlink:href="#i" y1="-966.28003" y2="-966.28003"/><linearGradient id="l" gradientUnits="userSpaceOnUse" x1="19.98" x2="25.65" y1="9.43" y2="3.77"><stop offset="0" stop-color="#e7b805"/><stop offset="1" stop-color="#ffea72"/></linearGradient><linearGradient id="m" gradientUnits="userSpaceOnUse" x1="27.290001" x2="25.790001" y1="5.85" y2="3.25"><stop offset="0" stop-color="#ecc12d"/><stop offset="1" stop-color="#c39508"/></linearGradient><linearGradient id="n" x1="27.01" x2="27.01" xlink:href="#m" y1="5.38" y2="7.72"/><linearGradient id="o" x1="20.52" x2="24.63" xlink:href="#l" y1="20.435062" y2="16.325061"/><linearGradient id="p" x1="26.67" x2="25.59" xlink:href="#m" y1="18.120001" y2="16.25"/><linearGradient id="q" x1="26.469999" x2="26.469999" xlink:href="#m" y1="17.790001" y2="19.5"/><linearGradient id="r" x1="12.14" x2="15.970001" xlink:href="#l" y1="8.475062" y2="4.645062"/><linearGradient id="s" x1="17.940001" x2="16.93" xlink:href="#m" y1="6.34" y2="4.59"/><linearGradient id="t" x1="17.75" x2="17.75" xlink:href="#m" y1="6.03" y2="7.62"/><linearGradient id="u" x1="26.36" x2="28.970001" xlink:href="#l" y1="15.395062" y2="12.795062"/><linearGradient id="v" x1="30.59" x2="29.9" xlink:href="#m" y1="14.04" y2="12.86"/><linearGradient id="w" x1="30.459999" x2="30.459999" xlink:href="#m" y1="13.83" y2="14.92"/><linearGradient id="x" x1="15.390001" x2="17.61" xlink:href="#l" y1="20.835061" y2="18.615062"/><linearGradient id="y" x1="19.129999" x2="18.540001" xlink:href="#m" y1="19.719999" y2="18.709999"/><linearGradient id="z" x1="19.02" x2="19.02" xlink:href="#m" y1="19.549999" y2="20.469999"/><linearGradient id="A" x1="9.95" x2="12.63" xlink:href="#l" y1="14.535062" y2="11.855062"/><linearGradient id="B" x1="14.25" x2="13.52" xlink:href="#m" y1="13.19" y2="11.93"/><linearGradient id="C" x1="14.1" x2="14.1" xlink:href="#m" y1="13" y2="14.03"/><linearGradient id="D" gradientTransform="translate(-.89 -.304938)" gradientUnits="userSpaceOnUse" x2="31.780001" xlink:href="#a" y1="16" y2="16"/><linearGradient id="E" gradientUnits="userSpaceOnUse" x1="16.110001" x2="28.280001" xlink:href="#c" y1="12.47" y2="12.47"/><linearGradient id="F" gradientTransform="matrix(.79 0 0 .81 130.37436 807.22248)" gradientUnits="userSpaceOnUse" x1="-138.55" x2="-136.45" xlink:href="#i" y1="-1000.62" y2="-1000.62"/><linearGradient id="G" gradientUnits="userSpaceOnUse" x1="19.09" x2="24.76" xlink:href="#l" y1="9.125062" y2="3.465062"/><linearGradient id="H" gradientUnits="userSpaceOnUse" x1="27.290001" x2="25.790001" xlink:href="#m" y1="5.85" y2="3.25"/><path d="m-.89-.194938h31.780001v31.780001h-31.780001z" fill="url(#D)" opacity="0"/><path d="m1.8 21.285062a10.41 10.41 0 0 0 1.85 1.51l.9-.29-.17.5v1.14s9 4.81 17.43 1.78c0 0 4.21-1.38 5.5-3.08v-.37s1.53-1.25 1.26-2.69a1.78 1.78 0 0 0 -1.66-2c-7.23-1.27-25.11 3.5-25.11 3.5z" fill="url(#b)"/><path d="m3.62 14.505062s-4.42-1.81-3.25-5.68 9.66-5.13 9.66-5.13 7.74-1.31 14.14 2.11l-12.85 5.75z" fill="#54c3f0"/><path d="m25.07 14.06-20.54 8.62v-7.89l10.32-5.29 10.21-3.39z" fill="#1d99d6" transform="translate(-.89 -.304938)"/><path d="m.16 10.395062-.16 7.76c1.11 3.73 3.64 4.22 3.64 4.22v-7.89c-2.72-1.53-3.37-3.18-3.48-4.09z" fill="#30a9e1"/><path d="m.16 10.465062v-.06-.47s-.05 2.76 3.47 4.49v.14s-3.13-1.26-3.47-4.1z" fill="#72cbf4"/><path d="m25.04 6.08-10.23 3.4-10.29 5.25.02.13 10.29-5.31 10.23-3.44v-.02z" fill="#72cbf4" transform="translate(-.89 -.304938)"/><path d="m15.24 10.505062 12.15 3.27a4 4 0 0 0 1.09-3.38c-.31-2.09-3.22-3.47-3.22-3.47z" fill="#81bd4f"/><path d="m28.52 11.245062a5.46 5.46 0 0 1 -1.13 2.45l-.05 8v.08a6.75 6.75 0 0 0 1.21-2v-8.54z" fill="#54a133"/><path d="m16.12 10.85v7.99l12.12 3.29.04-8.06z" fill="#61b23a" transform="translate(-.89 -.304938)"/><path d="m16.13 10.81-.02.07 12.17 3.24-.03-.15z" fill="url(#E)" transform="translate(-.89 -.304938)"/><path d="m28.52 11.175062a5.77 5.77 0 0 1 -1.16 2.52v.15a5.23 5.23 0 0 0 1.16-2.67z" fill="url(#d)"/><path d="m4.38 16.285062v.25a19.82 19.82 0 0 0 11 2.28c5.79-.71 10.65-2.75 11.16-3.59l.24-.4v-.13l-.08-.07-11.14 3z" fill="url(#e)"/><path d="m4.38 16.465062v7.63s3.56 2.6 10.73 2.38a20.08 20.08 0 0 0 11.64-3.93v-7.85s-2.36 2.76-9.56 3.68a23.33 23.33 0 0 1 -12.81-1.91z" fill="url(#f)"/><path d="m14.29 11.155062-9.91 5.13a19.56 19.56 0 0 0 8.83 2.09 25.51 25.51 0 0 0 8.9-1.26 14.82 14.82 0 0 0 4.6-2.52z" fill="url(#g)"/><path d="m12.03 26.56-11.09 3.74 1.15 1.19 12.26-4.7 2.44-1.7-1.64-.31z" fill="url(#h)" transform="translate(-.89 -.304938)"/><path d="m21.254364-9.237522h1.66v6.86h-1.66z" fill="url(#F)" transform="matrix(.70710678 .70710678 -.70710678 .70710678 0 0)"/><path d="m21.249939-2.376841h1.66v16.68h-1.66z" fill="url(#j)" transform="matrix(.70710678 .70710678 -.70710678 .70710678 0 0)"/><path d="m6.11 26.305062-1.2-1.17-4.8 4.86c-.12.12 0 .48.37.8s.67.48.8.37z" fill="url(#k)"/><path d="m21.6.51506198 2-.5s.34-.09.45.17 1.06 3.26000002 1.06 3.26000002l3.08 1.07s.36.17.09.57l-2.35 2 .52 3.27a.32.32 0 0 1 -.26.33l-2 .62-.67-3.77 1.69-1.84-2.9-1.45z" fill="#ecc12d"/><path d="m21 2.75-2.18.56 2.52.3 1.09-.72z" fill="#c39508" transform="translate(-.89 -.304938)"/><path d="m20.41 3.285062.95-2.59000002a.3.3 0 0 1 .57 0l1.18 3.28000002 3.13 1a.3.3 0 0 1 .07.51l-2.39 1.93.54 3.55a.3.3 0 0 1 -.52.23l-2.16-2.56-2.26.69a.29.29 0 0 1 -.41-.33l.4-3.06-1.79-2.46a.3.3 0 0 1 .28-.47z" fill="url(#G)"/><g transform="translate(-.89 -.304938)"><path d="m24 4.28 2.1-.51 2.98 1.05-1.89.5z" fill="url(#H)"/><path d="m24.82 7.72 2.05-.32 2.34-2.02-2.41.79z" fill="url(#n)"/><path d="m22.86 1.06 1.35 3.17 2.93 1.06-3.14-1.01z" fill="#fff3c0"/><path d="m25 7.69.36 3.54-.54-3.51z" fill="#fff3c0"/></g><path d="m22.34 14.165062 1.44-.37s.24-.06.31.12.79 2.39.79 2.39l2.2.78s.26.12.07.41l-1.68 1.45.37 2.39a.22.22 0 0 1 -.19.23l-1.45.46-.48-2.75 1.2-1.34-2.08-1.06z" fill="#ecc12d"/><path d="m22.16 15.88-1.56.4 1.8.22.78-.52z" fill="#c39508" transform="translate(-.89 -.304938)"/><path d="m21.48 16.175062.69-1.87a.21.21 0 0 1 .4 0l.85 2.39 2.23.73a.21.21 0 0 1 .06.37l-1.71 1.4.39 2.59a.22.22 0 0 1 -.38.17l-1.54-1.87-1.62.51a.22.22 0 0 1 -.28-.25l.29-2.23-1.3-1.8a.22.22 0 0 1 .2-.34z" fill="url(#o)"/><path d="m24.31 16.99 1.5-.38 2.14.77-1.36.37z" fill="url(#p)" transform="translate(-.89 -.304938)"/><path d="m24.89 19.5 1.47-.23 1.68-1.48-1.72.58z" fill="url(#q)" transform="translate(-.89 -.304938)"/><path d="m23.49 14.64.97 2.31 2.09.78-2.24-.74z" fill="#fff3c0" transform="translate(-.89 -.304938)"/><path d="m25.02 19.48.26 2.58-.39-2.56z" fill="#fff3c0" transform="translate(-.89 -.304938)"/><path d="m13.83 2.615062 1.35-.34s.22-.06.3.12.73 2.22.73 2.22l2.06.73s.24.11.06.39l-1.57 1.35.35 2.23a.21.21 0 0 1 -.17.22l-1.35.43-.48-2.57 1.12-1.25-1.94-1z" fill="#ecc12d"/><path d="m13.72 4.24-1.45.38 1.69.21.73-.5z" fill="#c39508" transform="translate(-.89 -.304938)"/><path d="m13.03 4.505062.64-1.76a.21.21 0 0 1 .39 0l.79 2.22 2.08.73a.2.2 0 0 1 .05.35l-1.59 1.28.36 2.37a.2.2 0 0 1 -.35.16l-1.44-1.71-1.52.48a.21.21 0 0 1 -.26-.23l.28-2.08-1.22-1.68a.2.2 0 0 1 .19-.32z" fill="url(#r)"/><path d="m15.73 5.28 1.41-.35 1.99.71-1.26.35z" fill="url(#s)" transform="translate(-.89 -.304938)"/><path d="m16.28 7.63 1.37-.22 1.57-1.38-1.61.54z" fill="url(#t)" transform="translate(-.89 -.304938)"/><path d="m14.97 3.09.9 2.16 1.96.72-2.1-.69z" fill="#fff3c0" transform="translate(-.89 -.304938)"/><path d="m16.4 7.61.24 2.41-.36-2.39z" fill="#fff3c0" transform="translate(-.89 -.304938)"/><path d="m27.51 11.425062.92-.24s.15 0 .2.08l.48 1.51 1.4.5s.17.07 0 .26l-1.06.92.23 1.51s0 .11-.12.15l-.91.29-.26-1.71.76-.85-1.32-.67z" fill="#ecc12d"/><path d="m27.72 12.62-.99.25 1.15.15.5-.34z" fill="#c39508" transform="translate(-.89 -.304938)"/><path d="m26.97 12.695062.43-1.19a.14.14 0 0 1 .26 0l.54 1.51 1.42.47a.13.13 0 0 1 0 .23l-1.08.9.24 1.64a.14.14 0 0 1 -.24.11l-1-1.19-1 .32a.14.14 0 0 1 -.18-.15l.19-1.42-.83-1.14a.14.14 0 0 1 .13-.22z" fill="url(#u)"/><path d="m29.09 13.32.95-.23 1.36.48-.86.23z" fill="url(#v)" transform="translate(-.89 -.304938)"/><path d="m29.46 14.92.93-.15 1.07-.94-1.1.37z" fill="url(#w)" transform="translate(-.89 -.304938)"/><path d="m28.57 11.84.61 1.46 1.33.49-1.42-.47z" fill="#fff3c0" transform="translate(-.89 -.304938)"/><path d="m29.54 14.9.17 1.64-.25-1.62z" fill="#fff3c0" transform="translate(-.89 -.304938)"/><path d="m16.37 17.435062.78-.2s.13 0 .18.07.42 1.29.42 1.29l1.2.43s.14.06 0 .22l-.91.79.2 1.29a.13.13 0 0 1 -.1.13l-.78.25-.25-1.49.65-.73-1.12-.57z" fill="#ecc12d"/><path d="m16.68 18.51-.85.22.99.12.42-.29z" fill="#c39508" transform="translate(-.89 -.304938)"/><path d="m15.91 18.535062.37-1a.11.11 0 0 1 .22 0l.46 1.29 1.21.4a.11.11 0 0 1 0 .2l-.93.76.21 1.41a.11.11 0 0 1 -.2.09l-.84-1-.88.28a.12.12 0 0 1 -.15-.13l.16-1.21-.71-1a.11.11 0 0 1 .11-.18z" fill="url(#x)"/><path d="m17.85 19.11.82-.2 1.15.41-.73.2z" fill="url(#y)" transform="translate(-.89 -.304938)"/><path d="m18.16 20.47.8-.12.91-.8-.93.31z" fill="url(#z)" transform="translate(-.89 -.304938)"/><path d="m17.4 17.84.53 1.25 1.14.42-1.22-.4z" fill="#fff3c0" transform="translate(-.89 -.304938)"/><path d="m18.24 20.46.14 1.4-.22-1.39z" fill="#fff3c0" transform="translate(-.89 -.304938)"/><path d="m11.11 10.445062.94-.24s.16 0 .21.08.51 1.55.51 1.55l1.37.6s.17.08 0 .27l-1 .86.24 1.55a.16.16 0 0 1 -.12.16l-.95.3-.31-1.8.78-.87-1.36-.69z" fill="#ecc12d"/><path d="m11.32 11.66-1.01.27 1.18.14.51-.34z" fill="#c39508" transform="translate(-.89 -.304938)"/><path d="m10.57 11.755062.45-1.22a.14.14 0 0 1 .27 0l.55 1.55 1.39.57a.14.14 0 0 1 0 .24l-1.01.8.25 1.69a.14.14 0 0 1 -.24.11l-1-1.22-1.06.33a.14.14 0 0 1 -.18-.16l.19-1.45-.85-1.18a.14.14 0 0 1 .13-.22z" fill="url(#A)"/><path d="m12.73 12.39.98-.24 1.33.58-.89.24z" fill="url(#B)" transform="translate(-.89 -.304938)"/><path d="m13.11 14.03.96-.15 1.03-.88-1.06.29z" fill="url(#C)" transform="translate(-.89 -.304938)"/><path d="m12.2 10.86.63 1.51 1.3.59-1.4-.57z" fill="#ffe86b" transform="translate(-.89 -.304938)"/><path d="m13.2 14.02.17 1.68-.26-1.67z" fill="#ffe86b" transform="translate(-.89 -.304938)"/><text fill="#010101" font-family="Arial-BoldMT, Arial" font-size="8.94" font-weight="700" x="37.010002" y="10.235063">Mini<tspan letter-spacing="-.07em" x="54.880001" y="10.235063">T</tspan><tspan letter-spacing="0em" x="59.68" y="10.235063">ool</tspan></text><text fill="#010101" font-family="Arial-BoldMT, Arial" font-size="11.92" font-weight="700" x="36.52" y="25.125061">Partition <tspan letter-spacing="-.01em" x="88.160004" y="25.125061">W</tspan><tspan letter-spacing="0em" x="99.300003" y="25.125061">izard</tspan></text></svg>