<svg xmlns="http://www.w3.org/2000/svg" width="117" height="35" viewBox="-0.08 0 162.08 51"><path fill="#00ADE6" d="M121.775 50.168c-1.597 0-3.047-.319-4.433-.971a1.858 1.858 0 01-1.111-1.723c0-1.029.839-1.834 1.91-1.834.304 0 .528.091.692.159l.059.022c1.131.493 2.039.706 2.978.706.934 0 1.881-.486 1.881-1.409 0-.741-.219-1.211-1.418-1.721l-2.889-1.191c-2.133-.901-3.212-2.474-3.212-4.675 0-2.908 2.461-5.018 5.853-5.018 1.477 0 2.821.274 4.108.838.721.33 1.161 1.005 1.161 1.763 0 1.009-.839 1.804-1.909 1.804-.301 0-.556-.089-.722-.155a6.865 6.865 0 00-2.884-.609c-.296 0-1.786.061-1.786 1.285 0 .604.337 1.048 1.005 1.319l2.892 1.161c2.265.899 3.621 2.719 3.621 4.864-.003 3.068-2.492 5.385-5.796 5.385zm-7.427-25.832a1.905 1.905 0 01-1.909-1.896v-9.793a2.32 2.32 0 00-2.311-2.326c-.823 0-1.638.226-2.341.642V22.44a1.892 1.892 0 01-1.88 1.896 1.906 1.906 0 01-1.911-1.896V11.636c0-.964-1.142-1.315-1.91-1.315-.979 0-1.864.113-2.744.356V22.44a1.907 1.907 0 01-1.909 1.896 1.908 1.908 0 01-1.911-1.896V9.741c0-.939.58-1.768 1.474-2.114 1.748-.646 3.363-.945 5.09-.945 1.417 0 2.723.42 3.742 1.196a8.518 8.518 0 014.299-1.196c3.381 0 6.132 2.744 6.132 6.118v9.64a1.906 1.906 0 01-1.911 1.896zm-29.95-10.953h5.333v-.399c0-1.717-.942-2.662-2.65-2.662-1.753 0-2.683.921-2.683 2.662v.399zm2.684 10.953c-3.825 0-6.501-2.656-6.501-6.455v-4.745c0-3.799 2.676-6.454 6.501-6.454 3.811 0 6.469 2.655 6.469 6.454v1.591a2.306 2.306 0 01-2.309 2.296h-6.843v.858c0 1.789.979 2.815 2.683 2.815.947 0 1.952-.251 3.163-.784.209-.083.455-.165.781-.165 1.07 0 1.908.807 1.908 1.836 0 .724-.397 1.353-1.06 1.683-1.466.711-3.076 1.07-4.792 1.07zm-26.866-4.407c.682.509 1.583.767 2.679.767 1.708 0 2.65-.946 2.65-2.664v-5.048c0-1.717-.942-2.662-2.65-2.662-.906 0-1.787.104-2.679.318v9.289zm-1.912 10.925a1.905 1.905 0 01-1.91-1.898V9.649c0-.962.608-1.804 1.551-2.149 1.546-.544 3.208-.818 4.95-.818 3.809 0 6.47 2.655 6.47 6.454v4.745c0 3.8-2.661 6.455-6.47 6.455a8.097 8.097 0 01-2.679-.458v5.078a1.908 1.908 0 01-1.912 1.898zm15.097-6.518a1.905 1.905 0 01-1.909-1.896V11.76c0-2.943 2.061-5.078 4.898-5.078.759 0 1.542.084 2.394.263.86.159 1.518.955 1.518 1.847 0 1.03-.838 1.834-1.909 1.834-.195 0-.374-.039-.517-.071l-.15-.031a7.076 7.076 0 00-1.337-.141c-.665 0-1.079.494-1.079 1.286V22.44a1.906 1.906 0 01-1.909 1.896zm47.542-19.277a2.259 2.259 0 01-2.249-2.263 2.244 2.244 0 012.249-2.233 2.244 2.244 0 012.251 2.233 2.258 2.258 0 01-2.251 2.263zm0 19.277a1.905 1.905 0 01-1.909-1.896V8.577c0-1.044.857-1.895 1.909-1.895 1.055 0 1.911.851 1.911 1.895V22.44a1.906 1.906 0 01-1.911 1.896zm11.184 0c-3.948 0-6.5-2.537-6.5-6.455V8.577c0-1.044.856-1.895 1.91-1.895 1.053 0 1.909.851 1.909 1.895v9.455c0 1.742.926 2.664 2.681 2.664.882 0 1.785-.109 2.652-.318v-11.8c0-1.044.855-1.895 1.909-1.895 1.055 0 1.909.851 1.909 1.895v12.791c0 .97-.635 1.858-1.544 2.158a15.67 15.67 0 01-4.926.809zm27.884 0a1.907 1.907 0 01-1.909-1.896v-9.793a2.321 2.321 0 00-2.312-2.326c-.82 0-1.64.226-2.34.642V22.44a1.891 1.891 0 01-1.881 1.896 1.905 1.905 0 01-1.908-1.896V11.636c0-.964-1.143-1.315-1.911-1.315-.976 0-1.863.113-2.744.356V22.44c0 1.044-.856 1.896-1.909 1.896s-1.91-.852-1.91-1.896V9.741c0-.939.578-1.768 1.475-2.114 1.746-.646 3.36-.945 5.088-.945 1.418 0 2.722.42 3.741 1.196a8.533 8.533 0 014.3-1.196c3.38 0 6.13 2.744 6.13 6.118v9.64a1.906 1.906 0 01-1.91 1.896zM75.219 50.168a1.907 1.907 0 01-1.911-1.898v-9.792a2.319 2.319 0 00-2.311-2.324c-.819 0-1.638.225-2.34.643V48.27a1.89 1.89 0 01-1.878 1.898 1.907 1.907 0 01-1.912-1.898v-10.8c0-.966-1.141-1.316-1.91-1.316-.975 0-1.862.113-2.74.354V48.27a1.908 1.908 0 01-1.912 1.898 1.905 1.905 0 01-1.91-1.898V35.572c0-.937.58-1.768 1.476-2.114 1.745-.645 3.359-.945 5.087-.945 1.42 0 2.725.421 3.744 1.194 1.312-.772 2.815-1.194 4.297-1.194 3.382 0 6.131 2.744 6.131 6.119v9.638a1.91 1.91 0 01-1.911 1.898zm6.595-19.277a2.26 2.26 0 01-2.25-2.265 2.243 2.243 0 012.25-2.233 2.242 2.242 0 012.247 2.233 2.259 2.259 0 01-2.247 2.265zm0 19.277a1.905 1.905 0 01-1.91-1.898V34.41c0-1.045.855-1.896 1.91-1.896 1.049 0 1.911.851 1.911 1.896v13.86a1.909 1.909 0 01-1.911 1.898zm15.898 0a1.904 1.904 0 01-1.908-1.898v-9.455c0-1.717-.942-2.661-2.65-2.661-.915 0-1.812.105-2.683.315V48.27a1.906 1.906 0 01-1.909 1.898 1.907 1.907 0 01-1.911-1.898V35.48c0-.96.611-1.806 1.551-2.15 1.512-.543 3.178-.817 4.952-.817 3.809 0 6.467 2.654 6.467 6.455v9.301a1.906 1.906 0 01-1.909 1.899zm10.199-14.014c-1.71 0-2.65.944-2.65 2.661v5.049c0 1.717.94 2.662 2.65 2.662.914 0 1.812-.108 2.681-.316v-9.291c-.684-.51-1.584-.765-2.681-.765zm0 14.013c-3.809 0-6.47-2.654-6.47-6.458v-4.741c0-3.862 2.6-6.455 6.47-6.455.914 0 1.81.154 2.681.457v-4.68c0-1.047.857-1.897 1.909-1.897 1.054 0 1.911.85 1.911 1.897V47.2c0 .978-.654 1.869-1.589 2.162a15.389 15.389 0 01-4.912.805zm-60.25-30.474v-1.519c0-4.144-2.453-7.718-5.994-9.373L28.523 2.264l-.021-.002a10.44 10.44 0 00-4.753-1.138c-1.676 0-3.258.394-4.661 1.091l-.008.001L5.735 8.888c-.74.363-1.428.814-2.056 1.335l.001.008a1.515 1.515 0 00-.519 1.139c0 .577.325 1.074.8 1.335l.014.007.158.079 10.949 5.417a3.876 3.876 0 003.57-.157l3.397-1.68h.003a3.852 3.852 0 011.722-.403l.015.001v-.001a3.862 3.862 0 011.74.42l.008.001 4.856 2.415a3.823 3.823 0 012.214 3.462v4.862a3.822 3.822 0 01-2.148 3.431l-.002.004-4.927 2.46h-.003a3.855 3.855 0 01-1.722.403l-.015-.001v.001a3.866 3.866 0 01-1.741-.42h-.007l-4.856-2.415-14.668-6.977-.005.003a1.805 1.805 0 00-2.592 1.621V47a3.012 3.012 0 003.023 3.002c.881 0 1.672-.377 2.225-.974l4.408-4.376a2.969 2.969 0 013.335-.461l6.147 3.057.02.003a10.445 10.445 0 004.753 1.139c1.676 0 3.258-.395 4.662-1.092l.009-.001 13.337-6.66.007-.012c3.445-1.691 5.815-5.213 5.815-9.286l-.001-11.646z"/></svg>