<svg height="53.5" viewBox="0 0 325.80131 53.5" width="325.8013" xmlns="http://www.w3.org/2000/svg" xmlns:xlink="http://www.w3.org/1999/xlink"><defs><clipPath id="a"><use height="100%" width="100%" xlink:href="#e"/></clipPath><clipPath id="b"><use height="100%" width="100%" xlink:href="#f"/></clipPath><clipPath id="c"><use height="100%" width="100%" xlink:href="#g"/></clipPath><clipPath id="d"><use height="100%" width="100%" xlink:href="#h"/></clipPath><path id="e" d="m167.7 33.5.9 1.1.1.1.1.2c.6-3.4 2.1-6.5 4.1-9.1-.7 1.3-1 2.7-.9 4-1.4 1.6-2.4 3.4-3.1 5.3l.4.5c.7-1.7 1.6-3.3 2.8-4.8.4 1.9 1.7 3.8 3.8 5.4-.9 1.7-1.6 3.4-2.1 5.2l1.2 1.5c.5-1.9 1.2-3.9 2.1-5.8 2.3 1.5 5.1 2.5 8.1 3-.4 2.7-.7 5.5-.9 8-.2 0-.5-.1-.7-.1.2.1.4.2.7.3.6.2 1.2.5 1.8.7.7.2 1.4.5 2.2.7 3 .1 6-.1 8.8-.7.1 1 .1 1.9.1 2.8.6.1 1.2.2 1.8.2 0-.3 0-.5 0-.8 0-.9 0-1.8-.1-2.8 1.9-.5 3.6-1.3 5.2-2.2 1.4-.8 2.5-1.6 3.5-2.5.1.9.2 1.8.2 2.7 0 1.4-.2 2.8-.6 3.9-.7.7-1.5 1.3-2.4 1.9h.5.4c.4-.3.9-.7 1.2-1-.1.3-.3.7-.5 1h.4c.5-.1 1.1-.1 1.6-.2 2.6-3.7 4.1-8.2 4.1-13 0-12.6-10.2-22.8-22.8-22.8-4.3 0-8.3 1.2-11.7 3.2h.4l-3.4 2.1c-3.5 3-6.2 7.2-7.3 12zm6.2-8.9c.5-.5 1-1.1 1.5-1.5 1.3-.9 2.9-1.5 4.7-1.9-.9 1.1-1.3 2.3-1.2 3.4-2.4 1.2-4.5 2.7-6.2 4.5-.1-1.5.3-3.1 1.2-4.5zm2.6 10.6c-2-1.5-3.2-3.3-3.6-5.2 1.7-1.9 3.8-3.5 6.2-4.8.3 1.2 1 2.3 2.3 3.3-1.9 2.1-3.6 4.4-4.9 6.7zm8.9 3.7c-2.9-.5-5.6-1.4-7.8-2.9 1.2-2.5 2.7-4.8 4.5-7 1.4.9 3.1 1.5 5 1.8-.7 2.6-1.3 5.3-1.7 8.1zm2.6-7.9c1.9.2 3.8.1 5.6-.3.8 2.5 1.5 5.2 2.1 7.9-2.8.6-5.9.8-8.8.5.3-2.8.6-5.5 1.1-8.1zm-1.9 17.4c.1-2.6.3-5.3.6-8.1 3.1.3 6.2.2 9.2-.5.5 2.7.9 5.4 1.1 8-3.5.8-7.2 1-10.9.6zm8.4-17.9c1-.3 1.9-.6 2.7-1.1.7-.4 1.3-.8 1.8-1.3 2 1.9 3.8 4.1 5.2 6.4-.8.7-1.7 1.4-2.8 2-1.3.7-2.7 1.3-4.2 1.7-.8-2.6-1.7-5.3-2.7-7.7zm11.3-5.8c.5.9.9 1.7 1.1 2.6-1.7-1.6-3.8-2.9-6.2-3.8-.2-1.2-.9-2.3-2.2-3.3 1 .1 1.9.3 2.7.7 1.8 1 3.3 2.3 4.6 3.8zm1.2 3.6c.1 1.9-.6 3.7-2 5.4-1.5-2.2-3.4-4.3-5.5-6.1.9-1.1 1.3-2.2 1.3-3.4 2.4 1 4.5 2.4 6.2 4.1zm-3 16.9c-1.6.9-3.3 1.6-5.2 2.2-.3-2.5-.7-5.2-1.4-7.9 1.6-.5 3-1.1 4.4-1.8 1.1-.6 2.1-1.3 2.9-2.1 1.3 2.3 2.3 4.8 2.8 7.2-1 .8-2.1 1.6-3.5 2.4zm1.6-10.6c1.5-1.7 2.2-3.7 2.1-5.6 1.3 1.4 2.3 3 2.9 4.7.2.7.3 1.4.4 2.1-.1 2-1 4-2.5 5.8-.5-2.3-1.6-4.7-2.9-7zm3.3 14c-.2.2-.4.5-.6.7.4-1.2.6-2.5.6-4 0-.9-.1-1.8-.2-2.7 1.4-1.6 2.2-3.5 2.5-5.3 0 .5.1 1 .1 1.5-.1 3.6-.9 6.9-2.4 9.8zm.8-17.7c-.6-1-1.3-2-2.1-2.9-.1-.7-.4-1.4-.7-2.1 1.1 1.5 2 3.2 2.8 5zm-19.1-9.3c.1 0 .1 0 0 0 2.6-1 5-1.5 7.1-1.4 1.1.9 1.7 1.9 1.9 3-2.6-.9-5.6-1.3-8.8-1.2v.1c3.2.1 6.2.7 8.8 1.7 0 1.1-.3 2.1-1.2 3.1-2.3-1.9-5-3.4-7.8-4.5v.1c2.6 1.2 5.1 2.9 7.4 4.9-.4.4-1 .8-1.6 1.2-.7.4-1.6.8-2.4 1-1.1-2.6-2.4-4.9-3.8-6.8h-.1c1.1 2 2.1 4.4 3 7-1.6.4-3.4.5-5.1.3.5-2.7 1-5.2 1.5-7.3h-.1c-.8 2-1.6 4.5-2.3 7.2-1.7-.3-3.2-.8-4.5-1.7 1.9-2.2 4.1-4.2 6.3-5.7-2.5 1.4-4.8 3.2-6.9 5.3-1.1-.9-1.8-1.9-2.1-3 2.6-1.3 5.6-2.2 8.7-2.6 0 0 0 0 0-.1-3.2.2-6.2 1-8.8 2.1-.1-1.1.3-2.1 1-3.1 2.4-.3 5.1-.1 7.9.7 0 0 0 0 0-.1-2.7-.9-5.2-1.3-7.5-1.1.5-.5 1.1-.9 1.7-1.3.7-.4 1.4-.7 2.2-.9 1.2.4 2.5 1.4 4 3.1h.1c-1.2-1.7-2.3-2.8-3.2-3.3 1.6-.4 3.4-.5 5.1-.3-.4.6-.8 1.8-1.3 3.6h.1c.7-1.8 1.5-3 2.1-3.5 1.8.3 3.5.9 4.9 1.8h.8c-1.5-1-3.4-1.7-5.4-2 2.7.3 5.3 1.2 7.6 2.4-2.5-1-5.7-.6-9.3 1.3zm-2.3-4c-.8.1-1.6.2-2.4.4-.1 0-.1 0-.2 0 .8-.3 1.7-.4 2.6-.4zm-3.7.5c.1 0 .2 0 .3.1-.9.3-1.7.6-2.4 1-.8.4-1.4.9-1.9 1.4-1.3.2-2.5.6-3.6 1.1 2.2-1.6 4.8-2.9 7.6-3.6z"/><path id="f" d="m197 59.1c.6-.6 1.1-1.5 1.5-2.8-.5-.1-1-.2-1.6-.3-.5-.1-1-.2-1.5-.3-3 .5-6.2.6-9.3.3-.1-.8-.1-1.7-.1-2.7-.6-.2-1.3-.4-1.9-.7 0 1.2.1 2.2.2 3.1-3.5-.6-6.8-1.8-9.6-3.5-.3-1.1-.5-2.4-.5-3.9-.2-.1-.4-.2-.6-.3l-.7-.1c0 1.2.2 2.3.5 3.3-1.1-.9-2-1.8-2.7-2.7-.1-.3-.3-.6-.4-.9h-.2-.2l-1.2-.1c3.4 8.3 11.6 14.1 21.1 14.1 5.3 0 10.2-1.8 14.1-4.9-.7 0-1.4-.1-2.1-.1-1.5 1-3.1 1.9-4.8 2.5zm-.1-3c-.3 1.6-.8 2.8-1.4 3.4-2.8.6-5.7.8-8.6.4-.3-.6-.5-1.7-.7-3.3 3.5.5 7.2.3 10.7-.5zm-12.5.4c.2 1.6.6 2.7 1 3.3-.6-.1-1.2-.2-1.8-.4-2.7-.8-5.2-2.2-7.3-3.9-.5-.7-1-1.6-1.3-2.5 2.7 1.7 5.9 2.9 9.4 3.5zm-12.9-6.5c.6.7 1.3 1.4 2.1 2 .3.7.6 1.4 1 2-1.1-1.2-2.2-2.5-3.1-4z"/><path id="g" d="m217.9 41.5.8-1.3 1-1.8-6.8-4.4c.8 1.7 1.3 3.6 1.7 5.5.7 3.5.8 6.6.8 6.6l1.3-2.3c1.1 3.9-.6 7-4.8 8.6-.6.2-1.2.4-1.9.6-.9.2-1.8.4-2.7.5-.5.1-1.1.1-1.6.2h-.1c-.1 0-.2 0-.4 0-.7.1-1.4.1-2.1.1-.5 0-.9 0-1.4 0-.9 0-1.9-.1-2.8-.1-.6 0-1.2-.1-1.8-.2-3.5-.4-7.2-1.3-11.1-2.7-.6-.2-1.2-.5-1.9-.7-1.1-.4-2.1-.9-3.2-1.4l-2.5.1c1.9.9 3.8 1.7 5.7 2.5.6.2 1.3.5 1.9.7 3.7 1.3 7.4 2.2 11 2.8.6.1 1.1.2 1.7.3.4.1.9.1 1.3.1 1.1.1 2.2.2 3.3.3h2c2.6 0 5-.3 7.1-.8.7-.2 1.4-.4 2.1-.6 6.3-2.3 7.1-7.1 3.4-12.6z"/><path id="h" d="m169.4 46.2h.3l1 .1 2.3.2 1.1.1h.3l2 .2-.3-.4-.6-.7-.8-1.1-1.2-1.6-.2-.2-4.3-5.5-.1-.1-.3-.4v-.1-.1l-.5-.7-.4 2.7-.2 1.6c-.1 0-.1-.1-.2-.2-.4-.3-.7-.6-1.1-.9-7.7-6.7-8.7-13.4-1.4-16.1.6-.2 1.2-.4 1.9-.6 1.6-.4 3.4-.6 5.3-.6.6-.5 1.5-1.1 2.5-1.7-3.8-.3-7.4-.1-10.3.5-.7.2-1.5.4-2.1.6-8.7 3.3-6.8 11.7 3.9 19.8.4.3.8.6 1.3.9l-.2 1.5-.3 2.1 1.8.2z"/></defs><g transform="translate(-3.2 -8.1)"><g fill="#2e62ab"><g><path d="m20.2 47.7c-3 0-5.4-.8-7.2-2.6v12.1h-9.8v-38.5h8.9v2.9c1.8-2.4 4.5-3.6 8.1-3.6 7.9 0 13.6 6.2 13.6 14.8-.1 8.6-5.8 14.9-13.6 14.9zm-2-20.9c-3 0-5.5 2.1-5.5 5.9s2.5 6.1 5.5 6.1 5.5-2.2 5.5-6c.1-3.8-2.4-6-5.5-6z"/><path d="m57.5 27.3h-2.3c-4.5 0-6.7 2-6.7 6.8v12.9h-9.7v-28.3h8.9v3c1.8-2.2 4.2-3.5 7.1-3.5 1 0 1.9.2 2.8.5v8.6z"/><path d="m75 18c8.4-.2 15.6 6.7 15.5 14.8.2 8.1-7 15-15.5 14.8-8.4.2-15.6-6.7-15.4-14.8-.2-8.1 7-15 15.4-14.8zm.1 8.9c-3.2 0-5.5 2.4-5.5 5.9 0 3.6 2.3 5.9 5.5 5.9s5.4-2.5 5.4-5.9-2.3-5.9-5.4-5.9z"/><path d="m111.6 47-4.9-7.4-4.8 7.4h-10.8l10.2-14.5-9.7-13.8h10.8l4.2 6.7 4.3-6.7h10.8l-9.7 13.8 10.4 14.5z"/><path d="m154.6 18.7-13.3 29.8c-2.9 6.4-6.5 9.3-12.3 9.3-1.8 0-3.6-.2-5.4-.7v-8.1c1.8.1 2.9.1 3.3.1 2.7 0 4.4-.6 5.5-3.3l.5-1-10.4-26.2h10.4l5.4 15.9 6.1-15.9h10.2z"/></g><g><use height="100%" width="100%" xlink:href="#e"/><path clip-path="url(#a)" d="m177 18.1h.3v3.7h-.3z"/><path clip-path="url(#a)" d="m177.2 18.1h.4v3.7h-.4z"/><path clip-path="url(#a)" d="m177.60001 18.1h.4v3.7h-.4z"/><path clip-path="url(#a)" d="m177.89999 18.1h.4v3.7h-.4z"/><path clip-path="url(#a)" d="m178.3 18.1h.4v3.7h-.4z"/><path clip-path="url(#a)" d="m178.60001 18.1h.4v3.7h-.4z"/><path clip-path="url(#a)" d="m179 18.1h.4v3.7h-.4z"/><path clip-path="url(#a)" d="m179.3 18.1h.4v3.7h-.4z"/><path clip-path="url(#a)" d="m179.7 18.1h.4v3.7h-.4z"/><path clip-path="url(#a)" d="m180 18.1h.4v3.7h-.4z"/><path clip-path="url(#a)" d="m180.39999 18.1h.4v3.7h-.4z"/><path clip-path="url(#a)" d="m180.8 18.1h.4v3.7h-.4z"/><path clip-path="url(#a)" d="m181.10001 18.1h.4v3.7h-.4z"/><path clip-path="url(#a)" d="m181.5 18.1h.4v3.7h-.4z"/><path clip-path="url(#a)" d="m181.8 18.1h.4v3.7h-.4z"/><path clip-path="url(#a)" d="m182.2 18.1h.4v3.7h-.4z"/><path clip-path="url(#a)" d="m182.5 18.1h.4v3.7h-.4z"/><path clip-path="url(#a)" d="m182.89999 18.1h.4v3.7h-.4z"/><path clip-path="url(#a)" d="m183.2 18.1h.4v3.7h-.4z"/><path clip-path="url(#a)" d="m183.60001 18.1h.4v3.7h-.4z"/><path clip-path="url(#a)" d="m183.89999 18.1h.4v3.7h-.4z"/><path clip-path="url(#a)" d="m184.3 18.1h.4v3.7h-.4z"/><path clip-path="url(#a)" d="m184.60001 18.1h.3v3.7h-.3z"/><path clip-path="url(#a)" d="m185.7 17.6h.4v.4h-.4z"/><path clip-path="url(#a)" d="m186.10001 17.6h.4v.4h-.4z"/><path clip-path="url(#a)" d="m186.39999 17.6h.4v.4h-.4z"/><path clip-path="url(#a)" d="m186.8 17.6h.4v.4h-.4z"/><path clip-path="url(#a)" d="m187.10001 17.6h.4v.4h-.4z"/><path clip-path="url(#a)" d="m187.5 17.6h.4v.4h-.4z"/><path clip-path="url(#a)" d="m187.8 17.6h.4v.4h-.4z"/><path clip-path="url(#a)" d="m188.2 17.6h.1v.4h-.1z"/><path clip-path="url(#a)" d="m179.89999 17.6h.1v12.5h-.1z"/><path clip-path="url(#a)" d="m180 17.6h.4v12.5h-.4z"/><path clip-path="url(#a)" d="m180.39999 17.6h.4v12.5h-.4z"/><path clip-path="url(#a)" d="m180.8 17.6h.4v12.5h-.4z"/><path clip-path="url(#a)" d="m181.10001 17.6h.4v12.5h-.4z"/><path clip-path="url(#a)" d="m181.5 17.6h.4v12.5h-.4z"/><path clip-path="url(#a)" d="m181.8 17.6h.4v12.5h-.4z"/><path clip-path="url(#a)" d="m182.2 17.6h.4v12.5h-.4z"/><path clip-path="url(#a)" d="m182.5 17.6h.4v12.5h-.4z"/><path clip-path="url(#a)" d="m182.89999 17.6h.4v12.5h-.4z"/><path clip-path="url(#a)" d="m183.2 17.6h.4v12.5h-.4z"/><path clip-path="url(#a)" d="m183.60001 17.6h.4v12.5h-.4z"/><path clip-path="url(#a)" d="m183.89999 17.6h.4v12.5h-.4z"/><path clip-path="url(#a)" d="m184.3 17.6h.4v12.5h-.4z"/><path clip-path="url(#a)" d="m184.60001 17.6h.4v12.5h-.4z"/><path clip-path="url(#a)" d="m185 17.6h.4v12.5h-.4z"/><path clip-path="url(#a)" d="m185.39999 17.6h.4v12.5h-.4z"/><path clip-path="url(#a)" d="m185.7 17.6h.4v12.5h-.4z"/><path clip-path="url(#a)" d="m186.10001 17.6h.4v12.5h-.4z"/><path clip-path="url(#a)" d="m186.39999 17.6h.4v12.5h-.4z"/><path clip-path="url(#a)" d="m186.8 17.6h.4v12.5h-.4z"/><path clip-path="url(#a)" d="m187.10001 17.6h.4v12.5h-.4z"/><path clip-path="url(#a)" d="m187.5 17.6h.4v12.5h-.4z"/><path clip-path="url(#a)" d="m187.8 17.6h.4v12.5h-.4z"/><path clip-path="url(#a)" d="m188.2 17.6h.4v12.5h-.4z"/><path clip-path="url(#a)" d="m188.5 17.6h.4v12.5h-.4z"/><path clip-path="url(#a)" d="m188.89999 17.6h.4v12.5h-.4z"/><path clip-path="url(#a)" d="m189.2 17.6h.4v12.5h-.4z"/><path clip-path="url(#a)" d="m189.60001 17.6h.4v12.5h-.4z"/><path clip-path="url(#a)" d="m190 17.6h.4v12.5h-.4z"/><path clip-path="url(#a)" d="m190.3 17.6h.4v12.5h-.4z"/><path clip-path="url(#a)" d="m190.7 17.6h.4v12.5h-.4z"/><path clip-path="url(#a)" d="m191 17.6h.4v12.5h-.4z"/><path clip-path="url(#a)" d="m191.39999 17.6h.4v12.5h-.4z"/><path clip-path="url(#a)" d="m191.7 17.6h.4v12.5h-.4z"/><path clip-path="url(#a)" d="m192.10001 17.6h.4v12.5h-.4z"/><path clip-path="url(#a)" d="m192.39999 17.6h.4v12.5h-.4z"/><path clip-path="url(#a)" d="m192.8 17.6h.4v12.5h-.4z"/><path clip-path="url(#a)" d="m193.10001 17.6h.4v12.5h-.4z"/><path clip-path="url(#a)" d="m193.5 17.6h.4v12.5h-.4z"/><path clip-path="url(#a)" d="m193.8 17.6h.4v12.5h-.4z"/><path clip-path="url(#a)" d="m194.2 17.6h.4v12.5h-.4z"/><path clip-path="url(#a)" d="m194.60001 17.6h.4v12.5h-.4z"/><path clip-path="url(#a)" d="m194.89999 17.6h.4v12.5h-.4z"/><path clip-path="url(#a)" d="m195.3 17.6h.4v12.5h-.4z"/><path clip-path="url(#a)" d="m195.60001 17.6h.4v12.5h-.4z"/><path clip-path="url(#a)" d="m196 17.6h.4v12.5h-.4z"/><path clip-path="url(#a)" d="m196.3 17.6h.4v12.5h-.4z"/><path clip-path="url(#a)" d="m196.7 17.6h.4v12.5h-.4z"/><path clip-path="url(#a)" d="m197 17.6h.4v12.5h-.4z"/><path clip-path="url(#a)" d="m197.39999 17.6h.4v12.5h-.4z"/><path clip-path="url(#a)" d="m197.7 17.6h.4v12.5h-.4z"/><path clip-path="url(#a)" d="m198.10001 17.6h.4v12.5h-.4z"/><path clip-path="url(#a)" d="m198.39999 17.6h.4v12.5h-.4z"/><path clip-path="url(#a)" d="m198.8 17.6h.4v12.5h-.4z"/><path clip-path="url(#a)" d="m199.2 17.6h.4v12.5h-.4z"/><path clip-path="url(#a)" d="m199.5 17.6h.4v12.5h-.4z"/><path clip-path="url(#a)" d="m199.89999 17.6h.2v12.5h-.2z"/><path clip-path="url(#a)" d="m206.8 25.9h.1v5h-.1z"/><path clip-path="url(#a)" d="m206.89999 25.9h.4v5h-.4z"/><path clip-path="url(#a)" d="m207.3 25.9h.4v5h-.4z"/><path clip-path="url(#a)" d="m207.60001 25.9h.4v5h-.4z"/><path clip-path="url(#a)" d="m208 25.9h.4v5h-.4z"/><path clip-path="url(#a)" d="m208.39999 25.9h.4v5h-.4z"/><path clip-path="url(#a)" d="m208.7 25.9h.4v5h-.4z"/><path clip-path="url(#a)" d="m209.10001 25.9h.4v5h-.4z"/><path clip-path="url(#a)" d="m209.39999 25.9h.3v5h-.3z"/><path clip-path="url(#a)" d="m208.39999 37.400002h.4v12h-.4z"/><path clip-path="url(#a)" d="m208.7 37.400002h.4v12h-.4z"/><path clip-path="url(#a)" d="m209.10001 37.400002h.4v12h-.4z"/><path clip-path="url(#a)" d="m209.39999 37.400002h.4v12h-.4z"/><path clip-path="url(#a)" d="m209.8 37.400002h.4v12h-.4z"/><path clip-path="url(#a)" d="m210.10001 37.400002h.4v12h-.4z"/><path clip-path="url(#a)" d="m210.5 37.400002h.4v12h-.4z"/><path clip-path="url(#a)" d="m210.8 37.400002h.4v12h-.4z"/><path clip-path="url(#a)" d="m205.60001 29h.3v12.6h-.3z"/><path clip-path="url(#a)" d="m205.89999 29h.4v12.6h-.4z"/><path clip-path="url(#a)" d="m206.2 29h.4v12.6h-.4z"/><path clip-path="url(#a)" d="m206.60001 29h.4v12.6h-.4z"/><path clip-path="url(#a)" d="m206.89999 29h.4v12.6h-.4z"/><path clip-path="url(#a)" d="m207.3 29h.4v12.6h-.4z"/><path clip-path="url(#a)" d="m207.60001 29h.4v12.6h-.4z"/><path clip-path="url(#a)" d="m208 29h.4v12.6h-.4z"/><path clip-path="url(#a)" d="m208.39999 29h.4v12.6h-.4z"/><path clip-path="url(#a)" d="m208.7 29h.4v12.6h-.4z"/><path clip-path="url(#a)" d="m209.10001 29h.4v12.6h-.4z"/><path clip-path="url(#a)" d="m209.39999 29h.4v12.6h-.4z"/><path clip-path="url(#a)" d="m209.8 29h.4v12.6h-.4z"/><path clip-path="url(#a)" d="m210.10001 29h.4v12.6h-.4z"/><path clip-path="url(#a)" d="m210.5 29h.4v12.6h-.4z"/><path clip-path="url(#a)" d="m210.8 29h.2v12.6h-.2z"/><path clip-path="url(#a)" d="m197.39999 35.5h.3v11.8h-.3z"/><path clip-path="url(#a)" d="m197.7 35.5h.4v11.8h-.4z"/><path clip-path="url(#a)" d="m198.10001 35.5h.4v11.8h-.4z"/><path clip-path="url(#a)" d="m198.39999 35.5h.4v11.8h-.4z"/><path clip-path="url(#a)" d="m198.8 35.5h.4v11.8h-.4z"/><path clip-path="url(#a)" d="m199.2 35.5h.4v11.8h-.4z"/><path clip-path="url(#a)" d="m199.5 35.5h.4v11.8h-.4z"/><path clip-path="url(#a)" d="m199.89999 35.5h.4v11.8h-.4z"/><path clip-path="url(#a)" d="m200.2 35.5h.4v11.8h-.4z"/><path clip-path="url(#a)" d="m200.60001 35.5h.4v11.8h-.4z"/><path clip-path="url(#a)" d="m200.89999 35.5h.4v11.8h-.4z"/><path clip-path="url(#a)" d="m201.3 35.5h.4v11.8h-.4z"/><path clip-path="url(#a)" d="m201.60001 35.5h.4v11.8h-.4z"/><path clip-path="url(#a)" d="m202 35.5h.4v11.8h-.4z"/><path clip-path="url(#a)" d="m202.3 35.5h.4v11.8h-.4z"/><path clip-path="url(#a)" d="m202.7 35.5h.4v11.8h-.4z"/><path clip-path="url(#a)" d="m203 35.5h.4v11.8h-.4z"/><path clip-path="url(#a)" d="m203.39999 35.5h.4v11.8h-.4z"/><path clip-path="url(#a)" d="m203.8 35.5h.4v11.8h-.4z"/><path clip-path="url(#a)" d="m204.10001 35.5h.4v11.8h-.4z"/><path clip-path="url(#a)" d="m204.5 35.5h.4v11.8h-.4z"/><path clip-path="url(#a)" d="m204.8 35.5h.4v11.8h-.4z"/><path clip-path="url(#a)" d="m205.2 35.5h.4v11.8h-.4z"/><path clip-path="url(#a)" d="m205.5 35.5h.4v11.8h-.4z"/><path clip-path="url(#a)" d="m205.89999 35.5h.4v11.8h-.4z"/><path clip-path="url(#a)" d="m206.2 35.5h.4v11.8h-.4z"/><path clip-path="url(#a)" d="m206.60001 35.5h.4v11.8h-.4z"/><path clip-path="url(#a)" d="m206.89999 35.5h.4v11.8h-.4z"/><path clip-path="url(#a)" d="m207.3 35.5h.2v11.8h-.2z"/><path clip-path="url(#a)" d="m199.5 24.1h.4v9.5h-.4z"/><path clip-path="url(#a)" d="m199.89999 24.1h.4v9.5h-.4z"/><path clip-path="url(#a)" d="m200.2 24.1h.4v9.5h-.4z"/><path clip-path="url(#a)" d="m200.60001 24.1h.4v9.5h-.4z"/><path clip-path="url(#a)" d="m200.89999 24.1h.4v9.5h-.4z"/><path clip-path="url(#a)" d="m201.3 24.1h.4v9.5h-.4z"/><path clip-path="url(#a)" d="m201.60001 24.1h.4v9.5h-.4z"/><path clip-path="url(#a)" d="m202 24.1h.4v9.5h-.4z"/><path clip-path="url(#a)" d="m202.3 24.1h.4v9.5h-.4z"/><path clip-path="url(#a)" d="m202.7 24.1h.4v9.5h-.4z"/><path clip-path="url(#a)" d="m203 24.1h.4v9.5h-.4z"/><path clip-path="url(#a)" d="m203.39999 24.1h.4v9.5h-.4z"/><path clip-path="url(#a)" d="m203.8 24.1h.4v9.5h-.4z"/><path clip-path="url(#a)" d="m204.10001 24.1h.4v9.5h-.4z"/><path clip-path="url(#a)" d="m204.5 24.1h.4v9.5h-.4z"/><path clip-path="url(#a)" d="m204.8 24.1h.4v9.5h-.4z"/><path clip-path="url(#a)" d="m205.2 24.1h.4v9.5h-.4z"/><path clip-path="url(#a)" d="m205.5 24.1h.4v9.5h-.4z"/><path clip-path="url(#a)" d="m205.89999 24.1h.4v9.5h-.4z"/><path clip-path="url(#a)" d="m206.2 24.1h.4v9.5h-.4z"/><path clip-path="url(#a)" d="m206.60001 24.1h.4v9.5h-.4z"/><path clip-path="url(#a)" d="m206.89999 24.1h.1v9.5h-.1z"/><path clip-path="url(#a)" d="m198.5 20.200001h.3v7.2h-.3z"/><path clip-path="url(#a)" d="m198.8 20.200001h.4v7.2h-.4z"/><path clip-path="url(#a)" d="m199.2 20.200001h.4v7.2h-.4z"/><path clip-path="url(#a)" d="m199.5 20.200001h.4v7.2h-.4z"/><path clip-path="url(#a)" d="m199.89999 20.200001h.4v7.2h-.4z"/><path clip-path="url(#a)" d="m200.2 20.200001h.4v7.2h-.4z"/><path clip-path="url(#a)" d="m200.60001 20.200001h.4v7.2h-.4z"/><path clip-path="url(#a)" d="m200.89999 20.200001h.4v7.2h-.4z"/><path clip-path="url(#a)" d="m201.3 20.200001h.4v7.2h-.4z"/><path clip-path="url(#a)" d="m201.60001 20.200001h.4v7.2h-.4z"/><path clip-path="url(#a)" d="m202 20.200001h.4v7.2h-.4z"/><path clip-path="url(#a)" d="m202.3 20.200001h.4v7.2h-.4z"/><path clip-path="url(#a)" d="m202.7 20.200001h.4v7.2h-.4z"/><path clip-path="url(#a)" d="m203 20.200001h.4v7.2h-.4z"/><path clip-path="url(#a)" d="m203.39999 20.200001h.4v7.2h-.4z"/><path clip-path="url(#a)" d="m203.8 20.200001h.4v7.2h-.4z"/><path clip-path="url(#a)" d="m204.10001 20.200001h.4v7.2h-.4z"/><path clip-path="url(#a)" d="m204.5 20.200001h.4v7.2h-.4z"/><path clip-path="url(#a)" d="m204.8 20.200001h.4v7.2h-.4z"/><path clip-path="url(#a)" d="m205.2 20.200001h.4v7.2h-.4z"/><path clip-path="url(#a)" d="m205.5 20.200001h.4v7.2h-.4z"/><path clip-path="url(#a)" d="m205.89999 20.200001h.4v7.2h-.4z"/><path clip-path="url(#a)" d="m206.2 20.200001h.4v7.2h-.4z"/><path clip-path="url(#a)" d="m206.60001 20.200001h.3v7.2h-.3z"/><path clip-path="url(#a)" d="m194.5 28.1h.1v10.2h-.1z"/><path clip-path="url(#a)" d="m194.60001 28.1h.4v10.2h-.4z"/><path clip-path="url(#a)" d="m194.89999 28.1h.4v10.2h-.4z"/><path clip-path="url(#a)" d="m195.3 28.1h.4v10.2h-.4z"/><path clip-path="url(#a)" d="m195.60001 28.1h.4v10.2h-.4z"/><path clip-path="url(#a)" d="m196 28.1h.4v10.2h-.4z"/><path clip-path="url(#a)" d="m196.3 28.1h.4v10.2h-.4z"/><path clip-path="url(#a)" d="m196.7 28.1h.4v10.2h-.4z"/><path clip-path="url(#a)" d="m197 28.1h.4v10.2h-.4z"/><path clip-path="url(#a)" d="m197.39999 28.1h.4v10.2h-.4z"/><path clip-path="url(#a)" d="m197.7 28.1h.4v10.2h-.4z"/><path clip-path="url(#a)" d="m198.10001 28.1h.4v10.2h-.4z"/><path clip-path="url(#a)" d="m198.39999 28.1h.4v10.2h-.4z"/><path clip-path="url(#a)" d="m198.8 28.1h.4v10.2h-.4z"/><path clip-path="url(#a)" d="m199.2 28.1h.4v10.2h-.4z"/><path clip-path="url(#a)" d="m199.5 28.1h.4v10.2h-.4z"/><path clip-path="url(#a)" d="m199.89999 28.1h.4v10.2h-.4z"/><path clip-path="url(#a)" d="m200.2 28.1h.4v10.2h-.4z"/><path clip-path="url(#a)" d="m200.60001 28.1h.4v10.2h-.4z"/><path clip-path="url(#a)" d="m200.89999 28.1h.4v10.2h-.4z"/><path clip-path="url(#a)" d="m201.3 28.1h.4v10.2h-.4z"/><path clip-path="url(#a)" d="m201.60001 28.1h.4v10.2h-.4z"/><path clip-path="url(#a)" d="m202 28.1h.4v10.2h-.4z"/><path clip-path="url(#a)" d="m202.3 28.1h.4v10.2h-.4z"/><path clip-path="url(#a)" d="m202.7 28.1h.4v10.2h-.4z"/><path clip-path="url(#a)" d="m203 28.1h.4v10.2h-.4z"/><path clip-path="url(#a)" d="m203.39999 28.1h.4v10.2h-.4z"/><path clip-path="url(#a)" d="m203.8 28.1h.4v10.2h-.4z"/><path clip-path="url(#a)" d="m186.10001 39.799999h.3v9h-.3z"/><path clip-path="url(#a)" d="m186.39999 39.799999h.4v9h-.4z"/><path clip-path="url(#a)" d="m186.8 39.799999h.4v9h-.4z"/><path clip-path="url(#a)" d="m187.10001 39.799999h.4v9h-.4z"/><path clip-path="url(#a)" d="m187.5 39.799999h.4v9h-.4z"/><path clip-path="url(#a)" d="m187.8 39.799999h.4v9h-.4z"/><path clip-path="url(#a)" d="m188.2 39.799999h.4v9h-.4z"/><path clip-path="url(#a)" d="m188.5 39.799999h.4v9h-.4z"/><path clip-path="url(#a)" d="m188.89999 39.799999h.4v9h-.4z"/><path clip-path="url(#a)" d="m189.2 39.799999h.4v9h-.4z"/><path clip-path="url(#a)" d="m189.60001 39.799999h.4v9h-.4z"/><path clip-path="url(#a)" d="m190 39.799999h.4v9h-.4z"/><path clip-path="url(#a)" d="m190.3 39.799999h.4v9h-.4z"/><path clip-path="url(#a)" d="m190.7 39.799999h.4v9h-.4z"/><path clip-path="url(#a)" d="m191 39.799999h.4v9h-.4z"/><path clip-path="url(#a)" d="m191.39999 39.799999h.4v9h-.4z"/><path clip-path="url(#a)" d="m191.7 39.799999h.4v9h-.4z"/><path clip-path="url(#a)" d="m192.10001 39.799999h.4v9h-.4z"/><path clip-path="url(#a)" d="m192.39999 39.799999h.4v9h-.4z"/><path clip-path="url(#a)" d="m192.8 39.799999h.4v9h-.4z"/><path clip-path="url(#a)" d="m193.10001 39.799999h.4v9h-.4z"/><path clip-path="url(#a)" d="m193.5 39.799999h.4v9h-.4z"/><path clip-path="url(#a)" d="m193.8 39.799999h.4v9h-.4z"/><path clip-path="url(#a)" d="m194.2 39.799999h.4v9h-.4z"/><path clip-path="url(#a)" d="m194.60001 39.799999h.4v9h-.4z"/><path clip-path="url(#a)" d="m194.89999 39.799999h.4v9h-.4z"/><path clip-path="url(#a)" d="m195.3 39.799999h.4v9h-.4z"/><path clip-path="url(#a)" d="m195.60001 39.799999h.4v9h-.4z"/><path clip-path="url(#a)" d="m196 39.799999h.4v9h-.4z"/><path clip-path="url(#a)" d="m196.3 39.799999h.4v9h-.4z"/><path clip-path="url(#a)" d="m196.7 39.799999h.4v9h-.4z"/><path clip-path="url(#a)" d="m186.89999 30.700001h.3v8.7h-.3z"/><path clip-path="url(#a)" d="m187.10001 30.700001h.4v8.7h-.4z"/><path clip-path="url(#a)" d="m187.5 30.700001h.4v8.7h-.4z"/><path clip-path="url(#a)" d="m187.8 30.700001h.4v8.7h-.4z"/><path clip-path="url(#a)" d="m188.2 30.700001h.4v8.7h-.4z"/><path clip-path="url(#a)" d="m188.5 30.700001h.4v8.7h-.4z"/><path clip-path="url(#a)" d="m188.89999 30.700001h.4v8.7h-.4z"/><path clip-path="url(#a)" d="m189.2 30.700001h.4v8.7h-.4z"/><path clip-path="url(#a)" d="m189.60001 30.700001h.4v8.7h-.4z"/><path clip-path="url(#a)" d="m190 30.700001h.4v8.7h-.4z"/><path clip-path="url(#a)" d="m190.3 30.700001h.4v8.7h-.4z"/><path clip-path="url(#a)" d="m190.7 30.700001h.4v8.7h-.4z"/><path clip-path="url(#a)" d="m191 30.700001h.4v8.7h-.4z"/><path clip-path="url(#a)" d="m191.39999 30.700001h.4v8.7h-.4z"/><path clip-path="url(#a)" d="m191.7 30.700001h.4v8.7h-.4z"/><path clip-path="url(#a)" d="m192.10001 30.700001h.4v8.7h-.4z"/><path clip-path="url(#a)" d="m192.39999 30.700001h.4v8.7h-.4z"/><path clip-path="url(#a)" d="m192.8 30.700001h.4v8.7h-.4z"/><path clip-path="url(#a)" d="m193.10001 30.700001h.4v8.7h-.4z"/><path clip-path="url(#a)" d="m193.5 30.700001h.4v8.7h-.4z"/><path clip-path="url(#a)" d="m193.8 30.700001h.4v8.7h-.4z"/><path clip-path="url(#a)" d="m194.2 30.700001h.4v8.7h-.4z"/><path clip-path="url(#a)" d="m194.60001 30.700001h.4v8.7h-.4z"/><path clip-path="url(#a)" d="m194.89999 30.700001h.4v8.7h-.4z"/><path clip-path="url(#a)" d="m195.3 30.700001h.4v8.7h-.4z"/><path clip-path="url(#a)" d="m195.60001 30.700001h.1v8.7h-.1z"/><path clip-path="url(#a)" d="m177.60001 29h.4v9.9h-.4z"/><path clip-path="url(#a)" d="m177.89999 29h.4v9.9h-.4z"/><path clip-path="url(#a)" d="m178.3 29h.4v9.9h-.4z"/><path clip-path="url(#a)" d="m178.60001 29h.4v9.9h-.4z"/><path clip-path="url(#a)" d="m179 29h.4v9.9h-.4z"/><path clip-path="url(#a)" d="m179.3 29h.4v9.9h-.4z"/><path clip-path="url(#a)" d="m179.7 29h.4v9.9h-.4z"/><path clip-path="url(#a)" d="m180 29h.4v9.9h-.4z"/><path clip-path="url(#a)" d="m180.39999 29h.4v9.9h-.4z"/><path clip-path="url(#a)" d="m180.8 29h.4v9.9h-.4z"/><path clip-path="url(#a)" d="m181.10001 29h.4v9.9h-.4z"/><path clip-path="url(#a)" d="m181.5 29h.4v9.9h-.4z"/><path clip-path="url(#a)" d="m181.8 29h.4v9.9h-.4z"/><path clip-path="url(#a)" d="m182.2 29h.4v9.9h-.4z"/><path clip-path="url(#a)" d="m182.5 29h.4v9.9h-.4z"/><path clip-path="url(#a)" d="m182.89999 29h.4v9.9h-.4z"/><path clip-path="url(#a)" d="m183.2 29h.4v9.9h-.4z"/><path clip-path="url(#a)" d="m183.60001 29h.4v9.9h-.4z"/><path clip-path="url(#a)" d="m183.89999 29h.4v9.9h-.4z"/><path clip-path="url(#a)" d="m184.3 29h.4v9.9h-.4z"/><path clip-path="url(#a)" d="m184.60001 29h.4v9.9h-.4z"/><path clip-path="url(#a)" d="m185 29h.4v9.9h-.4z"/><path clip-path="url(#a)" d="m185.39999 29h.4v9.9h-.4z"/><path clip-path="url(#a)" d="m185.7 29h.4v9.9h-.4z"/><path clip-path="url(#a)" d="m186.10001 29h.4v9.9h-.4z"/><path clip-path="url(#a)" d="m186.39999 29h.4v9.9h-.4z"/><path clip-path="url(#a)" d="m186.8 29h.2v9.9h-.2z"/><path clip-path="url(#a)" d="m172.89999 25.200001h.1v10h-.1z"/><path clip-path="url(#a)" d="m173 25.200001h.4v10h-.4z"/><path clip-path="url(#a)" d="m173.3 25.200001h.4v10h-.4z"/><path clip-path="url(#a)" d="m173.7 25.200001h.4v10h-.4z"/><path clip-path="url(#a)" d="m174 25.200001h.4v10h-.4z"/><path clip-path="url(#a)" d="m174.39999 25.200001h.4v10h-.4z"/><path clip-path="url(#a)" d="m174.7 25.200001h.4v10h-.4z"/><path clip-path="url(#a)" d="m175.10001 25.200001h.4v10h-.4z"/><path clip-path="url(#a)" d="m175.39999 25.200001h.4v10h-.4z"/><path clip-path="url(#a)" d="m175.8 25.200001h.4v10h-.4z"/><path clip-path="url(#a)" d="m176.2 25.200001h.4v10h-.4z"/><path clip-path="url(#a)" d="m176.5 25.200001h.4v10h-.4z"/><path clip-path="url(#a)" d="m176.89999 25.200001h.4v10h-.4z"/><path clip-path="url(#a)" d="m177.2 25.200001h.4v10h-.4z"/><path clip-path="url(#a)" d="m177.60001 25.200001h.4v10h-.4z"/><path clip-path="url(#a)" d="m177.89999 25.200001h.4v10h-.4z"/><path clip-path="url(#a)" d="m178.3 25.200001h.4v10h-.4z"/><path clip-path="url(#a)" d="m178.60001 25.200001h.4v10h-.4z"/><path clip-path="url(#a)" d="m179 25.200001h.4v10h-.4z"/><path clip-path="url(#a)" d="m179.3 25.200001h.4v10h-.4z"/><path clip-path="url(#a)" d="m179.7 25.200001h.4v10h-.4z"/><path clip-path="url(#a)" d="m180 25.200001h.4v10h-.4z"/><path clip-path="url(#a)" d="m180.39999 25.200001h.4v10h-.4z"/><path clip-path="url(#a)" d="m180.8 25.200001h.4v10h-.4z"/><path clip-path="url(#a)" d="m181.10001 25.200001h.2v10h-.2z"/><path clip-path="url(#a)" d="m172.60001 21.200001h.4v7.9h-.4z"/><path clip-path="url(#a)" d="m173 21.200001h.4v7.9h-.4z"/><path clip-path="url(#a)" d="m173.3 21.200001h.4v7.9h-.4z"/><path clip-path="url(#a)" d="m173.7 21.200001h.4v7.9h-.4z"/><path clip-path="url(#a)" d="m174 21.200001h.4v7.9h-.4z"/><path clip-path="url(#a)" d="m174.39999 21.200001h.4v7.9h-.4z"/><path clip-path="url(#a)" d="m174.7 21.200001h.4v7.9h-.4z"/><path clip-path="url(#a)" d="m175.10001 21.200001h.4v7.9h-.4z"/><path clip-path="url(#a)" d="m175.39999 21.200001h.4v7.9h-.4z"/><path clip-path="url(#a)" d="m175.8 21.200001h.4v7.9h-.4z"/><path clip-path="url(#a)" d="m176.2 21.200001h.4v7.9h-.4z"/><path clip-path="url(#a)" d="m176.5 21.200001h.4v7.9h-.4z"/><path clip-path="url(#a)" d="m176.89999 21.200001h.4v7.9h-.4z"/><path clip-path="url(#a)" d="m177.2 21.200001h.4v7.9h-.4z"/><path clip-path="url(#a)" d="m177.60001 21.200001h.4v7.9h-.4z"/><path clip-path="url(#a)" d="m177.89999 21.200001h.4v7.9h-.4z"/><path clip-path="url(#a)" d="m178.3 21.200001h.4v7.9h-.4z"/><path clip-path="url(#a)" d="m178.60001 21.200001h.4v7.9h-.4z"/><path clip-path="url(#a)" d="m179 21.200001h.4v7.9h-.4z"/><path clip-path="url(#a)" d="m179.3 21.200001h.4v7.9h-.4z"/><path clip-path="url(#a)" d="m179.7 21.200001h.4v7.9h-.4z"/><path clip-path="url(#a)" d="m180 21.200001h.1v7.9h-.1z"/><path clip-path="url(#a)" d="m167.7 16.1v36.1z"/><path clip-path="url(#a)" d="m167.7 16.1h.4v36.099998h-.4z"/><path clip-path="url(#a)" d="m168 16.1h.4v36.099998h-.4z"/><path clip-path="url(#a)" d="m168.39999 16.1h.4v36.099998h-.4z"/><path clip-path="url(#a)" d="m168.7 16.1h.4v36.099998h-.4z"/><path clip-path="url(#a)" d="m169.10001 16.1h.4v36.099998h-.4z"/><path clip-path="url(#a)" d="m169.39999 16.1h.4v36.099998h-.4z"/><path clip-path="url(#a)" d="m169.8 16.1h.4v36.099998h-.4z"/><path clip-path="url(#a)" d="m170.10001 16.1h.4v36.099998h-.4z"/><path clip-path="url(#a)" d="m170.5 16.1h.4v36.099998h-.4z"/><path clip-path="url(#a)" d="m170.8 16.1h.4v36.099998h-.4z"/><path clip-path="url(#a)" d="m171.2 16.1h.4v36.099998h-.4z"/><path clip-path="url(#a)" d="m171.60001 16.1h.4v36.099998h-.4z"/><path clip-path="url(#a)" d="m171.89999 16.1h.4v36.099998h-.4z"/><path clip-path="url(#a)" d="m172.3 16.1h.4v36.099998h-.4z"/><path clip-path="url(#a)" d="m172.60001 16.1h.4v36.099998h-.4z"/><path clip-path="url(#a)" d="m173 16.1h.4v36.099998h-.4z"/><path clip-path="url(#a)" d="m173.3 16.1h.4v36.099998h-.4z"/><path clip-path="url(#a)" d="m173.7 16.1h.4v36.099998h-.4z"/><path clip-path="url(#a)" d="m174 16.1h.4v36.099998h-.4z"/><path clip-path="url(#a)" d="m174.39999 16.1h.4v36.099998h-.4z"/><path clip-path="url(#a)" d="m174.7 16.1h.4v36.099998h-.4z"/><path clip-path="url(#a)" d="m175.10001 16.1h.4v36.099998h-.4z"/><path clip-path="url(#a)" d="m175.39999 16.1h.4v36.099998h-.4z"/><path clip-path="url(#a)" d="m175.8 16.1h.4v36.099998h-.4z"/><path clip-path="url(#a)" d="m176.2 16.1h.4v36.099998h-.4z"/><path clip-path="url(#a)" d="m176.5 16.1h.4v36.099998h-.4z"/><path clip-path="url(#a)" d="m176.89999 16.1h.4v36.099998h-.4z"/><path clip-path="url(#a)" d="m177.2 16.1h.4v36.099998h-.4z"/><path clip-path="url(#a)" d="m177.60001 16.1h.4v36.099998h-.4z"/><path clip-path="url(#a)" d="m177.89999 16.1h.4v36.099998h-.4z"/><path clip-path="url(#a)" d="m178.3 16.1h.4v36.099998h-.4z"/><path clip-path="url(#a)" d="m178.60001 16.1h.4v36.099998h-.4z"/><path clip-path="url(#a)" d="m179 16.1h.4v36.099998h-.4z"/><path clip-path="url(#a)" d="m179.3 16.1h.4v36.099998h-.4z"/><path clip-path="url(#a)" d="m179.7 16.1h.4v36.099998h-.4z"/><path clip-path="url(#a)" d="m180 16.1h.4v36.099998h-.4z"/><path clip-path="url(#a)" d="m180.39999 16.1h.4v36.099998h-.4z"/><path clip-path="url(#a)" d="m180.8 16.1h.4v36.099998h-.4z"/><path clip-path="url(#a)" d="m181.10001 16.1h.4v36.099998h-.4z"/><path clip-path="url(#a)" d="m181.5 16.1h.4v36.099998h-.4z"/><path clip-path="url(#a)" d="m181.8 16.1h.4v36.099998h-.4z"/><path clip-path="url(#a)" d="m182.2 16.1h.4v36.099998h-.4z"/><path clip-path="url(#a)" d="m182.5 16.1h.4v36.099998h-.4z"/><path clip-path="url(#a)" d="m182.89999 16.1h.4v36.099998h-.4z"/><path clip-path="url(#a)" d="m183.2 16.1h.4v36.099998h-.4z"/><path clip-path="url(#a)" d="m183.60001 16.1h.4v36.099998h-.4z"/><path clip-path="url(#a)" d="m183.89999 16.1h.4v36.099998h-.4z"/><path clip-path="url(#a)" d="m184.3 16.1h.4v36.099998h-.4z"/><path clip-path="url(#a)" d="m184.60001 16.1h.4v36.099998h-.4z"/><path clip-path="url(#a)" d="m185 16.1h.4v36.099998h-.4z"/><path clip-path="url(#a)" d="m185.39999 16.1h.4v36.099998h-.4z"/><path clip-path="url(#a)" d="m185.7 16.1h.4v36.099998h-.4z"/><path clip-path="url(#a)" d="m186.10001 16.1h.4v36.099998h-.4z"/><path clip-path="url(#a)" d="m186.39999 16.1h.4v36.099998h-.4z"/><path clip-path="url(#a)" d="m186.8 16.1h.4v36.099998h-.4z"/><path clip-path="url(#a)" d="m187.10001 16.1h.4v36.099998h-.4z"/><path clip-path="url(#a)" d="m187.5 16.1h.4v36.099998h-.4z"/><path clip-path="url(#a)" d="m187.8 16.1h.4v36.099998h-.4z"/><path clip-path="url(#a)" d="m188.2 16.1h.4v36.099998h-.4z"/><path clip-path="url(#a)" d="m188.5 16.1h.4v36.099998h-.4z"/><path clip-path="url(#a)" d="m188.89999 16.1h.4v36.099998h-.4z"/><path clip-path="url(#a)" d="m189.2 16.1h.4v36.099998h-.4z"/><path clip-path="url(#a)" d="m189.60001 16.1h.4v36.099998h-.4z"/><path clip-path="url(#a)" d="m190 16.1h.4v36.099998h-.4z"/><path clip-path="url(#a)" d="m190.3 16.1h.4v36.099998h-.4z"/><path clip-path="url(#a)" d="m190.7 16.1h.4v36.099998h-.4z"/><path clip-path="url(#a)" d="m191 16.1h.4v36.099998h-.4z"/><path clip-path="url(#a)" d="m191.39999 16.1h.4v36.099998h-.4z"/><path clip-path="url(#a)" d="m191.7 16.1h.4v36.099998h-.4z"/><path clip-path="url(#a)" d="m192.10001 16.1h.4v36.099998h-.4z"/><path clip-path="url(#a)" d="m192.39999 16.1h.4v36.099998h-.4z"/><path clip-path="url(#a)" d="m192.8 16.1h.4v36.099998h-.4z"/><path clip-path="url(#a)" d="m193.10001 16.1h.4v36.099998h-.4z"/><path clip-path="url(#a)" d="m193.5 16.1h.4v36.099998h-.4z"/><path clip-path="url(#a)" d="m193.8 16.1h.4v36.099998h-.4z"/><path clip-path="url(#a)" d="m194.2 16.1h.4v36.099998h-.4z"/><path clip-path="url(#a)" d="m194.60001 16.1h.4v36.099998h-.4z"/><path clip-path="url(#a)" d="m194.89999 16.1h.4v36.099998h-.4z"/><path clip-path="url(#a)" d="m195.3 16.1h.4v36.099998h-.4z"/><path clip-path="url(#a)" d="m195.60001 16.1h.4v36.099998h-.4z"/><path clip-path="url(#a)" d="m196 16.1h.4v36.099998h-.4z"/><path clip-path="url(#a)" d="m196.3 16.1h.4v36.099998h-.4z"/><path clip-path="url(#a)" d="m196.7 16.1h.4v36.099998h-.4z"/><path clip-path="url(#a)" d="m197 16.1h.4v36.099998h-.4z"/><path clip-path="url(#a)" d="m197.39999 16.1h.4v36.099998h-.4z"/><path clip-path="url(#a)" d="m197.7 16.1h.4v36.099998h-.4z"/><path clip-path="url(#a)" d="m198.10001 16.1h.4v36.099998h-.4z"/><path clip-path="url(#a)" d="m198.39999 16.1h.4v36.099998h-.4z"/><path clip-path="url(#a)" d="m198.8 16.1h.4v36.099998h-.4z"/><path clip-path="url(#a)" d="m199.2 16.1h.4v36.099998h-.4z"/><path clip-path="url(#a)" d="m199.5 16.1h.4v36.099998h-.4z"/><path clip-path="url(#a)" d="m199.89999 16.1h.4v36.099998h-.4z"/><path clip-path="url(#a)" d="m200.2 16.1h.4v36.099998h-.4z"/><path clip-path="url(#a)" d="m200.60001 16.1h.4v36.099998h-.4z"/><path clip-path="url(#a)" d="m200.89999 16.1h.4v36.099998h-.4z"/><path clip-path="url(#a)" d="m201.3 16.1h.4v36.099998h-.4z"/><path clip-path="url(#a)" d="m201.60001 16.1h.4v36.099998h-.4z"/><path clip-path="url(#a)" d="m202 16.1h.4v36.099998h-.4z"/><path clip-path="url(#a)" d="m202.3 16.1h.4v36.099998h-.4z"/><path clip-path="url(#a)" d="m202.7 16.1h.4v36.099998h-.4z"/><path clip-path="url(#a)" d="m203 16.1h.4v36.099998h-.4z"/><path clip-path="url(#a)" d="m203.39999 16.1h.4v36.099998h-.4z"/><path clip-path="url(#a)" d="m203.8 16.1h.4v36.099998h-.4z"/><path clip-path="url(#a)" d="m204.10001 16.1h.4v36.099998h-.4z"/><path clip-path="url(#a)" d="m204.5 16.1h.4v36.099998h-.4z"/><path clip-path="url(#a)" d="m204.8 16.1h.4v36.099998h-.4z"/><path clip-path="url(#a)" d="m205.2 16.1h.4v36.099998h-.4z"/><path clip-path="url(#a)" d="m205.5 16.1h.4v36.099998h-.4z"/><path clip-path="url(#a)" d="m205.89999 16.1h.4v36.099998h-.4z"/><path clip-path="url(#a)" d="m206.2 16.1h.4v36.099998h-.4z"/><path clip-path="url(#a)" d="m206.60001 16.1h.4v36.099998h-.4z"/><path clip-path="url(#a)" d="m206.89999 16.1h.4v36.099998h-.4z"/><path clip-path="url(#a)" d="m207.3 16.1h.4v36.099998h-.4z"/><path clip-path="url(#a)" d="m207.60001 16.1h.4v36.099998h-.4z"/><path clip-path="url(#a)" d="m208 16.1h.4v36.099998h-.4z"/><path clip-path="url(#a)" d="m208.39999 16.1h.4v36.099998h-.4z"/><path clip-path="url(#a)" d="m208.7 16.1h.4v36.099998h-.4z"/><path clip-path="url(#a)" d="m209.10001 16.1h.4v36.099998h-.4z"/><path clip-path="url(#a)" d="m209.39999 16.1h.4v36.099998h-.4z"/><path clip-path="url(#a)" d="m209.8 16.1h.4v36.099998h-.4z"/><path clip-path="url(#a)" d="m210.10001 16.1h.4v36.099998h-.4z"/><path clip-path="url(#a)" d="m210.5 16.1h.4v36.099998h-.4z"/><path clip-path="url(#a)" d="m210.8 16.1h.4v36.099998h-.4z"/><path clip-path="url(#a)" d="m211.2 16.1h.4v36.099998h-.4z"/><path clip-path="url(#a)" d="m211.5 16.1h.4v36.099998h-.4z"/><path clip-path="url(#a)" d="m211.89999 16.1h.4v36.099998h-.4z"/><path clip-path="url(#a)" d="m212.2 16.1h.4v36.099998h-.4z"/><path clip-path="url(#a)" d="m212.6 52.2v-36.1z"/></g><g><use height="100%" width="100%" xlink:href="#f"/><path clip-path="url(#b)" d="m171.5 50h.3v4h-.3z"/><path clip-path="url(#b)" d="m171.8 50h.3v4h-.3z"/><path clip-path="url(#b)" d="m172.10001 50h.3v4h-.3z"/><path clip-path="url(#b)" d="m172.3 50h.3v4h-.3z"/><path clip-path="url(#b)" d="m172.60001 50h.3v4h-.3z"/><path clip-path="url(#b)" d="m172.89999 50h.3v4h-.3z"/><path clip-path="url(#b)" d="m173.2 50h.3v4h-.3z"/><path clip-path="url(#b)" d="m173.39999 50h.3v4h-.3z"/><path clip-path="url(#b)" d="m173.7 50h.3v4h-.3z"/><path clip-path="url(#b)" d="m174 50h.3v4h-.3z"/><path clip-path="url(#b)" d="m174.3 50h.3v4h-.3z"/><path clip-path="url(#b)" d="m174.60001 50h.1v4h-.1z"/><path clip-path="url(#b)" d="m175 53h.1v6.8h-.1z"/><path clip-path="url(#b)" d="m175.10001 53h.3v6.8h-.3z"/><path clip-path="url(#b)" d="m175.39999 53h.3v6.8h-.3z"/><path clip-path="url(#b)" d="m175.7 53h.3v6.8h-.3z"/><path clip-path="url(#b)" d="m175.89999 53h.3v6.8h-.3z"/><path clip-path="url(#b)" d="m176.2 53h.3v6.8h-.3z"/><path clip-path="url(#b)" d="m176.5 53h.3v6.8h-.3z"/><path clip-path="url(#b)" d="m176.8 53h.3v6.8h-.3z"/><path clip-path="url(#b)" d="m177 53h.3v6.8h-.3z"/><path clip-path="url(#b)" d="m177.3 53h.3v6.8h-.3z"/><path clip-path="url(#b)" d="m177.60001 53h.3v6.8h-.3z"/><path clip-path="url(#b)" d="m177.89999 53h.3v6.8h-.3z"/><path clip-path="url(#b)" d="m178.2 53h.3v6.8h-.3z"/><path clip-path="url(#b)" d="m178.39999 53h.3v6.8h-.3z"/><path clip-path="url(#b)" d="m178.7 53h.3v6.8h-.3z"/><path clip-path="url(#b)" d="m179 53h.3v6.8h-.3z"/><path clip-path="url(#b)" d="m179.3 53h.3v6.8h-.3z"/><path clip-path="url(#b)" d="m179.5 53h.3v6.8h-.3z"/><path clip-path="url(#b)" d="m179.8 53h.3v6.8h-.3z"/><path clip-path="url(#b)" d="m180.10001 53h.3v6.8h-.3z"/><path clip-path="url(#b)" d="m180.39999 53h.3v6.8h-.3z"/><path clip-path="url(#b)" d="m180.60001 53h.3v6.8h-.3z"/><path clip-path="url(#b)" d="m180.89999 53h.3v6.8h-.3z"/><path clip-path="url(#b)" d="m181.2 53h.3v6.8h-.3z"/><path clip-path="url(#b)" d="m181.5 53h.3v6.8h-.3z"/><path clip-path="url(#b)" d="m181.8 53h.3v6.8h-.3z"/><path clip-path="url(#b)" d="m182 53h.3v6.8h-.3z"/><path clip-path="url(#b)" d="m182.3 53h.3v6.8h-.3z"/><path clip-path="url(#b)" d="m182.60001 53h.3v6.8h-.3z"/><path clip-path="url(#b)" d="m182.89999 53h.3v6.8h-.3z"/><path clip-path="url(#b)" d="m183.10001 53h.3v6.8h-.3z"/><path clip-path="url(#b)" d="m183.39999 53h.3v6.8h-.3z"/><path clip-path="url(#b)" d="m183.7 53h.3v6.8h-.3z"/><path clip-path="url(#b)" d="m184 53h.3v6.8h-.3z"/><path clip-path="url(#b)" d="m184.3 53h.3v6.8h-.3z"/><path clip-path="url(#b)" d="m184.5 53h.3v6.8h-.3z"/><path clip-path="url(#b)" d="m184.8 53h.3v6.8h-.3z"/><path clip-path="url(#b)" d="m185.10001 53h.3v6.8h-.3z"/><path clip-path="url(#b)" d="m185.39999 53h.1v6.8h-.1z"/><path clip-path="url(#b)" d="m186.2 56.099998h.3v4.1h-.3z"/><path clip-path="url(#b)" d="m186.5 56.099998h.3v4.1h-.3z"/><path clip-path="url(#b)" d="m186.7 56.099998h.3v4.1h-.3z"/><path clip-path="url(#b)" d="m187 56.099998h.3v4.1h-.3z"/><path clip-path="url(#b)" d="m187.3 56.099998h.3v4.1h-.3z"/><path clip-path="url(#b)" d="m187.60001 56.099998h.3v4.1h-.3z"/><path clip-path="url(#b)" d="m187.89999 56.099998h.3v4.1h-.3z"/><path clip-path="url(#b)" d="m188.10001 56.099998h.3v4.1h-.3z"/><path clip-path="url(#b)" d="m188.39999 56.099998h.3v4.1h-.3z"/><path clip-path="url(#b)" d="m188.7 56.099998h.3v4.1h-.3z"/><path clip-path="url(#b)" d="m189 56.099998h.3v4.1h-.3z"/><path clip-path="url(#b)" d="m189.2 56.099998h.3v4.1h-.3z"/><path clip-path="url(#b)" d="m189.5 56.099998h.3v4.1h-.3z"/><path clip-path="url(#b)" d="m189.8 56.099998h.3v4.1h-.3z"/><path clip-path="url(#b)" d="m190.10001 56.099998h.3v4.1h-.3z"/><path clip-path="url(#b)" d="m190.3 56.099998h.3v4.1h-.3z"/><path clip-path="url(#b)" d="m190.60001 56.099998h.3v4.1h-.3z"/><path clip-path="url(#b)" d="m190.89999 56.099998h.3v4.1h-.3z"/><path clip-path="url(#b)" d="m191.2 56.099998h.3v4.1h-.3z"/><path clip-path="url(#b)" d="m191.5 56.099998h.3v4.1h-.3z"/><path clip-path="url(#b)" d="m191.7 56.099998h.3v4.1h-.3z"/><path clip-path="url(#b)" d="m192 56.099998h.3v4.1h-.3z"/><path clip-path="url(#b)" d="m192.3 56.099998h.3v4.1h-.3z"/><path clip-path="url(#b)" d="m192.60001 56.099998h.3v4.1h-.3z"/><path clip-path="url(#b)" d="m192.8 56.099998h.3v4.1h-.3z"/><path clip-path="url(#b)" d="m193.10001 56.099998h.3v4.1h-.3z"/><path clip-path="url(#b)" d="m193.39999 56.099998h.3v4.1h-.3z"/><path clip-path="url(#b)" d="m193.7 56.099998h.3v4.1h-.3z"/><path clip-path="url(#b)" d="m193.89999 56.099998h.3v4.1h-.3z"/><path clip-path="url(#b)" d="m194.2 56.099998h.3v4.1h-.3z"/><path clip-path="url(#b)" d="m194.5 56.099998h.3v4.1h-.3z"/><path clip-path="url(#b)" d="m194.8 56.099998h.3v4.1h-.3z"/><path clip-path="url(#b)" d="m195.10001 56.099998h.3v4.1h-.3z"/><path clip-path="url(#b)" d="m195.3 56.099998h.3v4.1h-.3z"/><path clip-path="url(#b)" d="m195.60001 56.099998h.3v4.1h-.3z"/><path clip-path="url(#b)" d="m195.89999 56.099998h.3v4.1h-.3z"/><path clip-path="url(#b)" d="m196.2 56.099998h.3v4.1h-.3z"/><path clip-path="url(#b)" d="m196.39999 56.099998h.3v4.1h-.3z"/><path clip-path="url(#b)" d="m196.7 56.099998h.1v4.1h-.1z"/><path clip-path="url(#b)" d="m168.7 47.6v14.1z"/><path clip-path="url(#b)" d="m168.7 47.599998h.3v14.1h-.3z"/><path clip-path="url(#b)" d="m169 47.599998h.3v14.1h-.3z"/><path clip-path="url(#b)" d="m169.3 47.599998h.3v14.1h-.3z"/><path clip-path="url(#b)" d="m169.60001 47.599998h.3v14.1h-.3z"/><path clip-path="url(#b)" d="m169.8 47.599998h.3v14.1h-.3z"/><path clip-path="url(#b)" d="m170.10001 47.599998h.3v14.1h-.3z"/><path clip-path="url(#b)" d="m170.39999 47.599998h.3v14.1h-.3z"/><path clip-path="url(#b)" d="m170.7 47.599998h.3v14.1h-.3z"/><path clip-path="url(#b)" d="m171 47.599998h.3v14.1h-.3z"/><path clip-path="url(#b)" d="m171.2 47.599998h.3v14.1h-.3z"/><path clip-path="url(#b)" d="m171.5 47.599998h.3v14.1h-.3z"/><path clip-path="url(#b)" d="m171.8 47.599998h.3v14.1h-.3z"/><path clip-path="url(#b)" d="m172.10001 47.599998h.3v14.1h-.3z"/><path clip-path="url(#b)" d="m172.3 47.599998h.3v14.1h-.3z"/><path clip-path="url(#b)" d="m172.60001 47.599998h.3v14.1h-.3z"/><path clip-path="url(#b)" d="m172.89999 47.599998h.3v14.1h-.3z"/><path clip-path="url(#b)" d="m173.2 47.599998h.3v14.1h-.3z"/><path clip-path="url(#b)" d="m173.39999 47.599998h.3v14.1h-.3z"/><path clip-path="url(#b)" d="m173.7 47.599998h.3v14.1h-.3z"/><path clip-path="url(#b)" d="m174 47.599998h.3v14.1h-.3z"/><path clip-path="url(#b)" d="m174.3 47.599998h.3v14.1h-.3z"/><path clip-path="url(#b)" d="m174.60001 47.599998h.3v14.1h-.3z"/><path clip-path="url(#b)" d="m174.8 47.599998h.3v14.1h-.3z"/><path clip-path="url(#b)" d="m175.10001 47.599998h.3v14.1h-.3z"/><path clip-path="url(#b)" d="m175.39999 47.599998h.3v14.1h-.3z"/><path clip-path="url(#b)" d="m175.7 47.599998h.3v14.1h-.3z"/><path clip-path="url(#b)" d="m175.89999 47.599998h.3v14.1h-.3z"/><path clip-path="url(#b)" d="m176.2 47.599998h.3v14.1h-.3z"/><path clip-path="url(#b)" d="m176.5 47.599998h.3v14.1h-.3z"/><path clip-path="url(#b)" d="m176.8 47.599998h.3v14.1h-.3z"/><path clip-path="url(#b)" d="m177 47.599998h.3v14.1h-.3z"/><path clip-path="url(#b)" d="m177.3 47.599998h.3v14.1h-.3z"/><path clip-path="url(#b)" d="m177.60001 47.599998h.3v14.1h-.3z"/><path clip-path="url(#b)" d="m177.89999 47.599998h.3v14.1h-.3z"/><path clip-path="url(#b)" d="m178.2 47.599998h.3v14.1h-.3z"/><path clip-path="url(#b)" d="m178.39999 47.599998h.3v14.1h-.3z"/><path clip-path="url(#b)" d="m178.7 47.599998h.3v14.1h-.3z"/><path clip-path="url(#b)" d="m179 47.599998h.3v14.1h-.3z"/><path clip-path="url(#b)" d="m179.3 47.599998h.3v14.1h-.3z"/><path clip-path="url(#b)" d="m179.5 47.599998h.3v14.1h-.3z"/><path clip-path="url(#b)" d="m179.8 47.599998h.3v14.1h-.3z"/><path clip-path="url(#b)" d="m180.10001 47.599998h.3v14.1h-.3z"/><path clip-path="url(#b)" d="m180.39999 47.599998h.3v14.1h-.3z"/><path clip-path="url(#b)" d="m180.60001 47.599998h.3v14.1h-.3z"/><path clip-path="url(#b)" d="m180.89999 47.599998h.3v14.1h-.3z"/><path clip-path="url(#b)" d="m181.2 47.599998h.3v14.1h-.3z"/><path clip-path="url(#b)" d="m181.5 47.599998h.3v14.1h-.3z"/><path clip-path="url(#b)" d="m181.8 47.599998h.3v14.1h-.3z"/><path clip-path="url(#b)" d="m182 47.599998h.3v14.1h-.3z"/><path clip-path="url(#b)" d="m182.3 47.599998h.3v14.1h-.3z"/><path clip-path="url(#b)" d="m182.60001 47.599998h.3v14.1h-.3z"/><path clip-path="url(#b)" d="m182.89999 47.599998h.3v14.1h-.3z"/><path clip-path="url(#b)" d="m183.10001 47.599998h.3v14.1h-.3z"/><path clip-path="url(#b)" d="m183.39999 47.599998h.3v14.1h-.3z"/><path clip-path="url(#b)" d="m183.7 47.599998h.3v14.1h-.3z"/><path clip-path="url(#b)" d="m184 47.599998h.3v14.1h-.3z"/><path clip-path="url(#b)" d="m184.3 47.599998h.3v14.1h-.3z"/><path clip-path="url(#b)" d="m184.5 47.599998h.3v14.1h-.3z"/><path clip-path="url(#b)" d="m184.8 47.599998h.3v14.1h-.3z"/><path clip-path="url(#b)" d="m185.10001 47.599998h.3v14.1h-.3z"/><path clip-path="url(#b)" d="m185.39999 47.599998h.3v14.1h-.3z"/><path clip-path="url(#b)" d="m185.60001 47.599998h.3v14.1h-.3z"/><path clip-path="url(#b)" d="m185.89999 47.599998h.3v14.1h-.3z"/><path clip-path="url(#b)" d="m186.2 47.599998h.3v14.1h-.3z"/><path clip-path="url(#b)" d="m186.5 47.599998h.3v14.1h-.3z"/><path clip-path="url(#b)" d="m186.7 47.599998h.3v14.1h-.3z"/><path clip-path="url(#b)" d="m187 47.599998h.3v14.1h-.3z"/><path clip-path="url(#b)" d="m187.3 47.599998h.3v14.1h-.3z"/><path clip-path="url(#b)" d="m187.60001 47.599998h.3v14.1h-.3z"/><path clip-path="url(#b)" d="m187.89999 47.599998h.3v14.1h-.3z"/><path clip-path="url(#b)" d="m188.10001 47.599998h.3v14.1h-.3z"/><path clip-path="url(#b)" d="m188.39999 47.599998h.3v14.1h-.3z"/><path clip-path="url(#b)" d="m188.7 47.599998h.3v14.1h-.3z"/><path clip-path="url(#b)" d="m189 47.599998h.3v14.1h-.3z"/><path clip-path="url(#b)" d="m189.2 47.599998h.3v14.1h-.3z"/><path clip-path="url(#b)" d="m189.5 47.599998h.3v14.1h-.3z"/><path clip-path="url(#b)" d="m189.8 47.599998h.3v14.1h-.3z"/><path clip-path="url(#b)" d="m190.10001 47.599998h.3v14.1h-.3z"/><path clip-path="url(#b)" d="m190.3 47.599998h.3v14.1h-.3z"/><path clip-path="url(#b)" d="m190.60001 47.599998h.3v14.1h-.3z"/><path clip-path="url(#b)" d="m190.89999 47.599998h.3v14.1h-.3z"/><path clip-path="url(#b)" d="m191.2 47.599998h.3v14.1h-.3z"/><path clip-path="url(#b)" d="m191.5 47.599998h.3v14.1h-.3z"/><path clip-path="url(#b)" d="m191.7 47.599998h.3v14.1h-.3z"/><path clip-path="url(#b)" d="m192 47.599998h.3v14.1h-.3z"/><path clip-path="url(#b)" d="m192.3 47.599998h.3v14.1h-.3z"/><path clip-path="url(#b)" d="m192.60001 47.599998h.3v14.1h-.3z"/><path clip-path="url(#b)" d="m192.8 47.599998h.3v14.1h-.3z"/><path clip-path="url(#b)" d="m193.10001 47.599998h.3v14.1h-.3z"/><path clip-path="url(#b)" d="m193.39999 47.599998h.3v14.1h-.3z"/><path clip-path="url(#b)" d="m193.7 47.599998h.3v14.1h-.3z"/><path clip-path="url(#b)" d="m193.89999 47.599998h.3v14.1h-.3z"/><path clip-path="url(#b)" d="m194.2 47.599998h.3v14.1h-.3z"/><path clip-path="url(#b)" d="m194.5 47.599998h.3v14.1h-.3z"/><path clip-path="url(#b)" d="m194.8 47.599998h.3v14.1h-.3z"/><path clip-path="url(#b)" d="m195.10001 47.599998h.3v14.1h-.3z"/><path clip-path="url(#b)" d="m195.3 47.599998h.3v14.1h-.3z"/><path clip-path="url(#b)" d="m195.60001 47.599998h.3v14.1h-.3z"/><path clip-path="url(#b)" d="m195.89999 47.599998h.3v14.1h-.3z"/><path clip-path="url(#b)" d="m196.2 47.599998h.3v14.1h-.3z"/><path clip-path="url(#b)" d="m196.39999 47.599998h.3v14.1h-.3z"/><path clip-path="url(#b)" d="m196.7 47.599998h.3v14.1h-.3z"/><path clip-path="url(#b)" d="m197 47.599998h.3v14.1h-.3z"/><path clip-path="url(#b)" d="m197.3 47.599998h.3v14.1h-.3z"/><path clip-path="url(#b)" d="m197.5 47.599998h.3v14.1h-.3z"/><path clip-path="url(#b)" d="m197.8 47.599998h.3v14.1h-.3z"/><path clip-path="url(#b)" d="m198.10001 47.599998h.3v14.1h-.3z"/><path clip-path="url(#b)" d="m198.39999 47.599998h.3v14.1h-.3z"/><path clip-path="url(#b)" d="m198.7 47.599998h.3v14.1h-.3z"/><path clip-path="url(#b)" d="m198.89999 47.599998h.3v14.1h-.3z"/><path clip-path="url(#b)" d="m199.2 47.599998h.3v14.1h-.3z"/><path clip-path="url(#b)" d="m199.5 47.599998h.3v14.1h-.3z"/><path clip-path="url(#b)" d="m199.8 47.599998h.3v14.1h-.3z"/><path clip-path="url(#b)" d="m200 47.599998h.3v14.1h-.3z"/><path clip-path="url(#b)" d="m200.3 47.599998h.3v14.1h-.3z"/><path clip-path="url(#b)" d="m200.60001 47.599998h.3v14.1h-.3z"/><path clip-path="url(#b)" d="m200.89999 47.599998h.3v14.1h-.3z"/><path clip-path="url(#b)" d="m201.2 47.599998h.3v14.1h-.3z"/><path clip-path="url(#b)" d="m201.39999 47.599998h.3v14.1h-.3z"/><path clip-path="url(#b)" d="m201.7 47.599998h.3v14.1h-.3z"/><path clip-path="url(#b)" d="m202 47.599998h.3v14.1h-.3z"/><path clip-path="url(#b)" d="m202.3 47.599998h.3v14.1h-.3z"/><path clip-path="url(#b)" d="m202.5 47.599998h.3v14.1h-.3z"/><path clip-path="url(#b)" d="m202.8 47.599998h.3v14.1h-.3z"/><path clip-path="url(#b)" d="m203.10001 47.599998h.3v14.1h-.3z"/><path clip-path="url(#b)" d="m203.39999 47.599998h.3v14.1h-.3z"/><path clip-path="url(#b)" d="m203.60001 47.599998h.3v14.1h-.3z"/><path clip-path="url(#b)" d="m203.9 61.7v-14.1z"/></g><g><use height="100%" width="100%" xlink:href="#g"/><path clip-path="url(#c)" d="m178.5 34v21.5z"/><path clip-path="url(#c)" d="m178.5 34h.3v21.5h-.3z"/><path clip-path="url(#c)" d="m178.8 34h.3v21.5h-.3z"/><path clip-path="url(#c)" d="m179.10001 34h.3v21.5h-.3z"/><path clip-path="url(#c)" d="m179.39999 34h.3v21.5h-.3z"/><path clip-path="url(#c)" d="m179.8 34h.3v21.5h-.3z"/><path clip-path="url(#c)" d="m180.10001 34h.3v21.5h-.3z"/><path clip-path="url(#c)" d="m180.39999 34h.3v21.5h-.3z"/><path clip-path="url(#c)" d="m180.8 34h.3v21.5h-.3z"/><path clip-path="url(#c)" d="m181.10001 34h.3v21.5h-.3z"/><path clip-path="url(#c)" d="m181.39999 34h.3v21.5h-.3z"/><path clip-path="url(#c)" d="m181.7 34h.3v21.5h-.3z"/><path clip-path="url(#c)" d="m182.10001 34h.3v21.5h-.3z"/><path clip-path="url(#c)" d="m182.39999 34h.3v21.5h-.3z"/><path clip-path="url(#c)" d="m182.7 34h.3v21.5h-.3z"/><path clip-path="url(#c)" d="m183.10001 34h.3v21.5h-.3z"/><path clip-path="url(#c)" d="m183.39999 34h.3v21.5h-.3z"/><path clip-path="url(#c)" d="m183.7 34h.3v21.5h-.3z"/><path clip-path="url(#c)" d="m184 34h.3v21.5h-.3z"/><path clip-path="url(#c)" d="m184.39999 34h.3v21.5h-.3z"/><path clip-path="url(#c)" d="m184.7 34h.3v21.5h-.3z"/><path clip-path="url(#c)" d="m185 34h.3v21.5h-.3z"/><path clip-path="url(#c)" d="m185.39999 34h.3v21.5h-.3z"/><path clip-path="url(#c)" d="m185.7 34h.3v21.5h-.3z"/><path clip-path="url(#c)" d="m186 34h.3v21.5h-.3z"/><path clip-path="url(#c)" d="m186.3 34h.3v21.5h-.3z"/><path clip-path="url(#c)" d="m186.7 34h.3v21.5h-.3z"/><path clip-path="url(#c)" d="m187 34h.3v21.5h-.3z"/><path clip-path="url(#c)" d="m187.3 34h.3v21.5h-.3z"/><path clip-path="url(#c)" d="m187.60001 34h.3v21.5h-.3z"/><path clip-path="url(#c)" d="m188 34h.3v21.5h-.3z"/><path clip-path="url(#c)" d="m188.3 34h.3v21.5h-.3z"/><path clip-path="url(#c)" d="m188.60001 34h.3v21.5h-.3z"/><path clip-path="url(#c)" d="m189 34h.3v21.5h-.3z"/><path clip-path="url(#c)" d="m189.3 34h.3v21.5h-.3z"/><path clip-path="url(#c)" d="m189.60001 34h.3v21.5h-.3z"/><path clip-path="url(#c)" d="m189.89999 34h.3v21.5h-.3z"/><path clip-path="url(#c)" d="m190.3 34h.3v21.5h-.3z"/><path clip-path="url(#c)" d="m190.60001 34h.3v21.5h-.3z"/><path clip-path="url(#c)" d="m190.89999 34h.3v21.5h-.3z"/><path clip-path="url(#c)" d="m191.3 34h.3v21.5h-.3z"/><path clip-path="url(#c)" d="m191.60001 34h.3v21.5h-.3z"/><path clip-path="url(#c)" d="m191.89999 34h.3v21.5h-.3z"/><path clip-path="url(#c)" d="m192.2 34h.3v21.5h-.3z"/><path clip-path="url(#c)" d="m192.60001 34h.3v21.5h-.3z"/><path clip-path="url(#c)" d="m192.89999 34h.3v21.5h-.3z"/><path clip-path="url(#c)" d="m193.2 34h.3v21.5h-.3z"/><path clip-path="url(#c)" d="m193.60001 34h.3v21.5h-.3z"/><path clip-path="url(#c)" d="m193.89999 34h.3v21.5h-.3z"/><path clip-path="url(#c)" d="m194.2 34h.3v21.5h-.3z"/><path clip-path="url(#c)" d="m194.5 34h.3v21.5h-.3z"/><path clip-path="url(#c)" d="m194.89999 34h.3v21.5h-.3z"/><path clip-path="url(#c)" d="m195.2 34h.3v21.5h-.3z"/><path clip-path="url(#c)" d="m195.5 34h.3v21.5h-.3z"/><path clip-path="url(#c)" d="m195.89999 34h.3v21.5h-.3z"/><path clip-path="url(#c)" d="m196.2 34h.3v21.5h-.3z"/><path clip-path="url(#c)" d="m196.5 34h.3v21.5h-.3z"/><path clip-path="url(#c)" d="m196.8 34h.3v21.5h-.3z"/><path clip-path="url(#c)" d="m197.2 34h.3v21.5h-.3z"/><path clip-path="url(#c)" d="m197.5 34h.3v21.5h-.3z"/><path clip-path="url(#c)" d="m197.8 34h.3v21.5h-.3z"/><path clip-path="url(#c)" d="m198.10001 34h.3v21.5h-.3z"/><path clip-path="url(#c)" d="m198.5 34h.3v21.5h-.3z"/><path clip-path="url(#c)" d="m198.8 34h.3v21.5h-.3z"/><path clip-path="url(#c)" d="m199.10001 34h.3v21.5h-.3z"/><path clip-path="url(#c)" d="m199.5 34h.3v21.5h-.3z"/><path clip-path="url(#c)" d="m199.8 34h.3v21.5h-.3z"/><path clip-path="url(#c)" d="m200.10001 34h.3v21.5h-.3z"/><path clip-path="url(#c)" d="m200.39999 34h.3v21.5h-.3z"/><path clip-path="url(#c)" d="m200.8 34h.3v21.5h-.3z"/><path clip-path="url(#c)" d="m201.10001 34h.3v21.5h-.3z"/><path clip-path="url(#c)" d="m201.39999 34h.3v21.5h-.3z"/><path clip-path="url(#c)" d="m201.8 34h.3v21.5h-.3z"/><path clip-path="url(#c)" d="m202.10001 34h.3v21.5h-.3z"/><path clip-path="url(#c)" d="m202.39999 34h.3v21.5h-.3z"/><path clip-path="url(#c)" d="m202.7 34h.3v21.5h-.3z"/><path clip-path="url(#c)" d="m203.10001 34h.3v21.5h-.3z"/><path clip-path="url(#c)" d="m203.39999 34h.3v21.5h-.3z"/><path clip-path="url(#c)" d="m203.7 34h.3v21.5h-.3z"/><path clip-path="url(#c)" d="m204.10001 34h.3v21.5h-.3z"/><path clip-path="url(#c)" d="m204.39999 34h.3v21.5h-.3z"/><path clip-path="url(#c)" d="m204.7 34h.3v21.5h-.3z"/><path clip-path="url(#c)" d="m205 34h.3v21.5h-.3z"/><path clip-path="url(#c)" d="m205.39999 34h.3v21.5h-.3z"/><path clip-path="url(#c)" d="m205.7 34h.3v21.5h-.3z"/><path clip-path="url(#c)" d="m206 34h.3v21.5h-.3z"/><path clip-path="url(#c)" d="m206.39999 34h.3v21.5h-.3z"/><path clip-path="url(#c)" d="m206.7 34h.3v21.5h-.3z"/><path clip-path="url(#c)" d="m207 34h.3v21.5h-.3z"/><path clip-path="url(#c)" d="m207.3 34h.3v21.5h-.3z"/><path clip-path="url(#c)" d="m207.7 34h.3v21.5h-.3z"/><path clip-path="url(#c)" d="m208 34h.3v21.5h-.3z"/><path clip-path="url(#c)" d="m208.3 34h.3v21.5h-.3z"/><path clip-path="url(#c)" d="m208.60001 34h.3v21.5h-.3z"/><path clip-path="url(#c)" d="m209 34h.3v21.5h-.3z"/><path clip-path="url(#c)" d="m209.3 34h.3v21.5h-.3z"/><path clip-path="url(#c)" d="m209.60001 34h.3v21.5h-.3z"/><path clip-path="url(#c)" d="m210 34h.3v21.5h-.3z"/><path clip-path="url(#c)" d="m210.3 34h.3v21.5h-.3z"/><path clip-path="url(#c)" d="m210.60001 34h.3v21.5h-.3z"/><path clip-path="url(#c)" d="m210.89999 34h.3v21.5h-.3z"/><path clip-path="url(#c)" d="m211.3 34h.3v21.5h-.3z"/><path clip-path="url(#c)" d="m211.60001 34h.3v21.5h-.3z"/><path clip-path="url(#c)" d="m211.89999 34h.3v21.5h-.3z"/><path clip-path="url(#c)" d="m212.3 34h.3v21.5h-.3z"/><path clip-path="url(#c)" d="m212.60001 34h.3v21.5h-.3z"/><path clip-path="url(#c)" d="m212.89999 34h.3v21.5h-.3z"/><path clip-path="url(#c)" d="m213.2 34h.3v21.5h-.3z"/><path clip-path="url(#c)" d="m213.60001 34h.3v21.5h-.3z"/><path clip-path="url(#c)" d="m213.89999 34h.3v21.5h-.3z"/><path clip-path="url(#c)" d="m214.2 34h.3v21.5h-.3z"/><path clip-path="url(#c)" d="m214.60001 34h.3v21.5h-.3z"/><path clip-path="url(#c)" d="m214.89999 34h.3v21.5h-.3z"/><path clip-path="url(#c)" d="m215.2 34h.3v21.5h-.3z"/><path clip-path="url(#c)" d="m215.5 34h.3v21.5h-.3z"/><path clip-path="url(#c)" d="m215.89999 34h.3v21.5h-.3z"/><path clip-path="url(#c)" d="m216.2 34h.3v21.5h-.3z"/><path clip-path="url(#c)" d="m216.5 34h.3v21.5h-.3z"/><path clip-path="url(#c)" d="m216.89999 34h.3v21.5h-.3z"/><path clip-path="url(#c)" d="m217.2 34h.3v21.5h-.3z"/><path clip-path="url(#c)" d="m217.5 34h.3v21.5h-.3z"/><path clip-path="url(#c)" d="m217.8 34h.3v21.5h-.3z"/><path clip-path="url(#c)" d="m218.2 34h.3v21.5h-.3z"/><path clip-path="url(#c)" d="m218.5 34h.3v21.5h-.3z"/><path clip-path="url(#c)" d="m218.8 34h.3v21.5h-.3z"/><path clip-path="url(#c)" d="m219.10001 34h.3v21.5h-.3z"/><path clip-path="url(#c)" d="m219.5 34h.3v21.5h-.3z"/><path clip-path="url(#c)" d="m219.8 34h.3v21.5h-.3z"/><path clip-path="url(#c)" d="m220.10001 34h1.5v21.5h-1.5z"/></g><g><use height="100%" width="100%" xlink:href="#h"/><path clip-path="url(#d)" d="m153.10001 20.1h3.2v26.799999h-3.2z"/><path clip-path="url(#d)" d="m156.3 20.1h.2v26.799999h-.2z"/><path clip-path="url(#d)" d="m156.5 20.1h.2v26.799999h-.2z"/><path clip-path="url(#d)" d="m156.60001 20.1h.2v26.799999h-.2z"/><path clip-path="url(#d)" d="m156.8 20.1h.2v26.799999h-.2z"/><path clip-path="url(#d)" d="m157 20.1h.2v26.799999h-.2z"/><path clip-path="url(#d)" d="m157.10001 20.1h.2v26.799999h-.2z"/><path clip-path="url(#d)" d="m157.3 20.1h.2v26.799999h-.2z"/><path clip-path="url(#d)" d="m157.39999 20.1h.2v26.799999h-.2z"/><path clip-path="url(#d)" d="m157.60001 20.1h.2v26.799999h-.2z"/><path clip-path="url(#d)" d="m157.7 20.1h.2v26.799999h-.2z"/><path clip-path="url(#d)" d="m157.89999 20.1h.2v26.799999h-.2z"/><path clip-path="url(#d)" d="m158.10001 20.1h.2v26.799999h-.2z"/><path clip-path="url(#d)" d="m158.2 20.1h.2v26.799999h-.2z"/><path clip-path="url(#d)" d="m158.39999 20.1h.2v26.799999h-.2z"/><path clip-path="url(#d)" d="m158.5 20.1h.2v26.799999h-.2z"/><path clip-path="url(#d)" d="m158.7 20.1h.2v26.799999h-.2z"/><path clip-path="url(#d)" d="m158.89999 20.1h.2v26.799999h-.2z"/><path clip-path="url(#d)" d="m159 20.1h.2v26.799999h-.2z"/><path clip-path="url(#d)" d="m159.2 20.1h.2v26.799999h-.2z"/><path clip-path="url(#d)" d="m159.3 20.1h.2v26.799999h-.2z"/><path clip-path="url(#d)" d="m159.5 20.1h.2v26.799999h-.2z"/><path clip-path="url(#d)" d="m159.60001 20.1h.2v26.799999h-.2z"/><path clip-path="url(#d)" d="m159.8 20.1h.2v26.799999h-.2z"/><path clip-path="url(#d)" d="m160 20.1h.2v26.799999h-.2z"/><path clip-path="url(#d)" d="m160.10001 20.1h.2v26.799999h-.2z"/><path clip-path="url(#d)" d="m160.3 20.1h.2v26.799999h-.2z"/><path clip-path="url(#d)" d="m160.39999 20.1h.2v26.799999h-.2z"/><path clip-path="url(#d)" d="m160.60001 20.1h.2v26.799999h-.2z"/><path clip-path="url(#d)" d="m160.7 20.1h.2v26.799999h-.2z"/><path clip-path="url(#d)" d="m160.89999 20.1h.2v26.799999h-.2z"/><path clip-path="url(#d)" d="m161.10001 20.1h.2v26.799999h-.2z"/><path clip-path="url(#d)" d="m161.2 20.1h.2v26.799999h-.2z"/><path clip-path="url(#d)" d="m161.39999 20.1h.2v26.799999h-.2z"/><path clip-path="url(#d)" d="m161.5 20.1h.2v26.799999h-.2z"/><path clip-path="url(#d)" d="m161.7 20.1h.2v26.799999h-.2z"/><path clip-path="url(#d)" d="m161.89999 20.1h.2v26.799999h-.2z"/><path clip-path="url(#d)" d="m162 20.1h.2v26.799999h-.2z"/><path clip-path="url(#d)" d="m162.2 20.1h.2v26.799999h-.2z"/><path clip-path="url(#d)" d="m162.3 20.1h.2v26.799999h-.2z"/><path clip-path="url(#d)" d="m162.5 20.1h.2v26.799999h-.2z"/><path clip-path="url(#d)" d="m162.60001 20.1h.2v26.799999h-.2z"/><path clip-path="url(#d)" d="m162.8 20.1h.2v26.799999h-.2z"/><path clip-path="url(#d)" d="m163 20.1h.2v26.799999h-.2z"/><path clip-path="url(#d)" d="m163.10001 20.1h.2v26.799999h-.2z"/><path clip-path="url(#d)" d="m163.3 20.1h.2v26.799999h-.2z"/><path clip-path="url(#d)" d="m163.39999 20.1h.2v26.799999h-.2z"/><path clip-path="url(#d)" d="m163.60001 20.1h.2v26.799999h-.2z"/><path clip-path="url(#d)" d="m163.7 20.1h.2v26.799999h-.2z"/><path clip-path="url(#d)" d="m163.89999 20.1h.2v26.799999h-.2z"/><path clip-path="url(#d)" d="m164.10001 20.1h.2v26.799999h-.2z"/><path clip-path="url(#d)" d="m164.2 20.1h.2v26.799999h-.2z"/><path clip-path="url(#d)" d="m164.39999 20.1h.2v26.799999h-.2z"/><path clip-path="url(#d)" d="m164.5 20.1h.2v26.799999h-.2z"/><path clip-path="url(#d)" d="m164.7 20.1h.2v26.799999h-.2z"/><path clip-path="url(#d)" d="m164.89999 20.1h.2v26.799999h-.2z"/><path clip-path="url(#d)" d="m165 20.1h.2v26.799999h-.2z"/><path clip-path="url(#d)" d="m165.2 20.1h.2v26.799999h-.2z"/><path clip-path="url(#d)" d="m165.3 20.1h.2v26.799999h-.2z"/><path clip-path="url(#d)" d="m165.5 20.1h.2v26.799999h-.2z"/><path clip-path="url(#d)" d="m165.60001 20.1h.2v26.799999h-.2z"/><path clip-path="url(#d)" d="m165.8 20.1h.2v26.799999h-.2z"/><path clip-path="url(#d)" d="m166 20.1h.2v26.799999h-.2z"/><path clip-path="url(#d)" d="m166.10001 20.1h.2v26.799999h-.2z"/><path clip-path="url(#d)" d="m166.3 20.1h.2v26.799999h-.2z"/><path clip-path="url(#d)" d="m166.39999 20.1h.2v26.799999h-.2z"/><path clip-path="url(#d)" d="m166.60001 20.1h.2v26.799999h-.2z"/><path clip-path="url(#d)" d="m166.8 20.1h.2v26.799999h-.2z"/><path clip-path="url(#d)" d="m166.89999 20.1h.2v26.799999h-.2z"/><path clip-path="url(#d)" d="m167.10001 20.1h.2v26.799999h-.2z"/><path clip-path="url(#d)" d="m167.2 20.1h.2v26.799999h-.2z"/><path clip-path="url(#d)" d="m167.39999 20.1h.2v26.799999h-.2z"/><path clip-path="url(#d)" d="m167.5 20.1h.2v26.799999h-.2z"/><path clip-path="url(#d)" d="m167.7 20.1h.2v26.799999h-.2z"/><path clip-path="url(#d)" d="m167.89999 20.1h.2v26.799999h-.2z"/><path clip-path="url(#d)" d="m168 20.1h.2v26.799999h-.2z"/><path clip-path="url(#d)" d="m168.2 20.1h.2v26.799999h-.2z"/><path clip-path="url(#d)" d="m168.3 20.1h.2v26.799999h-.2z"/><path clip-path="url(#d)" d="m168.5 20.1h.2v26.799999h-.2z"/><path clip-path="url(#d)" d="m168.60001 20.1h.2v26.799999h-.2z"/><path clip-path="url(#d)" d="m168.8 20.1h.2v26.799999h-.2z"/><path clip-path="url(#d)" d="m169 20.1h.2v26.799999h-.2z"/><path clip-path="url(#d)" d="m169.10001 20.1h.2v26.799999h-.2z"/><path clip-path="url(#d)" d="m169.3 20.1h.2v26.799999h-.2z"/><path clip-path="url(#d)" d="m169.39999 20.1h.2v26.799999h-.2z"/><path clip-path="url(#d)" d="m169.60001 20.1h.2v26.799999h-.2z"/><path clip-path="url(#d)" d="m169.8 20.1h.2v26.799999h-.2z"/><path clip-path="url(#d)" d="m169.89999 20.1h.2v26.799999h-.2z"/><path clip-path="url(#d)" d="m170.10001 20.1h.2v26.799999h-.2z"/><path clip-path="url(#d)" d="m170.2 20.1h.2v26.799999h-.2z"/><path clip-path="url(#d)" d="m170.39999 20.1h.2v26.799999h-.2z"/><path clip-path="url(#d)" d="m170.5 20.1h.2v26.799999h-.2z"/><path clip-path="url(#d)" d="m170.7 20.1h.2v26.799999h-.2z"/><path clip-path="url(#d)" d="m170.89999 20.1h.2v26.799999h-.2z"/><path clip-path="url(#d)" d="m171 20.1h.2v26.799999h-.2z"/><path clip-path="url(#d)" d="m171.2 20.1h.2v26.799999h-.2z"/><path clip-path="url(#d)" d="m171.3 20.1h.2v26.799999h-.2z"/><path clip-path="url(#d)" d="m171.5 20.1h.2v26.799999h-.2z"/><path clip-path="url(#d)" d="m171.60001 20.1h.2v26.799999h-.2z"/><path clip-path="url(#d)" d="m171.8 20.1h.2v26.799999h-.2z"/><path clip-path="url(#d)" d="m172 20.1h.2v26.799999h-.2z"/><path clip-path="url(#d)" d="m172.10001 20.1h.2v26.799999h-.2z"/><path clip-path="url(#d)" d="m172.3 20.1h.2v26.799999h-.2z"/><path clip-path="url(#d)" d="m172.39999 20.1h.2v26.799999h-.2z"/><path clip-path="url(#d)" d="m172.60001 20.1h.2v26.799999h-.2z"/><path clip-path="url(#d)" d="m172.8 20.1h.2v26.799999h-.2z"/><path clip-path="url(#d)" d="m172.89999 20.1h.2v26.799999h-.2z"/><path clip-path="url(#d)" d="m173.10001 20.1h.2v26.799999h-.2z"/><path clip-path="url(#d)" d="m173.2 20.1h.2v26.799999h-.2z"/><path clip-path="url(#d)" d="m173.39999 20.1h.2v26.799999h-.2z"/><path clip-path="url(#d)" d="m173.5 20.1h.2v26.799999h-.2z"/><path clip-path="url(#d)" d="m173.7 20.1h.2v26.799999h-.2z"/><path clip-path="url(#d)" d="m173.89999 20.1h.2v26.799999h-.2z"/><path clip-path="url(#d)" d="m174 20.1h.2v26.799999h-.2z"/><path clip-path="url(#d)" d="m174.2 20.1h.2v26.799999h-.2z"/><path clip-path="url(#d)" d="m174.3 20.1h.2v26.799999h-.2z"/><path clip-path="url(#d)" d="m174.5 20.1h.2v26.799999h-.2z"/><path clip-path="url(#d)" d="m174.60001 20.1h.2v26.799999h-.2z"/><path clip-path="url(#d)" d="m174.8 20.1h.2v26.799999h-.2z"/><path clip-path="url(#d)" d="m175 20.1h.2v26.799999h-.2z"/><path clip-path="url(#d)" d="m175.10001 20.1h.2v26.799999h-.2z"/><path clip-path="url(#d)" d="m175.3 20.1h.2v26.799999h-.2z"/><path clip-path="url(#d)" d="m175.39999 20.1h.2v26.799999h-.2z"/><path clip-path="url(#d)" d="m175.60001 20.1h.2v26.799999h-.2z"/><path clip-path="url(#d)" d="m175.8 20.1h.2v26.799999h-.2z"/><path clip-path="url(#d)" d="m175.89999 20.1h.2v26.799999h-.2z"/><path clip-path="url(#d)" d="m176.10001 20.1h.2v26.799999h-.2z"/><path clip-path="url(#d)" d="m176.2 20.1h.2v26.799999h-.2z"/><path clip-path="url(#d)" d="m176.4 46.9v-26.8z"/></g></g><g fill="#054b9a"><path d="m258.8 50.6h-9.7v-16c0-2.5-1.7-4.2-4.1-4.2s-4.1 1.7-4.1 4.2v16h-9.7v-42.5h9.7v16.1c2-1.8 4.5-2.7 7.4-2.7 6.3 0 10.6 4.6 10.6 11.5v17.6z"/><path d="m264.7 22.3h9.7v15.9c0 2.4 1.7 4.1 4.1 4.1 2.3 0 4.1-1.7 4.1-4.1v-15.9h9.7v15.1c0 8.3-5.8 13.9-13.8 13.9s-13.9-5.5-13.9-13.9v-15.1z"/><path d="m315.5 51.2c-3.6 0-6.3-1.2-8.1-3.6v2.9h-8.9v-42.4h9.7v16.1c1.9-1.8 4.2-2.6 7.2-2.6 7.8 0 13.6 6.3 13.6 14.9.1 8.6-5.6 14.7-13.5 14.7zm-1.9-20.8c-3 0-5.5 2.2-5.5 6.1s2.5 5.9 5.5 5.9c3.1 0 5.5-2.2 5.5-6s-2.5-6-5.5-6z"/></g></g></svg>