<svg xmlns="http://www.w3.org/2000/svg" xmlns:xlink="http://www.w3.org/1999/xlink" viewBox="0 0 325.8 53.5"><defs><clipPath id="e"><use xlink:href="#a" width="100%" height="100%"/></clipPath><clipPath id="f"><use xlink:href="#b" width="100%" height="100%"/></clipPath><clipPath id="g"><use xlink:href="#c" width="100%" height="100%"/></clipPath><clipPath id="h"><use xlink:href="#d" width="100%" height="100%"/></clipPath><path id="a" d="m167.7 33.5.9 1.1.1.1.1.2a21 21 0 0 1 4.1-9.1q-1 2-.9 4a17 17 0 0 0-3.1 5.3l.4.5q1-2.6 2.8-4.8a10 10 0 0 0 3.8 5.4q-1.3 2.5-2.1 5.2l1.2 1.5q.7-2.9 2.1-5.8 3.5 2.3 8.1 3l-.9 8-.7-.1.7.3 1.8.7 2.2.7q4.6.2 8.8-.7l.1 2.8 1.8.2v-.8l-.1-2.8a22 22 0 0 0 8.7-4.7l.2 2.7q0 2.2-.6 3.9-1 1-2.4 1.9h.9l1.2-1-.5 1h.4l1.6-.2q4-5.7 4.1-13A22.8 22.8 0 0 0 178 19.4h.4l-3.4 2.1q-5.4 4.7-7.3 12m6.2-8.9 1.5-1.5q2-1.3 4.7-1.9a5 5 0 0 0-1.2 3.4 22 22 0 0 0-6.2 4.5q-.1-2.3 1.2-4.5m2.6 10.6a9 9 0 0 1-3.6-5.2q2.6-2.8 6.2-4.8a6 6 0 0 0 2.3 3.3 38 38 0 0 0-4.9 6.7m8.9 3.7q-4.4-.7-7.8-2.9 1.8-3.7 4.5-7a13 13 0 0 0 5 1.8q-1 3.9-1.7 8.1M188 31q2.9.3 5.6-.3l2.1 7.9q-4.3 1-8.8.5zm-1.9 17.4.6-8.1q4.7.5 9.2-.5.8 4 1.1 8a33 33 0 0 1-10.9.6m8.4-17.9a11 11 0 0 0 4.5-2.4q3 2.9 5.2 6.4-1.2 1-2.8 2-2 1-4.2 1.7-1.2-4-2.7-7.7m11.3-5.8q.8 1.3 1.1 2.6a19 19 0 0 0-6.2-3.8 5 5 0 0 0-2.2-3.3q1.5.1 2.7.7a17 17 0 0 1 4.6 3.8m1.2 3.6q.1 2.8-2 5.4a32 32 0 0 0-5.5-6.1 5 5 0 0 0 1.3-3.4q3.6 1.5 6.2 4.1m-3 16.9a27 27 0 0 1-5.2 2.2q-.4-3.8-1.4-7.9l4.4-1.8q1.7-.9 2.9-2.1 2 3.5 2.8 7.2-1.4 1.2-3.5 2.4m1.6-10.6a8 8 0 0 0 2.1-5.6q2 2.1 2.9 4.7l.4 2.1q-.2 3-2.5 5.8a26 26 0 0 0-2.9-7m3.3 14-.6.7q.6-1.8.6-4l-.2-2.7q2-2.5 2.5-5.3l.1 1.5q-.2 5.4-2.4 9.8m.8-17.7q-.9-1.5-2.1-2.9-.2-1-.7-2.1 1.6 2.3 2.8 5m-19.1-9.3q.1 0 0 0 4-1.5 7.1-1.4a5 5 0 0 1 1.9 3q-4-1.4-8.8-1.2v.1q4.8.2 8.8 1.7 0 1.6-1.2 3.1-3.5-2.8-7.8-4.5v.1q4 1.9 7.4 4.9l-1.6 1.2q-1.1.6-2.4 1a34 34 0 0 0-3.8-6.8h-.1a46 46 0 0 1 3 7q-2.5.6-5.1.3l1.5-7.3h-.1q-1.2 3-2.3 7.2-2.5-.4-4.5-1.7 3-3.4 6.3-5.7a32 32 0 0 0-6.9 5.3 6 6 0 0 1-2.1-3q4-2 8.7-2.6v-.1a27 27 0 0 0-8.8 2.1q-.1-1.6 1-3.1a20 20 0 0 1 7.9.7v-.1q-4-1.4-7.5-1.1l1.7-1.3q1-.6 2.2-.9a10 10 0 0 1 4 3.1h.1a11 11 0 0 0-3.2-3.3q2.5-.6 5.1-.3-.6.9-1.3 3.6h.1q1.1-2.7 2.1-3.5 2.8.4 4.9 1.8h.8q-2.3-1.5-5.4-2 4.1.5 7.6 2.4-3.8-1.5-9.3 1.3m-2.3-4-2.4.4h-.2q1.2-.4 2.6-.4m-3.7.5.3.1-2.4 1q-1.2.6-1.9 1.4-2 .3-3.6 1.1 3.3-2.5 7.6-3.6"/><path id="b" d="M197 59.1q.9-.9 1.5-2.8l-1.6-.3-1.5-.3q-4.6.8-9.3.3l-.1-2.7-1.9-.7.2 3.1q-5.3-1-9.6-3.5-.5-1.7-.5-3.9l-.6-.3-.7-.1q0 1.8.5 3.3-1.6-1.3-2.7-2.7l-.4-.9h-.4l-1.2-.1a22.8 22.8 0 0 0 35.2 9.2l-2.1-.1a22 22 0 0 1-4.8 2.5m-.1-3a7 7 0 0 1-1.4 3.4q-4.2 1-8.6.4a12 12 0 0 1-.7-3.3q5.3.7 10.7-.5m-12.5.4a8 8 0 0 0 1 3.3l-1.8-.4q-4.1-1.3-7.3-3.9-.8-1.1-1.3-2.5 4.1 2.6 9.4 3.5M171.5 50q.9 1 2.1 2l1 2a25 25 0 0 1-3.1-4"/><path id="c" d="m217.9 41.5.8-1.3 1-1.8-6.8-4.4q1.2 2.6 1.7 5.5c.7 3.5.8 6.6.8 6.6l1.3-2.3q1.6 6-4.8 8.6l-1.9.6-2.7.5-1.6.2h-.5l-2.1.1h-1.4l-2.8-.1-1.8-.2q-5.2-.6-11.1-2.7l-1.9-.7-3.2-1.4-2.5.1 5.7 2.5 1.9.7q5.6 2 11 2.8l1.7.3 1.3.1 3.3.3h2q4 0 7.1-.8l2.1-.6c6.3-2.3 7.1-7.1 3.4-12.6"/><path id="d" d="M169.4 46.2h.3l1 .1 2.3.2 1.1.1h.3l2 .2-.3-.4-.6-.7-.8-1.1-1.2-1.6-.2-.2-4.3-5.5-.1-.1-.3-.4v-.2l-.5-.7-.4 2.7-.2 1.6-.2-.2-1.1-.9c-7.7-6.7-8.7-13.4-1.4-16.1l1.9-.6a22 22 0 0 1 5.3-.6l2.5-1.7q-5.8-.4-10.3.5l-2.1.6c-8.7 3.3-6.8 11.7 3.9 19.8l1.3.9-.2 1.5-.3 2.1 1.8.2z"/></defs><g fill="#2e62ab"><path d="M17 39.6q-4.5 0-7.2-2.6v12.1H0V10.6h8.9v2.9q2.7-3.6 8.1-3.6c7.9 0 13.6 6.2 13.6 14.8-.1 8.6-5.8 14.9-13.6 14.9m-2-20.9c-3 0-5.5 2.1-5.5 5.9s2.5 6.1 5.5 6.1 5.5-2.2 5.5-6c.1-3.8-2.4-6-5.5-6m39.3.5H52q-6.7-.2-6.7 6.8v12.9h-9.7V10.6h8.9v3a9 9 0 0 1 9.9-3zm17.5-9.3c8.4-.2 15.6 6.7 15.5 14.8.2 8.1-7 15-15.5 14.8a15 15 0 0 1-15.4-14.8A15 15 0 0 1 71.8 9.9m.1 8.9c-3.2 0-5.5 2.4-5.5 5.9s2.3 5.9 5.5 5.9 5.4-2.5 5.4-5.9-2.3-5.9-5.4-5.9m36.5 20.1-4.9-7.4-4.8 7.4H87.9l10.2-14.5-9.7-13.8h10.8l4.2 6.7 4.3-6.7h10.8l-9.7 13.8 10.4 14.5zm43-28.3-13.3 29.8c-2.9 6.4-6.5 9.3-12.3 9.3a20 20 0 0 1-5.4-.7v-8.1l3.3.1c2.7 0 4.4-.6 5.5-3.3l.5-1-10.4-26.2h10.4l5.4 15.9 6.1-15.9z"/><g transform="translate(-3.2 -8.1)"><use xlink:href="#a" width="100%" height="100%"/><path d="M177 18.1h.3v3.7h-.3z" clip-path="url(#e)"/><path d="M177.2 18.1h.4v3.7h-.4z" clip-path="url(#e)"/><path d="M177.6 18.1h.4v3.7h-.4z" clip-path="url(#e)"/><path d="M177.9 18.1h.4v3.7h-.4z" clip-path="url(#e)"/><path d="M178.3 18.1h.4v3.7h-.4z" clip-path="url(#e)"/><path d="M178.6 18.1h.4v3.7h-.4z" clip-path="url(#e)"/><path d="M179 18.1h.4v3.7h-.4z" clip-path="url(#e)"/><path d="M179.3 18.1h.4v3.7h-.4z" clip-path="url(#e)"/><path d="M179.7 18.1h.4v3.7h-.4z" clip-path="url(#e)"/><path d="M180 18.1h.4v3.7h-.4z" clip-path="url(#e)"/><path d="M180.4 18.1h.4v3.7h-.4z" clip-path="url(#e)"/><path d="M180.8 18.1h.4v3.7h-.4z" clip-path="url(#e)"/><path d="M181.1 18.1h.4v3.7h-.4z" clip-path="url(#e)"/><path d="M181.5 18.1h.4v3.7h-.4z" clip-path="url(#e)"/><path d="M181.8 18.1h.4v3.7h-.4z" clip-path="url(#e)"/><path d="M182.2 18.1h.4v3.7h-.4z" clip-path="url(#e)"/><path d="M182.5 18.1h.4v3.7h-.4z" clip-path="url(#e)"/><path d="M182.9 18.1h.4v3.7h-.4z" clip-path="url(#e)"/><path d="M183.2 18.1h.4v3.7h-.4z" clip-path="url(#e)"/><path d="M183.6 18.1h.4v3.7h-.4z" clip-path="url(#e)"/><path d="M183.9 18.1h.4v3.7h-.4z" clip-path="url(#e)"/><path d="M184.3 18.1h.4v3.7h-.4z" clip-path="url(#e)"/><path d="M184.6 18.1h.3v3.7h-.3z" clip-path="url(#e)"/><path d="M185.7 17.6h.4v.4h-.4z" clip-path="url(#e)"/><path d="M186.1 17.6h.4v.4h-.4z" clip-path="url(#e)"/><path d="M186.4 17.6h.4v.4h-.4z" clip-path="url(#e)"/><path d="M186.8 17.6h.4v.4h-.4z" clip-path="url(#e)"/><path d="M187.1 17.6h.4v.4h-.4z" clip-path="url(#e)"/><path d="M187.5 17.6h.4v.4h-.4z" clip-path="url(#e)"/><path d="M187.8 17.6h.4v.4h-.4z" clip-path="url(#e)"/><path d="M188.2 17.6v.4h-.1z" clip-path="url(#e)"/><path d="M179.9 17.6v12.5h-.1z" clip-path="url(#e)"/><path d="M180 17.6h.4v12.5h-.4z" clip-path="url(#e)"/><path d="M180.4 17.6h.4v12.5h-.4z" clip-path="url(#e)"/><path d="M180.8 17.6h.4v12.5h-.4z" clip-path="url(#e)"/><path d="M181.1 17.6h.4v12.5h-.4z" clip-path="url(#e)"/><path d="M181.5 17.6h.4v12.5h-.4z" clip-path="url(#e)"/><path d="M181.8 17.6h.4v12.5h-.4z" clip-path="url(#e)"/><path d="M182.2 17.6h.4v12.5h-.4z" clip-path="url(#e)"/><path d="M182.5 17.6h.4v12.5h-.4z" clip-path="url(#e)"/><path d="M182.9 17.6h.4v12.5h-.4z" clip-path="url(#e)"/><path d="M183.2 17.6h.4v12.5h-.4z" clip-path="url(#e)"/><path d="M183.6 17.6h.4v12.5h-.4z" clip-path="url(#e)"/><path d="M183.9 17.6h.4v12.5h-.4z" clip-path="url(#e)"/><path d="M184.3 17.6h.4v12.5h-.4z" clip-path="url(#e)"/><path d="M184.6 17.6h.4v12.5h-.4z" clip-path="url(#e)"/><path d="M185 17.6h.4v12.5h-.4z" clip-path="url(#e)"/><path d="M185.4 17.6h.4v12.5h-.4z" clip-path="url(#e)"/><path d="M185.7 17.6h.4v12.5h-.4z" clip-path="url(#e)"/><path d="M186.1 17.6h.4v12.5h-.4z" clip-path="url(#e)"/><path d="M186.4 17.6h.4v12.5h-.4z" clip-path="url(#e)"/><path d="M186.8 17.6h.4v12.5h-.4z" clip-path="url(#e)"/><path d="M187.1 17.6h.4v12.5h-.4z" clip-path="url(#e)"/><path d="M187.5 17.6h.4v12.5h-.4z" clip-path="url(#e)"/><path d="M187.8 17.6h.4v12.5h-.4z" clip-path="url(#e)"/><path d="M188.2 17.6h.4v12.5h-.4z" clip-path="url(#e)"/><path d="M188.5 17.6h.4v12.5h-.4z" clip-path="url(#e)"/><path d="M188.9 17.6h.4v12.5h-.4z" clip-path="url(#e)"/><path d="M189.2 17.6h.4v12.5h-.4z" clip-path="url(#e)"/><path d="M189.6 17.6h.4v12.5h-.4z" clip-path="url(#e)"/><path d="M190 17.6h.4v12.5h-.4z" clip-path="url(#e)"/><path d="M190.3 17.6h.4v12.5h-.4z" clip-path="url(#e)"/><path d="M190.7 17.6h.4v12.5h-.4z" clip-path="url(#e)"/><path d="M191 17.6h.4v12.5h-.4z" clip-path="url(#e)"/><path d="M191.4 17.6h.4v12.5h-.4z" clip-path="url(#e)"/><path d="M191.7 17.6h.4v12.5h-.4z" clip-path="url(#e)"/><path d="M192.1 17.6h.4v12.5h-.4z" clip-path="url(#e)"/><path d="M192.4 17.6h.4v12.5h-.4z" clip-path="url(#e)"/><path d="M192.8 17.6h.4v12.5h-.4z" clip-path="url(#e)"/><path d="M193.1 17.6h.4v12.5h-.4z" clip-path="url(#e)"/><path d="M193.5 17.6h.4v12.5h-.4z" clip-path="url(#e)"/><path d="M193.8 17.6h.4v12.5h-.4z" clip-path="url(#e)"/><path d="M194.2 17.6h.4v12.5h-.4z" clip-path="url(#e)"/><path d="M194.6 17.6h.4v12.5h-.4z" clip-path="url(#e)"/><path d="M194.9 17.6h.4v12.5h-.4z" clip-path="url(#e)"/><path d="M195.3 17.6h.4v12.5h-.4z" clip-path="url(#e)"/><path d="M195.6 17.6h.4v12.5h-.4z" clip-path="url(#e)"/><path d="M196 17.6h.4v12.5h-.4z" clip-path="url(#e)"/><path d="M196.3 17.6h.4v12.5h-.4z" clip-path="url(#e)"/><path d="M196.7 17.6h.4v12.5h-.4z" clip-path="url(#e)"/><path d="M197 17.6h.4v12.5h-.4z" clip-path="url(#e)"/><path d="M197.4 17.6h.4v12.5h-.4z" clip-path="url(#e)"/><path d="M197.7 17.6h.4v12.5h-.4z" clip-path="url(#e)"/><path d="M198.1 17.6h.4v12.5h-.4z" clip-path="url(#e)"/><path d="M198.4 17.6h.4v12.5h-.4z" clip-path="url(#e)"/><path d="M198.8 17.6h.4v12.5h-.4z" clip-path="url(#e)"/><path d="M199.2 17.6h.4v12.5h-.4z" clip-path="url(#e)"/><path d="M199.5 17.6h.4v12.5h-.4z" clip-path="url(#e)"/><path d="M199.9 17.6h.2v12.5h-.2z" clip-path="url(#e)"/><path d="M206.8 25.9v5h-.1z" clip-path="url(#e)"/><path d="M206.9 25.9h.4v5h-.4z" clip-path="url(#e)"/><path d="M207.3 25.9h.4v5h-.4z" clip-path="url(#e)"/><path d="M207.6 25.9h.4v5h-.4z" clip-path="url(#e)"/><path d="M208 25.9h.4v5h-.4z" clip-path="url(#e)"/><path d="M208.4 25.9h.4v5h-.4z" clip-path="url(#e)"/><path d="M208.7 25.9h.4v5h-.4z" clip-path="url(#e)"/><path d="M209.1 25.9h.4v5h-.4z" clip-path="url(#e)"/><path d="M209.4 25.9h.3v5h-.3z" clip-path="url(#e)"/><path d="M208.4 37.4h.4v12h-.4z" clip-path="url(#e)"/><path d="M208.7 37.4h.4v12h-.4z" clip-path="url(#e)"/><path d="M209.1 37.4h.4v12h-.4z" clip-path="url(#e)"/><path d="M209.4 37.4h.4v12h-.4z" clip-path="url(#e)"/><path d="M209.8 37.4h.4v12h-.4z" clip-path="url(#e)"/><path d="M210.1 37.4h.4v12h-.4z" clip-path="url(#e)"/><path d="M210.5 37.4h.4v12h-.4z" clip-path="url(#e)"/><path d="M210.8 37.4h.4v12h-.4z" clip-path="url(#e)"/><path d="M205.6 29h.3v12.6h-.3z" clip-path="url(#e)"/><path d="M205.9 29h.4v12.6h-.4z" clip-path="url(#e)"/><path d="M206.2 29h.4v12.6h-.4z" clip-path="url(#e)"/><path d="M206.6 29h.4v12.6h-.4z" clip-path="url(#e)"/><path d="M206.9 29h.4v12.6h-.4z" clip-path="url(#e)"/><path d="M207.3 29h.4v12.6h-.4z" clip-path="url(#e)"/><path d="M207.6 29h.4v12.6h-.4z" clip-path="url(#e)"/><path d="M208 29h.4v12.6h-.4z" clip-path="url(#e)"/><path d="M208.4 29h.4v12.6h-.4z" clip-path="url(#e)"/><path d="M208.7 29h.4v12.6h-.4z" clip-path="url(#e)"/><path d="M209.1 29h.4v12.6h-.4z" clip-path="url(#e)"/><path d="M209.4 29h.4v12.6h-.4z" clip-path="url(#e)"/><path d="M209.8 29h.4v12.6h-.4z" clip-path="url(#e)"/><path d="M210.1 29h.4v12.6h-.4z" clip-path="url(#e)"/><path d="M210.5 29h.4v12.6h-.4z" clip-path="url(#e)"/><path d="M210.8 29h.2v12.6h-.2z" clip-path="url(#e)"/><path d="M197.4 35.5h.3v11.8h-.3z" clip-path="url(#e)"/><path d="M197.7 35.5h.4v11.8h-.4z" clip-path="url(#e)"/><path d="M198.1 35.5h.4v11.8h-.4z" clip-path="url(#e)"/><path d="M198.4 35.5h.4v11.8h-.4z" clip-path="url(#e)"/><path d="M198.8 35.5h.4v11.8h-.4z" clip-path="url(#e)"/><path d="M199.2 35.5h.4v11.8h-.4z" clip-path="url(#e)"/><path d="M199.5 35.5h.4v11.8h-.4z" clip-path="url(#e)"/><path d="M199.9 35.5h.4v11.8h-.4z" clip-path="url(#e)"/><path d="M200.2 35.5h.4v11.8h-.4z" clip-path="url(#e)"/><path d="M200.6 35.5h.4v11.8h-.4z" clip-path="url(#e)"/><path d="M200.9 35.5h.4v11.8h-.4z" clip-path="url(#e)"/><path d="M201.3 35.5h.4v11.8h-.4z" clip-path="url(#e)"/><path d="M201.6 35.5h.4v11.8h-.4z" clip-path="url(#e)"/><path d="M202 35.5h.4v11.8h-.4z" clip-path="url(#e)"/><path d="M202.3 35.5h.4v11.8h-.4z" clip-path="url(#e)"/><path d="M202.7 35.5h.4v11.8h-.4z" clip-path="url(#e)"/><path d="M203 35.5h.4v11.8h-.4z" clip-path="url(#e)"/><path d="M203.4 35.5h.4v11.8h-.4z" clip-path="url(#e)"/><path d="M203.8 35.5h.4v11.8h-.4z" clip-path="url(#e)"/><path d="M204.1 35.5h.4v11.8h-.4z" clip-path="url(#e)"/><path d="M204.5 35.5h.4v11.8h-.4z" clip-path="url(#e)"/><path d="M204.8 35.5h.4v11.8h-.4z" clip-path="url(#e)"/><path d="M205.2 35.5h.4v11.8h-.4z" clip-path="url(#e)"/><path d="M205.5 35.5h.4v11.8h-.4z" clip-path="url(#e)"/><path d="M205.9 35.5h.4v11.8h-.4z" clip-path="url(#e)"/><path d="M206.2 35.5h.4v11.8h-.4z" clip-path="url(#e)"/><path d="M206.6 35.5h.4v11.8h-.4z" clip-path="url(#e)"/><path d="M206.9 35.5h.4v11.8h-.4z" clip-path="url(#e)"/><path d="M207.3 35.5h.2v11.8h-.2z" clip-path="url(#e)"/><path d="M199.5 24.1h.4v9.5h-.4z" clip-path="url(#e)"/><path d="M199.9 24.1h.4v9.5h-.4z" clip-path="url(#e)"/><path d="M200.2 24.1h.4v9.5h-.4z" clip-path="url(#e)"/><path d="M200.6 24.1h.4v9.5h-.4z" clip-path="url(#e)"/><path d="M200.9 24.1h.4v9.5h-.4z" clip-path="url(#e)"/><path d="M201.3 24.1h.4v9.5h-.4z" clip-path="url(#e)"/><path d="M201.6 24.1h.4v9.5h-.4z" clip-path="url(#e)"/><path d="M202 24.1h.4v9.5h-.4z" clip-path="url(#e)"/><path d="M202.3 24.1h.4v9.5h-.4z" clip-path="url(#e)"/><path d="M202.7 24.1h.4v9.5h-.4z" clip-path="url(#e)"/><path d="M203 24.1h.4v9.5h-.4z" clip-path="url(#e)"/><path d="M203.4 24.1h.4v9.5h-.4z" clip-path="url(#e)"/><path d="M203.8 24.1h.4v9.5h-.4z" clip-path="url(#e)"/><path d="M204.1 24.1h.4v9.5h-.4z" clip-path="url(#e)"/><path d="M204.5 24.1h.4v9.5h-.4z" clip-path="url(#e)"/><path d="M204.8 24.1h.4v9.5h-.4z" clip-path="url(#e)"/><path d="M205.2 24.1h.4v9.5h-.4z" clip-path="url(#e)"/><path d="M205.5 24.1h.4v9.5h-.4z" clip-path="url(#e)"/><path d="M205.9 24.1h.4v9.5h-.4z" clip-path="url(#e)"/><path d="M206.2 24.1h.4v9.5h-.4z" clip-path="url(#e)"/><path d="M206.6 24.1h.4v9.5h-.4z" clip-path="url(#e)"/><path d="M206.9 24.1v9.5h-.1z" clip-path="url(#e)"/><path d="M198.5 20.2h.3v7.2h-.3z" clip-path="url(#e)"/><path d="M198.8 20.2h.4v7.2h-.4z" clip-path="url(#e)"/><path d="M199.2 20.2h.4v7.2h-.4z" clip-path="url(#e)"/><path d="M199.5 20.2h.4v7.2h-.4z" clip-path="url(#e)"/><path d="M199.9 20.2h.4v7.2h-.4z" clip-path="url(#e)"/><path d="M200.2 20.2h.4v7.2h-.4z" clip-path="url(#e)"/><path d="M200.6 20.2h.4v7.2h-.4z" clip-path="url(#e)"/><path d="M200.9 20.2h.4v7.2h-.4z" clip-path="url(#e)"/><path d="M201.3 20.2h.4v7.2h-.4z" clip-path="url(#e)"/><path d="M201.6 20.2h.4v7.2h-.4z" clip-path="url(#e)"/><path d="M202 20.2h.4v7.2h-.4z" clip-path="url(#e)"/><path d="M202.3 20.2h.4v7.2h-.4z" clip-path="url(#e)"/><path d="M202.7 20.2h.4v7.2h-.4z" clip-path="url(#e)"/><path d="M203 20.2h.4v7.2h-.4z" clip-path="url(#e)"/><path d="M203.4 20.2h.4v7.2h-.4z" clip-path="url(#e)"/><path d="M203.8 20.2h.4v7.2h-.4z" clip-path="url(#e)"/><path d="M204.1 20.2h.4v7.2h-.4z" clip-path="url(#e)"/><path d="M204.5 20.2h.4v7.2h-.4z" clip-path="url(#e)"/><path d="M204.8 20.2h.4v7.2h-.4z" clip-path="url(#e)"/><path d="M205.2 20.2h.4v7.2h-.4z" clip-path="url(#e)"/><path d="M205.5 20.2h.4v7.2h-.4z" clip-path="url(#e)"/><path d="M205.9 20.2h.4v7.2h-.4z" clip-path="url(#e)"/><path d="M206.2 20.2h.4v7.2h-.4z" clip-path="url(#e)"/><path d="M206.6 20.2h.3v7.2h-.3z" clip-path="url(#e)"/><path d="M194.5 28.1v10.2h-.1z" clip-path="url(#e)"/><path d="M194.6 28.1h.4v10.2h-.4z" clip-path="url(#e)"/><path d="M194.9 28.1h.4v10.2h-.4z" clip-path="url(#e)"/><path d="M195.3 28.1h.4v10.2h-.4z" clip-path="url(#e)"/><path d="M195.6 28.1h.4v10.2h-.4z" clip-path="url(#e)"/><path d="M196 28.1h.4v10.2h-.4z" clip-path="url(#e)"/><path d="M196.3 28.1h.4v10.2h-.4z" clip-path="url(#e)"/><path d="M196.7 28.1h.4v10.2h-.4z" clip-path="url(#e)"/><path d="M197 28.1h.4v10.2h-.4z" clip-path="url(#e)"/><path d="M197.4 28.1h.4v10.2h-.4z" clip-path="url(#e)"/><path d="M197.7 28.1h.4v10.2h-.4z" clip-path="url(#e)"/><path d="M198.1 28.1h.4v10.2h-.4z" clip-path="url(#e)"/><path d="M198.4 28.1h.4v10.2h-.4z" clip-path="url(#e)"/><path d="M198.8 28.1h.4v10.2h-.4z" clip-path="url(#e)"/><path d="M199.2 28.1h.4v10.2h-.4z" clip-path="url(#e)"/><path d="M199.5 28.1h.4v10.2h-.4z" clip-path="url(#e)"/><path d="M199.9 28.1h.4v10.2h-.4z" clip-path="url(#e)"/><path d="M200.2 28.1h.4v10.2h-.4z" clip-path="url(#e)"/><path d="M200.6 28.1h.4v10.2h-.4z" clip-path="url(#e)"/><path d="M200.9 28.1h.4v10.2h-.4z" clip-path="url(#e)"/><path d="M201.3 28.1h.4v10.2h-.4z" clip-path="url(#e)"/><path d="M201.6 28.1h.4v10.2h-.4z" clip-path="url(#e)"/><path d="M202 28.1h.4v10.2h-.4z" clip-path="url(#e)"/><path d="M202.3 28.1h.4v10.2h-.4z" clip-path="url(#e)"/><path d="M202.7 28.1h.4v10.2h-.4z" clip-path="url(#e)"/><path d="M203 28.1h.4v10.2h-.4z" clip-path="url(#e)"/><path d="M203.4 28.1h.4v10.2h-.4z" clip-path="url(#e)"/><path d="M203.8 28.1h.4v10.2h-.4z" clip-path="url(#e)"/><path d="M186.1 39.8h.3v9h-.3z" clip-path="url(#e)"/><path d="M186.4 39.8h.4v9h-.4z" clip-path="url(#e)"/><path d="M186.8 39.8h.4v9h-.4z" clip-path="url(#e)"/><path d="M187.1 39.8h.4v9h-.4z" clip-path="url(#e)"/><path d="M187.5 39.8h.4v9h-.4z" clip-path="url(#e)"/><path d="M187.8 39.8h.4v9h-.4z" clip-path="url(#e)"/><path d="M188.2 39.8h.4v9h-.4z" clip-path="url(#e)"/><path d="M188.5 39.8h.4v9h-.4z" clip-path="url(#e)"/><path d="M188.9 39.8h.4v9h-.4z" clip-path="url(#e)"/><path d="M189.2 39.8h.4v9h-.4z" clip-path="url(#e)"/><path d="M189.6 39.8h.4v9h-.4z" clip-path="url(#e)"/><path d="M190 39.8h.4v9h-.4z" clip-path="url(#e)"/><path d="M190.3 39.8h.4v9h-.4z" clip-path="url(#e)"/><path d="M190.7 39.8h.4v9h-.4z" clip-path="url(#e)"/><path d="M191 39.8h.4v9h-.4z" clip-path="url(#e)"/><path d="M191.4 39.8h.4v9h-.4z" clip-path="url(#e)"/><path d="M191.7 39.8h.4v9h-.4z" clip-path="url(#e)"/><path d="M192.1 39.8h.4v9h-.4z" clip-path="url(#e)"/><path d="M192.4 39.8h.4v9h-.4z" clip-path="url(#e)"/><path d="M192.8 39.8h.4v9h-.4z" clip-path="url(#e)"/><path d="M193.1 39.8h.4v9h-.4z" clip-path="url(#e)"/><path d="M193.5 39.8h.4v9h-.4z" clip-path="url(#e)"/><path d="M193.8 39.8h.4v9h-.4z" clip-path="url(#e)"/><path d="M194.2 39.8h.4v9h-.4z" clip-path="url(#e)"/><path d="M194.6 39.8h.4v9h-.4z" clip-path="url(#e)"/><path d="M194.9 39.8h.4v9h-.4z" clip-path="url(#e)"/><path d="M195.3 39.8h.4v9h-.4z" clip-path="url(#e)"/><path d="M195.6 39.8h.4v9h-.4z" clip-path="url(#e)"/><path d="M196 39.8h.4v9h-.4z" clip-path="url(#e)"/><path d="M196.3 39.8h.4v9h-.4z" clip-path="url(#e)"/><path d="M196.7 39.8h.4v9h-.4z" clip-path="url(#e)"/><path d="M186.9 30.7h.3v8.7h-.3z" clip-path="url(#e)"/><path d="M187.1 30.7h.4v8.7h-.4z" clip-path="url(#e)"/><path d="M187.5 30.7h.4v8.7h-.4z" clip-path="url(#e)"/><path d="M187.8 30.7h.4v8.7h-.4z" clip-path="url(#e)"/><path d="M188.2 30.7h.4v8.7h-.4z" clip-path="url(#e)"/><path d="M188.5 30.7h.4v8.7h-.4z" clip-path="url(#e)"/><path d="M188.9 30.7h.4v8.7h-.4z" clip-path="url(#e)"/><path d="M189.2 30.7h.4v8.7h-.4z" clip-path="url(#e)"/><path d="M189.6 30.7h.4v8.7h-.4z" clip-path="url(#e)"/><path d="M190 30.7h.4v8.7h-.4z" clip-path="url(#e)"/><path d="M190.3 30.7h.4v8.7h-.4z" clip-path="url(#e)"/><path d="M190.7 30.7h.4v8.7h-.4z" clip-path="url(#e)"/><path d="M191 30.7h.4v8.7h-.4z" clip-path="url(#e)"/><path d="M191.4 30.7h.4v8.7h-.4z" clip-path="url(#e)"/><path d="M191.7 30.7h.4v8.7h-.4z" clip-path="url(#e)"/><path d="M192.1 30.7h.4v8.7h-.4z" clip-path="url(#e)"/><path d="M192.4 30.7h.4v8.7h-.4z" clip-path="url(#e)"/><path d="M192.8 30.7h.4v8.7h-.4z" clip-path="url(#e)"/><path d="M193.1 30.7h.4v8.7h-.4z" clip-path="url(#e)"/><path d="M193.5 30.7h.4v8.7h-.4z" clip-path="url(#e)"/><path d="M193.8 30.7h.4v8.7h-.4z" clip-path="url(#e)"/><path d="M194.2 30.7h.4v8.7h-.4z" clip-path="url(#e)"/><path d="M194.6 30.7h.4v8.7h-.4z" clip-path="url(#e)"/><path d="M194.9 30.7h.4v8.7h-.4z" clip-path="url(#e)"/><path d="M195.3 30.7h.4v8.7h-.4z" clip-path="url(#e)"/><path d="M195.6 30.7v8.7h-.1z" clip-path="url(#e)"/><path d="M177.6 29h.4v9.9h-.4z" clip-path="url(#e)"/><path d="M177.9 29h.4v9.9h-.4z" clip-path="url(#e)"/><path d="M178.3 29h.4v9.9h-.4z" clip-path="url(#e)"/><path d="M178.6 29h.4v9.9h-.4z" clip-path="url(#e)"/><path d="M179 29h.4v9.9h-.4z" clip-path="url(#e)"/><path d="M179.3 29h.4v9.9h-.4z" clip-path="url(#e)"/><path d="M179.7 29h.4v9.9h-.4z" clip-path="url(#e)"/><path d="M180 29h.4v9.9h-.4z" clip-path="url(#e)"/><path d="M180.4 29h.4v9.9h-.4z" clip-path="url(#e)"/><path d="M180.8 29h.4v9.9h-.4z" clip-path="url(#e)"/><path d="M181.1 29h.4v9.9h-.4z" clip-path="url(#e)"/><path d="M181.5 29h.4v9.9h-.4z" clip-path="url(#e)"/><path d="M181.8 29h.4v9.9h-.4z" clip-path="url(#e)"/><path d="M182.2 29h.4v9.9h-.4z" clip-path="url(#e)"/><path d="M182.5 29h.4v9.9h-.4z" clip-path="url(#e)"/><path d="M182.9 29h.4v9.9h-.4z" clip-path="url(#e)"/><path d="M183.2 29h.4v9.9h-.4z" clip-path="url(#e)"/><path d="M183.6 29h.4v9.9h-.4z" clip-path="url(#e)"/><path d="M183.9 29h.4v9.9h-.4z" clip-path="url(#e)"/><path d="M184.3 29h.4v9.9h-.4z" clip-path="url(#e)"/><path d="M184.6 29h.4v9.9h-.4z" clip-path="url(#e)"/><path d="M185 29h.4v9.9h-.4z" clip-path="url(#e)"/><path d="M185.4 29h.4v9.9h-.4z" clip-path="url(#e)"/><path d="M185.7 29h.4v9.9h-.4z" clip-path="url(#e)"/><path d="M186.1 29h.4v9.9h-.4z" clip-path="url(#e)"/><path d="M186.4 29h.4v9.9h-.4z" clip-path="url(#e)"/><path d="M186.8 29h.2v9.9h-.2z" clip-path="url(#e)"/><path d="M172.9 25.2v10h-.1z" clip-path="url(#e)"/><path d="M173 25.2h.4v10h-.4z" clip-path="url(#e)"/><path d="M173.3 25.2h.4v10h-.4z" clip-path="url(#e)"/><path d="M173.7 25.2h.4v10h-.4z" clip-path="url(#e)"/><path d="M174 25.2h.4v10h-.4z" clip-path="url(#e)"/><path d="M174.4 25.2h.4v10h-.4z" clip-path="url(#e)"/><path d="M174.7 25.2h.4v10h-.4z" clip-path="url(#e)"/><path d="M175.1 25.2h.4v10h-.4z" clip-path="url(#e)"/><path d="M175.4 25.2h.4v10h-.4z" clip-path="url(#e)"/><path d="M175.8 25.2h.4v10h-.4z" clip-path="url(#e)"/><path d="M176.2 25.2h.4v10h-.4z" clip-path="url(#e)"/><path d="M176.5 25.2h.4v10h-.4z" clip-path="url(#e)"/><path d="M176.9 25.2h.4v10h-.4z" clip-path="url(#e)"/><path d="M177.2 25.2h.4v10h-.4z" clip-path="url(#e)"/><path d="M177.6 25.2h.4v10h-.4z" clip-path="url(#e)"/><path d="M177.9 25.2h.4v10h-.4z" clip-path="url(#e)"/><path d="M178.3 25.2h.4v10h-.4z" clip-path="url(#e)"/><path d="M178.6 25.2h.4v10h-.4z" clip-path="url(#e)"/><path d="M179 25.2h.4v10h-.4z" clip-path="url(#e)"/><path d="M179.3 25.2h.4v10h-.4z" clip-path="url(#e)"/><path d="M179.7 25.2h.4v10h-.4z" clip-path="url(#e)"/><path d="M180 25.2h.4v10h-.4z" clip-path="url(#e)"/><path d="M180.4 25.2h.4v10h-.4z" clip-path="url(#e)"/><path d="M180.8 25.2h.4v10h-.4z" clip-path="url(#e)"/><path d="M181.1 25.2h.2v10h-.2z" clip-path="url(#e)"/><path d="M172.6 21.2h.4v7.9h-.4z" clip-path="url(#e)"/><path d="M173 21.2h.4v7.9h-.4z" clip-path="url(#e)"/><path d="M173.3 21.2h.4v7.9h-.4z" clip-path="url(#e)"/><path d="M173.7 21.2h.4v7.9h-.4z" clip-path="url(#e)"/><path d="M174 21.2h.4v7.9h-.4z" clip-path="url(#e)"/><path d="M174.4 21.2h.4v7.9h-.4z" clip-path="url(#e)"/><path d="M174.7 21.2h.4v7.9h-.4z" clip-path="url(#e)"/><path d="M175.1 21.2h.4v7.9h-.4z" clip-path="url(#e)"/><path d="M175.4 21.2h.4v7.9h-.4z" clip-path="url(#e)"/><path d="M175.8 21.2h.4v7.9h-.4z" clip-path="url(#e)"/><path d="M176.2 21.2h.4v7.9h-.4z" clip-path="url(#e)"/><path d="M176.5 21.2h.4v7.9h-.4z" clip-path="url(#e)"/><path d="M176.9 21.2h.4v7.9h-.4z" clip-path="url(#e)"/><path d="M177.2 21.2h.4v7.9h-.4z" clip-path="url(#e)"/><path d="M177.6 21.2h.4v7.9h-.4z" clip-path="url(#e)"/><path d="M177.9 21.2h.4v7.9h-.4z" clip-path="url(#e)"/><path d="M178.3 21.2h.4v7.9h-.4z" clip-path="url(#e)"/><path d="M178.6 21.2h.4v7.9h-.4z" clip-path="url(#e)"/><path d="M179 21.2h.4v7.9h-.4z" clip-path="url(#e)"/><path d="M179.3 21.2h.4v7.9h-.4z" clip-path="url(#e)"/><path d="M179.7 21.2h.4v7.9h-.4z" clip-path="url(#e)"/><path d="M180 21.2v7.9h-.1z" clip-path="url(#e)"/><path d="M167.7 16.1v36.1z" clip-path="url(#e)"/><path d="M167.7 16.1h.4v36.1h-.4z" clip-path="url(#e)"/><path d="M168 16.1h.4v36.1h-.4z" clip-path="url(#e)"/><path d="M168.4 16.1h.4v36.1h-.4z" clip-path="url(#e)"/><path d="M168.7 16.1h.4v36.1h-.4z" clip-path="url(#e)"/><path d="M169.1 16.1h.4v36.1h-.4z" clip-path="url(#e)"/><path d="M169.4 16.1h.4v36.1h-.4z" clip-path="url(#e)"/><path d="M169.8 16.1h.4v36.1h-.4z" clip-path="url(#e)"/><path d="M170.1 16.1h.4v36.1h-.4z" clip-path="url(#e)"/><path d="M170.5 16.1h.4v36.1h-.4z" clip-path="url(#e)"/><path d="M170.8 16.1h.4v36.1h-.4z" clip-path="url(#e)"/><path d="M171.2 16.1h.4v36.1h-.4z" clip-path="url(#e)"/><path d="M171.6 16.1h.4v36.1h-.4z" clip-path="url(#e)"/><path d="M171.9 16.1h.4v36.1h-.4z" clip-path="url(#e)"/><path d="M172.3 16.1h.4v36.1h-.4z" clip-path="url(#e)"/><path d="M172.6 16.1h.4v36.1h-.4z" clip-path="url(#e)"/><path d="M173 16.1h.4v36.1h-.4z" clip-path="url(#e)"/><path d="M173.3 16.1h.4v36.1h-.4z" clip-path="url(#e)"/><path d="M173.7 16.1h.4v36.1h-.4z" clip-path="url(#e)"/><path d="M174 16.1h.4v36.1h-.4z" clip-path="url(#e)"/><path d="M174.4 16.1h.4v36.1h-.4z" clip-path="url(#e)"/><path d="M174.7 16.1h.4v36.1h-.4z" clip-path="url(#e)"/><path d="M175.1 16.1h.4v36.1h-.4z" clip-path="url(#e)"/><path d="M175.4 16.1h.4v36.1h-.4z" clip-path="url(#e)"/><path d="M175.8 16.1h.4v36.1h-.4z" clip-path="url(#e)"/><path d="M176.2 16.1h.4v36.1h-.4z" clip-path="url(#e)"/><path d="M176.5 16.1h.4v36.1h-.4z" clip-path="url(#e)"/><path d="M176.9 16.1h.4v36.1h-.4z" clip-path="url(#e)"/><path d="M177.2 16.1h.4v36.1h-.4z" clip-path="url(#e)"/><path d="M177.6 16.1h.4v36.1h-.4z" clip-path="url(#e)"/><path d="M177.9 16.1h.4v36.1h-.4z" clip-path="url(#e)"/><path d="M178.3 16.1h.4v36.1h-.4z" clip-path="url(#e)"/><path d="M178.6 16.1h.4v36.1h-.4z" clip-path="url(#e)"/><path d="M179 16.1h.4v36.1h-.4z" clip-path="url(#e)"/><path d="M179.3 16.1h.4v36.1h-.4z" clip-path="url(#e)"/><path d="M179.7 16.1h.4v36.1h-.4z" clip-path="url(#e)"/><path d="M180 16.1h.4v36.1h-.4z" clip-path="url(#e)"/><path d="M180.4 16.1h.4v36.1h-.4z" clip-path="url(#e)"/><path d="M180.8 16.1h.4v36.1h-.4z" clip-path="url(#e)"/><path d="M181.1 16.1h.4v36.1h-.4z" clip-path="url(#e)"/><path d="M181.5 16.1h.4v36.1h-.4z" clip-path="url(#e)"/><path d="M181.8 16.1h.4v36.1h-.4z" clip-path="url(#e)"/><path d="M182.2 16.1h.4v36.1h-.4z" clip-path="url(#e)"/><path d="M182.5 16.1h.4v36.1h-.4z" clip-path="url(#e)"/><path d="M182.9 16.1h.4v36.1h-.4z" clip-path="url(#e)"/><path d="M183.2 16.1h.4v36.1h-.4z" clip-path="url(#e)"/><path d="M183.6 16.1h.4v36.1h-.4z" clip-path="url(#e)"/><path d="M183.9 16.1h.4v36.1h-.4z" clip-path="url(#e)"/><path d="M184.3 16.1h.4v36.1h-.4z" clip-path="url(#e)"/><path d="M184.6 16.1h.4v36.1h-.4z" clip-path="url(#e)"/><path d="M185 16.1h.4v36.1h-.4z" clip-path="url(#e)"/><path d="M185.4 16.1h.4v36.1h-.4z" clip-path="url(#e)"/><path d="M185.7 16.1h.4v36.1h-.4z" clip-path="url(#e)"/><path d="M186.1 16.1h.4v36.1h-.4z" clip-path="url(#e)"/><path d="M186.4 16.1h.4v36.1h-.4z" clip-path="url(#e)"/><path d="M186.8 16.1h.4v36.1h-.4z" clip-path="url(#e)"/><path d="M187.1 16.1h.4v36.1h-.4z" clip-path="url(#e)"/><path d="M187.5 16.1h.4v36.1h-.4z" clip-path="url(#e)"/><path d="M187.8 16.1h.4v36.1h-.4z" clip-path="url(#e)"/><path d="M188.2 16.1h.4v36.1h-.4z" clip-path="url(#e)"/><path d="M188.5 16.1h.4v36.1h-.4z" clip-path="url(#e)"/><path d="M188.9 16.1h.4v36.1h-.4z" clip-path="url(#e)"/><path d="M189.2 16.1h.4v36.1h-.4z" clip-path="url(#e)"/><path d="M189.6 16.1h.4v36.1h-.4z" clip-path="url(#e)"/><path d="M190 16.1h.4v36.1h-.4z" clip-path="url(#e)"/><path d="M190.3 16.1h.4v36.1h-.4z" clip-path="url(#e)"/><path d="M190.7 16.1h.4v36.1h-.4z" clip-path="url(#e)"/><path d="M191 16.1h.4v36.1h-.4z" clip-path="url(#e)"/><path d="M191.4 16.1h.4v36.1h-.4z" clip-path="url(#e)"/><path d="M191.7 16.1h.4v36.1h-.4z" clip-path="url(#e)"/><path d="M192.1 16.1h.4v36.1h-.4z" clip-path="url(#e)"/><path d="M192.4 16.1h.4v36.1h-.4z" clip-path="url(#e)"/><path d="M192.8 16.1h.4v36.1h-.4z" clip-path="url(#e)"/><path d="M193.1 16.1h.4v36.1h-.4z" clip-path="url(#e)"/><path d="M193.5 16.1h.4v36.1h-.4z" clip-path="url(#e)"/><path d="M193.8 16.1h.4v36.1h-.4z" clip-path="url(#e)"/><path d="M194.2 16.1h.4v36.1h-.4z" clip-path="url(#e)"/><path d="M194.6 16.1h.4v36.1h-.4z" clip-path="url(#e)"/><path d="M194.9 16.1h.4v36.1h-.4z" clip-path="url(#e)"/><path d="M195.3 16.1h.4v36.1h-.4z" clip-path="url(#e)"/><path d="M195.6 16.1h.4v36.1h-.4z" clip-path="url(#e)"/><path d="M196 16.1h.4v36.1h-.4z" clip-path="url(#e)"/><path d="M196.3 16.1h.4v36.1h-.4z" clip-path="url(#e)"/><path d="M196.7 16.1h.4v36.1h-.4z" clip-path="url(#e)"/><path d="M197 16.1h.4v36.1h-.4z" clip-path="url(#e)"/><path d="M197.4 16.1h.4v36.1h-.4z" clip-path="url(#e)"/><path d="M197.7 16.1h.4v36.1h-.4z" clip-path="url(#e)"/><path d="M198.1 16.1h.4v36.1h-.4z" clip-path="url(#e)"/><path d="M198.4 16.1h.4v36.1h-.4z" clip-path="url(#e)"/><path d="M198.8 16.1h.4v36.1h-.4z" clip-path="url(#e)"/><path d="M199.2 16.1h.4v36.1h-.4z" clip-path="url(#e)"/><path d="M199.5 16.1h.4v36.1h-.4z" clip-path="url(#e)"/><path d="M199.9 16.1h.4v36.1h-.4z" clip-path="url(#e)"/><path d="M200.2 16.1h.4v36.1h-.4z" clip-path="url(#e)"/><path d="M200.6 16.1h.4v36.1h-.4z" clip-path="url(#e)"/><path d="M200.9 16.1h.4v36.1h-.4z" clip-path="url(#e)"/><path d="M201.3 16.1h.4v36.1h-.4z" clip-path="url(#e)"/><path d="M201.6 16.1h.4v36.1h-.4z" clip-path="url(#e)"/><path d="M202 16.1h.4v36.1h-.4z" clip-path="url(#e)"/><path d="M202.3 16.1h.4v36.1h-.4z" clip-path="url(#e)"/><path d="M202.7 16.1h.4v36.1h-.4z" clip-path="url(#e)"/><path d="M203 16.1h.4v36.1h-.4z" clip-path="url(#e)"/><path d="M203.4 16.1h.4v36.1h-.4z" clip-path="url(#e)"/><path d="M203.8 16.1h.4v36.1h-.4z" clip-path="url(#e)"/><path d="M204.1 16.1h.4v36.1h-.4z" clip-path="url(#e)"/><path d="M204.5 16.1h.4v36.1h-.4z" clip-path="url(#e)"/><path d="M204.8 16.1h.4v36.1h-.4z" clip-path="url(#e)"/><path d="M205.2 16.1h.4v36.1h-.4z" clip-path="url(#e)"/><path d="M205.5 16.1h.4v36.1h-.4z" clip-path="url(#e)"/><path d="M205.9 16.1h.4v36.1h-.4z" clip-path="url(#e)"/><path d="M206.2 16.1h.4v36.1h-.4z" clip-path="url(#e)"/><path d="M206.6 16.1h.4v36.1h-.4z" clip-path="url(#e)"/><path d="M206.9 16.1h.4v36.1h-.4z" clip-path="url(#e)"/><path d="M207.3 16.1h.4v36.1h-.4z" clip-path="url(#e)"/><path d="M207.6 16.1h.4v36.1h-.4z" clip-path="url(#e)"/><path d="M208 16.1h.4v36.1h-.4z" clip-path="url(#e)"/><path d="M208.4 16.1h.4v36.1h-.4z" clip-path="url(#e)"/><path d="M208.7 16.1h.4v36.1h-.4z" clip-path="url(#e)"/><path d="M209.1 16.1h.4v36.1h-.4z" clip-path="url(#e)"/><path d="M209.4 16.1h.4v36.1h-.4z" clip-path="url(#e)"/><path d="M209.8 16.1h.4v36.1h-.4z" clip-path="url(#e)"/><path d="M210.1 16.1h.4v36.1h-.4z" clip-path="url(#e)"/><path d="M210.5 16.1h.4v36.1h-.4z" clip-path="url(#e)"/><path d="M210.8 16.1h.4v36.1h-.4z" clip-path="url(#e)"/><path d="M211.2 16.1h.4v36.1h-.4z" clip-path="url(#e)"/><path d="M211.5 16.1h.4v36.1h-.4z" clip-path="url(#e)"/><path d="M211.9 16.1h.4v36.1h-.4z" clip-path="url(#e)"/><path d="M212.2 16.1h.4v36.1h-.4z" clip-path="url(#e)"/><path d="M212.6 52.2V16.1z" clip-path="url(#e)"/></g><g transform="translate(-3.2 -8.1)"><use xlink:href="#b" width="100%" height="100%"/><path d="M171.5 50h.3v4h-.3z" clip-path="url(#f)"/><path d="M171.8 50h.3v4h-.3z" clip-path="url(#f)"/><path d="M172.1 50h.3v4h-.3z" clip-path="url(#f)"/><path d="M172.3 50h.3v4h-.3z" clip-path="url(#f)"/><path d="M172.6 50h.3v4h-.3z" clip-path="url(#f)"/><path d="M172.9 50h.3v4h-.3z" clip-path="url(#f)"/><path d="M173.2 50h.3v4h-.3z" clip-path="url(#f)"/><path d="M173.4 50h.3v4h-.3z" clip-path="url(#f)"/><path d="M173.7 50h.3v4h-.3z" clip-path="url(#f)"/><path d="M174 50h.3v4h-.3z" clip-path="url(#f)"/><path d="M174.3 50h.3v4h-.3z" clip-path="url(#f)"/><path d="M174.6 50v4h-.1z" clip-path="url(#f)"/><path d="M175 53v6.8h-.1z" clip-path="url(#f)"/><path d="M175.1 53h.3v6.8h-.3z" clip-path="url(#f)"/><path d="M175.4 53h.3v6.8h-.3z" clip-path="url(#f)"/><path d="M175.7 53h.3v6.8h-.3z" clip-path="url(#f)"/><path d="M175.9 53h.3v6.8h-.3z" clip-path="url(#f)"/><path d="M176.2 53h.3v6.8h-.3z" clip-path="url(#f)"/><path d="M176.5 53h.3v6.8h-.3z" clip-path="url(#f)"/><path d="M176.8 53h.3v6.8h-.3z" clip-path="url(#f)"/><path d="M177 53h.3v6.8h-.3z" clip-path="url(#f)"/><path d="M177.3 53h.3v6.8h-.3z" clip-path="url(#f)"/><path d="M177.6 53h.3v6.8h-.3z" clip-path="url(#f)"/><path d="M177.9 53h.3v6.8h-.3z" clip-path="url(#f)"/><path d="M178.2 53h.3v6.8h-.3z" clip-path="url(#f)"/><path d="M178.4 53h.3v6.8h-.3z" clip-path="url(#f)"/><path d="M178.7 53h.3v6.8h-.3z" clip-path="url(#f)"/><path d="M179 53h.3v6.8h-.3z" clip-path="url(#f)"/><path d="M179.3 53h.3v6.8h-.3z" clip-path="url(#f)"/><path d="M179.5 53h.3v6.8h-.3z" clip-path="url(#f)"/><path d="M179.8 53h.3v6.8h-.3z" clip-path="url(#f)"/><path d="M180.1 53h.3v6.8h-.3z" clip-path="url(#f)"/><path d="M180.4 53h.3v6.8h-.3z" clip-path="url(#f)"/><path d="M180.6 53h.3v6.8h-.3z" clip-path="url(#f)"/><path d="M180.9 53h.3v6.8h-.3z" clip-path="url(#f)"/><path d="M181.2 53h.3v6.8h-.3z" clip-path="url(#f)"/><path d="M181.5 53h.3v6.8h-.3z" clip-path="url(#f)"/><path d="M181.8 53h.3v6.8h-.3z" clip-path="url(#f)"/><path d="M182 53h.3v6.8h-.3z" clip-path="url(#f)"/><path d="M182.3 53h.3v6.8h-.3z" clip-path="url(#f)"/><path d="M182.6 53h.3v6.8h-.3z" clip-path="url(#f)"/><path d="M182.9 53h.3v6.8h-.3z" clip-path="url(#f)"/><path d="M183.1 53h.3v6.8h-.3z" clip-path="url(#f)"/><path d="M183.4 53h.3v6.8h-.3z" clip-path="url(#f)"/><path d="M183.7 53h.3v6.8h-.3z" clip-path="url(#f)"/><path d="M184 53h.3v6.8h-.3z" clip-path="url(#f)"/><path d="M184.3 53h.3v6.8h-.3z" clip-path="url(#f)"/><path d="M184.5 53h.3v6.8h-.3z" clip-path="url(#f)"/><path d="M184.8 53h.3v6.8h-.3z" clip-path="url(#f)"/><path d="M185.1 53h.3v6.8h-.3z" clip-path="url(#f)"/><path d="M185.4 53v6.8h-.1z" clip-path="url(#f)"/><path d="M186.2 56.1h.3v4.1h-.3z" clip-path="url(#f)"/><path d="M186.5 56.1h.3v4.1h-.3z" clip-path="url(#f)"/><path d="M186.7 56.1h.3v4.1h-.3z" clip-path="url(#f)"/><path d="M187 56.1h.3v4.1h-.3z" clip-path="url(#f)"/><path d="M187.3 56.1h.3v4.1h-.3z" clip-path="url(#f)"/><path d="M187.6 56.1h.3v4.1h-.3z" clip-path="url(#f)"/><path d="M187.9 56.1h.3v4.1h-.3z" clip-path="url(#f)"/><path d="M188.1 56.1h.3v4.1h-.3z" clip-path="url(#f)"/><path d="M188.4 56.1h.3v4.1h-.3z" clip-path="url(#f)"/><path d="M188.7 56.1h.3v4.1h-.3z" clip-path="url(#f)"/><path d="M189 56.1h.3v4.1h-.3z" clip-path="url(#f)"/><path d="M189.2 56.1h.3v4.1h-.3z" clip-path="url(#f)"/><path d="M189.5 56.1h.3v4.1h-.3z" clip-path="url(#f)"/><path d="M189.8 56.1h.3v4.1h-.3z" clip-path="url(#f)"/><path d="M190.1 56.1h.3v4.1h-.3z" clip-path="url(#f)"/><path d="M190.3 56.1h.3v4.1h-.3z" clip-path="url(#f)"/><path d="M190.6 56.1h.3v4.1h-.3z" clip-path="url(#f)"/><path d="M190.9 56.1h.3v4.1h-.3z" clip-path="url(#f)"/><path d="M191.2 56.1h.3v4.1h-.3z" clip-path="url(#f)"/><path d="M191.5 56.1h.3v4.1h-.3z" clip-path="url(#f)"/><path d="M191.7 56.1h.3v4.1h-.3z" clip-path="url(#f)"/><path d="M192 56.1h.3v4.1h-.3z" clip-path="url(#f)"/><path d="M192.3 56.1h.3v4.1h-.3z" clip-path="url(#f)"/><path d="M192.6 56.1h.3v4.1h-.3z" clip-path="url(#f)"/><path d="M192.8 56.1h.3v4.1h-.3z" clip-path="url(#f)"/><path d="M193.1 56.1h.3v4.1h-.3z" clip-path="url(#f)"/><path d="M193.4 56.1h.3v4.1h-.3z" clip-path="url(#f)"/><path d="M193.7 56.1h.3v4.1h-.3z" clip-path="url(#f)"/><path d="M193.9 56.1h.3v4.1h-.3z" clip-path="url(#f)"/><path d="M194.2 56.1h.3v4.1h-.3z" clip-path="url(#f)"/><path d="M194.5 56.1h.3v4.1h-.3z" clip-path="url(#f)"/><path d="M194.8 56.1h.3v4.1h-.3z" clip-path="url(#f)"/><path d="M195.1 56.1h.3v4.1h-.3z" clip-path="url(#f)"/><path d="M195.3 56.1h.3v4.1h-.3z" clip-path="url(#f)"/><path d="M195.6 56.1h.3v4.1h-.3z" clip-path="url(#f)"/><path d="M195.9 56.1h.3v4.1h-.3z" clip-path="url(#f)"/><path d="M196.2 56.1h.3v4.1h-.3z" clip-path="url(#f)"/><path d="M196.4 56.1h.3v4.1h-.3z" clip-path="url(#f)"/><path d="M196.7 56.1v4.1h-.1z" clip-path="url(#f)"/><path d="M168.7 47.6v14.1z" clip-path="url(#f)"/><path d="M168.7 47.6h.3v14.1h-.3z" clip-path="url(#f)"/><path d="M169 47.6h.3v14.1h-.3z" clip-path="url(#f)"/><path d="M169.3 47.6h.3v14.1h-.3z" clip-path="url(#f)"/><path d="M169.6 47.6h.3v14.1h-.3z" clip-path="url(#f)"/><path d="M169.8 47.6h.3v14.1h-.3z" clip-path="url(#f)"/><path d="M170.1 47.6h.3v14.1h-.3z" clip-path="url(#f)"/><path d="M170.4 47.6h.3v14.1h-.3z" clip-path="url(#f)"/><path d="M170.7 47.6h.3v14.1h-.3z" clip-path="url(#f)"/><path d="M171 47.6h.3v14.1h-.3z" clip-path="url(#f)"/><path d="M171.2 47.6h.3v14.1h-.3z" clip-path="url(#f)"/><path d="M171.5 47.6h.3v14.1h-.3z" clip-path="url(#f)"/><path d="M171.8 47.6h.3v14.1h-.3z" clip-path="url(#f)"/><path d="M172.1 47.6h.3v14.1h-.3z" clip-path="url(#f)"/><path d="M172.3 47.6h.3v14.1h-.3z" clip-path="url(#f)"/><path d="M172.6 47.6h.3v14.1h-.3z" clip-path="url(#f)"/><path d="M172.9 47.6h.3v14.1h-.3z" clip-path="url(#f)"/><path d="M173.2 47.6h.3v14.1h-.3z" clip-path="url(#f)"/><path d="M173.4 47.6h.3v14.1h-.3z" clip-path="url(#f)"/><path d="M173.7 47.6h.3v14.1h-.3z" clip-path="url(#f)"/><path d="M174 47.6h.3v14.1h-.3z" clip-path="url(#f)"/><path d="M174.3 47.6h.3v14.1h-.3z" clip-path="url(#f)"/><path d="M174.6 47.6h.3v14.1h-.3z" clip-path="url(#f)"/><path d="M174.8 47.6h.3v14.1h-.3z" clip-path="url(#f)"/><path d="M175.1 47.6h.3v14.1h-.3z" clip-path="url(#f)"/><path d="M175.4 47.6h.3v14.1h-.3z" clip-path="url(#f)"/><path d="M175.7 47.6h.3v14.1h-.3z" clip-path="url(#f)"/><path d="M175.9 47.6h.3v14.1h-.3z" clip-path="url(#f)"/><path d="M176.2 47.6h.3v14.1h-.3z" clip-path="url(#f)"/><path d="M176.5 47.6h.3v14.1h-.3z" clip-path="url(#f)"/><path d="M176.8 47.6h.3v14.1h-.3z" clip-path="url(#f)"/><path d="M177 47.6h.3v14.1h-.3z" clip-path="url(#f)"/><path d="M177.3 47.6h.3v14.1h-.3z" clip-path="url(#f)"/><path d="M177.6 47.6h.3v14.1h-.3z" clip-path="url(#f)"/><path d="M177.9 47.6h.3v14.1h-.3z" clip-path="url(#f)"/><path d="M178.2 47.6h.3v14.1h-.3z" clip-path="url(#f)"/><path d="M178.4 47.6h.3v14.1h-.3z" clip-path="url(#f)"/><path d="M178.7 47.6h.3v14.1h-.3z" clip-path="url(#f)"/><path d="M179 47.6h.3v14.1h-.3z" clip-path="url(#f)"/><path d="M179.3 47.6h.3v14.1h-.3z" clip-path="url(#f)"/><path d="M179.5 47.6h.3v14.1h-.3z" clip-path="url(#f)"/><path d="M179.8 47.6h.3v14.1h-.3z" clip-path="url(#f)"/><path d="M180.1 47.6h.3v14.1h-.3z" clip-path="url(#f)"/><path d="M180.4 47.6h.3v14.1h-.3z" clip-path="url(#f)"/><path d="M180.6 47.6h.3v14.1h-.3z" clip-path="url(#f)"/><path d="M180.9 47.6h.3v14.1h-.3z" clip-path="url(#f)"/><path d="M181.2 47.6h.3v14.1h-.3z" clip-path="url(#f)"/><path d="M181.5 47.6h.3v14.1h-.3z" clip-path="url(#f)"/><path d="M181.8 47.6h.3v14.1h-.3z" clip-path="url(#f)"/><path d="M182 47.6h.3v14.1h-.3z" clip-path="url(#f)"/><path d="M182.3 47.6h.3v14.1h-.3z" clip-path="url(#f)"/><path d="M182.6 47.6h.3v14.1h-.3z" clip-path="url(#f)"/><path d="M182.9 47.6h.3v14.1h-.3z" clip-path="url(#f)"/><path d="M183.1 47.6h.3v14.1h-.3z" clip-path="url(#f)"/><path d="M183.4 47.6h.3v14.1h-.3z" clip-path="url(#f)"/><path d="M183.7 47.6h.3v14.1h-.3z" clip-path="url(#f)"/><path d="M184 47.6h.3v14.1h-.3z" clip-path="url(#f)"/><path d="M184.3 47.6h.3v14.1h-.3z" clip-path="url(#f)"/><path d="M184.5 47.6h.3v14.1h-.3z" clip-path="url(#f)"/><path d="M184.8 47.6h.3v14.1h-.3z" clip-path="url(#f)"/><path d="M185.1 47.6h.3v14.1h-.3z" clip-path="url(#f)"/><path d="M185.4 47.6h.3v14.1h-.3z" clip-path="url(#f)"/><path d="M185.6 47.6h.3v14.1h-.3z" clip-path="url(#f)"/><path d="M185.9 47.6h.3v14.1h-.3z" clip-path="url(#f)"/><path d="M186.2 47.6h.3v14.1h-.3z" clip-path="url(#f)"/><path d="M186.5 47.6h.3v14.1h-.3z" clip-path="url(#f)"/><path d="M186.7 47.6h.3v14.1h-.3z" clip-path="url(#f)"/><path d="M187 47.6h.3v14.1h-.3z" clip-path="url(#f)"/><path d="M187.3 47.6h.3v14.1h-.3z" clip-path="url(#f)"/><path d="M187.6 47.6h.3v14.1h-.3z" clip-path="url(#f)"/><path d="M187.9 47.6h.3v14.1h-.3z" clip-path="url(#f)"/><path d="M188.1 47.6h.3v14.1h-.3z" clip-path="url(#f)"/><path d="M188.4 47.6h.3v14.1h-.3z" clip-path="url(#f)"/><path d="M188.7 47.6h.3v14.1h-.3z" clip-path="url(#f)"/><path d="M189 47.6h.3v14.1h-.3z" clip-path="url(#f)"/><path d="M189.2 47.6h.3v14.1h-.3z" clip-path="url(#f)"/><path d="M189.5 47.6h.3v14.1h-.3z" clip-path="url(#f)"/><path d="M189.8 47.6h.3v14.1h-.3z" clip-path="url(#f)"/><path d="M190.1 47.6h.3v14.1h-.3z" clip-path="url(#f)"/><path d="M190.3 47.6h.3v14.1h-.3z" clip-path="url(#f)"/><path d="M190.6 47.6h.3v14.1h-.3z" clip-path="url(#f)"/><path d="M190.9 47.6h.3v14.1h-.3z" clip-path="url(#f)"/><path d="M191.2 47.6h.3v14.1h-.3z" clip-path="url(#f)"/><path d="M191.5 47.6h.3v14.1h-.3z" clip-path="url(#f)"/><path d="M191.7 47.6h.3v14.1h-.3z" clip-path="url(#f)"/><path d="M192 47.6h.3v14.1h-.3z" clip-path="url(#f)"/><path d="M192.3 47.6h.3v14.1h-.3z" clip-path="url(#f)"/><path d="M192.6 47.6h.3v14.1h-.3z" clip-path="url(#f)"/><path d="M192.8 47.6h.3v14.1h-.3z" clip-path="url(#f)"/><path d="M193.1 47.6h.3v14.1h-.3z" clip-path="url(#f)"/><path d="M193.4 47.6h.3v14.1h-.3z" clip-path="url(#f)"/><path d="M193.7 47.6h.3v14.1h-.3z" clip-path="url(#f)"/><path d="M193.9 47.6h.3v14.1h-.3z" clip-path="url(#f)"/><path d="M194.2 47.6h.3v14.1h-.3z" clip-path="url(#f)"/><path d="M194.5 47.6h.3v14.1h-.3z" clip-path="url(#f)"/><path d="M194.8 47.6h.3v14.1h-.3z" clip-path="url(#f)"/><path d="M195.1 47.6h.3v14.1h-.3z" clip-path="url(#f)"/><path d="M195.3 47.6h.3v14.1h-.3z" clip-path="url(#f)"/><path d="M195.6 47.6h.3v14.1h-.3z" clip-path="url(#f)"/><path d="M195.9 47.6h.3v14.1h-.3z" clip-path="url(#f)"/><path d="M196.2 47.6h.3v14.1h-.3z" clip-path="url(#f)"/><path d="M196.4 47.6h.3v14.1h-.3z" clip-path="url(#f)"/><path d="M196.7 47.6h.3v14.1h-.3z" clip-path="url(#f)"/><path d="M197 47.6h.3v14.1h-.3z" clip-path="url(#f)"/><path d="M197.3 47.6h.3v14.1h-.3z" clip-path="url(#f)"/><path d="M197.5 47.6h.3v14.1h-.3z" clip-path="url(#f)"/><path d="M197.8 47.6h.3v14.1h-.3z" clip-path="url(#f)"/><path d="M198.1 47.6h.3v14.1h-.3z" clip-path="url(#f)"/><path d="M198.4 47.6h.3v14.1h-.3z" clip-path="url(#f)"/><path d="M198.7 47.6h.3v14.1h-.3z" clip-path="url(#f)"/><path d="M198.9 47.6h.3v14.1h-.3z" clip-path="url(#f)"/><path d="M199.2 47.6h.3v14.1h-.3z" clip-path="url(#f)"/><path d="M199.5 47.6h.3v14.1h-.3z" clip-path="url(#f)"/><path d="M199.8 47.6h.3v14.1h-.3z" clip-path="url(#f)"/><path d="M200 47.6h.3v14.1h-.3z" clip-path="url(#f)"/><path d="M200.3 47.6h.3v14.1h-.3z" clip-path="url(#f)"/><path d="M200.6 47.6h.3v14.1h-.3z" clip-path="url(#f)"/><path d="M200.9 47.6h.3v14.1h-.3z" clip-path="url(#f)"/><path d="M201.2 47.6h.3v14.1h-.3z" clip-path="url(#f)"/><path d="M201.4 47.6h.3v14.1h-.3z" clip-path="url(#f)"/><path d="M201.7 47.6h.3v14.1h-.3z" clip-path="url(#f)"/><path d="M202 47.6h.3v14.1h-.3z" clip-path="url(#f)"/><path d="M202.3 47.6h.3v14.1h-.3z" clip-path="url(#f)"/><path d="M202.5 47.6h.3v14.1h-.3z" clip-path="url(#f)"/><path d="M202.8 47.6h.3v14.1h-.3z" clip-path="url(#f)"/><path d="M203.1 47.6h.3v14.1h-.3z" clip-path="url(#f)"/><path d="M203.4 47.6h.3v14.1h-.3z" clip-path="url(#f)"/><path d="M203.6 47.6h.3v14.1h-.3z" clip-path="url(#f)"/><path d="M203.9 61.7V47.6z" clip-path="url(#f)"/></g><g transform="translate(-3.2 -8.1)"><use xlink:href="#c" width="100%" height="100%"/><path d="M178.5 34v21.5z" clip-path="url(#g)"/><path d="M178.5 34h.3v21.5h-.3z" clip-path="url(#g)"/><path d="M178.8 34h.3v21.5h-.3z" clip-path="url(#g)"/><path d="M179.1 34h.3v21.5h-.3z" clip-path="url(#g)"/><path d="M179.4 34h.3v21.5h-.3z" clip-path="url(#g)"/><path d="M179.8 34h.3v21.5h-.3z" clip-path="url(#g)"/><path d="M180.1 34h.3v21.5h-.3z" clip-path="url(#g)"/><path d="M180.4 34h.3v21.5h-.3z" clip-path="url(#g)"/><path d="M180.8 34h.3v21.5h-.3z" clip-path="url(#g)"/><path d="M181.1 34h.3v21.5h-.3z" clip-path="url(#g)"/><path d="M181.4 34h.3v21.5h-.3z" clip-path="url(#g)"/><path d="M181.7 34h.3v21.5h-.3z" clip-path="url(#g)"/><path d="M182.1 34h.3v21.5h-.3z" clip-path="url(#g)"/><path d="M182.4 34h.3v21.5h-.3z" clip-path="url(#g)"/><path d="M182.7 34h.3v21.5h-.3z" clip-path="url(#g)"/><path d="M183.1 34h.3v21.5h-.3z" clip-path="url(#g)"/><path d="M183.4 34h.3v21.5h-.3z" clip-path="url(#g)"/><path d="M183.7 34h.3v21.5h-.3z" clip-path="url(#g)"/><path d="M184 34h.3v21.5h-.3z" clip-path="url(#g)"/><path d="M184.4 34h.3v21.5h-.3z" clip-path="url(#g)"/><path d="M184.7 34h.3v21.5h-.3z" clip-path="url(#g)"/><path d="M185 34h.3v21.5h-.3z" clip-path="url(#g)"/><path d="M185.4 34h.3v21.5h-.3z" clip-path="url(#g)"/><path d="M185.7 34h.3v21.5h-.3z" clip-path="url(#g)"/><path d="M186 34h.3v21.5h-.3z" clip-path="url(#g)"/><path d="M186.3 34h.3v21.5h-.3z" clip-path="url(#g)"/><path d="M186.7 34h.3v21.5h-.3z" clip-path="url(#g)"/><path d="M187 34h.3v21.5h-.3z" clip-path="url(#g)"/><path d="M187.3 34h.3v21.5h-.3z" clip-path="url(#g)"/><path d="M187.6 34h.3v21.5h-.3z" clip-path="url(#g)"/><path d="M188 34h.3v21.5h-.3z" clip-path="url(#g)"/><path d="M188.3 34h.3v21.5h-.3z" clip-path="url(#g)"/><path d="M188.6 34h.3v21.5h-.3z" clip-path="url(#g)"/><path d="M189 34h.3v21.5h-.3z" clip-path="url(#g)"/><path d="M189.3 34h.3v21.5h-.3z" clip-path="url(#g)"/><path d="M189.6 34h.3v21.5h-.3z" clip-path="url(#g)"/><path d="M189.9 34h.3v21.5h-.3z" clip-path="url(#g)"/><path d="M190.3 34h.3v21.5h-.3z" clip-path="url(#g)"/><path d="M190.6 34h.3v21.5h-.3z" clip-path="url(#g)"/><path d="M190.9 34h.3v21.5h-.3z" clip-path="url(#g)"/><path d="M191.3 34h.3v21.5h-.3z" clip-path="url(#g)"/><path d="M191.6 34h.3v21.5h-.3z" clip-path="url(#g)"/><path d="M191.9 34h.3v21.5h-.3z" clip-path="url(#g)"/><path d="M192.2 34h.3v21.5h-.3z" clip-path="url(#g)"/><path d="M192.6 34h.3v21.5h-.3z" clip-path="url(#g)"/><path d="M192.9 34h.3v21.5h-.3z" clip-path="url(#g)"/><path d="M193.2 34h.3v21.5h-.3z" clip-path="url(#g)"/><path d="M193.6 34h.3v21.5h-.3z" clip-path="url(#g)"/><path d="M193.9 34h.3v21.5h-.3z" clip-path="url(#g)"/><path d="M194.2 34h.3v21.5h-.3z" clip-path="url(#g)"/><path d="M194.5 34h.3v21.5h-.3z" clip-path="url(#g)"/><path d="M194.9 34h.3v21.5h-.3z" clip-path="url(#g)"/><path d="M195.2 34h.3v21.5h-.3z" clip-path="url(#g)"/><path d="M195.5 34h.3v21.5h-.3z" clip-path="url(#g)"/><path d="M195.9 34h.3v21.5h-.3z" clip-path="url(#g)"/><path d="M196.2 34h.3v21.5h-.3z" clip-path="url(#g)"/><path d="M196.5 34h.3v21.5h-.3z" clip-path="url(#g)"/><path d="M196.8 34h.3v21.5h-.3z" clip-path="url(#g)"/><path d="M197.2 34h.3v21.5h-.3z" clip-path="url(#g)"/><path d="M197.5 34h.3v21.5h-.3z" clip-path="url(#g)"/><path d="M197.8 34h.3v21.5h-.3z" clip-path="url(#g)"/><path d="M198.1 34h.3v21.5h-.3z" clip-path="url(#g)"/><path d="M198.5 34h.3v21.5h-.3z" clip-path="url(#g)"/><path d="M198.8 34h.3v21.5h-.3z" clip-path="url(#g)"/><path d="M199.1 34h.3v21.5h-.3z" clip-path="url(#g)"/><path d="M199.5 34h.3v21.5h-.3z" clip-path="url(#g)"/><path d="M199.8 34h.3v21.5h-.3z" clip-path="url(#g)"/><path d="M200.1 34h.3v21.5h-.3z" clip-path="url(#g)"/><path d="M200.4 34h.3v21.5h-.3z" clip-path="url(#g)"/><path d="M200.8 34h.3v21.5h-.3z" clip-path="url(#g)"/><path d="M201.1 34h.3v21.5h-.3z" clip-path="url(#g)"/><path d="M201.4 34h.3v21.5h-.3z" clip-path="url(#g)"/><path d="M201.8 34h.3v21.5h-.3z" clip-path="url(#g)"/><path d="M202.1 34h.3v21.5h-.3z" clip-path="url(#g)"/><path d="M202.4 34h.3v21.5h-.3z" clip-path="url(#g)"/><path d="M202.7 34h.3v21.5h-.3z" clip-path="url(#g)"/><path d="M203.1 34h.3v21.5h-.3z" clip-path="url(#g)"/><path d="M203.4 34h.3v21.5h-.3z" clip-path="url(#g)"/><path d="M203.7 34h.3v21.5h-.3z" clip-path="url(#g)"/><path d="M204.1 34h.3v21.5h-.3z" clip-path="url(#g)"/><path d="M204.4 34h.3v21.5h-.3z" clip-path="url(#g)"/><path d="M204.7 34h.3v21.5h-.3z" clip-path="url(#g)"/><path d="M205 34h.3v21.5h-.3z" clip-path="url(#g)"/><path d="M205.4 34h.3v21.5h-.3z" clip-path="url(#g)"/><path d="M205.7 34h.3v21.5h-.3z" clip-path="url(#g)"/><path d="M206 34h.3v21.5h-.3z" clip-path="url(#g)"/><path d="M206.4 34h.3v21.5h-.3z" clip-path="url(#g)"/><path d="M206.7 34h.3v21.5h-.3z" clip-path="url(#g)"/><path d="M207 34h.3v21.5h-.3z" clip-path="url(#g)"/><path d="M207.3 34h.3v21.5h-.3z" clip-path="url(#g)"/><path d="M207.7 34h.3v21.5h-.3z" clip-path="url(#g)"/><path d="M208 34h.3v21.5h-.3z" clip-path="url(#g)"/><path d="M208.3 34h.3v21.5h-.3z" clip-path="url(#g)"/><path d="M208.6 34h.3v21.5h-.3z" clip-path="url(#g)"/><path d="M209 34h.3v21.5h-.3z" clip-path="url(#g)"/><path d="M209.3 34h.3v21.5h-.3z" clip-path="url(#g)"/><path d="M209.6 34h.3v21.5h-.3z" clip-path="url(#g)"/><path d="M210 34h.3v21.5h-.3z" clip-path="url(#g)"/><path d="M210.3 34h.3v21.5h-.3z" clip-path="url(#g)"/><path d="M210.6 34h.3v21.5h-.3z" clip-path="url(#g)"/><path d="M210.9 34h.3v21.5h-.3z" clip-path="url(#g)"/><path d="M211.3 34h.3v21.5h-.3z" clip-path="url(#g)"/><path d="M211.6 34h.3v21.5h-.3z" clip-path="url(#g)"/><path d="M211.9 34h.3v21.5h-.3z" clip-path="url(#g)"/><path d="M212.3 34h.3v21.5h-.3z" clip-path="url(#g)"/><path d="M212.6 34h.3v21.5h-.3z" clip-path="url(#g)"/><path d="M212.9 34h.3v21.5h-.3z" clip-path="url(#g)"/><path d="M213.2 34h.3v21.5h-.3z" clip-path="url(#g)"/><path d="M213.6 34h.3v21.5h-.3z" clip-path="url(#g)"/><path d="M213.9 34h.3v21.5h-.3z" clip-path="url(#g)"/><path d="M214.2 34h.3v21.5h-.3z" clip-path="url(#g)"/><path d="M214.6 34h.3v21.5h-.3z" clip-path="url(#g)"/><path d="M214.9 34h.3v21.5h-.3z" clip-path="url(#g)"/><path d="M215.2 34h.3v21.5h-.3z" clip-path="url(#g)"/><path d="M215.5 34h.3v21.5h-.3z" clip-path="url(#g)"/><path d="M215.9 34h.3v21.5h-.3z" clip-path="url(#g)"/><path d="M216.2 34h.3v21.5h-.3z" clip-path="url(#g)"/><path d="M216.5 34h.3v21.5h-.3z" clip-path="url(#g)"/><path d="M216.9 34h.3v21.5h-.3z" clip-path="url(#g)"/><path d="M217.2 34h.3v21.5h-.3z" clip-path="url(#g)"/><path d="M217.5 34h.3v21.5h-.3z" clip-path="url(#g)"/><path d="M217.8 34h.3v21.5h-.3z" clip-path="url(#g)"/><path d="M218.2 34h.3v21.5h-.3z" clip-path="url(#g)"/><path d="M218.5 34h.3v21.5h-.3z" clip-path="url(#g)"/><path d="M218.8 34h.3v21.5h-.3z" clip-path="url(#g)"/><path d="M219.1 34h.3v21.5h-.3z" clip-path="url(#g)"/><path d="M219.5 34h.3v21.5h-.3z" clip-path="url(#g)"/><path d="M219.8 34h.3v21.5h-.3z" clip-path="url(#g)"/><path d="M220.1 34h1.5v21.5h-1.5z" clip-path="url(#g)"/></g><g transform="translate(-3.2 -8.1)"><use xlink:href="#d" width="100%" height="100%"/><path d="M153.1 20.1h3.2v26.8h-3.2z" clip-path="url(#h)"/><path d="M156.3 20.1h.2v26.8h-.2z" clip-path="url(#h)"/><path d="M156.5 20.1h.2v26.8h-.2z" clip-path="url(#h)"/><path d="M156.6 20.1h.2v26.8h-.2z" clip-path="url(#h)"/><path d="M156.8 20.1h.2v26.8h-.2z" clip-path="url(#h)"/><path d="M157 20.1h.2v26.8h-.2z" clip-path="url(#h)"/><path d="M157.1 20.1h.2v26.8h-.2z" clip-path="url(#h)"/><path d="M157.3 20.1h.2v26.8h-.2z" clip-path="url(#h)"/><path d="M157.4 20.1h.2v26.8h-.2z" clip-path="url(#h)"/><path d="M157.6 20.1h.2v26.8h-.2z" clip-path="url(#h)"/><path d="M157.7 20.1h.2v26.8h-.2z" clip-path="url(#h)"/><path d="M157.9 20.1h.2v26.8h-.2z" clip-path="url(#h)"/><path d="M158.1 20.1h.2v26.8h-.2z" clip-path="url(#h)"/><path d="M158.2 20.1h.2v26.8h-.2z" clip-path="url(#h)"/><path d="M158.4 20.1h.2v26.8h-.2z" clip-path="url(#h)"/><path d="M158.5 20.1h.2v26.8h-.2z" clip-path="url(#h)"/><path d="M158.7 20.1h.2v26.8h-.2z" clip-path="url(#h)"/><path d="M158.9 20.1h.2v26.8h-.2z" clip-path="url(#h)"/><path d="M159 20.1h.2v26.8h-.2z" clip-path="url(#h)"/><path d="M159.2 20.1h.2v26.8h-.2z" clip-path="url(#h)"/><path d="M159.3 20.1h.2v26.8h-.2z" clip-path="url(#h)"/><path d="M159.5 20.1h.2v26.8h-.2z" clip-path="url(#h)"/><path d="M159.6 20.1h.2v26.8h-.2z" clip-path="url(#h)"/><path d="M159.8 20.1h.2v26.8h-.2z" clip-path="url(#h)"/><path d="M160 20.1h.2v26.8h-.2z" clip-path="url(#h)"/><path d="M160.1 20.1h.2v26.8h-.2z" clip-path="url(#h)"/><path d="M160.3 20.1h.2v26.8h-.2z" clip-path="url(#h)"/><path d="M160.4 20.1h.2v26.8h-.2z" clip-path="url(#h)"/><path d="M160.6 20.1h.2v26.8h-.2z" clip-path="url(#h)"/><path d="M160.7 20.1h.2v26.8h-.2z" clip-path="url(#h)"/><path d="M160.9 20.1h.2v26.8h-.2z" clip-path="url(#h)"/><path d="M161.1 20.1h.2v26.8h-.2z" clip-path="url(#h)"/><path d="M161.2 20.1h.2v26.8h-.2z" clip-path="url(#h)"/><path d="M161.4 20.1h.2v26.8h-.2z" clip-path="url(#h)"/><path d="M161.5 20.1h.2v26.8h-.2z" clip-path="url(#h)"/><path d="M161.7 20.1h.2v26.8h-.2z" clip-path="url(#h)"/><path d="M161.9 20.1h.2v26.8h-.2z" clip-path="url(#h)"/><path d="M162 20.1h.2v26.8h-.2z" clip-path="url(#h)"/><path d="M162.2 20.1h.2v26.8h-.2z" clip-path="url(#h)"/><path d="M162.3 20.1h.2v26.8h-.2z" clip-path="url(#h)"/><path d="M162.5 20.1h.2v26.8h-.2z" clip-path="url(#h)"/><path d="M162.6 20.1h.2v26.8h-.2z" clip-path="url(#h)"/><path d="M162.8 20.1h.2v26.8h-.2z" clip-path="url(#h)"/><path d="M163 20.1h.2v26.8h-.2z" clip-path="url(#h)"/><path d="M163.1 20.1h.2v26.8h-.2z" clip-path="url(#h)"/><path d="M163.3 20.1h.2v26.8h-.2z" clip-path="url(#h)"/><path d="M163.4 20.1h.2v26.8h-.2z" clip-path="url(#h)"/><path d="M163.6 20.1h.2v26.8h-.2z" clip-path="url(#h)"/><path d="M163.7 20.1h.2v26.8h-.2z" clip-path="url(#h)"/><path d="M163.9 20.1h.2v26.8h-.2z" clip-path="url(#h)"/><path d="M164.1 20.1h.2v26.8h-.2z" clip-path="url(#h)"/><path d="M164.2 20.1h.2v26.8h-.2z" clip-path="url(#h)"/><path d="M164.4 20.1h.2v26.8h-.2z" clip-path="url(#h)"/><path d="M164.5 20.1h.2v26.8h-.2z" clip-path="url(#h)"/><path d="M164.7 20.1h.2v26.8h-.2z" clip-path="url(#h)"/><path d="M164.9 20.1h.2v26.8h-.2z" clip-path="url(#h)"/><path d="M165 20.1h.2v26.8h-.2z" clip-path="url(#h)"/><path d="M165.2 20.1h.2v26.8h-.2z" clip-path="url(#h)"/><path d="M165.3 20.1h.2v26.8h-.2z" clip-path="url(#h)"/><path d="M165.5 20.1h.2v26.8h-.2z" clip-path="url(#h)"/><path d="M165.6 20.1h.2v26.8h-.2z" clip-path="url(#h)"/><path d="M165.8 20.1h.2v26.8h-.2z" clip-path="url(#h)"/><path d="M166 20.1h.2v26.8h-.2z" clip-path="url(#h)"/><path d="M166.1 20.1h.2v26.8h-.2z" clip-path="url(#h)"/><path d="M166.3 20.1h.2v26.8h-.2z" clip-path="url(#h)"/><path d="M166.4 20.1h.2v26.8h-.2z" clip-path="url(#h)"/><path d="M166.6 20.1h.2v26.8h-.2z" clip-path="url(#h)"/><path d="M166.8 20.1h.2v26.8h-.2z" clip-path="url(#h)"/><path d="M166.9 20.1h.2v26.8h-.2z" clip-path="url(#h)"/><path d="M167.1 20.1h.2v26.8h-.2z" clip-path="url(#h)"/><path d="M167.2 20.1h.2v26.8h-.2z" clip-path="url(#h)"/><path d="M167.4 20.1h.2v26.8h-.2z" clip-path="url(#h)"/><path d="M167.5 20.1h.2v26.8h-.2z" clip-path="url(#h)"/><path d="M167.7 20.1h.2v26.8h-.2z" clip-path="url(#h)"/><path d="M167.9 20.1h.2v26.8h-.2z" clip-path="url(#h)"/><path d="M168 20.1h.2v26.8h-.2z" clip-path="url(#h)"/><path d="M168.2 20.1h.2v26.8h-.2z" clip-path="url(#h)"/><path d="M168.3 20.1h.2v26.8h-.2z" clip-path="url(#h)"/><path d="M168.5 20.1h.2v26.8h-.2z" clip-path="url(#h)"/><path d="M168.6 20.1h.2v26.8h-.2z" clip-path="url(#h)"/><path d="M168.8 20.1h.2v26.8h-.2z" clip-path="url(#h)"/><path d="M169 20.1h.2v26.8h-.2z" clip-path="url(#h)"/><path d="M169.1 20.1h.2v26.8h-.2z" clip-path="url(#h)"/><path d="M169.3 20.1h.2v26.8h-.2z" clip-path="url(#h)"/><path d="M169.4 20.1h.2v26.8h-.2z" clip-path="url(#h)"/><path d="M169.6 20.1h.2v26.8h-.2z" clip-path="url(#h)"/><path d="M169.8 20.1h.2v26.8h-.2z" clip-path="url(#h)"/><path d="M169.9 20.1h.2v26.8h-.2z" clip-path="url(#h)"/><path d="M170.1 20.1h.2v26.8h-.2z" clip-path="url(#h)"/><path d="M170.2 20.1h.2v26.8h-.2z" clip-path="url(#h)"/><path d="M170.4 20.1h.2v26.8h-.2z" clip-path="url(#h)"/><path d="M170.5 20.1h.2v26.8h-.2z" clip-path="url(#h)"/><path d="M170.7 20.1h.2v26.8h-.2z" clip-path="url(#h)"/><path d="M170.9 20.1h.2v26.8h-.2z" clip-path="url(#h)"/><path d="M171 20.1h.2v26.8h-.2z" clip-path="url(#h)"/><path d="M171.2 20.1h.2v26.8h-.2z" clip-path="url(#h)"/><path d="M171.3 20.1h.2v26.8h-.2z" clip-path="url(#h)"/><path d="M171.5 20.1h.2v26.8h-.2z" clip-path="url(#h)"/><path d="M171.6 20.1h.2v26.8h-.2z" clip-path="url(#h)"/><path d="M171.8 20.1h.2v26.8h-.2z" clip-path="url(#h)"/><path d="M172 20.1h.2v26.8h-.2z" clip-path="url(#h)"/><path d="M172.1 20.1h.2v26.8h-.2z" clip-path="url(#h)"/><path d="M172.3 20.1h.2v26.8h-.2z" clip-path="url(#h)"/><path d="M172.4 20.1h.2v26.8h-.2z" clip-path="url(#h)"/><path d="M172.6 20.1h.2v26.8h-.2z" clip-path="url(#h)"/><path d="M172.8 20.1h.2v26.8h-.2z" clip-path="url(#h)"/><path d="M172.9 20.1h.2v26.8h-.2z" clip-path="url(#h)"/><path d="M173.1 20.1h.2v26.8h-.2z" clip-path="url(#h)"/><path d="M173.2 20.1h.2v26.8h-.2z" clip-path="url(#h)"/><path d="M173.4 20.1h.2v26.8h-.2z" clip-path="url(#h)"/><path d="M173.5 20.1h.2v26.8h-.2z" clip-path="url(#h)"/><path d="M173.7 20.1h.2v26.8h-.2z" clip-path="url(#h)"/><path d="M173.9 20.1h.2v26.8h-.2z" clip-path="url(#h)"/><path d="M174 20.1h.2v26.8h-.2z" clip-path="url(#h)"/><path d="M174.2 20.1h.2v26.8h-.2z" clip-path="url(#h)"/><path d="M174.3 20.1h.2v26.8h-.2z" clip-path="url(#h)"/><path d="M174.5 20.1h.2v26.8h-.2z" clip-path="url(#h)"/><path d="M174.6 20.1h.2v26.8h-.2z" clip-path="url(#h)"/><path d="M174.8 20.1h.2v26.8h-.2z" clip-path="url(#h)"/><path d="M175 20.1h.2v26.8h-.2z" clip-path="url(#h)"/><path d="M175.1 20.1h.2v26.8h-.2z" clip-path="url(#h)"/><path d="M175.3 20.1h.2v26.8h-.2z" clip-path="url(#h)"/><path d="M175.4 20.1h.2v26.8h-.2z" clip-path="url(#h)"/><path d="M175.6 20.1h.2v26.8h-.2z" clip-path="url(#h)"/><path d="M175.8 20.1h.2v26.8h-.2z" clip-path="url(#h)"/><path d="M175.9 20.1h.2v26.8h-.2z" clip-path="url(#h)"/><path d="M176.1 20.1h.2v26.8h-.2z" clip-path="url(#h)"/><path d="M176.2 20.1h.2v26.8h-.2z" clip-path="url(#h)"/><path d="M176.4 46.9V20.1z" clip-path="url(#h)"/></g></g><path fill="#054b9a" d="M255.6 42.5h-9.7v-16c0-2.5-1.7-4.2-4.1-4.2s-4.1 1.7-4.1 4.2v16H228V0h9.7v16.1q3-2.7 7.4-2.7c6.3 0 10.6 4.6 10.6 11.5zm5.9-28.3h9.7v15.9a4 4 0 0 0 4.1 4.1 4 4 0 0 0 4.1-4.1V14.2h9.7v15.1c0 8.3-5.8 13.9-13.8 13.9s-13.9-5.5-13.9-13.9zm50.8 28.9q-5.4 0-8.1-3.6v2.9h-8.9V0h9.7v16.1a10 10 0 0 1 7.2-2.6c7.8 0 13.6 6.3 13.6 14.9.1 8.6-5.6 14.7-13.5 14.7m-1.9-20.8c-3 0-5.5 2.2-5.5 6.1s2.5 5.9 5.5 5.9c3.1 0 5.5-2.2 5.5-6s-2.5-6-5.5-6"/></svg>