<svg height="81" viewBox="0 0 404 81" width="404" xmlns="http://www.w3.org/2000/svg"><path d="m45.5 80.1-45.5-25.7c16-16.4 23.1-50.8 23.1-50.8l22.2-3.6 20.1 3.3s5.9 34.4 20.2 49.9c.1-.1-40.1 26.9-40.1 26.9z" fill="#fff"/><path d="m24.9 29.9h4.1c5.1-.5 5.3-8.1 4.8-11.2-.3-2.1-1.2-4.3-3.4-5.3-1.9-.8-6.4-.8-8.2.3-3.7 2.4-3.4 16.2 2.7 16.2zm44.5 20c-2.1-.6-5.8-.7-7.6.5-3.3 2.3-3.5 15.4 2.3 15.4h2.4l5.8-3.9c.4-1.6.4-3.3.4-4.7 0-2.4.1-6.3-3.3-7.3zm11 6.8c.7-2.8 0-5.5-.6-8.6s-5.9-5.8-9.2-5.8c-4 0-3.9-.2-7.9.1-3.5.2-7.4 1.8-9.3 4.6-2.2 3.2-1.6 7.4-1.7 10.9-.2 3.4-.3 7.5 2.2 10.3 1.6 1.7 3.2 2.4 5.2 2.9l-13.6 9-22.6-12.9 12.8-4.7-4.8-2.8 3.3-12.5 19.5-6.2 11-37.8-3.5 8.5-3.5-.2-8.6 24.7-20.1 5.8-3.6 14.7-6.9-4 3.2 14-21.7-12.3c.3-.4 7.6-8.7 14.1-22 3.2 3.4 6.7 4.5 13.3 4.5 3.4 0 7.2-1.2 9.9-3.4 2.4-1.9 3.5-3.7 3.6-9.9.1-3.6-.1-5.7-.6-9.2-1.3-7.6-14.9-7.6-18.2-5.3.6-2.4.6-3.1 1-5.5l22.2-3.6 20.1 3.3s5.9 34.4 20.2 49.9c.1-.1-4.7 3.2-5.2 3.5z" fill="#f1870f"/><path d="m106.2 36.1c0-3.6-.1-6.2-.2-8.7h5.9l.2 5.1h.2c1.3-3.8 4.4-5.7 7.3-5.7.6 0 1.1 0 1.6.2v6.3c-.6-.1-1.3-.2-2-.2-3.3 0-5.4 2.1-6 5.1-.1.6-.2 1.3-.2 2.1v13.8h-6.8zm34.3 18.2-.4-3h-.2c-1.7 2.1-4.4 3.6-7.9 3.6-5.4 0-8.5-3.9-8.5-7.9 0-6.8 6-10.1 15.9-10.1v-.4c0-1.8-.7-4.7-5.4-4.7-2.6 0-5.4.8-7.2 2l-1.3-4.4c2-1.2 5.5-2.3 9.7-2.3 8.6 0 11.1 5.4 11.1 11.3v9.6c0 2.4.1 4.8.4 6.4h-6.2zm-.9-13.1c-4.8-.1-9.3 1-9.3 5 0 2.6 1.7 3.8 3.8 3.8 2.7 0 4.7-1.8 5.3-3.7.2-.5.2-1.1.2-1.5zm13.1 13.1c.1-1.8.2-4.8.2-7.5v-31.5h6.8v16h.1c1.7-2.5 4.5-4.3 8.6-4.3 6.6 0 11.2 5.4 11.2 13.5 0 9.6-6.1 14.4-12.2 14.4-3.5 0-6.6-1.3-8.5-4.7h-.1l-.3 4h-5.8zm7-11.1c0 .5.1 1.1.2 1.6.7 2.6 3.1 4.8 6 4.8 4.2 0 6.8-3.4 6.8-8.8 0-4.8-2.2-8.6-6.8-8.6-2.7 0-5.2 2-6 5-.1.5-.2 1.1-.2 1.8zm40.4 11.1-.4-3h-.2c-1.7 2.1-4.4 3.6-7.9 3.6-5.4 0-8.5-3.9-8.5-7.9 0-6.8 6-10.1 15.9-10.1v-.4c0-1.8-.7-4.7-5.4-4.7-2.6 0-5.4.8-7.2 2l-1.3-4.4c2-1.2 5.5-2.3 9.7-2.3 8.6 0 11.1 5.4 11.1 11.3v9.6c0 2.4.1 4.8.4 6.4h-6.2zm-1-13.1c-4.8-.1-9.3 1-9.3 5 0 2.6 1.7 3.8 3.8 3.8 2.7 0 4.7-1.8 5.3-3.7.2-.5.2-1.1.2-1.5zm21-21.3v7.6h6.4v5.1h-6.4v11.8c0 3.3.8 5 3.5 5 1.2 0 2-.2 2.6-.3l.1 5.2c-1 .4-2.7.6-4.9.6-2.4 0-4.5-.8-5.8-2.2-1.5-1.6-2.1-3.9-2.1-7.5v-12.7h-3.8v-5.1h3.8v-6zm19.9 0v7.6h6.4v5.1h-6.4v11.8c0 3.3.8 5 3.5 5 1.2 0 2-.2 2.6-.3l.1 5.2c-1 .4-2.7.6-4.9.6-2.4 0-4.5-.8-5.8-2.2-1.5-1.6-2.1-3.9-2.1-7.5v-12.7h-3.8v-5.1h3.8v-6zm14.2 20.7h.1c.8-1 1.7-2 2.5-3l9.3-9.7h3.2l-10.7 10.9 12.2 15.4h-3.2l-10.8-13.8-2.7 2.9v11h-2.6v-39.2h2.6v25.5zm37.3 7.4c0 2.1.1 4.2.4 6.2h-2.4l-.4-3.8h-.1c-1.3 2-4.2 4.4-8.5 4.4-5.3 0-7.7-3.7-7.7-7.3 0-6.1 5.3-9.8 16.1-9.6v-.7c0-2.5-.5-7.8-6.8-7.7-2.3 0-4.8.6-6.7 2l-.8-1.9c2.4-1.6 5.4-2.2 7.7-2.2 7.6 0 9.1 5.7 9.1 10.4zm-2.6-7.8c-5.8-.2-13.3.7-13.3 7.1 0 3.8 2.5 5.5 5.3 5.5 4.4 0 7-2.6 7.8-5.3.2-.5.3-1.2.3-1.6zm10.4-25h2.6v39h-2.6zm27.3 32.8c0 2.1 0 4.2.4 6.2h-2.4l-.4-3.8h-.1c-1.3 2-4.2 4.4-8.5 4.4-5.3 0-7.7-3.7-7.7-7.3 0-6.1 5.3-9.8 16.1-9.6v-.7c0-2.5-.5-7.8-6.8-7.7-2.3 0-4.8.6-6.7 2l-.8-1.9c2.4-1.6 5.4-2.2 7.7-2.2 7.6 0 9.1 5.7 9.1 10.4zm-2.7-7.8c-5.8-.2-13.3.7-13.3 7.1 0 3.8 2.5 5.5 5.3 5.5 4.4 0 6.9-2.6 7.8-5.3.2-.5.3-1.2.3-1.6v-5.7zm9.3 10.6c1.5.8 3.6 1.8 5.9 1.8 4.2 0 6.1-2.2 6.1-5 0-3-1.8-4.4-5.6-6-4.3-1.7-6.7-4-6.7-7.2 0-3.8 3.1-7.2 8.1-7.2 2.4 0 4.5.7 5.8 1.7l-1 2.1c-1-.6-2.6-1.6-5.3-1.6-3.4 0-5.1 2.1-5.1 4.5 0 2.7 1.9 3.9 5.5 5.4 4.3 1.7 6.9 3.8 6.9 7.8 0 4.5-3.5 7.5-8.9 7.5-2.5 0-5-.7-6.7-1.8zm22.2 4c-1.3 0-2.2-1.2-2.1-2.4 0-1.4 1-2.4 2.2-2.4 1.3 0 2.2 1.1 2.2 2.4s-1 2.4-2.3 2.4zm7.6-4c1.5.8 3.6 1.8 5.9 1.8 4.2 0 6.1-2.2 6.1-5 0-3-1.8-4.4-5.6-6-4.3-1.7-6.7-4-6.7-7.2 0-3.8 3.1-7.2 8.1-7.2 2.4 0 4.5.7 5.8 1.7l-1 2.1c-1-.6-2.6-1.6-5.3-1.6-3.4 0-5.1 2.1-5.1 4.5 0 2.7 1.9 3.9 5.5 5.4 4.3 1.7 6.8 3.8 6.8 7.8 0 4.5-3.5 7.5-8.9 7.5-2.5 0-5-.7-6.7-1.8zm21.5-10c0 8.5 4.7 11.7 10 11.7 3.8 0 5.8-.7 7.3-1.5l.6 2c-1 .5-3.7 1.7-8.4 1.7-7.6 0-12.4-5.5-12.4-13.2 0-8.8 5.1-14.3 11.8-14.3 8.7 0 10.3 8.1 10.3 11.9 0 .7 0 1.1-.1 1.6zm17-2.1c0-3.7-1.5-9.2-7.8-9.2-5.8 0-8.4 5.2-8.8 9.2zm-295.3 21.9h296.4v4.5h-296.4z" fill="#424242"/></svg>