<svg fill="none" height="230" viewBox="0 0 961 230" width="961" xmlns="http://www.w3.org/2000/svg"><g clip-rule="evenodd" fill="#f75c5c" fill-rule="evenodd"><path d="m879.87 46.8616h68.092c6.705 0 12.134 5.4724 12.134 12.2223v109.9981c0 6.75-5.429 12.224-12.134 12.224h-68.092c-6.705 0-12.135-5.474-12.135-12.224v-109.9981c0-6.7499 5.43-12.2223 12.135-12.2223zm33.753 93.1414h-14.202v-50.4167h12.305c20.776 0 20.397 50.4167 1.897 50.4167zm-2.347-64.4083h-27.43v78.8063h27.43c43.73 0 41.964-78.8063 0-78.8063z"/><path d="m783.666 43.0569h67.987c6.705 0 12.135 5.4724 12.135 12.2223v119.3478c0 6.751-5.43 12.224-12.135 12.224h-67.987c-6.699 0-12.135-5.473-12.135-12.224v-119.3478c0-6.7499 5.436-12.2223 12.135-12.2223zm9.671 32.5385v78.8056h43.986v-13.364h-29.83v-19.99h29.83v-12.859h-30.085l-.248-19.0961h30.333v-13.4965z"/><path d="m687.556 32.9114h67.699c6.699 0 12.135 5.4724 12.135 12.2223v133.9343c0 6.751-5.436 12.224-12.135 12.224h-67.699c-6.699 0-12.135-5.473-12.135-12.224v-133.9343c0-6.7499 5.436-12.2223 12.135-12.2223zm21.893 121.0776h15.36l.059-65.2814h16.91v-15.0365h-50.102v14.9631l17.865.0734z"/><path d="m590.988 24.0784h68.34c6.699 0 12.135 5.4724 12.135 12.2217v161.8089c0 6.744-5.436 12.218-12.135 12.218h-68.34c-6.699 0-12.135-5.474-12.135-12.218v-161.8089c0-6.7493 5.436-12.2217 12.135-12.2217zm22.928 101.7576 8.752-32.2056 8.753 32.2056zm17.634-52.161h-18.323l-23.766 80.316h16.184l4.423-13.37h25.276l3.539 13.37h16.309z"/><path d="m495.457.633789h66.901c6.699 0 12.129 5.472451 12.129 12.222311v204.2929c0 6.744-5.43 12.217-12.129 12.217h-66.901c-6.705 0-12.135-5.473-12.135-12.217v-204.2929c0-6.74986 5.43-12.222311 12.135-12.222311zm51.414 98.644411 12.011-6.4925c-9.1-22.2814-29.883-23.1031-45-12.9865-16.937 11.3299-25.022 58.4388 7.457 73.9698 21.234 8.021 35.135-7.386 37.543-18.209-5.711-2.671-13.273-5.598-13.273-5.598-8.217 22.917-36.405 5.598-29.379-23.08 7.51-30.6486 29.627-14.3504 30.641-7.6038z"/><path d="m466.695 229.366h-68.092c-6.699 0-12.135-5.473-12.135-12.217v-204.2929c0-6.74986 5.436-12.222311 12.135-12.222311h68.092c6.705 0 12.134 5.472451 12.134 12.222311v204.2929c0 6.744-5.429 12.217-12.134 12.217zm-43.819-75.597h14.287v-78.9334h-14.287z"/><path d="m370.576 210.325h-68.36c-6.706 0-12.135-5.474-12.135-12.218v-162.2977c0-6.7525 5.429-12.2217 12.135-12.2217h68.36c6.705 0 12.134 5.4692 12.134 12.2217v162.2977c0 6.744-5.429 12.218-12.134 12.218zm-52.358-135.4906v78.9346h40.826v-12.48h-26.592v-66.4546z"/><path d="m274.544 191.743h-68.805c-6.699 0-12.135-5.473-12.135-12.224v-133.9356c0-6.7499 5.436-12.2223 12.135-12.2223h68.805c6.699 0 12.135 5.4724 12.135 12.2223v133.9356c0 6.751-5.436 12.224-12.135 12.224zm-30.143-80.115h-13.142v-22.79h13.142c13.148 0 13.148 22.79 0 22.79zm6.317-36.798h-33.996v78.938h14.784v-27.055c48.552 4.917 48.539-47.553 19.212-51.883z"/><path d="m177.416 186.944h-67.052c-6.698 0-12.1344-5.474-12.1344-12.224v-119.3474c0-6.7493 5.4364-12.2217 12.1344-12.2217h67.052c6.699 0 12.135 5.4724 12.135 12.2217v119.3474c0 6.75-5.436 12.224-12.135 12.224zm-58.018-111.3481v78.8061h43.986v-13.363h-29.83v-19.99h29.83v-12.859h-30.085l-.249-19.0976h30.334v-13.4965z"/><path d="m82.2355 183.143h-69.1974c-6.69862 0-12.134711-5.473-12.134711-12.224v-109.9957c0-6.7499 5.436091-12.2224 12.134711-12.2224h69.1974c6.7052 0 12.1347 5.4725 12.1347 12.2224v109.9957c0 6.751-5.4295 12.224-12.1347 12.224zm-32.2676-70.178h-12.9587v-22.4613h12.9587c12.2718 0 12.9587 22.4613 0 22.4613zm11.1295 11.662c19.2913-5.356 19.7296-48.3072-8.0462-48.3072h-32.0801v79.2052h16.1578v-28.573h8.4845l11.9319 28.573h18.5848z"/></g></svg>