<svg height="32" viewBox="0 0 200 32" width="200" xmlns="http://www.w3.org/2000/svg"><path d="m0 32h32v-32h-32z" fill="#fff"/><path d="m44.92 7.63h3.85v10.37c0 1.87.93 2.95 2.75 2.95s2.8-1.08 2.8-2.95v-10.37h3.85v10.31c0 4.37-3.06 6.54-6.71 6.54s-6.54-2.17-6.54-6.54zm24.85 9.86c0-1.72-1-2.66-2.41-2.66s-2.36.94-2.36 2.66v6.83h-3.91v-12.58h3.91v1.67c.903-1.183 2.322-1.857 3.81-1.81 2.91 0 4.85 2 4.85 5.37v7.35h-3.89zm11.71 7.01c-3.36 0-5.62-1.87-5.8-4.31h3.81c.154.927 1.006 1.573 1.94 1.47 1 0 1.51-.45 1.51-1 0-2-6.85-.56-6.85-5.18 0-2.14 1.83-3.9 5.12-3.9s5.05 1.8 5.3 4.28h-3.57c-.119-.903-.947-1.538-1.85-1.42-.9 0-1.39.36-1.39 1 0 2 6.81.59 6.87 5.28 0 2.13-1.93 3.78-5.09 3.78zm13.4-12.94c2.908-.167 5.484 1.863 6 4.73h-4.07c-.257-.883-1.082-1.477-2-1.44-1.38 0-2.32 1.08-2.32 3.18s.94 3.18 2.32 3.18c.928.058 1.767-.55 2-1.45h4.11c-.548 2.849-3.101 4.867-6 4.74-3.7 0-6.32-2.48-6.32-6.47s2.58-6.47 6.28-6.47zm11.95 12.76h-3.83v-12.58h3.86v2.09c.841-1.373 2.33-2.216 3.94-2.23v4.08h-1.06c-1.83 0-2.88.64-2.88 2.8zm10.78-12.76c1.557-.071 3.035.69 3.88 2v-1.82h3.86v12.58h-3.86v-1.78c-.86 1.304-2.34 2.062-3.9 2-3.07 0-5.53-2.53-5.53-6.49s2.46-6.49 5.55-6.49zm1.13 3.36c-.783.013-1.525.353-2.046.939-.521.585-.772 1.362-.694 2.141-.081.787.17 1.571.692 2.165.521.595 1.267.944 2.058.965.792-.015 1.541-.363 2.063-.959.521-.596.767-1.384.677-2.171.075-.78-.179-1.557-.701-2.142s-1.265-.925-2.049-.938zm26.74 2.57c.058-.9-.389-1.757-1.16-2.225-.771-.467-1.739-.467-2.51 0-.771.468-1.218 1.325-1.16 2.225v6.83h-3.83v-6.83c.002-.862-.457-1.659-1.204-2.091-.746-.431-1.666-.431-2.412 0-.747.432-1.206 1.229-1.204 2.091v6.83h-3.86v-12.58h3.86v1.58c.872-1.135 2.24-1.776 3.67-1.72 1.781-.082 3.456.847 4.33 2.4.918-1.452 2.512-2.337 4.23-2.35 3.12 0 5.12 2 5.12 5.37v7.35h-3.83zm14.27-5.93c3.11 0 5.55 2.48 5.55 6.45s-2.46 6.49-5.55 6.49c-1.544.078-3.016-.658-3.88-1.94v1.76h-3.87v-16.69h3.85v5.89c.867-1.291 2.346-2.035 3.9-1.96zm-1.15 3.36c-.783.016-1.524.357-2.046.941-.521.584-.776 1.359-.704 2.139-.129 1.065.368 2.11 1.275 2.683s2.063.573 2.97 0 1.403-1.618 1.275-2.683c.079-.785-.177-1.566-.704-2.152-.527-.587-1.277-.924-2.066-.928zm8.72-7.29h3.86v16.69h-3.86zm12.46 16.87c-1.737.088-3.428-.574-4.644-1.817-1.217-1.243-1.841-2.948-1.716-4.683 0-4 2.62-6.47 6.36-6.47 1.692-.1 3.345.528 4.544 1.726 1.198 1.199 1.826 2.852 1.726 4.544.005.401-.011.801-.05 1.2h-8.73c-.022.643.222 1.267.674 1.725s1.073.709 1.716.695c.856.049 1.652-.437 2-1.22h4.1c-.734 2.661-3.224 4.451-5.98 4.3zm-2.5-7.69h4.82c0-.609-.257-1.191-.708-1.603-.451-.411-1.054-.613-1.661-.557-1.263-.048-2.34.902-2.451 2.16zm15.82 4.01-2 3.5h-4.2l4.15-6.43-4.26-6.15h4.33l2.41 3.47 2-3.47h4.17l-4.21 6.33 4.33 6.25h-4.33zm-193.1-20.82v32h32v-32zm12 28h-8v-3.2h8zm16-4h-3.86l-2.14-3.14-2.12 3.14h-3.88l4.06-6-4.06-6h3.86l2.14 3.15 2.14-3.15h3.86l-4.06 6z"/></svg>