<svg width="900" height="900" viewBox="0 0 900 900" fill="none" xmlns="http://www.w3.org/2000/svg">
<mask id="mask0_97_97" style="mask-type:luminance" maskUnits="userSpaceOnUse" x="0" y="0" width="900" height="900">
<path d="M900 0H0V900H900V0Z" fill="white"/>
</mask>
<g mask="url(#mask0_97_97)">
<mask id="mask1_97_97" style="mask-type:luminance" maskUnits="userSpaceOnUse" x="0" y="0" width="900" height="900">
<path d="M0 900H900V0H0V900Z" fill="white"/>
</mask>
<g mask="url(#mask1_97_97)">
<path d="M0 100C0 44.7715 44.7715 0 100 0H800C855.228 0 900 44.7715 900 100V800C900 855.228 855.228 900 800 900H100C44.7715 900 0 855.228 0 800V100Z" fill="url(#paint0_linear_97_97)"/>
</g>
<mask id="mask2_97_97" style="mask-type:luminance" maskUnits="userSpaceOnUse" x="456" y="407" width="171" height="137">
<path d="M456.094 506.688C456.094 508.99 456.034 511.3 456.128 513.604C456.174 514.792 456.455 515.979 456.702 517.168C460.187 534.164 476.721 546.02 494.685 542.616C510.841 539.538 520.96 525.66 521.248 511.267C521.321 507.649 521.495 504.024 521.815 500.425C522.316 494.825 523.424 489.358 525.64 484.158C526.588 481.921 527.716 479.798 529.225 477.896C530.933 475.747 533.13 474.338 535.76 473.704C539.445 472.809 543.176 472.843 546.855 473.723C549.018 474.245 550.92 475.333 552.482 476.974C554.011 478.59 555.159 480.446 556.12 482.435C558.19 486.715 559.419 491.254 560.152 495.933C560.907 500.713 561.227 505.526 561.287 510.366C561.321 512.895 561.561 515.386 562.128 517.869C565.907 534.424 582.242 545.98 600.032 542.616C615.292 539.725 626.381 526.401 626.561 510.886C626.701 498.763 625.393 486.781 622.482 475.006C619.511 462.976 614.872 451.661 607.743 441.447C598.023 427.529 585.306 417.462 569.191 411.962C553.991 406.774 538.457 406.067 522.769 409.351C508.583 412.322 496.167 418.778 485.64 428.771C476.154 437.769 469.345 448.551 464.606 460.666C458.811 475.459 456.388 490.887 456.094 506.688Z" fill="white"/>
</mask>
<g mask="url(#mask2_97_97)">
<mask id="mask3_97_97" style="mask-type:luminance" maskUnits="userSpaceOnUse" x="-218" y="-205" width="1336" height="1336">
<path d="M-217.909 1130.96H1117.2V-204.15H-217.909V1130.96Z" fill="white"/>
</mask>
<g mask="url(#mask3_97_97)">
<path d="M-217.877 -204.15H1117.23V1130.96H-217.877V-204.15Z" fill="white"/>
</g>
</g>
<path d="M488.331 348.649C488.331 330.826 473.912 316.406 456.088 316.406C438.265 316.406 423.779 330.826 423.779 348.649C423.779 366.54 438.265 380.958 456.088 380.958C473.912 380.958 488.331 366.54 488.331 348.649Z" fill="#FFF200"/>
<mask id="mask4_97_97" style="mask-type:luminance" maskUnits="userSpaceOnUse" x="269" y="407" width="161" height="178">
<path d="M376.959 416.949C373.795 419.505 371.265 422.603 369.156 426.06C364.556 433.564 359.964 441.074 355.344 448.564C354.777 449.485 354.45 450.627 353.208 451.18C352.66 450.54 352.073 449.919 351.552 449.245C347.823 444.483 344.102 439.723 340.391 434.965C336.205 429.605 332.147 424.151 327.807 418.911C319.95 409.431 309.69 405.627 297.247 407.736C278.782 410.874 265.511 429.732 270.432 449.331C271.62 454.064 273.963 458.143 276.92 461.922C289.296 477.722 301.633 493.55 313.982 509.365C314.704 510.292 315.404 511.247 316.199 512.295C315.538 513.437 314.944 514.498 314.316 515.533C310.365 521.995 306.352 528.43 302.447 534.925C298.088 542.168 296.473 549.905 297.908 558.103C302.08 582.074 329.83 592.341 349.623 577.055C353.295 574.211 356.119 570.66 358.529 566.721C373.895 541.638 389.267 516.56 404.643 491.487C411.274 480.655 417.909 469.825 424.549 458.997C429.175 451.448 430.798 443.41 429.229 434.885C424.897 411.361 396.979 400.801 376.959 416.949Z" fill="white"/>
</mask>
<g mask="url(#mask4_97_97)">
<mask id="mask5_97_97" style="mask-type:luminance" maskUnits="userSpaceOnUse" x="-218" y="-205" width="1336" height="1336">
<path d="M-217.911 1130.96H1117.2V-204.15H-217.911V1130.96Z" fill="white"/>
</mask>
<g mask="url(#mask5_97_97)">
<path d="M-217.879 -204.15H1117.23V1130.96H-217.879V-204.15Z" fill="white"/>
</g>
</g>
<mask id="mask6_97_97" style="mask-type:luminance" maskUnits="userSpaceOnUse" x="90" y="337" width="163" height="206">
<path d="M220.507 477.983H180.527L235.092 390.654C238.778 384.759 240.239 378.13 239.825 371.682C239.866 371.041 240.02 370.44 240.02 369.799C240.02 352.115 225.687 337.783 207.997 337.783H122.543C104.86 337.783 90.5273 352.115 90.5273 369.799C90.5273 387.483 104.86 401.815 122.543 401.815H152.617L96.8423 491.067C92.9241 496.381 90.5273 502.883 90.5273 509.999C90.5273 527.682 104.86 542.014 122.543 542.014H220.507C238.191 542.014 252.529 527.682 252.529 509.999C252.529 492.315 238.191 477.983 220.507 477.983Z" fill="white"/>
</mask>
<g mask="url(#mask6_97_97)">
<mask id="mask7_97_97" style="mask-type:luminance" maskUnits="userSpaceOnUse" x="-218" y="-205" width="1336" height="1336">
<path d="M-217.912 1130.95H1117.2V-204.153H-217.912V1130.95Z" fill="white"/>
</mask>
<g mask="url(#mask7_97_97)">
<path d="M-217.879 -204.153H1117.23V1130.95H-217.879V-204.153Z" fill="white"/>
</g>
</g>
<mask id="mask8_97_97" style="mask-type:luminance" maskUnits="userSpaceOnUse" x="662" y="336" width="147" height="208">
<path d="M794.079 484.228C788.86 480.217 783.586 476.278 778.332 472.293C777.478 471.645 776.657 470.944 775.608 470.096C776.677 469.275 777.511 468.601 778.373 467.974C784.067 463.855 789.781 459.769 795.462 455.63C806.697 447.46 811.67 432.48 807.057 418.614C800.328 398.421 776.069 389.977 758.299 401.692C755.549 403.508 752.926 405.497 750.248 407.42C743.753 412.106 737.257 416.805 730.749 421.472C730.001 422.006 729.327 422.814 727.992 422.721C727.945 421.432 727.871 420.25 727.871 419.076C727.863 402.934 727.863 386.794 727.871 370.658C727.871 367.581 727.711 364.516 726.964 361.512C721.41 339.063 696.089 329.723 677.652 341.666C667.471 348.261 662.592 357.967 662.578 370.037C662.548 416.253 662.552 462.473 662.592 508.694C662.592 511.091 662.812 513.527 663.26 515.884C666.197 531.558 681.057 544.895 700.255 541.865C713.553 539.763 722.318 531.745 726.51 518.882C726.77 518.087 727.051 517.293 727.398 516.244C728.339 516.838 729.087 517.252 729.761 517.766C733.01 520.205 736.25 522.653 739.481 525.11C744.561 528.948 749.574 532.886 754.727 536.612C764.234 543.474 774.641 544.956 785.642 540.977C801.597 535.203 811.016 517.213 805.047 499.522C802.952 493.314 799.274 488.207 794.079 484.228Z" fill="white"/>
</mask>
<g mask="url(#mask8_97_97)">
<mask id="mask9_97_97" style="mask-type:luminance" maskUnits="userSpaceOnUse" x="-218" y="-205" width="1336" height="1336">
<path d="M-217.909 1130.95H1117.2V-204.153H-217.909V1130.95Z" fill="white"/>
</mask>
<g mask="url(#mask9_97_97)">
<path d="M-217.877 -204.153H1117.23V1130.95H-217.877V-204.153Z" fill="white"/>
</g>
</g>
</g>
<defs>
<linearGradient id="paint0_linear_97_97" x1="0" y1="900" x2="900" y2="900" gradientUnits="userSpaceOnUse">
<stop stop-color="#0557AB"/>
<stop offset="0.85" stop-color="#06165A"/>
<stop offset="1" stop-color="#06165A"/>
</linearGradient>
</defs>
</svg>
