<?xml version="1.0" encoding="UTF-8" standalone="no"?>
<svg
   width="123px"
   height="103px"
   viewBox="0 0 123 103"
   version="1.1"
   id="svg1"
   sodipodi:docname="curl-symbol.svg"
   inkscape:version="1.4.3 (0d15f75, 2025-12-25)"
   xmlns:inkscape="http://www.inkscape.org/namespaces/inkscape"
   xmlns:sodipodi="http://sodipodi.sourceforge.net/DTD/sodipodi-0.dtd"
   xmlns="http://www.w3.org/2000/svg"
   xmlns:svg="http://www.w3.org/2000/svg">
  <sodipodi:namedview
     id="namedview1"
     pagecolor="#505050"
     bordercolor="#ffffff"
     borderopacity="1"
     inkscape:showpageshadow="0"
     inkscape:pageopacity="0"
     inkscape:pagecheckerboard="1"
     inkscape:deskcolor="#d1d1d1"
     inkscape:zoom="0.25242718"
     inkscape:cx="61.403846"
     inkscape:cy="51.5"
     inkscape:window-width="1493"
     inkscape:window-height="889"
     inkscape:window-x="0"
     inkscape:window-y="32"
     inkscape:window-maximized="0"
     inkscape:current-layer="svg1" />
  <defs
     id="defs1" />
  <g
     id="curl"
     stroke="none"
     stroke-width="1"
     fill="none"
     fill-rule="evenodd">
    <g
       id="curl-logo-2016"
       transform="translate(-220.000000, -3.000000)">
      <g
         id="symbol"
         transform="translate(220.000000, 0.000000)">
        <g
           id="slash-2"
           transform="translate(89.033162, 54.617691) rotate(30.300000) translate(-89.033162, -54.617691) translate(80.033162, -3.382309)"
           fill="#0f564d">
          <path
             d="M9,116 C4.02943725,116 0,111.970563 0,107 C0,102.029437 4.02943725,98 9,98 C13.9705627,98 18,102.029437 18,107 C18,111.970563 13.9705627,116 9,116 Z M9,111.875 C11.6923882,111.875 13.875,109.692388 13.875,107 C13.875,104.307612 11.6923882,102.125 9,102.125 C6.30761184,102.125 4.125,104.307612 4.125,107 C4.125,109.692388 6.30761184,111.875 9,111.875 Z"
             id="dot-bottom"
             fill-rule="nonzero" />
          <path
             d="M9,18 C4.02943725,18 0,13.9705627 0,9 C0,4.02943725 4.02943725,0 9,0 C13.9705627,0 18,4.02943725 18,9 C18,13.9705627 13.9705627,18 9,18 Z M9,13.875 C11.6923882,13.875 13.875,11.6923882 13.875,9 C13.875,6.30761184 11.6923882,4.125 9,4.125 C6.30761184,4.125 4.125,6.30761184 4.125,9 C4.125,11.6923882 6.30761184,13.875 9,13.875 Z"
             id="dot-top-2"
             fill-rule="nonzero" />
          <rect
             id="rect-2"
             x="3"
             y="15"
             width="12"
             height="86" />
        </g>
        <g
           id="slash-1"
           transform="translate(52.033162, 54.617691) rotate(30.300000) translate(-52.033162, -54.617691) translate(43.033162, -3.382309)"
           fill="#093754">
          <path
             d="M9,116 C4.02943725,116 0,111.970563 0,107 C0,102.029437 4.02943725,98 9,98 C13.9705627,98 18,102.029437 18,107 C18,111.970563 13.9705627,116 9,116 Z M9,111.875 C11.6923882,111.875 13.875,109.692388 13.875,107 C13.875,104.307612 11.6923882,102.125 9,102.125 C6.30761184,102.125 4.125,104.307612 4.125,107 C4.125,109.692388 6.30761184,111.875 9,111.875 Z"
             id="dot-bottom-1"
             fill-rule="nonzero" />
          <path
             d="M9,18 C4.02943725,18 0,13.9705627 0,9 C0,4.02943725 4.02943725,0 9,0 C13.9705627,0 18,4.02943725 18,9 C18,13.9705627 13.9705627,18 9,18 Z M9,13.875 C11.6923882,13.875 13.875,11.6923882 13.875,9 C13.875,6.30761184 11.6923882,4.125 9,4.125 C6.30761184,4.125 4.125,6.30761184 4.125,9 C4.125,11.6923882 6.30761184,13.875 9,13.875 Z"
             id="dot-top-1"
             fill-rule="nonzero" />
          <rect
             id="rect-1"
             x="3"
             y="15"
             width="12"
             height="86" />
        </g>
        <path
           d="M9,78 C4.02943725,78 0,73.9705627 0,69 C0,64.0294373 4.02943725,60 9,60 C13.9705627,60 18,64.0294373 18,69 C18,73.9705627 13.9705627,78 9,78 Z M9,73.875 C11.6923882,73.875 13.875,71.6923882 13.875,69 C13.875,66.3076118 11.6923882,64.125 9,64.125 C6.30761184,64.125 4.125,66.3076118 4.125,69 C4.125,71.6923882 6.30761184,73.875 9,73.875 Z"
           id="path1"
           fill="#093754"
           fill-rule="nonzero" />
        <path
           d="M9,46 C4.02943725,46 0,41.9705627 0,37 C0,32.0294373 4.02943725,28 9,28 C13.9705627,28 18,32.0294373 18,37 C18,41.9705627 13.9705627,46 9,46 Z M9,41.875 C11.6923882,41.875 13.875,39.6923882 13.875,37 C13.875,34.3076118 11.6923882,32.125 9,32.125 C6.30761184,32.125 4.125,34.3076118 4.125,37 C4.125,39.6923882 6.30761184,41.875 9,41.875 Z"
           id="dot-top"
           fill="#093754"
           fill-rule="nonzero" />
      </g>
    </g>
  </g>
</svg>
