<svg xmlns="http://www.w3.org/2000/svg" width="1959" height="800" style="shape-rendering:geometricPrecision;text-rendering:geometricPrecision;image-rendering:optimizeQuality;fill-rule:evenodd;clip-rule:evenodd"><path fill="#0c514a" d="M15 0h77q20 2 25 23v52q0 8-5 15 5 6 5 15v53q-3 16-19 21H10q-9-3-10-11v-7q2-9 11-12h75l-2-42-52-2q-15-8-9-23 3-5 8-7l53-2 1-3 1-38-75-1Q2 28 0 20v-7Q3 1 15 0M166 0h66q20 2 25 23v135q-3 14-16 20a458 458 0 0 1-84 0q-14-6-17-20V23q5-21 26-23m6 32h54v117h-54z" style="opacity:1"/><path fill="#0d3553" d="M1687 17q39-1 54 36 9 32-17 54l-21 11-236 405q10 39-23 60-41 18-68-16-21-40 13-69 9-6 20-9l236-405q-12-47 32-65zm29 37 2 3q6 27-19 37-34 1-33-32 8-24 33-21 10 3 17 13m-303 458q24-3 32 20 3 33-31 33-24-7-22-31 4-18 21-22" style="opacity:1"/><path fill="#12534d" d="M1893 17q51-1 57 51-3 37-39 49l-238 406q11 42-27 62-37 13-62-16-24-42 13-72l19-8 236-405q-12-44 29-64zm0 24q24-3 32 20 4 26-20 33-27 3-33-22-1-24 21-31m-274 471q33-2 33 31-10 31-40 19-21-16-9-39 6-8 16-11" style="opacity:1"/><path fill="#063251" d="M332 50q9-1 14 8 3 11 3 24l25 53 24-53 1-16q3-21 22-15 6 3 8 12v24l-57 126q-3 6-10 8h-33q-15-5-11-19 3-8 11-10l19-1 14-21-10-6-33-74q-3-16 0-31 4-9 13-9M500 50q17-1 33 1 14 6 26 18 6 7 8 17v36q-2 9-10 11l-70 1v4q3 5 9 8l64 3q10 6 7 19-3 7-10 9h-70q-17-8-28-23l-3-9q-2-33 1-64 11-21 33-30zm1 31q14-1 27 1l8 8 1 14h-50V90q6-7 14-9M632 50q21-1 44 1 23 6 27 30 3 42 2 86-5 14-19 10-7-2-10-7l-13 7h-41q-22-6-28-27v-28q6-21 28-27h51l-1-10q0-2-2-3l-44-2q-18-7-9-24 6-6 15-6m2 75q18-1 38 1l2 7-1 5q-10 4-18 9-15 1-28-1-2-4-2-9-4-13 9-12M746 50q15 1 17 17 25-26 61-14 20 10 20 34 0 26-24 17-8-9-8-20-10-7-21 0l-28 24-2 60q-3 10-14 10-12-1-15-12V63q2-12 14-13M905 50q26-1 51 1 13 4 22 17 5 15-10 21-11 2-17-6l-6-2q-21-2-41 1l62 29q21 17 14 44-7 19-27 22h-57q-17-4-26-18-2-20 19-20l12 7q23 3 47 0 5-4 0-9l-60-28q-24-18-11-44 10-13 28-15" style="opacity:1"/><path fill="#7a8d9e" d="M1716 54q2 0 2 3z" style="opacity:1"/><path fill="#083351" d="M1053 525h53l-1-364-68-2q-32-8-26-40 6-19 27-22a755 755 0 0 1 105 0q24 3 26 29l1 398q32-1 63 1 27 4 30 31-3 29-31 32h-191q-38-8-29-44 9-18 28-19z" style="opacity:1"/><path fill="#123856" d="m1272 183 2-3q12-19 36-23 43-3 55 41 6 41-32 57-48 12-66-32-6-22 5-40m41-3q26 0 30 27-3 24-27 28-30-5-27-34 6-18 24-21" style="opacity:1"/><path fill="#c3d0d5" d="m1105 161 1 364h-53q25-2 52-1z" style="opacity:1"/><path fill="#778d9c" d="m1274 180-2 3q-1-3 2-3" style="opacity:1"/><path fill="#0b3453" d="M352 242q-1 2 2 3 10 22-7 40l-14 6-133 2q-18 2-31 12l-48 40q-10 7-13 19v90q3 11 13 18l48 40q9 8 23 11l124 1q21-1 36 14 14 24-6 44-9 5-19 6-77 2-152-1-18-3-31-12a418 418 0 0 1-51-41q-19-14-34-31-12-17-15-38a880 880 0 0 1 0-112q5-35 32-56l62-51q32-22 72-18 58-2 118 1 14 1 24 13" style="opacity:1"/><path fill="#0a3452" d="m639 461 2-1 1-198q-1-13 7-22l2-3q2-4 7-6 17-6 33 1 4 3 7 8-1 2 2 3 5 9 5 20v295q-4 36-40 30-16-5-21-20l-3-34-61 40q-18 11-36 14h-69q-43-8-66-43-11-24-11-48l-7-221q-1-14 2-26 2-7 7-12l5-4q3-4 9-5 19-5 33 10 9 16 8 37l7 202q0 17 6 33 10 11 25 12 22 2 46-1z" style="opacity:1"/><path fill="#0b3453" d="M799 248q-1 3 2 7l1 7v35l3-1q33-31 70-57 15-10 34-11h52q61 3 85 59 10 30 4 63-9 27-37 21-21-5-24-25l-4-34q-6-16-23-18l-38-1q-13 2-24 9l-96 80-3 181q-7 31-39 25-14-3-20-15-3-9-4-18V264q3-43 45-34 11 5 16 18" style="opacity:1"/><path fill="#556f83" d="m405 234-5 4q1-4 5-4" style="opacity:1"/><path fill="#718999" d="m651 237-2 3q-1-3 2-3" style="opacity:1"/><path fill="#7990a0" d="M698 240q2 0 2 3-3-1-2-3" style="opacity:1"/><path fill="#758d9d" d="M352 242q2 0 2 3-3-1-2-3" style="opacity:1"/><path fill="#617a8d" d="m799 248 2 7q-3-4-2-7" style="opacity:1"/><path fill="#6b8798" d="m802 262 3 34-3 1z" style="opacity:1"/><path fill="#5e7e90" d="M642 262" style="opacity:1"/><path fill="#133856" d="M1311 333q49 0 56 51-6 45-51 51-38-3-50-39-6-52 45-63m26 68-5 5q-28 13-42-13-6-27 19-36 34-3 33 32z" style="opacity:1"/><path fill="#637c8e" d="m1337 401-5 5z" style="opacity:1"/><path fill="#758c9e" d="M93 534q2-1 3 2-3 0-3-2" style="opacity:1"/><path fill="#788d9f" d="M99 539q2-1 3 2-3 0-3-2" style="opacity:1"/><path fill="#063251" d="M789 800h-98q-17-12-5-28l6-3h32V652l-35-2q-14-10-5-24 5-6 12-6h60v149h11v-44q6-15 22-11 8 3 9 12v62q-1 8-9 12M933 800h-21q-17-10-8-26 3-4 7-5l1-61-75-1q-8-3-11-11v-63q3-12 15-13h88q11 1 14 13v155q-3 8-10 12m-75-148h54v24h-54zM1078 800h-21q-17-10-8-26 3-4 7-5l1-61-75-1q-8-3-11-11v-63q3-12 15-13h88q11 1 14 13v155q-3 8-10 12m-75-148h54v24h-54zM1222 800h-94q-10-4-12-13V633q1-12 14-13 9-1 19 1 15 9 6 26l-6 5q-2 30-1 61h69q14 0 16 15v59q-2 9-11 13m-74-55h54v24h-54zM1514 800h-108v-82q4-23 28-24h58v-42l-75-1q-13-5-11-18 3-12 15-13 41-2 83 1 14 5 18 18 3 31 1 64-3 17-20 22l-65 1v43q39-1 78 1 11 8 6 22zM1649 800h-78q-17-6-20-22V643q5-21 26-23h66q20 2 25 23v135q-3 16-19 22m-66-148h54v117h-54zM1804 800h-108v-82q4-23 28-24h58v-42l-75-1q-13-5-11-18 3-12 15-13 41-2 83 1 14 5 18 18 3 31 1 64-3 17-20 22l-65 1v43q39-1 78 1 11 8 6 22zM1959 728v59q-3 9-12 13h-94q-10-4-12-13V633q1-12 14-13 9-1 19 1 15 9 6 26l-6 5q-2 30-1 61 38-1 75 1 9 3 11 14m-86 17h54v24h-54zM1293 692q30-1 60 1 10 5 11 18-1 12-13 17-33 2-65-1-11-5-10-17 0-16 17-18" style="opacity:1"/></svg>