<svg xmlns="http://www.w3.org/2000/svg" shape-rendering="geometricPrecision" text-rendering="geometricPrecision" image-rendering="optimizeQuality" fill-rule="evenodd" clip-rule="evenodd" viewBox="0 0 1970 656"><path fill="#093754" d="M1662.5 28.5c26.1-1.2079 44.27 10.1254 54.5 34 6.76 31.6588-5.08 52.825-35.5 63.5-80.08 135.75-159.75 271.75-239 408 7.26 27.136-1.4 47.47-26 61-25.05 9.03-45.89 3.197-62.5-17.5-13.81-24.958-10.31-47.125 10.5-66.5 6.68-4.841 14.02-8.341 22-10.5 79.1-135.098 157.77-270.431 236-406-7.6-34.8119 5.73-56.8119 40-66Zm2 22c24.41.5747 34.91 12.908 31.5 37-9.9 19.102-24.4 23.602-43.5 13.5-12.32-11.6877-14.15-24.8544-5.5-39.5 4.74-5.6125 10.58-9.2792 17.5-11Zm-274 471c19.62-.709 30.62 8.624 33 28-1.62 16.958-10.96 26.291-28 28-19.05-2.216-28.22-12.883-27.5-32 2.61-12.768 10.11-20.768 22.5-24Z"/><path fill="#0f564d" d="M1868.5 28.5c27.4-1.3956 45.9 10.6044 55.5 36 5.57 31.2014-6.6 51.868-36.5 62-79.37 134.87-158.53 269.87-237.5 405 5.87 21.338 1.04 39.838-14.5 55.5-26.67 18.667-51.17 16.167-73.5-7.5-11.87-18.593-12.53-37.593-2-57 8.27-11.311 19.27-18.645 33-22 78.45-135.413 157.29-270.579 236.5-405.5-7.59-23.4964-1.59-42.8297 18-58 6.65-3.9341 13.65-6.7674 21-8.5Zm2 22c16.33-1.421 27.17 5.579 32.5 21 2.65 18.2053-4.85 29.705-22.5 34.5-19.25.71-30.25-8.4568-33-27.5 1.57-14.5246 9.23-23.8579 23-28Zm-274 471c19.96-1.033 31.29 8.301 34 28-3.58 21.082-15.91 29.915-37 26.5-14.88-6.251-21.05-17.418-18.5-33.5 3.78-10.62 10.95-17.62 21.5-21Z"/><path fill="#093754" d="M1021.5 107.5c33.03-.441 66.03.059 99 1.5 12.51 1.516 20.35 8.349 23.5 20.5 1.08 7.291 1.75 14.624 2 22 .5 128 .67 256 .5 384 18.34-.167 36.67 0 55 .5 27.79.445 39.63 14.279 35.5 41.5-4.84 12.492-14.01 19.325-27.5 20.5a2507.219 2507.219 0 0 1-96.5 1.5c-32.19.119-64.35-.381-96.5-1.5-23.079-4.076-32.246-17.576-27.5-40.5 3.342-10.674 10.509-17.174 21.5-19.5 4.62-.958 9.29-1.625 14-2 19.33-.5 38.66-.667 58-.5v-365c-21.34.167-42.67 0-64-.5-24.106-3.106-33.939-16.606-29.5-40.5 2.739-9.073 8.573-15.24 17.5-18.5 5.09-1.38 10.09-2.546 15-3.5Zm270 60c27.95 2.446 44.78 17.446 50.5 45 1.07 28.583-12.1 46.749-39.5 54.5-31.91 3.305-51.75-10.528-59.5-41.5-2.23-21.364 5.6-37.864 23.5-49.5 8.08-3.928 16.42-6.761 25-8.5Zm-6 23c20.37-1.785 32.04 7.382 35 27.5-2.94 20.27-14.61 29.27-35 27-15.54-5.234-22.37-16.068-20.5-32.5 2.6-11.429 9.43-18.763 20.5-22Zm-1113 49c41.001-.167 82.001 0 123 .5 34.248 2.022 45.081 18.855 32.5 50.5-6.09 6.482-13.59 10.315-22.5 11.5a5069.6573 5069.6573 0 0 1-136 2c-9.936 2.469-18.936 6.802-27 13-14.374 12.709-29.04 25.043-44 37-4.9146 4.244-9.0813 9.077-12.5 14.5a43.3614 43.3614 0 0 0-2 8 1849.1576 1849.1576 0 0 0 0 86c1.561 8.944 6.061 16.11 13.5 21.5a1341.8013 1341.8013 0 0 0 54 44c4.435 2.551 9.101 4.551 14 6a4495.775 4495.775 0 0 0 132 2c11.932.083 22.099 4.25 30.5 12.5 7.333 12.667 7.333 25.333 0 38-6.04 6.604-13.54 10.437-22.5 11.5a1851.9903 1851.9903 0 0 1-148 0c-14.617-1.644-27.95-6.644-40-15-25.4187-20.081-50.252-40.914-74.5-62.5-13.6274-14.937-20.9607-32.604-22-53l-.5-48a896.5176 896.5176 0 0 1 1.5-57c3.366-20.566 12.866-37.732 28.5-51.5 22.3333-18.333 44.6667-36.667 67-55 16.695-11.253 35.028-16.753 55-16.5Zm224 0c16.05-1.073 26.55 5.927 31.5 21 1.769 7.224 2.769 14.557 3 22 2.287 67.668 4.621 135.335 7 203 .195 11.562 1.862 22.896 5 34 2.562 5.561 6.728 9.394 12.5 11.5a83.0187 83.0187 0 0 0 15 4c13.333.667 26.667.667 40 0a54.628 54.628 0 0 0 7-2 7681.5522 7681.5522 0 0 0 100-62.5c.833-66.664 1.333-133.331 1.5-200 3.073-24.066 16.573-33.899 40.5-29.5 14.429 5.311 21.596 15.811 21.5 31.5.667 99.333.667 198.667 0 298-1.891 18.391-12.057 28.058-30.5 29-16.126-.308-25.959-8.308-29.5-24a452.6134 452.6134 0 0 1-3-32 1995.7918 1995.7918 0 0 1-61.5 40.5c-13.532 8.438-28.199 13.438-44 15-17.333.667-34.667.667-52 0-31.486-2.822-55.986-17.322-73.5-43.5-7.222-14.104-10.889-29.104-11-45-2.711-74.159-5.211-148.326-7.5-222.5-1.226-12.815.941-24.982 6.5-36.5 5.388-7.275 12.555-11.275 21.5-12Z"/><path fill="#093754" d="M743.5 239.5c21.225.055 32.725 10.722 34.5 32 .167 12.347.667 24.68 1.5 37a4224.5085 4224.5085 0 0 0 60-49.5c12.722-9.858 27.055-16.192 43-19 19.667-.667 39.333-.667 59 0 42.259 3.914 70.09 26.081 83.5 66.5 4.98 20.131 4.65 40.131-1 60-3.71 7.378-9.55 12.212-17.5 14.5-22.89 3.77-36.39-5.73-40.5-28.5-.247-8.703-.914-17.37-2-26-3.318-13.984-12.151-21.484-26.5-22.5a484.0082 484.0082 0 0 0-44 0c-6.049 1.858-11.716 4.525-17 8a8742.4826 8742.4826 0 0 1-97 80c-.525 60.79-1.358 121.623-2.5 182.5-3.543 15.706-13.376 24.04-29.5 25-20.154-1.656-30.654-12.656-31.5-33-.667-98-.667-196 0-294 .276-8.828 2.943-16.828 8-24 5.528-5.351 12.028-8.351 19.5-9Zm544 105c32.88.545 51.22 17.212 55 50-2.99 30.324-19.66 46.991-50 50-30.62-3.119-47.29-19.952-50-50.5.41-17.831 8.08-31.498 23-41 7.1-3.751 14.44-6.584 22-8.5Zm-1 22c19.88-1.279 31.21 7.887 34 27.5-1.43 17.261-10.76 26.761-28 28.5-19.85-2.69-29.01-14.023-27.5-34 3.36-11.191 10.53-18.524 21.5-22Z"/></svg>