<?xml version="1.0" encoding="UTF-8" standalone="no"?>
<svg
   width="164px"
   height="138px"
   viewBox="0 0 164 138"
   version="1.1"
   id="svg4"
   sodipodi:docname="curl-symbol-raw.svg"
   inkscape:version="1.4.3 (0d15f75, 2025-12-25)"
   xmlns:inkscape="http://www.inkscape.org/namespaces/inkscape"
   xmlns:sodipodi="http://sodipodi.sourceforge.net/DTD/sodipodi-0.dtd"
   xmlns="http://www.w3.org/2000/svg"
   xmlns:svg="http://www.w3.org/2000/svg">
  <sodipodi:namedview
     id="namedview4"
     pagecolor="#505050"
     bordercolor="#ffffff"
     borderopacity="1"
     inkscape:showpageshadow="0"
     inkscape:pageopacity="0"
     inkscape:pagecheckerboard="1"
     inkscape:deskcolor="#d1d1d1"
     inkscape:zoom="3.0260967"
     inkscape:cx="96.659173"
     inkscape:cy="64.935136"
     inkscape:window-width="1705"
     inkscape:window-height="830"
     inkscape:window-x="0"
     inkscape:window-y="32"
     inkscape:window-maximized="0"
     inkscape:current-layer="svg4" />
  <defs
     id="defs1" />
  <g
     id="curl"
     stroke="none"
     stroke-width="1"
     fill="none"
     fill-rule="evenodd">
    <g
       id="curl-logo-2026"
       transform="translate(-311.000000, -18.000000)">
      <g
         id="logo-full"
         transform="translate(17.500000, 13.500000)">
        <g
           id="symbol"
           transform="translate(293.500000, 0.500000)">
          <g
             id="slashes"
             transform="translate(20.000000, 0.000000)">
            <g
               id="slash-2"
               transform="translate(99.142305, 73.116969) rotate(30.000000) translate(-99.142305, -73.116969) translate(87.142305, -4.383031)"
               fill="#0C544C">
              <rect
                 id="slash"
                 x="4"
                 y="20"
                 width="16"
                 height="115" />
              <path
                 d="M12,155 C5.372583,155 0,149.627417 0,143 C0,136.372583 5.372583,131 12,131 C18.627417,131 24,136.372583 24,143 C24,149.627417 18.627417,155 12,155 Z M12,149.5 C15.5898509,149.5 18.5,146.589851 18.5,143 C18.5,139.410149 15.5898509,136.5 12,136.5 C8.41014913,136.5 5.5,139.410149 5.5,143 C5.5,146.589851 8.41014913,149.5 12,149.5 Z"
                 id="bottom"
                 fill-rule="nonzero" />
              <path
                 d="M12,24 C5.372583,24 0,18.627417 0,12 C0,5.372583 5.372583,0 12,0 C18.627417,0 24,5.372583 24,12 C24,18.627417 18.627417,24 12,24 Z M12,18.5 C15.5898509,18.5 18.5,15.5898509 18.5,12 C18.5,8.41014913 15.5898509,5.5 12,5.5 C8.41014913,5.5 5.5,8.41014913 5.5,12 C5.5,15.5898509 8.41014913,18.5 12,18.5 Z"
                 id="top"
                 fill-rule="nonzero" />
            </g>
            <g
               id="slash-1"
               transform="translate(49.142305, 73.116969) rotate(30.000000) translate(-49.142305, -73.116969) translate(37.142305, -4.383031)"
               fill="#073551">
              <rect
                 id="rect1"
                 x="4"
                 y="20"
                 width="16"
                 height="115"
                 inkscape:label="slash" />
              <path
                 d="M12,155 C5.372583,155 0,149.627417 0,143 C0,136.372583 5.372583,131 12,131 C18.627417,131 24,136.372583 24,143 C24,149.627417 18.627417,155 12,155 Z M12,149.5 C15.5898509,149.5 18.5,146.589851 18.5,143 C18.5,139.410149 15.5898509,136.5 12,136.5 C8.41014913,136.5 5.5,139.410149 5.5,143 C5.5,146.589851 8.41014913,149.5 12,149.5 Z"
                 id="path1"
                 fill-rule="nonzero"
                 inkscape:label="bottom" />
              <path
                 d="M12,24 C5.372583,24 0,18.627417 0,12 C0,5.372583 5.372583,0 12,0 C18.627417,0 24,5.372583 24,12 C24,18.627417 18.627417,24 12,24 Z M12,18.5 C15.5898509,18.5 18.5,15.5898509 18.5,12 C18.5,8.41014913 15.5898509,5.5 12,5.5 C8.41014913,5.5 5.5,8.41014913 5.5,12 C5.5,15.5898509 8.41014913,18.5 12,18.5 Z"
                 id="path2"
                 fill-rule="nonzero"
                 inkscape:label="top" />
            </g>
          </g>
          <g
             id="dots"
             transform="translate(0.000000, 37.500000)"
             fill-rule="nonzero"
             fill="#073551">
            <path
               d="M12,66.5 C5.372583,66.5 0,61.127417 0,54.5 C0,47.872583 5.372583,42.5 12,42.5 C18.627417,42.5 24,47.872583 24,54.5 C24,61.127417 18.627417,66.5 12,66.5 Z M12,61 C15.5898509,61 18.5,58.0898509 18.5,54.5 C18.5,50.9101491 15.5898509,48 12,48 C8.41014913,48 5.5,50.9101491 5.5,54.5 C5.5,58.0898509 8.41014913,61 12,61 Z"
               id="path3"
               inkscape:label="bottom" />
            <path
               d="M12,24.5 C5.372583,24.5 0,19.127417 0,12.5 C0,5.872583 5.372583,0.5 12,0.5 C18.627417,0.5 24,5.872583 24,12.5 C24,19.127417 18.627417,24.5 12,24.5 Z M12,19 C15.5898509,19 18.5,16.0898509 18.5,12.5 C18.5,8.91014913 15.5898509,6 12,6 C8.41014913,6 5.5,8.91014913 5.5,12.5 C5.5,16.0898509 8.41014913,19 12,19 Z"
               id="path4"
               inkscape:label="top" />
          </g>
        </g>
      </g>
    </g>
  </g>
</svg>
