<?xml version="1.0" encoding="UTF-8" standalone="no"?>
<!-- Created with Inkscape (http://www.inkscape.org/) -->

<svg
   id="svg2"
   version="1.1"
   inkscape:version="1.4.3 (0d15f75, 2025-12-25)"
   xml:space="preserve"
   width="579.0415"
   height="159.31786"
   viewBox="0 0 579.0415 159.31786"
   sodipodi:docname="curl-up.svg"
   xmlns:inkscape="http://www.inkscape.org/namespaces/inkscape"
   xmlns:sodipodi="http://sodipodi.sourceforge.net/DTD/sodipodi-0.dtd"
   xmlns="http://www.w3.org/2000/svg"
   xmlns:svg="http://www.w3.org/2000/svg"
   xmlns:rdf="http://www.w3.org/1999/02/22-rdf-syntax-ns#"
   xmlns:cc="http://creativecommons.org/ns#"
   xmlns:dc="http://purl.org/dc/elements/1.1/"><metadata
     id="metadata8"><rdf:RDF><cc:Work
         rdf:about=""><dc:format>image/svg+xml</dc:format><dc:type
           rdf:resource="http://purl.org/dc/dcmitype/StillImage" /></cc:Work></rdf:RDF></metadata><defs
     id="defs6"><clipPath
       clipPathUnits="userSpaceOnUse"
       id="clipPath16"><path
         d="M 0,500 500,500 500,0 0,0 0,500 Z"
         id="path18"
         inkscape:connector-curvature="0" /></clipPath></defs><sodipodi:namedview
     pagecolor="#ffffff"
     bordercolor="#666666"
     borderopacity="1"
     objecttolerance="10"
     gridtolerance="10"
     guidetolerance="10"
     inkscape:pageopacity="0"
     inkscape:pageshadow="2"
     inkscape:window-width="1673"
     inkscape:window-height="970"
     id="namedview4"
     showgrid="false"
     inkscape:zoom="1.2284221"
     inkscape:cx="306.08372"
     inkscape:cy="-12.617813"
     inkscape:window-x="0"
     inkscape:window-y="32"
     inkscape:window-maximized="0"
     inkscape:current-layer="g10"
     fit-margin-top="0"
     fit-margin-left="0"
     fit-margin-right="0"
     fit-margin-bottom="0"
     inkscape:pagecheckerboard="1"
     inkscape:showpageshadow="0"
     inkscape:deskcolor="#d1d1d1" /><g
     id="g10"
     inkscape:groupmode="layer"
     inkscape:label="curl-logo"
     transform="matrix(1.25,0,0,-1.25,-107.76406,394.93275)"
     style="display:inline">
<g
   aria-label="up"
   transform="scale(1,-1)"
   id="text36-6"
   style="line-height:0%;font-family:'OCR A Std';-inkscape-font-specification:OCRAStd;display:inline;fill:#073551;fill-opacity:1"
   inkscape:label="up"><path
     d="m 485.80028,-269.9026 c 0,-3.96832 -0.84177,-7.93663 -5.7721,-7.93663 -4.93033,0 -5.7721,3.96831 -5.7721,7.93663 v 33.55031 l -16.95553,10.70242 c -1.08227,0.72152 -2.28479,1.08227 -3.60756,1.08227 h -3.84806 c -2.7658,0 -5.7721,-0.72151 -6.73411,-2.40504 -0.96202,-1.68353 -1.08227,-4.81008 -1.20252,-7.45562 l -1.20252,-35.47434 c -0.12026,-3.72781 -0.72152,-7.93663 -5.65185,-7.93663 -5.29109,0 -5.89235,4.44932 -5.77209,8.65814 l 1.20252,36.3161 c 0.2405,6.25311 0.12025,11.18344 5.29108,15.63276 3.84807,3.24681 7.45563,4.20882 10.70243,4.20882 h 8.53789 c 3.12656,0 6.25311,-1.44302 9.98092,-3.84806 l 9.37966,-6.13285 v 1.92403 c 0,3.96832 0.84176,8.05688 5.77209,8.05688 6.13285,0 5.65185,-5.89234 5.65185,-8.53789 z"
     style="font-size:120.252px;line-height:1.25;fill:#073551;fill-opacity:1"
     id="path952" /><path
     d="m 548.33149,-250.42178 c 0,-8.17713 -0.60126,-11.42394 -7.33537,-16.71503 l -6.97461,-5.41134 c -3.12656,-2.40504 -6.85437,-5.29108 -9.62016,-5.29108 h -7.93664 c -3.2468,0 -7.81638,4.32907 -10.82268,6.97461 l -2.28478,2.04429 v -1.44303 c 0,-3.84806 -1.08227,-7.57587 -5.7721,-7.57587 -5.29109,0 -5.77209,4.44932 -5.77209,8.53789 v 72.87271 c 0,3.96831 0.84176,7.93663 5.77209,7.93663 4.93033,0 5.7721,-3.96832 5.7721,-7.93663 v -23.20864 l 2.28478,2.16454 c 3.72782,3.48731 6.13286,6.85436 11.30369,6.85436 h 7.81638 c 3.12655,0 6.85437,-3.2468 9.25941,-5.17083 l 6.97461,-5.53159 c 6.73411,-5.29109 7.33537,-8.41764 7.33537,-16.71503 z m -11.54419,13.94923 c 0,2.16454 -0.60126,3.48731 -2.40504,5.05059 l -8.65814,7.21512 c -1.08227,0.96201 -2.40504,2.04428 -3.96832,2.04428 h -3.0063 c -1.44302,0 -3.2468,-1.56327 -4.93033,-3.2468 l -8.7784,-8.29739 c -1.20252,-1.08227 -1.68352,-3.2468 -1.68352,-4.93033 v -11.30369 c 0,-2.52529 0.84176,-3.84806 3.2468,-6.13285 l 7.21512,-6.85437 c 1.20252,-1.20252 3.2468,-3.36705 4.93033,-3.36705 h 3.0063 c 1.56328,0 2.88605,1.08227 3.96832,2.04428 l 8.65814,7.21512 c 1.80378,1.56328 2.40504,2.88605 2.40504,5.05059 z"
     style="font-size:120.252px;line-height:1.25;fill:#073551;fill-opacity:1"
     id="path954" /></g>
<g
   id="g1"
   style="display:inline"
   transform="matrix(1.000254,0,0,1.000254,-0.5019817,-0.46574508)"
   inkscape:label="logo"><path
     fill="#0c544c"
     d="m 420.8979,315.82724 a 9.0042396,9.0042396 0 0 1 -8.04003,-4.50062 8.981729,8.981729 0 0 1 -0.75636,-7.31294 l -42.43698,-73.50236 a 8.981729,8.981729 0 0 1 -5.9548,-4.31153 c -2.48667,-4.30628 -1.01073,-9.81312 3.2963,-12.29979 4.30703,-2.48667 9.81462,-1.01148 12.29979,3.29555 a 8.981729,8.981729 0 0 1 0.75636,7.31294 v 0.002 l 42.43623,73.50086 a 8.981729,8.981729 0 0 1 5.95555,4.31153 c 2.48592,4.30702 1.01073,9.81387 -3.29555,12.30054 a 8.966722,8.966722 0 0 1 -4.26051,1.20432 m -0.34591,-4.14271 a 4.8772965,4.8772965 0 0 0 2.54295,-0.63629 4.8772965,4.8772965 0 1 0 -4.8773,-8.44673 4.8772965,4.8772965 0 0 0 2.3336,9.08302 M 371.3956,226.57384 a 4.8772965,4.8772965 0 0 0 2.55045,-0.65206 4.8772965,4.8772965 0 0 0 -4.8773,-8.44747 4.8772965,4.8772965 0 0 0 2.32685,9.09953"
     id="path1"
     style="display:inline;stroke-width:0.750353" /><path
     fill="#073551"
     d="m 383.38024,315.82724 a 9.0042396,9.0042396 0 0 1 -8.04004,-4.50062 8.981729,8.981729 0 0 1 -0.75635,-7.31294 l -42.43698,-73.50236 a 8.981729,8.981729 0 0 1 -5.95481,-4.31153 c -2.48667,-4.30628 -1.01072,-9.81312 3.2963,-12.29979 4.30703,-2.48667 9.81462,-1.01148 12.2998,3.29555 a 8.981729,8.981729 0 0 1 0.75635,7.31294 v 0.002 l 42.43623,73.50086 a 8.981729,8.981729 0 0 1 5.95556,4.31153 c 2.48592,4.30702 1.01072,9.81387 -3.29556,12.30054 a 8.966722,8.966722 0 0 1 -4.2605,1.20432 m -0.34591,-4.14271 a 4.8772965,4.8772965 0 0 0 2.54294,-0.63629 4.8772965,4.8772965 0 1 0 -4.87729,-8.44673 4.8772965,4.8772965 0 0 0 2.3336,9.08302 M 269.1427,302.38879 c -3.86507,0 -7.95074,-0.84715 -7.95074,-5.78898 0,-5.08289 4.56965,-5.80473 7.95074,-5.80473 h 9.15431 v -65.80073 h -9.15431 c -3.86582,0 -7.95074,-0.8479 -7.95074,-5.80549 0,-5.06788 4.56965,-5.78822 7.95074,-5.78822 h 29.37333 c 3.38034,0 7.95074,0.72034 7.95074,5.78822 0,4.95759 -4.08492,5.80549 -7.95074,5.80549 h -8.67033 v 69.29888 c 0,6.88824 -1.92316,8.09631 -8.54352,8.09631 z m 46.54442,-11.7768 c -4.9726,0 -9.00424,-4.03165 -9.00424,-9.00424 0,-4.97259 4.03164,-9.00424 9.00424,-9.00424 4.97259,0 9.00424,4.03165 9.00424,9.00424 0,4.97259 -4.03165,9.00424 -9.00424,9.00424 m 0,-4.12694 a 4.8772965,4.8772965 0 0 0 0,-9.75459 4.8772965,4.8772965 0 0 0 0,9.75459 m -198.55175,-8.00627 c -6.74568,0 -9.51448,-0.12531 -14.92978,-4.58091 l -8.545021,-7.1231 C 88.11996,262.1781 86.789584,258.67846 86.789584,251.5561 v -11.23204 c 0,-7.1231 1.331127,-10.62125 6.870985,-15.2029 l 8.545021,-7.13886 c 5.41455,-4.4556 8.18485,-4.58091 14.92978,-4.58091 H 135.444 c 3.84931,0 7.95074,0.8464 7.95074,5.78822 0,5.0829 -4.56965,5.80549 -7.95074,5.80549 h -20.34284 c -2.30058,0 -4.58541,1.20807 -6.63612,2.90311 l -6.98054,5.91504 c -1.815105,1.44368 -3.12897,2.65175 -3.12897,4.94183 v 14.36926 c 0,2.29083 1.313865,3.4989 3.12897,4.95759 l 6.98054,5.91503 c 2.04996,1.67854 4.33554,2.88736 6.63612,2.88736 H 135.444 c 3.38034,0 7.95074,0.73685 7.95074,5.80473 0,4.94183 -4.10068,5.78898 -7.95074,5.78898 z m 38.05793,0 c -5.28924,0 -5.89928,-4.47211 -5.77397,-8.69209 l 1.20507,-36.46117 c 0.23486,-6.27596 0.12531,-11.23279 5.30499,-15.70489 3.84932,-3.24678 7.46527,-4.21999 10.7203,-4.21999 h 8.54578 c 3.12897,0 6.25794,1.44218 9.9992,3.85831 l 9.38917,6.16716 v -1.92991 c 0,-3.98438 0.8449,-8.09631 5.77472,-8.09631 6.15065,0 5.66517,5.91503 5.66517,8.56678 v 48.54111 c 0,3.98512 -0.84565,7.971 -5.77547,7.971 -4.94483,0 -5.79048,-3.98513 -5.79048,-7.971 v -33.68336 l -16.97749,-10.74731 q -1.62076,-1.08276 -3.61595,-1.08276 h -3.84931 c -2.77106,0 -5.77622,0.72184 -6.74568,2.41613 -0.97096,1.67854 -1.08051,4.83228 -1.20507,7.48328 l -1.20506,35.61402 c -0.12456,3.75026 -0.72034,7.971 -5.66517,7.971 m 62.62974,0 c -5.28999,0 -5.77397,-4.34605 -5.77397,-8.56603 v -48.54261 c 0,-3.98438 0.84415,-7.9695 5.77397,-7.9695 4.94482,0 5.79047,3.98437 5.79047,7.96875 v 29.33881 l 16.1356,13.39981 c 2.04997,1.69505 3.61445,2.77631 5.77397,2.77631 h 3.37959 c 2.76955,0 5.54061,0 6.98054,-2.05597 1.20506,-1.67779 1.20431,-3.13647 1.20431,-5.06563 0,-3.73451 1.6913,-7.12386 5.90078,-7.12386 4.94483,0 5.66367,4.11044 5.66367,8.09557 0,5.30274 -1.32963,9.28787 -5.17894,13.16344 -3.12897,3.13798 -6.85448,4.58091 -11.31533,4.58091 h -9.27962 c -3.6152,0 -6.98053,-2.29083 -10.23482,-4.94183 l -9.02975,-7.50053 v 4.72348 c 0,3.85981 -1.20581,7.71888 -5.79047,7.71888 m 97.86333,-19.38163 c -4.9726,0 -9.00424,-4.03164 -9.00424,-9.00424 0,-4.97259 4.03164,-9.00424 9.00424,-9.00424 4.97259,0 9.00424,4.03165 9.00424,9.00424 0,4.9726 -4.03165,9.00424 -9.00424,9.00424 m 0,-4.12694 a 4.8772965,4.8772965 0 0 0 0,-9.75459 4.8772965,4.8772965 0 0 0 0,9.75459 m 18.19156,-28.39637 a 4.8772965,4.8772965 0 0 0 2.55045,-0.65206 4.8772965,4.8772965 0 0 0 -4.87729,-8.44747 4.8772965,4.8772965 0 0 0 2.32684,9.09953"
     id="path2"
     style="display:inline;stroke-width:0.750353" /></g></g></svg>
