<?xml version="1.0" encoding="utf-8"?>
<svg version="1.1" id="Layer_1" xmlns="http://www.w3.org/2000/svg" xmlns:xlink="http://www.w3.org/1999/xlink" x="0px" y="0px"
	 viewBox="0 0 587.8 203.2" style="enable-background:new 0 0 587.8 203.2;" xml:space="preserve">
<style type="text/css">
	.st0{fill:#080786;}
</style>
<g>
	<path class="st0" d="M241.8,203.2c-22.6,0-48.1-1.9-65.5-15.7c-8.8-7-14.4-13.1-17.7-17.2c-7.1,10.6-27.2,31.4-76.1,31.4
		c-29.8,0-51.9-8.4-65.6-24.9C5.7,163.4,0,144.6,0,120.8c0-20.7,8.5-39.3,24-52.5c15.7-13.4,37-20.5,61.7-20.5
		c30.5,0,49,9.4,58.2,15.9V4c0-2.2,1.8-4,4-4h62.3c2.2,0,4,1.8,4,4v112.2c0,15.4,3,31.2,25.5,31.2c24.8,0,27.5-21.8,27.5-31.2V4
		c0-2.2,1.8-4,4-4h103.6c29.1,0,44.9,4.7,52.8,8.3V4c0-2.2,1.8-4,4-4h61.7c2.2,0,4,1.8,4,4v139h86.7c2.2,0,4,1.8,4,4v50.7
		c0,2.2-1.8,4-4,4H397.3c-1.5,0-2.8-0.8-3.5-2.1c-1.2-2.2-29-52.9-35.3-66.2c-3.5-7.4-12.3-9.6-17.4-10.2v74.4c0,2.2-1.8,4-4,4
		h-56.5c-1.5,0-3.5,0.1-6.3,0.3C268.1,202.5,258.7,203.2,241.8,203.2z M158.2,158.8c1.4,0,2.8,0.8,3.5,2c0,0.1,5.1,8.8,19.7,20.3
		c15.5,12.3,39.3,14,60.5,14c16.5,0,25.8-0.7,32-1.1c2.9-0.2,5-0.4,6.9-0.4h52.5V119c0-2.1,1.7-3.9,3.9-4c0,0,0.2,0,0.6,0
		c3.5,0,21.4,0.7,28.2,15c5.5,11.6,28.5,53.8,33.9,63.7h180.1V151h-86.7c-2.2,0-4-1.8-4-4V8h-53.7v7.3c0,1.6-0.9,3-2.4,3.7
		c-1.5,0.6-3.2,0.3-4.3-0.7c-0.1-0.1-12.3-10.3-54-10.3h-99.6v108.2c0,18.9-9.3,39.2-35.5,39.2c-33.5,0-33.5-29.5-33.5-39.2V8h-54.3
		v64.3c0,1.7-1,3.2-2.6,3.7c-1.6,0.6-3.3,0.1-4.4-1.1c-0.2-0.2-17.4-19.1-59.1-19.1C39.9,55.8,8,82.6,8,120.8c0,21.8,5,38.9,15,50.9
		c12.2,14.6,32.2,22,59.5,22c30.6,0,48.6-8.8,58.2-16.2c10.4-7.9,13.7-16,13.7-16.1c0.6-1.4,1.9-2.4,3.5-2.5
		C158,158.8,158.1,158.8,158.2,158.8z"/>
</g>
<g>
	<path class="st0" d="M87.7,161.8c-17.1,0-31-17.2-31-38.3c0-20.5,13-35.3,31-35.3c11.4,0,20.3,6.2,24.8,17.2l32.9-3.9
		c1.2-0.1,2.3,0.2,3.2,1c0.9,0.8,1.3,1.9,1.3,3.1c0,0.1-0.3,8.3,0,16.4c0.3,7.9,2.1,15.1,2.5,16.7c0.2,0.4,0.3,0.9,0.3,1.4
		c0,2.2-1.8,4-4,4c0,0,0,0,0,0c-0.1,0-0.2,0-0.3,0l-35.3-3C108.4,154.2,99.2,161.8,87.7,161.8z M87.7,96.2c-13.3,0-23,11.5-23,27.3
		c0,16.7,10.3,30.3,23,30.3c12.4,0,17.1-12.6,18.5-18c0.5-1.9,2.3-3.1,4.2-3l33.1,2.8c-0.7-3.5-1.4-8.3-1.6-13.4
		c-0.2-4.5-0.2-9.1-0.1-12.3l-31.5,3.7c-1.9,0.2-3.7-0.9-4.3-2.8C103,101.4,96.5,96.2,87.7,96.2z"/>
</g>
<g>
	<path class="st0" d="M365.7,84.2h-28.3c-2.2,0-4-1.8-4-4V44.3c0-2.2,1.8-4,4-4h30.3c11.9,0,23.8,6.8,23.8,21.9
		C391.5,77.3,378.1,84.2,365.7,84.2z M341.3,76.2h24.3c1.8,0,17.8-0.4,17.8-13.9c0-13.2-13.2-13.9-15.8-13.9h-26.3V76.2z"/>
</g>
<g>
	<path class="st0" d="M431.7,134.5c-1.2,0-2.4-0.5-3.1-1.5c-0.1-0.1-5.6-7.1-9.3-11.1c-2.8-3-9-6.6-11.2-7.7
		c-1.4-0.7-2.2-2.2-2.2-3.8c0.1-1.6,1.1-2.9,2.6-3.5c9.7-3.7,18.8-8.8,20.1-10.4c1-1.4,2.8-1.9,4.5-1.4c1.6,0.5,2.7,2.1,2.7,3.8
		v31.5c0,1.7-1.1,3.2-2.7,3.8C432.6,134.4,432.1,134.5,431.7,134.5z M418.7,111.3c2.3,1.5,4.7,3.4,6.4,5.2c0.8,0.9,1.7,1.9,2.6,2.9
		v-12.7C424.9,108.3,421.7,109.9,418.7,111.3z"/>
</g>
</svg>
