<svg xmlns="http://www.w3.org/2000/svg" viewBox="0 0 343 103">
 <path fill="#0f564d" d="M334.043.314a9 9 0 0 0-8.059 4.457 8.98 8.98 0 0 0-.795 7.305l-42.673 73.03a9.002 9.002 0 0 0-2.744 16.59 9 9 0 0 0 12.31-3.231 8.98 8.98 0 0 0 .795-7.305l42.674-73.03a8.98 8.98 0 0 0 5.974-4.278 9 9 0 0 0-3.23-12.311 8.96 8.96 0 0 0-4.252-1.227m-.13 4.123a4.877 4.877 0 0 1 4.053 7.334 4.876 4.876 0 1 1-4.054-7.334m-49.446 84.614a4.874 4.874 0 0 1 4.053 7.332 4.874 4.874 0 1 1-4.053-7.332"/>
 <path fill="#093754" d="M297.043.314a9 9 0 0 0-8.059 4.457 8.98 8.98 0 0 0-.795 7.305l-42.673 73.03a9.002 9.002 0 0 0-2.744 16.59 9 9 0 0 0 12.31-3.231 8.98 8.98 0 0 0 .795-7.305l42.674-73.03a8.98 8.98 0 0 0 5.974-4.278 9 9 0 0 0-3.23-12.311 8.96 8.96 0 0 0-4.252-1.227m-.13 4.124a4.877 4.877 0 0 1 4.053 7.334 4.876 4.876 0 1 1-4.054-7.334m-114.847 9.859c-3.859 0-7.937.844-7.937 5.765 0 5.063 4.562 5.782 7.937 5.782h9.141v65.531h-9.14c-3.86 0-7.938.844-7.938 5.781 0 5.047 4.562 5.766 7.937 5.766h29.329c3.375 0 7.937-.719 7.937-5.766 0-4.937-4.078-5.781-7.937-5.781h-8.657V22.359c0-6.859-1.922-8.062-8.531-8.062zM229 25a9 9 0 1 0 0 18 9 9 0 0 0 0-18m0 4.125a4.875 4.875 0 1 1 0 9.75 4.875 4.875 0 0 1 0-9.75M30.297 38.109c-6.734 0-9.5.125-14.906 4.563l-8.532 7.094C1.33 54.344 0 57.828 0 64.922v11.187c0 7.094 1.328 10.579 6.86 15.141l8.53 7.11c5.407 4.437 8.173 4.562 14.907 4.562h18.281c3.844 0 7.938-.844 7.938-5.766 0-5.062-4.563-5.781-7.938-5.781H28.266c-2.297 0-4.578-1.203-6.625-2.89l-6.97-5.891c-1.812-1.438-3.124-2.64-3.124-4.922V63.359c0-2.28 1.312-3.484 3.125-4.937l6.969-5.89c2.047-1.673 4.328-2.876 6.625-2.876h20.312c3.375 0 7.938-.734 7.938-5.781 0-4.922-4.094-5.766-7.938-5.766zm38 0c-5.281 0-5.89 4.453-5.766 8.657l1.203 36.312c.235 6.25.125 11.188 5.297 15.64 3.844 3.235 7.453 4.204 10.703 4.204h8.532c3.125 0 6.25-1.438 9.984-3.844l9.375-6.14v1.921c0 3.97.844 8.063 5.766 8.063 6.14 0 5.656-5.89 5.656-8.531V46.047c0-3.969-.844-7.938-5.766-7.938-4.937 0-5.781 3.97-5.781 7.938v33.547L90.547 90.297q-1.617 1.078-3.61 1.078h-3.843c-2.766 0-5.766-.719-6.735-2.406-.968-1.672-1.078-4.813-1.203-7.453l-1.203-35.47c-.125-3.733-.719-7.937-5.656-7.937m62.531 0c-5.281 0-5.765 4.328-5.765 8.532v48.343c0 3.97.843 7.938 5.765 7.938 4.938 0 5.781-3.969 5.781-7.938V65.766l16.11-13.344c2.047-1.688 3.61-2.766 5.765-2.766h3.375c2.766 0 5.532 0 6.97 2.047 1.202 1.672 1.202 3.125 1.202 5.047 0 3.719 1.688 7.094 5.89 7.094 4.938 0 5.657-4.094 5.657-8.063 0-5.281-1.328-9.25-5.172-13.11-3.125-3.124-6.844-4.562-11.297-4.562h-9.265c-3.61 0-6.969 2.282-10.219 4.922l-9.016 7.469v-4.703c0-3.844-1.203-7.688-5.78-7.688M229 57a9 9 0 1 0 0 18 9 9 0 0 0 0-18m0 4.125a4.875 4.875 0 1 1 0 9.75 4.875 4.875 0 0 1 0-9.75m18.467 27.926a4.874 4.874 0 0 1 4.053 7.332 4.874 4.874 0 1 1-4.053-7.332"/>
</svg>
