<?xml version="1.0" encoding="UTF-8" standalone="no"?>
<svg
   width="458px"
   height="138px"
   viewBox="0 0 458 138"
   version="1.1"
   id="svg4"
   sodipodi:docname="curl-logo-raw.svg"
   inkscape:version="1.4.3 (0d15f75, 2025-12-25)"
   xmlns:inkscape="http://www.inkscape.org/namespaces/inkscape"
   xmlns:sodipodi="http://sodipodi.sourceforge.net/DTD/sodipodi-0.dtd"
   xmlns="http://www.w3.org/2000/svg"
   xmlns:svg="http://www.w3.org/2000/svg">
  <sodipodi:namedview
     id="namedview4"
     pagecolor="#505050"
     bordercolor="#ffffff"
     borderopacity="1"
     inkscape:showpageshadow="0"
     inkscape:pageopacity="0"
     inkscape:pagecheckerboard="1"
     inkscape:deskcolor="#d1d1d1"
     inkscape:zoom="0.64391433"
     inkscape:cx="297.39981"
     inkscape:cy="237.60925"
     inkscape:window-width="1480"
     inkscape:window-height="939"
     inkscape:window-x="0"
     inkscape:window-y="32"
     inkscape:window-maximized="0"
     inkscape:current-layer="svg4" />
  <title
     id="title1">logo-full</title>
  <defs
     id="defs1" />
  <g
     id="curl"
     stroke="none"
     stroke-width="1"
     fill="none"
     fill-rule="evenodd">
    <g
       id="curl-logo-2026"
       transform="translate(-17.000000, -18.000000)">
      <g
         id="logo-full"
         transform="translate(17.500000, 13.500000)">
        <g
           id="symbol"
           transform="translate(293.500000, 0.500000)">
          <g
             id="slashes"
             transform="translate(20.000000, 0.000000)">
            <g
               id="slash-2"
               transform="translate(99.142305, 73.116969) rotate(30.000000) translate(-99.142305, -73.116969) translate(87.142305, -4.383031)"
               fill="#0C544C">
              <rect
                 id="slash"
                 x="4"
                 y="20"
                 width="16"
                 height="115" />
              <path
                 d="M12,155 C5.372583,155 0,149.627417 0,143 C0,136.372583 5.372583,131 12,131 C18.627417,131 24,136.372583 24,143 C24,149.627417 18.627417,155 12,155 Z M12,149.5 C15.5898509,149.5 18.5,146.589851 18.5,143 C18.5,139.410149 15.5898509,136.5 12,136.5 C8.41014913,136.5 5.5,139.410149 5.5,143 C5.5,146.589851 8.41014913,149.5 12,149.5 Z"
                 id="bottom"
                 fill-rule="nonzero" />
              <path
                 d="M12,24 C5.372583,24 0,18.627417 0,12 C0,5.372583 5.372583,0 12,0 C18.627417,0 24,5.372583 24,12 C24,18.627417 18.627417,24 12,24 Z M12,18.5 C15.5898509,18.5 18.5,15.5898509 18.5,12 C18.5,8.41014913 15.5898509,5.5 12,5.5 C8.41014913,5.5 5.5,8.41014913 5.5,12 C5.5,15.5898509 8.41014913,18.5 12,18.5 Z"
                 id="top"
                 fill-rule="nonzero" />
            </g>
            <g
               id="slash-1"
               transform="translate(49.142305, 73.116969) rotate(30.000000) translate(-49.142305, -73.116969) translate(37.142305, -4.383031)"
               fill="#073551">
              <rect
                 id="rect1"
                 x="4"
                 y="20"
                 width="16"
                 height="115"
                 inkscape:label="slash" />
              <path
                 d="M12,155 C5.372583,155 0,149.627417 0,143 C0,136.372583 5.372583,131 12,131 C18.627417,131 24,136.372583 24,143 C24,149.627417 18.627417,155 12,155 Z M12,149.5 C15.5898509,149.5 18.5,146.589851 18.5,143 C18.5,139.410149 15.5898509,136.5 12,136.5 C8.41014913,136.5 5.5,139.410149 5.5,143 C5.5,146.589851 8.41014913,149.5 12,149.5 Z"
                 id="path1"
                 fill-rule="nonzero"
                 inkscape:label="bottom" />
              <path
                 d="M12,24 C5.372583,24 0,18.627417 0,12 C0,5.372583 5.372583,0 12,0 C18.627417,0 24,5.372583 24,12 C24,18.627417 18.627417,24 12,24 Z M12,18.5 C15.5898509,18.5 18.5,15.5898509 18.5,12 C18.5,8.41014913 15.5898509,5.5 12,5.5 C8.41014913,5.5 5.5,8.41014913 5.5,12 C5.5,15.5898509 8.41014913,18.5 12,18.5 Z"
                 id="path2"
                 fill-rule="nonzero"
                 inkscape:label="top" />
            </g>
          </g>
          <g
             id="dots"
             transform="translate(0.000000, 37.500000)"
             fill-rule="nonzero"
             fill="#073551">
            <path
               d="M12,66.5 C5.372583,66.5 0,61.127417 0,54.5 C0,47.872583 5.372583,42.5 12,42.5 C18.627417,42.5 24,47.872583 24,54.5 C24,61.127417 18.627417,66.5 12,66.5 Z M12,61 C15.5898509,61 18.5,58.0898509 18.5,54.5 C18.5,50.9101491 15.5898509,48 12,48 C8.41014913,48 5.5,50.9101491 5.5,54.5 C5.5,58.0898509 8.41014913,61 12,61 Z"
               id="path3"
               inkscape:label="bottom" />
            <path
               d="M12,24.5 C5.372583,24.5 0,19.127417 0,12.5 C0,5.872583 5.372583,0.5 12,0.5 C18.627417,0.5 24,5.872583 24,12.5 C24,19.127417 18.627417,24.5 12,24.5 Z M12,19 C15.5898509,19 18.5,16.0898509 18.5,12.5 C18.5,8.91014913 15.5898509,6 12,6 C8.41014913,6 5.5,8.91014913 5.5,12.5 C5.5,16.0898509 8.41014913,19 12,19 Z"
               id="path4"
               inkscape:label="top" />
          </g>
        </g>
        <g
           id="text"
           transform="translate(0.000000, 22.500000)"
           fill-rule="nonzero"
           fill="#073551">
          <path
             d="M271.062836,11.0934525 C271.062836,1.9143525 268.497528,0.304352 259.675385,0.304352 L243.470215,0.304352 C238.318771,0.304352 232.87532,1.4334565 232.87532,8.019821 C232.87532,14.794365 238.965271,15.75618 243.470215,15.75618 L255.67102,15.75618 L255.67102,103.448914 L243.470215,103.448914 C238.318771,103.448914 232.87532,104.578003 232.87532,111.185257 C232.87532,117.938904 238.965271,118.900711 243.470215,118.900711 L282.617126,118.900711 C287.12204,118.900711 293.212005,117.938904 293.212005,111.185257 C293.212005,104.578003 287.768554,103.448914 282.617126,103.448914 L271.062836,103.448914 L271.062836,11.0934525 Z"
             id="l" />
          <path
             d="M167.380661,108.2789 C167.380661,113.589813 168.506897,118.900711 175.076569,118.900711 C181.667114,118.900711 182.793335,113.589813 182.793335,108.2789 L182.793335,69.1789095 L204.295974,51.3225405 C207.028107,49.0643615 209.113724,47.6216355 211.991867,47.6216355 L216.496781,47.6216355 C220.188324,47.6216355 223.879853,47.6216355 225.798599,50.3607255 C227.404541,52.597992 227.404541,54.542534 227.404541,57.114357 C227.404541,62.090729 229.656998,66.607094 235.267273,66.607094 C241.857819,66.607094 242.817169,61.1288985 242.817169,55.818001 C242.817169,48.750725 241.044434,43.4398115 235.913834,38.2752685 C231.742584,34.093445 226.778855,32.169815 220.83487,32.169815 L208.467179,32.169815 C203.649414,32.169815 199.16536,35.222534 194.827286,38.75618 L182.793335,48.750725 L182.793335,42.4570925 C182.793335,37.3134535 181.187393,32.169815 175.076569,32.169815 C168.027221,32.169815 167.380661,37.961632 167.380661,43.5861815 L167.380661,108.2789 Z"
             id="r" />
          <path
             d="M159.351059,42.7916335 C159.351059,37.4807205 158.224823,32.169815 151.655151,32.169815 C145.064651,32.169815 143.938415,37.4807205 143.938415,42.7916335 L143.938415,87.6834565 L121.309524,102.00618 C119.870453,102.967987 118.264541,103.448914 116.491775,103.448914 L111.36116,103.448914 C107.669639,103.448914 103.665268,102.487091 102.3722,100.228913 C101.079117,97.991638 100.933128,93.78891 100.766273,90.255272 L99.160347,42.7916335 C98.9935075,37.7943575 98.2009735,32.169815 91.6104505,32.169815 C84.561081,32.169815 83.747696,38.1289065 83.914543,43.7534485 L85.5204545,92.346176 C85.8332975,100.709809 85.6873095,107.317093 92.5906755,113.276184 C97.7212755,117.60437 102.539032,118.900711 106.877113,118.900711 L118.264541,118.900711 C122.43576,118.900711 126.606979,116.977096 131.591598,113.75708 L144.105255,105.53981 L144.105255,108.111634 C144.105255,113.422547 145.231491,118.900711 151.801162,118.900711 C159.997604,118.900711 159.351059,111.018005 159.351059,107.48436 L159.351059,42.7916335 Z"
             id="u" />
          <path
             d="M0.448427,83.0207215 C0.448427,92.5134585 2.221197,97.176178 9.6042575,103.281632 L20.99168,112.795273 C28.207905,118.73346 31.899433,118.900711 40.888405,118.900711 L65.290039,118.900711 C70.4206465,118.900711 75.8849565,117.771622 75.8849565,111.185257 C75.8849565,104.410721 69.79496,103.448914 65.290039,103.448914 L38.1771165,103.448914 C35.111267,103.448914 32.0662725,101.838898 29.334133,99.580719 L20.0323065,91.697998 C17.612995,89.7743605 15.86108,88.1643525 15.86108,85.1116335 L15.86108,65.9589005 C15.86108,62.9061815 17.612995,61.2961805 20.0323065,59.351631 L29.334133,51.4689025 C32.0662725,49.231636 35.111267,47.6216355 38.1771165,47.6216355 L65.290039,47.6216355 C69.79496,47.6216355 75.8849565,46.638901 75.8849565,39.885277 C75.8849565,33.298912 70.4206465,32.169815 65.290039,32.169815 L40.888405,32.169815 C31.899433,32.169815 28.207905,32.337082 20.99168,38.2752685 L9.6042575,47.76799 C2.221197,53.894356 0.448427,58.557083 0.448427,68.04982 L0.448427,83.0207215 Z"
             id="c" />
        </g>
      </g>
    </g>
  </g>
</svg>
