<?xml version="1.0" encoding="UTF-8" standalone="no"?>
<!-- Created with Inkscape (http://www.inkscape.org/) -->

<svg
   id="svg2"
   version="1.1"
   inkscape:version="1.1.2 (b8e25be8, 2022-02-05)"
   xml:space="preserve"
   width="579.0415"
   height="159.31786"
   viewBox="0 0 579.0415 159.31786"
   sodipodi:docname="curl-up.svg"
   xmlns:inkscape="http://www.inkscape.org/namespaces/inkscape"
   xmlns:sodipodi="http://sodipodi.sourceforge.net/DTD/sodipodi-0.dtd"
   xmlns="http://www.w3.org/2000/svg"
   xmlns:svg="http://www.w3.org/2000/svg"
   xmlns:rdf="http://www.w3.org/1999/02/22-rdf-syntax-ns#"
   xmlns:cc="http://creativecommons.org/ns#"
   xmlns:dc="http://purl.org/dc/elements/1.1/"><metadata
     id="metadata8"><rdf:RDF><cc:Work
         rdf:about=""><dc:format>image/svg+xml</dc:format><dc:type
           rdf:resource="http://purl.org/dc/dcmitype/StillImage" /></cc:Work></rdf:RDF></metadata><defs
     id="defs6"><clipPath
       clipPathUnits="userSpaceOnUse"
       id="clipPath16"><path
         d="M 0,500 500,500 500,0 0,0 0,500 Z"
         id="path18"
         inkscape:connector-curvature="0" /></clipPath></defs><sodipodi:namedview
     pagecolor="#ffffff"
     bordercolor="#666666"
     borderopacity="1"
     objecttolerance="10"
     gridtolerance="10"
     guidetolerance="10"
     inkscape:pageopacity="0"
     inkscape:pageshadow="2"
     inkscape:window-width="1296"
     inkscape:window-height="825"
     id="namedview4"
     showgrid="false"
     inkscape:zoom="0.82624001"
     inkscape:cx="289.86735"
     inkscape:cy="90.167505"
     inkscape:window-x="0"
     inkscape:window-y="47"
     inkscape:window-maximized="0"
     inkscape:current-layer="g10"
     fit-margin-top="0"
     fit-margin-left="0"
     fit-margin-right="0"
     fit-margin-bottom="0"
     inkscape:pagecheckerboard="1" /><g
     id="g10"
     inkscape:groupmode="layer"
     inkscape:label="curl-logo"
     transform="matrix(1.25,0,0,-1.25,-107.76406,394.93275)"><g
   id="g12"><g
     id="g14"
     clip-path="url(#clipPath16)"><g
       id="g20"
       transform="translate(420.1866,301.9042)"><path
         d="M 0,0 C -2.74,0 -4.96,2.221 -4.96,4.96 -4.96,7.7 -2.74,9.921 0,9.921 2.74,9.921 4.96,7.7 4.96,4.96 4.96,2.221 2.74,0 0,0 m -49.27,-84.762 c -2.74,0 -4.961,2.221 -4.961,4.961 0,2.739 2.221,4.96 4.961,4.96 2.739,0 4.96,-2.221 4.96,-4.96 0,-2.74 -2.221,-4.961 -4.96,-4.961 M 0,14.042 c -5.016,0 -9.082,-4.066 -9.082,-9.082 0,-1.071 0.27,-2.066 0.61,-3.021 l -42.606,-73.024 c -4.118,-0.862 -7.274,-4.342 -7.274,-8.716 0,-5.016 4.066,-9.082 9.082,-9.082 5.015,0 9.081,4.066 9.081,9.082 0,1.005 -0.271,1.93 -0.572,2.834 L 2.061,-3.705 c 3.992,0.956 7.021,4.38 7.021,8.665 0,5.016 -4.067,9.082 -9.082,9.082"
         style="fill:#0f564d;fill-opacity:1;fill-rule:nonzero;stroke:none"
         id="path22"
         inkscape:connector-curvature="0" /></g><g
       id="g24"
       transform="translate(383.0255,301.9042)"><path
         d="M 0,0 C -2.74,0 -4.96,2.221 -4.96,4.96 -4.96,7.7 -2.74,9.921 0,9.921 2.74,9.921 4.96,7.7 4.96,4.96 4.96,2.221 2.74,0 0,0 m -49.27,-84.762 c -2.74,0 -4.961,2.221 -4.961,4.961 0,2.739 2.221,4.96 4.961,4.96 2.739,0 4.96,-2.221 4.96,-4.96 0,-2.74 -2.221,-4.961 -4.96,-4.961 M 0,14.042 c -5.016,0 -9.082,-4.066 -9.082,-9.082 0,-1.071 0.27,-2.066 0.61,-3.021 l -42.606,-73.024 c -4.118,-0.862 -7.274,-4.342 -7.274,-8.716 0,-5.016 4.066,-9.082 9.082,-9.082 5.015,0 9.081,4.066 9.081,9.082 0,1.005 -0.271,1.93 -0.572,2.834 L 2.061,-3.705 c 3.992,0.956 7.021,4.38 7.021,8.665 0,5.016 -4.067,9.082 -9.082,9.082"
         style="fill:#093754;fill-opacity:1;fill-rule:nonzero;stroke:none"
         id="path26"
         inkscape:connector-curvature="0" /></g><g
       id="g28"
       transform="translate(315.1673,286.7181)"><path
         d="M 0,0 C 2.74,0 4.96,-2.221 4.96,-4.96 4.96,-7.7 2.74,-9.921 0,-9.921 -2.74,-9.921 -4.96,-7.7 -4.96,-4.96 -4.96,-2.221 -2.74,0 0,0 m 0,-14.042 c 5.015,0 9.082,4.066 9.082,9.082 0,1.005 -0.271,1.93 -0.573,2.834 C 7.306,1.48 4.01,4.121 0,4.121 c -0.641,0 -1.204,-0.238 -1.807,-0.365 -4.119,-0.862 -7.275,-4.342 -7.275,-8.716 0,-5.016 4.067,-9.082 9.082,-9.082"
         style="fill:#093754;fill-opacity:1;fill-rule:nonzero;stroke:none"
         id="path30"
         inkscape:connector-curvature="0" /></g><g
       id="g32"
       transform="translate(310.2069,250.0249)"><path
         d="M 0,0 C 0,2.74 2.221,4.96 4.96,4.96 7.7,4.96 9.921,2.74 9.921,0 9.921,-2.74 7.7,-4.96 4.96,-4.96 2.221,-4.96 0,-2.74 0,0 m 14.042,0 c 0,1.006 -0.271,1.93 -0.573,2.834 C 12.266,6.44 8.971,9.082 4.96,9.082 4.319,9.082 3.757,8.843 3.153,8.716 -0.965,7.855 -4.121,4.374 -4.121,0 c 0,-5.015 4.066,-9.082 9.081,-9.082 5.016,0 9.082,4.067 9.082,9.082"
         style="fill:#093754;fill-opacity:1;fill-rule:nonzero;stroke:none"
         id="path34"
         inkscape:connector-curvature="0" /></g></g></g><g
   aria-label="curl"
   transform="matrix(1,0,0,-1,71.1797,213.0234)"
   id="text36"
   style="line-height:0%;font-family:'OCR A Std';-inkscape-font-specification:OCRAStd;fill:#093754"><path
     d="m 15.0315,-26.816196 c 0,7.094868 1.322772,10.582176 6.854364,15.151752 l 8.537892,7.094868 C 35.835096,-0.120252 38.600892,0 45.335004,0 h 18.278303 c 3.848064,0 7.936632,-0.84176399 7.936632,-5.7720959 0,-5.0505841 -4.569576,-5.7720961 -7.936632,-5.7720961 H 43.29072 c -2.284788,0 -4.569576,-1.20252 -6.61386,-2.886048 l -6.974616,-5.892348 c -1.80378,-1.443024 -3.126552,-2.645544 -3.126552,-4.930332 v -14.309988 c 0,-2.284788 1.322772,-3.487308 3.126552,-4.930332 l 6.974616,-5.892348 c 2.044284,-1.683528 4.329072,-2.886048 6.61386,-2.886048 h 20.322587 c 3.367056,0 7.936632,-0.721512 7.936632,-5.772095 0,-4.930332 -4.088568,-5.772096 -7.936632,-5.772096 H 45.335004 c -6.734112,0 -9.499908,0.120252 -14.911248,4.569576 l -8.537892,7.094867 C 16.354272,-48.581808 15.0315,-45.0945 15.0315,-37.999632 Z"
     style="font-size:120.252px;line-height:1.25"
     id="path925" /><path
     d="m 134.08119,-56.879195 c 0,-3.968316 -0.84177,-7.936632 -5.7721,-7.936632 -4.93033,0 -5.7721,3.968316 -5.7721,7.936632 v 33.550307 l -16.95553,10.702428 c -1.08227,0.721512 -2.28479,1.082268 -3.60756,1.082268 h -3.848062 c -2.765796,0 -5.772096,-0.721512 -6.734112,-2.40504 -0.962016,-1.683528 -1.082268,-4.81008 -1.20252,-7.455624 l -1.20252,-35.474339 c -0.120252,-3.727812 -0.721512,-7.936632 -5.651844,-7.936632 -5.291088,0 -5.892348,4.449324 -5.772096,8.658144 l 1.20252,36.316103 c 0.240504,6.253104 0.120252,11.1834361 5.291088,15.63276 C 87.904418,-0.96201599 91.511978,0 94.758782,0 h 8.537888 c 3.12656,0 6.25311,-1.443024 9.98092,-3.848064 l 9.37966,-6.1328519 v 1.924032 C 122.65725,-4.088568 123.49901,0 128.42934,0 c 6.13285,0 5.65185,-5.8923479 5.65185,-8.5378919 z"
     style="font-size:120.252px;line-height:1.25"
     id="path927" /><path
     d="M 140.09399,-7.9366319 C 140.09399,-3.968316 140.93576,0 145.86609,0 c 4.93033,0 5.77209,-3.968316 5.77209,-7.9366319 V -37.157868 l 16.11377,-13.347972 c 2.04429,-1.683528 3.60756,-2.765796 5.7721,-2.765796 h 3.36705 c 2.7658,0 5.5316,0 6.97462,2.044284 1.20252,1.683528 1.20252,3.126552 1.20252,5.050584 0,3.727812 1.68353,7.094868 5.89235,7.094868 4.93033,0 5.65184,-4.088568 5.65184,-8.056884 0,-5.291088 -1.32277,-9.259403 -5.17083,-13.107467 -3.12656,-3.126552 -6.85437,-4.569576 -11.30369,-4.569576 h -9.25941 c -3.60756,0 -6.97461,2.284788 -10.22142,4.930332 l -9.0189,7.455623 v -4.689827 c 0,-3.848064 -1.20252,-7.696128 -5.77209,-7.696128 -5.29109,0 -5.7721,4.329072 -5.7721,8.537892 z"
     style="font-size:120.252px;line-height:1.25"
     id="path929" /><path
     d="m 217.77694,-80.568839 c 0,-6.854364 -1.92403,-8.056884 -8.53789,-8.056884 h -12.14546 c -3.84806,0 -7.93663,0.841764 -7.93663,5.772096 0,5.050584 4.56958,5.772096 7.93663,5.772096 h 9.13916 v 65.537339 h -9.13916 c -3.84806,0 -7.93663,0.841764 -7.93663,5.7720961 C 189.15696,-0.72151199 193.72654,0 197.09359,0 h 29.34149 c 3.36706,0 7.93663,-0.72151199 7.93663,-5.7720959 0,-4.9303321 -4.08857,-5.7720961 -7.93663,-5.7720961 h -8.65814 z"
     style="font-size:120.252px;line-height:1.25"
     id="path931" /></g>
<g
   aria-label="up"
   transform="scale(1,-1)"
   id="text36-6"
   style="line-height:0%;font-family:'OCR A Std';-inkscape-font-specification:OCRAStd;fill:#093754"><path
     d="m 485.80028,-269.9026 c 0,-3.96832 -0.84177,-7.93663 -5.7721,-7.93663 -4.93033,0 -5.7721,3.96831 -5.7721,7.93663 v 33.55031 l -16.95553,10.70242 c -1.08227,0.72152 -2.28479,1.08227 -3.60756,1.08227 h -3.84806 c -2.7658,0 -5.7721,-0.72151 -6.73411,-2.40504 -0.96202,-1.68353 -1.08227,-4.81008 -1.20252,-7.45562 l -1.20252,-35.47434 c -0.12026,-3.72781 -0.72152,-7.93663 -5.65185,-7.93663 -5.29109,0 -5.89235,4.44932 -5.77209,8.65814 l 1.20252,36.3161 c 0.2405,6.25311 0.12025,11.18344 5.29108,15.63276 3.84807,3.24681 7.45563,4.20882 10.70243,4.20882 h 8.53789 c 3.12656,0 6.25311,-1.44302 9.98092,-3.84806 l 9.37966,-6.13285 v 1.92403 c 0,3.96832 0.84176,8.05688 5.77209,8.05688 6.13285,0 5.65185,-5.89234 5.65185,-8.53789 z"
     style="font-size:120.252px;line-height:1.25"
     id="path952" /><path
     d="m 548.33149,-250.42178 c 0,-8.17713 -0.60126,-11.42394 -7.33537,-16.71503 l -6.97461,-5.41134 c -3.12656,-2.40504 -6.85437,-5.29108 -9.62016,-5.29108 h -7.93664 c -3.2468,0 -7.81638,4.32907 -10.82268,6.97461 l -2.28478,2.04429 v -1.44303 c 0,-3.84806 -1.08227,-7.57587 -5.7721,-7.57587 -5.29109,0 -5.77209,4.44932 -5.77209,8.53789 v 72.87271 c 0,3.96831 0.84176,7.93663 5.77209,7.93663 4.93033,0 5.7721,-3.96832 5.7721,-7.93663 v -23.20864 l 2.28478,2.16454 c 3.72782,3.48731 6.13286,6.85436 11.30369,6.85436 h 7.81638 c 3.12655,0 6.85437,-3.2468 9.25941,-5.17083 l 6.97461,-5.53159 c 6.73411,-5.29109 7.33537,-8.41764 7.33537,-16.71503 z m -11.54419,13.94923 c 0,2.16454 -0.60126,3.48731 -2.40504,5.05059 l -8.65814,7.21512 c -1.08227,0.96201 -2.40504,2.04428 -3.96832,2.04428 h -3.0063 c -1.44302,0 -3.2468,-1.56327 -4.93033,-3.2468 l -8.7784,-8.29739 c -1.20252,-1.08227 -1.68352,-3.2468 -1.68352,-4.93033 v -11.30369 c 0,-2.52529 0.84176,-3.84806 3.2468,-6.13285 l 7.21512,-6.85437 c 1.20252,-1.20252 3.2468,-3.36705 4.93033,-3.36705 h 3.0063 c 1.56328,0 2.88605,1.08227 3.96832,2.04428 l 8.65814,7.21512 c 1.80378,1.56328 2.40504,2.88605 2.40504,5.05059 z"
     style="font-size:120.252px;line-height:1.25"
     id="path954" /></g>
</g></svg>
