<svg xmlns="http://www.w3.org/2000/svg" viewBox="0 0 123.1836 102.9258"><path d="M114.1016 14.043c-2.7422 0-4.961-2.2227-4.961-4.961 0-2.7422 2.2188-4.961 4.961-4.961 2.7382 0 4.9609 2.2188 4.9609 4.961 0 2.7383-2.2227 4.961-4.961 4.961M64.832 98.8047c-2.7422 0-4.961-2.2227-4.961-4.961 0-2.7421 2.2188-4.9609 4.961-4.9609 2.7383 0 4.957 2.2188 4.957 4.961 0 2.7382-2.2187 4.9609-4.957 4.9609M114.1016 0c-5.0157 0-9.082 4.0664-9.082 9.082 0 1.0703.2695 2.0664.6093 3.0196L63.0234 85.125c-4.1172.8633-7.2734 4.3438-7.2734 8.7188 0 5.0156 4.0664 9.082 9.082 9.082 5.0118 0 9.0782-4.0664 9.0782-9.082 0-1.0079-.2696-1.9297-.5704-2.836l42.8203-73.2617c3.9922-.957 7.0235-4.379 7.0235-8.664 0-5.0157-4.0664-9.0821-9.082-9.0821M76.9414 14.043c-2.7422 0-4.961-2.2227-4.961-4.961 0-2.7422 2.2188-4.961 4.961-4.961 2.7383 0 4.957 2.2188 4.957 4.961 0 2.7383-2.2187 4.961-4.957 4.961M27.668 98.8047c-2.7383 0-4.961-2.2227-4.961-4.961 0-2.7421 2.2227-4.9609 4.961-4.9609 2.7421 0 4.9609 2.2188 4.9609 4.961 0 2.7382-2.2188 4.9609-4.961 4.9609M76.9415 0c-5.0195 0-9.082 4.0664-9.082 9.082 0 1.0703.2695 2.0664.6094 3.0196L25.8633 85.125c-4.1211.8633-7.2774 4.3438-7.2774 8.7188 0 5.0156 4.0664 9.082 9.082 9.082 5.0157 0 9.0821-4.0664 9.0821-9.082 0-1.0079-.2695-1.9297-.5703-2.836L79 17.7461c3.9922-.957 7.0234-4.379 7.0234-8.664C86.0234 4.0663 81.9531 0 76.9414 0M9.082 29.2266c2.7383 0 4.961 2.2226 4.961 4.9609 0 2.7383-2.2227 4.961-4.961 4.961-2.7422 0-4.961-2.2227-4.961-4.961s2.2188-4.961 4.961-4.961m0 14.043c5.0156 0 9.082-4.0664 9.082-9.082 0-1.004-.2734-1.9297-.5742-2.836-1.203-3.6054-4.5-6.246-8.5078-6.246-.6406 0-1.2031.2383-1.8086.3672C3.1563 26.332 0 29.8125 0 34.1874c0 5.0156 4.0664 9.082 9.082 9.082M4.121 65.9219c0-2.7422 2.2227-4.961 4.961-4.961s4.961 2.2188 4.961 4.961c0 2.7383-2.2227 4.957-4.961 4.957s-4.961-2.2188-4.961-4.957m14.043 0c0-1.0078-.2734-1.9297-.5742-2.836-1.203-3.6054-4.496-6.246-8.5078-6.246-.6406 0-1.2031.2382-1.8086.3632C3.1563 58.0664 0 61.547 0 65.922c0 5.0117 4.0664 9.082 9.082 9.082 5.0156 0 9.082-4.0703 9.082-9.082" fill="#fff"/></svg>