<svg xmlns="http://www.w3.org/2000/svg" xmlns:xlink="http://www.w3.org/1999/xlink" viewBox="0 0 343.1 102.9" height="137.2" width="457.4"><defs><symbol style="overflow:visible" id="a" overflow="visible"><path d="M15-26.8c0 7 1.4 10.6 6.9 15.1l8.5 7.1C35.8 0 38.6 0 45.4 0h18.2c3.9 0 8-.8 8-5.8s-4.6-5.7-8-5.7H43.3c-2.3 0-4.6-1.3-6.6-3l-7-5.8c-1.8-1.5-3.1-2.7-3.1-5v-14.3c0-2.2 1.3-3.4 3.1-4.9l7-5.9a11 11 0 0 1 6.6-2.9h20.3c3.4 0 8-.7 8-5.7s-4.1-5.8-8-5.8H45.3c-6.7 0-9.5.1-14.9 4.5L22-53.1C16.4-48.6 15-45 15-38Zm0 0" style="stroke:none"/></symbol><symbol style="overflow:visible" id="b" overflow="visible"><path d="M71.5-56.9c0-4-.8-8-5.7-8-5 0-5.8 4-5.8 8v33.6L43-12.6c-1 .7-2.2 1-3.6 1h-3.8c-2.8 0-5.8-.7-6.7-2.4-1-1.6-1.1-4.8-1.2-7.4L26.5-57c-.2-3.7-.8-8-5.7-8-5.3 0-5.9 4.5-5.8 8.7l1.2 36.4c.3 6.2.2 11.1 5.3 15.6C25.4-1 29 0 32.2 0h8.6a19 19 0 0 0 10-3.8L60-10v2c0 4 .9 8 5.8 8 6.1 0 5.6-5.9 5.6-8.5zm0 0" style="stroke:none"/></symbol><symbol style="overflow:visible" id="c" overflow="visible"><path d="M15-8c0 4 .9 8 5.8 8 5 0 5.8-4 5.8-8v-29.2l16-13.3c2.1-1.7 3.7-2.8 5.9-2.8h3.3c2.8 0 5.6 0 7 2C60-49.4 60-48 60-46.1c0 3.7 1.7 7.1 5.9 7.1 5 0 5.6-4 5.6-8a17 17 0 0 0-5.1-13.1A15.2 15.2 0 0 0 55-64.8h-9.3c-3.6 0-7 2.3-10.2 5l-9 7.4v-4.7c0-3.9-1.2-7.7-5.8-7.7-5.3 0-5.8 4.3-5.8 8.5zm0 0" style="stroke:none"/></symbol><symbol style="overflow:visible" id="d" overflow="visible"><path d="M49.3-80.6c0-6.8-2-8-8.5-8H28.6c-3.8 0-8 .8-8 5.7 0 5.1 4.6 5.8 8 5.8h9.2v65.6h-9.2c-3.8 0-8 .8-8 5.7 0 5 4.6 5.8 8 5.8H58c3.3 0 7.9-.7 7.9-5.8 0-4.9-4-5.7-8-5.7h-8.6zm0 0" style="stroke:none"/></symbol></defs><path style="fill:#0c544c;fill-opacity:1;fill-rule:nonzero;stroke:none" d="M334 14a5 5 0 1 1 0-9.9 5 5 0 0 1 0 10m-49.3 84.7a5 5 0 1 1 0-10 5 5 0 0 1 0 10M334 0c-5 0-9.1 4-9.1 9 0 1.2.3 2.1.6 3.1l-42.6 73a9 9 0 0 0-7.3 8.7 9 9 0 0 0 18.2 0c0-1-.3-1.9-.6-2.8L336 17.7c4-1 7-4.3 7-8.6 0-5-4-9.1-9-9.1"/><path style="fill:#073551;fill-opacity:1;fill-rule:nonzero;stroke:none" d="M296.8 14a5 5 0 1 1 0-9.9 5 5 0 0 1 0 10m-49.3 84.7a5 5 0 1 1 0-10 5 5 0 0 1 0 10M296.8 0c-5 0-9 4-9 9 0 1.2.2 2.1.5 3.1l-42.6 73a9 9 0 0 0-7.2 8.7 9 9 0 0 0 18.1 0c0-1-.2-1.9-.5-2.8l42.8-73.3c4-1 7-4.3 7-8.6 0-5-4-9.1-9-9.1M229 29.2a5 5 0 1 1 0 10 5 5 0 0 1 0-10m0 14c5 0 9-4 9-9 0-1-.2-2-.5-2.8A9 9 0 0 0 229 25c-.7 0-1.2.2-1.9.4a9 9 0 0 0-7.2 8.7c0 5 4 9 9 9M224 66a5 5 0 1 1 10 0 5 5 0 0 1-10 0m14 0c0-1-.2-2-.5-3a9 9 0 0 0-8.5-6.2c-.7 0-1.2.3-1.9.4a9 9 0 0 0-7.2 8.7 9 9 0 0 0 18.1 0"/><use transform="translate(-86.2 -184)" height="100%" width="100%" y="287" x="71.2" xlink:href="#a" style="fill:#073551;fill-opacity:1"/><use transform="translate(-86.2 -184)" height="100%" width="100%" y="287" x="133.7" xlink:href="#b" style="fill:#073551;fill-opacity:1"/><use transform="translate(-86.2 -184)" height="100%" width="100%" y="287" x="196.2" xlink:href="#c" style="fill:#073551;fill-opacity:1"/><use transform="translate(-86.2 -184)" height="100%" width="100%" y="287" x="239.7" xlink:href="#d" style="fill:#073551;fill-opacity:1"/></svg>