<svg xmlns="http://www.w3.org/2000/svg" width="986" height="346" viewBox="0 0 986 346">
 <path fill="#fff" fill-rule="evenodd" d="M827.375.533c-32.748 0-59.245 26.572-59.245 59.307q0 .708.018 1.404l-32.497 55.838A365 365 0 0 0 727.5 117c-9.287 0-16.758.417-22.756 1.25-.555-3.2-1.424-6.299-2.586-9.808-7.99-24.005-30.134-40.717-55.939-40.717-2.939 0-5.664.3-8.317.818-1.551.303-2.657.582-4.146.993l-.21.059-.006.001a60.1 60.1 0 0 0-22.613 10.235 61 61 0 0 0-1.025-4.644c-2.41-9.186-7.012-17.361-14.298-23.836-6.844-6.082-14.731-9.552-23.428-11.28-5.472-1.088-10.991-1.462-17.825-1.462h-32.41c-11.521 0-21.494 1.686-31.36 7.127-15.712 8.664-24.83 24.592-24.83 43.304 0 4.642.568 9.096 1.654 13.3h-15.47c-10.825 0-20.847 2.935-30.435 8.034a90 90 0 0 0-4.892 2.804c-8.559-6.977-19.451-10.838-31.455-10.838-8.572 0-16.538 1.871-23.482 5.387-6.94-3.52-14.87-5.387-23.36-5.387-18.624 0-34.554 8.963-43.263 24.653a53.5 53.5 0 0 0-5.206 13.2c-5.771-.779-12.81-1.193-21.342-1.193q-1.312 0-2.56.03c-.979-3.614-2.336-7.142-4.216-10.804-8.332-16.225-24.35-25.886-43.503-25.886-8.808 0-16.975 1.99-24.055 5.704-8.977-4.315-18.155-5.704-28.586-5.704h-48.803c-14.576 0-21.144.413-30.221 2.827-11.365 3.022-21.085 8.53-31.812 17.358l-.172.142-22.774 18.985C9.23 160.377.897 179.4.897 209.1v29.941c0 29.658 8.315 48.68 30.871 67.382l.135.113 22.64 18.914.2.167c10.728 8.827 20.449 14.335 31.813 17.357 9.077 2.414 15.645 2.827 30.22 2.827h48.804c11.494 0 21.468-1.687 31.328-7.117a48.6 48.6 0 0 0 8.846-6.23c13.451 9.024 27.947 13.347 43 13.347h22.775c12.76 0 23.99-3.5 36.208-10.219 8.437 6.597 19.095 10.22 30.865 10.22 8.387 0 16.331-1.773 23.363-5.3 6.898 3.463 14.767 5.3 23.188 5.3 18.623 0 34.554-8.964 43.262-24.654 5.11-9.208 6.915-18.46 7.146-29.117 6.445.657 14.469.969 24.439.969q2.876 0 5.553-.087.197 1.126.198 2.458c0 19.365 9.905 35.427 26.067 43.832 9.672 5.03 19.324 6.598 30.122 6.598h78.294c10.799 0 20.45-1.568 30.123-6.598 7.638-3.972 13.878-9.654 18.336-16.586C659.513 336.825 676.598 346 695.836 346c20.77 0 39.03-10.694 49.606-26.87C756.02 335.305 774.28 346 795.05 346c32.733 0 59.234-26.577 59.234-59.307q0-.371-.004-.736l102.28-175.436c17.607-10.261 29.264-29.085 29.264-50.681 0-32.734-26.506-59.307-59.245-59.307-20.767 0-39.026 10.692-49.603 26.865C866.396 11.225 848.136.533 827.375.533M803.13 59.84c0-13.424 10.845-24.307 24.245-24.307 13.38 0 24.246 10.883 24.246 24.307 0 11.469-8.093 20.627-18.75 23.188L718.559 279.103c.803 2.426 1.522 4.893 1.522 7.59 0 13.424-10.855 24.307-24.245 24.307s-24.245-10.883-24.245-24.307c0-11.709 8.426-21.024 19.427-23.334L804.757 67.92c-.907-2.55-1.627-5.216-1.627-8.081m99.202 0c0-13.424 10.856-24.307 24.246-24.307s24.245 10.883 24.245 24.307c0 11.469-8.092 20.627-18.75 23.188L817.761 279.103c.803 2.426 1.522 4.893 1.522 7.59 0 13.424-10.855 24.307-24.234 24.307-13.39 0-24.246-10.883-24.246-24.307 0-11.709 8.426-21.024 19.417-23.334L903.96 67.92c-.907-2.55-1.627-5.216-1.627-8.081M54.21 279.563c-14.767-12.21-18.312-21.536-18.312-40.522V209.1c0-18.986 3.545-28.311 18.312-40.564l22.774-18.985c14.433-11.877 21.816-12.211 39.794-12.211h48.803c10.261 0 21.19 2.258 21.19 15.43 0 13.508-12.18 15.473-21.19 15.473h-54.226c-6.131 0-12.221 3.22-17.686 7.695l-18.603 15.765c-4.839 3.89-8.343 7.11-8.343 13.215v38.305c0 6.106 3.504 9.326 8.343 13.173l18.603 15.765c5.465 4.517 11.555 7.737 17.686 7.737h54.226c9.01 0 21.19 1.923 21.19 15.473 0 13.172-10.929 15.43-21.19 15.43h-48.803c-17.978 0-25.361-.334-39.794-12.21zM338.31 137.34c13.14 0 15.392 10.621 15.392 21.243V287.97q.001.68.011 1.458c.082 7.564.232 21.374-15.11 21.374-13.14 0-15.392-10.956-15.392-21.578v-5.143l-25.028 16.434c-9.969 6.44-18.311 10.287-26.654 10.287h-22.775c-8.676 0-18.311-2.592-28.573-11.249-13.806-11.918-13.514-25.132-14.14-41.86l-3.212-97.185c-.334-11.25 1.293-23.167 15.392-23.167 13.18 0 14.766 11.249 15.1 21.243l3.212 94.928c.333 7.067.625 15.472 3.211 19.947 2.587 4.516 10.595 6.44 17.978 6.44h10.262q5.318 0 9.635-2.886l45.258-28.645v-89.784c0-10.622 2.252-21.243 15.433-21.243m31.451 152.218c0 10.622 2.253 21.243 15.392 21.243 13.181 0 15.434-10.621 15.434-21.243v-78.2l43.005-35.713c5.464-4.516 9.635-7.402 15.392-7.402h9.01c7.383 0 14.766 0 18.603 5.478 3.212 4.475 3.212 8.364 3.212 13.508 0 9.952 4.505 18.985 15.726 18.985 13.18 0 15.1-10.956 15.1-21.578 0-14.135-3.546-24.756-13.807-35.085-8.343-8.364-18.27-12.211-30.158-12.211h-24.736c-9.635 0-18.603 6.105-27.28 13.172l-24.067 19.99v-12.588c0-10.287-3.212-20.574-15.434-20.574-14.099 0-15.392 11.583-15.392 22.832zM577.126 95.187c0-18.358-5.13-21.578-22.775-21.578h-32.41c-10.303 0-21.19 2.258-21.19 15.43 0 13.55 12.18 15.473 21.19 15.473h24.401v175.386H521.94c-10.302 0-21.19 2.258-21.19 15.473 0 13.507 12.18 15.43 21.19 15.43h78.294c9.01 0 21.19-1.923 21.19-15.43 0-13.215-10.887-15.473-21.19-15.473h-23.108zm105.466 191.506c0 7.329 5.934 13.277 13.244 13.277 7.32 0 13.244-5.948 13.244-13.277 0-7.339-5.924-13.277-13.244-13.277-7.31 0-13.244 5.938-13.244 13.277m99.213 0c0 7.329 5.923 13.277 13.244 13.277 7.31 0 13.233-5.948 13.233-13.277 0-7.339-5.923-13.277-13.233-13.277-7.321 0-13.244 5.938-13.244 13.277m-111.34-74.729c0-2.697-.73-5.164-1.533-7.59-3.212-9.65-12.003-16.717-22.713-16.717-1.71 0-3.212.638-4.828.973-10.991 2.31-19.417 11.625-19.417 23.334 0 13.413 10.856 24.307 24.245 24.307s24.246-10.894 24.246-24.307m-37.49 0c0-7.339 5.934-13.277 13.244-13.277s13.244 5.938 13.244 13.277c0 7.329-5.934 13.267-13.244 13.267s-13.243-5.938-13.243-13.267m13.244-60.626c13.39 0 24.246-10.883 24.246-24.307 0-2.686-.73-5.164-1.533-7.59-3.212-9.65-12.013-16.716-22.713-16.716-1.71 0-3.212.637-4.828.982-10.991 2.3-19.417 11.615-19.417 23.324 0 13.424 10.856 24.307 24.245 24.307m0-37.584c7.31 0 13.244 5.949 13.244 13.277 0 7.329-5.934 13.278-13.244 13.278-7.32 0-13.243-5.949-13.243-13.278 0-7.328 5.923-13.277 13.243-13.277M814.132 59.84c0 7.329 5.923 13.277 13.243 13.277 7.31 0 13.234-5.948 13.234-13.277 0-7.34-5.924-13.277-13.234-13.277-7.32 0-13.243 5.938-13.243 13.277m99.202 0c0 7.329 5.923 13.277 13.244 13.277 7.31 0 13.243-5.948 13.243-13.277 0-7.34-5.933-13.277-13.243-13.277-7.321 0-13.244 5.938-13.244 13.277"/>
 <path fill="#0c544c" d="M926.578 73.117c-7.321 0-13.244-5.948-13.244-13.277 0-7.34 5.923-13.277 13.244-13.277 7.31 0 13.243 5.938 13.243 13.277 0 7.329-5.933 13.277-13.243 13.277M795.048 299.97c-7.32 0-13.243-5.948-13.243-13.277 0-7.339 5.923-13.277 13.244-13.277 7.31 0 13.233 5.938 13.233 13.277 0 7.329-5.923 13.277-13.233 13.277M926.578 35.533c-13.39 0-24.246 10.883-24.246 24.307 0 2.865.72 5.53 1.627 8.081L790.22 263.36c-10.99 2.31-19.417 11.625-19.417 23.334 0 13.424 10.856 24.307 24.246 24.307 13.379 0 24.234-10.883 24.234-24.307 0-2.697-.72-5.164-1.522-7.59L932.073 83.028c10.658-2.561 18.75-11.72 18.75-23.188 0-13.424-10.856-24.307-24.245-24.307"/>
 <g fill="#073551">
  <path d="M827.375 73.117c-7.32 0-13.243-5.948-13.243-13.277 0-7.34 5.923-13.277 13.243-13.277 7.31 0 13.234 5.938 13.234 13.277 0 7.329-5.924 13.277-13.234 13.277M695.836 299.97c-7.31 0-13.244-5.948-13.244-13.277 0-7.339 5.934-13.277 13.244-13.277 7.32 0 13.244 5.938 13.244 13.277 0 7.329-5.924 13.277-13.244 13.277m131.54-264.437c-13.4 0-24.246 10.883-24.246 24.307 0 2.865.72 5.53 1.627 8.081L691.018 263.36c-11.001 2.31-19.427 11.625-19.427 23.334 0 13.424 10.855 24.307 24.245 24.307s24.245-10.883 24.245-24.307c0-2.697-.72-5.164-1.522-7.59L832.87 83.028c10.657-2.561 18.75-11.72 18.75-23.188 0-13.424-10.866-24.307-24.246-24.307M646.22 113.754c7.31 0 13.243 5.949 13.243 13.277 0 7.329-5.934 13.278-13.244 13.278-7.32 0-13.243-5.949-13.243-13.278 0-7.328 5.923-13.277 13.243-13.277m0 37.584c13.39 0 24.246-10.883 24.246-24.307 0-2.686-.73-5.164-1.533-7.59-3.212-9.65-12.013-16.716-22.713-16.716-1.71 0-3.212.637-4.828.982-10.991 2.3-19.417 11.615-19.417 23.324 0 13.424 10.856 24.307 24.245 24.307M632.976 211.964c0-7.339 5.933-13.277 13.243-13.277s13.244 5.938 13.244 13.277c0 7.329-5.934 13.267-13.244 13.267s-13.243-5.938-13.243-13.267m37.489 0c0-2.697-.73-5.164-1.533-7.59-3.212-9.65-12.003-16.717-22.713-16.717-1.71 0-3.212.638-4.828.973-10.991 2.31-19.417 11.625-19.417 23.334 0 13.413 10.856 24.307 24.245 24.307s24.246-10.894 24.246-24.307M577.126 95.187c0-18.358-5.13-21.578-22.775-21.578h-32.41c-10.303 0-21.19 2.258-21.19 15.43 0 13.55 12.18 15.473 21.19 15.473h24.401v175.386H521.94c-10.302 0-21.19 2.258-21.19 15.473 0 13.507 12.18 15.43 21.19 15.43h78.294c9.01 0 21.19-1.923 21.19-15.43 0-13.215-10.887-15.473-21.19-15.473h-23.108zm0 0"/>
  <path d="M369.761 289.558c0 10.622 2.253 21.243 15.392 21.243 13.181 0 15.434-10.621 15.434-21.243v-78.2l43.005-35.713c5.464-4.516 9.635-7.402 15.392-7.402h9.01c7.383 0 14.766 0 18.603 5.478 3.212 4.475 3.212 8.364 3.212 13.508 0 9.952 4.505 18.985 15.726 18.985 13.18 0 15.1-10.956 15.1-21.578 0-14.135-3.546-24.756-13.807-35.085-8.343-8.364-18.27-12.211-30.158-12.211h-24.736c-9.635 0-18.603 6.105-27.28 13.172l-24.067 19.99v-12.588c0-10.287-3.212-20.574-15.434-20.574-14.099 0-15.392 11.583-15.392 22.832zM353.702 158.583c0-10.622-2.252-21.243-15.392-21.243-13.18 0-15.433 10.621-15.433 21.243v89.784l-45.258 28.645q-4.317 2.886-9.635 2.886h-10.262c-7.383 0-15.391-1.924-17.978-6.44-2.586-4.475-2.878-12.88-3.211-19.947l-3.212-94.928c-.334-9.994-1.92-21.243-15.1-21.243-14.099 0-15.726 11.918-15.392 23.167l3.212 97.185c.626 16.728.334 29.942 14.14 41.86 10.262 8.657 19.897 11.25 28.573 11.25h22.775c8.343 0 16.685-3.848 26.654-10.288l25.028-16.434v5.143c0 10.622 2.252 21.578 15.391 21.578 16.393 0 15.1-15.765 15.1-22.832zM35.897 239.041c0 18.986 3.545 28.311 18.312 40.522l22.774 19.028c14.433 11.876 21.816 12.21 39.794 12.21h48.803c10.261 0 21.19-2.258 21.19-15.43 0-13.55-12.18-15.473-21.19-15.473h-54.226c-6.131 0-12.221-3.22-17.686-7.737l-18.603-15.765c-4.839-3.847-8.343-7.067-8.343-13.173v-38.305c0-6.106 3.504-9.326 8.343-13.215l18.603-15.765c5.465-4.475 11.555-7.695 17.686-7.695h54.226c9.01 0 21.19-1.965 21.19-15.472 0-13.173-10.929-15.431-21.19-15.431h-48.803c-17.978 0-25.361.334-39.794 12.21L54.21 168.537c-14.767 12.253-18.312 21.578-18.312 40.564zm0 0"/>
 </g>
</svg>
