<svg xmlns="http://www.w3.org/2000/svg" viewBox="0 0 344 103">
 <path fill="#0c544c" d="M333.977 14.043a4.96 4.96 0 0 1-4.961-4.961 4.96 4.96 0 0 1 4.96-4.96 4.96 4.96 0 1 1 0 9.921m-49.269 84.762a4.96 4.96 0 0 1-4.96-4.961 4.96 4.96 0 0 1 4.96-4.961 4.957 4.957 0 0 1 4.957 4.96 4.96 4.96 0 0 1-4.957 4.962M333.977 0a9.08 9.08 0 0 0-9.082 9.082c0 1.07.27 2.066.609 3.02l-42.606 73.023c-4.117.863-7.273 4.344-7.273 8.719a9.08 9.08 0 0 0 9.082 9.082c5.012 0 9.078-4.067 9.078-9.082 0-1.008-.27-1.93-.57-2.836l42.82-73.262c3.992-.957 7.024-4.379 7.024-8.664A9.08 9.08 0 0 0 333.977 0"/>
 <g fill="#073551">
  <path d="M296.816 14.043a4.96 4.96 0 0 1-4.96-4.961 4.96 4.96 0 0 1 4.96-4.96 4.957 4.957 0 0 1 4.957 4.96 4.96 4.96 0 0 1-4.957 4.961m-49.273 84.762a4.96 4.96 0 1 1 0-9.922 4.96 4.96 0 0 1 4.96 4.96 4.96 4.96 0 0 1-4.96 4.962M296.816 0a9.08 9.08 0 0 0-9.082 9.082c0 1.07.27 2.066.61 3.02l-42.606 73.023c-4.12.863-7.277 4.344-7.277 8.719a9.082 9.082 0 0 0 18.164 0c0-1.008-.27-1.93-.57-2.836l42.82-73.262c3.992-.957 7.023-4.379 7.023-8.664 0-5.016-4.07-9.082-9.082-9.082m-67.859 29.227c2.738 0 4.961 2.222 4.961 4.96s-2.223 4.961-4.961 4.961a4.96 4.96 0 1 1 0-9.921m0 14.043a9.08 9.08 0 0 0 9.082-9.082c0-1.004-.273-1.93-.574-2.836-1.203-3.606-4.5-6.247-8.508-6.247-.64 0-1.203.239-1.809.368-4.117.859-7.273 4.34-7.273 8.715a9.08 9.08 0 0 0 9.082 9.082m-4.961 22.652a4.96 4.96 0 1 1 9.922 0c0 2.738-2.223 4.957-4.961 4.957s-4.96-2.219-4.96-4.957m14.042 0c0-1.008-.273-1.93-.574-2.836-1.203-3.606-4.496-6.246-8.508-6.246-.64 0-1.203.238-1.809.363-4.117.863-7.273 4.344-7.273 8.719 0 5.012 4.066 9.082 9.082 9.082s9.082-4.07 9.082-9.082M0 76.11c0 7.093 1.328 10.578 6.86 15.14l8.53 7.11c5.407 4.437 8.172 4.562 14.907 4.562h18.281c3.844 0 7.938-.844 7.938-5.766 0-5.062-4.563-5.781-7.938-5.781H28.266c-2.297 0-4.578-1.203-6.625-2.89l-6.97-5.891c-1.812-1.438-3.124-2.64-3.124-4.922V63.359c0-2.28 1.312-3.484 3.125-4.937l6.969-5.89c2.047-1.673 4.328-2.876 6.625-2.876h20.312c3.375 0 7.938-.734 7.938-5.781 0-4.922-4.094-5.766-7.938-5.766H30.297c-6.735 0-9.5.125-14.906 4.563l-8.532 7.094C1.33 54.344 0 57.828 0 64.922zm119.047-30.063c0-3.969-.844-7.938-5.766-7.938-4.937 0-5.781 3.97-5.781 7.938v33.547L90.547 90.297q-1.617 1.078-3.61 1.078h-3.843c-2.766 0-5.766-.719-6.735-2.406-.968-1.672-1.078-4.813-1.203-7.453l-1.203-35.47c-.125-3.733-.719-7.937-5.656-7.937-5.281 0-5.89 4.454-5.766 8.657l1.203 36.312c.235 6.25.125 11.188 5.297 15.64 3.844 3.235 7.453 4.204 10.703 4.204h8.532c3.125 0 6.25-1.438 9.984-3.844l9.375-6.14v1.921c0 3.97.844 8.063 5.766 8.063 6.14 0 5.656-5.89 5.656-8.531zm6.015 48.937c0 3.97.844 7.938 5.766 7.938 4.938 0 5.781-3.969 5.781-7.938V65.766l16.11-13.344c2.047-1.688 3.61-2.766 5.765-2.766h3.375c2.766 0 5.532 0 6.97 2.047 1.202 1.672 1.202 3.125 1.202 5.047 0 3.719 1.688 7.094 5.89 7.094 4.938 0 5.657-4.094 5.657-8.063 0-5.281-1.328-9.25-5.172-13.11-3.125-3.124-6.844-4.562-11.297-4.562h-9.265c-3.61 0-6.969 2.282-10.219 4.922l-9.016 7.469v-4.703c0-3.844-1.203-7.688-5.78-7.688-5.282 0-5.767 4.329-5.767 8.532z"/>
  <path d="M202.74 22.36c0-6.86-1.923-8.063-8.532-8.063h-12.14c-3.86 0-7.938.844-7.938 5.766 0 5.062 4.562 5.78 7.937 5.78h9.141v65.532h-9.14c-3.86 0-7.938.844-7.938 5.781 0 5.047 4.562 5.766 7.937 5.766h29.328c3.375 0 7.938-.719 7.938-5.766 0-4.937-4.078-5.781-7.938-5.781h-8.656z"/>
 </g>
</svg>
