<svg xmlns="http://www.w3.org/2000/svg" width="2851" height="1102" style="shape-rendering:geometricPrecision;text-rendering:geometricPrecision;image-rendering:optimizeQuality;fill-rule:evenodd;clip-rule:evenodd"><path fill="#063150" d="M2456 0h24q51 11 62 63 4 66-59 87l-354 605q13 56-34 89a81 81 0 0 1-76 0 76 76 0 0 1-37-77q11-51 60-63l354-607q-15-62 42-92zm3 35q36-5 48 31 3 42-39 50-43-8-40-50 7-24 31-31m-411 704q36-5 48 31 3 42-39 50-43-8-40-50 7-24 31-31" style="opacity:1"/><path fill="#0b504a" d="M2764 0h24q51 11 63 63v24q-11 48-59 62-178 302-355 606 13 53-29 86a81 81 0 0 1-73 7 75 75 0 0 1-45-81q11-51 60-63l354-607q-15-62 42-92zm3 35q36-5 48 31 3 42-39 50-43-8-40-50 7-24 31-31m-411 704q36-5 48 31 3 42-39 50-43-8-40-50 7-24 31-31" style="opacity:1"/><path fill="#0c514a" d="M16 39h98q18 5 24 24v66l-5 15 5 15v65q-5 18-22 23H14q-18-10-9-28 4-6 10-7h87l-3-49-60-2q-18-9-10-27 4-6 11-8l59-2 2-3 1-45-89-2Q-4 63 5 46q5-6 11-7M185 39h86q17 5 23 21 3 81 1 164-4 16-19 22-46 3-93 1-19-6-24-25V66q4-22 26-27m11 37h63v136h-63z" style="opacity:1"/><path fill="#063251" d="M358 99q18-3 22 15l1 21 29 64 29-63 1-19q4-25 28-16 6 4 7 13v27l-67 148q-4 8-12 9h-37q-20-8-12-26 5-6 12-8l22-1 16-25q-7-2-12-7l-39-89q-3-15 0-30 2-10 12-13M555 99q23-1 47 1 18 9 33 25l5 12q3 21 1 44-1 11-12 14l-82 1v4q4 6 11 10l70 2q16 5 13 23-3 9-13 11h-80l-10-5q-13-10-24-24l-3-13v-59q0-13 8-22 11-11 24-20 5-3 12-4m6 36h33l11 10 1 16h-59v-16q6-6 14-10M717 99q29-1 57 1 29 9 31 41l2 92q-8 22-28 10l-6-6-15 9h-47q-23-5-32-26-4-19-1-39 9-25 34-30h58l-2-13-3-3-46-1q-22-3-17-24 1-4 5-7zm7 87q21-1 44 1 2 1 2 3v10l-21 11q-18 2-33-1-2 0-3-2v-18l3-3zM856 99q21-3 23 20 29-31 69-18 30 15 25 49-6 20-26 12-12-10-10-24l-3-3q-10-2-19 1l-36 30-1 67q-6 20-26 12-9-6-9-15V117q1-13 13-18M1045 99q33-1 66 1 16 5 25 21 3 18-14 23-6 1-10-1l-11-8q-27-2-52 1l70 32q24 16 20 46-6 27-34 32h-64q-19-4-30-18-6-19 12-26h9l14 8q24 3 49 1 9 0 8-9l-3-3q-36-15-69-32-24-15-17-43 9-21 31-25" style="opacity:1"/><path fill="#063150" d="M1495 117q75-1 152 1 36 6 38 45l1 595h91q53 6 46 59-5 23-26 31l-21 5-140 1-147-2q-49-9-41-58 5-22 26-31l21-5h95V213l-94-1q-63-9-45-69 9-18 29-23zM1893 205q56-6 81 45 19 56-26 92a81 81 0 0 1-73 7q-53-27-44-86 14-48 62-58m3 35q36-5 48 31 3 42-39 50-43-8-40-50 7-24 31-31M0 658V511q2-43 30-75l18-18 88-73a142 142 0 0 1 76-30h211q57 7 45 64-6 19-25 26l-14 4-195 2q-21 2-37 12l-17 12-64 54q-8 7-14 15-6 9-6 21-2 63 1 128l7 15q41 36 84 71 19 15 46 18l188 1q62 9 44 70-9 17-28 22l-15 3H212q-30-1-55-16-12-6-21-14l-88-73q-24-21-38-48-8-23-10-44M556 315q50-7 57 42l2 24 12 325q1 16 8 32 12 13 29 16 33 6 69 2l13-4 147-92 1-298q7-58 64-46 24 8 29 34l2 12 2 429-4 32q-11 32-44 31-36 1-45-32l-3-16-1-34-96 62q-24 14-51 19H647q-56-9-92-52-22-32-24-71l-12-350q-1-25 10-48 11-14 27-17" style="opacity:1"/><path fill="#063150" d="M1076 315q53-6 59 47l1 55q47-40 95-78 23-18 53-24h107q37 4 67 28 62 55 51 139-4 53-57 46-28-6-35-33l-3-11-3-39q-9-30-39-33-33-3-64 0-19 6-33 18-70 57-138 115l-3 269q-11 50-62 38-19-6-27-24-4-10-5-21V363q2-18 9-31 11-14 27-17M1893 471q56-6 81 45 19 56-26 92a81 81 0 0 1-73 7q-53-27-44-86 14-48 62-58m3 35q36-5 48 31 3 42-39 50-43-8-40-50 7-24 31-31" style="opacity:1"/><path fill="#063251" d="M1495 1102h-113q-18-11-9-29 4-6 10-7h37V930l-35-1q-16-4-15-21 2-12 14-15h73v173h13v-49q5-21 26-15 7 3 10 12v76q-3 8-11 12M1660 1102h-24q-19-12-9-30 3-4 8-6l1-71-85-1q-12-3-15-15v-70q3-12 14-16h109q10 4 13 14v182q-4 9-12 13m-87-172h63v28h-63zM1826 1102h-24q-19-12-9-30 3-4 8-6l1-71-85-1q-12-3-15-15v-70q3-12 14-16h109q10 4 13 14v182q-4 9-12 13m-87-172h63v28h-63zM1991 1102h-109q-12-5-14-17V908q2-12 12-15h24q21 10 9 31l-7 6q-2 35-1 71h85q12 2 14 15v71q-3 11-13 15m-86-64h63v28h-63z" style="opacity:1"/><path fill="#0c514a" d="M2325 1102h-125v-94q3-23 25-28h75v-50l-89-2q-17-11-8-28 4-5 11-7h97q17 4 24 21 3 38 1 77-5 20-23 24l-76 1v50h88q15 7 11 24-3 8-11 12M2480 1102h-90q-19-7-24-26-2-81 1-161 5-16 21-21a579 579 0 0 1 94 0q15 6 20 24v160q-5 18-22 24m-77-172h63v136h-63zM2657 1102h-125v-94q3-23 25-28h75v-50l-89-2q-17-11-8-28 4-5 11-7h97q17 4 24 21 3 38 1 77-5 20-23 24l-76 1v50h88q15 7 11 24-3 8-11 12M2821 1102h-109q-12-5-14-17V908q2-12 12-15h24q21 10 9 31l-7 6q-2 35-1 71h85q12 2 14 15v71q-3 11-13 15m-86-64h63v28h-63z" style="opacity:1"/><path fill="#063251" d="M2067 977q38-1 75 1 8 3 10 13 4 15-7 25l-5 2h-75q-18-8-13-26 3-12 15-15" style="opacity:1"/></svg>