<svg viewBox="0 0 164 138" xmlns="http://www.w3.org/2000/svg">
 <path fill="#0c544c" d="M152.215.395A12 12 0 0 0 141.5 6.393a11.97 11.97 0 0 0-1.008 9.746l-56.556 97.957A11.97 11.97 0 0 0 76 119.842c-3.314 5.739-1.347 13.078 4.393 16.392s13.08 1.348 16.392-4.392a11.97 11.97 0 0 0 1.008-9.746v-.002l56.555-97.955a11.97 11.97 0 0 0 7.937-5.746c3.313-5.74 1.347-13.079-4.392-16.393a11.95 11.95 0 0 0-5.678-1.605m-.461 5.521a6.5 6.5 0 0 1 3.389.848 6.5 6.5 0 1 1-6.5 11.257 6.5 6.5 0 0 1 3.11-12.105m-65.51 113.428a6.5 6.5 0 0 1 3.399.869 6.5 6.5 0 0 1-6.5 11.258 6.5 6.5 0 0 1 3.101-12.127"/>
 <path fill="#073551" d="M102.215.395A12 12 0 0 0 91.5 6.393a11.97 11.97 0 0 0-1.008 9.746l-56.556 97.957A11.97 11.97 0 0 0 26 119.842c-3.314 5.739-1.347 13.078 4.393 16.392s13.08 1.348 16.392-4.392a11.97 11.97 0 0 0 1.008-9.746v-.002l56.555-97.955a11.97 11.97 0 0 0 7.937-5.746c3.313-5.74 1.347-13.079-4.392-16.393a11.95 11.95 0 0 0-5.678-1.605m-.461 5.521a6.5 6.5 0 0 1 3.389.848 6.5 6.5 0 1 1-6.5 11.257 6.5 6.5 0 0 1 3.11-12.105M12 34C5.373 34 0 39.373 0 46s5.373 12 12 12 12-5.373 12-12-5.373-12-12-12m0 5.5a6.5 6.5 0 0 1 0 13 6.5 6.5 0 0 1 0-13M12 76C5.373 76 0 81.373 0 88s5.373 12 12 12 12-5.373 12-12-5.373-12-12-12m0 5.5a6.5 6.5 0 0 1 0 13 6.5 6.5 0 0 1 0-13m24.244 37.844a6.5 6.5 0 0 1 3.399.869 6.5 6.5 0 0 1-6.5 11.258 6.5 6.5 0 0 1 3.101-12.127"/>
</svg>
