<svg xmlns="http://www.w3.org/2000/svg" viewBox="0 0 123 103">
 <path fill="#fff" d="M114.043.314a9 9 0 0 0-8.059 4.457 8.98 8.98 0 0 0-.795 7.305l-42.673 73.03a9.002 9.002 0 0 0-2.744 16.59 9 9 0 0 0 12.31-3.231 8.98 8.98 0 0 0 .795-7.305l42.674-73.03a8.98 8.98 0 0 0 5.974-4.278 9 9 0 0 0-3.23-12.311 8.96 8.96 0 0 0-4.252-1.227m-.13 4.123a4.877 4.877 0 0 1 4.053 7.334 4.876 4.876 0 1 1-4.054-7.334M64.466 89.051a4.874 4.874 0 0 1 4.053 7.332 4.874 4.874 0 1 1-4.053-7.332"/>
 <path fill="#fff" d="M77.043.314a9 9 0 0 0-8.059 4.457 8.98 8.98 0 0 0-.795 7.305l-42.673 73.03a9.002 9.002 0 0 0-2.744 16.59 9 9 0 0 0 12.31-3.231 8.98 8.98 0 0 0 .795-7.305l42.674-73.03a8.98 8.98 0 0 0 5.974-4.278 9 9 0 0 0-3.23-12.311A8.96 8.96 0 0 0 77.043.314m-.13 4.124a4.877 4.877 0 0 1 4.053 7.334 4.876 4.876 0 1 1-4.054-7.334M9 25a9 9 0 1 0 0 18 9 9 0 0 0 0-18m0 4.125a4.875 4.875 0 1 1 0 9.75 4.875 4.875 0 0 1 0-9.75M9 57a9 9 0 1 0 0 18 9 9 0 0 0 0-18m0 4.125a4.875 4.875 0 1 1 0 9.75 4.875 4.875 0 0 1 0-9.75m18.467 27.926a4.874 4.874 0 0 1 4.053 7.332 4.874 4.874 0 1 1-4.053-7.332"/>
</svg>
