<svg xmlns="http://www.w3.org/2000/svg" viewBox="0 0 123.184 102.926">
 <path fill="#0c544c" d="M114.102 14.043a4.96 4.96 0 0 1-4.961-4.961 4.96 4.96 0 0 1 4.96-4.961 4.96 4.96 0 1 1 0 9.922M64.833 98.805a4.96 4.96 0 0 1-4.961-4.961 4.96 4.96 0 0 1 4.961-4.961 4.957 4.957 0 0 1 4.957 4.96 4.96 4.96 0 0 1-4.957 4.962M114.102 0a9.08 9.08 0 0 0-9.082 9.082c0 1.07.27 2.066.609 3.02L63.023 85.125c-4.117.863-7.273 4.344-7.273 8.719a9.08 9.08 0 0 0 9.082 9.082c5.012 0 9.078-4.067 9.078-9.082 0-1.008-.27-1.93-.57-2.836l42.82-73.262c3.992-.957 7.024-4.379 7.024-8.664A9.08 9.08 0 0 0 114.102 0"/>
 <path fill="#073551" d="M76.941 14.043a4.96 4.96 0 0 1-4.96-4.961 4.96 4.96 0 0 1 4.96-4.961 4.957 4.957 0 0 1 4.957 4.961 4.96 4.96 0 0 1-4.957 4.961M27.668 98.805a4.96 4.96 0 1 1 0-9.922 4.96 4.96 0 0 1 4.96 4.96 4.96 4.96 0 0 1-4.96 4.962M76.942 0a9.08 9.08 0 0 0-9.082 9.082c0 1.07.269 2.066.609 3.02L25.863 85.125c-4.12.863-7.277 4.344-7.277 8.719a9.082 9.082 0 0 0 18.164 0c0-1.008-.27-1.93-.57-2.836L79 17.746c3.992-.957 7.023-4.379 7.023-8.664 0-5.016-4.07-9.082-9.082-9.082M9.082 29.227a4.963 4.963 0 0 1 4.961 4.96 4.96 4.96 0 1 1-4.961-4.961m0 14.044a9.08 9.08 0 0 0 9.082-9.083c0-1.003-.273-1.93-.574-2.835-1.203-3.606-4.5-6.246-8.508-6.246-.64 0-1.203.238-1.809.367C3.156 26.332 0 29.813 0 34.187a9.08 9.08 0 0 0 9.082 9.082M4.121 65.922a4.96 4.96 0 1 1 9.922 0c0 2.738-2.223 4.957-4.961 4.957s-4.961-2.219-4.961-4.957m14.043 0c0-1.008-.273-1.93-.574-2.836-1.203-3.606-4.496-6.246-8.508-6.246-.64 0-1.203.238-1.809.363C3.156 58.066 0 61.547 0 65.922c0 5.012 4.066 9.082 9.082 9.082s9.082-4.07 9.082-9.082"/>
</svg>
