<svg xmlns="http://www.w3.org/2000/svg" viewBox="0 0 458 138">
 <path fill="#0c544c" d="M446.215.395A12 12 0 0 0 435.5 6.393a11.97 11.97 0 0 0-1.008 9.746l-56.556 97.957a11.97 11.97 0 0 0-7.936 5.746c-3.314 5.739-1.347 13.078 4.393 16.392s13.08 1.348 16.392-4.392a11.97 11.97 0 0 0 1.008-9.746v-.002l56.555-97.955a11.97 11.97 0 0 0 7.937-5.746c3.313-5.74 1.347-13.079-4.392-16.393a11.95 11.95 0 0 0-5.678-1.605m-.461 5.521a6.5 6.5 0 0 1 3.389.848 6.5 6.5 0 1 1-6.5 11.257 6.5 6.5 0 0 1 3.11-12.105m-65.51 113.428a6.5 6.5 0 0 1 3.399.869 6.5 6.5 0 0 1-6.5 11.258 6.5 6.5 0 0 1 3.101-12.127"/>
 <path fill="#073551" d="M396.215.395A12 12 0 0 0 385.5 6.393a11.97 11.97 0 0 0-1.008 9.746l-56.556 97.957a11.97 11.97 0 0 0-7.936 5.746c-3.314 5.739-1.347 13.078 4.393 16.392s13.08 1.348 16.392-4.392a11.97 11.97 0 0 0 1.008-9.746v-.002l56.555-97.955a11.97 11.97 0 0 0 7.937-5.746c3.313-5.74 1.347-13.079-4.392-16.393a11.95 11.95 0 0 0-5.678-1.605m-.461 5.521a6.5 6.5 0 0 1 3.389.848 6.5 6.5 0 1 1-6.5 11.257 6.5 6.5 0 0 1 3.11-12.105M243.97 18.305c-5.151 0-10.596 1.129-10.596 7.715 0 6.774 6.09 7.736 10.596 7.736h12.2v87.693h-12.2c-5.152 0-10.596 1.13-10.596 7.737 0 6.754 6.09 7.714 10.596 7.714h39.146c4.505 0 10.596-.96 10.596-7.714 0-6.607-5.444-7.737-10.596-7.737h-11.555V29.094c0-9.18-2.563-10.79-11.386-10.79zM306 34c-6.627 0-12 5.373-12 12s5.373 12 12 12 12-5.373 12-12-5.373-12-12-12m0 5.5a6.5 6.5 0 0 1 0 13 6.5 6.5 0 0 1 0-13M41.389 50.17c-8.99 0-12.68.167-19.897 6.105l-11.388 9.493C2.72 71.894.947 76.558.947 86.05v14.969c0 9.493 1.774 14.155 9.157 20.261l11.388 9.514c7.216 5.938 10.908 6.105 19.897 6.105h24.4c5.13 0 10.596-1.128 10.596-7.714 0-6.774-6.09-7.737-10.596-7.737H38.678c-3.066 0-6.111-1.61-8.844-3.869l-9.303-7.883c-2.419-1.924-4.17-3.534-4.17-6.586V83.96c0-3.053 1.751-4.663 4.17-6.607l9.303-7.883c2.732-2.237 5.778-3.848 8.844-3.848h27.111c4.505 0 10.596-.982 10.596-7.736 0-6.586-5.465-7.715-10.596-7.715zm50.72 0c-7.049 0-7.862 5.96-7.695 11.584l1.606 48.592c.313 8.364.167 14.97 7.07 20.93 5.13 4.327 9.949 5.624 14.287 5.624h11.389c4.17 0 8.34-1.922 13.326-5.142l12.513-8.219v2.572c0 5.31 1.126 10.79 7.696 10.79 8.197 0 7.55-7.883 7.55-11.417V60.793c0-5.311-1.127-10.623-7.697-10.623-6.59 0-7.717 5.311-7.717 10.623v44.89l-22.626 14.323q-2.16 1.443-4.819 1.443h-5.13c-3.693 0-7.698-.962-8.99-3.22-1.294-2.237-1.44-6.44-1.606-9.973L99.66 60.793c-.166-4.998-.96-10.623-7.55-10.623m83.467 0c-7.05 0-7.695 5.792-7.695 11.416v64.693c0 5.31 1.125 10.621 7.695 10.621 6.59 0 7.717-5.31 7.717-10.62v-39.1l21.504-17.858c2.732-2.259 4.817-3.7 7.695-3.7h4.504c3.691 0 7.384 0 9.303 2.74 1.606 2.236 1.605 4.18 1.605 6.751 0 4.977 2.254 9.494 7.864 9.494 6.59 0 7.548-5.478 7.548-10.789 0-7.067-1.772-12.378-6.902-17.543-4.17-4.182-9.135-6.105-15.08-6.105h-12.367c-4.818 0-9.303 3.053-13.64 6.586l-12.034 9.996v-6.295c0-5.144-1.607-10.287-7.717-10.287M306 76c-6.627 0-12 5.373-12 12s5.373 12 12 12 12-5.373 12-12-5.373-12-12-12m0 5.5a6.5 6.5 0 0 1 0 13 6.5 6.5 0 0 1 0-13m24.244 37.844a6.5 6.5 0 0 1 3.399.869 6.5 6.5 0 0 1-6.5 11.258 6.5 6.5 0 0 1 3.101-12.127"/>
</svg>
