<?xml version="1.0" encoding="UTF-8" standalone="no"?>
<!-- Created with Inkscape (http://www.inkscape.org/) -->

<svg
   xmlns:dc="http://purl.org/dc/elements/1.1/"
   xmlns:cc="http://creativecommons.org/ns#"
   xmlns:rdf="http://www.w3.org/1999/02/22-rdf-syntax-ns#"
   xmlns:svg="http://www.w3.org/2000/svg"
   xmlns="http://www.w3.org/2000/svg"
   xmlns:sodipodi="http://sodipodi.sourceforge.net/DTD/sodipodi-0.dtd"
   xmlns:inkscape="http://www.inkscape.org/namespaces/inkscape"
   id="svg2"
   version="1.1"
   inkscape:version="0.91 r13725"
   xml:space="preserve"
   width="579.0415"
   height="159.31786"
   viewBox="0 0 579.0415 159.31786"
   sodipodi:docname="curl-logo.svg"><metadata
     id="metadata8"><rdf:RDF><cc:Work
         rdf:about=""><dc:format>image/svg+xml</dc:format><dc:type
           rdf:resource="http://purl.org/dc/dcmitype/StillImage" /><dc:title></dc:title></cc:Work></rdf:RDF></metadata><defs
     id="defs6"><clipPath
       clipPathUnits="userSpaceOnUse"
       id="clipPath16"><path
         d="M 0,500 500,500 500,0 0,0 0,500 Z"
         id="path18"
         inkscape:connector-curvature="0" /></clipPath></defs><sodipodi:namedview
     pagecolor="#ffffff"
     bordercolor="#666666"
     borderopacity="1"
     objecttolerance="10"
     gridtolerance="10"
     guidetolerance="10"
     inkscape:pageopacity="0"
     inkscape:pageshadow="2"
     inkscape:window-width="1916"
     inkscape:window-height="1052"
     id="namedview4"
     showgrid="false"
     inkscape:zoom="1.3552"
     inkscape:cx="251.47271"
     inkscape:cy="76.885104"
     inkscape:window-x="0"
     inkscape:window-y="26"
     inkscape:window-maximized="0"
     inkscape:current-layer="g10"
     fit-margin-top="0"
     fit-margin-left="0"
     fit-margin-right="0"
     fit-margin-bottom="0" /><g
     id="g10"
     inkscape:groupmode="layer"
     inkscape:label="curl-logo"
     transform="matrix(1.25,0,0,-1.25,-107.76406,394.93275)"><g
       id="g12"><g
         id="g14"
         clip-path="url(#clipPath16)"><g
           id="g20"
           transform="translate(420.1866,301.9042)"><path
             d="M 0,0 C -2.74,0 -4.96,2.221 -4.96,4.96 -4.96,7.7 -2.74,9.921 0,9.921 2.74,9.921 4.96,7.7 4.96,4.96 4.96,2.221 2.74,0 0,0 m -49.27,-84.762 c -2.74,0 -4.961,2.221 -4.961,4.961 0,2.739 2.221,4.96 4.961,4.96 2.739,0 4.96,-2.221 4.96,-4.96 0,-2.74 -2.221,-4.961 -4.96,-4.961 M 0,14.042 c -5.016,0 -9.082,-4.066 -9.082,-9.082 0,-1.071 0.27,-2.066 0.61,-3.021 l -42.606,-73.024 c -4.118,-0.862 -7.274,-4.342 -7.274,-8.716 0,-5.016 4.066,-9.082 9.082,-9.082 5.015,0 9.081,4.066 9.081,9.082 0,1.005 -0.271,1.93 -0.572,2.834 L 2.061,-3.705 c 3.992,0.956 7.021,4.38 7.021,8.665 0,5.016 -4.067,9.082 -9.082,9.082"
             style="fill:#0f564d;fill-opacity:1;fill-rule:nonzero;stroke:none"
             id="path22"
             inkscape:connector-curvature="0" /></g><g
           id="g24"
           transform="translate(383.0255,301.9042)"><path
             d="M 0,0 C -2.74,0 -4.96,2.221 -4.96,4.96 -4.96,7.7 -2.74,9.921 0,9.921 2.74,9.921 4.96,7.7 4.96,4.96 4.96,2.221 2.74,0 0,0 m -49.27,-84.762 c -2.74,0 -4.961,2.221 -4.961,4.961 0,2.739 2.221,4.96 4.961,4.96 2.739,0 4.96,-2.221 4.96,-4.96 0,-2.74 -2.221,-4.961 -4.96,-4.961 M 0,14.042 c -5.016,0 -9.082,-4.066 -9.082,-9.082 0,-1.071 0.27,-2.066 0.61,-3.021 l -42.606,-73.024 c -4.118,-0.862 -7.274,-4.342 -7.274,-8.716 0,-5.016 4.066,-9.082 9.082,-9.082 5.015,0 9.081,4.066 9.081,9.082 0,1.005 -0.271,1.93 -0.572,2.834 L 2.061,-3.705 c 3.992,0.956 7.021,4.38 7.021,8.665 0,5.016 -4.067,9.082 -9.082,9.082"
             style="fill:#093754;fill-opacity:1;fill-rule:nonzero;stroke:none"
             id="path26"
             inkscape:connector-curvature="0" /></g><g
           id="g28"
           transform="translate(315.1673,286.7181)"><path
             d="M 0,0 C 2.74,0 4.96,-2.221 4.96,-4.96 4.96,-7.7 2.74,-9.921 0,-9.921 -2.74,-9.921 -4.96,-7.7 -4.96,-4.96 -4.96,-2.221 -2.74,0 0,0 m 0,-14.042 c 5.015,0 9.082,4.066 9.082,9.082 0,1.005 -0.271,1.93 -0.573,2.834 C 7.306,1.48 4.01,4.121 0,4.121 c -0.641,0 -1.204,-0.238 -1.807,-0.365 -4.119,-0.862 -7.275,-4.342 -7.275,-8.716 0,-5.016 4.067,-9.082 9.082,-9.082"
             style="fill:#093754;fill-opacity:1;fill-rule:nonzero;stroke:none"
             id="path30"
             inkscape:connector-curvature="0" /></g><g
           id="g32"
           transform="translate(310.2069,250.0249)"><path
             d="M 0,0 C 0,2.74 2.221,4.96 4.96,4.96 7.7,4.96 9.921,2.74 9.921,0 9.921,-2.74 7.7,-4.96 4.96,-4.96 2.221,-4.96 0,-2.74 0,0 m 14.042,0 c 0,1.006 -0.271,1.93 -0.573,2.834 C 12.266,6.44 8.971,9.082 4.96,9.082 4.319,9.082 3.757,8.843 3.153,8.716 -0.965,7.855 -4.121,4.374 -4.121,0 c 0,-5.015 4.066,-9.082 9.081,-9.082 5.016,0 9.082,4.067 9.082,9.082"
             style="fill:#093754;fill-opacity:1;fill-rule:nonzero;stroke:none"
             id="path34"
             inkscape:connector-curvature="0" /></g></g></g><text
       transform="matrix(1,0,0,-1,71.1797,213.0234)"
       style="font-variant:normal;font-weight:normal;font-stretch:normal;font-size:120.25240326px;font-family:'OCR A Std';-inkscape-font-specification:OCRAStd;writing-mode:lr-tb;fill:#093754;fill-opacity:1;fill-rule:nonzero;stroke:none"
       id="text36"><tspan
         x="0 62.531246 125.06249 168.47362"
         y="0"
         sodipodi:role="line"
         id="tspan38">curl</tspan></text>
<text
       y="-213.02341"
       x="414.25034"
       style="font-variant:normal;font-weight:normal;font-stretch:normal;font-size:120.25240326px;font-family:'OCR A Std';-inkscape-font-specification:OCRAStd;writing-mode:lr-tb;fill:#093754;fill-opacity:1;fill-rule:nonzero;stroke:none"
       id="text36-6"
       transform="scale(1,-1)"><tspan
         x="414.25034 476.78156 539.31287 582.724"
         y="-213.02341"
         sodipodi:role="line"
         id="tspan38-4">up</tspan></text>
</g></svg>