<svg xmlns="http://www.w3.org/2000/svg" width="2851" height="1130" style="shape-rendering:geometricPrecision;text-rendering:geometricPrecision;image-rendering:optimizeQuality;fill-rule:evenodd;clip-rule:evenodd"><path fill="#0c514a" d="M49 0h132q33 5 40 39v84q-1 15-9 28 8 12 9 27v84q-6 29-34 38H44q-25-10-18-35 5-13 19-16h124l-1-63q0-5-3-8l-87-3q-24-11-16-35 6-10 17-15l85-2q4-3 4-8l1-62-127-2Q17 39 27 14 34 2 49 0M304 0h115q33 6 40 40 2 114-1 228-9 24-33 32l-64 1-67-2q-25-9-31-35V38q9-32 41-38m12 53h91v196h-91z" style="opacity:1"/><path fill="#063150" d="M2456 28q46-6 74 32 18 27 11 60-12 45-57 57-178 302-355 606 13 53-29 86a81 81 0 0 1-73 7 75 75 0 0 1-45-81q11-51 60-63l354-607q-15-62 42-92zm3 35q36-5 48 31 3 42-39 50-43-8-40-50 7-24 31-31m-411 704q36-5 48 31 3 42-39 50-43-8-40-50 7-24 31-31" style="opacity:1"/><path fill="#0b504a" d="M2851 91v24q-11 48-59 62-178 302-355 606 13 53-29 86a81 81 0 0 1-73 7q-56-28-43-90 15-43 58-54l354-607q-13-52 29-85 29-19 64-10 44 15 54 61m-84-28q36-5 48 31 3 42-39 50-43-8-40-50 7-24 31-31m-411 704q36-5 48 31 3 42-39 50-43-8-40-50 7-24 31-31" style="opacity:1"/><path fill="#063150" d="M1495 145q75-1 152 1 36 6 38 45l1 595h91q53 6 46 59-5 23-26 31l-21 5-140 1-147-2q-49-9-41-58 5-22 26-31l21-5h95V241l-94-1q-63-9-45-69 9-18 29-23z" style="opacity:1"/><path fill="#063251" d="M512 160q14-1 18 12l2 21 25 55 26-56 1-19q6-18 23-12 6 5 8 15 3 17-5 34l-54 117q-4 6-10 9h-34q-16-5-12-20 3-9 12-10l19-1 14-21-10-7-34-76q-3-15-1-29 3-10 12-12M684 160q42-10 70 23 6 8 6 19v28q0 12-11 15l-72 1v4q3 5 9 8l66 3q13 9 6 23-4 5-9 6h-72q-16-9-28-22l-4-10q-2-34 1-66 3-11 12-17l14-11q5-3 12-4m5 32q15-1 30 1l9 9 1 13h-52v-15zM826 160q24-1 49 1 29 9 28 41l2 75q-6 22-26 10l-5-4-13 7h-42q-23-5-29-28v-28q6-24 30-28h52l-2-11-4-3-42-1q-19-6-11-24 5-6 13-7m5 77q20-1 39 1 3 4 2 11l-19 10q-15 2-29-1-2-4-2-9-4-13 9-12M947 160q18-1 19 18 25-28 62-16 27 15 21 46-6 14-20 9-8-3-10-11l-2-13q-9-3-17-1l-33 27-2 61q-6 16-23 9-6-3-7-10V172q2-10 12-12M1113 160q29-1 57 1 11 5 20 15 8 17-10 24-6 1-10-1l-10-7q-24-2-45 1l62 28q21 13 18 38-3 26-29 31h-59q-17-3-26-16-5-23 19-23l12 7q24 3 49 0 5-4 0-9-33-14-63-29-25-19-10-46 10-12 25-14" style="opacity:1"/><path fill="#063150" d="M1893 233q56-6 81 45 19 56-26 92a81 81 0 0 1-73 7q-53-27-44-86 14-48 62-58m3 35q36-5 48 31 3 42-39 50-43-8-40-50 7-24 31-31M0 686V539q2-43 30-75l18-18 88-73a142 142 0 0 1 76-30h211q57 7 45 64-6 19-25 26l-14 4-195 2q-21 2-37 12l-17 12-64 54q-8 7-14 15-6 9-6 21-2 63 1 128l7 15q41 36 84 71 19 15 46 18l188 1q62 9 44 70-9 17-28 22l-15 3H212q-30-1-55-16-12-6-21-14l-88-73q-24-21-38-48-8-23-10-44M556 343q50-7 57 42l2 24 12 325q1 16 8 32 12 13 29 16 33 6 69 2l13-4 147-92 1-298q7-58 64-46 24 8 29 34l2 12 2 429-4 32q-11 32-44 31-36 1-45-32l-3-16-1-34-96 62q-24 14-51 19H647q-56-9-92-52-22-32-24-71l-12-350q-1-25 10-48 11-14 27-17M1076 343q53-6 59 47l1 55q47-40 95-78 23-18 53-24h107q37 4 67 28 62 55 51 139-4 53-57 46-28-6-35-33l-3-11-3-39q-9-30-39-33-33-3-64 0-19 6-33 18-70 57-138 115l-3 269q-11 50-62 38-19-6-27-24-4-10-5-21V391q2-18 9-31 11-14 27-17M1893 499q56-6 81 45 19 56-26 92a81 81 0 0 1-73 7q-53-27-44-86 14-48 62-58m3 35q36-5 48 31 3 42-39 50-43-8-40-50 7-24 31-31" style="opacity:1"/><path fill="#063251" d="M1495 1130h-113q-18-11-9-29 4-6 10-7h37V958l-35-1q-16-4-15-21 2-12 14-15h73v173h13v-49q5-21 26-15 7 3 10 12v76q-3 8-11 12M1660 1130h-24q-19-12-9-30 3-4 8-6l1-71-85-1q-12-3-15-15v-70q3-12 14-16h109q10 4 13 14v182q-4 9-12 13m-87-172h63v28h-63zM1826 1130h-24q-19-12-9-30 3-4 8-6l1-71-85-1q-12-3-15-15v-70q3-12 14-16h109q10 4 13 14v182q-4 9-12 13m-87-172h63v28h-63zM1991 1130h-109q-12-5-14-17V936q2-12 12-15h24q21 10 9 31l-7 6q-2 35-1 71h85q12 2 14 15v71q-3 11-13 15m-86-64h63v28h-63z" style="opacity:1"/><path fill="#0c514a" d="M2325 1130h-125v-94q3-23 25-28h75v-50l-89-2q-17-11-8-28 4-5 11-7h97q17 4 24 21 3 38 1 77-5 20-23 24l-76 1v50h88q15 7 11 24-3 8-11 12M2480 1130h-90q-19-7-24-26-2-81 1-161 5-16 21-21a579 579 0 0 1 94 0q15 6 20 24v160q-5 18-22 24m-77-172h63v136h-63zM2657 1130h-125v-94q3-23 25-28h75v-50l-89-2q-17-11-8-28 4-5 11-7h97q17 4 24 21 3 38 1 77-5 20-23 24l-76 1v50h88q15 7 11 24-3 8-11 12M2821 1130h-109q-12-5-14-17V936q2-12 12-15h24q21 10 9 31l-7 6q-2 35-1 71h85q12 2 14 15v71q-3 11-13 15m-86-64h63v28h-63z" style="opacity:1"/><path fill="#063251" d="M2067 1005q38-1 75 1 8 4 10 13 4 15-7 25l-5 2h-75q-18-8-13-26 3-12 15-15" style="opacity:1"/></svg>