<?xml version="1.0" encoding="UTF-8" standalone="no"?>
<!-- Created with Inkscape (http://www.inkscape.org/) -->

<svg
   id="svg2"
   version="1.1"
   inkscape:version="1.4.3 (0d15f75, 2025-12-25)"
   xml:space="preserve"
   width="579.0415"
   height="159.31786"
   viewBox="0 0 579.0415 159.31786"
   sodipodi:docname="curl-up.svg"
   xmlns:inkscape="http://www.inkscape.org/namespaces/inkscape"
   xmlns:sodipodi="http://sodipodi.sourceforge.net/DTD/sodipodi-0.dtd"
   xmlns="http://www.w3.org/2000/svg"
   xmlns:svg="http://www.w3.org/2000/svg"
   xmlns:rdf="http://www.w3.org/1999/02/22-rdf-syntax-ns#"
   xmlns:cc="http://creativecommons.org/ns#"
   xmlns:dc="http://purl.org/dc/elements/1.1/"><metadata
     id="metadata8"><rdf:RDF><cc:Work
         rdf:about=""><dc:format>image/svg+xml</dc:format><dc:type
           rdf:resource="http://purl.org/dc/dcmitype/StillImage" /></cc:Work></rdf:RDF></metadata><defs
     id="defs6"><clipPath
   clipPathUnits="userSpaceOnUse"
   id="clipPath16"><path
     d="M 0,500 500,500 500,0 0,0 0,500 Z"
     id="path18"
     inkscape:connector-curvature="0" /></clipPath>

</defs><sodipodi:namedview
     pagecolor="#ffffff"
     bordercolor="#666666"
     borderopacity="1"
     objecttolerance="10"
     gridtolerance="10"
     guidetolerance="10"
     inkscape:pageopacity="0"
     inkscape:pageshadow="2"
     inkscape:window-width="1673"
     inkscape:window-height="970"
     id="namedview4"
     showgrid="false"
     inkscape:zoom="256"
     inkscape:cx="369.38086"
     inkscape:cy="0.63085938"
     inkscape:window-x="0"
     inkscape:window-y="32"
     inkscape:window-maximized="0"
     inkscape:current-layer="svg2"
     fit-margin-top="0"
     fit-margin-left="0"
     fit-margin-right="0"
     fit-margin-bottom="0"
     inkscape:pagecheckerboard="1"
     inkscape:showpageshadow="0"
     inkscape:deskcolor="#d1d1d1" /><g
     aria-label="up"
     transform="matrix(1.25,0,0,1.25,-107.58569,394.39904)"
     id="text36-6"
     style="line-height:0%;font-family:'OCR A Std';-inkscape-font-specification:OCRAStd;display:inline;fill:#093754;fill-opacity:1"
     inkscape:label="up"><path
       d="m 485.80028,-269.9026 c 0,-3.96832 -0.84177,-7.93663 -5.7721,-7.93663 -4.93033,0 -5.7721,3.96831 -5.7721,7.93663 v 33.55031 l -16.95553,10.70242 c -1.08227,0.72152 -2.28479,1.08227 -3.60756,1.08227 h -3.84806 c -2.7658,0 -5.7721,-0.72151 -6.73411,-2.40504 -0.96202,-1.68353 -1.08227,-4.81008 -1.20252,-7.45562 l -1.20252,-35.47434 c -0.12026,-3.72781 -0.72152,-7.93663 -5.65185,-7.93663 -5.29109,0 -5.89235,4.44932 -5.77209,8.65814 l 1.20252,36.3161 c 0.2405,6.25311 0.12025,11.18344 5.29108,15.63276 3.84807,3.24681 7.45563,4.20882 10.70243,4.20882 h 8.53789 c 3.12656,0 6.25311,-1.44302 9.98092,-3.84806 l 9.37966,-6.13285 v 1.92403 c 0,3.96832 0.84176,8.05688 5.77209,8.05688 6.13285,0 5.65185,-5.89234 5.65185,-8.53789 z"
       style="font-size:120.252px;line-height:1.25;fill:#093754;fill-opacity:1"
       id="path952" /><path
       d="m 548.33149,-250.42178 c 0,-8.17713 -0.60126,-11.42394 -7.33537,-16.71503 l -6.97461,-5.41134 c -3.12656,-2.40504 -6.85437,-5.29108 -9.62016,-5.29108 h -7.93664 c -3.2468,0 -7.81638,4.32907 -10.82268,6.97461 l -2.28478,2.04429 v -1.44303 c 0,-3.84806 -1.08227,-7.57587 -5.7721,-7.57587 -5.29109,0 -5.77209,4.44932 -5.77209,8.53789 v 72.87271 c 0,3.96831 0.84176,7.93663 5.77209,7.93663 4.93033,0 5.7721,-3.96832 5.7721,-7.93663 v -23.20864 l 2.28478,2.16454 c 3.72782,3.48731 6.13286,6.85436 11.30369,6.85436 h 7.81638 c 3.12655,0 6.85437,-3.2468 9.25941,-5.17083 l 6.97461,-5.53159 c 6.73411,-5.29109 7.33537,-8.41764 7.33537,-16.71503 z m -11.54419,13.94923 c 0,2.16454 -0.60126,3.48731 -2.40504,5.05059 l -8.65814,7.21512 c -1.08227,0.96201 -2.40504,2.04428 -3.96832,2.04428 h -3.0063 c -1.44302,0 -3.2468,-1.56327 -4.93033,-3.2468 l -8.7784,-8.29739 c -1.20252,-1.08227 -1.68352,-3.2468 -1.68352,-4.93033 v -11.30369 c 0,-2.52529 0.84176,-3.84806 3.2468,-6.13285 l 7.21512,-6.85437 c 1.20252,-1.20252 3.2468,-3.36705 4.93033,-3.36705 h 3.0063 c 1.56328,0 2.88605,1.08227 3.96832,2.04428 l 8.65814,7.21512 c 1.80378,1.56328 2.40504,2.88605 2.40504,5.05059 z"
       style="font-size:120.252px;line-height:1.25;fill:#093754;fill-opacity:1"
       id="path954" /></g><g
     id="g2"
     transform="matrix(1.5580525,0,0,-1.5580525,-322.5344,471.07126)"
     inkscape:label="curl-logo"><path
       fill="#0f574c"
       d="m 474.24565,302.34254 a 7.2,7.2 0 0 1 -6.4472,-3.5656 7.184,7.184 0 0 1 -0.636,-5.844 l -34.1384,-58.424 a 7.2016,7.2016 0 0 1 -2.1952,-13.272 7.2,7.2 0 0 1 9.848,2.5848 7.184,7.184 0 0 1 0.636,5.844 l 34.1392,58.424 a 7.184,7.184 0 0 1 4.7792,3.4224 7.2,7.2 0 0 1 -2.584,9.8488 7.168,7.168 0 0 1 -3.4016,0.9816 m -0.104,-3.2984 a 3.9016,3.9016 0 0 0 3.2424,-5.8672 3.9008,3.9008 0 1 0 -3.2432,5.8672 m -39.5568,-67.6912 a 3.8992,3.8992 0 0 0 3.2424,-5.8656 3.8992,3.8992 0 1 0 -3.2424,5.8656"
       id="path1-3"
       style="stroke-width:0.8" /><path
       fill="#093754"
       d="m 444.64565,302.34254 a 7.2,7.2 0 0 1 -6.4472,-3.5656 7.184,7.184 0 0 1 -0.636,-5.844 l -34.1384,-58.424 a 7.2016,7.2016 0 0 1 -2.1952,-13.272 7.2,7.2 0 0 1 9.848,2.5848 7.184,7.184 0 0 1 0.636,5.844 l 34.1392,58.424 a 7.184,7.184 0 0 1 4.7792,3.4224 7.2,7.2 0 0 1 -2.584,9.8488 7.168,7.168 0 0 1 -3.4016,0.9816 m -0.104,-3.2992 a 3.9016,3.9016 0 0 0 3.2424,-5.8672 3.9008,3.9008 0 1 0 -3.2432,5.8672 m -91.8776,-7.8872 c -3.0872,0 -6.3496,-0.6752 -6.3496,-4.612 0,-4.0504 3.6496,-4.6256 6.3496,-4.6256 h 7.3128 v -52.4248 h -7.312 c -3.088,0 -6.3504,-0.6752 -6.3504,-4.6248 0,-4.0376 3.6496,-4.6128 6.3496,-4.6128 h 23.4632 c 2.7,0 6.3496,0.5752 6.3496,4.6128 0,3.9496 -3.2624,4.6248 -6.3496,4.6248 h -6.9256 v 55.2128 c 0,5.4872 -1.5376,6.4496 -6.8248,6.4496 z m 37.548,-8.5624 a 7.2,7.2 0 1 1 0,-14.4 7.2,7.2 0 0 1 0,14.4 m 0,-3.3 a 3.9,3.9 0 1 0 0,-7.8 3.9,3.9 0 0 0 0,7.8 m -158.9624,-7.1872 c -5.3872,0 -7.6,-0.1 -11.9248,-3.6504 l -6.8256,-5.6752 c -4.4232,-3.6624 -5.4872,-6.4496 -5.4872,-12.1248 v -8.9496 c 0,-5.6752 1.0624,-8.4632 5.488,-12.1128 l 6.824,-5.688 c 4.3256,-3.5496 6.5384,-3.6496 11.9256,-3.6496 h 14.6248 c 3.0752,0 6.3504,0.6752 6.3504,4.6128 0,4.0496 -3.6504,4.6248 -6.3504,4.6248 h -16.2496 c -1.8376,0 -3.6624,0.9624 -5.3,2.312 l -5.576,4.7128 c -1.4496,1.1504 -2.4992,2.112 -2.4992,3.9376 v 11.4504 c 0,1.824 1.0496,2.7872 2.5,3.9496 l 5.5752,4.712 c 1.6376,1.3384 3.4624,2.3008 5.3,2.3008 h 16.2496 c 2.7,0 6.3504,0.5872 6.3504,4.6248 0,3.9376 -3.2752,4.6128 -6.3504,4.6128 z m 30.4,0 c -4.2248,0 -4.712,-3.5624 -4.6128,-6.9256 l 0.9624,-29.0496 c 0.188,-5 0.1,-8.9504 4.2376,-12.512 3.0752,-2.588 5.9624,-3.3632 8.5624,-3.3632 h 6.8256 c 2.5,0 5,1.1504 7.9872,3.0752 l 7.5,4.912 v -1.5368 c 0,-3.176 0.6752,-6.4504 4.6128,-6.4504 4.912,0 4.5248,4.712 4.5248,6.8248 v 38.6752 c 0,3.1752 -0.6752,6.3504 -4.6128,6.3504 -3.9496,0 -4.6248,-3.176 -4.6248,-6.3504 v -26.8376 l -13.5624,-8.5624 q -1.2936,-0.8624 -2.888,-0.8624 h -3.0744 c -2.2128,0 -4.6128,0.5752 -5.388,1.9248 -0.7744,1.3376 -0.8624,3.8504 -0.9624,5.9624 l -0.9624,28.376 c -0.1,2.9864 -0.5752,6.3496 -4.5248,6.3496 m 50.0248,0 c -4.2248,0 -4.612,-3.4624 -4.612,-6.8256 v -38.6744 c 0,-3.176 0.6744,-6.3504 4.612,-6.3504 3.9504,0 4.6248,3.1752 4.6248,6.3504 v 23.3744 l 12.888,10.6752 c 1.6376,1.3504 2.888,2.2128 4.612,2.2128 h 2.7 c 2.2128,0 4.4256,0 5.576,-1.6376 0.9616,-1.3376 0.9616,-2.5 0.9616,-4.0376 0,-2.9752 1.3504,-5.6752 4.712,-5.6752 3.9504,0 4.5256,3.2752 4.5256,6.4504 0,4.2248 -1.0624,7.4 -4.1376,10.488 -2.5,2.4992 -5.4752,3.6496 -9.0376,3.6496 h -7.412 c -2.888,0 -5.5752,-1.8256 -8.1752,-3.9376 l -7.2128,-5.9752 v 3.7624 c 0,3.0752 -0.9624,6.1504 -4.624,6.1504 m 78.5368,-15.1128 a 7.2,7.2 0 1 1 0,-14.4 7.2,7.2 0 0 1 0,14.4 m 0,-3.3 a 3.9,3.9 0 1 0 0,-7.8 3.9,3.9 0 0 0 0,7.8 m 14.7736,-22.3408 a 3.8992,3.8992 0 0 0 3.2424,-5.8656 3.8992,3.8992 0 1 0 -3.2424,5.8656"
       id="path2-8"
       style="stroke-width:0.8" /></g></svg>
