<svg xmlns="http://www.w3.org/2000/svg" viewBox="0 0 2851 854">
 <g fill="none" stroke="#093754" stroke-width="34" transform="translate(1847 17)">
  <circle cx="58" cy="529" r="58"/>
  <circle cx="58" cy="263" r="58"/>
  <path stroke-width="100" d="M596,101 L234,721"/>
  <circle cx="210" cy="762" r="58"/>
  <circle cx="621" cy="58" r="58"/>
  <g stroke="#0f564d">
   <path stroke-width="100" d="M904,101 L542,721"/>
   <circle cx="929" cy="58" r="58"/>
   <circle cx="518" cy="762" r="58"/>
  </g>
 </g>
 <g fill="#093754" transform="translate(0 76)">
  <path transform="translate(-125)" d="M125 555v-93c0 -59 11 -88 57 -126l71 -59c45 -37 68 -38 124 -38h152c32 0 66 7 66 48c0 42 -38 48 -66 48h-169c-19 0 -38 10 -55 24l-58 49c-15 12 -26 22 -26 41v119c0 19 11 29 26 41l58 49c17 14 36 24 55 24h169c28 0 66 6 66 48c0 41 -34 48 -66 48h-152 c-56 0 -79 -1 -124 -38l-71 -59c-46 -38 -57 -67 -57 -126z"/>
  <path transform="translate(395)" d="M595 305v402c0 22 4 71 -47 71c-41 0 -48 -34 -48 -67v-16l-78 51c-31 20 -57 32 -83 32h-71c-27 0 -57 -8 -89 -35c-43 -37 -42 -78 -44 -130l-10 -302c-1 -35 4 -72 48 -72c41 0 46 35 47 66l10 295c1 22 2 48 10 62s33 20 56 20h32c11 0 21 -3 30 -9l141 -89v-279 c0 -33 7 -66 48 -66s48 33 48 66z"/>
  <path transform="translate(915)" d="M125 712v-402c0 -35 4 -71 48 -71c38 0 48 32 48 64v39l75 -62c27 -22 55 -41 85 -41h77c37 0 68 12 94 38c32 32 43 65 43 109c0 33 -6 67 -47 67c-35 0 -49 -28 -49 -59c0 -16 0 -28 -10 -42c-12 -17 -35 -17 -58 -17h-28c-18 0 -31 9 -48 23l-134 111v243 c0 33 -7 66 -48 66s-48 -33 -48 -66z"/>
  <path transform="translate(1276)" d="M410 108v574h72c32 0 66 7 66 48c0 42 -38 48 -66 48h-244c-28 0 -66 -6 -66 -48c0 -41 34 -48 66 -48h76v-545h-76c-28 0 -66 -6 -66 -48c0 -41 34 -48 66 -48h101c55 0 71 10 71 67z"/>
 </g>
</svg>
