<?xml version="1.0" encoding="UTF-8" standalone="no"?>
<svg
   width="343px"
   height="103px"
   viewBox="0 0 343 103"
   version="1.1"
   id="svg1"
   sodipodi:docname="curl-logo-raw.svg"
   inkscape:version="1.4.3 (0d15f75, 2025-12-25)"
   xmlns:inkscape="http://www.inkscape.org/namespaces/inkscape"
   xmlns:sodipodi="http://sodipodi.sourceforge.net/DTD/sodipodi-0.dtd"
   xmlns="http://www.w3.org/2000/svg"
   xmlns:svg="http://www.w3.org/2000/svg">
  <sodipodi:namedview
     id="namedview1"
     pagecolor="#505050"
     bordercolor="#ffffff"
     borderopacity="1"
     inkscape:showpageshadow="0"
     inkscape:pageopacity="0"
     inkscape:pagecheckerboard="1"
     inkscape:deskcolor="#d1d1d1"
     inkscape:zoom="1.3272271"
     inkscape:cx="190.623"
     inkscape:cy="88.530442"
     inkscape:window-width="1557"
     inkscape:window-height="906"
     inkscape:window-x="0"
     inkscape:window-y="32"
     inkscape:window-maximized="0"
     inkscape:current-layer="svg1" />
  <defs
     id="defs1" />
  <g
     id="curl"
     stroke="none"
     stroke-width="1"
     fill="none"
     fill-rule="evenodd">
    <g
       id="curl-logo-2026"
       transform="translate(0.000000, -3.000000)">
      <g
         id="symbol"
         transform="translate(220.000000, 0.000000)">
        <g
           id="slash-2"
           transform="translate(89.033162, 54.617691) rotate(30.300000) translate(-89.033162, -54.617691) translate(80.033162, -3.382309)"
           fill="#0C544C">
          <path
             d="M9,116 C4.02943725,116 0,111.970563 0,107 C0,102.029437 4.02943725,98 9,98 C13.9705627,98 18,102.029437 18,107 C18,111.970563 13.9705627,116 9,116 Z M9,111.875 C11.6923882,111.875 13.875,109.692388 13.875,107 C13.875,104.307612 11.6923882,102.125 9,102.125 C6.30761184,102.125 4.125,104.307612 4.125,107 C4.125,109.692388 6.30761184,111.875 9,111.875 Z"
             id="dot-bottom"
             fill-rule="nonzero" />
          <path
             d="M9,18 C4.02943725,18 0,13.9705627 0,9 C0,4.02943725 4.02943725,0 9,0 C13.9705627,0 18,4.02943725 18,9 C18,13.9705627 13.9705627,18 9,18 Z M9,13.875 C11.6923882,13.875 13.875,11.6923882 13.875,9 C13.875,6.30761184 11.6923882,4.125 9,4.125 C6.30761184,4.125 4.125,6.30761184 4.125,9 C4.125,11.6923882 6.30761184,13.875 9,13.875 Z"
             id="dot-top-2"
             fill-rule="nonzero" />
          <rect
             id="rect-2"
             x="3"
             y="15"
             width="12"
             height="86" />
        </g>
        <g
           id="slash-1"
           transform="translate(52.033162, 54.617691) rotate(30.300000) translate(-52.033162, -54.617691) translate(43.033162, -3.382309)"
           fill="#073551">
          <path
             d="M9,116 C4.02943725,116 0,111.970563 0,107 C0,102.029437 4.02943725,98 9,98 C13.9705627,98 18,102.029437 18,107 C18,111.970563 13.9705627,116 9,116 Z M9,111.875 C11.6923882,111.875 13.875,109.692388 13.875,107 C13.875,104.307612 11.6923882,102.125 9,102.125 C6.30761184,102.125 4.125,104.307612 4.125,107 C4.125,109.692388 6.30761184,111.875 9,111.875 Z"
             id="dot-bottom-1"
             fill-rule="nonzero" />
          <path
             d="M9,18 C4.02943725,18 0,13.9705627 0,9 C0,4.02943725 4.02943725,0 9,0 C13.9705627,0 18,4.02943725 18,9 C18,13.9705627 13.9705627,18 9,18 Z M9,13.875 C11.6923882,13.875 13.875,11.6923882 13.875,9 C13.875,6.30761184 11.6923882,4.125 9,4.125 C6.30761184,4.125 4.125,6.30761184 4.125,9 C4.125,11.6923882 6.30761184,13.875 9,13.875 Z"
             id="dot-top-1"
             fill-rule="nonzero" />
          <rect
             id="rect-1"
             x="3"
             y="15"
             width="12"
             height="86" />
        </g>
        <path
           d="M9,78 C4.02943725,78 0,73.9705627 0,69 C0,64.0294373 4.02943725,60 9,60 C13.9705627,60 18,64.0294373 18,69 C18,73.9705627 13.9705627,78 9,78 Z M9,73.875 C11.6923882,73.875 13.875,71.6923882 13.875,69 C13.875,66.3076118 11.6923882,64.125 9,64.125 C6.30761184,64.125 4.125,66.3076118 4.125,69 C4.125,71.6923882 6.30761184,73.875 9,73.875 Z"
           id="path1"
           fill="#073551"
           fill-rule="nonzero" />
        <path
           d="M9,46 C4.02943725,46 0,41.9705627 0,37 C0,32.0294373 4.02943725,28 9,28 C13.9705627,28 18,32.0294373 18,37 C18,41.9705627 13.9705627,46 9,46 Z M9,41.875 C11.6923882,41.875 13.875,39.6923882 13.875,37 C13.875,34.3076118 11.6923882,32.125 9,32.125 C6.30761184,32.125 4.125,34.3076118 4.125,37 C4.125,39.6923882 6.30761184,41.875 9,41.875 Z"
           id="dot-top"
           fill="#073551"
           fill-rule="nonzero" />
      </g>
      <g
         id="text"
         transform="translate(0.000000, 17.000000)"
         fill-rule="nonzero"
         fill="#073551">
        <path
           d="M202.739232,8.3594 C202.739232,1.500025 200.817357,0.2969 194.207982,0.2969 L182.067357,0.2969 C178.207982,0.2969 174.129857,1.14065 174.129857,6.062525 C174.129857,11.125025 178.692357,11.843775 182.067357,11.843775 L191.207982,11.843775 L191.207982,77.375025 L182.067357,77.375025 C178.207982,77.375025 174.129857,78.218775 174.129857,83.156275 C174.129857,88.20315 178.692357,88.9219 182.067357,88.9219 L211.395482,88.9219 C214.770482,88.9219 219.332982,88.20315 219.332982,83.156275 C219.332982,78.218775 215.254857,77.375025 211.395482,77.375025 L202.739232,77.375025 L202.739232,8.3594 Z"
           id="l" />
        <path
           d="M125.062497,80.9844 C125.062497,84.95315 125.906247,88.9219 130.828122,88.9219 C135.765622,88.9219 136.609372,84.95315 136.609372,80.9844 L136.609372,51.76565 L152.718747,38.4219 C154.765622,36.7344 156.328122,35.656275 158.484372,35.656275 L161.859372,35.656275 C164.624997,35.656275 167.390622,35.656275 168.828122,37.70315 C170.031247,39.375025 170.031247,40.82815 170.031247,42.750025 C170.031247,46.468775 171.718747,49.843775 175.921872,49.843775 C180.859372,49.843775 181.578122,45.750025 181.578122,41.781275 C181.578122,36.500025 180.249997,32.531275 176.406247,28.6719 C173.281247,25.5469 169.562497,24.1094 165.109372,24.1094 L155.843747,24.1094 C152.234372,24.1094 148.874997,26.39065 145.624997,29.031275 L136.609372,36.500025 L136.609372,31.7969 C136.609372,27.95315 135.406247,24.1094 130.828122,24.1094 C125.546872,24.1094 125.062497,28.437525 125.062497,32.64065 L125.062497,80.9844 Z"
           id="r" />
        <path
           d="M119.046872,32.0469 C119.046872,28.07815 118.203122,24.1094 113.281247,24.1094 C108.343747,24.1094 107.499997,28.07815 107.499997,32.0469 L107.499997,65.593775 L90.546872,76.2969 C89.468747,77.01565 88.265622,77.375025 86.937497,77.375025 L83.093747,77.375025 C80.328122,77.375025 77.328122,76.656275 76.359372,74.968775 C75.390622,73.2969 75.281247,70.156275 75.156247,67.51565 L73.953122,32.0469 C73.828122,28.312525 73.234372,24.1094 68.296872,24.1094 C63.015622,24.1094 62.406247,28.562525 62.531247,32.76565 L63.734372,69.07815 C63.968747,75.32815 63.859372,80.26565 69.031247,84.718775 C72.874997,87.95315 76.484372,88.9219 79.734372,88.9219 L88.265622,88.9219 C91.390622,88.9219 94.515622,87.4844 98.249997,85.07815 L107.624997,78.937525 L107.624997,80.8594 C107.624997,84.82815 108.468747,88.9219 113.390622,88.9219 C119.531247,88.9219 119.046872,83.031275 119.046872,80.39065 L119.046872,32.0469 Z"
           id="u" />
        <path
           d="M0,62.1094 C0,69.20315 1.328125,72.687525 6.859375,77.250025 L15.390625,84.3594 C20.796875,88.7969 23.5625,88.9219 30.296875,88.9219 L48.578125,88.9219 C52.421875,88.9219 56.515625,88.07815 56.515625,83.156275 C56.515625,78.093775 51.953125,77.375025 48.578125,77.375025 L28.265625,77.375025 C25.96875,77.375025 23.6875,76.1719 21.640625,74.4844 L14.671875,68.593775 C12.859375,67.156275 11.546875,65.95315 11.546875,63.6719 L11.546875,49.3594 C11.546875,47.07815 12.859375,45.875025 14.671875,44.4219 L21.640625,38.531275 C23.6875,36.8594 25.96875,35.656275 28.265625,35.656275 L48.578125,35.656275 C51.953125,35.656275 56.515625,34.9219 56.515625,29.875025 C56.515625,24.95315 52.421875,24.1094 48.578125,24.1094 L30.296875,24.1094 C23.5625,24.1094 20.796875,24.2344 15.390625,28.6719 L6.859375,35.76565 C1.328125,40.343775 0,43.82815 0,50.9219 L0,62.1094 Z"
           id="c" />
      </g>
    </g>
  </g>
</svg>
