<svg viewBox="0 0 998 250" xmlns="http://www.w3.org/2000/svg">
 <path fill="#0c544c" d="m92.721 148.003c0-10.809-2.293-21.944-15.721-21.944s-15.721 11.135-15.721 21.943v28.822l-17.031 29.15-9.826-29.15-3.275-81.224c-.328-10.809-2.293-22.6-15.721-22.6-13.756 0-15.721 11.79-15.394 22.599l3.275 87.448 15.394 46.508c3.275 9.499 4.913 19.98 16.049 19.98h12.118c5.568 0 10.153-5.896 13.1-10.154l17.032-25.547 17.031 25.547c2.948 4.258 7.533 10.153 13.1 10.153h12.12c11.135 0 12.773-10.48 16.048-19.979l15.393-46.508 3.276-87.448c.327-10.808-1.638-22.599-15.394-22.599-13.428 0-15.394 11.79-15.721 22.599l-3.275 81.225-9.826 29.15-17.031-29.15z"/>
 <g fill="#073551">
  <path d="m167 176.547c0 19.33 3.619 28.824 18.691 41.256l23.247 19.373c14.732 12.092 22.268 12.432 40.618 12.432h49.815c10.474 0 21.629-2.299 21.629-15.71 0-13.795-12.432-15.754-21.629-15.754h-55.35c-6.258 0-12.475-3.278-18.052-7.877l-18.99-16.051c-4.938-3.917-8.515-7.196-8.515-13.412v-39c0-6.216 3.577-9.495 8.516-13.454l18.989-16.052c5.577-4.555 11.794-7.834 18.052-7.834h55.35c9.197 0 21.629-2 21.629-15.753 0-13.412-11.155-15.711-21.629-15.711h-49.815c-18.35 0-25.886.34-40.618 12.432l-23.247 19.33c-15.071 12.475-18.691 21.97-18.691 41.3z"/>
  <path d="m490.976 94.62c0-10.81-2.299-21.62-15.705-21.62-13.449 0-15.747 10.81-15.747 21.62v91.375l-46.177 29.153q-4.404 2.937-9.83 2.937h-10.47c-7.534 0-15.705-1.958-18.344-6.554-2.638-4.554-2.936-13.109-3.277-20.301l-3.277-96.61c-.339-10.172-1.957-21.62-15.406-21.62-14.385 0-16.045 12.13-15.705 23.578l3.277 98.908c.639 17.023.341 30.472 14.428 42.602 10.47 8.81 20.3 11.448 29.153 11.448h23.238c8.511 0 17.023-3.915 27.195-10.47l25.536-16.725v5.234c0 10.81 2.298 21.961 15.704 21.961 16.726 0 15.407-16.045 15.407-23.237z"/>
  <path d="m507 227.98c0 10.814 2.3 21.628 15.71 21.628 13.455 0 15.754-10.814 15.754-21.629v-79.618l43.897-36.361c5.577-4.599 9.835-7.537 15.71-7.537h9.197c7.536 0 15.072 0 18.99 5.578 3.278 4.556 3.278 8.515 3.278 13.752 0 10.133 4.598 19.33 16.051 19.33 13.455 0 15.413-11.155 15.413-21.97 0-14.39-3.619-25.205-14.093-35.722-8.515-8.514-18.649-12.431-30.783-12.431h-25.248c-9.835 0-18.99 6.216-27.845 13.412l-24.567 20.351v-12.815c0-10.474-3.278-20.948-15.753-20.948-14.391 0-15.711 11.794-15.711 23.247z"/>
  <path d="m717.848 30.399c0-18.665-5.23-21.939-23.214-21.939h-33.036c-10.501 0-21.598 2.296-21.598 15.689 0 13.775 12.415 15.73 21.598 15.73h24.872v178.315h-24.872c-10.501 0-21.598 2.296-21.598 15.731 0 13.733 12.415 15.689 21.598 15.689h79.804c9.183 0 21.598-1.956 21.598-15.689 0-13.435-11.097-15.73-21.598-15.73h-23.554z"/>
 </g>
 <path fill="none" stroke="#0c544c" stroke-width="20" d="m988 124c0 62.96-51.04 114-114 114s-114-51.04-114-114 51.04-114 114-114 114 51.04 114 114z"/>
 <path fill="#0c544c" fill-rule="evenodd" d="m800 137.007c0-2.213 1.8-4.007 4.01-4.007h13.98a4.006 4.006 0 0 1 4.01 3.997v24.003h104v-24.003c0-2.208 1.8-3.997 4.01-3.997h13.98a4.007 4.007 0 0 1 4.01 4.009v41.482a4.02 4.02 0 0 1-3.997 4.023l-140.006 0.473a3.986 3.986 0 0 1-3.997-3.994z"/>
 <path fill="#0c544c" fill-rule="evenodd" d="m849 68.993a4 4 0 0 1 4.007-3.993h41.986a4.003 4.003 0 0 1 4.007 3.993v41.007h11c7.18 0 8.843 4.072 3.711 9.099l-36.847 36.095c-1.582 1.55-4.15 1.547-5.728 0l-36.847-36.094c-5.13-5.025-3.464-9.099 3.712-9.099h10.999z"/>
</svg>
