<svg xmlns="http://www.w3.org/2000/svg" viewBox="0 0 3056 762">
 <circle cx="2675" cy="381" r="350" fill="none" stroke="#0f564d" stroke-width="62"/>
 <path fill="#0f564d" d="M2609 197c-5 0-10 5-10 10v127h-34c-20 0-28 13-13 28l113 110s5 5 10 5 10-5 10-5l113-110c15-15 7-28-13-28h-34V207c0-5-5-10-10-10h-66zM48 223c-42 0-48 36-47 69l10 267 47 142c10 29 15 61 49 61h37c17 0 31-18 40-31l52-78 52 78c9 13 23 31 40 31h37c34 0 39-32 49-61l47-142 10-267c1-33-5-69-47-69-41 0-47 36-48 69l-10 248-30 89-52-89v-88c0-33-7-67-48-67s-48 34-48 67v88l-52 89-30-89-10-248c-1-33-7-69-48-69m2415 184c-5 0-10 5-10 10v127c0 5 5 10 10 10h424c5 0 10-5 10-10V417c0-5-5-10-10-10h-42c-5 0-10 5-10 10v75h-320v-75c0-5-5-10-10-10z"/>
 <path fill="#093754" d="M2024 25c-32 0-66 7-66 48 0 42 38 48 66 48h76v545h-76c-32 0-66 7-66 48 0 42 38 48 66 48h244c28 0 66-6 66-48 0-41-34-48-66-48h-72V92c0-57-16-67-71-67zM762 223c-56 0-79 1-124 38l-71 59c-46 38-57 67-57 126v93c0 59 11 88 57 126l71 59c45 37 68 38 124 38h152c32 0 66-7 66-48 0-42-38-48-66-48H745c-19 0-38-10-55-24l-58-49c-15-12-26-22-26-41V433c0-19 11-29 26-41l58-49c17-14 36-24 55-24h169c28 0 66-6 66-48 0-41-34-48-66-48zm316 0c-44 0-49 37-48 72l10 302c2 52 1 93 44 130 32 27 62 35 89 35h71c26 0 52-12 83-32l78-51v16c0 33 7 67 48 67 51 0 47-49 47-71V289c0-33-7-66-48-66s-48 33-48 66v279l-141 89q-13.5 9-30 9h-32c-23 0-48-6-56-20s-9-40-10-62l-10-295c-1-31-6-66-47-66m520 0c-44 0-48 36-48 71v402c0 33 7 66 48 66s48-33 48-66V453l134-111c17-14 30-23 48-23h28c23 0 46 0 58 17 10 14 10 26 10 42 0 31 14 59 49 59 41 0 47-34 47-67 0-44-11-77-43-109-26-26-57-38-94-38h-77c-30 0-58 19-85 41l-75 62v-39c0-32-10-64-48-64"/>
</svg>
