<svg xmlns="http://www.w3.org/2000/svg" viewBox="0 0 3056 762">
 <g transform="translate(2325 31)">
  <path fill="#0f564d" d="M572 386v127c0 5-5 10-10 10H350v-62h160v-75c0-5 5-10 10-10h42c5 0 10 5 10 10m-444 0c0-5 5-10 10-10h42c5 0 10 5 10 10v75h160v62H138c-5 0-10-5-10-10z"/>
  <path fill="#0f564d" d="M426 176v127h34c20 0 28 13 13 28L360 441s-5 5-10 5V166h66c5 0 10 5 10 10m-152 0c0-5 5-10 10-10h66v280c-5 0-10-5-10-5L227 331c-15-15-7-28 13-28h34z"/>
  <circle stroke="#0f564d" cx="350" cy="350" r="350" stroke-width="62" fill="none"/>
 </g>
 <g fill="#093754" transform="translate(0 -16)">
  <path transform="translate(-124)" fill="#0f564d" d="M408 468v88l52 89 30-89 10-248c1-33 7-69 48-69 42 0 48 36 47 69l-10 267-47 142c-10 29-15 61-49 61h-37c-17 0-31-18-40-31l-52-78-52 78c-9 13-23 31-40 31h-37c-34 0-39-32-49-61l-47-142-10-267c-1-33 5-69 47-69 41 0 47 36 48 69l10 248 30 89 52-89v-88c0-33 7-67 48-67s48 34 48 67"/>
  <path transform="translate(385)" d="M125 555v-93c0-59 11-88 57-126l71-59c45-37 68-38 124-38h152c32 0 66 7 66 48 0 42-38 48-66 48H360c-19 0-38 10-55 24l-58 49c-15 12-26 22-26 41v119c0 19 11 29 26 41l58 49c17 14 36 24 55 24h169c28 0 66 6 66 48 0 41-34 48-66 48H377c-56 0-79-1-124-38l-71-59c-46-38-57-67-57-126"/>
  <path transform="translate(905)" d="M595 305v402c0 22 4 71-47 71-41 0-48-34-48-67v-16l-78 51c-31 20-57 32-83 32h-71c-27 0-57-8-89-35-43-37-42-78-44-130l-10-302c-1-35 4-72 48-72 41 0 46 35 47 66l10 295c1 22 2 48 10 62s33 20 56 20h32q16.5 0 30-9l141-89V305c0-33 7-66 48-66s48 33 48 66"/>
  <path transform="translate(1425)" d="M125 712V310c0-35 4-71 48-71 38 0 48 32 48 64v39l75-62c27-22 55-41 85-41h77c37 0 68 12 94 38 32 32 43 65 43 109 0 33-6 67-47 67-35 0-49-28-49-59 0-16 0-28-10-42-12-17-35-17-58-17h-28c-18 0-31 9-48 23L221 469v243c0 33-7 66-48 66s-48-33-48-66"/>
  <path transform="translate(1786)" d="M410 108v574h72c32 0 66 7 66 48 0 42-38 48-66 48H238c-28 0-66-6-66-48 0-41 34-48 66-48h76V137h-76c-28 0-66-6-66-48 0-41 34-48 66-48h101c55 0 71 10 71 67"/>
 </g>
</svg>
