<svg viewBox="0 0 1000 250" xmlns="http://www.w3.org/2000/svg">
 <g transform="translate(0 8)" fill="none" fill-rule="evenodd">
  <g transform="translate(802 57)" fill="#0f564d">
   <path d="m0 73.00003c0-2.761441 2.230547-5.000032 4.992141-5.000032h12.9983c2.214418 0 4.009558 1.79412 4.009558 3.996839v24.00316h104v-24.00316c0-2.207393 1.800352-3.996839 4.009558-3.996839h12.9983c2.757084 0 4.992141 2.239281 4.992141 4.995788v39.50842c0 2.759098-2.236162 5.003343-5.00903 5.01271l-137.9819 0.466156c-2.766411 0.009346-5.00903-2.228609-5.00903-4.98311z"/>
   <path d="m49 5.009386c0-2.766607 2.245531-5.009386 5.000032-5.009386h39.99994c2.761441 0 5.000032 2.231557 5.000032 5.009386v39.99061h10.00642c8.280725 0 10.15394 4.646056 4.175116 10.38572l-36.2955 34.84368c-1.593916 1.530159-4.172248 1.535839-5.772081 0l-36.2955-34.84368c-5.974872-5.735877-4.102483-10.38572 4.175116-10.38572h10.00642z"/>
  </g>
  <circle cx="876" cy="116" r="114" stroke="#0f564d" stroke-width="20"/>
  <g fill-rule="nonzero">
   <g fill="#073551">
    <path d="m717.8476 21.93855c0-18.66476-5.22955-21.93855-23.21397-21.93855h-33.03526c-10.50156 0-21.59835 2.295895-21.59835 15.68863 0 13.77537 12.41478 15.73113 21.59835 15.73113h24.8721v178.3145h-24.8721c-10.50156 0-21.59835 2.29588-21.59835 15.73112 0 13.73286 12.41478 15.68861 21.59835 15.68861h79.8033c9.18357 0 21.59835-1.95575 21.59835-15.68861 0-13.43524-11.09679-15.73112-21.59835-15.73112h-23.55407z"/>
    <path d="m507 219.9793c0 10.81449 2.29913 21.62897 15.71082 21.62897 13.45425 0 15.75339-10.81448 15.75339-21.62897v-79.61847l43.89658-36.36052c5.57757-4.59827 9.83524-7.53606 15.71083-7.53606h9.19657c7.53606 0 15.07216 0 18.98921 5.57754 3.2784 4.55573 3.2784 8.51535 3.2784 13.75229 0 10.13326 4.59829 19.32984 16.05144 19.32984 13.45424 0 15.41276-11.15511 15.41276-21.9696 0-14.39092-3.61903-25.20542-14.09291-35.72188-8.51533-8.515345-18.64859-12.4324-30.78295-12.4324h-25.24801c-9.8352 0-18.98921 6.216201-27.84517 13.41168l-24.56675 20.35168v-12.81562c0-10.47387-3.27843-20.94774-15.75339-20.94774-14.39093 0-15.71082 11.79376-15.71082 23.24689z"/>
    <path d="m491.9755 86.62013c0-10.81006-2.29821-21.62013-15.70438-21.62013-13.44874 0-15.74695 10.81006-15.74695 21.62013v91.37485l-46.17688 29.15311c-2.93658 1.95772-6.21366 2.9366-9.83119 2.9366h-10.46959c-7.53302 0-15.70441-1.95772-18.34308-6.55413-2.63869-4.55386-2.93659-13.10827-3.27706-20.3008l-3.27708-96.60963c-0.34047-10.17166-1.95773-21.62013-15.40647-21.62013-14.38506 0-16.04487 12.12942-15.70438 23.57786l3.27704 98.90782c0.63841 17.02373 0.34049 30.47247 14.42763 42.60189 10.46959 8.80975 20.30079 11.44843 29.15312 11.44843h23.2374c8.51186 0 17.02373-3.91545 27.19543-10.46959l25.53559-16.72579v5.23478c0 10.81007 2.2982 21.9606 15.70438 21.9606 16.72582 0 15.40647-16.04484 15.40647-23.23738z"/>
    <path d="m169 168.5466c0 19.32983 3.61903 28.82443 18.69119 41.25684l23.24689 19.37241c14.73154 12.09179 22.26761 12.43241 40.61818 12.43241h49.81476c10.47387 0 21.62898-2.29915 21.62898-15.71082 0-13.79487-12.43241-15.7534-21.62898-15.7534h-55.34973c-6.25878 0-12.47499-3.27837-18.05252-7.87667l-18.98922-16.05144c-4.93891-3.91706-8.51534-7.19545-8.51534-13.41166v-39.00027c0-6.2162 3.57643-9.49462 8.51534-13.45423l18.98922-16.05144c5.57753-4.5557 11.79374-7.8341 18.05252-7.8341h55.34973c9.19657 0 21.62898-2.0011 21.62898-15.7534 0-13.41165-11.15511-15.71079-21.62898-15.71079h-49.81476c-18.35057 0-25.88664 0.340613-40.61818 12.4324l-23.24689 19.32983c-15.07216 12.47495-18.69119 21.96958-18.69119 41.29941z"/>
   </g>
   <path d="m92.72096 140.0025c0-10.80822-2.292654-21.94397-15.72106-21.94397s-15.72106 11.13575-15.72106 21.94397v28.82194l-17.03114 29.14946-9.82566-29.14946-3.27522-81.22546c-0.327522-10.80823-2.292654-22.59902-15.72106-22.59902-13.75592 0-15.72106 11.79079-15.39353 22.59902l3.27522 87.44838 15.39353 46.50812c3.27522 9.49814 4.91283 19.97884 16.04858 19.97884h12.11831c5.567874 0 10.15318-5.89539 13.10088-10.15318l17.03114-25.54672 17.03114 25.54672c2.947698 4.25779 7.533007 10.15318 13.10088 10.15318h12.11832c11.13575 0 12.77336-10.4807 16.04858-19.97884l15.39353-46.50812 3.27522-87.44838c0.32752-10.80823-1.63761-22.59902-15.39353-22.59902-13.42841 0-15.39354 11.79079-15.72106 22.59902l-3.27522 81.22546-9.82566 29.14946-17.03114-29.14946z" fill="#0c544c"/>
  </g>
 </g>
</svg>
