<svg height="252" width="1000" xmlns="http://www.w3.org/2000/svg">
<g fill="#0c544c">
<path d="m9 76-5 4-4 8v25h1l2 58 1 15 14 41 4 13 4 8 4 4h19l5-4 6-7 16-24h2l19 28 7 6v1h18l5-2 4-6 6-17 14-41 1-17 1-42 1-22v-17l-4-8-6-4h-12l-5 4-4 8-1 13-3 79-2 4-4 12-4 10-2-3-13-22-1-39-4-9-7-4h-12l-5 4-4 9-1 39-15 25-4-8-6-18-1-13-3-79-4-8-6-4z"/>
<path d="m858 1h34l24 6 12 5 15 8 13 10 11 10 9 11 9 14 8 17 5 19 2 15v17l-2 17-7 22-8 16-9 13-9 10-11 11-15 10-17 9-15 5-16 3h-32l-19-4-16-6-17-9-14-11-14-14-10-14-8-14-8-24-2-10v-35l5-22 5-12 9-17 10-13 17-17 12-8 14-8 13-5 16-4zm2 20-14 3-20 8-12 8-11 9-8 8-11 16-8 17-4 16-1 7v25l4 17 6 16 7 12 10 13 9 9 10 7 10 6 11 5 17 5 6 1h28l9-2 12-3 17-8 14-10 10-9 10-12 8-14 5-10 4-16 2-22-1-15-4-16-7-16-10-16-16-16-15-10-14-7-19-5-7-1z"/>
<path d="m852 66h46l2 2v43h16l2 2-1 5-39 39h-6l-39-39v-6l1-1h16v-43z"/>
<path d="m803 134h18l2 2v26h104v-26l2-2h18l2 2v46l-2 2h-144l-2-2v-46z"/>
</g>
<g fill="#073551">
<path d="m168 179.54656c0 19.32983 3.61903 28.82443 18.69119 41.25684l23.24689 19.37241c14.73154 12.09179 22.26761 12.43241 40.61818 12.43241h49.81476c10.47387 0 21.62898-2.29915 21.62898-15.71082 0-13.79487-12.43241-15.7534-21.62898-15.7534h-55.34973c-6.25878 0-12.47499-3.27837-18.05252-7.87667l-18.98922-16.05144c-4.93891-3.91706-8.51534-7.19545-8.51534-13.41166v-39.00027c0-6.2162 3.57643-9.49462 8.51534-13.45423l18.98922-16.05144c5.57753-4.5557 11.79374-7.8341 18.05252-7.8341h55.34973c9.19657 0 21.62898-2.0011 21.62898-15.753397 0-13.411651-11.15511-15.710793-21.62898-15.710793h-49.81476c-18.35057 0-25.88664.340613-40.61818 12.4324l-23.24689 19.32983c-15.07216 12.47495-18.69119 21.96958-18.69119 41.29941zm0 0"/>
<path d="m491.9755 97.620127c0-10.810064-2.29821-21.620127-15.70438-21.620127-13.44874 0-15.74695 10.810063-15.74695 21.620127v91.374853l-46.17688 29.15311c-2.93658 1.95772-6.21366 2.9366-9.83119 2.9366h-10.46959c-7.53302 0-15.70441-1.95772-18.34308-6.55413-2.63869-4.55386-2.93659-13.10827-3.27706-20.3008l-3.27708-96.609633c-.34047-10.17166-1.95773-21.620127-15.40647-21.620127-14.38506 0-16.04487 12.129416-15.70438 23.577855l3.27704 98.907825c.63841 17.02373.34049 30.47247 14.42763 42.60189 10.46959 8.80975 20.30079 11.44843 29.15312 11.44843h23.2374c8.51186 0 17.02373-3.91545 27.19543-10.46959l25.53559-16.72579v5.23478c0 10.81007 2.2982 21.9606 15.70438 21.9606 16.72582 0 15.40647-16.04484 15.40647-23.23738zm0 0"/>
<path d="m508 230.97926c0 10.81449 2.29913 21.62897 15.71082 21.62897 13.45425 0 15.75339-10.81448 15.75339-21.62897v-79.61847l43.89658-36.36052c5.57757-4.59827 9.83524-7.53606 15.71083-7.53606h9.19657c7.53606 0 15.07216 0 18.98921 5.57754 3.2784 4.55573 3.2784 8.51535 3.2784 13.75229 0 10.13326 4.59829 19.32984 16.05144 19.32984 13.45424 0 15.41276-11.15511 15.41276-21.9696 0-14.39092-3.61903-25.205415-14.09291-35.721878-8.51533-8.515345-18.64859-12.432402-30.78295-12.432402h-25.24801c-9.8352 0-18.98921 6.216201-27.84517 13.41168l-24.56675 20.35168v-12.815615c0-10.473872-3.27843-20.947745-15.75339-20.947745-14.39093 0-15.71082 11.793765-15.71082 23.246889zm0 0"/>
<path d="m717.84758 32.938549c0-18.66476-5.22955-21.938549-23.21397-21.938549h-33.03526c-10.50156 0-21.59835 2.295895-21.59835 15.688629 0 13.775369 12.41478 15.731131 21.59835 15.731131h24.8721v178.31451h-24.8721c-10.50156 0-21.59835 2.29588-21.59835 15.73112 0 13.73286 12.41478 15.68861 21.59835 15.68861h79.8033c9.18357 0 21.59835-1.95575 21.59835-15.68861 0-13.43524-11.09679-15.73112-21.59835-15.73112h-23.55407zm0 0"/>
</g>
</svg>
