<?xml version="1.0" encoding="UTF-8" standalone="no"?>
<svg
   width="133"
   height="74"
   viewBox="0 0 133 73.999999"
   version="1.1"
   id="svg883"
   sodipodi:docname="azure-pipelines.svg"
   inkscape:version="1.1 (c4e8f9e, 2021-05-24)"
   xmlns:inkscape="http://www.inkscape.org/namespaces/inkscape"
   xmlns:sodipodi="http://sodipodi.sourceforge.net/DTD/sodipodi-0.dtd"
   xmlns:xlink="http://www.w3.org/1999/xlink"
   xmlns="http://www.w3.org/2000/svg"
   xmlns:svg="http://www.w3.org/2000/svg">
  <sodipodi:namedview
     id="namedview885"
     pagecolor="#505050"
     bordercolor="#ffffff"
     borderopacity="1"
     inkscape:pageshadow="0"
     inkscape:pageopacity="0"
     inkscape:pagecheckerboard="1"
     showgrid="false"
     inkscape:zoom="5.4165445"
     inkscape:cx="42.647116"
     inkscape:cy="37.477768"
     inkscape:window-width="1305"
     inkscape:window-height="684"
     inkscape:window-x="35"
     inkscape:window-y="11"
     inkscape:window-maximized="0"
     inkscape:current-layer="svg883" />
  <defs
     id="defs844">
    <path
       d="m 6.7083333,30.866 2.314375,-2.474896 2.8759587,2.875959 -2.3383337,2.338333 2.8337917,2.834271 2.338333,-2.338334 2.895604,2.895605 -2.294729,2.294729 L 22.041667,46 H 32.583333 C 33.641879,46 34.5,45.141879 34.5,44.083333 V 28.761021 l 9.795125,-6.539667 C 45.360336,21.510299 46.000011,20.31419 46,19.033458 V 1.9166667 C 46,0.8581209 45.141879,0 44.083333,0 H 26.966542 C 25.685831,7.4917872e-5 24.48976,0.63972946 23.778646,1.704875 L 17.238979,11.5 H 1.9166667 C 0.8581209,11.5 0,12.358121 0,13.416667 v 10.541666 z m -2.875,11.300667 V 34.5 H 0 V 46 h 11.5 v -3.833333 z"
       id="path-1" />
    <linearGradient
       x1="0.192"
       y1="0"
       x2="0.192"
       y2="0.19199979"
       id="linearGradient-3">
      <stop
         stop-color="#FFFFFF"
         offset="0%"
         id="stop829" />
      <stop
         stop-color="#FFFFFF"
         stop-opacity="0"
         offset="100%"
         id="stop831" />
    </linearGradient>
    <linearGradient
       x1="46"
       y1="1.110223e-14"
       x2="46"
       y2="45.99995"
       id="linearGradient-4"
       gradientUnits="userSpaceOnUse">
      <stop
         stop-color="#FFFFFF"
         offset="0%"
         id="stop834" />
      <stop
         stop-color="#FFFFFF"
         stop-opacity="0"
         offset="100%"
         id="stop836" />
    </linearGradient>
    <linearGradient
       x1="46"
       y1="0"
       x2="46"
       y2="45.99995"
       id="linearGradient-5"
       gradientUnits="userSpaceOnUse">
      <stop
         stop-color="#FFFFFF"
         offset="0%"
         id="stop839" />
      <stop
         stop-color="#FFFFFF"
         stop-opacity="0"
         offset="100%"
         id="stop841" />
    </linearGradient>
  </defs>
  <g
     id="logo"
     style="fill:none;fill-rule:evenodd;stroke:none;stroke-width:1">
    <mask
       id="mask-2"
       fill="#ffffff">
      <use
         xlink:href="#path-1"
         id="use846"
         x="0"
         y="0"
         width="100%"
         height="100%" />
    </mask>
    <g
       id="Shape" />
    <g
       id="Group"
       mask="url(#mask-2)">
      <polygon
         id="polygon850"
         fill="#91b0f2"
         points="11.5,42.166667 11.5,46 0,46 0,34.5 3.8333333,34.5 3.8333333,42.166667 " />
      <path
         d="m 0,13.416667 v 10.541666 l 6.7083333,6.907667 2.875,-3.074333 8.6249997,8.625 -2.875,2.875 L 22.041667,46 H 32.583333 C 33.641879,46 34.5,45.141879 34.5,44.083333 V 28.75 L 17.25,11.5 H 1.9166667 C 0.8581209,11.5 0,12.358121 0,13.416667 Z"
         id="path852"
         fill="#0f46bd"
         fill-rule="nonzero" />
      <polygon
         id="polygon854"
         fill="#062aa9"
         points="19.444104,38.8125 7.1875,26.555896 24.916667,0 46,0 46,21.083333 " />
      <path
         d="M 8.2991667,27.668042 C 7.6526905,27.021586 7.5527889,26.008528 8.0605417,25.24825 L 23.778646,1.704875 C 24.48976,0.63972946 25.685831,7.4917872e-5 26.966542,0 H 44.083333 C 45.141879,0 46,0.8581209 46,1.9166667 V 19.033458 c 8.5e-5,1.28088 -0.639588,2.477167 -1.704875,3.188375 L 20.75175,37.939458 c -0.760278,0.507753 -1.773336,0.407852 -2.419792,-0.238625 z"
         id="path856"
         fill="#2560e0" />
      <polygon
         id="polygon858"
         fill="#0a44c2"
         points="24.194083,18.972125 27.027875,21.805917 12.394125,36.439667 9.5603333,33.605875 " />
      <polygon
         id="polygon860"
         fill="#729af2"
         points="24.194083,18.972125 27.027875,21.805917 12.394125,36.439667 9.5603333,33.605875 " />
      <polygon
         id="polygon862"
         fill="#4c80f0"
         fill-rule="nonzero"
         points="11.898667,31.267063 24.194083,18.971646 27.027875,21.805917 14.732458,34.100854 " />
      <path
         d="m 33.541667,18.208333 c 3.175437,0 5.75,-2.574083 5.75,-5.75 0,-3.1754372 -2.574563,-5.7499997 -5.75,-5.7499997 -3.175438,0 -5.75,2.5745625 -5.75,5.7499997 0,3.175917 2.574562,5.75 5.75,5.75 z"
         id="path864"
         fill="#0a44c2"
         fill-rule="nonzero" />
      <path
         d="m 33.541667,18.208333 c 3.175437,0 5.75,-2.574083 5.75,-5.75 0,-3.1754372 -2.574563,-5.7499997 -5.75,-5.7499997 -3.175438,0 -5.75,2.5745625 -5.75,5.7499997 0,3.175917 2.574562,5.75 5.75,5.75 z"
         id="path866"
         fill="#91b0f2"
         fill-rule="nonzero" />
      <g
         opacity="0.2"
         id="g872"
         fill-rule="nonzero">
        <path
           d="m 6.7083333,30.866 2.314375,-2.474896 2.8759587,2.875959 -2.3383337,2.338333 2.8337917,2.834271 2.338333,-2.338334 2.895604,2.895605 -2.294729,2.294729 L 22.041667,46 H 32.583333 C 33.641879,46 34.5,45.141879 34.5,44.083333 V 28.761021 l 9.795125,-6.539667 C 45.360336,21.510299 46.000011,20.31419 46,19.033458 V 1.9166667 C 46,0.8581209 45.141879,0 44.083333,0 H 26.966542 C 25.685831,7.4917872e-5 24.48976,0.63972946 23.778646,1.704875 L 17.238979,11.5 H 1.9166667 C 0.8581209,11.5 0,12.358121 0,13.416667 v 10.541666 z"
           fill="url(#linearGradient-4)"
           id="path868"
           style="fill:url(#linearGradient-4)" />
        <polygon
           fill="url(#linearGradient-5)"
           points="0,46 11.5,46 11.5,42.166667 3.8333333,42.166667 3.8333333,34.5 0,34.5 "
           id="polygon870"
           style="fill:url(#linearGradient-5)" />
      </g>
    </g>
  </g>
  <g
     aria-label="Azure Pipelines"
     id="text"
     style="font-weight:600;font-size:20.8px;font-family:'Segoe UI';-inkscape-font-specification:'Segoe UI Semi-Bold';letter-spacing:-0.81;fill:#0079d9;fill-rule:evenodd"
     transform="translate(-0.07109374,-0.16737997)">
    <path
       d="M 13.660156,69.260002 H 11.009375 L 9.6992184,65.552971 H 3.9710936 l -1.259375,3.707031 H 0.07109374 L 5.5249998,54.69594 H 8.2468747 Z M 9.0593747,63.582659 7.038281,57.773284 Q 6.9468747,57.488909 6.8453122,56.859221 h -0.040625 q -0.091406,0.578907 -0.2031249,0.914063 l -2.0007812,5.809375 z"
       id="path939" />
    <path
       d="m 22.275155,59.845159 -5.616406,7.576562 h 5.596093 v 1.838281 h -8.896874 v -0.883594 l 5.738281,-7.678124 h -5.189844 v -1.838281 h 8.36875 z"
       id="path941" />
    <path
       d="m 32.525311,69.260002 h -2.35625 V 67.61469 h -0.04062 q -1.025782,1.889062 -3.189063,1.889062 -3.686718,0 -3.686718,-4.428125 v -6.215624 h 2.35625 v 5.971874 q 0,2.803125 2.163281,2.803125 1.046093,0 1.716406,-0.771875 0.680469,-0.771875 0.680469,-2.021093 v -5.982031 h 2.35625 z"
       id="path943" />
    <path
       d="m 40.825466,61.104534 q -0.426563,-0.335157 -1.228906,-0.335157 -1.046094,0 -1.746875,0.944532 -0.700781,0.944531 -0.700781,2.569531 v 4.976562 h -2.35625 V 58.860003 h 2.35625 v 2.142968 h 0.04062 q 0.345312,-1.096875 1.056249,-1.70625 0.721094,-0.619531 1.604688,-0.619531 0.639844,0 0.975,0.192969 z"
       id="path945" />
    <path
       d="M 50.344372,64.699846 H 43.25531 q 0.04062,1.442188 0.883594,2.224219 0.853125,0.782031 2.335937,0.782031 1.665625,0 3.057031,-0.995313 v 1.899219 q -1.421875,0.89375 -3.757812,0.89375 -2.295313,0 -3.605469,-1.411719 -1.3,-1.421875 -1.3,-3.991406 0,-2.427343 1.432031,-3.950781 1.442188,-1.533593 3.575,-1.533593 2.132813,0 3.300781,1.371093 1.167969,1.371094 1.167969,3.808594 z m -2.275,-1.665625 q -0.01016,-1.269531 -0.599218,-1.970312 -0.589063,-0.710938 -1.625,-0.710938 -1.015625,0 -1.726563,0.741406 -0.700781,0.741407 -0.863281,1.939844 z"
       id="path947" />
    <path
       d="m 59.36812,63.978752 v 5.28125 H 56.961089 V 54.69594 h 4.417969 q 2.508594,0 3.889843,1.167969 1.38125,1.167969 1.38125,3.290625 0,2.122656 -1.442187,3.473437 -1.442187,1.350781 -3.9,1.350781 z m 0,-7.292187 v 5.321875 h 1.564063 q 1.553906,0 2.366406,-0.721094 0.8125,-0.721094 0.8125,-2.03125 0,-2.569531 -2.985937,-2.569531 z"
       id="path949" />
    <path
       d="m 69.222188,56.676409 q -0.578907,0 -0.995313,-0.375781 -0.40625,-0.375782 -0.40625,-0.954688 0,-0.578906 0.40625,-0.964844 0.416406,-0.385937 0.995313,-0.385937 0.599218,0 1.015625,0.385937 0.416406,0.385938 0.416406,0.964844 0,0.548438 -0.416406,0.944531 -0.416407,0.385938 -1.015625,0.385938 z m 1.167968,12.583593 h -2.35625 V 58.860003 h 2.35625 z"
       id="path951" />
    <path
       d="M 75.064525,67.726408 H 75.0239 v 6.317188 H 72.66765 V 58.860003 h 2.35625 v 1.828124 h 0.04063 q 1.208593,-2.071874 3.534375,-2.071874 1.980468,0 3.087499,1.391406 1.107032,1.391406 1.107032,3.7375 0,2.599999 -1.249219,4.164062 -1.249219,1.564062 -3.4125,1.564062 -1.990625,0 -3.067187,-1.746875 z m -0.06094,-4.103124 v 1.289843 q 0,1.1375 0.721094,1.929688 0.73125,0.792187 1.848437,0.792187 1.310157,0 2.051563,-1.015625 0.751562,-1.025781 0.751562,-2.853906 0,-1.533594 -0.700781,-2.396875 -0.690625,-0.873437 -1.878906,-0.873437 -1.259375,0 -2.03125,0.89375 -0.761719,0.89375 -0.761719,2.234375 z"
       id="path953" />
    <path
       d="m 93.216244,64.699846 h -7.089062 q 0.04062,1.442188 0.883594,2.224219 0.853125,0.782031 2.335937,0.782031 1.665625,0 3.057031,-0.995313 v 1.899219 q -1.421875,0.89375 -3.757812,0.89375 -2.295313,0 -3.605469,-1.411719 -1.3,-1.421875 -1.3,-3.991406 0,-2.427343 1.432031,-3.950781 1.442188,-1.533593 3.575,-1.533593 2.132813,0 3.300781,1.371093 1.167969,1.371094 1.167969,3.808594 z m -2.275,-1.665625 q -0.01016,-1.269531 -0.599219,-1.970312 -0.589062,-0.710938 -1.624999,-0.710938 -1.015625,0 -1.726563,0.741406 -0.700781,0.741407 -0.863281,1.939844 z"
       id="path955" />
    <path
       d="M 97.01718,69.260002 H 94.650774 V 53.863128 h 2.366406 z"
       id="path957" />
    <path
       d="m 100.47281,56.676409 q -0.578911,0 -0.995317,-0.375781 -0.40625,-0.375782 -0.40625,-0.954688 0,-0.578906 0.40625,-0.964844 0.416406,-0.385937 0.995317,-0.385937 0.59921,0 1.01562,0.385937 0.41641,0.385938 0.41641,0.964844 0,0.548438 -0.41641,0.944531 -0.41641,0.385938 -1.01562,0.385938 z m 1.16796,12.583593 H 99.284524 V 58.860003 h 2.356246 z"
       id="path959" />
    <path
       d="m 113.18078,69.260002 h -2.35625 v -5.860156 q 0,-2.914844 -2.06172,-2.914844 -1.07657,0 -1.77735,0.8125 -0.70078,0.802344 -0.70078,2.03125 v 5.93125 h -2.3664 V 58.860003 h 2.3664 v 1.726562 h 0.0406 q 1.16797,-1.970312 3.37187,-1.970312 1.6961,0 2.58985,1.107031 0.89375,1.096875 0.89375,3.178906 z"
       id="path961" />
    <path
       d="m 124.06062,64.699846 h -7.08906 q 0.0406,1.442188 0.88359,2.224219 0.85313,0.782031 2.33594,0.782031 1.66562,0 3.05703,-0.995313 v 1.899219 q -1.42188,0.89375 -3.75781,0.89375 -2.29532,0 -3.60547,-1.411719 -1.3,-1.421875 -1.3,-3.991406 0,-2.427343 1.43203,-3.950781 1.44219,-1.533593 3.575,-1.533593 2.13281,0 3.30078,1.371093 1.16797,1.371094 1.16797,3.808594 z m -2.275,-1.665625 q -0.0102,-1.269531 -0.59922,-1.970312 -0.58906,-0.710938 -1.625,-0.710938 -1.01562,0 -1.72656,0.741406 -0.70078,0.741407 -0.86328,1.939844 z"
       id="path963" />
    <path
       d="m 124.84515,68.935002 v -2.183594 q 1.32031,1.005469 2.91484,1.005469 2.13282,0 2.13282,-1.259375 0,-0.355468 -0.18282,-0.599218 -0.18281,-0.253907 -0.49765,-0.446875 -0.30469,-0.192969 -0.73125,-0.345313 -0.41641,-0.152344 -0.93438,-0.345312 -0.63984,-0.253907 -1.15781,-0.538282 -0.50781,-0.284375 -0.85313,-0.639843 -0.33515,-0.365625 -0.50781,-0.822657 -0.17265,-0.457031 -0.17265,-1.066406 0,-0.751562 0.35546,-1.320312 0.35547,-0.578907 0.95469,-0.964844 0.59922,-0.396094 1.36094,-0.589062 0.76172,-0.203125 1.57422,-0.203125 1.44219,0 2.57969,0.436718 v 2.061719 q -1.09688,-0.751563 -2.51875,-0.751563 -0.44688,0 -0.8125,0.09141 -0.35547,0.09141 -0.60938,0.253906 -0.25391,0.1625 -0.39609,0.396094 -0.14219,0.223437 -0.14219,0.497656 0,0.335156 0.14219,0.56875 0.14218,0.233594 0.4164,0.416406 0.28438,0.172656 0.67032,0.325 0.39609,0.142188 0.9039,0.314844 0.67031,0.274219 1.19844,0.558594 0.53828,0.284375 0.91406,0.65 0.37578,0.355468 0.57891,0.832812 0.20312,0.467188 0.20312,1.117187 0,0.792188 -0.36562,1.38125 -0.36563,0.589063 -0.975,0.975 -0.60938,0.385938 -1.41172,0.56875 -0.79219,0.192969 -1.67578,0.192969 -1.70625,0 -2.95547,-0.56875 z"
       id="path965" />
  </g>
</svg>
