<svg height="74" viewBox="0 0 133 74" width="133" xmlns="http://www.w3.org/2000/svg" xmlns:xlink="http://www.w3.org/1999/xlink"><linearGradient id="a"><stop offset="0" stop-color="#fff"/><stop offset="1" stop-color="#fff" stop-opacity="0"/></linearGradient><linearGradient id="b" x1="100%" x2="100%" xlink:href="#a" y1="0%" y2="99.999896%"/><linearGradient id="c" x1="400%" x2="400%" xlink:href="#a" y1="-300%" y2="99.999583%"/><mask id="d" fill="#fff"><path d="m6.70833333 30.866 2.314375-2.4748958 2.87595837 2.8759583-2.33833337 2.3383333 2.83379167 2.8342709 2.3383333-2.3383334 2.8956042 2.8956042-2.2947292 2.2947292 6.7083334 6.7083333h10.5416666c1.0585458 0 1.9166667-.8581209 1.9166667-1.9166667v-15.3223125l9.795125-6.5396666c1.0652109-.7110551 1.7048857-1.9071642 1.704875-3.1878959v-17.11679163c0-1.05854577-.8581209-1.91666667-1.9166667-1.91666667h-17.1167916c-1.2807102.00007492-2.4767815.63972947-3.1878959 1.704875l-6.5396666 9.795125h-15.32231253c-1.05854577 0-1.91666667.8581209-1.91666667 1.9166667v10.5416666zm-2.875 11.3006667v-7.6666667h-3.83333333v11.5h11.5v-3.8333333z" fill="#fff" fill-rule="evenodd"/></mask><g fill="none" fill-rule="evenodd"><g mask="url(#d)"><path d="m0 34.5h3.83333333v7.6666667h7.66666667v3.8333333h-11.5z" fill="#91b0f2"/><path d="m0 13.4166667v10.5416666l6.70833333 6.9076667 2.875-3.0743333 8.62499997 8.625-2.875 2.875 6.7083334 6.7083333h10.5416666c1.0585458 0 1.9166667-.8581209 1.9166667-1.9166667v-15.3333333l-17.25-17.25h-15.33333333c-1.05854577 0-1.91666667.8581209-1.91666667 1.9166667z" fill="#0f46bd" fill-rule="nonzero"/><path d="m7.1875 26.5558958 17.7291667-26.5558958h21.0833333v21.0833333l-26.5558958 17.7291667z" fill="#062aa9"/><path d="m8.29916667 27.6680417c-.64647618-.6464555-.74637773-1.6595133-.238625-2.4197917l15.71810413-23.543375c.7111144-1.06514553 1.9071857-1.70480008 3.1878959-1.704875h17.1167916c1.0585458 0 1.9166667.8581209 1.9166667 1.91666667v17.11679163c.0000852 1.28088-.6395883 2.4771664-1.704875 3.188375l-23.543375 15.717625c-.7602784.5077528-1.7733362.4078512-2.4197917-.238625z" fill="#2560e0"/><path d="m9.56033333 33.605875 14.63374997-14.63375 2.8337917 2.8337917-14.63375 14.63375z" fill="#0a44c2"/><path d="m9.56033333 33.605875 14.63374997-14.63375 2.8337917 2.8337917-14.63375 14.63375z" fill="#729af2"/><g fill-rule="nonzero"><path d="m14.7324583 34.1008542-2.8337916-2.8337917 12.2954166-12.2954167 2.8337917 2.8342709z" fill="#4c80f0"/><path d="m33.5416667 18.2083333c3.1754375 0 5.75-2.5740833 5.75-5.75 0-3.17543747-2.5745625-5.74999997-5.75-5.74999997s-5.75 2.5745625-5.75 5.74999997c0 3.1759167 2.5745625 5.75 5.75 5.75z" fill="#0a44c2"/><path d="m33.5416667 18.2083333c3.1754375 0 5.75-2.5740833 5.75-5.75 0-3.17543747-2.5745625-5.74999997-5.75-5.74999997s-5.75 2.5745625-5.75 5.74999997c0 3.1759167 2.5745625 5.75 5.75 5.75z" fill="#91b0f2"/><g opacity=".2"><path d="m6.70833333 30.866 2.314375-2.4748958 2.87595837 2.8759583-2.33833337 2.3383333 2.83379167 2.8342709 2.3383333-2.3383334 2.8956042 2.8956042-2.2947292 2.2947292 6.7083334 6.7083333h10.5416666c1.0585458 0 1.9166667-.8581209 1.9166667-1.9166667v-15.3223125l9.795125-6.5396666c1.0652109-.7110551 1.7048857-1.9071642 1.704875-3.1878959v-17.11679163c0-1.05854577-.8581209-1.91666667-1.9166667-1.91666667h-17.1167916c-1.2807102.00007492-2.4767815.63972947-3.1878959 1.704875l-6.5396666 9.795125h-15.32231253c-1.05854577 0-1.91666667.8581209-1.91666667 1.9166667v10.5416666z" fill="url(#b)"/><path d="m3.83333333 42.1666667v-7.6666667h-3.83333333v11.5h11.5v-3.8333333z" fill="url(#c)"/></g></g></g><path d="m13.467539 69.2591847h-2.627076l-1.29843985-3.6738802h-5.67689985l-1.24811273 3.6738802h-2.61701057l5.40513337-14.4338198h2.69753397zm-4.55963764-5.6265727-2.00301963-5.7574233c-.06039285-.1878889-.12413991-.4898486-.19124308-.9058882h-.0402617c-.06039285.382488-.12749502.6844478-.20130851.9058882l-1.98288877 5.7574233zm13.17452324-3.7040765-5.5661801 7.5088072h5.5460493v1.821842h-8.8173125v-.875692l5.6869652-7.6094615h-5.1434323v-1.821842h8.2939104zm10.2354192 9.3306492h-2.3351787v-1.6305989h-.0402617c-.677742 1.248119-1.731246 1.8721691-3.1605435 1.8721691-2.4358451 0-3.6537494-1.4628272-3.6537494-4.3885254v-6.1600403h2.3351787v5.9184701c0 1.8520475.714638 2.7780574 2.1439355 2.7780574.6911627 0 1.2598535-.2549883 1.7060896-.7649724s.6693508-1.1776506.6693508-2.0030196v-5.9285355h2.3351787zm8.3028574-8.0825365c-.2818333-.2214404-.6878014-.332159-1.2179164-.332159-.6911627 0-1.2682413.312025-1.7312532.9360845s-.6945143 1.4729019-.6945143 2.5465526v4.9320584h-2.3351787v-10.3069955h2.3351787v2.1238048h.0402617c.2281508-.7247143.5787596-1.29005 1.0518369-1.6960242.4730774-.4059742 1.0015069-.6089582 1.5853045-.6089582.42275 0 .7448404.063747.9662808.1912431zm9.4805122 3.5631606h-7.0256668c.0268413.952865.3204132 1.6876337.8807247 2.2043281s1.3303088.7750377 2.3100151.7750377c1.100492 0 2.1103796-.3288006 3.029693-.9864116v1.8822345c-.9394444.5905079-2.1808344.8857574-3.7242073.8857574-1.5165317 0-2.7059175-.4680376-3.5681933-1.4041268-.8622757-.9360892-1.2934071-2.2529692-1.2934071-3.9506794 0-1.6037658.4747478-2.9105805 1.4242576-3.9204832.9495099-1.0099027 2.1288304-1.5148465 3.537997-1.5148465s2.4995768.4529396 3.2712632 1.3588324c.7716865.9058928 1.1575239 2.1640584 1.1575239 3.7745345zm-2.2546552-1.6507298c-.0067103-.8387896-.2046617-1.4913582-.5938601-1.9577252s-.9260157-.6995471-1.610468-.6995471c-.6710318 0-1.2397226.2449229-1.7060896.7347761-.4663671.4898531-.7532288 1.1306788-.8605939 1.9224962zm11.3616283.9360846v5.2340211h-2.3855057v-14.4338198h4.3784599c1.6574484 0 2.9424548.3858374 3.8550579 1.1575239.9126031.7716864 1.3688979 1.8587415 1.3688979 3.2611978 0 1.4024562-.4764254 2.5499032-1.4292904 3.4423754s-2.2412266 1.3387016-3.8651233 1.3387016zm0-7.2269754v5.2742829h1.5500755c1.0266785 0 1.8084188-.2382127 2.3452441-.7146452.5368254-.4764325.805234-1.1474542.805234-2.0130851 0-1.6977102-.9864018-2.5465526-2.959235-2.5465526zm9.8629984-.0100654c-.382488 0-.7096111-.124139-.9813789-.3724207-.2717679-.2482818-.4076498-.5636619-.4076498-.94615s.1358819-.7012234.4076498-.9562154c.2717678-.2549921.5988909-.3824862.9813789-.3824862.3959087 0 .7314196.1274941 1.0065426.3824862.275123.254992.4126824.5737273.4126824.9562154 0 .3623571-.1375594.6727046-.4126824.9310518s-.6106339.3875189-1.0065426.3875189zm1.1575239 12.4710619h-2.3351786v-10.3069955h2.3351786zm4.7095007-1.5198792h-.0402617v6.2606945h-2.3351787v-15.0478108h2.3351787v1.8117766h.0402617c.7985277-1.3689047 1.9661054-2.0533468 3.502768-2.0533468 1.3085118 0 2.3284647.4596498 3.0598892 1.3789633.7314246.9193134 1.0971314 2.1539932 1.0971314 3.7040765 0 1.7178411-.4126783 3.0934355-1.2380473 4.1268243-.825369 1.0333889-1.9526854 1.5500755-3.3819829 1.5500755-1.3152221 0-2.3284648-.5770786-3.0397584-1.7312531zm-.0603926-4.0664318v1.278309c0 .7515555.2398903 1.3890261.7196779 1.9124308.4797877.5234047 1.0887398.7851032 1.8268747.7851032.8656309 0 1.5450403-.3371884 2.0382486-1.0115753.4932083-.6743868.7398088-1.6154947.7398088-2.8233518 0-1.0132578-.2298249-1.8067409-.6894816-2.380473-.4596568-.5737322-1.0820293-.8605939-1.8671364-.8605939-.8320793 0-1.5014234.2952495-2.0080524.8857574-.5066289.5905079-.7599396 1.3286317-.7599396 2.2143936zm18.1166471 1.0669351h-7.0256668c.0268412.952865.3204132 1.6876337.8807247 2.2043281s1.3303088.7750377 2.3100151.7750377c1.100492 0 2.1103796-.3288006 3.029693-.9864116v1.8822345c-.9394444.5905079-2.1808344.8857574-3.7242074.8857574-1.5165316 0-2.7059175-.4680376-3.5681932-1.4041268-.8622758-.9360892-1.2934072-2.2529692-1.2934072-3.9506794 0-1.6037658.4747479-2.9105805 1.4242577-3.9204832.9495099-1.0099027 2.1288304-1.5148465 3.537997-1.5148465s2.4995767.4529396 3.2712632 1.3588324 1.1575239 2.1640584 1.1575239 3.7745345zm-2.2546552-1.6507298c-.0067104-.8387896-.2046617-1.4913582-.5938601-1.9577252s-.9260157-.6995471-1.6104681-.6995471c-.6710317 0-1.2397225.2449229-1.7060896.7347761-.466367.4898531-.7532287 1.1306788-.8605938 1.9224962zm6.1085947 6.1701057h-2.3452441v-15.2591847h2.3452441zm3.5016495-12.4710619c-.3824879 0-.709611-.124139-.9813788-.3724207-.2717679-.2482818-.4076498-.5636619-.4076498-.94615s.1358819-.7012234.4076498-.9562154c.2717678-.2549921.5988909-.3824862.9813788-.3824862.395909 0 .73142.1274941 1.006543.3824862.275123.254992.412682.5737273.412682.9562154 0 .3623571-.137559.6727046-.412682.9310518s-.610634.3875189-1.006543.3875189zm1.157524 12.4710619h-2.3351786v-10.3069955h2.3351786zm11.513728 0h-2.335179v-5.8077504c0-1.925861-.681086-2.888777-2.043281-2.888777-.711293 0-1.298437.2667311-1.761449.8002013s-.694515 1.2061694-.694515 2.0181177v5.8782084h-2.345244v-10.3069955h2.345244v1.7111223h.040262c.771687-1.3018015 1.885582-1.9526925 3.341721-1.9526925 1.120623 0 1.976176.3640293 2.566684 1.0920987s.885757 1.7798958.885757 3.1555108zm10.859476-4.5193759h-7.025667c.026841.952865.320413 1.6876337.880725 2.2043281.560311.5166944 1.330308.7750377 2.310015.7750377 1.100492 0 2.110379-.3288006 3.029693-.9864116v1.8822345c-.939445.5905079-2.180835.8857574-3.724208.8857574-1.516531 0-2.705917-.4680376-3.568193-1.4041268s-1.293407-2.2529692-1.293407-3.9506794c0-1.6037658.474748-2.9105805 1.424258-3.9204832.949509-1.0099027 2.12883-1.5148465 3.537997-1.5148465 1.409166 0 2.499576.4529396 3.271263 1.3588324.771686.9058928 1.157524 2.1640584 1.157524 3.7745345zm-2.254656-1.6507298c-.00671-.8387896-.204661-1.4913582-.59386-1.9577252-.389198-.466367-.926015-.6995471-1.610468-.6995471-.671031 0-1.239722.2449229-1.706089.7347761-.466367.4898531-.753229 1.1306788-.860594 1.9224962zm3.119164 5.8480121v-2.1640664c.872341.6643213 1.835257.9964771 2.888777.9964771 1.409166 0 2.113739-.4160335 2.113739-1.2481128 0-.2348611-.060392-.43449-.181177-.5988928-.120786-.1644027-.283509-.3103499-.488174-.437846-.204664-.127496-.446232-.2415697-.72471-.3422244-.278478-.1006548-.588826-.2147285-.931052-.3422245-.42275-.1677579-.803555-.3455787-1.142426-.5334675-.338871-.1878889-.6207-.4009383-.845496-.6391545-.224795-.2382163-.394228-.5083025-.508304-.8102668-.114075-.3019642-.171112-.6542506-.171112-1.0568696 0-.4965635.117429-.9344051.35229-1.313538s.550241-.6978682.94615-.9562154.845493-.4529435 1.348767-.5837947 1.023316-.1962758 1.560141-.1962758c.952865 0 1.805063.1442697 2.556618.4328133v2.0432813c-.724714-.4965634-1.556781-.7448414-2.496225-.7448414-.295254 0-.561985.0301959-.800202.0905888-.238216.0603929-.4412.1442706-.608958.2516356-.167758.1073651-.298607.2365368-.392552.3875189-.093944.1509821-.140916.31706-.140916.4982386 0 .2214404.046972.4093265.140916.5636638.093945.1543373.233182.2902191.417716.4076497.184533.1174305.40597.224794.664318.3220936.258347.0972996.555274.2029855.89079.3170609.442881.1811786.840461.3657095 1.192753.5535984.352291.1878889.652574.4009382.900855.6391545.248282.2382162.439523.5133351.573729.8253649.134207.3120297.201309.6827692.201309 1.1122295 0 .5234047-.120784.9796994-.362355 1.3688978-.241572.3891984-.563662.7112888-.966281.9662808-.402619.2549921-.867302.4445557-1.394062.5686965-.526759.1241409-1.08203.1862104-1.665827.1862104-1.127334 0-2.10367-.1878861-2.929039-.5636638z" fill="#0079d9" fill-rule="nonzero"/></g></svg>