<?xml version="1.0" encoding="UTF-8" standalone="no"?>
<!-- Created with Inkscape (http://www.inkscape.org/) -->

<svg
   width="1000"
   height="425"
   viewBox="0 0 264.58333 112.44792"
   version="1.1"
   id="svg1"
   inkscape:version="1.3.2 (091e20e, 2023-11-25)"
   sodipodi:docname="trurl-logo.svg"
   xmlns:inkscape="http://www.inkscape.org/namespaces/inkscape"
   xmlns:sodipodi="http://sodipodi.sourceforge.net/DTD/sodipodi-0.dtd"
   xmlns="http://www.w3.org/2000/svg"
   xmlns:svg="http://www.w3.org/2000/svg">
  <sodipodi:namedview
     id="namedview1"
     pagecolor="#505050"
     bordercolor="#ffffff"
     borderopacity="1"
     inkscape:showpageshadow="0"
     inkscape:pageopacity="0"
     inkscape:pagecheckerboard="1"
     inkscape:deskcolor="#d1d1d1"
     inkscape:document-units="mm"
     inkscape:zoom="1.0240246"
     inkscape:cx="493.64049"
     inkscape:cy="242.66995"
     inkscape:window-width="1544"
     inkscape:window-height="862"
     inkscape:window-x="107"
     inkscape:window-y="130"
     inkscape:window-maximized="0"
     inkscape:current-layer="layer1" />
  <defs
     id="defs1">
    <rect
       x="136.84142"
       y="116.04153"
       width="723.61745"
       height="273.68285"
       id="rect1" />
  </defs>
  <g
     inkscape:label="Layer 1"
     inkscape:groupmode="layer"
     id="layer1">
    <g
       id="g86"
       transform="translate(-0.51675191,-0.25837595)">
      <path
         style="font-size:200px;line-height:1.25;font-family:'OCR A Std';-inkscape-font-specification:'OCR A Std';letter-spacing:-40px;word-spacing:0px;white-space:pre;fill:#8522f6;stroke-width:0.419649"
         d="M 248.49369,53.623291 C 248.49369,48.839297 247.15081,48 242.53468,48 h -8.47691 c -2.68575,0 -5.53936,0.587508 -5.53936,4.028626 0,3.525048 3.18932,4.028627 5.53936,4.028627 h 6.37866 v 45.741697 h -6.37866 c -2.68575,0 -5.53936,0.58751 -5.53936,4.02863 0,3.52505 3.18932,4.02862 5.53936,4.02862 h 20.47887 c 2.35003,0 5.53936,-0.50357 5.53936,-4.02862 0,-3.44112 -2.85361,-4.02863 -5.53936,-4.02863 h -6.04295 z"
         id="path86" />
      <path
         style="font-size:200px;line-height:1.25;font-family:'OCR A Std';-inkscape-font-specification:'OCR A Std';letter-spacing:-40px;word-spacing:0px;white-space:pre;fill:#8522f6;stroke-width:0.42;stroke-dasharray:none"
         d="m 197.32523,104.31684 c 0,2.76968 0.5875,5.53936 4.02863,5.53936 3.44112,0 4.02863,-2.76968 4.02863,-5.53936 V 83.921918 l 11.24659,-9.316198 c 1.42681,-1.175016 2.51789,-1.930384 4.02863,-1.930384 h 2.35003 c 1.93038,0 3.86077,0 4.86793,1.426805 0.8393,1.175016 0.8393,2.182173 0.8393,3.525049 0,2.601821 1.17502,4.951853 4.11256,4.951853 3.44111,0 3.94469,-2.853611 3.94469,-5.623291 0,-3.692908 -0.92322,-6.462588 -3.60897,-9.148339 -2.18218,-2.182173 -4.784,-3.189329 -7.88941,-3.189329 h -6.46259 c -2.51789,0 -4.86792,1.594664 -7.13403,3.441118 l -6.29473,5.203642 v -3.273259 c 0,-2.685751 -0.8393,-5.371501 -4.02863,-5.371501 -3.69291,0 -4.02863,3.021469 -4.02863,5.959009 z"
         id="path85" />
      <path
         style="font-size:200px;line-height:1.25;font-family:'OCR A Std';-inkscape-font-specification:'OCR A Std';letter-spacing:-40px;word-spacing:0px;white-space:pre;fill:#8522f6;stroke-width:0.419649"
         d="m 193.1288,70.157445 c 0,-2.769681 -0.5875,-5.539361 -4.02862,-5.539361 -3.44112,0 -4.02864,2.76968 -4.02864,5.539361 v 23.416391 l -11.83409,7.469744 c -0.75537,0.50358 -1.59466,0.75537 -2.5179,0.75537 h -2.68575 c -1.93038,0 -4.02863,-0.50358 -4.70007,-1.6786 -0.67143,-1.17501 -0.75536,-3.357185 -0.83929,-5.203639 l -0.8393,-24.759266 c -0.0839,-2.601821 -0.50358,-5.539361 -3.9447,-5.539361 -3.69291,0 -4.11256,3.105399 -4.02863,6.042939 l 0.83929,25.346774 c 0.16786,4.364343 0.0839,7.805463 3.69292,10.910863 2.68575,2.26611 5.20364,2.93754 7.46975,2.93754 h 5.95902 c 2.18217,0 4.36434,-1.00715 6.96616,-2.68575 l 6.54652,-4.28041 v 1.34287 c 0,2.76968 0.58752,5.62329 4.02864,5.62329 4.28041,0 3.94469,-4.11255 3.94469,-5.95901 z"
         id="path84" />
      <path
         style="font-size:200px;line-height:1.25;font-family:'OCR A Std';-inkscape-font-specification:'OCR A Std';letter-spacing:-40px;word-spacing:0px;white-space:pre;fill:#8522f6;stroke-width:0.419649"
         d="m 110.03838,104.31684 c 0,2.76968 0.58751,5.53936 4.02863,5.53936 3.44113,0 4.02864,-2.76968 4.02864,-5.53936 V 83.921918 l 11.24658,-9.316198 c 1.42681,-1.175016 2.5179,-1.930384 4.02863,-1.930384 h 2.35004 c 1.93038,0 3.86076,0 4.86792,1.426805 0.8393,1.175016 0.8393,2.182173 0.8393,3.525049 0,2.601821 1.17501,4.951853 4.11256,4.951853 3.44112,0 3.9447,-2.853611 3.9447,-5.623291 0,-3.692908 -0.92323,-6.462588 -3.60898,-9.148339 -2.18217,-2.182173 -4.784,-3.189329 -7.8894,-3.189329 h -6.46259 c -2.5179,0 -4.86793,1.594664 -7.13403,3.441118 l -6.29473,5.203642 v -3.273259 c 0,-2.685751 -0.8393,-5.371501 -4.02864,-5.371501 -3.69291,0 -4.02863,3.021469 -4.02863,5.959009 z"
         id="path83" />
      <path
         style="font-size:200px;line-height:1.25;font-family:'OCR A Std';-inkscape-font-specification:'OCR A Std';letter-spacing:-40px;word-spacing:0px;white-space:pre;fill:#8522f6;stroke-width:0.419649"
         d="m 82.593404,72.675336 h 13.512693 c 2.350035,0 5.539363,-0.503578 5.539363,-4.028626 0,-3.441118 -2.85361,-4.028626 -5.539363,-4.028626 H 82.593404 v -8.225113 c 0,-2.76968 -0.587509,-5.539361 -4.028629,-5.539361 -3.441122,0 -4.02863,2.769681 -4.02863,5.539361 v 8.225113 h -2.601823 c -2.685753,0 -5.539365,0.587508 -5.539365,4.028626 0,3.525048 3.189331,4.028626 5.539365,4.028626 h 2.601823 v 21.905656 c 0,4.364348 -0.167859,7.805468 2.937543,11.246588 2.853612,3.1054 6.378662,4.02862 10.407291,4.02862 h 4.112559 c 4.280419,0 8.141192,-0.5875 11.078732,-4.11255 1.34287,-1.59467 2.76968,-4.44828 2.76968,-6.71438 0,-2.266105 -1.84645,-4.028629 -4.11256,-4.028629 -2.014312,0 -3.525048,1.342875 -4.028627,3.273259 -0.839297,3.27326 -2.350033,3.52505 -5.623295,3.52505 h -4.112559 c -5.539365,0 -5.371505,-2.60182 -5.371505,-7.134028 z"
         id="text1" />
    </g>
    <g
       id="g1"
       transform="translate(-7.5308396,69.515442)">
      <path
         fill="#a4a4a4"
         stroke="#484848"
         stroke-linecap="round"
         stroke-linejoin="round"
         stroke-width="0.858483"
         d="m 79.53019,-3.4561475 -3.199606,1.8938874 a 0.82814582,0.82814582 0 0 0 -0.291042,1.13506254 l 3.649662,6.16532076 a 0.82814582,0.82814582 0 0 0 1.135063,0.2910417 L 84.023609,4.1350128 A 0.82814582,0.82814582 0 0 0 84.31465,2.9999503 l -3.649927,-6.1647916 a 0.82814582,0.82814582 0 0 0 -1.135062,-0.2910416"
         id="path1" />
      <path
         fill="#6b6b6b"
         d="m 76.86954,-3.3651309 0.178858,0.454025 3.698346,8.5693249 -0.776287,0.5146146 -4.987396,-8.8040103 1.466585,-0.568325 z"
         opacity="0.63"
         id="path2"
         style="stroke-width:0.264583" />
      <path
         fill="#ffffff"
         d="M 86.145038,6.4154565 85.8958,5.9960919 81.378304,-1.6019475 80.505179,-1.877908 84.409371,7.4571211 85.756894,6.6459086 Z"
         opacity="0.63"
         id="path3"
         style="stroke-width:0.264583" />
      <path
         fill="none"
         stroke="#484848"
         stroke-linecap="round"
         stroke-linejoin="round"
         stroke-width="0.858483"
         d="m 79.53019,-3.4561475 -3.199606,1.8938874 a 0.82814582,0.82814582 0 0 0 -0.291042,1.13506254 l 3.649662,6.16532076 a 0.82814582,0.82814582 0 0 0 1.135063,0.2910417 L 84.023609,4.1350128 A 0.82814582,0.82814582 0 0 0 84.31465,2.9999503 l -3.649927,-6.1647916 a 0.82814582,0.82814582 0 0 0 -1.135062,-0.2910416"
         id="path4" />
      <path
         fill="#a4a4a4"
         stroke="#484848"
         stroke-linecap="round"
         stroke-linejoin="round"
         stroke-width="0.742632"
         d="m 76.801277,-9.6550704 -4.638675,2.7455813 a 0.78951666,0.78951666 0 0 0 -0.277283,1.0818812 l 4.019286,6.79000198 a 0.78951666,0.78951666 0 0 0 1.081881,0.27728332 l 4.638675,-2.7458458 a 0.78951666,0.78951666 0 0 0 0.277283,-1.0816166 l -4.01955,-6.790002 a 0.78951666,0.78951666 0 0 0 -1.081617,-0.2772834"
         id="path5" />
      <path
         fill="#ffffff"
         d="m 81.811692,-2.020783 -0.249238,-0.4193645 -4.517495,-7.5983045 -0.873125,-0.275695 3.904191,9.33502861 1.347523,-0.81121251 z"
         opacity="0.63"
         id="path6"
         style="stroke-width:0.264583" />
      <path
         fill="#6b6b6b"
         d="m 73.390269,-8.0286766 0.178858,0.4537604 3.698611,8.56932487 -0.776552,0.51461453 -4.987396,-8.8040103 1.466585,-0.568325 z"
         opacity="0.63"
         id="path7"
         style="stroke-width:0.264583" />
      <g
         stroke="#484848"
         stroke-linecap="round"
         stroke-linejoin="round"
         id="g10"
         transform="matrix(0.26458333,0,0,0.26458333,8.9970366,-65.085278)">
        <path
           fill="none"
           stroke-width="2.8068"
           d="m 256.268,209.5 -17.532,10.377 a 2.984,2.984 0 0 0 -1.048,4.089 l 15.191,25.663 a 2.984,2.984 0 0 0 4.089,1.048 L 274.5,240.299 a 2.984,2.984 0 0 0 1.048,-4.088 l -15.192,-25.663 a 2.984,2.984 0 0 0 -4.088,-1.048"
           id="path8" />
        <path
           fill="#a4a4a4"
           stroke-width="2"
           d="m 315.5,337.99 c 0,9.872 -6.828,17.875 -15.25,17.875 -8.422,0 -15.25,-8.003 -15.25,-17.875 0,-9.872 6.828,-17.875 15.25,-17.875 8.422,0 15.25,8.003 15.25,17.875"
           transform="matrix(-1.53728,0,0,1.31152,696.949,-241.04)"
           id="path9" />
        <path
           fill="#a4a4a4"
           stroke-width="2.83908"
           d="m 314.823,277.649 a 2.974,2.974 0 0 1 4.197,0.419 l 12.556,15.339 c 7.894,9.567 8.535,19.089 2.081,29.015 l -18.03,-22.024 c -0.523,-0.64 -1.252,-0.997 -2.011,-1.073 -0.759,-0.076 -1.545,0.131 -2.185,0.655 l -7.296,5.973 c -0.64,0.523 -0.998,1.253 -1.073,2.012 -0.075,0.759 0.13,1.545 0.654,2.184 l 17.919,21.89 c -10.111,3.718 -20.236,0.943 -27.32,-8.129 l -12.557,-15.339 a 2.974,2.974 0 0 1 0.419,-4.197 l 1.432,-15.455 16.323,-13.363 z"
           id="path10" />
      </g>
      <path
         fill="#808080"
         d="m 94.191546,22.712467 c -5.040842,0.03016 -6.851915,-3.626644 -8.888677,-6.985 l 0.278342,-5.175515 -1.624542,0.209021 -0.0926,4.641321 -0.255323,0.696119 4.107392,5.337704 2.39051,1.415521 2.599002,0.371475 1.485371,-0.510646 z"
         id="path11"
         style="stroke-width:0.264583" />
      <path
         fill="none"
         stroke="#484848"
         stroke-linecap="round"
         stroke-linejoin="round"
         stroke-width="0.751173"
         d="m 92.293954,8.376019 a 0.78687082,0.78687082 0 0 1 1.110457,0.1108604 l 3.322108,4.0584436 c 2.088621,2.531269 2.258219,5.050631 0.550598,7.676885 l -4.770438,-5.827183 c -0.138377,-0.169333 -0.331258,-0.263789 -0.532077,-0.283898 -0.200819,-0.02011 -0.408781,0.03466 -0.578114,0.173302 l -1.9304,1.580357 c -0.169334,0.138377 -0.264054,0.331522 -0.283898,0.532341 -0.01984,0.200819 0.0344,0.408781 0.173037,0.57785 l 4.741069,5.791729 c -2.675202,0.983721 -5.354108,0.249502 -7.228417,-2.150798 l -3.322373,-4.058443 a 0.78687082,0.78687082 0 0 1 0.110861,-1.110457 l 0.378883,-4.089135 4.318794,-3.5356269 z"
         id="path12" />
      <path
         fill="#ffffff"
         d="m 97.162023,18.765413 c 2.124604,-3.017838 -1.97485,-6.957219 -4.316677,-9.6310982 l -4.571471,-0.6731 c -0.04366,0.7416271 0.05159,0.7551208 -0.422539,1.3123333 0.377825,-0.0045 3.54621,0.4352399 3.792008,0.5336649 2.824692,1.133739 6.388364,5.294312 5.518679,8.457935 z"
         opacity="0.63"
         id="path13"
         style="stroke-width:0.264583" />
      <path
         fill="#a4a4a4"
         stroke="#484848"
         stroke-linecap="round"
         stroke-linejoin="round"
         stroke-width="0.742755"
         d="m 79.922926,6.952936 c -0.518075,2.2614869 0.924055,4.521323 3.220914,5.047466 2.29686,0.526144 4.578947,-0.880581 5.097022,-3.1420675 C 88.758937,6.5968476 87.316806,4.337012 85.019947,3.810868 82.723088,3.2847241 80.441,4.6914491 79.922926,6.952936"
         id="path14" />
      <path
         fill="#ffffff"
         d="M 87.615327,8.420469 C 86.590596,6.3270857 84.714436,5.1981086 82.20989,4.7811253 85.1211,4.0350003 87.397311,4.4101795 87.615327,8.420469 m -11.303,-18.1350706 c -0.298979,-4.5722644 -3.312054,-6.4047684 -6.979443,-6.9252044 3.711575,-1.391708 8.803216,2.067984 6.979708,6.9252044"
         opacity="0.63"
         id="path15"
         style="stroke-width:0.264583" />
      <path
         fill="#a4a4a4"
         stroke="#484848"
         stroke-linecap="round"
         stroke-linejoin="round"
         stroke-width="0.858483"
         d="m 28.279341,-3.4561475 3.199606,1.8938874 a 0.82814582,0.82814582 0 0 1 0.291041,1.13506254 L 28.120326,5.7381232 A 0.82814582,0.82814582 0 0 1 26.985263,6.0291649 L 23.785922,4.1350128 A 0.82814582,0.82814582 0 0 1 23.49488,2.9999503 l 3.649927,-6.1647916 a 0.82814582,0.82814582 0 0 1 1.135063,-0.2910416"
         id="path16" />
      <path
         fill="#6b6b6b"
         d="m 30.93999,-3.3651309 -0.178858,0.454025 -3.698346,8.5693249 0.776288,0.5146146 4.987396,-8.8040103 -1.466586,-0.568325 z"
         opacity="0.63"
         id="path17"
         style="stroke-width:0.264583" />
      <path
         fill="#ffffff"
         d="M 21.664493,6.4154565 21.91373,5.9960919 26.431226,-1.6019475 27.304351,-1.877908 23.400159,7.4571211 22.052636,6.6459086 Z"
         opacity="0.63"
         id="path18"
         style="stroke-width:0.264583" />
      <path
         fill="none"
         stroke="#484848"
         stroke-linecap="round"
         stroke-linejoin="round"
         stroke-width="0.858483"
         d="m 28.279341,-3.4561475 3.199606,1.8938874 a 0.82814582,0.82814582 0 0 1 0.291041,1.13506254 L 28.120326,5.7381232 A 0.82814582,0.82814582 0 0 1 26.985263,6.0291649 L 23.785922,4.1350128 A 0.82814582,0.82814582 0 0 1 23.49488,2.9999503 l 3.649927,-6.1647916 a 0.82814582,0.82814582 0 0 1 1.135063,-0.2910416"
         id="path19" />
      <path
         fill="#a4a4a4"
         stroke="#484848"
         stroke-linecap="round"
         stroke-linejoin="round"
         stroke-width="0.742632"
         d="m 31.008253,-9.6550704 4.638675,2.7455813 a 0.78951666,0.78951666 0 0 1 0.277283,1.0818812 l -4.01955,6.79000198 A 0.78951666,0.78951666 0 0 1 30.82278,1.2396774 L 26.18437,-1.5061684 A 0.78951666,0.78951666 0 0 1 25.907086,-2.587785 l 4.01955,-6.790002 a 0.78951666,0.78951666 0 0 1 1.081617,-0.2772834"
         id="path20" />
      <path
         fill="#ffffff"
         d="m 25.997838,-2.020783 0.249238,-0.4193645 4.517496,-7.5983045 0.873125,-0.275695 -3.904192,9.33502861 -1.347523,-0.81121251 z"
         opacity="0.63"
         id="path21"
         style="stroke-width:0.264583" />
      <path
         fill="#6b6b6b"
         d="m 34.419261,-8.0286766 -0.178858,0.4537604 -3.698346,8.56932487 0.776552,0.51461453 4.987396,-8.8040103 -1.466585,-0.568325 z"
         opacity="0.63"
         id="path22"
         style="stroke-width:0.264583" />
      <g
         stroke="#484848"
         stroke-linecap="round"
         stroke-linejoin="round"
         id="g25"
         transform="matrix(0.26458333,0,0,0.26458333,8.9970366,-65.085278)">
        <path
           fill="none"
           stroke-width="2.8068"
           d="m 83.192,209.5 17.532,10.377 a 2.984,2.984 0 0 1 1.048,4.089 L 86.58,249.629 a 2.984,2.984 0 0 1 -4.089,1.048 L 64.96,240.299 a 2.984,2.984 0 0 1 -1.048,-4.088 l 15.192,-25.663 a 2.984,2.984 0 0 1 4.088,-1.048"
           id="path23" />
        <path
           fill="#a4a4a4"
           stroke-width="2"
           d="m 315.5,337.99 c 0,9.872 -6.828,17.875 -15.25,17.875 -8.422,0 -15.25,-8.003 -15.25,-17.875 0,-9.872 6.828,-17.875 15.25,-17.875 8.422,0 15.25,8.003 15.25,17.875"
           transform="matrix(1.53728,0,0,1.31152,-357.489,-241.04)"
           id="path24" />
        <path
           fill="#a4a4a4"
           stroke-width="2.83908"
           d="m 24.637,277.649 a 2.974,2.974 0 0 0 -4.197,0.419 L 7.884,293.407 c -7.894,9.567 -8.535,19.089 -2.081,29.015 l 18.03,-22.024 c 0.523,-0.64 1.252,-0.997 2.011,-1.073 0.759,-0.076 1.545,0.131 2.185,0.655 l 7.296,5.973 c 0.64,0.523 0.998,1.253 1.073,2.012 0.075,0.759 -0.13,1.545 -0.654,2.184 l -17.919,21.89 c 10.111,3.718 20.236,0.943 27.32,-8.129 l 12.557,-15.339 a 2.974,2.974 0 0 0 -0.419,-4.197 L 55.851,288.919 39.528,275.556 Z"
           id="path25" />
      </g>
      <path
         fill="#808080"
         d="m 13.618249,22.712467 c 5.040312,0.03016 6.85165,-3.626644 8.888412,-6.985 l -0.278341,-5.175515 1.624541,0.209021 0.0926,4.641321 0.255322,0.696119 -4.107127,5.337704 -2.39051,1.415521 -2.599002,0.371475 z"
         id="path26"
         style="stroke-width:0.264583" />
      <path
         fill="none"
         stroke="#484848"
         stroke-linecap="round"
         stroke-linejoin="round"
         stroke-width="0.751173"
         d="M 15.515576,8.376019 A 0.78687082,0.78687082 0 0 0 14.40512,8.4868794 l -3.322108,4.0584436 c -2.0886212,2.531269 -2.2582191,5.050631 -0.550598,7.676885 l 4.770437,-5.827183 c 0.138377,-0.169333 0.331258,-0.263789 0.532077,-0.283898 0.200819,-0.02011 0.408781,0.03466 0.578115,0.173302 l 1.9304,1.580357 c 0.169333,0.138377 0.264054,0.331522 0.283898,0.532341 0.01984,0.200819 -0.0344,0.408781 -0.173038,0.57785 l -4.741069,5.791729 c 2.675203,0.983721 5.354109,0.249502 7.228417,-2.150798 l 3.322373,-4.058443 A 0.78687082,0.78687082 0 0 0 24.153163,15.447008 L 23.77428,11.357873 19.455486,7.8222461 Z"
         id="path27" />
      <path
         fill="#ffffff"
         d="m 10.647507,18.765413 c -2.1246037,-3.017838 1.97485,-6.957219 4.316677,-9.6310982 l 4.571471,-0.6731 c 0.04366,0.7416271 -0.05159,0.7551208 0.42254,1.3123333 -0.377825,-0.0045 -3.546211,0.4352399 -3.792008,0.5336649 -2.824692,1.133739 -6.388365,5.294312 -5.51868,8.457935 z"
         opacity="0.63"
         id="path28"
         style="stroke-width:0.264583" />
      <path
         fill="#a4a4a4"
         stroke="#484848"
         stroke-linecap="round"
         stroke-linejoin="round"
         stroke-width="0.742755"
         d="m 27.886608,6.952936 c 0.518075,2.2614869 -0.924055,4.521323 -3.220914,5.047466 -2.29686,0.526144 -4.578947,-0.880581 -5.097022,-3.1420675 -0.518075,-2.2614869 0.924056,-4.5213225 3.220915,-5.0474665 2.296859,-0.5261439 4.578947,0.8805811 5.097021,3.142068"
         id="path29" />
      <path
         fill="#ffffff"
         d="M 20.194203,8.420469 C 21.218934,6.3270857 23.095095,5.1981086 25.599641,4.7811253 22.68843,4.0350003 20.41222,4.4101795 20.194203,8.420469 m 11.303,-18.1350706 c 0.298979,-4.5722644 3.312054,-6.4047684 6.979444,-6.9252044 -3.711575,-1.391708 -8.803217,2.067984 -6.979709,6.9252044"
         opacity="0.63"
         id="path30"
         style="stroke-width:0.264583" />
      <g
         fill="#a4a4a4"
         stroke="#484848"
         stroke-linecap="round"
         stroke-linejoin="round"
         stroke-width="2"
         id="g34"
         transform="matrix(0.26458333,0,0,0.26458333,8.9970366,-65.085278)">
        <path
           stroke-width="2.8068"
           d="m 222.894,354.29 h -33.74 a 8.93,8.93 0 0 0 -8.932,8.931 8.93,8.93 0 0 0 8.932,8.931 h 33.74 a 8.93,8.93 0 0 0 8.931,-8.93 8.93,8.93 0 0 0 -8.931,-8.932"
           id="path31" />
        <path
           stroke-width="2.8068"
           d="m 222.894,337.45 h -33.74 a 8.93,8.93 0 0 0 -8.932,8.93 8.93,8.93 0 0 0 8.932,8.932 h 33.74 a 8.93,8.93 0 0 0 8.931,-8.932 8.93,8.93 0 0 0 -8.931,-8.93"
           id="path32" />
        <path
           stroke-width="2.8068"
           d="m 222.894,320.608 h -33.74 a 8.93,8.93 0 0 0 -8.932,8.931 8.93,8.93 0 0 0 8.932,8.932 h 33.74 a 8.93,8.93 0 0 0 8.931,-8.932 8.93,8.93 0 0 0 -8.931,-8.93"
           id="path33" />
        <path
           stroke-width="2.8068"
           d="m 223.385,303.248 h -33.74 a 8.93,8.93 0 0 0 -8.932,8.931 8.93,8.93 0 0 0 8.932,8.932 h 33.74 a 8.93,8.93 0 0 0 8.931,-8.932 8.93,8.93 0 0 0 -8.93,-8.93"
           id="path34" />
      </g>
      <path
         fill="#808080"
         d="m 60.945857,14.974727 c -0.858044,1.489075 -1.571625,2.993761 0,4.725988 -0.987161,1.370277 -1.968236,2.741348 0.06562,4.594754 -1.899708,1.775354 -1.1557,3.109912 -0.131233,4.397904 -1.686454,2.842948 -0.1905,3.252258 0,4.660371 l -3.938587,0.06562 0.328083,-0.984514 -0.787665,-1.181629 0.393965,-1.706563 1.246981,-0.984779 -1.312598,-0.98425 -0.262731,-1.44436 1.378479,-1.837796 -0.918898,-0.853281 -0.328083,-1.641211 1.575329,-2.165879 -1.181629,-0.919162 -0.459581,-1.37848 0.853546,-1.640945 0.853281,-0.722048 2.297377,0.197114 z"
         id="path35"
         style="stroke-width:0.264583" />
      <path
         fill="#ffffff"
         d="m 66.251811,15.019177 c 0.858044,1.489075 1.571625,2.994025 0,4.725988 0.98716,1.370277 1.968235,2.741348 -0.06562,4.594754 1.899709,1.775354 1.1557,3.109912 0.131234,4.397904 1.686454,2.843212 0.1905,3.252258 0,4.660371 l 3.938587,0.06562 -0.328083,-0.984514 0.787664,-1.181629 -0.393964,-1.706563 -1.246982,-0.984514 1.312598,-0.98478 0.262732,-1.443831 -1.37848,-1.83806 0.918898,-0.853281 0.328084,-1.640946 -1.575329,-2.166144 1.181629,-0.918898 0.459581,-1.378479 -0.853546,-1.640946 -0.853281,-0.722312 -2.297377,0.197114 z"
         opacity="0.63"
         id="path36"
         style="stroke-width:0.264583" />
      <g
         stroke="#484848"
         stroke-linecap="round"
         stroke-linejoin="round"
         stroke-width="2"
         id="g39"
         transform="matrix(0.26458333,0,0,0.26458333,8.9970366,-65.085278)">
        <g
           fill="none"
           id="g38">
          <path
             stroke-width="2.8068"
             d="m 223.33,355.174 h -34.62 a 8.493,8.493 0 0 0 -8.492,8.493 8.493,8.493 0 0 0 8.492,8.492 h 34.618 a 8.493,8.493 0 0 0 8.493,-8.492 8.493,8.493 0 0 0 -8.493,-8.493"
             id="path37" />
          <path
             stroke-width="2.8068"
             d="M 223.413,338.502 H 188.62 a 8.405,8.405 0 0 0 -8.405,8.405 8.405,8.405 0 0 0 8.405,8.405 h 34.793 a 8.405,8.405 0 0 0 8.405,-8.405 8.405,8.405 0 0 0 -8.405,-8.405 m -0.168,-17.192 h -34.442 a 8.58,8.58 0 0 0 -8.58,8.58 8.58,8.58 0 0 0 8.58,8.58 h 34.442 a 8.58,8.58 0 0 0 8.58,-8.58 8.58,8.58 0 0 0 -8.58,-8.58 m 0.14,-18.062 h -33.74 a 8.93,8.93 0 0 0 -8.932,8.931 8.93,8.93 0 0 0 8.932,8.932 h 33.74 a 8.93,8.93 0 0 0 8.931,-8.932 8.93,8.93 0 0 0 -8.93,-8.93"
             id="path38" />
        </g>
        <path
           fill="#a4a4a4"
           stroke-width="2.8068"
           d="m 179.725,397.599 c 5.405,0.442 86.57,1.42 88.32,-0.496 0,-19.046 -20.625,-34.485 -46.067,-34.485 -14.467,0 -32.283,2.511 -40.728,6.846 -1.414,2.595 -1.523,19.918 -1.523,28.135 z"
           id="path39" />
      </g>
      <path
         fill="#808080"
         d="M 79.853246,39.061864 C 68.028223,38.644352 56.650082,40.445635 59.045355,31.972619 l -2.297377,0.787664 -0.19685,7.483211 23.236501,-0.06562 z"
         id="path40"
         style="stroke-width:0.264583" />
      <path
         fill="none"
         stroke="#484848"
         stroke-linecap="round"
         stroke-linejoin="round"
         stroke-width="0.742632"
         d="m 56.549276,40.112789 c 1.430072,0.116946 22.904978,0.375709 23.367999,-0.131233 0,-5.039254 -5.457031,-9.124156 -12.18856,-9.124156 -3.827727,0 -8.541544,0.664369 -10.77595,1.811337 -0.374121,0.686594 -0.40296,5.269971 -0.40296,7.444052 z"
         id="path41" />
      <path
         fill="#ffffff"
         d="M 77.647679,36.455189 C 75.017986,34.222635 72.361305,32.48644 65.9568,31.947219 c 4.775465,-0.804863 9.635596,0.517525 11.690879,4.50797"
         opacity="0.63"
         id="path42"
         style="stroke-width:0.264583" />
      <path
         fill="#a4a4a4"
         stroke="#484848"
         stroke-linecap="round"
         stroke-linejoin="round"
         stroke-width="0.742685"
         d="m 76.357307,-39.264062 h 4.782343 v 10.502636 h -4.782343 z"
         id="path43" />
      <path
         fill="#e3e3e3"
         d="m 74.986765,-38.890999 h 5.801783 v 2.413529 h -5.801783 z"
         id="path44"
         style="stroke-width:0.264583" />
      <path
         d="m 74.968244,-31.546166 h 5.801783 v 2.413529 h -5.801783 z"
         opacity="0.35"
         id="path45"
         style="stroke-width:0.264583" />
      <g
         fill="#a4a4a4"
         stroke="#484848"
         stroke-linecap="round"
         stroke-linejoin="round"
         stroke-width="2.807"
         id="g47"
         transform="matrix(0.26458333,0,0,0.26458333,8.9970366,-65.085278)">
        <path
           d="m 147.26,159.812 h 51.2 V 179.1 h -51.2 z m -4.14,19.36 h 59.829 v 19.145 H 143.12 Z"
           id="path46" />
        <path
           d="m 106.31,188.222 h 129.86 v 115.1 H 106.31 Z M 69.34,97.592 h 18.075 v 39.695 H 69.34 Z"
           id="path47" />
      </g>
      <path
         fill="#e3e3e3"
         d="m 27.636932,-38.925395 h 5.801783 v 2.413529 h -5.801783 z"
         id="path48"
         style="stroke-width:0.264583" />
      <path
         d="m 27.729536,-31.498541 h 5.801784 v 2.413529 h -5.801784 z"
         opacity="0.35"
         id="path49"
         style="stroke-width:0.264583" />
      <path
         fill="#a4a4a4"
         stroke="#484848"
         stroke-linecap="round"
         stroke-linejoin="round"
         stroke-width="0.742685"
         d="m 31.764432,-45.814616 h 44.796604 v 23.040975 H 31.764432 Z"
         id="path50" />
      <path
         d="m 70.197807,-45.45293 h 6.001543 v 24.474751 h -6.001543 c 1.733814,-8.158162 2.765689,-16.316589 0,-24.474751"
         opacity="0.329"
         id="path51"
         style="stroke-width:0.264583" />
      <g
         stroke="#484848"
         id="g54"
         transform="matrix(0.26458333,0,0,0.26458333,8.9970366,-65.085278)">
        <path
           fill="#a4a4a4"
           stroke-linecap="round"
           stroke-linejoin="round"
           stroke-width="2.807"
           d="m 78.6,123.152 h 23.16 l 21.683,22.997 h 92.639 l 24.636,-22.997 h 23.16 v 47.409 H 78.598 v -47.409 z"
           id="path52" />
        <path
           fill="#ffffff"
           d="m 353.55,256.11 c 0,6.416 -4.862,11.617 -10.859,11.617 -5.997,0 -10.859,-5.201 -10.859,-11.617 0,-6.416 4.862,-11.617 10.859,-11.617 5.997,0 10.859,5.201 10.859,11.617 z"
           transform="matrix(1.8179,0,0,1.6994,-482.34,-332.378)"
           id="path53" />
        <path
           fill="#ffffff"
           d="m 353.55,256.11 c 0,6.416 -4.862,11.617 -10.859,11.617 -5.997,0 -10.859,-5.201 -10.859,-11.617 0,-6.416 4.862,-11.617 10.859,-11.617 5.997,0 10.859,5.201 10.859,11.617 z"
           transform="matrix(1.8179,0,0,1.6994,-423.15,-333.448)"
           id="path54" />
      </g>
      <path
         d="m 47.988153,-36.55076 c 0,1.81663 -1.472671,3.2893 -3.2893,3.2893 -1.816629,0 -3.2893,-1.47267 -3.2893,-3.2893 0,-1.816629 1.472671,-3.2893 3.2893,-3.2893 1.816629,0 3.2893,1.472671 3.2893,3.2893 m 15.660687,-0.187854 c 0,1.816629 -1.472671,3.2893 -3.2893,3.2893 -1.816629,0 -3.2893,-1.472671 -3.2893,-3.2893 0,-1.816629 1.472671,-3.2893 3.2893,-3.2893 1.816629,0 3.2893,1.472671 3.2893,3.2893"
         id="path55"
         style="stroke-width:0.264583" />
      <path
         fill="#e5e5e5"
         d="m 32.499974,-33.355916 0.375179,-11.346391 19.598481,-0.281253 -17.910704,1.688042 z"
         id="path56"
         style="stroke-width:0.264583" />
      <path
         d="m 72.822473,-32.136187 5.626365,-0.02328 v 11.815233 h -9.002183 c 0.780256,-2.446602 1.249362,-5.048779 -0.04657,-8.533606 z"
         opacity="0.329"
         id="path57"
         style="stroke-width:0.264583" />
      <path
         fill="#e5e5e5"
         d="m 30.539411,-29.617353 0.03545,8.993981 16.387234,0.01482 -14.903979,-1.411023 z"
         id="path58"
         style="stroke-width:0.264583" />
      <path
         fill="#a4a4a4"
         stroke="#484848"
         stroke-width="0.742685"
         d="m 52.568619,-57.230857 h 1.706563 l 2.363258,11.421533 h -6.564312 z"
         id="path59" />
      <path
         fill="#604aff"
         stroke="#00054d"
         stroke-width="0.742632"
         d="m 57.689101,-60.31828 c 0,2.428875 -1.851555,4.397904 -4.135438,4.397904 -2.283883,0 -4.135437,-1.969029 -4.135437,-4.397904 0,-2.428875 1.851554,-4.397904 4.135437,-4.397904 2.283883,0 4.135438,1.969029 4.135438,4.397904 z"
         id="path60" />
      <path
         fill="#ffffff"
         d="m 50.533974,-62.047332 c 1.871662,-1.129771 3.896783,-1.017588 6.035145,0.01058 -1.84732,-2.187575 -3.788568,-3.125258 -6.035145,-0.01058"
         opacity="0.63"
         id="path61"
         style="stroke-width:0.264583" />
      <path
         d="m 49.917494,-59.092201 c 2.707482,1.847585 5.174721,2.084917 7.263871,-0.209021 -0.531283,3.080544 -5.444066,4.818063 -7.263871,0.209021"
         opacity="0.35"
         id="path62"
         style="stroke-width:0.264583" />
      <g
         stroke-linecap="round"
         stroke-linejoin="round"
         id="g67"
         transform="matrix(0.26458333,0,0,0.26458333,8.9970366,-65.085278)">
        <g
           stroke="#484848"
           id="g66">
          <path
             fill="#484848"
             stroke-width="1.795"
             d="m 145.97,272.572 h 50.361 a 3.394,3.394 0 0 1 3.394,3.394 v 0.188 a 3.394,3.394 0 0 1 -3.394,3.394 H 145.97 a 3.394,3.394 0 0 1 -3.394,-3.394 v -0.188 a 3.394,3.394 0 0 1 3.394,-3.394 m 0.7,13.33 h 50.361 a 3.394,3.394 0 0 1 3.394,3.394 v 0.188 a 3.394,3.394 0 0 1 -3.394,3.394 H 146.67 a 3.394,3.394 0 0 1 -3.394,-3.394 v -0.188 a 3.394,3.394 0 0 1 3.394,-3.394"
             id="path63" />
          <path
             fill="#ff0000"
             stroke-width="2"
             d="m 342.5,330.99 c 0,3.383 -3.022,6.125 -6.75,6.125 -3.728,0 -6.75,-2.742 -6.75,-6.125 0,-3.383 3.022,-6.125 6.75,-6.125 3.728,0 6.75,2.742 6.75,6.125"
             transform="matrix(1.3388,0,0,1.4755,-325.47,-205.378)"
             id="path64" />
          <path
             fill="#ff0000"
             stroke-width="2"
             d="m 342.5,330.99 c 0,3.383 -3.022,6.125 -6.75,6.125 -3.728,0 -6.75,-2.742 -6.75,-6.125 0,-3.383 3.022,-6.125 6.75,-6.125 3.728,0 6.75,2.742 6.75,6.125"
             transform="matrix(1.3388,0,0,1.4755,-230.039,-205.378)"
             id="path65" />
          <path
             fill="#dbfffc"
             stroke-width="2.807"
             d="m 117,196.582 h 107.94 a 3.394,3.394 0 0 1 3.394,3.394 v 63.383 a 3.394,3.394 0 0 1 -3.394,3.394 H 117 a 3.394,3.394 0 0 1 -3.394,-3.394 V 199.976 A 3.394,3.394 0 0 1 117,196.582"
             id="path66" />
        </g>
        <path
           fill="none"
           stroke="#00a799"
           stroke-width="2.807"
           d="m 114.31,237.282 h 13.332 l 9.824,-30.174 5.964,30.524 7.368,-13.332 11.227,29.823 6.667,-19.297 15.438,-0.35 6.315,-23.157 6.315,37.542 6.316,-24.56 3.508,12.631 h 20.35"
           id="path67" />
      </g>
      <path
         fill="#ffffff"
         d="m 39.955932,4.6356045 0.0069,-15.3180515 c -0.03387,-1.012296 0.774436,-1.534319 1.576123,-1.56845 l 26.046112,-0.06562 -25.022439,1.514475 c -0.890587,0.112712 -1.264708,0.594254 -1.289844,1.3250332 L 39.90963,1.9900357 Z"
         opacity="0.95"
         id="path68"
         style="stroke-width:0.264583" />
      <path
         fill="none"
         stroke="#484848"
         stroke-linecap="round"
         stroke-linejoin="round"
         stroke-width="0.742685"
         d="m 39.953286,-13.072958 h 28.559125 a 0.89799582,0.89799582 0 0 1 0.897996,0.897996 V 4.5951232 A 0.89799582,0.89799582 0 0 1 68.512411,5.493119 H 39.953286 A 0.89799582,0.89799582 0 0 1 39.05529,4.5951232 V -12.174962 a 0.89799582,0.89799582 0 0 1 0.897996,-0.897996"
         id="path69" />
      <path
         fill="#ffffff"
         d="M 40.000911,9.1441044 C 41.129624,8.5310648 42.350676,8.591919 43.63999,9.1496606 42.526095,7.9627398 41.355578,7.4539461 40.000911,9.1441044 M 65.271265,9.1282294 C 66.399978,8.5151898 67.62103,8.576044 68.910344,9.1337856 67.796448,7.9468648 66.625932,7.4380711 65.271265,9.1282294"
         opacity="0.63"
         id="path70"
         style="stroke-width:0.264583" />
      <g
         fill="#a4a4a4"
         stroke="#484848"
         stroke-linecap="round"
         stroke-linejoin="round"
         stroke-width="2"
         id="g74"
         transform="matrix(0.26458333,0,0,0.26458333,8.9970366,-65.085278)">
        <path
           stroke-width="2.8068"
           d="m 122.496,354.78 h 33.74 a 8.93,8.93 0 0 1 8.932,8.931 8.93,8.93 0 0 1 -8.932,8.931 h -33.74 a 8.93,8.93 0 0 1 -8.931,-8.93 8.93,8.93 0 0 1 8.931,-8.932"
           id="path71" />
        <path
           stroke-width="2.8068"
           d="m 122.496,337.94 h 33.74 a 8.93,8.93 0 0 1 8.932,8.93 8.93,8.93 0 0 1 -8.932,8.932 h -33.74 a 8.93,8.93 0 0 1 -8.931,-8.932 8.93,8.93 0 0 1 8.931,-8.93"
           id="path72" />
        <path
           stroke-width="2.8068"
           d="m 122.496,321.098 h 33.74 a 8.93,8.93 0 0 1 8.932,8.931 8.93,8.93 0 0 1 -8.932,8.932 h -33.74 a 8.93,8.93 0 0 1 -8.931,-8.932 8.93,8.93 0 0 1 8.931,-8.93"
           id="path73" />
        <path
           stroke-width="2.8068"
           d="m 122.005,303.738 h 33.74 a 8.93,8.93 0 0 1 8.932,8.931 8.93,8.93 0 0 1 -8.932,8.932 h -33.74 a 8.93,8.93 0 0 1 -8.931,-8.932 8.93,8.93 0 0 1 8.93,-8.93"
           id="path74" />
      </g>
      <path
         fill="#808080"
         d="m 48.432653,15.104373 c 0.858044,1.489075 1.571625,2.99376 0,4.725988 0.98716,1.370277 1.968235,2.741347 -0.06562,4.594754 1.899708,1.775354 1.1557,3.109912 0.131233,4.397904 1.686455,2.842948 0.1905,3.252258 0,4.660371 l 3.938588,0.06562 -0.328083,-0.984514 0.787664,-1.18163 -0.393964,-1.706562 -1.246982,-0.984779 1.312598,-0.98425 0.262731,-1.444361 -1.378479,-1.837795 0.918898,-0.853282 0.328084,-1.64121 -1.57533,-2.165879 1.18163,-0.919163 0.459581,-1.378479 -0.853546,-1.640946 -0.853281,-0.722048 -2.297377,0.197115 z"
         id="path75"
         style="stroke-width:0.264583" />
      <path
         fill="#ffffff"
         d="m 43.126699,15.148823 c -0.858044,1.489075 -1.571625,2.994025 0,4.725988 -0.987161,1.370277 -1.968236,2.741347 0.06562,4.594754 -1.899708,1.775354 -1.1557,3.109912 -0.131233,4.397904 -1.686454,2.843212 -0.1905,3.252258 0,4.660371 l -3.938587,0.06562 0.328083,-0.984514 -0.787665,-1.18163 0.393965,-1.706562 1.246981,-0.984515 -1.312598,-0.984779 -0.262731,-1.443831 1.378479,-1.83806 -0.918898,-0.853282 -0.328083,-1.640945 1.575329,-2.166144 -1.181629,-0.918898 -0.459581,-1.378479 0.853545,-1.640946 0.853282,-0.722313 2.297377,0.197115 z"
         opacity="0.63"
         id="path76"
         style="stroke-width:0.264583" />
      <g
         stroke="#484848"
         stroke-linecap="round"
         stroke-linejoin="round"
         stroke-width="2"
         id="g79"
         transform="matrix(0.26458333,0,0,0.26458333,8.9970366,-65.085278)">
        <g
           fill="none"
           id="g78">
          <path
             stroke-width="2.8068"
             d="m 122.06,355.664 h 34.619 a 8.493,8.493 0 0 1 8.492,8.493 8.493,8.493 0 0 1 -8.492,8.492 H 122.06 a 8.493,8.493 0 0 1 -8.493,-8.492 8.493,8.493 0 0 1 8.493,-8.493"
             id="path77" />
          <path
             stroke-width="2.8068"
             d="m 121.977,338.992 h 34.793 a 8.405,8.405 0 0 1 8.405,8.405 8.405,8.405 0 0 1 -8.405,8.405 h -34.793 a 8.405,8.405 0 0 1 -8.405,-8.405 8.405,8.405 0 0 1 8.405,-8.405 m 0.168,-17.192 h 34.442 a 8.58,8.58 0 0 1 8.58,8.58 8.58,8.58 0 0 1 -8.58,8.58 h -34.442 a 8.58,8.58 0 0 1 -8.58,-8.58 8.58,8.58 0 0 1 8.58,-8.58 m -0.14,-18.062 h 33.74 a 8.93,8.93 0 0 1 8.932,8.931 8.93,8.93 0 0 1 -8.932,8.932 h -33.74 a 8.93,8.93 0 0 1 -8.931,-8.932 8.93,8.93 0 0 1 8.93,-8.93"
             id="path78" />
        </g>
        <path
           fill="#a4a4a4"
           stroke-width="2.8068"
           d="m 165.665,398.089 c -5.405,0.442 -86.57,1.42 -88.32,-0.496 0,-19.046 20.625,-34.485 46.067,-34.485 14.467,0 32.283,2.511 40.728,6.846 1.414,2.595 1.523,19.918 1.523,28.135 z"
           id="path79" />
      </g>
      <path
         fill="#808080"
         d="m 29.525263,39.19151 c 11.825023,-0.417512 23.203165,1.383771 20.807892,-7.089245 l 2.297377,0.787664 0.19685,7.48321 -23.236502,-0.06562 z"
         id="path80"
         style="stroke-width:0.264583" />
      <path
         fill="none"
         stroke="#484848"
         stroke-linecap="round"
         stroke-linejoin="round"
         stroke-width="0.742632"
         d="m 52.829234,40.242435 c -1.430073,0.116946 -22.904979,0.375709 -23.368,-0.131233 0,-5.039254 5.457031,-9.124156 12.188561,-9.124156 3.827727,0 8.541543,0.664369 10.775949,1.811337 0.374121,0.686594 0.402961,5.269971 0.402961,7.444052 z"
         id="path81" />
      <path
         fill="#ffffff"
         d="m 31.73083,36.584835 c 2.629694,-2.232554 5.286375,-3.96875 11.690879,-4.50797 -4.775464,-0.804863 -9.635596,0.517525 -11.690879,4.50797"
         opacity="0.63"
         id="path82"
         style="stroke-width:0.264583" />
    </g>
  </g>
</svg>
