<svg height="425" viewBox="0 0 264.583 112.448" width="1000" xmlns="http://www.w3.org/2000/svg" xmlns:xlink="http://www.w3.org/1999/xlink"><radialGradient id="a" cx="-115.306" cy="374.42" gradientTransform="matrix(1.42032 -.00953 .00078 .17334 47.755 309.82)" gradientUnits="userSpaceOnUse" r="15.527" xlink:href="#b"/><linearGradient id="b"><stop offset="0" stop-color="#fff"/><stop offset=".435" stop-color="#f00"/><stop offset=".601" stop-color="#800000"/><stop offset="1" stop-color="#400"/></linearGradient><radialGradient id="c" cx="-115.306" cy="374.42" gradientTransform="matrix(1.42032 -.00953 .00078 .17334 47.855 322.386)" gradientUnits="userSpaceOnUse" r="15.527" xlink:href="#b"/><radialGradient id="d" cx="233.626" cy="323.56" gradientTransform="matrix(-1.35606 1.87032 -1.33545 -.96826 976.585 176.728)" gradientUnits="userSpaceOnUse" r="28.483" xlink:href="#e"/><linearGradient id="e"><stop offset="0" stop-color="#e6e6e6"/><stop offset=".322" stop-color="#b3b3b3"/><stop offset=".701" stop-color="#333"/><stop offset="1"/></linearGradient><linearGradient id="f" gradientUnits="userSpaceOnUse" x1="357.989" x2="381.548" xlink:href="#g" y1="91.402" y2="91.402"/><linearGradient id="g"><stop offset="0" stop-color="#e6e6e6"/><stop offset=".23" stop-color="#ccc"/><stop offset=".443" stop-color="#808080"/><stop offset=".708" stop-color="#333"/><stop offset="1"/></linearGradient><linearGradient id="h" gradientUnits="userSpaceOnUse" x1="359.611" x2="386.028" xlink:href="#g" y1="68.914" y2="68.776"/><radialGradient id="i" cx="293.714" cy="202.903" gradientTransform="matrix(1.0584 1.73412 -1.52023 .92785 291.31 -494.696)" gradientUnits="userSpaceOnUse" r="24.864" xlink:href="#j"/><linearGradient id="j"><stop offset="0" stop-color="#fff"/><stop offset=".241" stop-color="#ccc"/><stop offset=".502" stop-color="#4d4d4d"/><stop offset=".727" stop-color="#1a1a1a"/><stop offset="1"/></linearGradient><filter id="k" color-interpolation-filters="sRGB" height="1.072" width="1.072" x="-.036" y="-.036"><feGaussianBlur stdDeviation=".526"/></filter><radialGradient id="l" cx="293.714" cy="202.903" gradientTransform="matrix(.79096 1.29594 -1.1361 .6934 246.442 -240.88)" gradientUnits="userSpaceOnUse" r="24.864" xlink:href="#j"/><radialGradient id="m" cx="293.714" cy="202.903" gradientTransform="matrix(.3442 .56395 -.49439 .30174 252.344 60.125)" gradientUnits="userSpaceOnUse" r="24.864" xlink:href="#j"/><radialGradient id="n" cx="293.714" cy="202.903" gradientTransform="matrix(.16564 .2714 -.23792 .1452 254.702 180.428)" gradientUnits="userSpaceOnUse" r="24.864" xlink:href="#j"/><radialGradient id="o" cx="233.626" cy="323.56" gradientTransform="matrix(-.93417 1.28844 -.91997 -.66702 744.656 221.533)" gradientUnits="userSpaceOnUse" r="28.483" xlink:href="#e"/><radialGradient id="p" cx="340.077" cy="328.827" gradientTransform="matrix(.3071 .00046 -.00016 .10859 264.359 22.85)" gradientUnits="userSpaceOnUse" r="27.205" xlink:href="#q"/><linearGradient id="q"><stop offset="0" stop-color="#fff"/><stop offset=".214" stop-color="#ccc"/><stop offset=".463" stop-color="#4d4d4d"/><stop offset=".657" stop-color="#1a1a1a"/><stop offset="1"/></linearGradient><radialGradient id="r" cx="340.077" cy="328.827" gradientTransform="matrix(.35333 .00053 -.00019 .12493 248.645 22)" gradientUnits="userSpaceOnUse" r="27.205" xlink:href="#q"/><radialGradient id="s" cx="340.077" cy="328.827" gradientTransform="matrix(.40075 .0006 -.00021 .1417 232.743 21.58)" gradientUnits="userSpaceOnUse" r="27.205" xlink:href="#q"/><radialGradient id="t" cx="340.077" cy="328.827" gradientTransform="matrix(.4612 .0007 -.00024 .16308 212.194 20.457)" gradientUnits="userSpaceOnUse" r="27.205" xlink:href="#q"/><radialGradient id="u" cx="340.077" cy="328.827" gradientTransform="matrix(.50744 .00076 -.00027 .17942 196.48 21.524)" gradientUnits="userSpaceOnUse" r="27.205" xlink:href="#q"/><radialGradient id="v" cx="340.077" cy="328.827" gradientTransform="matrix(.25262 .00038 -.00013 .08932 282.878 25.364)" gradientUnits="userSpaceOnUse" r="27.205" xlink:href="#q"/><radialGradient id="w" cx="340.077" cy="328.827" gradientTransform="matrix(.20358 .0003 -.0001 .07198 299.545 28.025)" gradientUnits="userSpaceOnUse" r="27.205" xlink:href="#q"/><radialGradient id="x" cx="125.392" cy="-264.954" gradientTransform="matrix(-.04951 1.58144 -.90109 -.02821 249.74 -82.145)" gradientUnits="userSpaceOnUse" r="22.238" xlink:href="#j"/><radialGradient id="y" cx="374.843" cy="193.983" gradientTransform="matrix(1.11904 -.01121 .00434 .4326 -45.461 114.271)" gradientUnits="userSpaceOnUse" r="27.102" xlink:href="#j"/><radialGradient id="z" cx="125.392" cy="-264.954" gradientTransform="matrix(1.58144 .04951 -.02821 .90109 -82.145 -32.349)" gradientUnits="userSpaceOnUse" r="22.238" xlink:href="#j"/><radialGradient id="A" cx="370.793" cy="79.791" gradientTransform="matrix(.01634 .766 -1.69793 .03622 492.554 -178.913)" gradientUnits="userSpaceOnUse" r="103.158" xlink:href="#j"/><radialGradient id="B" cx="374.387" cy="203.222" gradientTransform="matrix(1.3164 -.03828 .01435 .49344 -121.371 117.277)" gradientUnits="userSpaceOnUse" r="30.715" xlink:href="#j"/><radialGradient id="C" cx="329.343" cy="196.149" gradientTransform="matrix(.02641 2.0081 -2.73845 .03602 875.34 -469.066)" gradientUnits="userSpaceOnUse" r="64.538"><stop offset="0" stop-color="#e6e6e6"/><stop offset=".308" stop-color="#a4a4a4"/><stop offset=".533" stop-color="#888"/><stop offset=".7" stop-color="#848484"/><stop offset="1"/></radialGradient><radialGradient id="D" cx="347.066" cy="239.274" gradientTransform="matrix(-.00342 1.03094 -1.75927 -.00582 745.536 -136.729)" gradientUnits="userSpaceOnUse" r="58.768"><stop offset="0" stop-color="#fff"/><stop offset=".363" stop-color="#008b00"/><stop offset=".612" stop-color="#006100"/><stop offset="1" stop-color="#002a00"/></radialGradient><filter id="E" color-interpolation-filters="sRGB" height="1.197" width="1.082" x="-.041" y="-.098"><feGaussianBlur stdDeviation="1.197"/></filter><pattern id="F" patternTransform="matrix(1.5948 0 0 1.37825 228.784 262.858)" xlink:href="#G"/><pattern id="G" patternTransform="matrix(1.5948 0 0 1.37825 228.784 262.858)" xlink:href="#H"/><pattern id="H" height="10" patternTransform="scale(10)" patternUnits="userSpaceOnUse" width="10"><circle cx="2.567" cy=".81" r=".45"/><circle cx="3.048" cy="2.33" r=".45"/><circle cx="4.418" cy="2.415" r=".45"/><circle cx="1.844" cy="3.029" r=".45"/><circle cx="6.08" cy="1.363" r=".45"/><circle cx="5.819" cy="4.413" r=".45"/><circle cx="4.305" cy="4.048" r=".45"/><circle cx="5.541" cy="3.045" r=".45"/><circle cx="4.785" cy="5.527" r=".45"/><circle cx="2.667" cy="5.184" r=".45"/><circle cx="7.965" cy="1.448" r=".45"/><circle cx="7.047" cy="5.049" r=".45"/><circle cx="4.34" cy=".895" r=".45"/><circle cx="7.125" cy=".34" r=".45"/><circle cx="9.553" cy="1.049" r=".45"/><circle cx="7.006" cy="2.689" r=".45"/><circle cx="8.909" cy="2.689" r=".45"/><circle cx="9.315" cy="4.407" r=".45"/><circle cx="7.82" cy="3.87" r=".45"/><circle cx="8.27" cy="5.948" r=".45"/><circle cx="7.973" cy="7.428" r=".45"/><circle cx="9.342" cy="8.072" r=".45"/><circle cx="8.206" cy="9.315" r=".45"/><circle cx="9.682" cy="9.475" r=".45"/><circle cx="9.688" cy="6.186" r=".45"/><circle cx="3.379" cy="6.296" r=".45"/><circle cx="2.871" cy="8.204" r=".45"/><circle cx="4.59" cy="8.719" r=".45"/><circle cx="3.181" cy="9.671" r=".45"/><circle cx="5.734" cy="7.315" r=".45"/><circle cx="6.707" cy="6.513" r=".45"/><circle cx="5.73" cy="9.67" r=".45"/><circle cx="6.535" cy="8.373" r=".45"/><circle cx="4.37" cy="7.154" r=".45"/><circle cx=".622" cy="7.25" r=".45"/><circle cx=".831" cy="5.679" r=".45"/><circle cx="1.257" cy="8.519" r=".45"/><circle cx="1.989" cy="6.877" r=".45"/><circle cx=".374" cy="3.181" r=".45"/><circle cx="1.166" cy="1.664" r=".45"/><circle cx="1.151" cy=".093" r=".45"/><circle cx="1.151" cy="10.093" r=".45"/><circle cx="1.302" cy="4.451" r=".45"/><circle cx="3.047" cy="3.763" r=".45"/></pattern><linearGradient id="I" gradientUnits="userSpaceOnUse" x1="363.953" x2="363.886" xlink:href="#J" y1="288.631" y2="295.222"/><linearGradient id="J"><stop offset="0" stop-color="#b3b3b3"/><stop offset="1" stop-color="#4d4d4d"/></linearGradient><linearGradient id="K" gradientUnits="userSpaceOnUse" x1="363.953" x2="363.886" xlink:href="#J" y1="302.022" y2="308.613"/><filter id="L" color-interpolation-filters="sRGB" height="1.118" width="1.03" x="-.015" y="-.059"><feGaussianBlur stdDeviation="1.164"/></filter><radialGradient id="M" cx="371.837" cy="208.168" gradientTransform="matrix(1.33065 -.02054 .00394 .25509 -123.768 129.141)" gradientUnits="userSpaceOnUse" r="92.644" xlink:href="#j"/><radialGradient id="N" cx="325.23" cy="289.921" gradientTransform="matrix(1.82498 .00336 -.00222 1.20522 -267.664 -60.591)" gradientUnits="userSpaceOnUse" r="10.443" xlink:href="#O"/><linearGradient id="O"><stop offset="0" stop-color="#ececec"/><stop offset=".169" stop-color="#a4a4a4"/><stop offset=".434" stop-color="#666"/><stop offset="1" stop-color="#1a1a1a"/></linearGradient><radialGradient id="P" cx="324.711" cy="291.348" gradientTransform="matrix(1.30155 .00453 -.00255 .7309 -97.197 78.78)" gradientUnits="userSpaceOnUse" r="6.877" xlink:href="#Q"/><linearGradient id="Q"><stop offset="0" stop-color="#fff" stop-opacity=".816"/><stop offset=".452" stop-color="#fff" stop-opacity=".341"/></linearGradient><radialGradient id="R" cx="324.908" cy="289.921" gradientTransform="matrix(-.01258 1.95845 -1.25633 -.00807 693.231 -344.054)" gradientUnits="userSpaceOnUse" r="9.228" xlink:href="#S"/><linearGradient id="S"><stop offset="0" stop-color="#e6e6e6"/><stop offset=".491" stop-color="#999"/><stop offset="1"/></linearGradient><filter id="T" color-interpolation-filters="sRGB" height="1.223" width="1.093" x="-.046" y="-.111"><feGaussianBlur stdDeviation="1.596"/></filter><radialGradient id="U" cx="351.584" cy="233.521" gradientTransform="matrix(-.00828 .55075 -1.50734 -.02264 706.487 52.847)" gradientUnits="userSpaceOnUse" r="56.657"><stop offset="0" stop-color="#fff"/><stop offset=".29" stop-opacity=".146"/><stop offset=".506" stop-color="#fff"/><stop offset=".746" stop-opacity=".145"/><stop offset=".884" stop-color="#fff"/><stop offset="1" stop-opacity=".145"/></radialGradient><filter id="V" color-interpolation-filters="sRGB" height="1.05" width="1.021" x="-.01" y="-.025"><feGaussianBlur stdDeviation=".2"/></filter><radialGradient id="W" cx="330.498" cy="329.074" gradientTransform="matrix(.65915 2.05082 -1.85579 .59646 758.9 -843.78)" gradientUnits="userSpaceOnUse" r="7.75"><stop offset="0" stop-color="#1a00ff"/><stop offset=".44" stop-color="#1000ad"/><stop offset="1"/></radialGradient><radialGradient id="X" cx="325.23" cy="289.921" gradientTransform="matrix(2.62247 .00483 -.0032 1.7319 -483.142 -480.81)" gradientUnits="userSpaceOnUse" r="10.443" xlink:href="#O"/><radialGradient id="Y" cx="324.711" cy="291.348" gradientTransform="matrix(1.8703 .00652 -.00366 1.0503 -238.183 -280.534)" gradientUnits="userSpaceOnUse" r="6.877" xlink:href="#Q"/><radialGradient id="Z" cx="324.908" cy="289.921" gradientTransform="matrix(-.01808 2.81427 -1.80533 -.0116 897.653 -888.142)" gradientUnits="userSpaceOnUse" r="9.228" xlink:href="#S"/><radialGradient id="aa" cx="308.832" cy="386.914" gradientTransform="matrix(1.84481 .05192 -.02502 .889 -254.136 32.901)" gradientUnits="userSpaceOnUse" r="45.563" xlink:href="#ab"/><linearGradient id="ab"><stop offset="0" stop-color="#ccc"/><stop offset=".194" stop-color="#999"/><stop offset=".45" stop-color="#4d4d4d"/><stop offset=".727" stop-color="#1a1a1a"/><stop offset="1"/></linearGradient><radialGradient id="ac" cx="340.077" cy="328.827" gradientTransform="matrix(1.27955 .00192 -.00068 .45243 -93.607 178.023)" gradientUnits="userSpaceOnUse" r="27.205" xlink:href="#q"/><radialGradient id="ad" cx="340.077" cy="328.827" gradientTransform="matrix(1.27955 .00192 -.00068 .45243 -93.607 194.023)" gradientUnits="userSpaceOnUse" r="27.205" xlink:href="#q"/><radialGradient id="ae" cx="340.077" cy="328.827" gradientTransform="matrix(1.27955 .00192 -.00068 .45243 -93.607 211.593)" gradientUnits="userSpaceOnUse" r="27.205" xlink:href="#q"/><radialGradient id="af" cx="340.077" cy="328.827" gradientTransform="matrix(1.27955 .00192 -.00068 .45243 -93.607 227.897)" gradientUnits="userSpaceOnUse" r="27.205" xlink:href="#q"/><radialGradient id="ag" cx="308.832" cy="386.914" gradientTransform="matrix(-1.84481 .05192 .02502 .889 1002.184 32.901)" gradientUnits="userSpaceOnUse" r="45.563" xlink:href="#ab"/><filter id="ah" color-interpolation-filters="sRGB" height="1.048" width="1.048" x="-.024" y="-.024"><feGaussianBlur stdDeviation=".469"/></filter><radialGradient id="ai" cx="330.498" cy="329.074" gradientTransform="matrix(.4587 1.42717 -1.29144 .41508 596.673 -313.183)" gradientUnits="userSpaceOnUse" r="7.75"><stop offset="0" stop-color="#f00"/><stop offset=".44" stop-color="#ad0000"/><stop offset="1"/></radialGradient><radialGradient id="aj" cx="340.267" cy="254.309" gradientTransform="matrix(1.90858 -1.08478 1.17678 2.07044 -854.874 -497.123)" gradientUnits="userSpaceOnUse" r="6.187"><stop offset="0" stop-color="#fff"/><stop offset=".305" stop-color="#4d4d4d"/><stop offset="1"/></radialGradient><radialGradient id="ak" cx="338.891" cy="97.061" gradientTransform="matrix(-.05787 2.64063 -3.76813 -.08258 724.242 -789.809)" gradientUnits="userSpaceOnUse" r="23.463"><stop offset="0" stop-color="#ccc"/><stop offset=".518" stop-color="#808080"/><stop offset="1"/></radialGradient><radialGradient id="al" cx="337.406" cy="116.521" gradientTransform="matrix(-1.35096 .6466 -.70165 -1.46598 871.117 59.472)" gradientUnits="userSpaceOnUse" r="20.017"><stop offset="0" stop-color="#fff" stop-opacity=".709"/><stop offset=".362" stop-color="#3e3eff" stop-opacity=".108"/><stop offset="1" stop-color="#000080" stop-opacity=".759"/></radialGradient><g fill="#8522f6"><path d="m252.636 54.448c0-4.938-1.384-5.804-6.142-5.804h-8.74c-2.78 0-5.715.607-5.715 4.15 0 3.645 3.285 4.163 5.714 4.163h6.581v47.179h-6.58c-2.78 0-5.715.607-5.715 4.162 0 3.634 3.285 4.151 5.714 4.151h21.115c2.43 0 5.715-.517 5.715-4.151 0-3.555-2.936-4.162-5.715-4.162h-6.232z"/><path d="m198.437 106.725c0 2.861.608 5.722 4.157 5.722 3.56 0 4.168-2.86 4.168-5.722v-21.066l11.614-9.62c1.476-1.217 2.602-1.994 4.157-1.994h2.433c1.994 0 3.988 0 5.024 1.475.868 1.206.868 2.254.868 3.64 0 2.68 1.216 5.113 4.247 5.113 3.56 0 4.078-2.951 4.078-5.812 0-3.808-.958-6.67-3.73-9.452-2.252-2.253-4.933-3.29-8.144-3.29h-6.68c-2.602 0-5.024 1.646-7.367 3.55l-6.5 5.384v-3.39c0-2.772-.868-5.543-4.168-5.543-3.808 0-4.157 3.12-4.157 6.15zm-2.917-35.285c0-2.86-.608-5.72-4.155-5.72-3.559 0-4.167 2.86-4.167 5.72v24.176l-12.217 7.714a4.6 4.6 0 0 1 -2.601.777h-2.77c-1.994 0-4.156-.518-4.854-1.734-.698-1.205-.777-3.468-.867-5.372l-.867-25.56c-.09-2.692-.518-5.721-4.076-5.721-3.806 0-4.245 3.21-4.155 6.238l.867 26.17c.169 4.504.09 8.062 3.817 11.271 2.77 2.331 5.371 3.03 7.713 3.03h6.149c2.252 0 4.504-1.037 7.195-2.77l6.756-4.426v1.385c0 2.86.608 5.81 4.156 5.81 4.425 0 4.076-4.245 4.076-6.148zm-83.867 35.285c0 2.861.609 5.722 4.157 5.722 3.56 0 4.168-2.86 4.168-5.722v-21.066l11.615-9.62c1.475-1.217 2.602-1.994 4.156-1.994h2.434c1.994 0 3.987 0 5.024 1.475.867 1.206.867 2.254.867 3.64 0 2.68 1.217 5.113 4.247 5.113 3.56 0 4.078-2.951 4.078-5.812 0-3.808-.957-6.67-3.729-9.452-2.253-2.253-4.934-3.29-8.144-3.29h-6.68c-2.603 0-5.025 1.646-7.368 3.55l-6.5 5.384v-3.39c0-2.772-.867-5.543-4.168-5.543-3.807 0-4.157 3.12-4.157 6.15z"/><path d="m84.994 73.972h13.957c2.428 0 5.722-.52 5.722-4.161 0-3.554-2.948-4.161-5.722-4.161h-13.957v-8.496c0-2.86-.607-5.722-4.161-5.722s-4.161 2.861-4.161 5.722v8.496h-2.688c-2.774 0-5.721.607-5.721 4.161 0 3.641 3.294 4.161 5.721 4.161h2.688v22.628c0 4.508-.174 8.062 3.034 11.616 2.947 3.208 6.588 4.161 10.75 4.161h4.247c4.422 0 8.41-.606 11.444-4.247 1.387-1.648 2.86-4.595 2.86-6.936 0-2.34-1.907-4.16-4.247-4.16-2.081 0-3.641 1.386-4.162 3.38-.866 3.381-2.427 3.641-5.808 3.641h-4.248c-5.721 0-5.548-2.687-5.548-7.369z" fill-rule="evenodd"/></g><g transform="matrix(.28485 0 0 .28512 -57.716 -6.025)"><g transform="matrix(-1 0 0 1 745.353 0)"><rect fill="url(#a)" height="3.14" ry="1.57" transform="matrix(.63298912 -.77416069 .77318849 .63417814 0 0)" width="31.054" x="-131.354" y="374.403"/><rect fill="url(#c)" height="3.14" ry="1.57" transform="matrix(.63298912 -.77416069 .77318849 .63417814 0 0)" width="31.054" x="-131.254" y="386.969"/><path d="m225.841 293.794a2.974 2.974 0 0 0 -4.197.418l-12.556 15.34c-7.894 9.567-8.535 19.089-2.081 29.015l18.03-22.024a2.96 2.96 0 0 1 2.012-1.073 2.96 2.96 0 0 1 2.184.655l7.296 5.972c.64.524.998 1.254 1.074 2.013a2.96 2.96 0 0 1 -.655 2.184l-17.919 21.89c10.111 3.718 20.236.943 27.32-8.129l12.557-15.339a2.974 2.974 0 0 0 -.419-4.197l-1.432-15.455-16.323-13.363z" fill="url(#d)"/><rect fill="url(#f)" height="33.34" ry="3.131" transform="matrix(.86053762 .5093869 -.5093869 .86053762 0 0)" width="20.314" x="359.612" y="74.732"/><rect fill="url(#h)" height="35.791" ry="2.984" transform="matrix(.86053762 .5093869 -.5093869 .86053762 0 0)" width="26.342" x="356.707" y="49.317"/><ellipse cx="305.291" cy="218.395" fill="url(#i)" rx="23.444" ry="23.443"/><circle cx="256.89" cy="292.027" filter="url(#k)" opacity=".45" r="17.52" transform="matrix(1.0324 0 0 1.0324 -8.323 -9.461)"/><circle cx="256.89" cy="292.027" fill="url(#l)" r="17.52"/><circle cx="256.89" cy="292.027" fill="url(#m)" r="7.624"/><circle cx="256.89" cy="292.027" fill="url(#n)" r="3.669"/><path d="m227.478 302.178a2.05 2.05 0 0 0 -2.891.288l-8.65 10.567c-5.438 6.591-7.858 11.477-3.412 18.315l12.42-15.171a2.04 2.04 0 0 1 1.387-.74 2.04 2.04 0 0 1 1.505.451l8.981 7.31c.44.36.687.863.74 1.385a2.04 2.04 0 0 1 -.452 1.505l-12.344 15.08c6.966 2.561 11.963-.871 16.843-7.121l8.65-10.567a2.05 2.05 0 0 0 -.288-2.891l-.987-10.647-11.244-9.205z" fill="url(#o)"/></g><rect fill="url(#p)" height="4.287" ry="2.144" width="12.385" x="362.551" y="56.569"/><rect fill="url(#r)" height="4.933" ry="2.466" width="14.25" x="361.619" y="60.795"/><rect fill="url(#s)" height="5.594" ry="2.797" width="16.162" x="360.878" y="65.583"/><rect fill="url(#t)" height="6.438" ry="3.219" width="18.6" x="359.659" y="71.096"/><rect fill="url(#u)" height="7.084" ry="3.542" width="20.464" x="358.727" y="77.24"/><rect fill="url(#v)" height="3.527" ry="1.763" width="10.188" x="363.65" y="53.101"/><rect fill="url(#w)" height="2.842" ry="1.421" width="8.21" x="364.639" y="50.379"/><path d="m493.657 121.16v26.235a9.1 9.1 0 0 1 -9.121 9.121h-4.514a9.1 9.1 0 0 1 -9.12-9.121v-26.234a9.1 9.1 0 0 1 9.12-9.121h4.514a9.1 9.1 0 0 1 9.12 9.12" fill="url(#x)"/><rect fill="url(#y)" height="12.908" ry="3.165" width="54.203" x="347.741" y="187.529"/><rect fill="url(#a)" height="3.14" ry="1.57" transform="matrix(.63298912 -.77416069 .77318849 .63417814 0 0)" width="31.054" x="-131.354" y="374.403"/><rect fill="url(#c)" height="3.14" ry="1.57" transform="matrix(.63298912 -.77416069 .77318849 .63417814 0 0)" width="31.054" x="-131.254" y="386.969"/><path d="m225.841 293.794a2.974 2.974 0 0 0 -4.197.418l-12.556 15.34c-7.894 9.567-8.535 19.089-2.081 29.015l18.03-22.024a2.96 2.96 0 0 1 2.012-1.073 2.96 2.96 0 0 1 2.184.655l7.296 5.972c.64.524.998 1.254 1.074 2.013a2.96 2.96 0 0 1 -.655 2.184l-17.919 21.89c10.111 3.718 20.236.943 27.32-8.129l12.557-15.339a2.974 2.974 0 0 0 -.419-4.197l-1.432-15.455-16.323-13.363z" fill="url(#d)"/><rect fill="url(#f)" height="33.34" ry="3.131" transform="matrix(.86053762 .5093869 -.5093869 .86053762 0 0)" width="20.314" x="359.612" y="74.732"/><rect fill="url(#h)" height="35.791" ry="2.984" transform="matrix(.86053762 .5093869 -.5093869 .86053762 0 0)" width="26.342" x="356.707" y="49.317"/><ellipse cx="305.291" cy="218.395" fill="url(#i)" rx="23.444" ry="23.443"/><circle cx="256.89" cy="292.027" filter="url(#k)" opacity=".45" r="17.52" transform="matrix(1.0324 0 0 1.0324 -8.323 -9.461)"/><circle cx="256.89" cy="292.027" fill="url(#l)" r="17.52"/><circle cx="256.89" cy="292.027" fill="url(#m)" r="7.624"/><circle cx="256.89" cy="292.027" fill="url(#n)" r="3.669"/><path d="m227.478 302.178a2.05 2.05 0 0 0 -2.891.288l-8.65 10.567c-5.438 6.591-7.858 11.477-3.412 18.315l12.42-15.171a2.04 2.04 0 0 1 1.387-.74 2.04 2.04 0 0 1 1.505.451l8.981 7.31c.44.36.687.863.74 1.385a2.04 2.04 0 0 1 -.452 1.505l-12.344 15.08c6.966 2.561 11.963-.871 16.843-7.121l8.65-10.567a2.05 2.05 0 0 0 -.288-2.891l-.987-10.647-11.244-9.205z" fill="url(#o)"/><path d="m121.16-276.265h26.235a9.1 9.1 0 0 1 9.121 9.121v4.513a9.1 9.1 0 0 1 -9.121 9.121h-26.234a9.1 9.1 0 0 1 -9.121-9.12v-4.514a9.1 9.1 0 0 1 9.12-9.121" fill="url(#z)" transform="rotate(90)"/><path d="m313.076 83.723h120.04c23.12 0 41.734 18.614 41.734 41.735v20.652c0 23.12-18.613 41.734-41.734 41.734h-120.04c-23.121 0-41.735-18.613-41.735-41.734v-20.652c0-23.121 18.614-41.735 41.734-41.735" fill="url(#A)"/><rect fill="url(#B)" height="14.629" ry="3.587" width="61.43" x="343.671" y="195.908"/><rect fill="url(#C)" height="116.168" ry="9.155" width="129.076" x="307.913" y="203.333"/><rect fill="url(#D)" height="70.171" ry="3.394" width="114.73" x="314.82" y="212.74"/><path d="m315.552 256.07h13.332l9.824-30.174 5.964 30.524 7.368-13.332 11.227 29.823 6.666-19.297 15.438-.35 6.316-23.156 6.315 37.542 6.315-24.56 3.51 12.63h20.35" style="fill:none;stroke:#000;stroke-linecap:round;stroke-linejoin:round;stroke-width:3.515;filter:url(#E)"/><rect fill="url(#F)" height="70.171" opacity=".268" ry="3.394" width="114.73" x="314.82" y="212.74"/><path d="m347.174 288.73h50.361a3.386 3.386 0 0 1 3.394 3.394v.188a3.386 3.386 0 0 1 -3.394 3.394h-50.361a3.386 3.386 0 0 1 -3.394-3.394v-.188a3.386 3.386 0 0 1 3.394-3.394" fill="none" stroke="url(#I)" stroke-linecap="round" stroke-linejoin="round" stroke-width="1.795"/><path d="m347.174 302.122h50.361a3.386 3.386 0 0 1 3.394 3.393v.189a3.386 3.386 0 0 1 -3.394 3.394h-50.361a3.386 3.386 0 0 1 -3.394-3.394v-.189a3.386 3.386 0 0 1 3.394-3.393" fill="none" stroke="url(#K)" stroke-linecap="round" stroke-linejoin="round" stroke-width="1.795"/><path d="m448.457 183.277c9.182.249 16.627.485 16.627-15.928v-23.713c.104-5.04-1.115-7.768-6.915-7.768h-10.003c-4.72-.055-7.811 1.408-11.004 5.048l-10.451 11.085c-4.301 4.777-7.989 6.649-16.16 6.864h-76.695c-7.686-.215-11.374-2.087-15.675-6.864l-10.451-11.085c-3.193-3.64-6.283-5.103-11.004-5.048h-10.003c-5.8 0-7.02 2.728-6.915 7.768v23.713c0 16.413 7.444 16.177 16.627 15.928z" filter="url(#L)" opacity=".45"/><path d="m448.457 186.719c9.182.249 16.627.485 16.627-15.928v-23.713c.104-5.04-1.115-7.768-6.915-7.768h-10.003c-4.72-.055-7.811 1.408-11.004 5.048l-10.451 11.085c-4.301 4.777-7.989 6.649-16.16 6.864h-76.695c-7.686-.215-11.374-2.087-15.675-6.864l-10.451-11.085c-3.193-3.64-6.283-5.103-11.004-5.048h-10.003c-5.8 0-7.02 2.728-6.915 7.768v23.713c0 16.413 7.444 16.177 16.627 15.928z" fill="url(#M)"/><path d="m448.457 186.719c9.182.249 16.627.485 16.627-15.928v-23.713c.104-5.04-1.115-7.768-6.915-7.768h-10.003c-4.72-.055-7.811 1.408-11.004 5.048l-10.451 11.085c-4.301 4.777-7.989 6.649-16.16 6.864h-76.695c-7.686-.215-11.374-2.087-15.675-6.864l-10.451-11.085c-3.193-3.64-6.283-5.103-11.004-5.048h-10.003c-5.8 0-7.02 2.728-6.915 7.768v23.713c0 16.413 7.444 16.177 16.627 15.928z" fill="#fff" fill-opacity=".595"/><g transform="translate(95.431)"><ellipse cx="325.276" cy="299.152" fill="url(#ai)" rx="9.038" ry="9.037" stroke="url(#N)" stroke-linecap="round" stroke-linejoin="round" stroke-width="2.811"/><path d="m318.39 296.71c4.266-2.317 8.881-2.087 13.754.021-4.21-4.486-8.634-6.409-13.754-.021" fill="url(#P)"/><circle cx="325.276" cy="299.152" fill="none" r="8.896" stroke="url(#R)" stroke-linecap="round" stroke-linejoin="round" stroke-width=".663"/></g><ellipse cx="325.276" cy="299.152" fill="url(#ai)" rx="9.038" ry="9.037" stroke="url(#N)" stroke-linecap="round" stroke-linejoin="round" stroke-width="2.811"/><path d="m318.39 296.71c4.266-2.317 8.881-2.087 13.754.021-4.21-4.486-8.634-6.409-13.754-.021" fill="url(#P)"/><circle cx="325.276" cy="299.152" fill="none" r="8.896" stroke="url(#R)" stroke-linecap="round" stroke-linejoin="round" stroke-width=".663"/><path d="m429.55 216.134v63.383a3.386 3.386 0 0 1 -3.394 3.394h-107.942c43.648-17.289 83.6-43.771 111.336-66.777" fill="url(#F)" opacity=".436"/><g stroke-linecap="round" stroke-linejoin="round"><g fill="none"><path d="m315.52 253.44h13.332l9.824-30.174 5.964 30.524 7.368-13.332 11.227 29.823 6.667-19.297 15.438-.35 6.315-23.157 6.315 37.542 6.316-24.56 3.508 12.631h20.35" stroke="#0f0" stroke-width="2.807"/><path d="m315.52 253.44h13.332l9.824-30.174 5.964 30.524 7.368-13.332 11.227 29.823 6.667-19.297 15.438-.35 6.315-23.157 6.315 37.542 6.316-24.56 3.508 12.631h20.35" filter="url(#T)" opacity=".693" stroke="#0f0" stroke-width="2.807"/><path d="m315.52 253.44h13.332l9.824-30.174 5.964 30.524 7.368-13.332 11.227 29.823 6.667-19.297 15.438-.35 6.315-23.157 6.315 37.542 6.316-24.56 3.508 12.631h20.35" filter="url(#V)" stroke="url(#U)" stroke-width="1.389"/><rect height="70.171" ry="3.394" stroke="#000" stroke-width="2.807" width="114.73" x="314.82" y="212.74"/></g><circle cx="368.906" cy="36.137" fill="url(#W)" r="12.987" stroke="url(#X)" stroke-width="4.039"/></g><path d="m359.011 32.628c6.13-3.33 12.762-2.999 19.764.03-6.05-6.446-12.407-9.209-19.764-.03" fill="url(#Y)"/><circle cx="368.906" cy="36.137" fill="none" r="12.784" stroke="url(#Z)" stroke-linecap="round" stroke-linejoin="round" stroke-width=".952"/><path d="m360.404 414.54c-17.31.296-50.314.551-68.692.13-11.884-.086-16.93-1.344-9.354-14.662 7.093-12.207 23.347-20.742 42.264-20.742 11.052 0 26.722 1.466 37.27 4.09 10.226 2.602 9.086 7.046 9.374 16.593.167 13.178-1.631 14.723-10.862 14.59" fill="url(#aa)"/><rect fill="url(#ac)" height="17.862" ry="8.931" width="51.603" x="315.514" y="318.516"/><rect fill="url(#ad)" height="17.862" ry="8.931" width="51.603" x="315.514" y="334.516"/><rect fill="url(#ae)" height="17.862" ry="8.931" width="51.603" x="315.514" y="352.086"/><path d="m324.445 368.39h33.74a8.91 8.91 0 0 1 8.932 8.932c0 4.948-4.101 7.859-8.932 8.93-12.477 2.77-23.554 2.388-33.74 0-4.817-1.128-8.931-3.982-8.931-8.93a8.91 8.91 0 0 1 8.93-8.932" fill="url(#af)"/><g transform="translate(92.452 104.1)"><circle cx="256.89" cy="292.027" filter="url(#k)" opacity=".45" r="17.52" transform="matrix(1.0324 0 0 1.0324 -8.323 -9.461)"/><circle cx="256.89" cy="292.027" fill="url(#l)" r="17.52"/><circle cx="256.89" cy="292.027" fill="url(#m)" r="7.624"/><circle cx="256.89" cy="292.027" fill="url(#n)" r="3.669"/></g><g transform="translate(51.767 -72.965)"><circle cx="256.89" cy="292.027" filter="url(#k)" opacity=".45" r="17.52" transform="matrix(1.0324 0 0 1.0324 -8.323 -9.461)"/><circle cx="256.89" cy="292.027" fill="url(#l)" r="17.52"/><circle cx="256.89" cy="292.027" fill="url(#m)" r="7.624"/><circle cx="256.89" cy="292.027" fill="url(#n)" r="3.669"/></g><g transform="matrix(-1 0 0 1 693.149 -72.608)"><circle cx="256.89" cy="292.027" filter="url(#k)" opacity=".45" r="17.52" transform="matrix(1.0324 0 0 1.0324 -8.323 -9.461)"/><circle cx="256.89" cy="292.027" fill="url(#l)" r="17.52"/><circle cx="256.89" cy="292.027" fill="url(#m)" r="7.624"/><circle cx="256.89" cy="292.027" fill="url(#n)" r="3.669"/></g><path d="m387.644 414.54c17.311.296 50.315.551 68.692.13 11.884-.086 16.931-1.344 9.355-14.662-7.094-12.207-23.348-20.742-42.265-20.742-11.051 0-26.721 1.466-37.269 4.09-10.226 2.602-9.087 7.046-9.375 16.593-.167 13.178 1.632 14.723 10.862 14.59" fill="url(#ag)"/><g transform="matrix(-1 0 0 1 748.048 0)"><rect fill="url(#ac)" height="17.862" ry="8.931" width="51.603" x="315.514" y="318.516"/><rect fill="url(#ad)" height="17.862" ry="8.931" width="51.603" x="315.514" y="334.516"/><rect fill="url(#ae)" height="17.862" ry="8.931" width="51.603" x="315.514" y="352.086"/><path d="m324.445 368.39h33.74a8.91 8.91 0 0 1 8.932 8.932c0 4.948-4.101 7.859-8.932 8.93-12.477 2.77-23.554 2.388-33.74 0-4.817-1.128-8.931-3.982-8.931-8.93a8.91 8.91 0 0 1 8.93-8.932" fill="url(#af)"/><g transform="translate(92.452 104.1)"><circle cx="256.89" cy="292.027" filter="url(#k)" opacity=".45" r="17.52" transform="matrix(1.0324 0 0 1.0324 -8.323 -9.461)"/><circle cx="256.89" cy="292.027" fill="url(#l)" r="17.52"/><circle cx="256.89" cy="292.027" fill="url(#m)" r="7.624"/><circle cx="256.89" cy="292.027" fill="url(#n)" r="3.669"/></g></g><g transform="translate(58.43 -1.29)"><ellipse cx="343.221" cy="119.964" fill="#fff" rx="19.741" ry="19.74"/><circle cx="99.457" cy="-344.208" fill="url(#aj)" r="12.432" transform="matrix(-.07205451 .9974007 -.9974007 -.07205451 0 0)"/><path d="m342.714 97.244c-12.938 0-23.463 10.526-23.463 23.463s10.525 23.463 23.463 23.463 23.463-10.525 23.463-23.463-10.525-23.463-23.463-23.463m0 3.495c11.05 0 19.97 8.919 19.97 19.968s-8.92 19.971-19.97 19.971-19.97-8.92-19.97-19.97 8.92-19.97 19.97-19.97" filter="url(#ah)" opacity=".45"/><path d="m341.854 95.523c-12.938 0-23.463 10.526-23.463 23.463s10.525 23.463 23.462 23.463c12.938 0 23.463-10.525 23.463-23.463s-10.525-23.463-23.462-23.463m0 3.495c11.05 0 19.97 8.919 19.97 19.968s-8.92 19.971-19.97 19.971-19.971-8.92-19.971-19.97 8.92-19.97 19.97-19.97" fill="url(#ak)"/><ellipse cx="341.855" cy="119.139" fill="url(#al)" opacity=".623" rx="20.017" ry="20.018"/><ellipse cx="263.717" cy="238.294" fill="#fff" opacity=".724" rx="17.615" ry="13.904" transform="matrix(.91339632 -.40707145 .40707145 .91339632 0 0)"/></g><ellipse cx="343.221" cy="119.964" fill="#fff" rx="19.741" ry="19.74"/><circle cx="99.457" cy="-344.208" fill="url(#aj)" r="12.432" transform="matrix(-.07205451 .9974007 -.9974007 -.07205451 0 0)"/><path d="m342.714 97.244c-12.938 0-23.463 10.526-23.463 23.463s10.525 23.463 23.463 23.463 23.463-10.525 23.463-23.463-10.525-23.463-23.463-23.463m0 3.495c11.05 0 19.97 8.919 19.97 19.968s-8.92 19.971-19.97 19.971-19.97-8.92-19.97-19.97 8.92-19.97 19.97-19.97" filter="url(#ah)" opacity=".45"/><path d="m341.854 95.523c-12.938 0-23.463 10.526-23.463 23.463s10.525 23.463 23.462 23.463c12.938 0 23.463-10.525 23.463-23.463s-10.525-23.463-23.462-23.463m0 3.495c11.05 0 19.97 8.919 19.97 19.968s-8.92 19.971-19.97 19.971-19.971-8.92-19.971-19.97 8.92-19.97 19.97-19.97" fill="url(#ak)"/><ellipse cx="341.855" cy="119.139" fill="url(#al)" opacity=".623" rx="20.017" ry="20.018"/><ellipse cx="263.717" cy="238.294" fill="#fff" opacity=".724" rx="17.615" ry="13.904" transform="matrix(.91339632 -.40707145 .40707145 .91339632 0 0)"/></g></svg>