<svg viewBox="0 0 72 72" xmlns="http://www.w3.org/2000/svg"><path d="m5 17h62v38h-62z" fill="#1e50a0"/><path d="m9.887 18h-3.887v2.332l26.113 15.668h3.887v-2.332z" fill="#fff"/><path d="m36 20.332v-2.332h-3.887l-26.113 15.668v2.332h3.887z" fill="#fff"/><path d="m6 24h30v6h-30z" fill="#fff"/><path d="m18 18h6v18h-6z" fill="#fff"/><g fill="#d22f27"><path d="m20 18h2v18h-2z"/><path d="m6 26h30v2h-30z"/><path d="m36 33.668-6.113-3.668h-3.887l10 6v-.001z"/><path d="m36 18h-3.887l-8.113 4.868v1.132h2.001l9.999-5.999z"/><path d="m6 20.332 6.113 3.668h3.888l-10-6-.001.001z"/><path d="m6 36h3.887l8.113-4.868v-1.132h-2l-10 5.999z"/></g><path d="m50.954 36 1.305 2.26 1.305 2.261h-2.61-2.61l1.305-2.261z" fill="#5c9e31" stroke="#5c9e31" stroke-linecap="round" stroke-linejoin="round"/><path d="m55.0483 41.7818c0 5.4893-1.8016 9.9393-4.0241 9.9393s-4.0242-4.45-4.0242-9.9393z" fill="#fff"/><path d="m54.0279 42.7818c-.2013 4.8789-1.8477 7.9393-3.0037 7.9393s-2.8025-3.06-3.0038-7.9393zm1.02-1h-8.0479c0 5.4893 1.8017 9.9393 4.0242 9.9393s4.0241-4.45 4.0241-9.9393z"/><ellipse cx="45.9058" cy="41.1927" fill="#a57939" rx="1" ry=".5" stroke="#6a462f" stroke-miterlimit="10" transform="matrix(.85126935 -.52472898 .52472898 .85126935 -14.7874 30.2147)"/><ellipse cx="43.8277" cy="49.9495" fill="#a57939" rx=".5" ry="1" stroke="#6a462f" stroke-miterlimit="10" transform="matrix(.85126935 -.52472898 .52472898 .85126935 -19.6914 30.4267)"/><path d="m40.757 49.4724c-1.3634-.3235-1.9723-2.6772-1.36-5.2572s2.2138-4.4091 3.5772-4.0856a2.0232 2.0232 0 0 1 1.3007 1.4393l-1.7092 7.2022a2.0226 2.0226 0 0 1 -1.8087.7013z" fill="#a57939" stroke="#6a462f" stroke-miterlimit="10"/><ellipse cx="56.0942" cy="41.1927" fill="#a57939" rx=".5" ry="1" stroke="#6a462f" stroke-miterlimit="10" transform="matrix(.52472898 -.85126935 .85126935 .52472898 -8.4062 67.329)"/><ellipse cx="58.1723" cy="49.9495" fill="#a57939" rx="1" ry=".5" stroke="#6a462f" stroke-miterlimit="10" transform="matrix(.52472898 -.85126935 .85126935 .52472898 -14.8729 73.2599)"/><path d="m61.243 49.4724c1.3634-.3235 1.9723-2.6772 1.36-5.2572s-2.2138-4.4091-3.5772-4.0856a2.0232 2.0232 0 0 0 -1.3007 1.4393l1.7092 7.2022a2.0226 2.0226 0 0 0 1.8087.7013z" fill="#a57939" stroke="#6a462f" stroke-miterlimit="10"/><path d="m53.5645 48.0205a.5009.5009 0 0 1 -.3477-.1406l-2.2627-2.1846-2.2627 2.1847a.5.5 0 0 1 -.6953-.7188l2.61-2.52a.5.5 0 0 1 .6954 0l2.61 2.52a.5.5 0 0 1 -.3476.8594z" fill="#5c9e31"/><path d="m54.0279 42.7818c-.2013 4.8789-1.8477 7.9393-3.0037 7.9393s-2.8025-3.06-3.0038-7.9393zm1.02-1h-8.0479c0 5.4893 1.8017 9.9393 4.0242 9.9393s4.0241-4.45 4.0241-9.9393z"/><ellipse cx="57.5784" cy="38.785" fill="#a57939" rx="1" ry="1.5" stroke="#6a462f" stroke-miterlimit="10" transform="matrix(.97297775 -.23089891 .23089891 .97297775 -7.3995 14.3429)"/><ellipse cx="44.4216" cy="38.785" fill="#a57939" rx="1.5" ry="1" stroke="#6a462f" stroke-miterlimit="10" transform="matrix(.23089891 -.97297775 .97297775 .23089891 -3.5722 73.0508)"/><path d="m5 17h62v38h-62z" fill="none" stroke="#000" stroke-linecap="round" stroke-linejoin="round" stroke-width="2"/></svg>