<svg viewBox="0 0 72 72" xmlns="http://www.w3.org/2000/svg"><path d="m5 17h62v38h-62z" fill="#fcea2b"/><path d="m5 17h21v38h-21z" fill="#1e50a0"/><path d="m46 17h21v38h-21z" fill="#d22f27"/><path d="m42 32.1538v11.8462a2.0059 2.0059 0 0 1 -2 2h-8a2.0059 2.0059 0 0 1 -2-2v-11.8462" fill="#d22f27"/><path d="m36 32.1538h6v6.1538h-6z" fill="#f1b31c"/><path d="m30 38.3077h6v7.6923h-6z" fill="#f1b31c"/><ellipse cx="36" cy="38.3077" fill="#6a462f" rx="2.25" ry="2.3077"/><g fill="none" stroke-linecap="round" stroke-linejoin="round" stroke-width="2"><path d="m30 27.5385a12.5962 12.5962 0 0 1 6-1.5385" stroke="#6a462f"/><path d="m42 27.5385a12.5962 12.5962 0 0 0 -6-1.5385" stroke="#6a462f"/><path d="m30 32.1538h12" stroke="#6a462f"/><path d="m42 32.1538v11.8462a2.0059 2.0059 0 0 1 -2 2h-8a2.0059 2.0059 0 0 1 -2-2v-11.8462" stroke="#6a462f"/><path d="m5 17h62v38h-62z" stroke="#000"/></g></svg>