<svg viewBox="0 0 72 72" xmlns="http://www.w3.org/2000/svg"><path d="m5 17h62v38h-62z" fill="#d22f27"/><path d="m5 17h21v38h-21z"/><path d="m46 17h21v38h-21z" fill="#5c9e31"/><path d="m36 48.88a12.89 12.89 0 0 1 -9.111-22 .845.845 0 0 1 1.195 1.195 11.2 11.2 0 1 0 15.83 0 .845.845 0 1 1 1.195-1.195 12.89 12.89 0 0 1 -9.111 22z" fill="#fff" stroke-width=".845"/><path d="m39.38 34.52h-6.76a.845.875 0 0 1 0-1.75h6.76a.845.875 0 0 1 0 1.75z" fill="#fff" stroke-width=".8598"/><circle cx="36" cy="30.3" fill="#fff" r="1.69" stroke-width=".845"/><path d="m41.07 44.76h-10.14a.845.875 0 0 1 0-1.75h10.14a.845.875 0 0 1 0 1.75z" fill="#fff" stroke-width=".8598"/><g stroke-linecap="round" stroke-linejoin="round"><path d="m32.58 28.68v15.07" stroke="#fff" stroke-width="1.775"/><path d="m39.4 28.67v14.91" stroke="#fff" stroke-width="1.766"/><path d="m-18.88 42.61h4.161v1.607h-4.161z" fill="#fff" fill-rule="evenodd" stroke="#fff" stroke-width=".771" transform="matrix(.5 -.8660254 .8660254 .5 0 0)"/><path d="m50.72-19.75h4.161v1.607h-4.161z" fill="#fff" fill-rule="evenodd" stroke="#fff" stroke-width=".771" transform="matrix(.5 .8660254 -.8660254 .5 0 0)"/><path d="m5 17h62v38h-62z" fill="none" stroke="#000" stroke-width="2"/></g></svg>