<svg viewBox="0 0 72 72" xmlns="http://www.w3.org/2000/svg"><path d="m5 17h62v38h-62z" fill="#fff"/><path d="m5 17h62v13h-62z"/><path d="m35.61 28.038.39-8.038.39 8.038 3.437-7.277-2.716 7.576 5.96-5.408-5.408 5.96 7.576-2.716-7.277 3.437 8.038.39-8.038.39 7.277 3.437-7.576-2.716 5.408 5.96-5.96-5.408 2.716 7.576-3.437-7.277-.39 8.038-.39-8.038-3.437 7.277 2.716-7.576-5.96 5.408 5.408-5.96-7.576 2.716 7.277-3.437-8.038-.39 8.038-.39-7.277-3.437 7.576 2.716-5.408-5.96 5.96 5.408-2.716-7.576z" fill="#f1b31c" stroke="#f1b31c" stroke-linecap="round" stroke-linejoin="round" stroke-width="2"/><path d="m5 30h62v12h-62z" fill="#1e50a0"/><path d="m5 55h31l-31-38z" fill="#d22f27"/><path d="m36 55h31v-38z" fill="#d22f27"/><path d="m5 17h62v38h-62z" fill="none" stroke="#000" stroke-linecap="round" stroke-linejoin="round" stroke-width="2"/></svg>