<svg viewBox="0 0 72 72" xmlns="http://www.w3.org/2000/svg"><path d="m5 17h62v38h-62z" fill="#1e50a0"/><path d="m59 29v5c0 9-2.6667 13-8 15-5.3333-2-8-6-8-15v-5z" fill="#fff"/><path d="m9.887 18h-3.887v2.332l26.113 15.668h3.887v-2.332z" fill="#fff"/><path d="m36 20.332v-2.332h-3.887l-26.113 15.668v2.332h3.887z" fill="#fff"/><path d="m6 24h30v6h-30z" fill="#fff"/><path d="m18 18h6v18h-6z" fill="#fff"/><g fill="#d22f27"><path d="m20 18h2v18h-2z"/><path d="m6 26h30v2h-30z"/><path d="m36 33.668-6.113-3.668h-3.887l10 6v-.001z"/><path d="m36 18h-3.887l-8.113 4.868v1.132h2.001l9.999-5.999z"/><path d="m6 20.332 6.113 3.668h3.888l-10-6-.001.001z"/><path d="m6 36h3.887l8.113-4.868v-1.132h-2l-10 5.999z"/></g><path d="m54.5 32.5c-2.204-.506-3.5006.187-4 2" fill="none" stroke="#f1b31c" stroke-linecap="round" stroke-linejoin="round" stroke-width="2"/><path d="m46.5359 35.9019c.6638 2.1617 1.9122 2.9381 3.732 2.4641" fill="none" stroke="#f1b31c" stroke-linecap="round" stroke-linejoin="round" stroke-width="2"/><path d="m53.4641 41.0981c1.54-1.6557 1.5883-3.1251.268-4.4641" fill="none" stroke="#f1b31c" stroke-linecap="round" stroke-linejoin="round" stroke-width="2"/><path d="m44.4545 43a10.67 10.67 0 0 0 6.5455 6 10.67 10.67 0 0 0 6.5455-6z" fill="#92d3f5"/><path d="m59 29v5c0 9-2.6667 13-8 15-5.3333-2-8-6-8-15v-5z" fill="none" stroke="#fcea2b" stroke-linecap="round" stroke-linejoin="round" stroke-width="2"/><path d="m5 17h62v38h-62z" fill="none" stroke="#000" stroke-linecap="round" stroke-linejoin="round" stroke-width="2"/></svg>