<svg viewBox="0 0 72 72" xmlns="http://www.w3.org/2000/svg"><path d="m5 17.08h62v38h-62z" fill="#61b2e4"/><g stroke-linecap="round" stroke-linejoin="round" stroke-width="2"><path d="m23.59 33.2c.1669-.868-.04314-1.763-.5644-1.353-1.067-.4851-2.39-2.864-2.527-3.269 4.986 3.782 9.793 4.234 10.72-1.684.9256-5.918 4.905-4.075 7.306-3.63 2.983.4838 6.239 1.854 8.872 3.304 1.459.7628 1.705 3.005 1.34 4.707-.7856 1.686.6629 2.657 1.791 3.562 1.517 1.584.955 3.955.4262 5.831-.4979 1.562-2.163 3.021-1.797 4.634.1987.8754-.9009 1.524-1.493 2.192-2.176 2.243-5.569 2.092-8.394 1.502-1.493.02412.5204-.8074.1759-1.801.6309-1.816-1.043-2.689-2.849-2.888-2.538-.3144-3.007-.02543-5.544-.5997-1.324.8931-5.073-.8008-5.456-2.743-.3229-1.639-1.799-2.888-2.049-4.516 1.44.2821-.2505-1.575 1.289-2.164-.07913-.7664-.7052-1.763-1.246-1.084z" fill="#fff" stroke="#fff"/><path d="m5 17h62v38h-62z" fill="none" stroke="#000"/></g></svg>