<svg viewBox="0 0 72 72" xmlns="http://www.w3.org/2000/svg"><path d="m5 17h62v38h-62z" fill="#1e50a0"/><path d="m5 17h62v38h-62z" fill="#fff"/><path d="m5 42h62v13h-62z" fill="#61b2e4"/><path d="m5 17h62v13h-62z" fill="#61b2e4"/><g stroke-linecap="round" stroke-linejoin="round"><path d="m36 33.897 1.236-1.897-.06 2.299 2.06-.771-1.334 1.822 2.098.65-2.098.65 1.334 1.822-2.06-.771.06 2.299-1.236-1.897-1.236 1.897.06-2.299-2.06.771 1.334-1.822-2.098-.65 2.098-.65-1.334-1.822 2.06.771-.06-2.299z" fill="#f1b31c" stroke="#f1b31c"/><path d="m5 17h62v38h-62z" fill="none" stroke="#000" stroke-width="2"/></g></svg>