<svg viewBox="0 0 72 72" xmlns="http://www.w3.org/2000/svg"><path d="m5 17h62v38h-62z" fill="#fff"/><path d="m5 17v19l62-19z" fill="#1e50a0" stroke="#d22f27" stroke-linecap="round" stroke-linejoin="round" stroke-width="2"/><path d="m5 36v19h62z" fill="#1e50a0" stroke="#d22f27" stroke-linecap="round" stroke-linejoin="round" stroke-width="2"/><path d="m46.0234 38.8825s-2.1058-4.7163 5.49-4.297c0 0 1.6922-7.057 12.2217-9.3977 0 0 1.02 9.8122-8.8748 13.31a4.1454 4.1454 0 0 0 3.3844 3.9128c.4513.1048 1.1282-.1048 1.2786 0 .8273.7686-5.2451 1.8956-6.5237 1.5113v-2.7163s-2.3511.0525-3.5921-3.0916c-.0375 0-.8645-1.5721-3.3841.7685z" fill="#a57939"/><path d="m52.0944 33.9612s-1.1598-8.8083 1.8112-9.9612c0 0 2.85 2 2.85 4z" fill="#6a462f"/><path d="m50.2833 39.3945s-1.8056-2.8619-3.6222-.9055c0 0-2.6263-4.6637 5.0944-4.489z" fill="#fff"/><path d="m54.4762 44.7153a2.8485 2.8485 0 0 1 -1.9824-.5512.75.75 0 0 1 -.1406-.8662 2.773 2.773 0 0 0 .05-1.2724c-.961-.128-2.6221-.772-3.5879-3.5488a.3236.3236 0 0 0 -.1973-.0918c-.1416-.02-.6845.0117-1.7353 1.0625a.76.76 0 0 1 -.6973.2011.7519.7519 0 0 1 -.541-.4834 4.6707 4.6707 0 0 1 .1728-3.4521 3.31 3.31 0 0 1 2.336-1.5825 11.2583 11.2583 0 0 1 2.3906-.2622c.1279-.002.2793-.0044.375-.0127.0322-.1221.1-.4405.1777-.9258a19.4218 19.4218 0 0 0 .1709-2.3726c.0938-2.5972.209-5.83 2.2207-7.18a.75.75 0 0 1 .5166-.1211 2.6873 2.6873 0 0 1 2.462 2.5547.75.75 0 0 1 -1.5 0 1.0927 1.0927 0 0 0 -.878-1c-1.1523 1.0738-1.2461 3.6812-1.3222 5.8008a20.1992 20.1992 0 0 1 -.1914 2.5674 2.9115 2.9115 0 0 1 -.7129 1.8789 2.0372 2.0372 0 0 1 -1.295.3106 9.7854 9.7854 0 0 0 -2.1015.23 1.8612 1.8612 0 0 0 -1.3379.8462 2.1754 2.1754 0 0 0 -.2442 1.0464 2.7941 2.7941 0 0 1 1.9854-.5849 1.8 1.8 0 0 1 1.2949.9018.7467.7467 0 0 1 .043.1021c.9531 2.8276 2.6357 2.6528 2.709 2.6411a.7694.7694 0 0 1 .8369.5639 5.5691 5.5691 0 0 1 .1494 2.0977 11.0916 11.0916 0 0 0 3.3262-.4048 4.0469 4.0469 0 0 1 -3.3784-4.351.75.75 0 0 1 .3789-.5781 24.4836 24.4836 0 0 0 3.3282-2.2168 6.3988 6.3988 0 0 0 -.5147-1.9551.75.75 0 0 1 1.3965-.5488c.81 2.062.61 2.9351.53 3.1533a.75.75 0 0 1 -.2266.3194 25.0572 25.0572 0 0 1 -3.3923 2.3359 2.6623 2.6623 0 0 0 .5957 1.5029 3.3445 3.3445 0 0 0 2.4336.9829c.5713.0342 1.6338.0977 1.8155.9034.0742.3281.0049.8066-.7461 1.2207a13.0255 13.0255 0 0 1 -4.9725 1.1386z"/><path d="m51.7565 35.75a.76.76 0 0 1 -.1045-.0073.7506.7506 0 0 1 -.64-.8462c.415-2.9732 5.1005-6.7349 5.6328-7.1538.2041-.15 4.55-3.3047 7.5214-3.3047a.749.749 0 0 1 .7354.604 11.0427 11.0427 0 0 1 -2.8216 9.0254.75.75 0 0 1 -1.2216-.1563 12.405 12.405 0 0 0 -1.4707-2.2187.75.75 0 1 1 1.0839-1.0371 9.9241 9.9241 0 0 1 1.1612 1.5893 9.6344 9.6344 0 0 0 1.873-6.2441 18.1327 18.1327 0 0 0 -5.9531 2.937c-1.2959 1.02-4.7734 4.1509-5.0537 6.166a.751.751 0 0 1 -.7425.6465z"/><path d="m50.6842 43.958a.7571.7571 0 0 1 -.2031-.0278 4.3691 4.3691 0 0 0 -1.376-.1953.75.75 0 0 1 -.9746-1.1349 2.2712 2.2712 0 0 1 1.9444-.3l.1835-1.1016a.75.75 0 0 1 1.48.2471l-.3144 1.8862a.7513.7513 0 0 1 -.74.6265zm-1.4933-.2969-.001.001z"/><path d="m42.7555 42 12 5" fill="#fff"/><path d="m54.7555 47.75a.7485.7485 0 0 1 -.2881-.0576l-12-5a.75.75 0 1 1 .5762-1.3848l12 5a.75.75 0 0 1 -.2881 1.4424z"/><path d="m5 17h62v38h-62z" fill="none" stroke="#000" stroke-linecap="round" stroke-linejoin="round" stroke-width="2"/></svg>