<svg viewBox="0 0 72 72" xmlns="http://www.w3.org/2000/svg"><path d="m5 17h62v38h-62z" fill="#d22f27"/><path d="m5 42h62v13h-62z" fill="#5c9e31"/><path d="m5 17h62v13h-62z" fill="#61b2e4"/><g stroke-linecap="round" stroke-linejoin="round"><path d="m38.436 34.61.586-1.61.562 1.618 1.553-.724-.747 1.542 1.61.586-1.618.562.724 1.553-1.542-.747-.586 1.61-.562-1.618-1.553.724.747-1.542-1.61-.586 1.618-.562-.724-1.553z" fill="#fff" stroke="#fff"/><path d="m30.5307 36a4.0529 4.0529 0 0 1 3.3784-3.9236 4.3955 4.3955 0 0 0 -.8108-.0764 4.0043 4.0043 0 1 0 0 8 4.3955 4.3955 0 0 0 .8108-.0764 4.0529 4.0529 0 0 1 -3.3784-3.9236z" fill="#fff" stroke="#fff"/><path d="m5 17h62v38h-62z" fill="none" stroke="#000" stroke-width="2"/></g></svg>