<svg viewBox="0 0 72 72" xmlns="http://www.w3.org/2000/svg"><path d="m5 17h62v38h-62z" fill="#f1b31c"/><path d="m5 17h21v38h-21z" fill="#1e50a0"/><path d="m46 17h21v38h-21z" fill="#1e50a0"/><g stroke="#000" stroke-linecap="round" stroke-linejoin="round"><path d="m33.415 29.501 2.585-2.789 2.585 2.789-.642.595-1.504-1.629v16.821h-.878v-16.821l-1.504 1.629z"/><path d="m41.5 39.212h-.797v-7.312l-1.018 1.103-.435-.403 2.25-2.388z"/><path d="m30.5 30.212 2.25 2.388-.435.403-1.018-1.103v7.312h-.797z"/><path d="m41.5 39.297h-11v-.594h11z"/><path d="m5 17h62v38h-62z" fill="none" stroke-width="2"/></g></svg>