<svg viewBox="0 0 72 72" xmlns="http://www.w3.org/2000/svg"><path d="m5 17h62v38h-62z" fill="#fff"/><path d="m43.5 25.91 1-3h-17l1 3z" fill="#fcea2b" stroke="#fcea2b" stroke-linecap="round" stroke-linejoin="round"/><path d="m36 45.91s7.5-2.5 7.5-10v-10h-15v10c0 7.5 7.5 10 7.5 10z" fill="#1e50a0" stroke="#1e50a0" stroke-linecap="round" stroke-linejoin="round"/><path d="m28.5 32.41v3.5a10.1844 10.1844 0 0 0 .3063 2.5h14.3875a10.1845 10.1845 0 0 0 .3062-2.5v-3.5z" fill="#d22f27" stroke="#d22f27" stroke-miterlimit="10"/><g stroke-linecap="round" stroke-linejoin="round"><path d="m36 30.1603v-2.5" fill="#fcea2b" stroke="#fcea2b"/><path d="m35.375 28.4936h1.25" fill="#fcea2b" stroke="#fcea2b"/><path d="m40.5 30.1603v-2.5" fill="#fcea2b" stroke="#fcea2b"/><path d="m39.875 28.4936h1.25" fill="#fcea2b" stroke="#fcea2b"/><path d="m31.5 30.1603v-2.5" fill="#fcea2b" stroke="#fcea2b"/><path d="m30.875 28.4936h1.25" fill="#fcea2b" stroke="#fcea2b"/><path d="m36 36.6603v-2.5" fill="#fff" stroke="#fff"/><path d="m37.25 35.4103h-2.5" fill="#fff" stroke="#fff"/></g><circle cx="36" cy="43.9103" fill="#fcea2b" r="1"/><circle cx="33" cy="40.9103" fill="#fcea2b" r="1"/><circle cx="39" cy="40.9103" fill="#fcea2b" r="1"/><path d="m47 46.2692a23.0924 23.0924 0 0 1 -11 2.8208" fill="none" stroke="#a57939" stroke-linecap="round" stroke-linejoin="round" stroke-width="2"/><path d="m25 46.2692a23.093 23.093 0 0 0 11 2.8208" fill="none" stroke="#a57939" stroke-linecap="round" stroke-linejoin="round" stroke-width="2"/><path d="m5 17h62v38h-62z" fill="none" stroke="#000" stroke-linecap="round" stroke-linejoin="round" stroke-width="2"/></svg>