<svg viewBox="0 0 72 72" xmlns="http://www.w3.org/2000/svg"><path d="m5 17h62v38h-62z" fill="#d22f27"/><path d="m5 17h31v19h-31z" fill="#1e50a0"/><path d="m9.887 18h-3.887v2.332l26.113 15.668h3.887v-2.332z" fill="#fff"/><path d="m36 20.332v-2.332h-3.887l-26.113 15.668v2.332h3.887z" fill="#fff"/><path d="m6 24h30v6h-30z" fill="#fff"/><path d="m18 18h6v18h-6z" fill="#fff"/><path d="m20 18h2v18h-2z" fill="#d22f27"/><path d="m6 26h30v2h-30z" fill="#d22f27"/><path d="m36 33.668-6.113-3.668h-3.887l10 6v-.001z" fill="#d22f27"/><path d="m36 18h-3.887l-8.113 4.868v1.132h2.001l9.999-5.999z" fill="#d22f27"/><path d="m6 20.332 6.113 3.668h3.888l-10-6-.001.001z" fill="#d22f27"/><path d="m6 36h3.887l8.113-4.868v-1.132h-2l-10 5.999z" fill="#d22f27"/><path d="m44 29h20v17h-20z" fill="#fff"/><path d="m43.9133 45v.4933a3.8071 3.8071 0 0 0 .1237 1.2247 3.8582 3.8582 0 0 0 .269.6564 4.561 4.561 0 0 0 .3533.5593 4.0657 4.0657 0 0 0 .399.4567 5.2435 5.2435 0 0 0 .56.4889c.2175.16.43.3255.6594.4672.2.1233.4038.2394.6066.3575.25.1455.5135.26.7682.3929.2874.1505.592.2574.8871.388.1621.0718.3281.1354.4954.1933.112.0388.2221.0881.3348.1181.1877.05.3638.134.5536.1776.1633.0376.3182.109.482.15.1116.0279.22.07.33.1027.1142.0333.2284.0688.3449.0912.13.025.2575.0616.3836.0962s.2539.0741.3807.0974c.1951.0358.3832.0989.5786.1336.1883.0334.3758.0774.5629.1192.0781.0174.1576.02.2334.0391a4.9463 4.9463 0 0 0 .6426.1149.305.305 0 0 0 .2166-.001 1.4022 1.4022 0 0 0 .1538-.0116c.1857-.0345.37-.0805.5563-.1055.0979-.0131.1939-.0371.29-.056.1657-.0328.3306-.0736.4958-.1114.0707-.0163.1438-.0237.2122-.0452.1471-.0463.2983-.0717.4472-.1089.1281-.0321.2591-.0541.3847-.0946.1728-.0557.35-.0944.5236-.1442a3.4119 3.4119 0 0 0 .3336-.0947 4.1273 4.1273 0 0 1 .4371-.1379c.1871-.0518.3675-.1233.5534-.1782.24-.0711.4728-.172.7076-.263.1879-.0729.3772-.1417.5607-.2272q.2709-.126.5451-.2443c.24-.1031.47-.225.7015-.344a4.6368 4.6368 0 0 0 .4491-.2594c.2123-.1413.2954-.4162.4545-.62.1833-.235.395-.4463.5779-.6818a5.3028 5.3028 0 0 0 .368-.5522c.1687-.2846.3237-.5771.4785-.87l.2008-.3793.369-.6969a1.2625 1.2625 0 0 0 .1191-.6909z" fill="#5c9e31"/><g fill="#d22f27"><circle cx="56.25" cy="31.75" r="1"/><circle cx="51.75" cy="31.75" r="1"/><rect height="8" rx="2.5" width="6" x="51" y="31"/><rect height="2" rx="1" width="4" x="58" y="40"/><rect height="2" rx="1" transform="matrix(.70710678 .70710678 -.70710678 .70710678 50.2218 -27.2462)" width="4" x="56" y="46"/><rect height="2" rx="1" transform="matrix(-.70710678 .70710678 -.70710678 -.70710678 118.5894 44.8787)" width="4" x="48" y="46"/><rect height="2" rx="1" width="4" x="46" y="40"/></g><path d="m60 36c-2.5714 2.3636-6 0-6 0s-3.4286 2.3636-6 0v2.3636a2.0759 2.0759 0 0 1 0 2.3637s.8571 8.2727 6 8.2727 6-8.2727 6-8.2727a2.0759 2.0759 0 0 1 0-2.3637z" fill="#92d3f5"/><path d="m53.75 28.5h-10.25v15.04s0 7.52 10.25 8.46c10.25-.94 10.25-8.46 10.25-8.46v-15.04z" fill="none" stroke="#000" stroke-miterlimit="10"/><path d="m5 17h62v38h-62z" fill="none" stroke="#000" stroke-linecap="round" stroke-linejoin="round" stroke-width="2"/></svg>