<svg viewBox="0 0 72 72" xmlns="http://www.w3.org/2000/svg"><path d="m5 17h62v38h-62z" fill="#f1b31c"/><path d="m5 19v5l62 23v-5z" fill="#fff" stroke="#fff" stroke-miterlimit="10"/><path d="m5 25v5l62 23v-5z" stroke="#000" stroke-miterlimit="10"/><g fill="none" stroke-linecap="round" stroke-linejoin="round" stroke-width="2"><g stroke="#d22f27"><path d="m41.528 34.915c.30362.71783.47151 1.507.47151 2.3355 0 3.3137-2.6863 6-6 6s-6-2.6863-6-6c0-.82843.16789-1.6176.47151-2.3355"/><path d="m36 28v12.5"/><path d="m42 43.25c-3.7143 3.1429-8.1429 3.2143-12 0"/><path d="m26 41.75v-5.75l-2-4.25"/><path d="m46 41.75v-5.25l2-4.75"/><path d="m39.385 31.592c-2.2775-.81785-4.6618-.75339-6.8641-.02937"/></g><path d="m5 17h62v38h-62z" stroke="#000"/></g></svg>