<svg viewBox="0 0 72 72" xmlns="http://www.w3.org/2000/svg"><path d="m5 17h62v38h-62z" fill="#f1b31c"/><path d="m5 42h62v13h-62z" fill="#5c9e31"/><path d="m5 17h62v13h-62z" fill="#d22f27"/><ellipse cx="38.5" cy="33.2" rx="2.2" ry="1.2" transform="matrix(.70710678 -.70710678 .70710678 .70710678 -12.1996 36.9477)"/><ellipse cx="34.5" cy="33.2" rx="1.2" ry="2.2" transform="matrix(.70710678 -.70710678 .70710678 .70710678 -13.3711 34.1192)"/><ellipse cx="36.5" cy="36.8667" fill="#61b2e4" rx="2" ry="3.1333"/><path d="m40 41a1 1 0 0 1 -.707-1.707 1.725 1.725 0 0 0 -.0059-2.5918 1 1 0 0 1 1.42-1.4082 3.7206 3.7206 0 0 1 0 5.414.9967.9967 0 0 1 -.7071.293z" fill="#d22f27"/><path d="m32.8887 41a.9971.9971 0 0 1 -.7071-.293 3.7208 3.7208 0 0 1 0-5.414 1 1 0 0 1 1.419 1.41 1.7242 1.7242 0 0 0 -.0049 2.59 1 1 0 0 1 -.707 1.707z" fill="#d22f27"/><path d="m5 17h62v38h-62z" fill="none" stroke="#000" stroke-linecap="round" stroke-linejoin="round" stroke-width="2"/></svg>