<svg viewBox="0 0 72 72" xmlns="http://www.w3.org/2000/svg"><path d="m5 17h62v38h-62z" fill="#d22f27"/><path d="m5 17v38l62-38z" fill="#f1b31c"/><g fill="none"><path d="m46.24 27.67c.2011.1408-9.044-2.459-5.06 6.075 3.623 7.761-10.23-2.525-11.32 3.865-.7428 4.356-3.086 7.037-7.395 7.782" stroke="#fff" stroke-linecap="round" stroke-linejoin="round" stroke-width="3"/><path d="m40.81 32.58c2.651 1.756 5.4 3.373 7.745 1.011" stroke="#fff" stroke-linecap="round" stroke-linejoin="round" stroke-width="2"/><path d="m41.33 36.44c-.966 4.229-.4486 4.465 2.864 5.502" stroke="#fff" stroke-linecap="round" stroke-linejoin="round" stroke-width="2"/></g><circle cx="46.92" cy="43.06" fill="#fff" r="1.5"/><circle cx="51.01" cy="32.07" fill="#fff" r="1.5"/><circle cx="30.395" cy="48.415" fill="#fff" r="1.5" stroke-width=".6666"/><path d="m29.21 40.36c1.304 2.327 1.453 3.054 1.085 5.196" fill="none" stroke="#fff" stroke-linecap="round" stroke-linejoin="round" stroke-width="2"/><path d="m29.3 38.71c1.54.5389 2.636 1.603 4.377 1.421" fill="none" stroke="#fff" stroke-linecap="round" stroke-linejoin="round" stroke-width="2"/><circle cx="36.445" cy="39.875" fill="#fff" r="1.5" stroke-width=".6666"/><path d="m5 17h62v38h-62z" fill="none" stroke="#000" stroke-linecap="round" stroke-linejoin="round" stroke-width="2"/></svg>