<svg viewBox="0 0 72 72" xmlns="http://www.w3.org/2000/svg"><path d="m5 17h62v38h-62z" fill="#d22f27"/><path d="m5 42h62v13h-62z" fill="#5c9e31"/><path d="m5 17h12v38h-12z" fill="#fff"/><g fill="none" stroke-linecap="round" stroke-linejoin="round" stroke-width="2"><path d="m9.0252 19.5251h4.9497v4.9497h-4.9497z" stroke="#d22f27" transform="matrix(.70710678 -.70710678 .70710678 .70710678 -12.1881 14.5754)"/><path d="m9.0252 26.5251h4.9497v4.9497h-4.9497z" stroke="#d22f27" transform="matrix(.70710678 -.70710678 .70710678 .70710678 -17.1378 16.6257)"/><path d="m9.0252 33.5251h4.9497v4.9497h-4.9497z" stroke="#d22f27" transform="matrix(.70710678 -.70710678 .70710678 .70710678 -22.0876 18.6759)"/><path d="m9.0252 40.5251h4.9497v4.9497h-4.9497z" stroke="#d22f27" transform="matrix(.70710678 -.70710678 .70710678 .70710678 -27.0373 20.7262)"/><path d="m9.0252 47.5251h4.9497v4.9497h-4.9497z" stroke="#d22f27" transform="matrix(.70710678 -.70710678 .70710678 .70710678 -31.9871 22.7764)"/><path d="m5 17h62v38h-62z" stroke="#000"/></g></svg>