<svg viewBox="0 0 72 72" xmlns="http://www.w3.org/2000/svg"><path d="m5.0834 17h62v38h-62z" fill="#1e50a0"/><path d="m5.0834 49h62v6h-62z" fill="#d22f27"/><path d="m5 17h62v6h-62z" fill="#d22f27"/><circle cx="36.0834" cy="36" fill="#fff" r="9"/><circle cx="36.0834" cy="36" fill="#fff" r="7.5" stroke="#5c9e31" stroke-miterlimit="10"/><path d="m38.583 38.5h-2.5v-5.5h3z" fill="#fcea2b"/><g stroke-linecap="round" stroke-linejoin="round"><path d="m36.0833 41a4.9451 4.9451 0 0 0 2.5876-2.2291l-2.6709-2.6709-2.5576 2.5576a4.9084 4.9084 0 0 0 2.6409 2.3424z" fill="#61b2e4" stroke="#61b2e4"/><path d="m36.0834 41s3-1 3-4v-4h-6v4c0 3 3 4 3 4z" fill="none" stroke="#000"/><path d="m5.0834 17h62v38h-62z" fill="none" stroke="#000" stroke-width="2"/></g></svg>