<svg viewBox="0 0 72 72" xmlns="http://www.w3.org/2000/svg"><path d="m5 17h62v38h-62z" fill="#5c9e31"/><g fill="#fcea2b"><path d="m52.233 39.354.927-3 .927 3-2.427-1.854h3z" stroke="#fcea2b" stroke-linecap="round" stroke-linejoin="round"/><path d="m42.5 35.831-1.113 1.054.111-1.549-1.498-.235 1.25-.878-.755-1.347 1.449.455.556-1.446.556 1.446 1.449-.455-.755 1.347 1.25.878-1.498.235.111 1.549z" stroke="#fcea2b" stroke-linecap="round" stroke-linejoin="round"/><path d="m57.5 32.831-1.113 1.054.111-1.549-1.498-.235 1.25-.878-.755-1.347 1.449.455.556-1.446.556 1.446 1.449-.455-.755 1.347 1.25.878-1.498.235.111 1.549z" stroke="#fcea2b" stroke-linecap="round" stroke-linejoin="round"/><path d="m49.5 26.831-1.113 1.054.111-1.549-1.498-.235 1.25-.878-.755-1.347 1.449.455.556-1.446.556 1.446 1.449-.455-.755 1.347 1.25.878-1.498.235.111 1.549z" stroke="#fcea2b" stroke-linecap="round" stroke-linejoin="round"/><path d="m49.5 47.831-1.113 1.054.111-1.549-1.498-.235 1.25-.878-.755-1.347 1.449.455.556-1.446.556 1.446 1.449-.455-.755 1.347 1.25.878-1.498.235.111 1.549z" stroke="#fcea2b" stroke-linecap="round" stroke-linejoin="round"/><circle cx="13" cy="25" r="4"/><path d="m32.98 42.5958a6.5958 6.5958 0 1 1 3.02-12.4658 8.3947 8.3947 0 1 0 0 11.74 6.6516 6.6516 0 0 1 -3.02.7258z" stroke="#fcea2b" stroke-linecap="round" stroke-linejoin="round"/></g><path d="m5 17h62v38h-62z" fill="none" stroke="#000" stroke-linecap="round" stroke-linejoin="round" stroke-width="2"/></svg>