<svg viewBox="0 0 72 72" xmlns="http://www.w3.org/2000/svg"><path d="m5 17h62v38h-62z" fill="#1e50a0"/><g fill="#fff"><circle cx="51.1" cy="50" r="1.75"/><circle cx="51.1" cy="30" r="1.75"/><circle cx="56.1" cy="48.6603" r="1.75"/><circle cx="46.1" cy="31.3397" r="1.75"/><circle cx="41.1" cy="40" r="1.75"/><circle cx="61.1" cy="40" r="1.75"/><circle cx="59.7603" cy="45" r="1.75"/><circle cx="42.4398" cy="35" r="1.75"/><circle cx="46.1" cy="48.6603" r="1.75"/><circle cx="56.1" cy="31.3397" r="1.75"/><circle cx="42.4398" cy="45" r="1.75"/><circle cx="59.7603" cy="35" r="1.75"/><path d="m9.887 18h-3.887v2.332l26.113 15.668h3.887v-2.332z"/><path d="m36 20.332v-2.332h-3.887l-26.113 15.668v2.332h3.887z"/><path d="m6 24h30v6h-30z"/><path d="m18 18h6v18h-6z"/></g><path d="m20 18h2v18h-2z" fill="#d22f27"/><path d="m6 26h30v2h-30z" fill="#d22f27"/><path d="m36 33.668-6.113-3.668h-3.887l10 6v-.001z" fill="#d22f27"/><path d="m36 18h-3.887l-8.113 4.868v1.132h2.001l9.999-5.999z" fill="#d22f27"/><path d="m6 20.332 6.113 3.668h3.888l-10-6-.001.001z" fill="#d22f27"/><path d="m6 36h3.887l8.113-4.868v-1.132h-2l-10 5.999z" fill="#d22f27"/><path d="m5 17h62v38h-62z" fill="none" stroke="#000" stroke-linecap="round" stroke-linejoin="round" stroke-width="2"/></svg>