<svg viewBox="0 0 72 72" xmlns="http://www.w3.org/2000/svg"><path d="m5 17h62v38h-62z" fill="#fff"/><g fill="#1e50a0"><path d="m5 32h62v8h-62z"/><path d="m5 47h62v8h-62z"/><path d="m5 17h62v8h-62z"/></g><path d="m5 55-.000001-19 .000001-19 32.91 19-16.45 9.5z" fill="#d22f27"/><path d="m19.5 39.74-4.253-.8137-2.241 3.705-.5402-4.296-4.216-.9863 3.919-1.841-.3648-4.314 2.962 3.158 3.991-1.68-2.088 3.793z" fill="#fff" stroke="#fff" stroke-linecap="round" stroke-linejoin="round" transform="matrix(-.4341 -.75188326 .75188326 -.4341 -5.440236 62.659078)"/><path d="m5 17h62v38h-62z" fill="none" stroke="#000" stroke-linecap="round" stroke-linejoin="round" stroke-width="2"/></svg>