<svg viewBox="0 0 72 72" xmlns="http://www.w3.org/2000/svg"><path d="m5 17h62v38h-62z" fill="#1e50a0"/><path d="m67 17v38l-62-38z" fill="#5c9e31"/><circle cx="36" cy="36" fill="#f1b31c" r="9"/><g stroke-linecap="round" stroke-linejoin="round"><path d="m18.174 44.737.696-2.25.695 2.25-1.82-1.391h2.25z" fill="#fff" stroke="#fff"/><path d="m10.875 42.094-.834.791.082-1.162-1.123-.176.938-.658-.567-1.011 1.087.341.417-1.084.417 1.084 1.087-.341-.566 1.011.937.658-1.123.176.082 1.162z" fill="#fff" stroke="#fff"/><path d="m22.125 39.844-.834.791.082-1.162-1.123-.176.938-.658-.567-1.011 1.087.341.417-1.084.417 1.084 1.087-.341-.566 1.011.937.658-1.123.176.082 1.162z" fill="#fff" stroke="#fff"/><path d="m16.125 35.344-.834.791.082-1.162-1.123-.176.938-.658-.567-1.011 1.087.341.417-1.084.417 1.084 1.087-.341-.566 1.011.937.658-1.123.176.082 1.162z" fill="#fff" stroke="#fff"/><path d="m16.125 51.094-.834.791.082-1.162-1.123-.176.938-.658-.567-1.011 1.087.341.417-1.084.417 1.084 1.087-.341-.566 1.011.937.658-1.123.176.082 1.162z" fill="#fff" stroke="#fff"/><path d="m31.6167 33.9578a3.9219 3.9219 0 0 1 1.3637.618 3.7837 3.7837 0 0 0 4.1357.1622 7.3908 7.3908 0 0 0 1.383-1.2213l1.3647-1.4247a1.767 1.767 0 0 0 1.2557.0939 5.833 5.833 0 0 0 .6047 3.0157 7.2091 7.2091 0 0 0 -2.5037 2.7337 10.1762 10.1762 0 0 0 -.4691 2.74 2.3962 2.3962 0 0 1 -.2922 1.0169.9378.9378 0 0 1 -.8912.47c-.6224-.1-.8053-.9185-.7177-1.5428s.2827-1.3239-.0822-1.838a2.008 2.008 0 0 0 -1.2545-.6339l-2.7566-.6358c-.644-.1485-1.4613-.2346-1.8317.3128a.55.55 0 0 1 -.1781.2081c-.2479.1248-.4224-.2919-.3351-.5554a4.2479 4.2479 0 0 1 1.0534-1.3153c.3756-.4246.6276-1.1023.26-1.5345-.4614-.5437-.3861-.6999-.1088-.6696z" fill="#5c9e31" stroke="#5c9e31"/><path d="m49.4349 30.2958 13-4" fill="none" stroke="#f1b31c" stroke-width="2"/><path d="m54.5 24.5 4 3" fill="none" stroke="#f1b31c" stroke-width="2"/><path d="m58.5 21.5 1.35 2.625-1.35 3.375" fill="none" stroke="#f1b31c" stroke-width="2"/><path d="m5 17h62v38h-62z" fill="none" stroke="#000" stroke-width="2"/></g></svg>