<svg viewBox="0 0 72 72" xmlns="http://www.w3.org/2000/svg"><path d="m5 17h62v38h-62z" fill="#fff"/><path d="m67 44a42.5886 42.5886 0 0 1 -6.2 1c-1.5693-.0494-4.6308-1.0494-6.2-1s-4.6308 1.0494-6.2 1-4.6307-1.0494-6.2-1-4.6307 1.0494-6.2 1-4.6308-1.0492-6.2-1-4.6308 1.0481-6.2 1-4.6306-1.0415-6.2-1-4.63 1-6.2 1a50.8361 50.8361 0 0 1 -6.2-1v-2a50.8361 50.8361 0 0 0 6.2 1c1.57 0 4.6305-.9586 6.2-1s4.6308.9519 6.2 1 4.6308-.9508 6.2-1 4.6307.9506 6.2 1 4.6307-.9506 6.2-1 4.6307.9506 6.2 1 4.6307-.9506 6.2-1 4.6307.9506 6.2 1a42.5886 42.5886 0 0 0 6.2-1z" fill="#fff"/><path d="m67 46a42.5886 42.5886 0 0 1 -6.2 1c-1.5693-.0494-4.6308-1.0494-6.2-1s-4.6308 1.0494-6.2 1-4.6307-1.0494-6.2-1-4.6307 1.0494-6.2 1-4.6308-1.0492-6.2-1-4.6308 1.0481-6.2 1-4.6306-1.0415-6.2-1-4.63 1-6.2 1a50.8361 50.8361 0 0 1 -6.2-1v-2a50.8361 50.8361 0 0 0 6.2 1c1.57 0 4.6305-.9586 6.2-1s4.6308.9519 6.2 1 4.6308-.9508 6.2-1 4.6307.9506 6.2 1 4.6307-.9506 6.2-1 4.6307.9506 6.2 1 4.6307-.9506 6.2-1 4.6307.9506 6.2 1a42.5886 42.5886 0 0 0 6.2-1z" fill="#1e50a0"/><path d="m67 48a42.5886 42.5886 0 0 1 -6.2 1c-1.5693-.0494-4.6308-1.0494-6.2-1s-4.6308 1.0494-6.2 1-4.6307-1.0494-6.2-1-4.6307 1.0494-6.2 1-4.6308-1.0492-6.2-1-4.6308 1.0481-6.2 1-4.6306-1.0415-6.2-1-4.63 1-6.2 1a50.8361 50.8361 0 0 1 -6.2-1v-2a50.8361 50.8361 0 0 0 6.2 1c1.57 0 4.6305-.9586 6.2-1s4.6308.9519 6.2 1 4.6308-.9508 6.2-1 4.6307.9506 6.2 1 4.6307-.9506 6.2-1 4.6307.9506 6.2 1 4.6307-.9506 6.2-1 4.6307.9506 6.2 1a42.5886 42.5886 0 0 0 6.2-1z" fill="#fff"/><path d="m67 50a42.5886 42.5886 0 0 1 -6.2 1c-1.5693-.0494-4.6308-1.0494-6.2-1s-4.6308 1.0494-6.2 1-4.6307-1.0494-6.2-1-4.6307 1.0494-6.2 1-4.6308-1.0492-6.2-1-4.6308 1.0481-6.2 1-4.6306-1.0415-6.2-1-4.63 1-6.2 1a50.8361 50.8361 0 0 1 -6.2-1v-2a50.8361 50.8361 0 0 0 6.2 1c1.57 0 4.6305-.9586 6.2-1s4.6308.9519 6.2 1 4.6308-.9508 6.2-1 4.6307.9506 6.2 1 4.6307-.9506 6.2-1 4.6307.9506 6.2 1 4.6307-.9506 6.2-1 4.6307.9506 6.2 1a42.5886 42.5886 0 0 0 6.2-1z" fill="#1e50a0"/><path d="m67 55s-4.6307-.9506-6.2-1-4.6308.9506-6.2 1-4.6308-.9506-6.2-1-4.6307.9506-6.2 1-4.6307-.9506-6.2-1-4.6308.9508-6.2 1-4.6308-.9519-6.2-1-4.6306.9585-6.2 1-4.63-1-6.2-1a50.8361 50.8361 0 0 0 -6.2 1v-4a50.8361 50.8361 0 0 0 6.2 1c1.57 0 4.6305-.9586 6.2-1s4.6308.9519 6.2 1 4.6308-.9508 6.2-1 4.6307.9506 6.2 1 4.6307-.9506 6.2-1 4.6307.9506 6.2 1 4.6307-.9506 6.2-1 4.6307.9506 6.2 1a42.5886 42.5886 0 0 0 6.2-1z" fill="#1e50a0"/><path d="m67 52a42.5886 42.5886 0 0 1 -6.2 1c-1.5693-.0494-4.6308-1.0494-6.2-1s-4.6308 1.0494-6.2 1-4.6307-1.0494-6.2-1-4.6307 1.0494-6.2 1-4.6308-1.0492-6.2-1-4.6308 1.0481-6.2 1-4.6306-1.0415-6.2-1-4.63 1-6.2 1a50.8361 50.8361 0 0 1 -6.2-1v-2a50.8361 50.8361 0 0 0 6.2 1c1.57 0 4.6305-.9586 6.2-1s4.6308.9519 6.2 1 4.6308-.9508 6.2-1 4.6307.9506 6.2 1 4.6307-.9506 6.2-1 4.6307.9506 6.2 1 4.6307-.9506 6.2-1 4.6307.9506 6.2 1a42.5886 42.5886 0 0 0 6.2-1z" fill="#fff"/><path d="m67 38a42.5886 42.5886 0 0 1 -6.2 1c-1.5693-.0494-4.6308-1.0494-6.2-1s-4.6308 1.0494-6.2 1-4.6307-1.0494-6.2-1-4.6307 1.0494-6.2 1-4.6308-1.0492-6.2-1-4.6308 1.0481-6.2 1-4.6306-1.0415-6.2-1-4.63 1-6.2 1a50.8361 50.8361 0 0 1 -6.2-1v-2a50.8361 50.8361 0 0 0 6.2 1c1.57 0 4.6305-.9586 6.2-1s4.6308.9519 6.2 1 4.6308-.9508 6.2-1 4.6307.9506 6.2 1 4.6307-.9506 6.2-1 4.6307.9506 6.2 1 4.6307-.9506 6.2-1 4.6307.9506 6.2 1a42.5886 42.5886 0 0 0 6.2-1z" fill="#1e50a0"/><path d="m67 40a42.5886 42.5886 0 0 1 -6.2 1c-1.5693-.0494-4.6308-1.0494-6.2-1s-4.6308 1.0494-6.2 1-4.6307-1.0494-6.2-1-4.6307 1.0494-6.2 1-4.6308-1.0492-6.2-1-4.6308 1.0481-6.2 1-4.6306-1.0415-6.2-1-4.63 1-6.2 1a50.8361 50.8361 0 0 1 -6.2-1v-2a50.8361 50.8361 0 0 0 6.2 1c1.57 0 4.6305-.9586 6.2-1s4.6308.9519 6.2 1 4.6308-.9508 6.2-1 4.6307.9506 6.2 1 4.6307-.9506 6.2-1 4.6307.9506 6.2 1 4.6307-.9506 6.2-1 4.6307.9506 6.2 1a42.5886 42.5886 0 0 0 6.2-1z" fill="#fff"/><path d="m67 42a42.5886 42.5886 0 0 1 -6.2 1c-1.5693-.0494-4.6308-1.0494-6.2-1s-4.6308 1.0494-6.2 1-4.6307-1.0494-6.2-1-4.6307 1.0494-6.2 1-4.6308-1.0492-6.2-1-4.6308 1.0481-6.2 1-4.6306-1.0415-6.2-1-4.63 1-6.2 1a50.8361 50.8361 0 0 1 -6.2-1v-2a50.8361 50.8361 0 0 0 6.2 1c1.57 0 4.6305-.9586 6.2-1s4.6308.9519 6.2 1 4.6308-.9508 6.2-1 4.6307.9506 6.2 1 4.6307-.9506 6.2-1 4.6307.9506 6.2 1 4.6307-.9506 6.2-1 4.6307.9506 6.2 1a42.5886 42.5886 0 0 0 6.2-1z" fill="#1e50a0"/><path d="m67 44a42.5886 42.5886 0 0 1 -6.2 1c-1.5693-.0494-4.6308-1.0494-6.2-1s-4.6308 1.0494-6.2 1-4.6307-1.0494-6.2-1-4.6307 1.0494-6.2 1-4.6308-1.0492-6.2-1-4.6308 1.0481-6.2 1-4.6306-1.0415-6.2-1-4.63 1-6.2 1a50.8361 50.8361 0 0 1 -6.2-1v-2a50.8361 50.8361 0 0 0 6.2 1c1.57 0 4.6305-.9586 6.2-1s4.6308.9519 6.2 1 4.6308-.9508 6.2-1 4.6307.9506 6.2 1 4.6307-.9506 6.2-1 4.6307.9506 6.2 1 4.6307-.9506 6.2-1 4.6307.9506 6.2 1a42.5886 42.5886 0 0 0 6.2-1z" fill="#fff"/><path d="m67 30a42.5886 42.5886 0 0 1 -6.2 1c-1.5693-.0494-4.6308-1.0494-6.2-1s-4.6308 1.0494-6.2 1-4.6307-1.0494-6.2-1-4.6307 1.0494-6.2 1-4.6308-1.0492-6.2-1-4.6308 1.0481-6.2 1-4.6306-1.0415-6.2-1-4.63 1-6.2 1a50.8361 50.8361 0 0 1 -6.2-1v-2a50.8361 50.8361 0 0 0 6.2 1c1.57 0 4.6305-.9586 6.2-1s4.6308.9519 6.2 1 4.6308-.9508 6.2-1 4.6307.9506 6.2 1 4.6307-.9506 6.2-1 4.6307.9506 6.2 1 4.6307-.9506 6.2-1 4.6307.9506 6.2 1a42.5886 42.5886 0 0 0 6.2-1z" fill="#1e50a0"/><path d="m67 32a42.5886 42.5886 0 0 1 -6.2 1c-1.5693-.0494-4.6308-1.0494-6.2-1s-4.6308 1.0494-6.2 1-4.6307-1.0494-6.2-1-4.6307 1.0494-6.2 1-4.6308-1.0492-6.2-1-4.6308 1.0481-6.2 1-4.6306-1.0415-6.2-1-4.63 1-6.2 1a50.8361 50.8361 0 0 1 -6.2-1v-2a50.8361 50.8361 0 0 0 6.2 1c1.57 0 4.6305-.9586 6.2-1s4.6308.9519 6.2 1 4.6308-.9508 6.2-1 4.6307.9506 6.2 1 4.6307-.9506 6.2-1 4.6307.9506 6.2 1 4.6307-.9506 6.2-1 4.6307.9506 6.2 1a42.5886 42.5886 0 0 0 6.2-1z" fill="#fff"/><path d="m67 34a42.5886 42.5886 0 0 1 -6.2 1c-1.5693-.0494-4.6308-1.0494-6.2-1s-4.6308 1.0494-6.2 1-4.6307-1.0494-6.2-1-4.6307 1.0494-6.2 1-4.6308-1.0492-6.2-1-4.6308 1.0481-6.2 1-4.6306-1.0415-6.2-1-4.63 1-6.2 1a50.8361 50.8361 0 0 1 -6.2-1v-2a50.8361 50.8361 0 0 0 6.2 1c1.57 0 4.6305-.9586 6.2-1s4.6308.9519 6.2 1 4.6308-.9508 6.2-1 4.6307.9506 6.2 1 4.6307-.9506 6.2-1 4.6307.9506 6.2 1 4.6307-.9506 6.2-1 4.6307.9506 6.2 1a42.5886 42.5886 0 0 0 6.2-1z" fill="#1e50a0"/><path d="m67 36a42.5886 42.5886 0 0 1 -6.2 1c-1.5693-.0494-4.6308-1.0494-6.2-1s-4.6308 1.0494-6.2 1-4.6307-1.0494-6.2-1-4.6307 1.0494-6.2 1-4.6308-1.0492-6.2-1-4.6308 1.0481-6.2 1-4.6306-1.0415-6.2-1-4.63 1-6.2 1a50.8361 50.8361 0 0 1 -6.2-1v-2a50.8361 50.8361 0 0 0 6.2 1c1.57 0 4.6305-.9586 6.2-1s4.6308.9519 6.2 1 4.6308-.9508 6.2-1 4.6307.9506 6.2 1 4.6307-.9506 6.2-1 4.6307.9506 6.2 1 4.6307-.9506 6.2-1 4.6307.9506 6.2 1a42.5886 42.5886 0 0 0 6.2-1z" fill="#fff"/><path d="m67 22a42.5886 42.5886 0 0 1 -6.2 1c-1.5693-.0494-4.6308-1.0494-6.2-1s-4.6308 1.0494-6.2 1-4.6307-1.0494-6.2-1-4.6307 1.0494-6.2 1-4.6308-1.0492-6.2-1-4.6308 1.0481-6.2 1-4.6306-1.0415-6.2-1-4.63 1-6.2 1a50.8361 50.8361 0 0 1 -6.2-1v-2a50.8361 50.8361 0 0 0 6.2 1c1.57 0 4.6305-.9586 6.2-1s4.6308.9519 6.2 1 4.6308-.9508 6.2-1 4.6307.9506 6.2 1 4.6307-.9506 6.2-1 4.6307.9506 6.2 1 4.6307-.9506 6.2-1 4.6307.9506 6.2 1a42.5886 42.5886 0 0 0 6.2-1z" fill="#1e50a0"/><path d="m67 24a42.5886 42.5886 0 0 1 -6.2 1c-1.5693-.0494-4.6308-1.0494-6.2-1s-4.6308 1.0494-6.2 1-4.6307-1.0494-6.2-1-4.6307 1.0494-6.2 1-4.6308-1.0492-6.2-1-4.6308 1.0481-6.2 1-4.6306-1.0415-6.2-1-4.63 1-6.2 1a50.8361 50.8361 0 0 1 -6.2-1v-2a50.8361 50.8361 0 0 0 6.2 1c1.57 0 4.6305-.9586 6.2-1s4.6308.9519 6.2 1 4.6308-.9508 6.2-1 4.6307.9506 6.2 1 4.6307-.9506 6.2-1 4.6307.9506 6.2 1 4.6307-.9506 6.2-1 4.6307.9506 6.2 1a42.5886 42.5886 0 0 0 6.2-1z" fill="#fff"/><path d="m67 18a42.5886 42.5886 0 0 1 -6.2 1c-1.5693-.0494-4.6308-1.0494-6.2-1s-4.6308 1.0494-6.2 1-4.6307-1.0494-6.2-1-4.6307 1.0494-6.2 1-4.6308-1.0492-6.2-1-4.6308 1.0481-6.2 1-4.6306-1.0415-6.2-1-4.63 1-6.2 1a50.8361 50.8361 0 0 1 -6.2-1v-2a50.8361 50.8361 0 0 0 6.2 1c1.57 0 4.6305-.9586 6.2-1s4.6308.9519 6.2 1 4.6308-.9508 6.2-1 4.6307.9506 6.2 1 4.6307-.9506 6.2-1 4.6307.9506 6.2 1 4.6307-.9506 6.2-1 4.6307.9506 6.2 1a42.5886 42.5886 0 0 0 6.2-1z" fill="#1e50a0"/><path d="m67 20a42.5886 42.5886 0 0 1 -6.2 1c-1.5693-.0494-4.6308-1.0494-6.2-1s-4.6308 1.0494-6.2 1-4.6307-1.0494-6.2-1-4.6307 1.0494-6.2 1-4.6308-1.0492-6.2-1-4.6308 1.0481-6.2 1-4.6306-1.0415-6.2-1-4.63 1-6.2 1a50.8361 50.8361 0 0 1 -6.2-1v-2a50.8361 50.8361 0 0 0 6.2 1c1.57 0 4.6305-.9586 6.2-1s4.6308.9519 6.2 1 4.6308-.9508 6.2-1 4.6307.9506 6.2 1 4.6307-.9506 6.2-1 4.6307.9506 6.2 1 4.6307-.9506 6.2-1 4.6307.9506 6.2 1a42.5886 42.5886 0 0 0 6.2-1z" fill="#fff"/><path d="m67 26a42.5886 42.5886 0 0 1 -6.2 1c-1.5693-.0494-4.6308-1.0494-6.2-1s-4.6308 1.0494-6.2 1-4.6307-1.0494-6.2-1-4.6307 1.0494-6.2 1-4.6308-1.0492-6.2-1-4.6308 1.0481-6.2 1-4.6306-1.0415-6.2-1-4.63 1-6.2 1a50.8361 50.8361 0 0 1 -6.2-1v-2a50.8361 50.8361 0 0 0 6.2 1c1.57 0 4.6305-.9586 6.2-1s4.6308.9519 6.2 1 4.6308-.9508 6.2-1 4.6307.9506 6.2 1 4.6307-.9506 6.2-1 4.6307.9506 6.2 1 4.6307-.9506 6.2-1 4.6307.9506 6.2 1a42.5886 42.5886 0 0 0 6.2-1z" fill="#1e50a0"/><path d="m67 28a42.5886 42.5886 0 0 1 -6.2 1c-1.5693-.0494-4.6308-1.0494-6.2-1s-4.6308 1.0494-6.2 1-4.6307-1.0494-6.2-1-4.6307 1.0494-6.2 1-4.6308-1.0492-6.2-1-4.6308 1.0481-6.2 1-4.6306-1.0415-6.2-1-4.63 1-6.2 1a50.8361 50.8361 0 0 1 -6.2-1v-2a50.8361 50.8361 0 0 0 6.2 1c1.57 0 4.6305-.9586 6.2-1s4.6308.9519 6.2 1 4.6308-.9508 6.2-1 4.6307.9506 6.2 1 4.6307-.9506 6.2-1 4.6307.9506 6.2 1 4.6307-.9506 6.2-1 4.6307.9506 6.2 1a42.5886 42.5886 0 0 0 6.2-1z" fill="#fff"/><path d="m5 17h31v19h-31z" fill="#1e50a0"/><path d="m9.887 18h-3.887v2.332l26.113 15.668h3.887v-2.332z" fill="#fff"/><path d="m36 20.332v-2.332h-3.887l-26.113 15.668v2.332h3.887z" fill="#fff"/><path d="m6 24h30v6h-30z" fill="#fff"/><path d="m18 18h6v18h-6z" fill="#fff"/><g fill="#d22f27"><path d="m20 18h2v18h-2z"/><path d="m6 26h30v2h-30z"/><path d="m36 33.668-6.113-3.668h-3.887l10 6v-.001z"/><path d="m36 18h-3.887l-8.113 4.868v1.132h2.001l9.999-5.999z"/><path d="m6 20.332 6.113 3.668h3.888l-10-6-.001.001z"/><path d="m6 36h3.887l8.113-4.868v-1.132h-2l-10 5.999z"/></g><path d="m5 17h62v38h-62z" fill="none" stroke="#000" stroke-linecap="round" stroke-linejoin="round" stroke-width="2"/></svg>