<svg viewBox="0 0 72 72" xmlns="http://www.w3.org/2000/svg"><path d="m5 17h62v38h-62z" fill="#186648"/><path d="m38 16.9999h4v38h-4z" fill="#fff" stroke-width="2"/><path d="m5 34h62v4h-62z"/><path d="m5 38h62v4h-62z" fill="#fff" stroke-width="2"/><path d="m5 30h62v4h-62z" fill="#fcea2b"/><path d="m34 16.9999h4v38h-4z"/><path d="m30 16.9999h4v38h-4z" fill="#fcea2b"/><circle cx="36" cy="36" fill="#d22f27" r="13"/><path d="m36.3668 34.9556a5.1 5.1 0 0 0 2.9144 3.5044.2572.2572 0 0 0 .3528-.1087.1829.1829 0 0 0 -.0858-.2935 4.81 4.81 0 0 1 -2.6927-3.1408.2261.2261 0 0 0 -.2408-.1658.2317.2317 0 0 0 -.2479.2044z"/><path d="m38.76838 36.930886-.04049-.07964c-.35042-.700289-.900863-1.247485-1.279496-1.921372-.3688-.656515.523623-1.402075 1.152692-1.766677.735111-.425818.540407-1.883677.185768-2.432192l-1.541619-1.935505s-.81116-1.158456-3.568533.201086c0 0-3.539239.856733-3.846066 1.5378 0 0 2.683445-.73296 2.954423.520945.270979 1.253904-1.404094 1.699196.241578 4.689899 0 0 1.39113 2.968668 3.114979 3.446877a6.2 6.2 0 0 1 2.542156.423068c-.222069-.587995.171291-2.063302.08461-2.684289z" fill="#8967aa"/><path d="m36.546061 40.353075c-.02413-.0043-.04798-.0095-.0716-.01608-1.880332-.521946-3.872761-3.835772-4.093515-4.211819-1.156731-2.193184-.677442-3.058197-.08869-3.758501.190669-.226735.189081-.234428.171232-.324394-.0715-.308604-1.465792-.825676-2.947315-.971861a.7645.7645 0 0 1 -.575368-.370134.7471.7471 0 0 1 -.03515-.683487c.125943-.281203.458813-1.021853 5.183722-1.908856a3.1158 3.1158 0 0 1 3.03469-.716314c1.632216.629901 2.056766 2.90519 2.099993 3.162201a.75.75 0 0 1 -1.478873.249385c-.07498-.435131-.44983-1.739743-1.16317-2.013269-.521466-.203036-1.221084.221324-1.714145.611025a.7464.7464 0 0 1 -.328729.148777c-.811766.149916-1.698281.346562-2.462138.545542a2.5786 2.5786 0 0 1 1.859247 1.659669 1.7587 1.7587 0 0 1 -.496261 1.576882c-.276065.328655-.514158.612421.250862 2.064222.753312 1.278636 2.257123 3.238546 3.185376 3.49625a.75.75 0 0 1 -.33 1.4615z"/><path d="m36.064435 37.754768c-.30154-2.450592 1.415024-5.90865 3.020755-4.276826 1.605732 1.631823.736585 11.198537.736585 11.198537s-3.455817-4.471021-3.75734-6.921711z" fill="#186648"/><path d="m39.892396 45.388561a.75.75 0 0 1 -.447881-.260431c-.381778-.461404-3.745087-4.585186-4.149067-7.153353l.000087-.000492c-.301704-1.921584.463771-4.649199 1.940178-5.424198a1.8249 1.8249 0 0 1 2.193312.388771c1.819223 1.72887 1.436977 10.094283 1.342634 11.754016a.75.75 0 0 1 -.879263.695687zm-3.115906-7.647251c.199565 1.263855 1.483043 3.286457 2.5771 4.803688.08008-3.890399-.220846-7.818734-.958078-8.519397-.263163-.250707-.37794-.190625-.462799-.147607-.695015.364855-1.394724 2.342293-1.155239 3.86349z"/><g fill="#186648"><circle cx="36" cy="25" r="1"/><circle cx="50.2849" cy="-3.0357" r="1" transform="matrix(.80901699 .58778525 -.58778525 .80901699 0 0)"/><circle cx="45.3626" cy="-34.1134" r="1" transform="matrix(.30901699 .95105652 -.95105652 .30901699 0 0)"/><circle cx="23.1134" cy="-56.3626" r="1" transform="matrix(-.30901699 .95105652 -.95105652 -.30901699 0 0)"/><circle cx="-7.9643" cy="-61.2849" r="1" transform="matrix(-.80901699 .58778525 -.58778525 -.80901699 0 0)"/><circle cx="-36" cy="-47" r="1" transform="scale(-1)"/><circle cx="-50.2849" cy="-18.9643" r="1" transform="matrix(-.80901699 -.58778525 .58778525 -.80901699 0 0)"/><circle cx="-45.3626" cy="12.1134" r="1" transform="matrix(-.30901699 -.95105652 .95105652 -.30901699 0 0)"/><circle cx="-23.1134" cy="34.3626" r="1" transform="matrix(.30901699 -.95105652 .95105652 .30901699 0 0)"/><circle cx="7.9643" cy="39.2849" r="1" transform="matrix(.80901699 -.58778525 .58778525 .80901699 0 0)"/></g><path d="m5 17h62v38h-62z" fill="none" stroke="#000" stroke-linecap="round" stroke-linejoin="round" stroke-width="2"/></svg>