<svg viewBox="0 0 72 72" xmlns="http://www.w3.org/2000/svg"><path d="m5 17h62v38h-62z" fill="#f1b31c"/><path d="m23 33v7a2.0059 2.0059 0 0 1 -2 2h-4a2.0059 2.0059 0 0 1 -2-2v-7" fill="#d22f27"/><path d="m5 17h62v9h-62z" fill="#d22f27"/><path d="m5 46h62v9h-62z" fill="#d22f27"/><path d="m19 33h4v4h-4z" fill="#f1b31c"/><circle cx="19" cy="37" fill="#6a462f" r="1.5"/><g fill="none" stroke-linecap="round" stroke-linejoin="round" stroke-width="2"><path d="m27 33v9" stroke="#6a462f"/><path d="m11 33v9" stroke="#6a462f"/><path d="m15 30a8.5678 8.5678 0 0 1 4-1" stroke="#6a462f"/><path d="m23 30a8.5678 8.5678 0 0 0 -4-1" stroke="#6a462f"/><path d="m15 33h8" stroke="#6a462f"/><path d="m23 33v7a2.0059 2.0059 0 0 1 -2 2h-4a2.0059 2.0059 0 0 1 -2-2v-7" stroke="#6a462f"/><path d="m10 42h2" stroke="#6a462f"/><path d="m26 42h2" stroke="#6a462f"/><path d="m5 17h62v38h-62z" stroke="#000"/></g></svg>