<svg viewBox="0 0 72 72" xmlns="http://www.w3.org/2000/svg"><path d="m5 17h62v38h-62z" fill="#fcea2b"/><path d="m5 45h62v10h-62z" fill="#d22f27"/><path d="m5 36h62v9h-62z" fill="#1e50a0"/><ellipse cx="36" cy="36" fill="#92d3f5" rx="4.5" ry="6"/><path d="m40.5 36c0 3.3137-2.0147 6-4.5 6s-4.5-2.6863-4.5-6z" fill="#5c9e31"/><g fill="none" stroke-width="2"><path d="m36 46v-4" stroke="#d22f27" stroke-miterlimit="10"/><path d="m42.0652 42a10.9284 10.9284 0 0 0 2.4348-7v-5h1.5" stroke="#f1b31c" stroke-linecap="round" stroke-linejoin="round"/><path d="m26 30h1.5v5a10.9284 10.9284 0 0 0 2.4348 7" stroke="#f1b31c" stroke-linecap="round" stroke-linejoin="round"/><path d="m29 26c3.5-1 5.25 0 7 3 1.75-3 3.5-4 7-3" stroke="#6a462f" stroke-linecap="round" stroke-linejoin="round"/><ellipse cx="36" cy="36" rx="4.5" ry="6" stroke="#d22f27" stroke-miterlimit="10"/><path d="m5 17h62v38h-62z" stroke="#000" stroke-linecap="round" stroke-linejoin="round"/></g></svg>