<svg viewBox="0 0 72 72" xmlns="http://www.w3.org/2000/svg"><path d="m5 17h62v38h-62z" fill="#5c9e31"/><path d="m5 30h62v12h-62z" fill="#fff"/><path d="m5 17h62v13h-62z"/><g fill="#d22f27"><path d="m26 36-21 19v-38z"/><path d="m35.1216 36a4.0529 4.0529 0 0 1 3.3784-3.9236 4.3955 4.3955 0 0 0 -.8108-.0764 4.0043 4.0043 0 1 0 0 8 4.3955 4.3955 0 0 0 .8108-.0764 4.0529 4.0529 0 0 1 -3.3784-3.9236z" stroke="#d22f27" stroke-linecap="round" stroke-linejoin="round"/><path d="m38.707 38 1.328-4 1.145 3.939-3.18-2.374 4-.098z" stroke="#d22f27" stroke-linecap="round" stroke-linejoin="round"/></g><path d="m5 17h62v38h-62z" fill="none" stroke="#000" stroke-linecap="round" stroke-linejoin="round" stroke-width="2"/></svg>