<svg viewBox="0 0 72 72" xmlns="http://www.w3.org/2000/svg"><path d="m5 17h62v38h-62z" fill="#1e50a0"/><g stroke-linecap="round" stroke-linejoin="round"><path d="m35.105 26.794.919-2.695.792 2.654-2.2-1.599 2.768-.067z" fill="#f1b31c" stroke="#f1b31c"/><path d="m35.105 47.901.919-2.695.792 2.653-2.2-1.598 2.768-.067z" fill="#f1b31c" stroke="#f1b31c"/><path d="m26.093 31.922.918-2.695.793 2.653-2.201-1.598 2.768-.067z" fill="#f1b31c" stroke="#f1b31c"/><path d="m44.371 42.475.919-2.695.792 2.654-2.2-1.599 2.768-.067z" fill="#f1b31c" stroke="#f1b31c"/><path d="m29.838 28.242.919-2.695.792 2.653-2.201-1.598 2.768-.067z" fill="#f1b31c" stroke="#f1b31c"/><path d="m40.391 46.52.919-2.694.792 2.653-2.201-1.599 2.769-.066z" fill="#f1b31c" stroke="#f1b31c"/><path d="m45.659 37.347.919-2.694.792 2.653-2.201-1.599 2.768-.066z" fill="#f1b31c" stroke="#f1b31c"/><path d="m24.552 37.347.919-2.694.792 2.653-2.2-1.599 2.768-.066z" fill="#f1b31c" stroke="#f1b31c"/><path d="m40.281 28.216.919-2.694.792 2.653-2.2-1.599 2.768-.066z" fill="#f1b31c" stroke="#f1b31c"/><path d="m29.728 46.495.919-2.695.792 2.654-2.201-1.599 2.769-.067z" fill="#f1b31c" stroke="#f1b31c"/><path d="m44.13 31.886.918-2.695.793 2.654-2.201-1.599 2.768-.067z" fill="#f1b31c" stroke="#f1b31c"/><path d="m25.851 42.439.919-2.694.792 2.653-2.201-1.599 2.768-.066z" fill="#f1b31c" stroke="#f1b31c"/><path d="m5 17h62v38h-62z" fill="none" stroke="#000" stroke-width="2"/></g></svg>