<svg viewBox="0 0 72 72" xmlns="http://www.w3.org/2000/svg"><path d="m5 17h62v38h-62z" fill="#1e50a0"/><path d="m9.887 18h-3.887v2.332l26.113 15.668h3.887v-2.332z" fill="#fff"/><path d="m36 20.332v-2.332h-3.887l-26.113 15.668v2.332h3.887z" fill="#fff"/><path d="m6 24h30v6h-30z" fill="#fff"/><path d="m18 18h6v18h-6z" fill="#fff"/><path d="m20 18h2v18h-2z" fill="#d22f27"/><path d="m6 26h30v2h-30z" fill="#d22f27"/><path d="m36 33.668-6.113-3.668h-3.887l10 6v-.001z" fill="#d22f27"/><path d="m36 18h-3.887l-8.113 4.868v1.132h2.001l9.999-5.999z" fill="#d22f27"/><path d="m6 20.332 6.113 3.668h3.888l-10-6-.001.001z" fill="#d22f27"/><path d="m6 36h3.887l8.113-4.868v-1.132h-2l-10 5.999z" fill="#d22f27"/><path d="m59 29v5c0 9-2.6667 13-8 15-5.3333-2-8-6-8-15v-5z" fill="#61b2e4"/><g stroke-linecap="round" stroke-linejoin="round" stroke-width="2"><path d="m59 29v5c0 9-2.6667 13-8 15-5.3333-2-8-6-8-15v-5z" fill="none" stroke="#fff"/><path d="m49 33h5v2h-5z" fill="none" stroke="#fff"/><path d="m54 35v2" fill="none" stroke="#fff"/><path d="m49 35v2" fill="none" stroke="#fff"/><path d="m47 33h2" fill="none" stroke="#fff"/><path d="m44.035 40.115c1 .433 1.91.81 2.965.885 2 0 2-1 4-1" stroke="#fff"/><path d="m45.721 44.814c.421.164.858.157 1.279.186 2 0 2-1 4-1" fill="none" stroke="#fff"/><path d="m57.965 40.115c-1 .433-1.91.81-2.965.885-2 0-2-1-4-1" stroke="#fff"/><path d="m56.279 44.814c-.421.164-.858.157-1.279.186-2 0-2-1-4-1" fill="none" stroke="#fff"/><path d="m5 17h62v38h-62z" fill="none" stroke="#000"/></g></svg>