<svg viewBox="0 0 72 72" xmlns="http://www.w3.org/2000/svg"><path d="m5 17h62v38h-62z" fill="#1e50a0"/><path d="m40 28.856v3.144h10.181l16.819-10.309v-4.691h-7.654z" fill="#fff"/><path d="m67 17h-3.827l-23.173 14.203v.797h3.482l23.518-14.414z" fill="#d22f27"/><path d="m59.347 55h7.653v-4.692l-16.818-10.308h-10.182v3.143z" fill="#fff"/><path d="m67 55v-2.347l-20.645-12.653h-4.787l24.474 15z" fill="#d22f27"/><path d="m32 43.144v-3.144h-10.181l-16.819 10.309v4.691h7.654z" fill="#fff"/><path d="m5 55h3.827l23.173-14.203v-.797h-3.482l-23.518 14.414z" fill="#d22f27"/><path d="m12.653 17h-7.653v4.692l16.818 10.308h10.182v-3.143z" fill="#fff"/><path d="m5 17v2.347l20.646 12.653h4.786l-24.474-15z" fill="#d22f27"/><path d="m5 31h62v10h-62z" fill="#fff"/><path d="m31 17h10v38h-10z" fill="#fff"/><path d="m5 33h62v6h-62z" fill="#d22f27"/><path d="m33 17h6v38h-6z" fill="#d22f27"/><path d="m5 17h62v38h-62z" fill="none" stroke="#000" stroke-linecap="round" stroke-linejoin="round" stroke-width="2"/></svg>