<svg viewBox="0 0 72 72" xmlns="http://www.w3.org/2000/svg"><path d="m5 17h62v38h-62z" fill="#fcea2b"/><path d="m12 48 24-12-24-12z" fill="#5c9e31"/><path d="m60 48-24-12 24-12z" fill="#5c9e31"/><circle cx="36" cy="36" fill="#d22f27" r="5"/><path d="m36 33.5 1.545 5-4.045-3.09h5l-4.045 3.09z" fill="#fcea2b" stroke="#fcea2b" stroke-linecap="round" stroke-linejoin="round"/><path d="m5 17v38h62v-38zm55 31h-48v-24h48z" fill="#d22f27"/><g stroke-linecap="round" stroke-linejoin="round"><path d="m35.105 22.242.919-2.695.792 2.653-2.2-1.598 2.768-.067z" fill="#fcea2b" stroke="#fcea2b"/><path d="m45.105 22.242.919-2.695.792 2.653-2.2-1.598 2.768-.067z" fill="#fcea2b" stroke="#fcea2b"/><path d="m25.105 22.242.919-2.695.792 2.653-2.2-1.598 2.768-.067z" fill="#fcea2b" stroke="#fcea2b"/><path d="m35.105 52.242.919-2.695.792 2.653-2.2-1.598 2.768-.067z" fill="#fcea2b" stroke="#fcea2b"/><path d="m45.105 52.242.919-2.695.792 2.653-2.2-1.598 2.768-.067z" fill="#fcea2b" stroke="#fcea2b"/><path d="m25.105 52.242.919-2.695.792 2.653-2.2-1.598 2.768-.067z" fill="#fcea2b" stroke="#fcea2b"/><path d="m18.6308 37.9167a6.7812 6.7812 0 0 0 -1.258-2.6215 6.7812 6.7812 0 0 0 2.6215 1.258 1.7666 1.7666 0 0 0 -1.5618-2.1251c-.0249-.0023-.05-.0017-.0749-.003l.0025-.0022c-.0212 0-.0414 0-.0623 0-.0284-.0005-.0566-.0012-.0849 0a5.7735 5.7735 0 0 1 -2.09-.3772 5.7764 5.7764 0 0 1 .3771 2.0977c-.0008.0321-.0006.0642 0 .0963v.0428l.0018-.0021a1.7633 1.7633 0 0 0 2.1285 1.6363z" fill="#fcea2b" stroke="#fcea2b"/><path d="m18.8014 36.2773a1.77 1.77 0 0 1 .4464.8929 1.5782 1.5782 0 0 1 -1.3393-1.3393 1.77 1.77 0 0 1 .8929.4464z" fill="#d22f27" stroke="#d22f27"/><path d="m5 17h62v38h-62z" fill="none" stroke="#000" stroke-width="2"/></g></svg>