<svg viewBox="0 0 72 72" xmlns="http://www.w3.org/2000/svg"><path d="m5 17h62v38h-62z" fill="#fff"/><g fill="#d22f27" stroke="#d22f27"><path d="m67 33h-28v-16h-6v16h-28v6h28v16h6v-16h28z" stroke-miterlimit="10" stroke-width="2"/><path d="m54.958 24.684h-1.642v-1.684h-.632v1.684h-1.642v.632h1.642v1.684h.632v-1.684h1.642z" stroke-linecap="round" stroke-linejoin="round"/><path d="m54.958 46.684h-1.642v-1.684h-.632v1.684h-1.642v.632h1.642v1.684h.632v-1.684h1.642z" stroke-linecap="round" stroke-linejoin="round"/><path d="m20.958 46.684h-1.642v-1.684h-.632v1.684h-1.642v.632h1.642v1.684h.632v-1.684h1.642z" stroke-linecap="round" stroke-linejoin="round"/><path d="m20.958 24.684h-1.642v-1.684h-.632v1.684h-1.642v.632h1.642v1.684h.632v-1.684h1.642z" stroke-linecap="round" stroke-linejoin="round"/></g><path d="m5 17h62v38h-62z" fill="none" stroke="#000" stroke-linecap="round" stroke-linejoin="round" stroke-width="2"/></svg>