<svg viewBox="0 0 72 72" xmlns="http://www.w3.org/2000/svg"><path d="m5 17h62v38h-62z"/><path d="m5 17h62v13h-62z" fill="#1e50a0"/><g stroke-linecap="round" stroke-linejoin="round"><path d="m25.2835 36.0628 21.433 12.3744" fill="#5c9e31" stroke="#5c9e31" stroke-width="4"/><path d="m36 37.832 1.293-2.082.398 2.418 1.991-1.428-.558 2.386 2.386-.558-1.428 1.991 2.418.398-2.082 1.293 2.082 1.293-2.418.398 1.428 1.991-2.386-.558.558 2.386-1.991-1.428-.398 2.418-1.293-2.082-1.293 2.082-.398-2.418-1.991 1.428.558-2.386-2.386.558 1.428-1.991-2.418-.398 2.082-1.293-2.082-1.293 2.418-.398-1.428-1.991 2.386.558-.558-2.386 1.991 1.428.398-2.418z" fill="#f1b31c" stroke="#f1b31c"/><path d="m36 21.25v6" fill="#f1b31c" stroke="#f1b31c" stroke-width="2"/><path d="m37.5 25.25h-3" fill="#f1b31c" stroke="#f1b31c" stroke-width="2"/><path d="m23 21.25v6" fill="#f1b31c" stroke="#f1b31c" stroke-width="2"/><path d="m24.5 25.25h-3" fill="#f1b31c" stroke="#f1b31c" stroke-width="2"/><path d="m49 21.25v6" fill="#f1b31c" stroke="#f1b31c" stroke-width="2"/><path d="m50.5 25.25h-3" fill="#f1b31c" stroke="#f1b31c" stroke-width="2"/><path d="m5 17h62v38h-62z" fill="none" stroke="#000" stroke-width="2"/></g></svg>