<svg viewBox="0 0 72 72" xmlns="http://www.w3.org/2000/svg"><path d="m5 17h62v38h-62z" fill="#1e50a0"/><path d="m49 25 2-2" fill="none" stroke="#9b9b9a" stroke-linecap="round" stroke-linejoin="round" stroke-width="2"/><path d="m49 25-2-2" fill="none" stroke="#9b9b9a" stroke-linecap="round" stroke-linejoin="round" stroke-width="2"/><path d="m9.887 18h-3.887v2.332l26.113 15.668h3.887v-2.332z" fill="#fff"/><path d="m36 20.332v-2.332h-3.887l-26.113 15.668v2.332h3.887z" fill="#fff"/><path d="m6 24h30v6h-30z" fill="#fff"/><path d="m18 18h6v18h-6z" fill="#fff"/><path d="m20 18h2v18h-2z" fill="#d22f27"/><path d="m6 26h30v2h-30z" fill="#d22f27"/><path d="m36 33.668-6.113-3.668h-3.887l10 6v-.001z" fill="#d22f27"/><path d="m36 18h-3.887l-8.113 4.868v1.132h2.001l9.999-5.999z" fill="#d22f27"/><path d="m6 20.332 6.113 3.668h3.888l-10-6-.001.001z" fill="#d22f27"/><path d="m6 36h3.887l8.113-4.868v-1.132h-2l-10 5.999z" fill="#d22f27"/><g stroke-linecap="round" stroke-linejoin="round" stroke-width="2"><path d="m50 26h4v1h-4z" fill="none" stroke="#e27022"/><path d="m54 27v3" fill="none" stroke="#e27022"/><path d="m50 27v3" fill="none" stroke="#e27022"/><path d="m49 25 1 1" fill="none" stroke="#e27022"/><path d="m59.1357 49a9.9864 9.9864 0 0 0 -14.2714 0" fill="none" stroke="#f1b31c"/><path d="m52 42 3-8h-6z" fill="#5c9e31" stroke="#5c9e31"/></g><path d="m59 31v10a1.0029 1.0029 0 0 0 1 1h1a1.0029 1.0029 0 0 0 1-1v-5a2.094 2.094 0 0 0 -.8321-1.5547l-2.1679-1.4453"/><path d="m59 31v10a1.0029 1.0029 0 0 0 1 1h1a1.0029 1.0029 0 0 0 1-1v-5a2.094 2.094 0 0 0 -.8321-1.5547l-2.1679-1.4453" fill="none" stroke="#000" stroke-linecap="round" stroke-linejoin="round" stroke-width="2"/><path d="m45 31v10a1.0029 1.0029 0 0 1 -1 1h-1a1.0029 1.0029 0 0 1 -1-1v-5a2.094 2.094 0 0 1 .8321-1.5547l2.1679-1.4453" fill="#9b9b9a"/><path d="m45 31v10a1.0029 1.0029 0 0 1 -1 1h-1a1.0029 1.0029 0 0 1 -1-1v-5a2.094 2.094 0 0 1 .8321-1.5547l2.1679-1.4453" fill="none" stroke="#9b9b9a" stroke-linecap="round" stroke-linejoin="round" stroke-width="2"/><path d="m5 17h62v38h-62z" fill="none" stroke="#000" stroke-linecap="round" stroke-linejoin="round" stroke-width="2"/></svg>