<svg viewBox="0 0 72 72" xmlns="http://www.w3.org/2000/svg"><path d="m5 17h62v38h-62z" fill="#1e50a0"/><path d="m36.0018 46.5a11.7362 11.7362 0 0 0 5.9982-10.4995 11.736 11.736 0 0 0 -6-10.5005 11.736 11.736 0 0 0 -6 10.5005 11.7364 11.7364 0 0 0 5.9982 10.4995z" fill="#92d3f5" stroke="#d22f27" stroke-linecap="round" stroke-linejoin="round"/><path d="m30.64 40a11.2419 11.2419 0 0 0 5.3581 6.5h.0035a11.2419 11.2419 0 0 0 5.3584-6.5z" fill="#fcea2b"/><g fill="none" stroke-width="2"><path d="m7 19h58v34h-58z" stroke="#d22f27" stroke-miterlimit="10"/><path d="m28 39h16" stroke="#1e50a0" stroke-linecap="round" stroke-linejoin="round"/><path d="m36.0018 46.5a11.7362 11.7362 0 0 0 5.9982-10.4995 11.736 11.736 0 0 0 -6-10.5005 11.736 11.736 0 0 0 -6 10.5005 11.7364 11.7364 0 0 0 5.9982 10.4995z" stroke="#d22f27" stroke-linecap="round" stroke-linejoin="round"/><path d="m5 17h62v38h-62z" stroke="#000" stroke-linecap="round" stroke-linejoin="round"/></g></svg>