<svg viewBox="0 0 72 72" xmlns="http://www.w3.org/2000/svg"><path d="m5 17h62v38h-62z" fill="#1e50a0"/><g fill="#fff"><path d="m54.233 38.945.927-3 .927 3-2.427-1.855 3 .001z" stroke="#fff" stroke-linecap="round" stroke-linejoin="round"/><path d="m20.5 46.999-1.558 1.477.155-2.17-2.097-.328 1.75-1.23-1.057-1.886 2.028.637.779-2.023.779 2.023 2.028-.637-1.057 1.886 1.75 1.23-2.097.328.155 2.17z" stroke="#fff" stroke-linecap="round" stroke-linejoin="round"/><path d="m44.5 35.421-1.113 1.055.111-1.55-1.498-.235 1.25-.878-.755-1.347 1.449.455.556-1.445.556 1.445 1.449-.455-.755 1.347 1.25.878-1.498.235.111 1.55z" stroke="#fff" stroke-linecap="round" stroke-linejoin="round"/><path d="m59.5 32.421-1.113 1.055.111-1.55-1.498-.235 1.25-.878-.755-1.347 1.449.455.556-1.445.556 1.445 1.449-.455-.755 1.347 1.25.878-1.498.235.111 1.55z" stroke="#fff" stroke-linecap="round" stroke-linejoin="round"/><path d="m51.5 26.421-1.113 1.055.111-1.55-1.498-.235 1.25-.878-.755-1.347 1.449.455.556-1.445.556 1.445 1.449-.455-.755 1.347 1.25.878-1.498.235.111 1.55z" stroke="#fff" stroke-linecap="round" stroke-linejoin="round"/><path d="m51.5 47.421-1.113 1.055.111-1.55-1.498-.235 1.25-.878-.755-1.347 1.449.455.556-1.445.556 1.445 1.449-.455-.755 1.347 1.25.878-1.498.235.111 1.55z" stroke="#fff" stroke-linecap="round" stroke-linejoin="round"/><path d="m9.887 18h-3.887v2.332l26.113 15.668h3.887v-2.332z"/><path d="m36 20.332v-2.332h-3.887l-26.113 15.668v2.332h3.887z"/><path d="m6 24h30v6h-30z"/><path d="m18 18h6v18h-6z"/></g><path d="m20 18h2v18h-2z" fill="#d22f27"/><path d="m6 26h30v2h-30z" fill="#d22f27"/><path d="m36 33.668-6.113-3.668h-3.887l10 6v-.001z" fill="#d22f27"/><path d="m36 18h-3.887l-8.113 4.868v1.132h2.001l9.999-5.999z" fill="#d22f27"/><path d="m6 20.332 6.113 3.668h3.888l-10-6-.001.001z" fill="#d22f27"/><path d="m6 36h3.887l8.113-4.868v-1.132h-2l-10 5.999z" fill="#d22f27"/><path d="m5 17h62v38h-62z" fill="none" stroke="#000" stroke-linecap="round" stroke-linejoin="round" stroke-width="2"/></svg>