<svg viewBox="0 0 72 72" xmlns="http://www.w3.org/2000/svg"><path d="m5 17h62v38h-62z" fill="#1e50a0"/><path d="m5 17h62v13h-62z" fill="#d22f27"/><path d="m5 30h62v12h-62z" fill="#fff"/><path d="m40.5 43.7918a6.7093 6.7093 0 0 0 1.9885-1.7918h-1.9885z" fill="#d22f27"/><path d="m37.5 42v2.88a8.4378 8.4378 0 0 0 3-1.0877v-1.7923z" fill="#fff"/><path d="m34.5 42v2.88a9.3963 9.3963 0 0 0 3 0v-2.88z" fill="#d22f27"/><path d="m31.5 42v1.7918a8.4378 8.4378 0 0 0 3 1.0877v-2.8795z" fill="#fff"/><path d="m29.5115 42a6.7093 6.7093 0 0 0 1.9885 1.7918v-1.7918z" fill="#d22f27"/><path d="m40.5 42h1.9885a5.0877 5.0877 0 0 0 1.0115-3h-3z" fill="#fff"/><path d="m37.5 39h3v3h-3z" fill="#d22f27"/><path d="m34.5 39h3v3h-3z" fill="#fff"/><path d="m31.5 39h3v3h-3z" fill="#d22f27"/><path d="m31.5 39h-3a5.0877 5.0877 0 0 0 1.0115 3h1.9885z" fill="#fff"/><path d="m40.5 36h3v3h-3z" fill="#d22f27"/><path d="m37.5 36h3v3h-3z" fill="#fff"/><path d="m34.5 36h3v3h-3z" fill="#d22f27"/><path d="m31.5 36h3v3h-3z" fill="#fff"/><path d="m28.5 36h3v3h-3z" fill="#d22f27"/><path d="m40.5 33h3v3h-3z" fill="#fff"/><path d="m37.5 33h3v3h-3z" fill="#d22f27"/><path d="m34.5 33h3v3h-3z" fill="#fff"/><path d="m31.5 33h3v3h-3z" fill="#d22f27"/><path d="m28.5 33h3v3h-3z" fill="#fff"/><path d="m40.5 30h3v3h-3z" fill="#d22f27"/><path d="m37.5 30h3v3h-3z" fill="#fff"/><path d="m34.5 30h3v3h-3z" fill="#d22f27"/><path d="m31.5 30h3v3h-3z" fill="#fff"/><path d="m28.5 30h3v3h-3z" fill="#d22f27"/><path d="m43.5 39c0 3.3137-3.3579 6-7.5 6s-7.5-2.6863-7.5-6v-9h15z" fill="none" stroke="#d22f27" stroke-miterlimit="10"/><path d="m30.1872 24.3719 1.6528-1.8632 2.1937 1.2321 1.9663-1.5627 1.9663 1.5627 2.1937-1.2321 1.6528 1.8632 2.3741-.8719 1.2922 2.104-1.9791 4.396a15.9375 15.9375 0 0 0 -15 0l-1.9791-4.396 1.2922-2.104z" fill="#61b2e4" stroke="#61b2e4" stroke-linecap="round" stroke-linejoin="round"/><g stroke="#1e50a0"><path d="m37.619 28.21.347-4.469 2.194-1.232 1.653 1.863-1.139 4.458z" fill="#1e50a0" stroke-miterlimit="10" stroke-width=".25"/><path d="m34.381 28.21-.347-4.469-2.194-1.232-1.653 1.863 1.139 4.458z" fill="#1e50a0" stroke-miterlimit="10" stroke-width=".25"/><path d="m30.1872 24.3719 1.6528-1.8632 2.1937 1.2321 1.9663-1.5627 1.9663 1.5627 2.1937-1.2321 1.6528 1.8632 2.3741-.8719 1.2922 2.104-1.9791 4.396a15.9375 15.9375 0 0 0 -15 0l-1.9791-4.396 1.2922-2.104z" fill="none" stroke-linecap="round" stroke-linejoin="round"/></g><path d="m5 17h62v38h-62z" fill="none" stroke="#000" stroke-linecap="round" stroke-linejoin="round" stroke-width="2"/></svg>