<svg viewBox="0 0 72 72" xmlns="http://www.w3.org/2000/svg"><path d="m5 17h62v38h-62z" fill="#d22f27"/><g stroke-linecap="round" stroke-linejoin="round"><path d="m42.34 34.23 3.988-6.744 2.792-.6478-2.484 1.423-3.372 7.467-6.186.3526-5.546 2.496 3.527 6.996-.9624 2.697.1428-2.857-4.468-6.868 3.191-4.973.2343-5.676-7.834.3142-2.06-1.992 2.545 1.312 8.106-1.223 3.471 4.805z" fill="#fff" stroke="#fff"/><path d="m35.82 33.58 1.256 2.492" fill="none" stroke="#fcea2b" stroke-width="2"/><path d="m37.42 31.11-1.603 2.476-2.858-.01662" fill="none" stroke="#fcea2b" stroke-width="2"/><path d="m24.21 28.34.95-3 .9 2.98-2.41-1.82 3-.03z" fill="#fcea2b" stroke="#fcea2b" stroke-width="1.34" transform="matrix(.6713 -.3266 .3266 .6706 .7123 21.38)"/><path d="m51.06 29.32-2.41-1.82 3-.03-2.44 1.87.95-3z" fill="#fcea2b" stroke="#fcea2b" stroke-width="1.34" transform="matrix(.3343 -.6675 .6671 .3338 7.886 51.12)"/><path d="m36.16 46.34.9 2.98-2.41-1.82 3-.03-2.44 1.87z" fill="#fcea2b" stroke="#fcea2b" stroke-width="1.34" transform="matrix(.4707 -.5794 .5792 .4701 -7.299 42.64)"/><path d="m5 17h62v38h-62z" fill="none" stroke="#000" stroke-width="2"/></g></svg>