<svg viewBox="0 0 72 72" xmlns="http://www.w3.org/2000/svg"><path d="m5 17h62v38h-62z" fill="#5c9e31"/><path d="m5 17h62v13h-62z" fill="#e27022"/><path d="m5 30h62v12h-62z" fill="#fff"/><g fill="none" stroke-linecap="round" stroke-linejoin="round"><path d="m36.296 34.896 1.704-2.36-1.192 2.656 2.656-1.192-2.36 1.704 2.896.296-2.896.296 2.36 1.704-2.656-1.192 1.192 2.656-1.704-2.36-.296 2.896-.296-2.896-1.704 2.36 1.192-2.656-2.656 1.192 2.36-1.704-2.896-.296 2.896-.296-2.36-1.704 2.656 1.192-1.192-2.656 1.704 2.36.296-2.896z" stroke="#1e50a0"/><circle cx="36" cy="36" r="5" stroke="#1e50a0"/><path d="m5 17h62v38h-62z" stroke="#000" stroke-width="2"/></g></svg>