<svg viewBox="0 0 72 72" xmlns="http://www.w3.org/2000/svg"><path d="m5 17h62v38h-62z" fill="#fff"/><path d="m67 20v-3h-4l-58 35v3h4z" fill="#d22f27"/><path d="m5 20v-3h4l58 35v3h-4z" fill="#d22f27"/><g stroke-linecap="round" stroke-linejoin="round"><path d="m38.74 22.34s.2958.5821.2996 2.759c.0038 2.177-.9878 4.162-3.017 5.113-2.03-.9514-3.071-2.972-3.071-5.113s.3002-2.759.3002-2.759z" fill="#d22f27" stroke="#d22f27" stroke-width="1.522"/><path d="m32.66 19.96h6.683l-.5663 1.193h-5.604z" fill="#fcea2b" fill-rule="evenodd" stroke="#fcea2b" stroke-miterlimit="10" stroke-width=".9856"/><rect fill="#fcea2b" fill-rule="evenodd" height=".8682" ry=".0166" stroke="#fcea2b" stroke-miterlimit="10" stroke-width=".6318" width="5.478" x="33.26" y="22.72"/><rect fill="#fcea2b" fill-rule="evenodd" height=".8682" ry=".0166" stroke="#fcea2b" stroke-miterlimit="10" stroke-width=".6318" width="5.478" x="33.26" y="25.08"/><rect fill="#fcea2b" fill-rule="evenodd" height=".7173" ry=".0137" stroke="#fcea2b" stroke-miterlimit="10" stroke-width=".522" width="4.526" x="33.74" y="27.39"/><path d="m5 17h62v38h-62z" fill="none" stroke="#000" stroke-width="2"/></g></svg>