<svg viewBox="0 0 72 72" xmlns="http://www.w3.org/2000/svg"><path d="m5 17h62v38h-62z" fill="#5c9e31"/><path d="m5 17h62v13h-62z"/><g stroke="#fff"><path d="m5 30.5h62v11h-62z" fill="#d22f27" stroke-miterlimit="10" stroke-width="2"/><path d="m29.25 47.6913 13.5-23.3826" fill="#fff" stroke-linecap="round" stroke-linejoin="round"/><path d="m29.25 24.3087 13.5 23.3826" fill="#fff" stroke-linecap="round" stroke-linejoin="round"/></g><path d="m36.231 25.0566a.4958.4958 0 0 0 -.4619 0 12.2986 12.2986 0 0 0 -6.2691 10.9434 12.2988 12.2988 0 0 0 6.2671 10.9434.5.5 0 0 0 .231.0566h.0039a.5.5 0 0 0 .2309-.0566 12.2986 12.2986 0 0 0 6.2671-10.9434 12.2985 12.2985 0 0 0 -6.269-10.9434z" fill="#d22f27"/><path d="m41.7033 31.501a6.2884 6.2884 0 0 0 -1.7033 4.499 6.2883 6.2883 0 0 0 1.7037 4.4991 13.1042 13.1042 0 0 0 0-8.9979z"/><path d="m30.2964 40.4989a6.2883 6.2883 0 0 0 1.7036-4.4989 6.2884 6.2884 0 0 0 -1.7033-4.4988 13.1034 13.1034 0 0 0 0 8.9979z"/><path d="m36 27v18" fill="#fff" stroke="#fff" stroke-linecap="round" stroke-linejoin="round"/><path d="m5 17h62v38h-62z" fill="none" stroke="#000" stroke-linecap="round" stroke-linejoin="round" stroke-width="2"/></svg>