<svg viewBox="0 0 72 72" xmlns="http://www.w3.org/2000/svg"><path d="m5 17h62v38h-62z" fill="#d22f27"/><g stroke-linecap="round" stroke-linejoin="round"><path d="m36 30 1.326-4.92.11 5.094 2.465-4.459-1.113 4.972 3.461-3.74-2.27 4.562 4.255-2.803-3.296 3.886 4.802-1.704-4.13 2.984 5.07-.504-4.724 1.909 5.044.723-5.044.723 4.724 1.909-5.07-.504 4.13 2.984-4.802-1.704 3.296 3.886-4.255-2.803 2.27 4.562-3.461-3.74 1.113 4.972-2.465-4.459-.11 5.094-1.326-4.92-1.326 4.92-.11-5.094-2.465 4.459 1.113-4.972-3.461 3.74 2.27-4.562-4.255 2.803 3.296-3.886-4.802 1.704 4.13-2.984-5.07.504 4.724-1.909-5.044-.723 5.044-.723-4.724-1.909 5.07.504-4.13-2.984 4.802 1.704-3.296-3.886 4.255 2.803-2.27-4.562 3.461 3.74-1.113-4.972 2.465 4.459.11-5.094z" fill="#f1b31c" stroke="#f1b31c"/><circle cx="36" cy="36" fill="none" r="6" stroke="#d22f27"/><path d="m30.55 33.5024a5.9922 5.9922 0 0 0 9.4709 6.9422 10 10 0 0 0 -9.4709-6.9422z" fill="none" stroke="#d22f27"/><path d="m41.4505 33.5024a5.9923 5.9923 0 0 1 -9.471 6.9422 10 10 0 0 1 9.471-6.9422z" fill="none" stroke="#d22f27"/><path d="m5 17h62v38h-62z" fill="none" stroke="#000" stroke-width="2"/></g></svg>