<svg viewBox="0 0 72 72" xmlns="http://www.w3.org/2000/svg"><path d="m5 17h62v38h-62z" fill="#d22f27"/><path d="m36 36 1.326-4.92.11 5.094 2.465-4.459-1.113 4.972 3.461-3.74-2.27 4.562 4.255-2.803-3.296 3.886 4.802-1.704-4.13 2.984 5.07-.504-4.724 1.909 5.044.723-5.044.723 4.724 1.909-5.07-.504 4.13 2.984-4.802-1.704 3.296 3.886-4.255-2.803 2.27 4.562-3.461-3.74 1.113 4.972-2.465-4.459-.11 5.094-1.326-4.92-1.326 4.92-.11-5.094-2.465 4.459 1.113-4.972-3.461 3.74 2.27-4.562-4.255 2.803 3.296-3.886-4.802 1.704 4.13-2.984-5.07.504 4.724-1.909-5.044-.723 5.044-.723-4.724-1.909 5.07.504-4.13-2.984 4.802 1.704-3.296-3.886 4.255 2.803-2.27-4.562 3.461 3.74-1.113-4.972 2.465 4.459.11-5.094z" fill="#f1b31c" stroke="#f1b31c" stroke-linecap="round" stroke-linejoin="round"/><path d="m67 44a42.5886 42.5886 0 0 1 -6.2 1c-1.5693-.0494-4.6308-1.0494-6.2-1s-4.6308 1.0494-6.2 1-4.6307-1.0494-6.2-1-4.6307 1.0494-6.2 1-4.6308-1.0492-6.2-1-4.6308 1.0481-6.2 1-4.6306-1.0415-6.2-1-4.63 1-6.2 1a50.8361 50.8361 0 0 1 -6.2-1v-2a50.8361 50.8361 0 0 0 6.2 1c1.57 0 4.6305-.9586 6.2-1s4.6308.9519 6.2 1 4.6308-.9508 6.2-1 4.6307.9506 6.2 1 4.6307-.9506 6.2-1 4.6307.9506 6.2 1 4.6307-.9506 6.2-1 4.6307.9506 6.2 1a42.5886 42.5886 0 0 0 6.2-1z" fill="#fff"/><path d="m67 46a42.5886 42.5886 0 0 1 -6.2 1c-1.5693-.0494-4.6308-1.0494-6.2-1s-4.6308 1.0494-6.2 1-4.6307-1.0494-6.2-1-4.6307 1.0494-6.2 1-4.6308-1.0492-6.2-1-4.6308 1.0481-6.2 1-4.6306-1.0415-6.2-1-4.63 1-6.2 1a50.8361 50.8361 0 0 1 -6.2-1v-2a50.8361 50.8361 0 0 0 6.2 1c1.57 0 4.6305-.9586 6.2-1s4.6308.9519 6.2 1 4.6308-.9508 6.2-1 4.6307.9506 6.2 1 4.6307-.9506 6.2-1 4.6307.9506 6.2 1 4.6307-.9506 6.2-1 4.6307.9506 6.2 1a42.5886 42.5886 0 0 0 6.2-1z" fill="#1e50a0"/><path d="m67 48a42.5886 42.5886 0 0 1 -6.2 1c-1.5693-.0494-4.6308-1.0494-6.2-1s-4.6308 1.0494-6.2 1-4.6307-1.0494-6.2-1-4.6307 1.0494-6.2 1-4.6308-1.0492-6.2-1-4.6308 1.0481-6.2 1-4.6306-1.0415-6.2-1-4.63 1-6.2 1a50.8361 50.8361 0 0 1 -6.2-1v-2a50.8361 50.8361 0 0 0 6.2 1c1.57 0 4.6305-.9586 6.2-1s4.6308.9519 6.2 1 4.6308-.9508 6.2-1 4.6307.9506 6.2 1 4.6307-.9506 6.2-1 4.6307.9506 6.2 1 4.6307-.9506 6.2-1 4.6307.9506 6.2 1a42.5886 42.5886 0 0 0 6.2-1z" fill="#fff"/><path d="m67 50a42.5886 42.5886 0 0 1 -6.2 1c-1.5693-.0494-4.6308-1.0494-6.2-1s-4.6308 1.0494-6.2 1-4.6307-1.0494-6.2-1-4.6307 1.0494-6.2 1-4.6308-1.0492-6.2-1-4.6308 1.0481-6.2 1-4.6306-1.0415-6.2-1-4.63 1-6.2 1a50.8361 50.8361 0 0 1 -6.2-1v-2a50.8361 50.8361 0 0 0 6.2 1c1.57 0 4.6305-.9586 6.2-1s4.6308.9519 6.2 1 4.6308-.9508 6.2-1 4.6307.9506 6.2 1 4.6307-.9506 6.2-1 4.6307.9506 6.2 1 4.6307-.9506 6.2-1 4.6307.9506 6.2 1a42.5886 42.5886 0 0 0 6.2-1z" fill="#1e50a0"/><path d="m67 55s-4.6307-.9506-6.2-1-4.6308.9506-6.2 1-4.6308-.9506-6.2-1-4.6307.9506-6.2 1-4.6307-.9506-6.2-1-4.6308.9508-6.2 1-4.6308-.9519-6.2-1-4.6306.9585-6.2 1-4.63-1-6.2-1a50.8361 50.8361 0 0 0 -6.2 1v-4a50.8361 50.8361 0 0 0 6.2 1c1.57 0 4.6305-.9586 6.2-1s4.6308.9519 6.2 1 4.6308-.9508 6.2-1 4.6307.9506 6.2 1 4.6307-.9506 6.2-1 4.6307.9506 6.2 1 4.6307-.9506 6.2-1 4.6307.9506 6.2 1a42.5886 42.5886 0 0 0 6.2-1z" fill="#1e50a0"/><path d="m67 52a42.5886 42.5886 0 0 1 -6.2 1c-1.5693-.0494-4.6308-1.0494-6.2-1s-4.6308 1.0494-6.2 1-4.6307-1.0494-6.2-1-4.6307 1.0494-6.2 1-4.6308-1.0492-6.2-1-4.6308 1.0481-6.2 1-4.6306-1.0415-6.2-1-4.63 1-6.2 1a50.8361 50.8361 0 0 1 -6.2-1v-2a50.8361 50.8361 0 0 0 6.2 1c1.57 0 4.6305-.9586 6.2-1s4.6308.9519 6.2 1 4.6308-.9508 6.2-1 4.6307.9506 6.2 1 4.6307-.9506 6.2-1 4.6307.9506 6.2 1 4.6307-.9506 6.2-1 4.6307.9506 6.2 1a42.5886 42.5886 0 0 0 6.2-1z" fill="#fff"/><g stroke-linecap="round" stroke-linejoin="round" stroke-width="2"><path d="m45.5 22a17.1366 17.1366 0 0 1 -8 2" fill="#f1b31c" stroke="#f1b31c"/><path d="m26.5 22a17.1366 17.1366 0 0 0 8 2" fill="#f1b31c" stroke="#f1b31c"/><path d="m31.4946 25.9334a10.9861 10.9861 0 0 1 9.0109-.0011" fill="none" stroke="#f1b31c"/><path d="m5 17h62v38h-62z" fill="none" stroke="#000"/></g></svg>