<svg viewBox="0 0 72 72" xmlns="http://www.w3.org/2000/svg"><path d="m5 17h62v38h-62z" fill="#1e50a0"/><path d="m5 27h62v9h-62z" fill="#fff"/><path d="m5 36h62v9h-62z" fill="#d22f27"/><path d="m5 17h62v10h-62z" fill="#f1b31c"/><path d="m37 36-32 19v-38z" fill="#5c9e31"/><g fill="#fff"><circle cx="19" cy="31" r="1.0435"/><circle cx="19" cy="34.3333" r="1.0435"/><circle cx="19" cy="37.6667" r="1.0435"/><circle cx="19" cy="41" r="1.0435"/><path d="m11.6929 36.125a7.4815 7.4815 0 0 1 5.9889-7.3567 7.3762 7.3762 0 0 0 -1.4373-.1433 7.5 7.5 0 0 0 0 15 7.3839 7.3839 0 0 0 1.4373-.1432 7.4817 7.4817 0 0 1 -5.9889-7.3568z" stroke="#fff" stroke-linecap="round" stroke-linejoin="round"/></g><path d="m5 17h62v38h-62z" fill="none" stroke="#000" stroke-linecap="round" stroke-linejoin="round" stroke-width="2"/></svg>