<svg viewBox="0 0 72 72" xmlns="http://www.w3.org/2000/svg"><path d="m5 17h62v38h-62z" fill="#fff"/><circle cx="36" cy="36" fill="#d22f27" r="9"/><path d="m28.1267 31.6756a4.4922 4.4922 0 0 0 7.8733 4.3244c.023-.04.0338-.0828.0554-.123l.0232.0138a4.4932 4.4932 0 0 1 7.7243 4.59l.003.0018a8.9918 8.9918 0 0 1 -15.6792-8.8071z" fill="#1e50a0"/><path d="m28.3313 31.2869.02.0115c-.03.046-.0668.085-.0954.1325.0271-.0465.047-.0981.0754-.144z" fill="#1e50a0"/><g fill="none" stroke="#000" stroke-linecap="round" stroke-linejoin="round"><path d="m24.2321 41.9019 3 5.1962"/><path d="m20.768 43.9019 3 5.1962"/><path d="m22.5 42.9019 1 1.7321"/><path d="m24.5 46.366 1 1.7321"/><path d="m45.5 48.0981 1-1.7321"/><path d="m47.5 44.634 1-1.7321"/><path d="m47.2321 49.0981 1-1.7321"/><path d="m49.2321 45.634 1-1.7321"/><path d="m43.768 47.0981 1-1.7321"/><path d="m45.768 43.634 1-1.7321"/><path d="m20.768 28.0981 3-5.1962"/><path d="m22.5 29.0981 3-5.1962"/><path d="m24.2321 30.0981 3-5.1962"/><path d="m44.768 24.9019 1 1.7321"/><path d="m46.768 28.366 1 1.7321"/><path d="m48.2321 22.9019 1 1.7321"/><path d="m50.2321 26.366 1 1.7321"/><path d="m46.5 23.9019 3 5.1962"/><path d="m5 17h62v38h-62z" stroke-width="2"/></g></svg>