<svg viewBox="0 0 72 72" xmlns="http://www.w3.org/2000/svg"><path d="m5 17h62v38h-62z" fill="#61b2e4"/><g stroke-linecap="round" stroke-linejoin="round"><path d="m44.23 28.71-3.29 3.88 4.8-1.7-4.13 2.98 5.07-.5-4.72 1.91 5.04.72-5.04.72 4.72 1.91-5.07-.5 4.13 2.98-4.8-1.7 3.29 3.88-4.25-2.8 2.27 4.56-3.46-3.74 1.11 4.97-2.46-4.45-.11 5.09-1.33-4.92-1.33 4.92-.11-5.09-2.46 4.45 1.11-4.97-3.46 3.74 2.27-4.56-4.25 2.8 3.29-3.88-4.8 1.7 4.13-2.98-5.07.5 4.72-1.91-5.04-.72 5.04-.72-4.72-1.91 5.07.5-4.13-2.98 4.8 1.7-3.29-3.88 4.25 2.8-2.27-4.56 3.46 3.74-1.11-4.97 2.46 4.45.11-5.09 1.33 4.92 1.33-4.92.11 5.09 2.46-4.45-1.11 4.97 3.46-3.74-2.27 4.56z" fill="#fcea2b" stroke="#fcea2b" transform="matrix(.6848 0 0 .6848 14.6 8.726)"/><path d="m31.09 39.13s2.312 4.125 6.688 4.688c2.768.3559 1.376.6496-.04232 1.065-.8236.2413-1.676.5633-1.676.5633s1.315-.5202 3.443-.616c2.104-.09466 1.471-.06925.8339-.2106-.4556-.1011-1.57-.1957-1.263-.2675 4.083-.9558 7.427-2.98 8.33-5.222" fill="none" stroke="#fcea2b" stroke-width="2"/><path d="m10.5 22.02v27.95" fill="none" stroke="#fcea2b" stroke-width="3.995"/><path d="m5 17h62v38h-62z" fill="none" stroke="#000" stroke-width="2"/></g></svg>