<svg viewBox="0 0 72 72" xmlns="http://www.w3.org/2000/svg"><path d="m5 17h62v38h-62z" fill="#fff"/><path d="m5 17h62v7h-62z" fill="#d22f27"/><path d="m5 48h62v7h-62z" fill="#d22f27"/><g fill="#5c9e31"><path d="m36 27-7 5 7-1 7 1z" stroke="#5c9e31" stroke-linecap="round" stroke-linejoin="round" stroke-width="2"/><path d="m36 31-8 5 8-1 8 1z" stroke="#5c9e31" stroke-linecap="round" stroke-linejoin="round" stroke-width="2"/><path d="m36 35-9 5 9-1 9 1z" stroke="#5c9e31" stroke-linecap="round" stroke-linejoin="round" stroke-width="2"/><path d="m38 39v3.5a2.2272 2.2272 0 0 0 1.4231 1.9743l.1539.0514-.1539-.0514a11.1134 11.1134 0 0 0 -2.9231-.4743h-1a11.1126 11.1126 0 0 0 -2.923.4743l-.1539.0514.1539-.0514a2.2271 2.2271 0 0 0 1.423-1.9743v-3.5"/></g><path d="m38 39v3.5a2.2272 2.2272 0 0 0 1.4231 1.9743l.1539.0514-.1539-.0514a11.1134 11.1134 0 0 0 -2.9231-.4743h-1a11.1126 11.1126 0 0 0 -2.923.4743l-.1539.0514.1539-.0514a2.2271 2.2271 0 0 0 1.423-1.9743v-3.5" fill="none" stroke="#5c9e31" stroke-linecap="round" stroke-linejoin="round" stroke-width="2"/><path d="m5 17h62v38h-62z" fill="none" stroke="#000" stroke-linecap="round" stroke-linejoin="round" stroke-width="2"/></svg>