<svg viewBox="0 0 72 72" xmlns="http://www.w3.org/2000/svg"><path d="m5 17h62v38h-62z" fill="#d22f27"/><path d="m5 17h11v38h-11z" fill="#5c9e31"/><path d="m16 17h10v38h-10z" fill="#e27022"/><g stroke="#f1b31c"><path d="m26 18v36" fill="none" stroke-miterlimit="10" stroke-width="2"/><path d="m7 19h58v34h-58z" fill="none" stroke-miterlimit="10" stroke-width="2"/><path d="m50 45h2l1-2-3-6" fill="none" stroke-linecap="round" stroke-linejoin="round" stroke-width="2"/><path d="m41 45h2l1-2-3-6" fill="none" stroke-linecap="round" stroke-linejoin="round" stroke-width="2"/><path d="m37 26a7.0706 7.0706 0 0 0 -1 4v12" fill="none" stroke-linecap="round" stroke-linejoin="round" stroke-width="2"/><path d="m44 41c3 0 3-2 7-2l5 2c-1-2 2-3 1-6h-15s-3 2-3 5h3z" fill="#f1b31c" stroke-linecap="round" stroke-linejoin="round" stroke-width="2"/><path d="m54 45h2l1-2-3-6" fill="none" stroke-linecap="round" stroke-linejoin="round" stroke-width="2"/><path d="m35 37 4 3" fill="none" stroke-linecap="round" stroke-linejoin="round" stroke-width="2"/><path d="m56 31a2 2 0 0 1 0 4" fill="none" stroke-linecap="round" stroke-linejoin="round" stroke-width="2"/><path d="m52 31a2 2 0 0 1 0-4" fill="none" stroke-linecap="round" stroke-linejoin="round" stroke-width="2"/></g><rect fill="#f1b31c" height="5" rx="1" width="4" x="42" y="30"/><rect fill="none" height="5" rx="1" stroke="#f1b31c" stroke-linecap="round" stroke-linejoin="round" stroke-width="2" width="4" x="42" y="30"/><path d="m52 31h4" fill="none" stroke="#f1b31c" stroke-linecap="round" stroke-linejoin="round" stroke-width="2"/><path d="m60 24 1-1" fill="none" stroke="#f1b31c" stroke-linecap="round" stroke-linejoin="round" stroke-width="2"/><path d="m31 24-1-1" fill="none" stroke="#f1b31c" stroke-linecap="round" stroke-linejoin="round" stroke-width="2"/><path d="m43 32-3-1" fill="none" stroke="#f1b31c" stroke-linecap="round" stroke-linejoin="round" stroke-width="2"/><path d="m43 33-3 1" fill="none" stroke="#f1b31c" stroke-linecap="round" stroke-linejoin="round" stroke-width="2"/><path d="m60 48 1 1" fill="none" stroke="#f1b31c" stroke-linecap="round" stroke-linejoin="round" stroke-width="2"/><path d="m31 48-1 1" fill="none" stroke="#f1b31c" stroke-linecap="round" stroke-linejoin="round" stroke-width="2"/><path d="m5 17h62v38h-62z" fill="none" stroke="#000" stroke-linecap="round" stroke-linejoin="round" stroke-width="2"/></svg>