<svg viewBox="0 0 72 72" xmlns="http://www.w3.org/2000/svg"><path d="m5 17h62v38h-62z" fill="#5c9e31"/><path d="m5 17h62v13h-62z" fill="#d22f27"/><path d="m5 30h62v12h-62z"/><g stroke-linecap="round" stroke-linejoin="round"><path d="m32.1358 36.125a4.0528 4.0528 0 0 1 3.3783-3.9236 4.3947 4.3947 0 0 0 -.8108-.0764 4.0043 4.0043 0 1 0 0 8 4.3947 4.3947 0 0 0 .8108-.0764 4.0527 4.0527 0 0 1 -3.3783-3.9236z" fill="#fff" stroke="#fff"/><path d="m38.193 37.166 1.328-4 1.145 3.939-3.18-2.373 4-.099z" fill="#fff" stroke="#fff"/><path d="m5 17h62v38h-62z" fill="none" stroke="#000" stroke-width="2"/></g></svg>