<svg viewBox="0 0 72 72" xmlns="http://www.w3.org/2000/svg"><path d="m5 17h62v38h-62z" fill="#fcea2b"/><path d="m5 17h21v38h-21z" fill="#1e50a0"/><path d="m46 17h21v38h-21z" fill="#d22f27"/><path d="m34.6566 30.5657-.4987 1.7043h-2.21a2.0412 2.0412 0 0 0 -2.9479 0v8.1052l2.9474-2.9473h2.21l-2.3291 6.5721h8.4848l-2.471-6.572h2.9479l2.21 2.9473v-8.1053a2.0412 2.0412 0 0 0 -2.9474 0h-2.21l-.3573-1.7044v-1.4141a2.5259 2.5259 0 0 0 -1.8481-2.6862 1.8866 1.8866 0 0 0 -1.5806.2582l-1.5207 1.0139 2.1212 1.4141z" fill="#a57939" stroke="#a57939" stroke-linecap="round" stroke-linejoin="round" stroke-width="2"/><path d="m32.2194 31.5h7.7641v4.529h-7.7641z" fill="#d22f27"/><path d="m32.2194 35.382h7.7641c.3235 4.5291-4.2056 6.47-4.2056 6.47s-4.8525-3.2349-3.5585-6.47z" fill="#1e50a0"/><g stroke-linecap="round" stroke-linejoin="round"><path d="m35.454 35.25h1.294l-.647 1.95z" fill="#fcea2b" stroke="#fcea2b" stroke-width="2"/><path d="m35.9936 41.8521s3.882-1.294 3.882-5.1761v-5.176h-7.764v5.176c0 3.8821 3.882 5.1761 3.882 5.1761z" fill="none" stroke="#000"/><path d="m5 17h62v38h-62z" fill="none" stroke="#000" stroke-width="2"/></g></svg>