<svg viewBox="0 0 72 72" xmlns="http://www.w3.org/2000/svg"><path d="m5 17h62v38h-62z" fill="#d22f27"/><g stroke-linecap="round" stroke-linejoin="round" stroke-width="2"><path d="m39 35c1.501 0 3.5084-3.5564 1.9248-7.3049a8 8 0 0 1 -4.9248 14.3049" fill="#f1b31c" stroke="#f1b31c"/><path d="m36 42 6 2" fill="#f1b31c" stroke="#f1b31c"/><path d="m33 35c-1.501 0-3.5084-3.5564-1.9248-7.3049a8 8 0 0 0 4.9248 14.3049" fill="#f1b31c" stroke="#f1b31c"/><path d="m36 42-6 2" fill="#f1b31c" stroke="#f1b31c"/><path d="m36 43-2 2.5 2 .5 2-.5z" fill="#f1b31c" stroke="#f1b31c"/><path d="m38 31c-2 0-2 2.4424-1 4" fill="none" stroke="#f1b31c"/><path d="m34 31c2 0 2 2.4424 1 4" fill="none" stroke="#f1b31c"/><path d="m38 38c0 1.2-.6509 1.6174-2 2-1.3491-.3826-2-.8-2-2" fill="#5c9e31" stroke="#5c9e31"/></g><path d="m33 34h6v4h-6z" fill="#1e50a0"/><path d="m35 28h2" fill="none" stroke="#f1b31c" stroke-linecap="round" stroke-linejoin="round" stroke-width="2"/><path d="m5 17h62v38h-62z" fill="none" stroke="#000" stroke-linecap="round" stroke-linejoin="round" stroke-width="2"/></svg>