<svg viewBox="0 0 72 72" xmlns="http://www.w3.org/2000/svg"><path d="m5 17h62v38h-62z" fill="#d22f27"/><g fill="#f1b31c"><path d="m15 17h-10l31 19v-2z"/><path d="m15 55h-10l31-19v2z"/><path d="m57 17h10l-31 19v-2z"/><path d="m57 55h10l-31-19v2z"/><path d="m33 55h6l-2-19h-2z"/><path d="m67 39v-6l-31 2v2z"/><path d="m5 39v-6l31 2v2z"/><path d="m33 17h6l-2 19h-2z"/><circle cx="36" cy="36" r="7" stroke="#d22f27" stroke-miterlimit="10"/></g><path d="m5 17h62v38h-62z" fill="none" stroke="#000" stroke-linecap="round" stroke-linejoin="round" stroke-width="2"/></svg>