<svg viewBox="0 0 72 72" xmlns="http://www.w3.org/2000/svg"><path d="m5.2273 17h62v38h-62z" fill="#1e50a0"/><path d="m5.2273 17h21v38h-21z" fill="#d22f27"/><path d="m46.2273 17h21v38h-21z" fill="#d22f27"/><g stroke-linecap="round" stroke-linejoin="round" stroke-width="2"><circle cx="16" cy="29" fill="#fcea2b" r="1" stroke="#fcea2b"/><circle cx="16" cy="41" fill="#fcea2b" r="1" stroke="#fcea2b"/><path d="m17 24a1 1 0 0 1 -2 0l1-1z" fill="#fcea2b" stroke="#fcea2b"/><path d="m15 33h2l-1 1z" fill="#fcea2b" stroke="#fcea2b"/><path d="m15 48h2l-1 1z" fill="#fcea2b" stroke="#fcea2b"/><path d="m15 37h2" fill="#fcea2b" stroke="#fcea2b"/><path d="m15 45h2" fill="#fcea2b" stroke="#fcea2b"/><path d="m11 33h1v16h-1z" fill="#fcea2b" stroke="#fcea2b"/><path d="m20 33h1v16h-1z" fill="#fcea2b" stroke="#fcea2b"/><path d="m5 17h62v38h-62z" fill="none" stroke="#000"/></g></svg>