<svg viewBox="0 0 72 72" xmlns="http://www.w3.org/2000/svg"><path d="m5 17h62v38h-62z" fill="#186648"/><g stroke-linecap="round" stroke-linejoin="round"><path d="m32.4077 49.977h7" fill="none" stroke="#fff"/><path d="m43.9077 47.977h-16" fill="none" stroke="#fff"/><path d="m25.4077 45.977h21" fill="none" stroke="#fff"/><path d="m34.467 27.023 1.66-5 1.43 4.923-3.974-2.966 5-.124z" fill="#f1b31c" stroke="#f1b31c"/><path d="m42.993 28.307-.638-3.096 2.221 2.129-2.955-.349 2.561-1.564z" fill="#f1b31c" stroke="#f1b31c"/><path d="m46.094 33.047.996-3 .859 2.954-2.385-1.78 3-.074z" fill="#f1b31c" stroke="#f1b31c"/><path d="m29.007 28.155.638-3.096-2.221 2.129 2.955-.349-2.561-1.564z" fill="#f1b31c" stroke="#f1b31c"/><path d="m25.906 32.895-.996-3-.859 2.954 2.385-1.78-3-.074z" fill="#f1b31c" stroke="#f1b31c"/><path d="m35.0066 41.34c1.3822 1.2555 4.0028 1.8321 6.8351 1.3326s5.0984-1.9379 5.9676-3.5908c-1.3821-1.2559-4.0031-1.8327-6.8359-1.3332s-5.0976 1.9374-5.9671 3.59z" fill="#fff" stroke="#fff"/><path d="m24.0062 39.083c.8695 1.6525 3.1348 3.09 5.9671 3.59s5.4538-.0773 6.8358-1.3332c-.8691-1.6529-3.1347-3.0913-5.9675-3.5908s-5.4529.0771-6.8351 1.3326z" fill="#fff" stroke="#fff"/><path d="m35.907 29.977c-1.4765 1.0443-2.4993 3.31-2.4993 5.9373s1.0232 4.8938 2.5 5.9378c1.4769-1.044 2.5-3.31 2.5-5.9378s-1.0228-4.893-2.4992-5.9373z" fill="#fff" stroke="#fff"/><path d="m5 17h62v38h-62z" fill="none" stroke="#000" stroke-width="2"/></g></svg>