<svg viewBox="0 0 72 72" xmlns="http://www.w3.org/2000/svg"><path d="m5 17h62v38h-62z" fill="#61b2e4"/><ellipse cx="36" cy="36" fill="none" rx="10.4661" ry="10.4999" stroke="#fff" stroke-miterlimit="10" stroke-width="3"/><g stroke-linecap="round" stroke-linejoin="round"><path d="m46.4658 35.9315a10.4661 10.4661 0 1 1 -20.9317.137" fill="none" stroke="#fcea2b"/><path d="m25.5343 36.0685a10.4661 10.4661 0 1 1 20.9317-.137" fill="none" stroke="#d22f27"/><path d="m40.5 50h-9l3-18h3z" fill="#9b9b9a" stroke="#9b9b9a"/><path d="m38.5 29h-5l1 4h3z" fill="#9b9b9a" stroke="#9b9b9a"/><path d="m32.122 42 3.983-12 3.434 11.816-9.539-7.12 12-.296z" fill="#fff" stroke="#fff"/><path d="m25.7466 38.1161a10.6415 10.6415 0 0 1 -.0231-4.1161" fill="none" stroke="#5c9e31"/><path d="m46.2535 34a10.6388 10.6388 0 0 1 .023 4.1158" fill="none" stroke="#5c9e31"/><path d="m5 17h62v38h-62z" fill="none" stroke="#000" stroke-width="2"/></g></svg>