<svg viewBox="0 0 72 72" xmlns="http://www.w3.org/2000/svg"><path d="m5 17h62v38h-62z" fill="#1e50a0"/><g stroke-width="2"><path d="m67.004 33.045-28-.041.024-16-6-.008-.024 16-28-.041-.008 6 28 .041-.024 16 6 .008.024-16 28 .041z" fill="#fff" stroke="#fff" stroke-miterlimit="10"/><path d="m16 50h6.5" fill="#f1b31c" stroke="#fff" stroke-linecap="round" stroke-linejoin="round"/><path d="m16 50 6.5-1" fill="#f1b31c" stroke="#fff" stroke-linecap="round" stroke-linejoin="round"/><circle cx="22.5" cy="49.5" fill="none" r=".5" stroke="#fff" stroke-linecap="round" stroke-linejoin="round"/><path d="m19 47a3 3 0 0 0 3 3" fill="none" stroke="#fff" stroke-linecap="round" stroke-linejoin="round"/><path d="m17 44h1.5a.5015.5015 0 0 1 .5.5v2.5" fill="none" stroke="#fff" stroke-linecap="round" stroke-linejoin="round"/><path d="m16 28h6.5" fill="#f1b31c" stroke="#fff" stroke-linecap="round" stroke-linejoin="round"/><path d="m16 28 6.5-1" fill="#f1b31c" stroke="#fff" stroke-linecap="round" stroke-linejoin="round"/><circle cx="22.5" cy="27.5" fill="none" r=".5" stroke="#fff" stroke-linecap="round" stroke-linejoin="round"/><path d="m19 25a3 3 0 0 0 3 3" fill="none" stroke="#fff" stroke-linecap="round" stroke-linejoin="round"/><path d="m17 22h1.5a.5015.5015 0 0 1 .5.5v2.5" fill="none" stroke="#fff" stroke-linecap="round" stroke-linejoin="round"/><path d="m50 50h6.5" fill="#f1b31c" stroke="#fff" stroke-linecap="round" stroke-linejoin="round"/><path d="m50 50 6.5-1" fill="#f1b31c" stroke="#fff" stroke-linecap="round" stroke-linejoin="round"/><circle cx="56.5" cy="49.5" fill="none" r=".5" stroke="#fff" stroke-linecap="round" stroke-linejoin="round"/><path d="m53 47a3 3 0 0 0 3 3" fill="none" stroke="#fff" stroke-linecap="round" stroke-linejoin="round"/><path d="m51 44h1.5a.5015.5015 0 0 1 .5.5v2.5" fill="none" stroke="#fff" stroke-linecap="round" stroke-linejoin="round"/><path d="m50 28h6.5" fill="#f1b31c" stroke="#fff" stroke-linecap="round" stroke-linejoin="round"/><path d="m50 28 6.5-1" fill="#f1b31c" stroke="#fff" stroke-linecap="round" stroke-linejoin="round"/><circle cx="56.5" cy="27.5" fill="none" r=".5" stroke="#fff" stroke-linecap="round" stroke-linejoin="round"/><path d="m53 25a3 3 0 0 0 3 3" fill="none" stroke="#fff" stroke-linecap="round" stroke-linejoin="round"/><path d="m51 22h1.5a.5015.5015 0 0 1 .5.5v2.5" fill="none" stroke="#fff" stroke-linecap="round" stroke-linejoin="round"/><path d="m5 17h62v38h-62z" fill="none" stroke="#000" stroke-linecap="round" stroke-linejoin="round"/></g></svg>