<svg viewBox="0 0 72 72" xmlns="http://www.w3.org/2000/svg"><path d="m5 17h62v38h-62z" fill="#5c9e31"/><path d="m5 17h62v7h-62z" fill="#d22f27"/><path d="m5 48h62v7h-62z" fill="#d22f27"/><g stroke-linecap="round" stroke-linejoin="round"><path d="m36 40.8847a6.9294 6.9294 0 0 1 -6.8663-5.4054 6.4559 6.4559 0 0 0 -.1337 1.2973 7.0066 7.0066 0 0 0 14 0 6.4486 6.4486 0 0 0 -.1337-1.2973 6.9294 6.9294 0 0 1 -6.8663 5.4054z" fill="#fcea2b" stroke="#fcea2b"/><path d="m34.707 34.521 1.328-4 1.145 3.939-3.18-2.374 4-.099z" fill="#fcea2b" stroke="#fcea2b"/><path d="m5 17h62v38h-62z" fill="none" stroke="#000" stroke-width="2"/></g></svg>