<svg viewBox="0 0 72 72" xmlns="http://www.w3.org/2000/svg"><path d="m5 17h62v38h-62z" fill="#1e50a0"/><path d="m52.679 47s6.75-2.25 6.75-9v-9h-13.5v9c0 6.75 6.75 9 6.75 9z" fill="#92d3f5" stroke="#92d3f5" stroke-linecap="round" stroke-linejoin="round"/><path d="m46.2767 40.5c1.3694 4.8127 6.4023 6.5 6.4023 6.5s5.033-1.6873 6.4024-6.5z" fill="#d22f27" stroke="#d22f27" stroke-linecap="round" stroke-linejoin="round"/><path d="m52.4584 32.0625v10.625" fill="none" stroke="#000" stroke-linecap="round" stroke-linejoin="round" stroke-width="2"/><path d="m55.6459 35.25h-6.375" fill="none" stroke="#000" stroke-linecap="round" stroke-linejoin="round" stroke-width="2"/><path d="m9.887 18h-3.887v2.332l26.113 15.668h3.887v-2.332z" fill="#fff"/><path d="m36 20.332v-2.332h-3.887l-26.113 15.668v2.332h3.887z" fill="#fff"/><path d="m6 24h30v6h-30z" fill="#fff"/><path d="m18 18h6v18h-6z" fill="#fff"/><g fill="#d22f27"><path d="m20 18h2v18h-2z"/><path d="m6 26h30v2h-30z"/><path d="m36 33.668-6.113-3.668h-3.887l10 6v-.001z"/><path d="m36 18h-3.887l-8.113 4.868v1.132h2.001l9.999-5.999z"/><path d="m6 20.332 6.113 3.668h3.888l-10-6-.001.001z"/><path d="m6 36h3.887l8.113-4.868v-1.132h-2l-10 5.999z"/></g><path d="m5 17h62v38h-62z" fill="none" stroke="#000" stroke-linecap="round" stroke-linejoin="round" stroke-width="2"/></svg>