<svg viewBox="0 0 72 72" xmlns="http://www.w3.org/2000/svg"><path d="m5 17h62v38h-62z" fill="#fff"/><g fill="#d22f27"><path d="m5 17h62v5h-62z"/><path d="m5 26h62v4h-62z"/><path d="m5 34h62v4h-62z"/><path d="m5 42h62v4h-62z"/><path d="m5 50h62v5h-62z"/></g><path d="m5 17h29v21h-29z" fill="#1e50a0"/><path d="m13.8446 27.5a6.2149 6.2149 0 0 1 5.4054-5.8854 7.4868 7.4868 0 0 0 -1.2973-.1146c-3.7018 0-6.7027 2.6863-6.7027 6s3.0009 6 6.7027 6a7.4868 7.4868 0 0 0 1.2973-.1146 6.2149 6.2149 0 0 1 -5.4054-5.8854z" fill="#f1b31c" stroke="#f1b31c" stroke-linecap="round" stroke-linejoin="round"/><path d="m24.612 25.969 2.097-3.418-1.451 3.723 3.409-2.192-2.964 2.74 4.047-.532-3.889 1.214 3.883 1.233-4.044-.552 2.949 2.755-3.398-2.209 1.433 3.73-2.079-3.428-.369 3.967-.348-3.969-2.097 3.418 1.451-3.723-3.409 2.192 2.964-2.74-4.047.532 3.889-1.214-3.883-1.233 4.044.552-2.949-2.755 3.398 2.209-1.433-3.73 2.079 3.428.369-3.967z" fill="#f1b31c" stroke="#f1b31c" stroke-linecap="round" stroke-linejoin="round"/><path d="m5 17h62v38h-62z" fill="none" stroke="#000" stroke-linecap="round" stroke-linejoin="round" stroke-width="2"/></svg>