<svg viewBox="0 0 72 72" xmlns="http://www.w3.org/2000/svg"><path d="m5 17h62v38h-62z" fill="#5c9e31"/><path d="m5 30h62v12h-62z" fill="#d22f27"/><path d="m5 17h62v13h-62z" fill="#1e50a0"/><circle cx="25" cy="36.5" fill="#fcea2b" r="13" stroke="#000" stroke-miterlimit="10"/><path d="m25 23.56v25" fill="none" stroke="#000" stroke-linecap="round" stroke-linejoin="round"/><ellipse cx="25" cy="36.93" rx="1.785" ry="1.071"/><g stroke="#000"><ellipse cx="25" cy="42.49" rx="1.162" ry="1.55" stroke-linecap="round" stroke-linejoin="round" stroke-width=".7749"/><circle cx="25" cy="31.29" r="1.353" stroke-linecap="round" stroke-linejoin="round" stroke-width=".9021"/><path d="m22.83 28.61 4.34-2.5" fill="none" stroke-linecap="round" stroke-linejoin="round"/><path d="m25 49.49a10.75 17.05 0 0 0 3.694-1.05c-.2219-1.632-1.782-2.902-3.694-2.902s-3.472 1.27-3.694 2.902a10.75 17.05 0 0 0 3.694 1.05z" stroke-miterlimit="10" stroke-width="1.046"/><path d="m22.39 42.45c1.114-3.639 4.098-3.639 5.216 0" fill="none" stroke-linecap="round" stroke-linejoin="round"/><path d="m22.4 31.36c1.11 3.798 4.085 3.798 5.199 0" fill="none" stroke-linecap="round" stroke-linejoin="round"/><path d="m23.35 35.25h3.3" fill="none" stroke-linecap="round" stroke-linejoin="round"/><path d="m23.35 38.61h3.3" fill="none" stroke-linecap="round" stroke-linejoin="round" stroke-width=".9999"/><path d="m5 17h62v38h-62z" fill="none" stroke-linecap="round" stroke-linejoin="round" stroke-width="2"/></g></svg>