<svg viewBox="0 0 72 72" xmlns="http://www.w3.org/2000/svg"><g stroke-linecap="round" stroke-linejoin="round"><path d="m50 55h-28v-38l28 20h-17z" fill="#d22f27" stroke="#1e50a0" stroke-width="2"/><g stroke="#fff"><path d="m30 42.773 1.206-.773.658 1.272 1.43-.066-.066 1.431 1.272.657-.773 1.206.773 1.206-1.272.657.066 1.431-1.43-.066-.658 1.272-1.206-.773-1.206.773-.657-1.272-1.431.066.066-1.431-1.272-.657.773-1.206-.773-1.206 1.272-.657-.066-1.431 1.431.066.657-1.272z" fill="#fff"/><circle cx="30" cy="30" fill="#fff" r="2"/><path d="m34 31c-.45 1-1.7187 2-4 2s-3.55-1-4-2" fill="none" stroke-width="1.5"/></g></g></svg>