<svg viewBox="0 0 72 72" xmlns="http://www.w3.org/2000/svg"><path d="m5 17h62v38h-62z" fill="#1e50a0"/><path d="m5 35h62v2h-62z" fill="#f1b31c"/><g stroke-linecap="round" stroke-linejoin="round"><path d="m16.296 44.896 1.704-2.36-1.192 2.656 2.656-1.192-2.36 1.704 2.896.296-2.896.296 2.36 1.704-2.656-1.192 1.192 2.656-1.704-2.36-.296 2.896-.296-2.896-1.704 2.36 1.192-2.656-2.656 1.192 2.36-1.704-2.896-.296 2.896-.296-2.36-1.704 2.656 1.192-1.192-2.656 1.704 2.36.296-2.896z" fill="#fff" stroke="#fff"/><path d="m5 17h62v38h-62z" fill="none" stroke="#000" stroke-width="2"/></g></svg>