<svg viewBox="0 0 72 72" xmlns="http://www.w3.org/2000/svg"><path d="m5 17h62v38h-62z" fill="#1e50a0"/><path d="m9.887 18h-3.887v2.332l26.113 15.668h3.887v-2.332z" fill="#fff"/><path d="m36 20.332v-2.332h-3.887l-26.113 15.668v2.332h3.887z" fill="#fff"/><path d="m6 24h30v6h-30z" fill="#fff"/><path d="m18 18h6v18h-6z" fill="#fff"/><g fill="#d22f27"><path d="m20 18h2v18h-2z"/><path d="m6 26h30v2h-30z"/><path d="m36 33.668-6.113-3.668h-3.887l10 6v-.001z"/><path d="m36 18h-3.887l-8.113 4.868v1.132h2.001l9.999-5.999z"/><path d="m6 20.332 6.113 3.668h3.888l-10-6-.001.001z"/><path d="m6 36h3.887l8.113-4.868v-1.132h-2l-10 5.999z"/></g><path d="m52.594 27.262 1.723-1.325-2.093.052-.599-2.061-.694 2.093-2.092.051 1.663 1.242-.695 2.092 1.723-1.325 1.663 1.242z" fill="none" stroke="#fff" stroke-linecap="round" stroke-linejoin="round"/><path d="m52.594 45.262 1.723-1.325-2.093.052-.599-2.061-.694 2.093-2.092.051 1.663 1.242-.695 2.092 1.723-1.325 1.663 1.242z" fill="none" stroke="#fff" stroke-linecap="round" stroke-linejoin="round"/><path d="m60.594 32.262 1.723-1.325-2.093.052-.599-2.061-.694 2.093-2.092.051 1.663 1.242-.695 2.092 1.723-1.325 1.663 1.242z" fill="none" stroke="#fff" stroke-linecap="round" stroke-linejoin="round"/><path d="m45.594 34.262 1.723-1.325-2.093.052-.599-2.061-.694 2.093-2.092.051 1.663 1.242-.695 2.092 1.723-1.325 1.663 1.242z" fill="none" stroke="#fff" stroke-linecap="round" stroke-linejoin="round"/><path d="m52.505 27.211 1.573-1.21-1.91.047-.547-1.881-.634 1.91-1.909.047 1.518 1.133-.634 1.91 1.572-1.209 1.518 1.133z" fill="#d22f27"/><path d="m52.505 45.211 1.573-1.21-1.91.047-.547-1.881-.634 1.91-1.909.047 1.518 1.133-.634 1.91 1.572-1.209 1.518 1.133z" fill="#d22f27"/><path d="m60.505 32.211 1.573-1.21-1.91.047-.547-1.881-.634 1.91-1.909.047 1.518 1.133-.634 1.91 1.572-1.209 1.518 1.133z" fill="#d22f27"/><path d="m45.505 34.211 1.573-1.21-1.91.047-.547-1.881-.634 1.91-1.909.047 1.518 1.133-.634 1.91 1.572-1.209 1.518 1.133z" fill="#d22f27"/><path d="m5 17h62v38h-62z" fill="none" stroke="#000" stroke-linecap="round" stroke-linejoin="round" stroke-width="2"/></svg>