<svg viewBox="0 0 72 72" xmlns="http://www.w3.org/2000/svg"><path d="m5 17h62v38h-62z" fill="#fff"/><path d="m5 17h62v9h-62z" fill="#d22f27"/><path d="m5 46h62v9h-62z" fill="#d22f27"/><g stroke-linejoin="round"><path d="m42 36a7 7 0 0 1 -14 0" fill="#92d3f5" stroke="#92d3f5" stroke-width=".9333"/><path d="m28 36a7 7 0 0 1 14 0" fill="#f4aa41" stroke="#f4aa41" stroke-width=".9333"/><path d="m36.5417 31s-3.1667 0-3.1667 2.1111v3.1667l3.1667 1.5833v-4.2222s-2.1111-.5278 0-2.6389z" fill="#d22f27" stroke="#d22f27"/><path d="m33 39.5794s-1.0445.6963-1.7408 0l.05-4.8191" fill="none" stroke="#d22f27" stroke-linecap="round"/><path d="m37.2592 39.5794s1.0445.6963 1.7408 0l-.05-4.8194" fill="none" stroke="#d22f27" stroke-linecap="round"/><path d="m5 17h62v38h-62z" fill="none" stroke="#000" stroke-linecap="round" stroke-width="2"/></g></svg>