<svg viewBox="0 0 72 72" xmlns="http://www.w3.org/2000/svg"><path d="m5 17h62v38h-62z" fill="#d22f27"/><path d="m5 55v-38l62 38z"/><g stroke-linecap="round" stroke-linejoin="round" stroke-width="2"><circle cx="19" cy="50" fill="#fff" r="1" stroke="#fff"/><circle cx="19" cy="32" fill="#fff" r="1" stroke="#fff"/><circle cx="12" cy="40" fill="#fff" r="1" stroke="#fff"/><circle cx="26" cy="40" fill="#fff" r="1" stroke="#fff"/><circle cx="21.5" cy="44.5" fill="#fff" r=".5" stroke="#fff"/><path d="m42 25c9 1 15 6.0874 15 11a5.166 5.166 0 0 1 -3 5" fill="none" stroke="#f1b31c"/><path d="m50 21c-1.75.6584-3.1544 3.5714-1.9 5l1.9 1z" fill="#f1b31c" stroke="#f1b31c"/><path d="m50 27c5-3 9 0 9 3h-5z" fill="#f1b31c" stroke="#f1b31c"/><path d="m44.81 31.19c-.81-3.19 1.19-5.19 3-4.9l2 .9z" fill="#f1b31c" stroke="#f1b31c"/><path d="m49.81 27.19c-.81 3.81-1 8 2 8l2-5z" fill="#f1b31c" stroke="#f1b31c"/><path d="m5 17h62v38h-62z" fill="none" stroke="#000"/></g></svg>