<svg viewBox="0 0 72 72" xmlns="http://www.w3.org/2000/svg"><path d="m5 17h62v38h-62z" fill="#1e50a0"/><path d="m5 36h62v19h-62z" fill="#d22f27"/><path d="m37 36-32 19v-38z" fill="#fff"/><g fill="#f1b31c"><circle cx="8" cy="21" r="1.0435"/><circle cx="33" cy="36" r="1.0435"/><circle cx="8" cy="51" r="1.0435"/><path d="m17.907 35.086 2.133-1.496-1.606 2.052 2.566.45-2.586.315 1.496 2.133-2.051-1.606-.451 2.566-.315-2.586-2.133 1.496 1.606-2.051-2.566-.451 2.586-.315-1.496-2.133 2.052 1.606.45-2.566z" stroke="#f1b31c" stroke-linecap="round" stroke-linejoin="round"/></g><path d="m5 17h62v38h-62z" fill="none" stroke="#000" stroke-linecap="round" stroke-linejoin="round" stroke-width="2"/></svg>