<svg viewBox="0 0 72 72" xmlns="http://www.w3.org/2000/svg"><path d="m5 17h19v13h-19z" fill="#d22f27"/><path d="m6 30 18-12" fill="none" stroke="#5c9e31" stroke-miterlimit="10" stroke-width="2"/><path d="m6 18 18 12" fill="none" stroke="#5c9e31" stroke-miterlimit="10" stroke-width="2"/><path d="m15 30v-12" stroke="#fff" stroke-miterlimit="10" stroke-width="2"/><path d="m6 24h18" stroke="#fff" stroke-miterlimit="10" stroke-width="2"/><path d="m24 17h43v38h-43z" fill="#61b2e4"/><path d="m5 30h19v12h-19z" fill="#fff"/><path d="m36 35c0 3 4 5 7 5s11-1 15-9h2c0 4-3 11-6 13h-17l-8-9z" fill="#f1b31c" stroke="#f1b31c" stroke-linecap="round" stroke-linejoin="round" stroke-width="2"/><path d="m24 46c3 0 3-2 6-2s3 2 6 2" fill="none" stroke="#fff" stroke-linecap="round" stroke-linejoin="round" stroke-width="2"/><path d="m36 46c3 0 3-2 6-2s3 2 6 2" fill="none" stroke="#fff" stroke-linecap="round" stroke-linejoin="round" stroke-width="2"/><path d="m48 46c3 0 3-2 6-2s3 2 6 2" fill="none" stroke="#fff" stroke-linecap="round" stroke-linejoin="round" stroke-width="2"/><path d="m60 46c3 0 3-2 6-2" fill="none" stroke="#fff" stroke-linecap="round" stroke-linejoin="round" stroke-width="2"/><path d="m5 42h19v13h-19z" fill="#d22f27"/><g stroke-width="2"><path d="m10 46h10" fill="none" stroke="#f1b31c" stroke-linecap="round" stroke-linejoin="round"/><path d="m10 50h10" fill="none" stroke="#f1b31c" stroke-linecap="round" stroke-linejoin="round"/><path d="m47 24c-2 4-3 10-2 12l-4-1c0-5 2-9 5-11z" fill="#f1b31c" stroke="#f1b31c" stroke-linecap="round" stroke-linejoin="round"/><path d="m55 24c-2 4-3 10-2 12l-4-1c0-5 2-9 5-11z" fill="#f1b31c" stroke="#f1b31c" stroke-linecap="round" stroke-linejoin="round"/><path d="m33.4213 30.1053a10.2782 10.2782 0 0 1 4.5787-6.1053h1a25.06 25.06 0 0 0 -2.1591 6.96z" fill="#f1b31c" stroke="#f1b31c" stroke-linecap="round" stroke-linejoin="round"/><path d="m5 17h62v38h-62z" fill="none" stroke="#000" stroke-linecap="round" stroke-linejoin="round"/></g></svg>