<svg viewBox="0 0 72 72" xmlns="http://www.w3.org/2000/svg"><path d="m5 17h62v38h-62z" fill="#1e50a0"/><path d="m9.887 18h-3.887v2.332l26.113 15.668h3.887v-2.332z" fill="#fff"/><path d="m36 20.332v-2.332h-3.887l-26.113 15.668v2.332h3.887z" fill="#fff"/><path d="m6 24h30v6h-30z" fill="#fff"/><path d="m18 18h6v18h-6z" fill="#fff"/><path d="m20 18h2v18h-2z" fill="#d22f27"/><path d="m6 26h30v2h-30z" fill="#d22f27"/><path d="m36 33.668-6.113-3.668h-3.887l10 6v-.001z" fill="#d22f27"/><path d="m36 18h-3.887l-8.113 4.868v1.132h2.001l9.999-5.999z" fill="#d22f27"/><path d="m6 20.332 6.113 3.668h3.888l-10-6-.001.001z" fill="#d22f27"/><path d="m6 36h3.887l8.113-4.868v-1.132h-2l-10 5.999z" fill="#d22f27"/><g stroke-linecap="round" stroke-linejoin="round" stroke-width="2"><path d="m48 30 5-5" fill="#9b9b9a" stroke="#9b9b9a"/><path d="m58 29c3.0744 4.7618-.8014 9.1557-4 10" fill="none" stroke="#fcea2b"/><path d="m55.8318 39.9548c2 2 2.9548 6.2551.1682 10.0452" fill="none" stroke="#fcea2b"/><path d="m53 38.5q6 0 9 3" fill="none" stroke="#5c9e31"/><path d="m44 29c-3.0744 4.7618.8014 9.1557 4 10" fill="none" stroke="#fcea2b"/><path d="m46.1682 39.9548c-2 2-2.9548 6.2551-.1682 10.0452" fill="none" stroke="#fcea2b"/><path d="m49 38.5q-6 0-9 3" fill="none" stroke="#5c9e31"/><path d="m50 36v-8l1-1 3 9" fill="#9b9b9a" stroke="#9b9b9a"/><path d="m55 35v3.625c0 5.625-1.3333 8.125-4 9.375-2.6667-1.25-4-3.75-4-9.375v-3.625z" fill="#61b2e4" stroke="#61b2e4"/><path d="m5 17h62v38h-62z" fill="none" stroke="#000"/></g></svg>