<svg viewBox="0 0 72 72" xmlns="http://www.w3.org/2000/svg"><path d="m5 17h62v38h-62z" fill="#d22f27"/><path d="m5 17h21v38h-21z" fill="#5c9e31"/><circle cx="26" cy="36" fill="none" r="12" stroke="#fcea2b" stroke-miterlimit="10" stroke-width="2"/><g stroke-linecap="round" stroke-linejoin="round"><path d="m26 24v24" fill="none" stroke="#fcea2b"/><path d="m26 39.5-9 4.5h18z" fill="none" stroke="#fcea2b"/><path d="m26 33.5 9-5.5-8.5 1.5-9.5-1.5z" fill="none" stroke="#fcea2b"/><path d="m38 36-12 5-12-5 12-5z" fill="none" stroke="#fcea2b"/><path d="m20.2 29h11.6v10.1c0 2.5-2.6 4.6-5.8 4.6-3.2 0-5.8-2.1-5.8-4.6z" fill="#fff" stroke="#d22f27" stroke-width="2"/><circle cx="26" cy="32.8" fill="#1e50a0" r=".7" stroke="#1e50a0"/><circle cx="26" cy="38.7" fill="#1e50a0" r=".7" stroke="#1e50a0"/><circle cx="26" cy="35.7" fill="#1e50a0" r=".7" stroke="#1e50a0"/><circle cx="29" cy="35.7" fill="#1e50a0" r=".7" stroke="#1e50a0"/><circle cx="23" cy="35.7" fill="#1e50a0" r=".7" stroke="#1e50a0"/><path d="m5 17h62v38h-62z" fill="none" stroke="#000" stroke-width="2"/></g></svg>