<svg viewBox="0 0 72 72" xmlns="http://www.w3.org/2000/svg"><path d="m5 17h62v38h-62z" fill="#fff"/><path d="m5 17h62v13h-62z" fill="#d22f27"/><path d="m5 30h62v12h-62z" fill="#1e50a0"/><g stroke-width="2"><circle cx="27" cy="40" fill="#fff" r="7" stroke="#d22f27" stroke-miterlimit="10"/><path d="m34 40v-11h-14v11" fill="#fff" stroke="#d22f27" stroke-miterlimit="10"/><path d="m22 44 12-14" fill="none" stroke="#d22f27" stroke-linecap="round" stroke-miterlimit="10"/><path d="m32 44-12-14" fill="none" stroke="#d22f27" stroke-linecap="round" stroke-miterlimit="10"/><path d="m27 33v10" fill="none" stroke="#fff" stroke-miterlimit="10"/><path d="m22 38h10" fill="none" stroke="#fff" stroke-miterlimit="10"/><path d="m27 23c-3.1257.623-5 1.6-4 4h8c1-2.4-.8743-3.377-4-4z" fill="none" stroke="#fcea2b" stroke-linecap="round" stroke-linejoin="round"/><path d="m27 21.0488v1.9512" fill="none" stroke="#fcea2b" stroke-linecap="round" stroke-linejoin="round"/><path d="m5 17h62v38h-62z" fill="none" stroke="#000" stroke-linecap="round" stroke-linejoin="round"/></g></svg>