<svg viewBox="0 0 72 72" xmlns="http://www.w3.org/2000/svg"><path d="m5 17h62v38h-62z" fill="#61b2e4"/><path d="m5 36h62v9h-62z" fill="#fcea2b"/><path d="m5 45h62v10h-62z" fill="#5c9e31"/><g stroke-linecap="round" stroke-linejoin="round"><path d="m56.296 24.896 1.704-2.36-1.192 2.656 2.656-1.192-2.36 1.704 2.896.296-2.896.296 2.36 1.704-2.656-1.192 1.192 2.656-1.704-2.36-.296 2.896-.296-2.896-1.704 2.36 1.192-2.656-2.656 1.192 2.36-1.704-2.896-.296 2.896-.296-2.36-1.704 2.656 1.192-1.192-2.656 1.704 2.36.296-2.896z" fill="#fcea2b" stroke="#fcea2b"/><path d="m5 17h62v38h-62z" fill="none" stroke="#000" stroke-width="2"/></g></svg>