<svg viewBox="0 0 72 72" xmlns="http://www.w3.org/2000/svg"><path d="m5 17h62v38h-62z" fill="#5c9e31"/><path d="m5 17v38l62-38z" fill="#1e50a0"/><path d="m67 21v-4h-5l-57 34v4h5z" fill="#fcea2b"/><g stroke-linecap="round" stroke-linejoin="round"><path d="m9.384 25.5 1.66-5 1.431 4.923-3.975-2.966 5-.124z" fill="#fff" stroke="#fff"/><path d="m21.384 25.5 1.66-5 1.431 4.923-3.975-2.966 5-.124z" fill="#fff" stroke="#fff"/><path d="m9.384 35.5 1.66-5 1.431 4.923-3.975-2.966 5-.124z" fill="#fff" stroke="#fff"/><path d="m15.384 30.5 1.66-5 1.431 4.923-3.975-2.966 5-.124z" fill="#fff" stroke="#fff"/><path d="m21.384 35.5 1.66-5 1.431 4.923-3.975-2.966 5-.124z" fill="#fff" stroke="#fff"/><path d="m5 17h62v38h-62z" fill="none" stroke="#000" stroke-width="2"/></g></svg>