<svg viewBox="0 0 72 72" xmlns="http://www.w3.org/2000/svg"><path d="m5 17h62v38h-62z" fill="#d22f27"/><g fill="#fff"><path d="m5 36h62v19h-62z"/><circle cx="20" cy="22" r="1"/><circle cx="18" cy="27" r="1"/><circle cx="22" cy="27" r="1"/><circle cx="17" cy="24" r="1"/><circle cx="23" cy="24" r="1"/><path d="m11.1987 24.9227a4.873 4.873 0 0 1 3.8013-4.8287 4.539 4.539 0 0 0 -.9123-.094 4.9273 4.9273 0 0 0 0 9.8454 4.539 4.539 0 0 0 .9123-.094 4.873 4.873 0 0 1 -3.8013-4.8287z" stroke="#fff" stroke-linecap="round" stroke-linejoin="round"/></g><path d="m5 17h62v38h-62z" fill="none" stroke="#000" stroke-linecap="round" stroke-linejoin="round" stroke-width="2"/></svg>