<svg viewBox="0 0 72 72" xmlns="http://www.w3.org/2000/svg"><path d="m5 17h62v38h-62z" fill="#d22f27"/><path d="m5 17h62v13h-62z" fill="#fff"/><path d="m5 30h62v12h-62z" fill="#1e50a0"/><path d="m22.5833 22v9c0 6.75-6.75 9-6.75 9s-6.75-2.25-6.75-9v-9s6.8959-3.4063 13.5 0z" fill="#1e50a0" stroke="#000" stroke-linecap="round" stroke-linejoin="round"/><path d="m11.9626 33.3515 7.9755.3394a6.8155 6.8155 0 0 1 -3.9381 4.3091c-3 1-4.0374-4.6485-4.0374-4.6485" fill="#fff" stroke="#fff" stroke-miterlimit="10"/><path d="m14.5 33.5 1-2 2.265 2.584z" fill="#fff" stroke="#fff" stroke-miterlimit="10"/><circle cx="13" cy="24" fill="#fcea2b" r="1"/><path d="m21 35-1-3-2 3-2-5-2 5-2-3-1 3s4 9 10 0z" fill="none" stroke="#fff" stroke-linecap="round" stroke-linejoin="round" stroke-width="2"/><circle cx="16" cy="26" fill="#fcea2b" r="1"/><circle cx="19" cy="24" fill="#fcea2b" r="1"/><g fill="none" stroke-linecap="round" stroke-linejoin="round"><path d="m22.5833 22v9c0 6.75-6.75 9-6.75 9s-6.75-2.25-6.75-9v-9s6.8959-3.4063 13.5 0z" stroke="#d22f27"/><path d="m5 17h62v38h-62z" stroke="#000" stroke-width="2"/></g></svg>