<svg viewBox="0 0 72 72" xmlns="http://www.w3.org/2000/svg"><path d="m5 17h62v38h-62z" fill="#d22f27"/><path d="m5 17h62v13h-62z" fill="#fff"/><path d="m5 30h62v12h-62z" fill="#1e50a0"/><g stroke="#fff"><path d="m23.8334 45s6.75-2.25 6.75-9v-9h-13.5v9c0 6.75 6.75 9 6.75 9z" fill="#d22f27" stroke-linecap="round" stroke-linejoin="round"/><path d="m23.8334 29.5v12" fill="none" stroke-linecap="round" stroke-linejoin="round" stroke-width="2"/><path d="m21.8334 31.5h4" fill="none" stroke-linecap="round" stroke-linejoin="round" stroke-width="2"/><path d="m20.3334 34.5h7" fill="none" stroke-linecap="round" stroke-linejoin="round" stroke-width="2"/></g><circle cx="23.8334" cy="41.5" fill="#1e50a0" r="3.1667"/><path d="m19.25 39.3333a2.1457 2.1457 0 0 0 -1.3265.465 9.5792 9.5792 0 0 0 2.7022 3.3628 2.158 2.158 0 0 0 -1.3757-3.8278z" fill="#1e50a0"/><path d="m28.4167 39.3333a2.158 2.158 0 0 0 -1.3757 3.8278 9.5792 9.5792 0 0 0 2.7022-3.3628 2.1455 2.1455 0 0 0 -1.3265-.465z" fill="#1e50a0"/><path d="m23.8334 45s6.75-2.25 6.75-9v-9h-13.5v9c0 6.75 6.75 9 6.75 9z" fill="none" stroke="#fff" stroke-linecap="round" stroke-linejoin="round"/><path d="m5 17h62v38h-62z" fill="none" stroke="#000" stroke-linecap="round" stroke-linejoin="round" stroke-width="2"/></svg>