<svg viewBox="0 0 72 72" xmlns="http://www.w3.org/2000/svg"><path d="m5 17h62v38h-62z" fill="#fff"/><path d="m5 36h62v19h-62z" fill="#61b2e4"/><path d="m41 31a7.191 7.191 0 0 1 2 5 10.0442 10.0442 0 0 1 -7 10 10.0442 10.0442 0 0 1 -7-10 7.191 7.191 0 0 1 2-5" fill="#61b2e4"/><path d="m41 31a7.191 7.191 0 0 1 2 5 10.0442 10.0442 0 0 1 -7 10 10.0442 10.0442 0 0 1 -7-10 7.191 7.191 0 0 1 2-5" fill="#61b2e4"/><path d="m36 22v8" fill="#fcea2b" stroke="#f1b31c" stroke-linecap="round" stroke-linejoin="round" stroke-width="2"/><path d="m36 28a3 3 0 0 1 3-3c1.6569 0 4.1391 1.4725 2 6h-10c-2.1391-4.5275.3431-6 2-6a3 3 0 0 1 3 3" fill="none" stroke="#f1b31c" stroke-linecap="round" stroke-linejoin="round" stroke-width="2"/><path d="m36 35v6" fill="none" stroke="#6a462f" stroke-linecap="round" stroke-linejoin="round" stroke-width="2"/><path d="m29.6694 40a10.0342 10.0342 0 0 0 6.3306 6 10.0342 10.0342 0 0 0 6.3306-6z" fill="#5c9e31"/><g stroke-linecap="round" stroke-linejoin="round" stroke-width="2"><path d="m41 31a7.191 7.191 0 0 1 2 5 10.0442 10.0442 0 0 1 -7 10 10.0442 10.0442 0 0 1 -7-10 7.191 7.191 0 0 1 2-5" fill="none" stroke="#f1b31c"/><path d="m41 47c3.3484-1.7381 6-6.2282 6-11a12.9874 12.9874 0 0 0 -1.066-5" fill="none" stroke="#186648"/><path d="m31 47c-3.3484-1.7381-6-6.2282-6-11a12.9874 12.9874 0 0 1 1.066-5" fill="none" stroke="#186648"/><path d="m43 49-2-2h-10l-2 2" fill="none" stroke="#fff"/><path d="m5 17h62v38h-62z" fill="none" stroke="#000"/></g></svg>