<svg viewBox="0 0 72 72" xmlns="http://www.w3.org/2000/svg"><path d="m5 17h62v38h-62z" fill="#d22f27"/><path d="m5 36h62v19h-62z" fill="#1e50a0"/><path d="m26 36-21 19v-38z" fill="#fff"/><g stroke-linecap="round" stroke-linejoin="round"><circle cx="13" cy="31" fill="#fcea2b" r="2.5" stroke="#fcea2b"/><path d="m18 31.7758v4.6121c0 3.4591-4.9583 4.6121-4.9583 4.6121s-4.9584-1.153-4.9584-4.6121v-4.6121a16.6778 16.6778 0 0 1 9.9167 0z" fill="#92d3f5" stroke="#d22f27"/><path d="m19 39c0 1.933-2.6863 3.5-6 3.5s-6-1.567-6-3.5" fill="none" stroke="#fcea2b"/><path d="m11 34h4v3h-4z" fill="#fff" stroke="#fff" stroke-width="2"/><path d="m5 17h62v38h-62z" fill="none" stroke="#000" stroke-width="2"/></g></svg>