<svg viewBox="0 0 72 72" xmlns="http://www.w3.org/2000/svg"><path d="m5 17h62v38h-62z" fill="#d22f27"/><path d="m5 48h62v7h-62z" fill="#1e50a0" stroke="#f1b31c" stroke-miterlimit="10"/><path d="m5 17h62v7h-62z" fill="#1e50a0" stroke="#f1b31c" stroke-miterlimit="10"/><path d="m19.3616 28.9275h36.8013" fill="none" stroke="#fcea2b" stroke-linecap="round" stroke-linejoin="round" stroke-width=".9681"/><path d="m16.0161 33.1094h36.8012" fill="none" stroke="#fcea2b" stroke-linecap="round" stroke-linejoin="round" stroke-width=".9681"/><path d="m11.6763 36.4783h48.8264" fill="none" stroke="#fcea2b" stroke-linecap="round" stroke-linejoin="round" stroke-width=".9246"/><path d="m48.6477 32.309a17.8474 17.8474 0 0 0 -25.2386 0l-3.9549 3.9544a.3035.3035 0 0 0 0 .4293l3.9549 3.9544a17.8474 17.8474 0 0 0 25.2386 0l3.9549-3.9544a.3035.3035 0 0 0 0-.4293z"/><path d="m36.09 45.6893a.3112.3112 0 0 0 .3118.3107 17.4822 17.4822 0 0 0 12.1535-5.1379l4.1695-4.169a.3036.3036 0 0 0 0-.4293l-4.1695-4.169a17.4813 17.4813 0 0 0 -12.1535-5.1382.3111.3111 0 0 0 -.3123.3106z" fill="#fff"/><g stroke-linecap="round" stroke-linejoin="round"><path d="m23.8897 34.3001h9.6806" fill="none" stroke="#fff" stroke-width="1.9361"/><path d="m23.8897 38.6564h9.6806" fill="none" stroke="#fff" stroke-width="1.9361"/><path d="m38.4106 34.3001h9.6805" fill="none" stroke="#000" stroke-width="1.9361"/><path d="m38.4106 38.6564h9.6805" fill="none" stroke="#000" stroke-width="1.9361"/><circle cx="31.1189" cy="30.6452" fill="#1e50a0" r="2.9042" stroke="#000" stroke-width=".9681"/><circle cx="12.7661" cy="38.2922" fill="#1e50a0" r="2.9042" stroke="#000" stroke-width=".9681"/><circle cx="60.1776" cy="38.2922" fill="#1e50a0" r="2.9042" stroke="#000" stroke-width=".9681"/><path d="m5 17h62v38h-62z" fill="none" stroke="#000" stroke-width="2"/></g></svg>