<svg viewBox="0 0 72 72" xmlns="http://www.w3.org/2000/svg"><path d="m5 17h62v38h-62z" fill="#1e50a0"/><path d="m9.887 18h-3.887v2.332l26.113 15.668h3.887v-2.332z" fill="#fff"/><path d="m36 20.332v-2.332h-3.887l-26.113 15.668v2.332h3.887z" fill="#fff"/><path d="m6 24h30v6h-30z" fill="#fff"/><path d="m18 18h6v18h-6z" fill="#fff"/><path d="m20 18h2v18h-2z" fill="#d22f27"/><path d="m6 26h30v2h-30z" fill="#d22f27"/><path d="m36 33.668-6.113-3.668h-3.887l10 6v-.001z" fill="#d22f27"/><path d="m36 18h-3.887l-8.113 4.868v1.132h2.001l9.999-5.999z" fill="#d22f27"/><path d="m6 20.332 6.113 3.668h3.888l-10-6-.001.001z" fill="#d22f27"/><path d="m6 36h3.887l8.113-4.868v-1.132h-2l-10 5.999z" fill="#d22f27"/><path d="m59.5 30h-.2771c.0939.0307.1839.0693.2771.1014z" fill="#3f3f3f"/><path d="m46.5 30v.1014c.0932-.0321.1832-.0707.2771-.1014z" fill="#3f3f3f"/><path d="m53 29a19.9562 19.9562 0 0 0 -6.2229 1h12.4458a19.9562 19.9562 0 0 0 -6.2229-1z" fill="#fcea2b"/><path d="m59.5 35.5v-5.3986c-.0932-.0321-.1832-.0707-.2771-.1014h-12.4458c-.0939.0307-.1839.0693-.2771.1014v5.3986z" fill="#fcea2b"/><path d="m45.9556 35.81 13.5444.0535s1.5 9.1365-6.5 12.1365" fill="#92d3f5"/><path d="m45.9556 35.81s-.9556 10.19 7.0444 12.19" fill="#92d3f5"/><g stroke-linecap="round" stroke-linejoin="round"><path d="m57 43.9188c-2.4-1.5567-8 0-8 0l4 4.0812z" fill="#1e50a0" stroke="#1e50a0" stroke-width="2"/><path d="m47 38 3 4v3" fill="none" stroke="#a57939" stroke-width="2"/><ellipse cx="47.8576" cy="41.5894" fill="none" rx=".5" ry="2.6466" stroke="#a57939" stroke-width="2" transform="matrix(.950136 -.31183581 .31183581 .950136 -10.5827 16.9976)"/><path d="m54 33h-2l-1-2z" fill="#f4aa41" stroke="#a57939" stroke-width="2"/><path d="m56 42h-3a2.8222 2.8222 0 0 0 3 0z" fill="none" stroke="#f4aa41" stroke-width="2"/><path d="m59.5833 30v9c0 6.75-6.75 9-6.75 9s-6.75-2.25-6.75-9v-9s6.8959-3.4063 13.5 0z" fill="none" stroke="#000"/><path d="m59.5 35.5h-13" fill="none" stroke="#000"/><path d="m5 17h62v38h-62z" fill="none" stroke="#000" stroke-width="2"/></g></svg>