<svg viewBox="0 0 72 72" xmlns="http://www.w3.org/2000/svg"><path d="m5 17h62v38h-62z" fill="#1e50a0"/><path d="m9.887 18h-3.887v2.332l26.113 15.668h3.887v-2.332z" fill="#fff"/><path d="m36 20.332v-2.332h-3.887l-26.113 15.668v2.332h3.887z" fill="#fff"/><path d="m6 24h30v6h-30z" fill="#fff"/><path d="m18 18h6v18h-6z" fill="#fff"/><g fill="#d22f27"><path d="m20 18h2v18h-2z"/><path d="m6 26h30v2h-30z"/><path d="m36 33.668-6.113-3.668h-3.887l10 6v-.001z"/><path d="m36 18h-3.887l-8.113 4.868v1.132h2.001l9.999-5.999z"/><path d="m6 20.332 6.113 3.668h3.888l-10-6-.001.001z"/><path d="m6 36h3.887l8.113-4.868v-1.132h-2l-10 5.999z"/></g><path d="m60.73 29.0911h-16.1122s-1.0053 14.0906 8.0395 18.1475v.0165l.0167-.0082.0167.0082v-.0165c9.0449-4.0569 8.0393-18.1475 8.0393-18.1475z" fill="#f1b31c" stroke="#fff" stroke-linecap="round" stroke-linejoin="round" stroke-width="1.0091"/><path d="m49.777 42.7141s0-5.0455 3.0273-5.0455 3.0274 5.0455 3.0274 5.0455-3.0274 3.0274-6.0547 0z" fill="#5c9e31"/><circle cx="52.8043" cy="37.6686" fill="#d22f27" r="1.0091" stroke="#d22f27" stroke-miterlimit="10" stroke-width="1.0091"/><ellipse cx="47.8891" cy="33.506" fill="#f4aa41" rx="1.5137" ry="2.6489" transform="matrix(.9056665 -.42399078 .42399078 .9056665 -9.6887 23.4653)"/><ellipse cx="48.8982" cy="33.506" fill="#ffa7c0" rx="1.5137" ry="2.6489"/><ellipse cx="56.9711" cy="33.506" fill="#a57939" rx="1.5137" ry="2.6489"/><path d="m5 17h62v38h-62z" fill="none" stroke="#000" stroke-linecap="round" stroke-linejoin="round" stroke-width="2"/></svg>