<svg viewBox="0 0 72 72" xmlns="http://www.w3.org/2000/svg"><path d="m5 17h62v38h-62z" fill="#1e50a0"/><g fill="#fff"><circle cx="46.8595" cy="38.8723" r=".5035" stroke="#fff" stroke-miterlimit="10" stroke-width="1.007"/><circle cx="58.9438" cy="38.8723" r=".5035" stroke="#fff" stroke-miterlimit="10" stroke-width="1.007"/><circle cx="56.9298" cy="47.9356" r=".5035" stroke="#fff" stroke-miterlimit="10" stroke-width="1.007"/><circle cx="48.8736" cy="47.9356" r=".5035" stroke="#fff" stroke-miterlimit="10" stroke-width="1.007"/><circle cx="52.9017" cy="49.9496" r=".5035" stroke="#fff" stroke-miterlimit="10" stroke-width="1.007"/><path d="m58.4616 45.4768-2.5193-4.3636a.8383.8383 0 0 0 -1.1788 0l-1.0191 1.7649v-2.8892h1.05a.6653.6653 0 0 0 .6652-.6653v-.3843a.6653.6653 0 0 0 -.6652-.6653h-1.05v-1.7149h2.7056a.7248.7248 0 0 0 .7247-.7247v-.2655a.7248.7248 0 0 0 -.7247-.7247h-7.125a.7248.7248 0 0 0 -.7247.7247v.2655a.7248.7248 0 0 0 .7247.7247h2.705v6.61l-1.1872-2.0561a.8381.8381 0 0 0 -1.1787 0l-2.5194 4.3636a.5336.5336 0 0 0 .1953.7289l.1932.1116a.5338.5338 0 0 0 .7291-.1953l.5777-1.0018h2.826l.5783 1.0019a.7441.7441 0 0 0 1.1173 0l.5784-1.0019h2.8256l.5786 1.0019a.5335.5335 0 0 0 .7289.1953l.193-.1116a.5335.5335 0 0 0 .1955-.7288zm-8.8764-1.6468.6679-1.1567.6678 1.1567zm5.1 0 .668-1.1567.668 1.1567z"/></g><path d="m36.5 17.5v19h-31" fill="none" stroke="#fff" stroke-linecap="round" stroke-linejoin="round"/><path d="m5 17h11v19h-11z" fill="#1e50a0"/><path d="m16 17h10v19h-10z" fill="#fff"/><path d="m26 17h10v19h-10z" fill="#d22f27"/><path d="m5 17h62v38h-62z" fill="none" stroke="#000" stroke-linecap="round" stroke-linejoin="round" stroke-width="2"/></svg>