<svg viewBox="0 0 72 72" xmlns="http://www.w3.org/2000/svg"><path d="m5 17h62v38h-62z" fill="#1e50a0"/><g stroke-linecap="round" stroke-linejoin="round"><path d="m19.75 21.972 1.236 4-3.236-2.472h4l-3.236 2.472z" fill="#fff" stroke="#fff"/><path d="m19.75 35.972 1.236 4-3.236-2.472h4l-3.236 2.472z" fill="#fff" stroke="#fff"/><path d="m12.5 27.972 1.236 4-3.236-2.472h4l-3.236 2.472z" fill="#fff" stroke="#fff"/><path d="m26.5 26.972.927 3-2.427-1.854h3l-2.427 1.854z" fill="#fff" stroke="#fff"/><path d="m56.4964 22.0042-33.9964 24.9958h32l2-.0008c-2.1713-3.7-5.4086-7.9629-5.4086-12.5009 0-4.5349 3.2359-8.7957 5.405-12.4941z" fill="#f1b31c" stroke="#f1b31c" stroke-width="2"/><path d="m22.5 50h36" fill="none" stroke="#f1b31c" stroke-width="2"/><path d="m5 17h62v38h-62z" fill="none" stroke="#000" stroke-width="2"/></g></svg>