<svg viewBox="0 0 72 72" xmlns="http://www.w3.org/2000/svg"><path d="m5 17h62v38h-62z" fill="#186648"/><path d="m8.1715 17h14.9278v38h-14.9278z" fill="#d22f27"/><path d="m18.624 17h-5.966l-4.487 4.216 7.47 7.018 7.469-7.018z" fill="#781e32"/><path d="m17.114 19.628h-2.947l-1.474 1.588 1.474 1.588h2.947l1.474-1.588z" fill="#f1b31c"/><path d="m15.641 38.16-7.47-7.018 7.47-7.019 7.469 7.019z" fill="#781e32"/><path d="m17.114 29.554h-2.947l-1.474 1.588 1.474 1.588h2.947l1.474-1.588z" fill="#f1b31c"/><path d="m15.641 48.086-7.47-7.019 7.47-7.018 7.469 7.018z" fill="#781e32"/><path d="m17.114 39.479h-2.947l-1.474 1.588 1.474 1.588h2.947l1.474-1.588z" fill="#f1b31c"/><path d="m18.846 55 4.264-4.007-7.469-7.018-7.47 7.018 4.264 4.007z" fill="#781e32"/><path d="m17.114 49.405h-2.947l-1.474 1.588 1.474 1.588h2.947l1.474-1.588z" fill="#f1b31c"/><g fill="#fff"><path d="m37.4927 21.8329a7.7649 7.7649 0 0 1 -6.8143 13.66 7.77 7.77 0 1 0 6.8143-13.66z" stroke="#fff" stroke-linecap="round" stroke-linejoin="round" stroke-width=".9952"/><circle cx="32.7629" cy="23.0551" r=".7385"/><circle cx="32.7629" cy="26.0091" r=".7385"/><circle cx="29.8089" cy="26.0091" r=".7385"/><circle cx="35.717" cy="26.0091" r=".7385"/><circle cx="32.7629" cy="28.9631" r=".7385"/></g><path d="m5 17h62v38h-62z" fill="none" stroke="#000" stroke-linecap="round" stroke-linejoin="round" stroke-width="2"/></svg>