<svg viewBox="0 0 72 72" xmlns="http://www.w3.org/2000/svg"><path d="m5 17h62v38h-62z" fill="#92d3f5"/><g fill="#f1b31c" stroke="#f1b31c"><path d="m58.707 25 1.328-4 1.145 3.939-3.18-2.374 4-.098z" stroke-linecap="round" stroke-linejoin="round"/><path d="m58.707 41 1.328-4 1.145 3.939-3.18-2.374 4-.098z" stroke-linecap="round" stroke-linejoin="round"/><path d="m51.709 45 1.328-4 1.144 3.939-3.179-2.374 4-.098z" stroke-linecap="round" stroke-linejoin="round"/><path d="m26.709 52 1.328-4 1.144 3.939-3.179-2.374 4-.098z" stroke-linecap="round" stroke-linejoin="round"/><path d="m47.294 45-1.327 4-1.145-3.939 3.18 2.374-4 .098z" stroke-linecap="round" stroke-linejoin="round"/><path d="m37.294 46-1.327 4-1.145-3.939 3.18 2.374-4 .098z" stroke-linecap="round" stroke-linejoin="round"/><path d="m37.294 39-1.327 4-1.145-3.939 3.18 2.374-4 .098z" stroke-linecap="round" stroke-linejoin="round"/><path d="m50.891 29.207-.85-4.128 2.961 2.839-3.941-.466 3.415-2.086z" stroke-linecap="round" stroke-linejoin="round"/><path d="m44.891 31.207-.85-4.128 2.961 2.839-3.941-.466 3.415-2.086z" stroke-linecap="round" stroke-linejoin="round"/></g><path d="m5 17h31v19h-31z" fill="#1e50a0"/><path d="m9.887 18h-3.887v2.332l26.113 15.668h3.887v-2.332z" fill="#fff"/><path d="m36 20.332v-2.332h-3.887l-26.113 15.668v2.332h3.887z" fill="#fff"/><path d="m6 24h30v6h-30z" fill="#fff"/><path d="m18 18h6v18h-6z" fill="#fff"/><path d="m20 18h2v18h-2z" fill="#d22f27"/><path d="m6 26h30v2h-30z" fill="#d22f27"/><path d="m36 33.668-6.113-3.668h-3.887l10 6v-.001z" fill="#d22f27"/><path d="m36 18h-3.887l-8.113 4.868v1.132h2.001l9.999-5.999z" fill="#d22f27"/><path d="m6 20.332 6.113 3.668h3.888l-10-6-.001.001z" fill="#d22f27"/><path d="m6 36h3.887l8.113-4.868v-1.132h-2l-10 5.999z" fill="#d22f27"/><path d="m5 17h62v38h-62z" fill="none" stroke="#000" stroke-linecap="round" stroke-linejoin="round" stroke-width="2"/></svg>