<svg viewBox="0 0 72 72" xmlns="http://www.w3.org/2000/svg"><path d="m5 17h62v38h-62z" fill="#d22f27"/><path d="m5.0009 17.0014h31.9982v19.9971h-31.9982z" fill="#1e50a0"/><path d="m19.523 25.523-1.199-3.524 2.452 2.801.724-3.652.723 3.652 2.452-2.801-1.199 3.524 3.524-1.2-2.801 2.453 3.652.723-3.652.724 2.801 2.452-3.524-1.2 1.199 3.525-2.452-2.801-.723 3.652-.724-3.652-2.452 2.801 1.199-3.525-3.524 1.2 2.801-2.452-3.652-.724 3.652-.723-2.801-2.453z" fill="#fff" stroke="#fff" stroke-linecap="round" stroke-linejoin="round"/><g fill="none"><circle cx="21.4995" cy="27.4992" r="4.0888" stroke="#1e50a0" stroke-miterlimit="10"/><path d="m5 17h62v38h-62z" stroke="#000" stroke-linecap="round" stroke-linejoin="round" stroke-width="2"/></g></svg>