<svg viewBox="0 0 72 72" xmlns="http://www.w3.org/2000/svg"><path d="m5 17h62v38h-62z"/><path d="m5 42h62v6h-62z" fill="#f1b31c"/><path d="m5 30h62v6h-62z" fill="#d22f27"/><path d="m5 48h62v7h-62z" fill="#d22f27"/><path d="m5 24h62v6h-62z" fill="#f1b31c"/><circle cx="36" cy="36" fill="#fff" r="6"/><g stroke="#000"><circle cx="35.215" cy="32.6639" r=".9933" stroke-miterlimit="10" stroke-width="1.3347"/><circle cx="36.7049" cy="36.1404" r=".9933" stroke-miterlimit="10" stroke-width="1.6683"/><path d="m32.7318 33.1606h2.9798" stroke-linecap="round" stroke-linejoin="round" stroke-width="1.001"/><path d="m35.7116 36.1404v-2.9798" stroke-linecap="round" stroke-linejoin="round" stroke-width="1.6683"/><path d="m36.7049 40.1135v-2.9798" stroke-linecap="round" stroke-linejoin="round" stroke-width="1.001"/><path d="m38.5822 34.9626c-1.2029-.676-2.5481-.5659-3.0044.246l4.3563 2.4483c.4559-.8118-.149-2.0182-1.3519-2.6943z" stroke-linecap="round" stroke-linejoin="round" stroke-width=".3337"/><path d="m5 17h62v38h-62z" fill="none" stroke-linecap="round" stroke-linejoin="round" stroke-width="2"/></g></svg>