<svg viewBox="0 0 72 72" xmlns="http://www.w3.org/2000/svg"><path d="m5 17h62v38h-62z" fill="#fff"/><path d="m5 17h62v5h-62z" fill="#d22f27"/><path d="m5 26h62v4h-62z" fill="#d22f27"/><path d="m5 34h62v4h-62z" fill="#d22f27"/><path d="m5 17h32v21h-32z" fill="#1e50a0"/><path d="m5 42h62v4h-62z" fill="#d22f27"/><g fill="#fff"><circle cx="9.5" cy="22" r="1.75"/><circle cx="17.5" cy="22" r="1.75"/><circle cx="25.5" cy="22" r="1.75"/><circle cx="33.5" cy="22" r="1.75"/><circle cx="29.5" cy="26" r="1.75"/><circle cx="21.5" cy="26" r="1.75"/><circle cx="13.5" cy="26" r="1.75"/><circle cx="9.5" cy="30" r="1.75"/><circle cx="17.5" cy="30" r="1.75"/><circle cx="25.5" cy="30" r="1.75"/><circle cx="33.5" cy="30" r="1.75"/><circle cx="29.5" cy="34" r="1.75"/><circle cx="21.5" cy="34" r="1.75"/><circle cx="13.5" cy="34" r="1.75"/></g><path d="m5 50h62v5h-62z" fill="#d22f27"/><path d="m5 17h62v38h-62z" fill="none" stroke="#000" stroke-linecap="round" stroke-linejoin="round" stroke-width="2"/></svg>