<svg viewBox="0 0 72 72" xmlns="http://www.w3.org/2000/svg"><path d="m5 17h62v38h-62z" fill="#1e50a0"/><g fill="#fff"><path d="m5 17h62v5h-62z"/><path d="m5 26h62v4h-62z"/><path d="m5 34h62v4h-62z"/><path d="m5 42h62v4h-62z"/><path d="m5 50h62v5h-62z"/><path d="m5.0006 17.0015h20.9988v20.997h-20.9988z"/></g><path d="m15.296 26.896 1.704-2.36-1.192 2.656 2.656-1.192-2.36 1.704 2.896.296-2.896.296 2.36 1.704-2.656-1.192 1.192 2.656-1.704-2.36-.296 2.896-.296-2.896-1.704 2.36 1.192-2.656-2.656 1.192 2.36-1.704-2.896-.296 2.896-.296-2.36-1.704 2.656 1.192-1.192-2.656 1.704 2.36.296-2.896z" fill="#f1b31c" stroke="#f1b31c" stroke-linecap="round" stroke-linejoin="round"/><path d="m5 17h62v38h-62z" fill="none" stroke="#000" stroke-linecap="round" stroke-linejoin="round" stroke-width="2"/></svg>