<svg viewBox="0 0 72 72" xmlns="http://www.w3.org/2000/svg"><path d="m5 17h62v38h-62z" fill="#b1cc33"/><path d="m5 17h62v13h-62z" fill="#61b2e4"/><g fill="#fff"><path d="m5 30.25h62v11.5h-62z" stroke="#d22f27" stroke-miterlimit="10" stroke-width="1.5"/><circle cx="29.25" cy="21" r="1"/><circle cx="29.25" cy="24" r="1"/><circle cx="29.25" cy="27" r="1"/><circle cx="26.25" cy="21" r="1"/><circle cx="26.25" cy="24" r="1"/><circle cx="26.25" cy="27" r="1"/><circle cx="23.25" cy="21" r="1"/><circle cx="23.25" cy="24" r="1"/><circle cx="23.25" cy="27" r="1"/><circle cx="20.25" cy="24" r="1"/><circle cx="20.25" cy="27" r="1"/><circle cx="17.25" cy="27" r="1"/><path d="m11.2973 24a3.4648 3.4648 0 0 1 2.7027-3.4332 3.2286 3.2286 0 0 0 -.6486-.0668 3.5033 3.5033 0 0 0 0 7 3.2286 3.2286 0 0 0 .6486-.0668 3.4648 3.4648 0 0 1 -2.7027-3.4332z" stroke="#fff" stroke-linecap="round" stroke-linejoin="round"/></g><path d="m5 17h62v38h-62z" fill="none" stroke="#000" stroke-linecap="round" stroke-linejoin="round" stroke-width="2"/></svg>