<svg viewBox="0 0 72 72" xmlns="http://www.w3.org/2000/svg"><path d="m17 17h38v38h-38z" fill="#fff"/><path d="m17 17h19v38h-19z" fill="#fcea2b"/><ellipse cx="44.7274" cy="29.8602" fill="#9b9b9a" rx="1.9462" ry="2.703"/><path d="m43.6125 28.7453h2.2298" fill="none" stroke="#fcea2b" stroke-linecap="round" stroke-linejoin="round" stroke-width=".9103"/><path d="m43.6125 29.8602h2.2298" fill="none" stroke="#fcea2b" stroke-linecap="round" stroke-linejoin="round" stroke-width=".9103"/><path d="m43.6125 30.9751h2.2298" fill="none" stroke="#fcea2b" stroke-linecap="round" stroke-linejoin="round" stroke-width=".9103"/><path d="m40.2017 42.2844c2.54 2.54 6.8992 2.29 9.747-.5575" fill="none" stroke="#d22f27" stroke-linecap="round" stroke-linejoin="round" stroke-width="1.1468"/><path d="m47.9343 36.1387a3.2621 3.2621 0 1 0 3.9646 2.3588 3.2622 3.2622 0 0 0 -3.9646-2.3588zm1.3 5.1189a2.0193 2.0193 0 1 1 1.46-2.4542 2.0193 2.0193 0 0 1 -1.4601 2.4542z" fill="#9b9b9a"/><rect fill="#9b9b9a" height="8.8114" rx=".4164" transform="matrix(.65805494 -.75296991 .75296991 .65805494 -11.2822 44.7052)" width="1.4686" x="42.8454" y="30.3687"/><rect fill="#9b9b9a" height="1.8096" rx=".369" transform="matrix(.75296991 .65805494 -.65805494 .75296991 31.8635 -18.3991)" width="1.4686" x="39.7038" y="32.3358"/><rect fill="#9b9b9a" height="1.8096" rx=".369" transform="matrix(.75296991 .65805494 -.65805494 .75296991 33.1492 -19.0905)" width="1.4686" x="41.2676" y="33.7025"/><g fill="#fcea2b"><path d="m37.5178 38.8188a3.262 3.262 0 1 0 3.8347-2.5645 3.262 3.262 0 0 0 -3.8347 2.5645zm1.2189.2419a2.0193 2.0193 0 1 1 1.5875 2.3739 2.0192 2.0192 0 0 1 -1.5875-2.3739z"/><rect height="8.8114" rx=".4164" transform="matrix(-.69683846 -.71722811 .71722811 -.69683846 52.5644 91.5427)" width="1.4686" x="44.8948" y="30.2566"/><rect height="1.8096" rx=".369" transform="matrix(-.71722811 .69683846 -.69683846 -.71722811 106.5753 22.6824)" width="1.4686" x="47.9512" y="32.0601"/><rect height="1.8096" rx=".369" transform="matrix(-.71722811 .69683846 -.69683846 -.71722811 105.0258 26.2056)" width="1.4686" x="46.4616" y="33.5073"/></g><path d="m17 17h38v38h-38z" fill="none" stroke="#000" stroke-linecap="round" stroke-linejoin="round" stroke-width="2"/></svg>