<svg viewBox="0 0 72 72" xmlns="http://www.w3.org/2000/svg"><path d="m5 17h62v38h-62z" fill="#1e50a0"/><path d="m5 17h31v19h-31z" fill="#1e50a0"/><path d="m9.5 36h-4.5l26.5-19h4.5z" fill="#fff"/><path d="m36 32.5-31-15.5v3.5l31 15.5z" fill="#fff"/><path d="m36 33.5-31-15.5v1.5l31 15.5z" fill="#d22f27"/><path d="m8.5 36h-2.5l26.5-19h2.5z" fill="#d22f27"/><path d="m36 25h-14v-8h-3v8h-14v3h14v8h3v-8h14z" fill="#d22f27"/><path d="m5 28h14v8" fill="none" stroke="#fff" stroke-linejoin="round"/><path d="m19 17v8h-14" fill="none" stroke="#fff" stroke-linejoin="round"/><path d="m36 25h-14v-8" fill="none" stroke="#fff" stroke-linejoin="round"/><path d="m22 36v-8h14" fill="none" stroke="#fff" stroke-linejoin="round"/><path d="m57.4518 44.7545c-4.5023 3.939-9.0187 3.8068-13.3557.1308-.4754.112-.8438.3264-1.1072.2357-.6456-.2222-.704-.8505-.1978-1.3206a8.0456 8.0456 0 0 0 .9669-.9378c.3463-.4526.6265-.3777.9966-.0522a19.9329 19.9329 0 0 0 1.9685 1.6365 7.357 7.357 0 0 0 9.6994-1.4055c.6294-.7476.8221-.7463 1.4606-.0087a3.6555 3.6555 0 0 0 .6087.6286c.4793.3369.7014.7127.3 1.2333-.32.4154-.7352.3809-1.34-.1401z" fill="#fcea2b"/><path d="m50.6427 27.723h-5.0756a1.8626 1.8626 0 0 0 -1.8626 1.8626v10.7523c0 2.0873 4.749 3.7429 6.389 4.2524a1.84 1.84 0 0 0 1.0983 0c1.64-.5095 6.389-2.1651 6.389-4.2524v-10.7523a1.8626 1.8626 0 0 0 -1.8625-1.8626z" fill="#186648"/><g fill="#fcea2b"><circle cx="55.2155" cy="30.246" r=".6307"/><circle cx="55.2155" cy="32.1382" r=".6307"/><circle cx="55.2155" cy="34.0305" r=".6307"/><circle cx="55.2155" cy="35.9227" r=".6307"/><circle cx="55.2155" cy="37.8149" r=".6307"/><circle cx="55.2155" cy="39.7072" r=".6307"/><circle cx="46.3851" cy="30.246" r=".6307"/></g><circle cx="51.1157" cy="29.9306" fill="#ffa7c0" r=".9461"/><circle cx="46.3851" cy="32.1382" fill="#fcea2b" r=".6307"/><circle cx="46.3851" cy="34.0305" fill="#fcea2b" r=".6307"/><circle cx="47.6466" cy="35.9227" fill="#fcea2b" r=".6307"/><circle cx="46.3851" cy="37.8149" fill="#fcea2b" r=".6307"/><circle cx="46.3851" cy="39.7072" fill="#fcea2b" r=".6307"/><circle cx="50.1696" cy="41.5994" fill="#fcea2b" r=".6307"/><circle cx="51.4311" cy="41.5994" fill="#fcea2b" r=".6307"/><path d="m49.8542 32.4536-1.8922 2.523" fill="none" stroke="#ffa7c0" stroke-linecap="round" stroke-linejoin="round" stroke-width=".6307"/><rect fill="#fff" height="10.0919" rx="1.1546" width="3.1537" x="49.46" y="31.5075"/><path d="m52.3772 32.4536.5856 3.4458" fill="none" stroke="#ffa7c0" stroke-linecap="round" stroke-linejoin="round" stroke-width=".6307"/><path d="m52.081 29.1231a.9461.9461 0 0 0 -1.338 0l1.338 1.338a.9461.9461 0 0 0 0-1.338z" fill="#a57939" stroke="#a57939" stroke-linecap="round" stroke-linejoin="round" stroke-width=".6307"/><path d="m5 17h62v38h-62z" fill="none" stroke="#000" stroke-linecap="round" stroke-linejoin="round" stroke-width="2"/></svg>