<svg viewBox="0 0 72 72" xmlns="http://www.w3.org/2000/svg"><path d="m5 17h62v38h-62z" fill="#fff"/><path d="m24.4675 38.6242a5.6221 5.6221 0 0 0 .8728-1.9518.1112.1112 0 0 1 .09-.1206.8321.8321 0 0 0 .6065-.3025c.0559-.0793.1623-.0427.1755.0621a2.5167 2.5167 0 0 1 -1.37 2.84.0929.0929 0 0 1 -.1076-.0337l-.2588-.3321a.1442.1442 0 0 1 -.0084-.1614z" fill="#3f3f3f"/><ellipse cx="19.7469" cy="38.9532" fill="#5c9e31" rx="1.7908" ry="4.782" transform="matrix(.72793433 -.68564686 .68564686 .72793433 -21.3357 24.1373)"/><g stroke-linecap="round" stroke-linejoin="round"><path d="m17.4756 36.5771 12.1979 12.6685" fill="none" stroke="#5c9e31" stroke-width="1.9978"/><path d="m54.363 39.2544-11.5835 9.4282" fill="none" stroke="#61b2e4" stroke-width=".9989"/><path d="m53.3623 36.6219-9.046 14.329" fill="none" stroke="#61b2e4" stroke-width=".9989"/><path d="m51.3436 35.5728-5.0085 16.4272" fill="none" stroke="#61b2e4" stroke-width=".9989"/><path d="m59.8284 22.3314a1.3315 1.3315 0 0 0 -1.7081-.3466c-3.1855 1.2833-11.0738 3.2634-13.0377 4.3272a1.6411 1.6411 0 0 0 -1.011 1.3913 1.4672 1.4672 0 0 0 .6979 1.2474l-.0089.0756a6.2765 6.2765 0 0 1 -4.7213-.9382l-.2218-.2218c-.6347-1.4524-.6167-5.65-2.9639-6.0133a1.4644 1.4644 0 0 0 -.3259-.039c-2.9447 0-4.417 2.9447-3.6808 2.2085s3.6808-.7362 1.6662 2.5988a5.4325 5.4325 0 0 1 -.3437.4956l-.9711.9712a6.2766 6.2766 0 0 1 -4.7213.9382l-.009-.0756a1.4673 1.4673 0 0 0 .698-1.2474 1.641 1.641 0 0 0 -1.0111-1.3913c-1.9639-1.0638-9.8522-3.0439-13.0376-4.3272a1.3315 1.3315 0 0 0 -1.7081.3466 1.35 1.35 0 0 0 -.4348.8435 2.1454 2.1454 0 0 0 .2519.94c.5725 1.4909 6.9885 6.4578 11.1327 9.4016a10.6548 10.6548 0 0 1 1.703 1.5608 2.2031 2.2031 0 0 0 1.037.6425 4.3339 4.3339 0 0 1 1.4781.6644c.4583.3468.99.7948 1.53 1.27-.3152.1564-2.3573 1.26-1.6772 3.3.5484 1.6452-.9449 1.6561-1.7428 1.5547a1.4684 1.4684 0 1 0 1.0067 1.39 2.723 2.723 0 0 1 2.2085-1.4724 1.442 1.442 0 0 0 1.4723-1.4723 2.57 2.57 0 0 1 1.4724-.7362l.5575.5575-2.0919 2.092a1.4585 1.4585 0 0 0 0 2.0627l4.1838 4.1839a1.45 1.45 0 0 0 1.1865.4124 1.435 1.435 0 0 0 1.0584-.4124l4.1838-4.1841a1.4585 1.4585 0 0 0 0-2.0627l-2.092-2.092.5576-.5575a2.57 2.57 0 0 1 1.4724.7362 1.442 1.442 0 0 0 1.4723 1.4723 2.7232 2.7232 0 0 1 2.2085 1.4724 1.4974 1.4974 0 1 0 1.0067-1.39c-.7979.1014-2.2913.0905-1.7429-1.5547.68-2.0406-1.3619-3.144-1.6771-3.3.54-.4749 1.0715-.9229 1.53-1.27a4.3334 4.3334 0 0 1 1.478-.6644 2.2029 2.2029 0 0 0 1.0371-.6425 10.6505 10.6505 0 0 1 1.703-1.5608c4.1441-2.9438 10.56-7.9107 11.1327-9.4016a2.1467 2.1467 0 0 0 .2519-.94 1.3514 1.3514 0 0 0 -.4349-.8433z" fill="#fcea2b" stroke="#fcea2b" stroke-width="1.7984"/><path d="m61.6382 31.2655v7.9911" fill="none" stroke="#61b2e4" stroke-width="1.9978"/><path d="m8.374 31.2655 2.6495 7.74" fill="none" stroke="#61b2e4" stroke-width="1.9978"/><path d="m14.0704 31.2655-2.6495 7.74" fill="none" stroke="#61b2e4" stroke-width="1.9978"/></g><path d="m27.563 27.6004h17.9801v5.9934h-17.9801z" fill="#1e50a0"/><path d="m27.5859 34.0682a8.965 8.965 0 0 0 .2279 1.624 14.7772 14.7772 0 0 0 7.909 10.5133 1.8422 1.8422 0 0 0 1.66 0 14.7776 14.7776 0 0 0 7.9091-10.5133 8.9827 8.9827 0 0 0 .2279-1.624c.0211-.2849.0228-.4528.0228-.4528h-17.9796s.0018.1679.0229.4528z" fill="#781e32"/><path d="m33.0786 33.5745v10.9155q.4533.3556.9567.6913v-11.6068z" fill="#fff"/><path d="m30.0719 33.5745v7.7138a14.3529 14.3529 0 0 0 .9358 1.22v-8.9338z" fill="#fff"/><path d="m39.0918 33.5745v11.6085q.48-.32.9148-.6583v-10.95z" fill="#fff"/><path d="m36.1062 33.5745v12.73a1.8972 1.8972 0 0 0 .9147.0009v-12.7309z" fill="#fff"/><path d="m42.0774 33.5745v8.9864a14.3157 14.3157 0 0 0 .9568-1.2385v-7.7479z" fill="#fff"/><path d="m5 17h62v38h-62z" fill="none" stroke="#000" stroke-linecap="round" stroke-linejoin="round" stroke-width="2"/></svg>