<svg viewBox="0 0 72 72" xmlns="http://www.w3.org/2000/svg"><path d="m5 17h62v38h-62z" fill="#d22f27"/><path d="m5 36h62v19h-62z" fill="#5c9e31"/><path d="m26 36-21 19v-38z"/><g stroke-linecap="round" stroke-linejoin="round"><path d="m26 34-21-17v4l18.529 15-18.529 15v4l21-17h41v-4z" fill="#f1b31c" stroke="#000" stroke-width="2"/><path d="m12.3334 39.2727a3.9286 3.9286 0 0 0 4.1666-3.6363 3.1429 3.1429 0 0 0 -3.3333-2.9091 2.5143 2.5143 0 0 0 -2.6667 2.3272 2.0116 2.0116 0 0 0 2.1334 1.8619" fill="none" stroke="#f1b31c"/><path d="m5 17h62v38h-62z" fill="none" stroke="#000" stroke-width="2"/></g></svg>