<svg viewBox="0 0 72 72" xmlns="http://www.w3.org/2000/svg"><path d="m5 17h62v38h-62z" fill="#fff"/><path d="m28.63 36.7a1.357 1.357 0 0 0 1.21 1.346v.0154h12.1v-.0154a1.342 1.342 0 0 0 .1513.0154 1.362 1.362 0 0 0 0-2.723 1.342 1.342 0 0 0 -.1513.0154v-.0308a1.342 1.342 0 0 0 .1513.0154 1.362 1.362 0 1 0 0-2.723 1.324 1.324 0 0 0 -.1513.0154v-.0308a1.324 1.324 0 0 0 .1513.0154 1.362 1.362 0 1 0 -1.346-1.513h-.333a1.354 1.354 0 0 0 -2.693 0h-.3328a1.354 1.354 0 0 0 -2.693 0h-.333a1.354 1.354 0 0 0 -2.692 0h-.3331a1.358 1.358 0 1 0 -1.498 1.498v.0308a1.354 1.354 0 0 0 0 2.692v.0308a1.357 1.357 0 0 0 -1.21 1.346z" fill="#1e50a0" stroke-width=".7699"/><path d="m43.45 39.43a1.357 1.357 0 0 0 -1.21-1.346v-.0154h-12.1v.0154a1.342 1.342 0 0 0 -.1513-.0154 1.362 1.362 0 0 0 0 2.723 1.324 1.324 0 0 0 .1513-.0154v.0308a1.324 1.324 0 0 0 -.1513-.0154 1.362 1.362 0 0 0 0 2.723 1.342 1.342 0 0 0 .1513-.0154v.0308a1.342 1.342 0 0 0 -.1513-.0154 1.362 1.362 0 1 0 1.346 1.513h.3331a1.354 1.354 0 0 0 2.692 0h.333a1.354 1.354 0 0 0 2.693 0h.333a1.354 1.354 0 0 0 2.693 0h.333a1.358 1.358 0 1 0 1.498-1.498v-.0308a1.354 1.354 0 0 0 0-2.692v-.0308a1.357 1.357 0 0 0 1.21-1.346z" fill="#d22f27" stroke-width=".7699"/><path d="m36.04 35.5a2.382 2.382 0 0 1 -2.306-1.986 2.581 2.581 0 0 0 -.04496.4766 2.354 2.354 0 1 0 4.703 0 2.588 2.588 0 0 0 -.04489-.4766 2.382 2.382 0 0 1 -2.306 1.986z" fill="#fff" stroke="#fff" stroke-linecap="round" stroke-linejoin="round" stroke-width=".7413"/><g fill="#f1b31c" stroke-width=".7699"><path d="m33.5 39.46a.3537.3537 0 0 1 .3537.3537v2.83a.3537.3537 0 0 1 -.3537.3537.3537.3537 0 0 1 -.3537-.3537v-2.83a.3537.3537 0 0 1 .3537-.3537z"/><path d="m31.97 40.34a.3537.3537 0 0 1 .4832-.1295l2.451 1.415a.3537.3537 0 0 1 .1295.4831.3537.3537 0 0 1 -.4832.1295l-2.451-1.415a.3537.3537 0 0 1 -.1295-.4832z"/><path d="m31.97 42.11a.3537.3537 0 0 1 .1294-.4831l2.451-1.415a.3537.3537 0 0 1 .4832.1295.3537.3537 0 0 1 -.1294.4831l-2.451 1.415a.3537.3537 0 0 1 -.4832-.1295z"/><path d="m38.58 39.46a.3537.3537 0 0 1 .3537.3537v2.83a.3537.3537 0 0 1 -.3537.3537.3537.3537 0 0 1 -.3537-.3537v-2.83a.3537.3537 0 0 1 .3537-.3537z"/><path d="m37.04 40.34a.3537.3537 0 0 1 .4831-.1295l2.451 1.415a.3537.3537 0 0 1 .1295.4831.3537.3537 0 0 1 -.4832.1295l-2.45-1.415a.3537.3537 0 0 1 -.1295-.4832z"/><path d="m37.04 42.11a.3537.3537 0 0 1 .1295-.4831l2.451-1.415a.3537.3537 0 0 1 .4831.1295.3537.3537 0 0 1 -.1295.4832l-2.45 1.415a.3537.3537 0 0 1 -.4832-.1295z"/></g><path d="m50.78 40.82c1.466-.6358 2.694-2.471 3.014-2.864.7899-.9716 1.58-4.797-1.038-7.285a5.519 5.519 0 0 0 -1.245-.8671c-2.557-1.347-2.557-.4474-2.557-.4474a1.538 1.538 0 0 1 1.076.6615c.5377.6615 0 .6615-1.076 1.323s-.5378 1.985-1.076 2.646c-.5381.6615-1.076.6615-.5377 1.323.5378.6615 2.282-1.038 2.282-1.038l.0034-.0028a1.412 1.412 0 0 0 .9415.379 1.781 1.781 0 0 0 1.597-1.789.3873.3873 0 0 1 .2848.1347c.5365.6599.05351 2.131-3.738 3.955-4.91 2.362-4.68 7.095-4.385 8.916a3.977 3.977 0 0 0 .4345 1.271c.1405.2571.2843.5062.4287.7423a5.625 5.625 0 0 0 5.109 2.977c2.198 0 3.986-2.163 4.032-4.853.001-.06467-.0055-.1283-.0092-.1925-.1041 2.259-1.622 4.053-3.485 4.053-.0629 0-.1243-.0077-.1862-.0117-.0522-.0022-.104-.0035-.1559-.0095-1.77-.2116-3.153-2.046-3.153-4.279a5.271 5.271 0 0 1 3.44-4.744z" fill="#9b9b9a" stroke="#9b9b9a" stroke-linecap="round" stroke-linejoin="round" stroke-width=".7413"/><path d="m21.28 40.82c-1.466-.6358-2.694-2.471-3.014-2.864-.7899-.9716-1.58-4.797 1.038-7.285a5.521 5.521 0 0 1 1.245-.8671c2.557-1.347 2.557-.4474 2.557-.4474a1.538 1.538 0 0 0 -1.076.6615c-.5377.6615 0 .6615 1.076 1.323s.5378 1.985 1.076 2.646c.5377.6615 1.076.6615.5378 1.323-.5377.6615-2.282-1.038-2.282-1.038l-.0034-.0028a1.412 1.412 0 0 1 -.9415.379 1.781 1.781 0 0 1 -1.597-1.789.3875.3875 0 0 0 -.2848.1347c-.5365.6599-.05343 2.131 3.738 3.955 4.91 2.362 4.68 7.095 4.385 8.916a3.977 3.977 0 0 1 -.4345 1.271c-.1405.2571-.2843.5062-.4287.7423a5.625 5.625 0 0 1 -5.109 2.977c-2.198 0-3.986-2.163-4.032-4.853-.0011-.06467.0055-.1283.0092-.1925.1045 2.259 1.623 4.053 3.485 4.053.06282 0 .1242-.0077.1862-.0117.0522-.0022.104-.0035.1558-.0095 1.77-.2116 3.154-2.046 3.154-4.279a5.271 5.271 0 0 0 -3.44-4.744z" fill="#9b9b9a" stroke="#9b9b9a" stroke-linecap="round" stroke-linejoin="round" stroke-width=".7413"/><path d="m18.25 39.7c-.4458-.6433-1.984-2.941-2.03-4.092a.2377.2377 0 0 0 -.2027-.2497 1.778 1.778 0 0 1 -1.321-.5939c-.1262-.1644-.3502-.07698-.3695.1477-.1296 1.516-.01879 4.816 3.168 5.944a.1987.1987 0 0 0 .2269-.08114l.5239-.7314a.3079.3079 0 0 0 .0042-.344z" fill="#3f3f3f" stroke-width=".7699"/><path d="m53.75 39.7c.4458-.6433 1.984-2.941 2.03-4.092a.2377.2377 0 0 1 .2027-.2497 1.778 1.778 0 0 0 1.321-.5939c.1262-.1644.3502-.07698.3695.1477.1296 1.516.01879 4.816-3.168 5.944a.1986.1986 0 0 1 -.2268-.08114l-.5235-.7314a.3079.3079 0 0 1 -.0047-.344z" fill="#3f3f3f" stroke-width=".7699"/><path d="m20.67 23.34 30.66.1154" fill="none" stroke="#d22f27" stroke-linecap="round" stroke-linejoin="round" stroke-width="2.997"/><path d="m5 17h62v38h-62z" fill="none" stroke="#000" stroke-linecap="round" stroke-linejoin="round" stroke-width="2"/></svg>