<svg viewBox="0 0 72 72" xmlns="http://www.w3.org/2000/svg"><path d="m5 17h62v38h-62z"/><path d="m5 49h62v6h-62z" fill="#5c9e31"/><path d="m5 44h62v5h-62z" fill="#f1b31c"/><path d="m5 39h62v5h-62z" fill="#d22f27"/><path d="m5 17h62v6h-62z" fill="#5c9e31"/><path d="m5 23h62v5h-62z" fill="#f1b31c"/><path d="m5 28h62v5h-62z" fill="#d22f27"/><path d="m26 36-21 19v-38z" fill="#fff" stroke="#000" stroke-linecap="round" stroke-linejoin="round"/><path d="m15.2661 35.6693 3.7339-2.8729-4.5363.1121-1.2981-4.4669-1.5056 4.5361-4.5369.112 3.6062 2.6918-.974 2.9344a2.2833 2.2833 0 0 1 1.0806.362l2.1222-1.6328 3.6063 2.6918z" fill="#d22f27" stroke="#d22f27" stroke-linecap="round" stroke-linejoin="round" stroke-width=".5399"/><path d="m10.7012 30.9391a.8847.8847 0 0 0 -1.4242.7009v8.7433a.8848.8848 0 0 0 .8848.8848h6.0475a.8847.8847 0 0 0 .8847-.8848v-4.091a.8847.8847 0 0 0 -.3453-.7013z" fill="#fcea2b"/><path d="m5 17h62v38h-62z" fill="none" stroke="#000" stroke-linecap="round" stroke-linejoin="round" stroke-width="2"/></svg>