<svg xmlns="http://www.w3.org/2000/svg" width="1175" height="667" style="shape-rendering:geometricPrecision;text-rendering:geometricPrecision;image-rendering:optimizeQuality;fill-rule:evenodd;clip-rule:evenodd"><path style="opacity:.966" fill="#a82024" d="M199 0h16c12 5 18 15 20 29l41 27 15 54c51 2 96 21 133 56a4470 4470 0 0 0 60-36l46 9c5-4 10-7 16-9 25-2 36 10 32 36-8 14-20 19-35 14-6-2-10-6-13-10l-5-16-38-7c-18 9-35 20-51 32 33 40 42 86 25 136-8-16-17-31-28-44-30-35-66-62-107-81-7-3-14-4-20-5l12 37c2-7 6-9 13-7 3 3 4 6 3 11l-2 2c6 1 7 4 4 9-7 2-9 0-7-6l-8-3c1 5 2 10 5 16 2-5 7-7 12-4 0-13 6-18 18-14 6 6 6 11 1 18l-10 2c3 3 3 6 1 9-5 1-7 0-8-4-3 3-6 3-10 2l-1 1 7 21c23 2 32 15 29 38 6-3 8-1 7 5-4 2-7 1-8-4-9 18-22 24-41 16-14-9-19-22-14-37l11-14-32-97c-46-10-90-6-132 12l-1-1c15-36 41-60 79-73 12-4 25-7 39-8a707 707 0 0 0-12-48l-34-20c-15 11-30 10-43-3-9-19-4-33 15-41Zm230 206c-10-12-21-23-32-33-15-11-31-20-47-27 32 6 56 22 74 50l5 10Zm-87 38c3 0 3 1 1 3-1-1-2-2-1-3Zm-10 47c8-2 15 1 18 10 1 10-3 16-13 18-13-4-17-11-12-23 2-3 4-4 7-5Z"/><path style="opacity:.925" fill="#a82024" d="M256 193c11-2 17 3 15 15-6 8-13 9-20 2-3-8-2-13 5-17Z"/><path style="opacity:.911" fill="#a82024" d="M195 197c12-1 17 4 14 17-6 6-12 6-19 1-4-8-3-14 5-18Z"/><path style="opacity:.922" fill="#a82024" d="M227 200c8-2 13 2 15 10-2 9-7 13-16 10-9-7-8-14 1-20Z"/><path style="opacity:.899" fill="#a82024" d="M279 200c10-1 14 4 11 14-3 3-7 4-11 3-5-3-7-7-5-12 1-3 3-4 5-5Z"/><path style="opacity:.906" fill="#a82024" d="M169 209c10-1 15 3 14 14-5 9-12 10-20 3-3-8-1-14 6-17Z"/><path style="opacity:.887" fill="#a82024" d="M138 217c11 0 14 5 9 15-11 4-15 0-14-10 1-3 3-4 5-5Z"/><path style="opacity:.908" fill="#a82024" d="M211 218c10 0 13 5 11 15-6 6-12 6-18 1-3-8-1-13 7-16Z"/><path style="opacity:.884" fill="#a82024" d="M251 219c7-2 11 1 13 8-3 8-8 9-15 5-3-5-3-10 2-13Z"/><path style="opacity:.876" fill="#a82024" d="M270 219c9 0 11 5 8 13-10 4-14 0-13-9l5-4Z"/><path style="opacity:.869" fill="#a82024" d="M287 221c7-1 10 2 8 10-3 4-6 4-10 2-4-5-4-9 2-12Z"/><path style="opacity:.892" fill="#a82024" d="M133 310c-3-4-5-8-5-12-11 2-16-2-14-12 4-5 9-6 15-2l4 8c12-5 18 0 17 14 3-2 6-3 10-3-3-8-1-12 8-12-7-8-5-14 6-16-3-7-1-12 6-14-6-3-8-7-6-12l4-4 7-1c-5-3-7-7-5-12 3-6 7-8 14-6 6 5 7 10 3 17l-10 3c5 7 3 12-5 15 6 2 9 6 7 13-3 3-6 5-10 6 2 7 0 11-8 12 2 2 3 5 3 8 6-8 12-8 19-1 3 6 1 12-5 16 3 2 4 6 3 11-3 3-6 3-10 2-5-5-4-10 2-13l-8-4c0 4-3 5-6 4-2-4-1-6 2-7l2 1v-6l-3 3-6 1c2 3 3 6 3 10 8-1 11 2 8 10 5 1 7 4 5 10-8 3-11 0-8-8-3-1-4 0-2 3l-3 4 1 6c10-4 15-1 14 11-3 4-7 6-12 4-4-3-6-7-6-11-8 1-11-2-9-9l3-3c-6-3-6-6-1-8 2 0 3 1 4 4l-2 3 3 1c-1-4 1-6 5-7l-4-5c-7 4-13 3-17-4-1-3-1-6 1-8h-14Z"/><path style="opacity:.907" fill="#a82024" d="M233 226c9-1 13 3 12 13-3 5-7 7-13 5-9-6-8-13 1-18Z"/><path style="opacity:.924" fill="#a82024" d="M156 229c12-1 17 4 16 17-4 9-11 11-20 7-8-6-8-13-2-21 1-1 3-3 6-3Z"/><path style="opacity:.916" fill="#a82024" d="M115 233c10-1 15 3 14 14-3 6-8 8-15 6-5-3-7-8-6-13 1-4 4-6 7-7Z"/><path style="opacity:.901" fill="#a82024" d="M279 236c11-1 14 4 9 14-10 3-14 0-13-10 1-2 2-4 4-4Z"/><path style="opacity:.828" fill="#a82024" d="M296 236c6-1 8 2 6 8-7 2-9 0-8-6l2-2Z"/><path style="opacity:.917" fill="#a82024" d="M256 240c11-1 16 5 14 17l-6 6c9 3 11 8 5 16-10 2-14-2-12-11l5-4c-12 0-17-5-15-16 1-5 4-7 9-8Z"/><path style="opacity:.91" fill="#a82024" d="M218 263c-6 1-11 0-15-3-1 5-5 8-10 6-2 0-2-1-3-2-1-9 2-12 10-8 0-12 5-17 17-15 6 4 8 10 5 18l-4 4Z"/><path style="opacity:.902" fill="#a82024" d="M369 241c10-3 14 2 12 13-5 4-10 5-15 1-2-6-2-10 3-14Z"/><path style="opacity:.907" fill="#a82024" d="M88 247c10-1 14 4 12 14-6 7-12 7-18 1-2-7-1-12 6-15Z"/><path style="opacity:.89" fill="#a82024" d="M232 248c7-2 11 1 13 8-2 7-6 10-13 8-7-5-7-11 0-16Z"/><path style="opacity:.867" fill="#a82024" d="M297 249c9-1 12 2 8 11-11 1-13-3-8-11Z"/><path style="opacity:.826" fill="#a82024" d="M355 249c6-1 8 2 6 8-7 2-9 0-8-6l2-2Z"/><path style="opacity:.987" fill="#383635" d="M626 251h47v248h-47V251Z"/><path style="opacity:.982" fill="#383635" d="M718 251c46-1 92 0 138 1 45 7 67 33 64 80-3 18-13 31-29 39 18 8 30 21 35 41 7 44-11 71-53 83l-19 3-136 1V251Zm47 44c28-1 56 0 85 1 18 6 25 18 22 37-5 9-13 15-23 16l-84 2v-56Zm0 98c28-1 56 0 85 1 14 3 24 12 30 26 2 16-5 26-21 31l-15 3-79 1v-62ZM1175 418v20c-5 29-22 48-51 56l-23 4-136 1V251h127c24 0 45 10 62 28 12 18 16 39 11 61-5 14-14 24-27 31 20 9 32 25 37 47Zm-163-123c28-1 56 0 85 1 13 4 21 14 24 28-3 14-11 23-25 25l-84 2v-56Zm0 98h80c14 2 25 9 33 22 5 13 2 24-10 32-8 4-16 6-24 7l-79 1v-62Z"/><path style="opacity:.902" fill="#a82024" d="M135 253c10 1 13 7 8 17-9 5-15 2-17-7 0-6 3-9 9-10Z"/><path style="opacity:.901" fill="#a82024" d="M278 254c9-2 13 2 12 12-2 3-4 5-8 5-7-2-10-6-8-13l4-4Z"/><path style="opacity:.895" fill="#a82024" d="M155 273c-5-13-1-18 12-15 5 5 5 10 0 15-5 2-9 2-12 0Z"/><path style="opacity:.924" fill="#a82024" d="M390 257c12-1 18 5 15 18-5 7-12 8-19 4-8-9-7-17 4-22Z"/><path style="opacity:.899" fill="#a82024" d="M340 259c8-2 11 1 11 10-2 4-6 6-11 4-4-3-5-6-4-10 1-2 2-4 4-4Z"/><path style="opacity:.891" fill="#a82024" d="M363 260c11-2 14 3 10 13-10 4-14 1-14-8l4-5Z"/><path style="opacity:.892" fill="#a82024" d="M105 262c10-2 14 3 13 14-3 4-7 6-12 5-7-2-9-7-7-13 1-3 3-5 6-6Z"/><path style="opacity:.88" fill="#a82024" d="M218 263c9-2 12 2 10 12-4 4-9 5-14 1-3-6-2-10 4-13Z"/><path style="opacity:.906" fill="#a82024" d="M302 267c7-2 11 1 12 8-2 7-6 10-13 8-4-3-5-7-4-12l5-4Z"/><path style="opacity:.889" fill="#a82024" d="M198 268c6-2 10 1 12 7-3 8-8 10-15 6-3-6-2-10 3-13Z"/><path style="opacity:.888" fill="#a82024" d="m239 282-1-1c-3-5-3-9 2-13 10-2 14 2 10 13-4 2-8 2-11 1Z"/><path style="opacity:.911" fill="#a82024" d="M69 270c11-2 16 3 14 15-3 5-8 7-14 5-10-7-10-14 0-20Z"/><path style="opacity:.782" fill="#a82024" d="M353 270c5 0 7 2 4 7-7 0-8-2-4-7Z"/><path style="opacity:.885" fill="#a82024" d="M155 273c4 4 4 8 2 14l-3 2c4 1 5 4 4 8-7 1-9-1-5-7-10 0-13-5-11-13 3-4 7-5 13-4Z"/><path style="opacity:.902" fill="#a82024" d="M282 275c9-2 12 2 10 12-3 2-7 3-11 2-5-5-4-10 1-14Z"/><path style="opacity:.811" fill="#a82024" d="M372 285c-8 0-10-3-6-9 6-1 8 2 6 9Z"/><path style="opacity:.869" fill="#a82024" d="M187 280c8 1 10 5 5 12-8 2-11-1-10-8 1-3 2-4 5-4Z"/><path style="opacity:.807" fill="#a82024" d="M213 280c7-1 8 2 5 8-7 0-9-3-5-8Z"/><path style="opacity:.902" fill="#a82024" d="m238 281 1 1 1 8c4-7 9-8 16-5 3 4 3 9 1 15-10 5-16 2-18-9-4 4-9 4-13 0-2-10 2-13 12-10Z"/><path style="opacity:.919" fill="#a82024" d="m406 304-1 1-1 1c-13 1-18-4-13-16 3-3 8-4 13-3l4 6c1-10 6-13 16-9 4 6 3 11-2 15-5 1-10 0-13-3 0 3-2 5-3 8Z"/><path style="opacity:.865" fill="#a82024" d="M270 298c-8 0-11-4-10-10 4-6 8-7 13-2 2 5 1 9-3 12Z"/><path style="opacity:.908" fill="#a82024" d="M92 285c10 0 14 5 11 15-7 6-13 6-18-2-1-7 1-11 7-13Z"/><path style="opacity:.914" fill="#a82024" d="M372 285c11-2 15 2 13 14-5 6-11 6-17 1-3-6-1-11 4-15Z"/><path style="opacity:.915" fill="#a82024" d="M48 289c9-1 13 3 12 13-3 5-7 7-13 5-5-3-7-8-5-13 1-3 3-4 6-5Z"/><path style="opacity:.869" fill="#a82024" d="M198 290c9-1 11 3 8 11-8 3-11 0-11-7l3-4Z"/><path style="opacity:.886" fill="#a82024" d="M293 291c11-1 13 4 8 13-12 1-15-4-8-13Z"/><path style="opacity:.906" fill="#a82024" d="M223 295c8 0 11 4 9 13-5 5-10 5-15 0-2-7 0-11 6-13Z"/><path style="opacity:.893" fill="#a82024" d="M228 345c-4-5-3-8 2-10-3-3-5-6-5-9l-6 3c5 7 3 11-5 13 3 3 3 7 1 12-4 3-9 3-13 0l-2 6c7 1 9 4 7 12-2 2-4 3-7 3 3 2 4 5 3 10l-7 4 1 4c3-4 6-4 9-1 2 7 0 9-7 7-2-1-3-3-3-5-2 3-5 4-9 3l-3-1c-2-8 0-11 8-12l-2-3c-8 1-11-2-9-9 3-3 6-4 10-3l3 7c3-2 3-3 0-4-1-4 0-7 2-10l-6-2c-1 6-4 8-10 6-3-6-1-9 4-10l4 2c-1-5 0-8 4-10 2-1 5 0 8 1 1-5 4-8 10-9-2-2-3-5-3-7-4 2-7 2-11 0-3-7-1-11 6-12 5 0 8 4 7 10 2-2 5-3 8-3-8-4-8-9-2-15 8-2 12 1 12 10 4-4 9-4 13 0 0-14 6-19 20-16l4 4c0-6 2-10 6-13 10-2 15 2 15 13 4-4 9-4 14-2 4 4 5 9 2 15-6 5-11 5-16 0l-3-10c-2 2-4 3-7 3l-7-2c0 12-6 18-18 17-4-1-6-3-8-5-1 5-5 8-10 8 3 1 4 4 3 8-2 2-5 3-7 2Z"/><path style="opacity:.922" fill="#a82024" d="M102 329c-1 0-2 1-1 2-7 8-15 8-23 2l-1-2c-2-5-2-9-1-12-12 2-17-3-14-14 5-6 10-7 16-2 2 3 3 7 3 11 14-5 21 0 21 15Z"/><path style="opacity:.909" fill="#a82024" d="M106 301c9-1 13 3 11 13-3 3-7 4-11 3-5-3-7-6-5-11 1-3 3-4 5-5Z"/><path style="opacity:.882" fill="#a82024" d="M431 315c-11 1-14-3-9-12 10-2 13 2 9 12Z"/><path style="opacity:.72" fill="#a82024" d="M240 303h3v4h-3v-4Z"/><path style="opacity:.901" fill="#a82024" d="m396 335-1-1c-4-10 0-15 10-17-4-4-4-7-1-11l1-1 1-1c9-2 13 2 11 12l-7 4c4 6 3 11-1 16-5 2-9 2-13-1Z"/><path style="opacity:.87" fill="#a82024" d="M200 306c7 0 10 4 7 11-7 3-11 1-12-5 0-3 2-5 5-6Z"/><path style="opacity:.899" fill="#a82024" d="M378 306c8-3 12 0 14 8-2 7-6 10-13 8-5-3-7-6-5-11l4-5Z"/><path style="opacity:.885" fill="#a82024" d="M133 310c5 5 5 10-1 14-10 1-13-3-10-12 3-3 7-4 11-2Z"/><path style="opacity:.811" fill="#a82024" d="M53 312c6-1 8 2 7 9-4 4-8 3-11-1-1-4 0-7 4-8Z"/><path style="opacity:.933" fill="#a82024" d="M30 314c13-2 19 4 17 18-4 5-9 8-15 6-8-3-11-8-9-16 1-4 3-7 7-8Z"/><path style="opacity:.921" fill="#a82024" d="M431 315c11-3 17 1 15 14-6 8-13 9-20 1v-10c1-3 3-4 5-5Z"/><path style="opacity:.876" fill="#a82024" d="M272 321c8-2 11 1 11 10-5 7-10 7-15 1-1-5 0-9 4-11Z"/><path style="opacity:.806" fill="#a82024" d="M363 332c-3-7-1-10 6-9 4 4 3 7-2 10l-4-1Z"/><path style="opacity:.928" fill="#a82024" d="m77 331 1 2-1 9 1 1c10-4 16 0 17 11 4-7 10-10 18-11 21 0 31 10 30 32l-3 10-1 1-1 1a28 28 0 0 1-34 5h-4l-43 21-53-16c-1-6-1-11 2-16l49 16a206 206 0 0 0 26-14l11-6c-2-6-2-12-1-17-8 5-14 3-18-5v-8c-7 4-14 3-20-3-4-10-1-16 8-20 6-1 12 1 16 7Zm38 25c14 2 18 9 12 22-8 6-15 5-22-2-3-10 0-17 10-20Z"/><path style="opacity:.883" fill="#a82024" d="M140 324c8 0 12 4 10 13l-3 4c6 2 7 6 4 11-9 1-11-2-7-9-12-1-15-7-10-16l6-3Z"/><path style="opacity:.779" fill="#a82024" d="M308 324c6-1 8 2 5 7-7 0-9-2-5-7Z"/><path style="opacity:.888" fill="#a82024" d="m101 331 1-2c7-6 12-5 16 4-2 7-6 9-13 7-4-2-5-6-4-9Z"/><path style="opacity:.783" fill="#a82024" d="M375 326c5-1 7 2 5 7-7 1-9-2-5-7Z"/><path style="opacity:.893" fill="#a82024" d="m292 343-1-1c-2-12 2-16 14-12 3 3 3 8 1 13-5 3-10 3-14 0Z"/><path style="opacity:.846" fill="#a82024" d="M121 331c8-2 10 2 7 9-7 2-10 0-9-7l2-2Z"/><path style="opacity:.863" fill="#a82024" d="M363 332c5 7 3 12-5 15-8-2-10-6-7-13 3-4 7-4 12-2Z"/><path style="opacity:.881" fill="#a82024" d="M192 348c-9-1-12-6-8-13 4-5 9-4 13 1 2 5 0 9-5 12Z"/><path style="opacity:.887" fill="#a82024" d="m395 334 1 1 1 10c11-7 18-4 22 9l-5 11c-1-1-2 0-2 1l-8 1c3 3 3 7 2 11h7c7 4 8 9 3 16-5 2-9 1-13-2-1 6-5 9-11 9-5-4-6-8-3-13 4-4 8-4 12 0l2-5-9-3-3-3c0 6-3 9-8 9-6-3-7-7-4-12 4-3 8-3 11 1 0-3 1-4 3-6-8 1-11-2-9-9 3-3 6-4 9-1l1-1c-1-4-2-7-1-10l-9 1c0 5-2 7-7 7v3c3 0 4 2 5 5-2 3-4 4-7 3s-3-3-1-5l-5-3c-6 6-10 4-10-4 4-3 7-3 10 1 1-2 3-3 6-2-2-6 0-9 6-9-2-12 2-16 14-11Zm0 33 1-4 4 2-5 2Z"/><path style="opacity:.881" fill="#a82024" d="m291 342 1 1c2 9-2 13-12 12 0 11-5 14-15 10 0 2-1 4-3 5 11 1 14 6 9 16-9 4-14 2-16-7 1-3 0-4-3-3v-4h4v3l5-4c-6-1-8-4-5-9-6-1-8-4-6-9 5-4 8-3 11 3l-2 4 4 1c-1-4 0-6 2-9-8-1-10-5-8-12l3-3c-2-1-3-3-2-4h3v4c9-2 12 2 10 12l5 2c0-10 5-13 15-9Z"/><path style="opacity:.836" fill="#a82024" d="M248 334c7-1 9 2 6 9-5 1-8 0-8-5 0-2 0-3 2-4Z"/><path style="opacity:.913" fill="#a82024" d="M318 335c8 0 12 5 11 14-3 5-8 7-14 5-6-4-7-9-4-15 2-2 4-4 7-4Z"/><path style="opacity:.838" fill="#a82024" d="M371 336c6 0 7 4 4 9-7 1-9-2-7-7l3-2Z"/><path style="opacity:.909" fill="#a82024" d="M425 336c12-2 16 4 12 16l-3 2c9 1 12 6 9 15-5 4-10 5-15 1-1-4-2-7-1-10s2-4 5-5c-12-1-15-6-11-16 1-2 2-3 4-3Z"/><path style="opacity:.517" fill="#a82024" d="M239 337h4v4h-4v-4Z"/><path style="opacity:.9" fill="#a82024" d="M335 338c10-2 14 2 12 13-5 4-10 5-15 1-2-6-2-10 3-14Z"/><path style="opacity:.913" fill="#a82024" d="M446 341c10-2 14 2 12 13l-2 3c-9 4-14 1-16-7 0-4 2-7 6-9Z"/><path style="opacity:.891" fill="#a82024" d="M24 342c10-1 13 3 9 12-10 3-14 0-12-9l3-3Z"/><path style="opacity:.867" fill="#a82024" d="M45 343c7 0 10 4 8 11-4 4-8 5-13 1-2-6-1-10 5-12Z"/><path style="opacity:.821" fill="#a82024" d="M228 345c1 5 0 7-5 6-3-5-1-7 5-6Z"/><path style="opacity:.834" fill="#a82024" d="M237 345c8-1 10 2 5 9-8 0-9-3-5-9Z"/><path style="opacity:.866" fill="#a82024" d="M303 358c2-1 5 0 8 2 6-4 9-2 10 5 7-1 8 1 5 7-4 0-7-1-7-5-4 1-7 0-9-3-2 2-4 2-7 1 0 5-2 9-7 12l-11-4-1-2c-2-9 2-14 11-14-2-8 1-10 8-8 2 3 2 6 0 9Zm0 0-2 3-3-3h5Z"/><path style="opacity:.788" fill="#a82024" d="m234 359-1 1c-6 0-8-2-6-7 6-3 8-1 7 6Z"/><path style="opacity:.751" fill="#a82024" d="M386 352h4v3h-4v-3Z"/><path style="opacity:.862" fill="#a82024" d="M61 354c4-2 7 0 9 5-2 5-6 7-11 5-2-4-2-8 2-10Z"/><path style="opacity:.889" fill="#a82024" d="M149 354c8-2 12 2 11 11l-4 4c7 2 9 6 6 14-5 4-10 3-14-1-2-6 0-10 5-12-8-2-11-6-8-13 1-2 2-3 4-3Z"/><path style="opacity:.893" fill="#a82024" d="M348 354c8 0 11 4 9 12-5 5-9 5-14 0-2-6 0-10 5-12Z"/><path style="opacity:.881" fill="#a82024" d="M219 357c7 0 10 4 8 12-3 4-8 5-12 2-5-6-3-11 4-14Z"/><path style="opacity:.876" fill="#a82024" d="m233 360 1-1c12-2 15 2 10 14 7 4 7 10 2 16l-7 2c2 7 0 11-7 13 2 3 2 7 0 10 9-1 12 4 9 13-7 3-11 2-13-5l1-6c-8 1-11-2-10-10 2-3 4-4 8-5-4-4-4-7-1-11 2-2 5-3 8-3l-3-7c-5 1-7-1-5-6 3-2 6-1 7 3l4-4c-6-3-8-8-4-13Z"/><path style="opacity:.929" fill="#a82024" d="M43 362c14 0 19 8 13 22-7 5-14 5-21-1-4-10-2-17 8-21Z"/><path style="opacity:.9" fill="#a82024" d="M180 366c1 8-3 12-11 11-5-2-7-6-5-11l2-3c5-3 10-2 14 3Z"/><path style="opacity:.883" fill="#a82024" d="M15 364c8-1 11 3 10 11-2 4-6 6-11 4-2 0-3-2-4-3-2-6 0-10 5-12Z"/><path style="opacity:.889" fill="#a82024" d="M362 364c8-2 12 2 11 11-2 3-5 4-8 4 4 11 0 15-11 14l-3-2c-2 7-7 10-14 7-1 9-6 11-13 6-3-7-1-11 6-12 1 0 3 0 4 2 0-5 2-8 6-10-11-1-14-6-10-15 4-3 8-3 13-1 4 6 3 11-2 15 3 0 6 1 8 4 0-3 1-6 3-8-5 0-7-3-5-7 5-3 8-1 8 5l5-1c-3-5-3-9 2-12Z"/><path style="opacity:.904" fill="#a82024" d="M453 364c9 1 13 6 10 16-5 5-11 6-17 2-5-9-3-15 7-18Z"/><path style="opacity:.888" fill="#a82024" d="M414 365c7-1 10 2 8 10l-9 3c-4-4-4-8-1-12l2-1Z"/><path style="opacity:.897" fill="#a82024" d="M81 383c-1-1-2 0-2 1-9 0-13-4-12-12l4-5c7-2 12 0 14 8l-4 8Z"/><path style="opacity:.817" fill="#a82024" d="m284 371 1 2c-1 5-4 7-10 5-2-5-1-8 4-9l5 2Z"/><path style="opacity:.853" fill="#a82024" d="M311 369c7-1 10 2 9 10-5 6-9 6-14 0-1-5 1-8 5-10Z"/><path style="opacity:.895" fill="#a82024" d="M212 375c9-2 13 1 12 11-2 5-6 7-11 5-8-5-8-11-1-16Z"/><path style="opacity:.893" fill="#a82024" d="M430 375c11-1 15 4 12 15-5 4-10 5-16 1-4-7-3-12 4-16Z"/><path style="opacity:.869" fill="#a82024" d="M296 377c7-1 10 3 9 11-5 2-9 2-13-1-1-5 0-8 4-10Z"/><path style="opacity:.865" fill="#a82024" d="m171 393-1-1-1-1-1-1c-2-10 2-13 11-10 3 3 3 7 1 11l-9 2Z"/><path style="opacity:.831" fill="#a82024" d="M283 391c-4-5-3-8 3-10 4 0 6 3 4 8l-7 2Z"/><path style="opacity:.829" fill="#a82024" d="M322 382c8-1 10 2 5 9-8 0-9-3-5-9Z"/><path style="opacity:.851" fill="#a82024" d="m138 387 1-1 1-1c7-2 10 1 7 9-7 2-10 0-9-7Z"/><path style="opacity:.854" fill="#a82024" d="M305 388c0-3 2-4 5-3s4 3 3 7l-5 1c4 5 3 9-1 13h-7c0 6-3 8-8 5-1-5 0-8 6-7-3-9 0-12 9-12-2-1-2-3-2-4Z"/><path style="opacity:.915" fill="#a82024" d="M383 386c5 8 3 13-7 14 2 3 2 6 0 9l2 2c0-10 5-13 14-10 5 10 2 15-9 15l-1 9-2 3 8 2 1 1 1 1c1 8-2 13-11 13 3 9 0 15-9 17-9-2-13-7-11-15-3 5-7 7-12 4-2-1-4-3-4-5l-6 8c5-3 8-1 9 5-1 4-4 6-8 4-1-1-2-2-2 0l3 10c1-7 4-10 11-10-3-4-1-7 3-8 4 1 6 3 4 8l-4 2c4 5 3 10-1 14h-9l-1 1a364 364 0 0 0 10 33c2-7 6-9 13-7 3 2 4 4 4 8l-3 6c10-1 14 4 12 15-6 7-12 7-18 1a1562 1562 0 0 0 26 81l-13 11-10-26c-1 4-4 6-8 5-4-3-4-6 0-9 3-1 5 0 7 3l-4-15-8-5c3 7 2 11-6 14-8-3-10-8-5-15l7-2a263 263 0 0 0-29-15l-8-5c-7 4-14 6-22 5 2 4 2 8-1 11 7 3 10 8 6 16-5 4-9 4-14 0l-2-7-5 3c3 1 4 4 5 8 5-3 8-1 8 5 9-3 13 1 13 11l-5 5c8 3 11 8 7 17-6 3-11 3-16 0-3-7-2-12 5-16-7-3-10-7-7-14h-5c3 10-1 15-11 14-5-3-7-7-5-12 1-3 3-4 6-5-3-2-4-5-4-7-3 4-7 5-12 2-3-10 0-14 10-12 2 2 3 4 3 8 1-2 2-4 4-4-6-4-7-8-4-13 5-4 9-4 14 0-3-7-1-10 6-12l-8-4c0 9-4 13-13 11-3-1-4-2-5-4v-8c1-2 2-4 5-5h9c-8-16-3-29 13-37l12-2c-5-3-7-6-4-11l5-3c-3 0-5-2-6-3-1 8-6 11-14 10l-1-1-1-1-3-7c-3 3-6 3-10 1-3-7-1-11 5-12 3 0 6 2 7 6 5-6 10-6 15 0l4-8c-9 0-12-4-10-12 4-4 8-4 13-2 2 4 2 8 0 12l10 3 1 2c0 4-1 8-3 11l-3 1c4 2 5 6 5 11-3 2-5 4-8 4l10 4 1 1 1 1c6 6 9 15 8 25l10 5 11 6c-3-4-3-7 1-9h6l-17-50c-1 6-5 9-11 9-5-4-7-8-4-13 4-4 9-4 13 0l-9-32-14-6-2 8c-2 4-6 5-10 4-8-4-8-10-2-16 3-1 6-2 9-1-10-17-6-30 10-40 18-5 30 1 36 20v12c2-3 5-4 9-2-1-3 0-6 1-8 3-2 5-3 9-3-3-4-4-8-3-12 2-4 4-6 8-7-4-6-3-10 5-11-5-4-4-8 1-12h8Zm-67 35c12-1 17 4 15 17-7 9-14 10-22 2-4-9-2-15 7-19Zm51 11 8-1v11c-3-2-5-3-8-3v-7Zm-8 15-1-4c1-2 3-2 5-1l-4 5Zm-22 7-2 3c-2-2-1-3 2-3Zm2 101-11-6-10-5c1-10-2-19-8-25 4 0 8-1 11-5 7 3 9 1 8-7-4-1-7 0-9 3l-2-5c6 0 10-3 11-9l17 50h-6c-4 2-4 5-1 9Zm-33-46c-1 3 0 5 2 8l-10-4c3 0 5-2 8-4Zm49 11 8 2c-3 3-4 6-5 10l-3-12Zm-67 7c12-2 16 4 14 16-7 7-13 7-20 0-2-7 0-13 6-16Zm59 25 2 9-8-5c2 0 4-2 6-4Zm-70 21 7 2c-3 0-5 2-6 4l-1-6Zm-2 28c-6-1-6-3-1-4l1 4Z"/><path style="opacity:.876" fill="#a82024" d="M460 389c10-1 13 3 9 13-9 3-13 0-13-8l4-5Z"/><path style="opacity:.892" fill="#a82024" d="m168 390 1 1 1 1 1 1c1 10-3 14-13 10-5-10-2-15 10-13Z"/><path style="opacity:.907" fill="#a82024" d="M262 390c11-1 15 4 13 15-7 6-13 6-19-1-5 6-10 6-15 1-1-10 2-13 12-12l3 4c1-4 3-6 6-7Z"/><path style="opacity:.517" fill="#a82024" d="M283 391v4h-4v-4h4Z"/><path style="opacity:.842" fill="#a82024" d="M290 391c4 0 6 2 4 7l-5 1c2 9-2 12-10 8-3-7 0-10 8-9-1-4 0-6 3-7Z"/><path style="opacity:.88" fill="#a82024" d="M130 394c6-2 9 1 11 7-3 7-8 8-14 4-1-5 0-8 3-11Z"/><path style="opacity:.838" fill="#a82024" d="M212 394c8-1 10 3 7 10-8 3-11 0-10-7l3-3Z"/><path style="opacity:.867" fill="#a82024" d="M101 396c7-1 11 2 11 10 5-6 10-6 14 1 1 9-3 12-12 9l-4-7c-3 3-7 3-11 1-5-6-4-10 2-14Z"/><path style="opacity:.787" fill="#a82024" d="M315 396c5 0 7 2 5 7-8 1-9-1-5-7Z"/><path style="opacity:.861" fill="#a82024" d="M355 397c9-2 12 2 8 11-6 2-10 1-11-5 0-3 1-5 3-6Z"/><path style="opacity:.903" fill="#a82024" d="M419 398c7-3 12 0 13 8-2 7-6 10-13 8-5-3-6-6-5-11 1-3 3-4 5-5Z"/><path style="opacity:.914" fill="#a82024" d="M442 398c10-2 15 3 13 14-6 7-12 7-18 1-3-7-1-12 5-15Z"/><path style="opacity:.893" fill="#a82024" d="m188 465 2 1c2 2 4 5 4 10 8-1 12 2 12 11l4-2c-4-7-2-9 5-6 1 3 0 5-2 6 8 2 11 8 10 17l-4 6 4 3c0-5 2-7 6-9-3-2-4-4-3-7-1-2 0-4 2-6-9 0-12-4-9-12 4-3 8-3 12 1 2-6 6-8 12-6 3 3 3 7 1 12-4 2-8 2-11 0l-3 3c5-1 9 1 11 6 1 6-2 10-9 10 3 1 4 4 4 8 3-3 6-4 10-3-3-5-3-9 1-13l4-1c-6-2-7-6-5-11l6-4c-8-6-8-11 0-17 10-1 14 4 11 14-2 2-5 4-8 4 5 3 6 6 3 12l-3 2c3 3 4 7 3 12l-3 3-6 1c1 3 2 7 1 11l-5 4c7 2 8 6 4 12-9 1-12-2-9-9l3-2c-7-1-10-6-10-12-3 1-6 1-8-1l-1 6c4 1 6 4 4 9l-4 1c2 10-2 13-11 11l-1-1-2-9c-5 2-10 2-14 0-1 4-4 6-8 4-3-3-3-6 0-8h5c-2-9 2-14 10-15 3 0 6 1 8 4l2-3c-13-2-17-9-13-20-2-2-4-2-5-1 4 6 3 12-1 18-7 3-13 3-18 0l-3-9c0-3 1-6 3-8l-6-1c-2 0-3-2-4-3l-2 2c7 3 8 8 4 15-7 3-12 1-14-6 0-4 2-7 5-8l-2-4c-3 2-6 2-9 1l-1-1c-2-5-2-8 2-11-5-1-7-4-7-8-5 4-10 3-14-1-2-7 1-11 8-12 4 1 7 4 8 9 2-2 5-3 8-2 0-5-2-6-5-4-7-2-9-5-7-11 4-6 9-6 13 0 0 4 1 5 5 3-6-5-6-10 0-15l-6-1-5 7h-9c1 10-3 14-13 12l-1-1-1-1c-4-5-4-9-1-13 4-4 8-4 13-1 0-9 4-11 12-8 0-5 3-8 7-10 3-1 6 0 8 3 0-7 4-11 11-11-3-5-2-9 3-12 8-1 12 3 10 12l-7 5c2 7 0 12-8 14l-7-4c0 2-1 5-3 7 9 3 11 8 6 16l-7 1c5 2 6 5 5 11-2 3-5 4-8 4 0 4-1 7-3 10 3 1 4 4 5 8 2-1 4 0 6 2l2-5c-6-2-7-5-3-9h3c-1-8 2-10 9-8l3 5c2-3 5-4 9-3Zm-11 7v5c-2-2-4-2-6 0-1-1-2-2-1-3l6-1 1-1Zm15 17-11-2 1-6 8-1c-1 3 0 6 2 9Zm29 33v5c-4-1-7 0-9 2 0-3 1-6 3-8l6 1Z"/><path style="opacity:.888" fill="#a82024" d="m202 426-1-1-1-1c-1-3 0-5 1-7l-8-2c-4-8-2-12 6-14 6 1 9 5 7 12-3 2-3 3 2 4l2 4c5-6 10-6 15 0 3 7 1 12-7 15-7-2-10-5-10-11l-6 1Z"/><path style="opacity:.901" fill="#a82024" d="M401 401c8-1 12 3 10 12-5 5-10 5-15-1-1-5 0-9 5-11Z"/><path style="opacity:.905" fill="#a82024" d="M154 419c-10 0-14-4-12-13 5-5 10-6 15-1 3 5 2 10-3 14Z"/><path style="opacity:.869" fill="#a82024" d="M341 403c5-2 9 0 11 6-3 7-7 8-13 4-1-4 0-7 2-10Z"/><path style="opacity:.894" fill="#a82024" d="M0 418v-8c4-6 9-6 14 0 2 8-1 11-9 11l-5-3Z"/><path style="opacity:.901" fill="#a82024" d="M63 456c-2-11 3-15 14-12l2-6c-11 1-16-3-15-13 1-3 2-5 5-6s6-2 10-1c-2-10 2-14 12-12 5 4 6 9 2 15l-10 2v11l6 1c-2-7 1-11 7-11 3-1 5 0 7 3 2-7 6-10 13-8l4 4c2 11-3 14-13 11l-3-3c-1 7-5 9-12 7 1 8-3 12-11 11 0 8-4 12-12 11-3-1-5-2-6-4Z"/><path style="opacity:.93" fill="#a82024" d="M27 411c12-1 17 4 15 17-5 7-11 8-19 4-7-9-5-16 4-21Z"/><path style="opacity:.882" fill="#a82024" d="M286 411c8 1 10 5 7 13-3 3-7 3-11 1-5-7-4-11 4-14Z"/><path style="opacity:.891" fill="#a82024" d="M247 412c8-2 12 2 10 11l-3 3c4 2 6 5 4 11-4 5-9 5-13 0-2-5 0-9 5-11-6-2-8-6-6-11l3-3Z"/><path style="opacity:.892" fill="#a82024" d="M463 412c7-2 11 1 12 8-1 6-4 9-9 9-6 0-9-3-9-8s2-8 6-9Z"/><path style="opacity:.888" fill="#a82024" d="M54 414c7 1 10 5 7 13-3 3-7 3-11 1-5-7-4-11 4-14Z"/><path style="opacity:.887" fill="#a82024" d="m193 415-1 5 8 4 1 1 1 1 1 8c7-3 9 0 8 7l-4 2c8 4 10 10 4 18l5 3c1-4 3-6 7-7 5 1 7 4 5 10-3 2-6 2-9 1-1 7-5 10-12 8l-4-3c-6 2-8 0-8-5 2-3 5-3 8-1 0-2 1-3 3-4-5 0-9-2-11-5-2-9 1-14 10-16l-4-3c-4 3-9 4-14 3l-4-2-1 3c8 2 10 7 6 15-5 2-8 2-12-1 0 4-3 6-7 4-2-3-2-5 1-7 1-1 3-1 4 1 0-4 1-7 4-10-4-5-3-8 4-8-3-8-1-13 7-16-3-1-4-3-3-6 2-2 4-2 7 0Zm2 43c-3-2-5-2-7 0 4-8 2-13-6-15l1-3 4 2c5 1 10 0 14-3l4 3c-9 2-12 7-10 16Z"/><path style="opacity:.872" fill="#a82024" d="M265 414c7 0 10 4 8 12l-3 3c4 2 6 5 4 10-5 4-9 3-11-3 0-4 1-6 5-6-8-1-11-5-9-12 2-2 3-4 6-4Z"/><path style="opacity:.852" fill="#a82024" d="M132 416c7-1 10 3 7 10-9 3-12 0-10-8l3-2Z"/><path style="opacity:.878" fill="#a82024" d="M350 416c7-1 10 3 8 11-6 4-11 3-13-4 0-4 2-6 5-7Z"/><path style="opacity:.885" fill="#a82024" d="m390 432-1-1-1-1c-3-11 1-14 11-11 4 9 1 13-9 13Z"/><path style="opacity:.896" fill="#a82024" d="M413 420c6-1 9 2 11 9-1 5-4 8-10 9-8-2-10-7-7-14 2-2 3-4 6-4Z"/><path style="opacity:.89" fill="#a82024" d="M434 420c7 0 12 4 14 12 4-3 8-3 12 1 1 3 0 6-1 9l-3 1c8 4 9 10 4 17-9 3-13 0-15-8-6 1-9-1-6-7 3-2 6-1 8 3 1-2 3-4 6-4-4-2-6-4-7-7-6 7-12 7-19 2-5-9-2-16 7-19Z"/><path style="opacity:.887" fill="#a82024" d="M280 428c9-2 13 2 12 12-2 3-6 5-10 6 3 7 2 12-5 16 4 2 6 6 4 11l-5 4c3 4 2 7-2 9-5-2-6-5-2-9-7-5-7-10 0-15-7-3-9-8-7-15 3-5 7-6 13-5-4-5-3-10 2-14Z"/><path style="opacity:.92" fill="#a82024" d="M7 430c10-2 15 2 15 13-2 5-5 7-10 8-9-2-13-7-11-15 1-3 3-5 6-6Z"/><path style="opacity:.883" fill="#a82024" d="M234 430c8 0 11 4 9 13-4 3-8 3-12 1 0 8-5 11-12 8-4-4-4-7-1-11 3-3 7-3 10 0-1-6 1-9 6-11Z"/><path style="opacity:.903" fill="#a82024" d="M45 433c9-1 13 3 11 13-5 4-10 5-15 1-3-6-2-11 4-14Z"/><path style="opacity:.877" fill="#a82024" d="M398 434c11 0 13 5 8 14-7 3-12 0-13-7 0-3 2-6 5-7Z"/><path style="opacity:.861" fill="#a82024" d="M466 434c5-1 8 1 9 6-2 5-5 7-10 5-5-4-4-8 1-11Z"/><path style="opacity:.889" fill="#a82024" d="M97 484c-8 1-12-2-12-9-4 4-8 4-12 2l-1-1c-3-11 1-15 12-12-5-10-2-14 9-13 2 2 3 4 3 8l4-2c-5-5-6-9-1-14 10-4 14 0 12 11l-5 4 3 8c5-4 9-3 13 2 2 5 0 9-4 12 3 3 4 7 3 12 9 1 12 6 9 15-6 5-11 4-16-2-1 12-7 16-18 11-6-6-6-12 1-18 7-3 12-1 16 6 0-4 1-7 4-9-8 0-11-4-10-10 1-3 2-4 5-5-4-3-6-6-6-10l-7 2c2 4 2 8-2 12Zm-13-20h9c0 2 1 3 3 5-4 0-6 1-9 3l-3-8Z"/><path style="opacity:.89" fill="#a82024" d="M250 442c9 0 13 5 9 15-4 3-8 3-12 2-2 8-7 11-14 8-5-5-4-10 2-14 2-1 4-1 7 1 0-6 2-10 8-12Z"/><path style="opacity:.933" fill="#a82024" d="M413 465c-5-12-1-19 11-21 10 1 13 7 11 18-4 6-9 8-16 6l-6-3Z"/><path style="opacity:.81" fill="#a82024" d="M385 447c6 1 8 4 4 9-6 1-8-1-7-6l3-3Z"/><path style="opacity:.925" fill="#a82024" d="M0 474v-9c3-6 8-7 15-4l3 5c0-15 7-20 21-16 5 5 7 11 3 19-6 5-12 6-19 2l-4-4c0 8-5 12-13 11l-6-4Z"/><path style="opacity:.87" fill="#a82024" d="m123 451 1 1 1 1c0 8-3 11-10 8-3-4-3-8 1-11 2-1 4 0 7 1Z"/><path style="opacity:.831" fill="#a82024" d="m400 464-1 1c-8 2-11-1-9-8 2-3 5-3 8-1 2-6 6-7 11-3 1 7-2 9-9 7v4Z"/><path style="opacity:.902" fill="#a82024" d="M63 456c2 7-1 12-9 14-7-2-10-6-8-13 3-5 6-7 12-5l5 4Z"/><path style="opacity:.741" fill="#a82024" d="M195 458c1 4 0 7-5 8l-2-1c-2-3-2-5 0-7s4-2 7 0Z"/><path style="opacity:.848" fill="#a82024" d="M439 458c8-2 10 2 7 9-9 1-11-2-7-9Z"/><path style="opacity:.862" fill="#a82024" d="M309 459c7-1 10 2 8 10-4 4-8 4-12 0-1-5 0-8 4-10Z"/><path style="opacity:.873" fill="#a82024" d="M413 465c3 10-1 14-11 12l-3-2c-2 4-5 6-9 5l-3-6c-4 3-7 3-11 0-1-9 2-12 10-8l2 5c3-3 6-3 9 0a13142 13142 0 0 0 3-7c4-3 8-3 13 1Z"/><path style="opacity:.827" fill="#a82024" d="M366 464c5-1 7 1 7 7-2 4-6 5-10 2-1-4 0-7 3-9Z"/><path style="opacity:.892" fill="#a82024" d="M458 466c8 0 11 4 10 13-3 4-7 6-12 4-8-7-7-13 2-17Z"/><path style="opacity:.926" fill="#a82024" d="M431 470c11-1 18 4 20 15 0 4-1 7-3 10 6-2 11 0 15 7 1 7-2 12-10 14-10-3-13-9-9-18-10 5-18 3-24-7-2-11 1-18 11-21Z"/><path style="opacity:.937" fill="#a82024" d="M41 472c11-1 15 5 11 16-4 2-9 3-13 2 1 19-7 25-25 19-8-7-9-15-4-23 5-6 11-8 19-6l5 4c0-6 2-10 7-12Z"/><path style="opacity:.886" fill="#a82024" d="M136 487c-11 2-15-2-11-13 7-4 11-2 14 6l-3 7Z"/><path style="opacity:.889" fill="#a82024" d="m72 476 1 1c1 11-4 14-14 11-4-5-4-9 0-14 4-2 9-2 13 2Z"/><path style="opacity:.886" fill="#a82024" d="m307 486-1-2c-1-7 1-11 8-11 8 2 9 7 5 14-5 2-9 2-12-1Z"/><path style="opacity:.836" fill="#a82024" d="M347 495c-1-7 1-10 8-9-4-7-2-9 6-8 2 2 2 5 0 8l-5 1c3 5 2 8-4 10-3 0-4-1-5-2Z"/><path style="opacity:.835" fill="#a82024" d="M390 480c4 3 3 7-1 10-6 0-8-2-7-7 2-3 4-4 8-3Z"/><path style="opacity:.854" fill="#a82024" d="m366 495-1-1c-3-10 0-14 10-11 3 9 0 13-9 12Z"/><path style="opacity:.883" fill="#a82024" d="M79 483c9 0 12 5 9 14-5 5-10 5-15 0-3-7-1-12 6-14Z"/><path style="opacity:.873" fill="#a82024" d="M97 484c8-1 11 2 7 10-6 2-9 0-10-5 0-2 1-4 3-5Z"/><path style="opacity:.836" fill="#a82024" d="M405 485c2-1 5 0 8 1 3 7 0 10-7 9-4-3-4-7-1-10Z"/><path style="opacity:.869" fill="#a82024" d="m147 487 1 1c2 4 2 8-1 12-8 3-13 1-14-6 0-3 1-5 3-7 3-2 7-2 11 0Z"/><path style="opacity:.841" fill="#a82024" d="M60 501c-1 0-2 1-1 2-9 2-12 0-10-8 7-4 10-2 11 6Z"/><path style="opacity:.927" fill="#a82024" d="m365 494 1 1c2 8-1 10-9 7-1-7 1-10 8-8Z"/><path style="opacity:.913" fill="#a82024" d="M376 495c10-2 14 3 13 14-6 7-12 7-18 1-3-7-1-12 5-15Z"/><path style="opacity:.907" fill="#a82024" d="M399 496c9-1 12 4 10 13-5 6-11 6-16 0-2-7 0-11 6-13Z"/><path style="opacity:.883" fill="#a82024" d="M416 497c8 0 11 4 8 12-10 4-14 0-12-9 1-2 2-3 4-3Z"/><path style="opacity:.895" fill="#a82024" d="m59 503 1-2c3-3 7-4 12-3 6 5 6 10 1 16-10 3-15-1-14-11Z"/><path style="opacity:.843" fill="#a82024" d="M83 502c8 0 10 4 5 11-7 1-10-1-9-7 1-2 2-4 4-4Z"/><path style="opacity:.907" fill="#a82024" d="m275 503 1 1 1 1c2 11-2 15-13 13-5-6-4-11 1-16 3-1 6 0 10 1Z"/><path style="opacity:.865" fill="#a82024" d="m149 516-2-1c-5-9-2-12 8-11 4 7 2 11-6 12Z"/><path style="opacity:.855" fill="#a82024" d="m318 505 2 5c2-3 5-4 9-3 1 8-1 10-8 7-3 4-7 5-11 5l-1-1-1-1c-2-3-3-5-2-8 2-5 6-6 12-4Z"/><path style="opacity:.827" fill="#a82024" d="M433 504c5-1 8 2 7 8-4 5-7 5-11 0-1-4 0-7 4-8Z"/><path style="opacity:.904" fill="#a82024" d="M38 522c-5-12-1-18 12-17 5 3 7 8 5 15-5 5-11 6-17 2Z"/><path style="opacity:.855" fill="#a82024" d="M133 505c7-1 9 1 6 8-7 1-9-2-6-8Z"/><path style="opacity:.85" fill="#a82024" d="M176 509c4 8 1 12-8 10-5-8-2-12 8-10Z"/><path style="opacity:.88" fill="#a82024" d="M388 513c9 0 13 4 10 14-6 5-11 4-16-2-1-6 1-10 6-12Z"/><path style="opacity:.928" fill="#a82024" d="M412 513c18-2 26 6 22 25-6 8-13 12-23 9 2 3 3 6 3 10 7-5 13-4 17 4 1 7-2 12-10 14-8-2-11-7-10-14l-5 4c4 7 2 10-6 9-3-4-3-8 2-10-8-3-11-8-7-15 3-4 7-5 12-5-11-12-9-23 5-31Z"/><path style="opacity:.889" fill="#a82024" d="m147 515 2 1 2 8c5-7 10-7 15-1 2 9-2 13-11 11-3-2-5-6-5-9-2 4-6 5-10 4-6-3-7-8-3-13 3-2 6-3 10-1Z"/><path style="opacity:.872" fill="#a82024" d="M188 526h-4c0 10-5 13-14 9-5-7-3-12 6-14l4 2c0-8 4-10 10-6 1 3 0 6-2 9Z"/><path style="opacity:.894" fill="#a82024" d="M79 516c12-1 15 4 10 15-8 3-13 1-15-7 0-4 2-6 5-8Z"/><path style="opacity:.904" fill="#a82024" d="M264 518c2 3 3 6 2 11-5 5-9 5-14 0-2-10 2-13 12-11Z"/><path style="opacity:.895" fill="#a82024" d="M328 549c-6-5-6-10 0-14-8-3-11-8-7-15 6-5 11-4 15 2 2 5 0 9-4 12 4 0 6 3 7 8-1 6-5 8-11 7Z"/><path style="opacity:.899" fill="#a82024" d="M38 522c2 10-2 15-13 14-7-5-8-11-2-17 5-3 10-2 15 3Z"/><path style="opacity:.898" fill="#a82024" d="M117 519c10-2 15 2 12 13-5 4-10 5-15 1-2-6-2-10 3-14Z"/><path style="opacity:.884" fill="#a82024" d="M442 520c10-1 13 3 9 13-10 3-14 0-13-9l4-4Z"/><path style="opacity:.93" fill="#a82024" d="M99 522c9-2 12 2 11 12-3 3-6 4-10 4 2 2 4 4 5 8 4-5 8-4 12 1 9-16 22-19 39-11 11 11 13 23 5 37-4 5-10 8-17 10l-15 62-13-7-1-3 8-40c-3 4-8 6-13 3-5-5-6-10-1-16 8-4 14-1 16 9l2-12c-9-7-13-16-12-26-4 2-8 2-11-2-4 8-11 11-19 6-8-14-4-21 12-22-3-5-3-10 2-13Zm41 23c11 2 14 8 9 19-10 6-17 3-20-8 1-6 4-10 11-11Z"/><path style="opacity:.833" fill="#383635" d="M947 523c5-1 10 0 15 5l-4 4c-9-6-14-4-16 6 1 7 5 10 13 8l2-5h-7v-6h13l-1 14c-7 4-14 5-21 1-6-7-7-14-3-21 2-3 5-5 9-6Z"/><path style="opacity:.847" fill="#383635" d="M1023 523c9-1 14 3 17 12 0 15-8 20-22 16-8-6-9-14-5-22 3-4 6-6 10-6Zm0 6c9 0 13 4 10 14-5 5-10 5-15 0-2-6-1-11 5-14Z"/><path style="opacity:.909" fill="#383635" d="M626 524h6v28h-6v-28Z"/><path style="opacity:.86" fill="#383635" d="M642 524h5c4 5 8 9 11 15l1-15h7v28l-5-1-13-15v16h-6v-28Z"/><path style="opacity:.875" fill="#383635" d="M673 524h24v6h-9v22h-6v-22h-9v-6Z"/><path style="opacity:.844" fill="#383635" d="M704 524h22v6h-15v5h15v6h-15v5h15v6h-22v-28Z"/><path style="opacity:.89" fill="#383635" d="M735 524h18c5 3 7 7 5 13l-5 5 7 9h-8c-3-5-7-7-11-8v9h-6v-28Zm6 6h10c2 3 1 5-2 7l-8 1v-8Z"/><path style="opacity:.896" fill="#383635" d="M767 524h6l11 15 1-15h6v28l-5-1-13-16v17h-6v-28Z"/><path style="opacity:.85" fill="#383635" d="M800 524h22v6h-16v5h16v6h-16v5h16v6h-22v-28Z"/><path style="opacity:.81" fill="#383635" d="M830 524h24v6h-8v22h-7v-22h-9v-6Z"/><path style="opacity:.898" fill="#383635" d="M870 524h19c5 4 5 8 2 13 3 4 3 8 1 13l-22 2v-28Zm6 6h10v4l-10 1v-5Zm0 11h10c2 3 2 4-2 5l-8 1v-6Z"/><path style="opacity:.824" fill="#383635" d="M902 524h7v20c3 3 6 3 10 2l2-5 1-17h6l-2 23c-2 4-6 6-11 6s-9-2-12-6c-1-8-2-16-1-23Z"/><path style="opacity:.871" fill="#383635" d="M979 524c7-1 14 0 21 1 3 4 3 8 1 12 4 5 3 10-2 14l-20 1v-28Zm6 6c3-1 7 0 11 1 1 1 0 2-1 3l-10 1v-5Zm0 11h11c2 2 1 4-2 5l-9 1v-6Z"/><path style="opacity:.879" fill="#383635" d="M1049 524h6v19c2 3 5 4 10 3l2-3 1-19h6l-1 22c-4 6-9 8-16 6l-7-4c-1-8-2-16-1-24Z"/><path style="opacity:.89" fill="#383635" d="M1084 524h6l11 15 1-15h6v28l-5-1-13-16v17h-6v-28Z"/><path style="opacity:.81" fill="#383635" d="M1116 524h24v6h-9v22h-7v-22h-8v-6Z"/><path style="opacity:.855" fill="#383635" d="M1175 524v2l-11 14v12h-6l-1-11-10-16c2-2 5-2 8 0l6 9 6-9c2-1 5-2 8-1Z"/><path style="opacity:.946" fill="#a82024" d="m51 559-1-1-1-1c-9-11-8-21 3-30 18-5 27 2 26 22-6 11-15 15-27 10Z"/><path style="opacity:.798" fill="#a82024" d="M231 528c3-1 6 0 7 4-2 4-5 5-9 3-1-3 0-6 2-7Z"/><path style="opacity:.905" fill="#a82024" d="M385 532c9 0 13 4 10 14-3 3-7 4-11 3-5-3-7-7-5-12 1-3 3-4 6-5Z"/><path style="opacity:.855" fill="#a82024" d="M192 537c7-1 9 2 6 8-7 1-9-2-6-8Z"/><path style="opacity:.894" fill="#a82024" d="M256 537c5-2 9 0 11 6-3 7-8 8-14 4-1-4 0-8 3-10Z"/><path style="opacity:.812" fill="#a82024" d="M182 538c6-1 8 2 6 8-7 2-9 0-8-6l2-2Z"/><path style="opacity:.826" fill="#a82024" d="m212 539 1 1c1 6-1 9-8 8-4-8-2-11 7-9Z"/><path style="opacity:.861" fill="#a82024" d="M34 539c6 0 9 3 7 10-4 3-7 3-11 0-1-5 0-8 4-10Z"/><path style="opacity:.865" fill="#a82024" d="M172 539c6 0 8 4 6 11-3 3-7 3-10 1-4-6-3-10 4-12Z"/><path style="opacity:.857" fill="#a82024" d="M226 539c6 1 7 4 4 9h-6v5c7-3 10-1 9 7-2 1-5 2-8 1l-3-6-6 1c2 10-2 13-11 11-6-5-6-10 1-14h7c-1-6 2-9 8-7 0-4 2-6 5-7Z"/><path style="opacity:.863" fill="#a82024" d="m257 556-6 1c-1 5-4 7-9 6-4-3-4-7-1-11-6 0-8-3-8-7-1-3 0-5 3-6 5-2 9 0 11 6l-4 6 6 3c2-4 4-5 7-2l1 4Z"/><path style="opacity:.866" fill="#a82024" d="M435 541c8-1 11 2 9 11-3 3-7 3-10 1-5-4-4-9 1-12Z"/><path style="opacity:.892" fill="#a82024" d="M367 557c-1-9 3-12 12-10 5 5 5 9 0 14-6 2-10 0-12-4Z"/><path style="opacity:.856" fill="#a82024" d="M184 550c8-1 11 3 7 11-11 1-13-3-7-11Z"/><path style="opacity:.816" fill="#a82024" d="M172 556c5-1 7 1 6 7-4 4-7 3-9-2 0-3 1-4 3-5Z"/><path style="opacity:.844" fill="#a82024" d="m49 557 1 1 1 1v9l-1 1c-10 1-13-3-9-11 2-1 5-2 8-1Z"/><path style="opacity:.812" fill="#a82024" d="M106 559c6-1 8 2 6 8-7 2-9 0-8-6l2-2Z"/><path style="opacity:.904" fill="#a82024" d="M381 562c11 1 14 7 9 17-12 4-18 0-16-12 2-3 4-4 7-5Z"/><path style="opacity:.886" fill="#a82024" d="m214 583-1 1c-9 2-13-1-13-9-9 4-13 1-12-9 3-3 6-4 10-3 1 1 3 2 3 4l1 6c7-4 11-3 14 5l-2 5Z"/><path style="opacity:.88" fill="#a82024" d="M239 583c-6 1-9-1-9-6-7 3-12 1-13-7 2-8 6-10 14-6l2 10c7-1 9 2 6 9Z"/><path style="opacity:.905" fill="#a82024" d="m317 563 2 1c2 3 3 6 2 11-3 3-7 4-11 3l-1-1c-5-9-2-14 8-14Z"/><path style="opacity:.917" fill="#a82024" d="m50 569 1-1c7-6 14-5 19 3 1 12-4 17-16 14-5-5-7-10-4-16Z"/><path style="opacity:.792" fill="#a82024" d="M78 565c7 0 8 3 4 9-5 1-7-2-7-6l3-3Z"/><path style="opacity:.843" fill="#a82024" d="M241 565c4-1 7 1 7 6 2-5 5-6 10-4 2 3 2 5 1 9-5 3-9 2-12-3-4 3-7 2-8-3-1-3 0-4 2-5Z"/><path style="opacity:.827" fill="#a82024" d="M296 565c6-1 8 2 6 9-3 2-6 2-9-1-1-4 0-6 3-8Z"/><path style="opacity:.899" fill="#a82024" d="M93 566c9-2 14 3 13 13-3 5-7 7-13 5-8-6-8-12 0-18Z"/><path style="opacity:.869" fill="#a82024" d="M174 568c5-2 8 1 7 7l-6 2c4 6 3 11-3 14-7 1-10-2-11-8 1-6 5-9 12-8-2-3-1-5 1-7Z"/><path style="opacity:.915" fill="#a82024" d="m309 577 1 1c2 4 2 8-1 12 3 0 6 0 10 2l1 1 1 1c5 9 2 16-7 21-11-1-16-6-15-16 1-3 2-5 5-7-7-2-9-6-7-12 3-4 7-5 12-3Z"/><path style="opacity:.906" fill="#a82024" d="M399 576c9-1 13 4 11 14-3 5-8 7-14 4-8-8-7-14 3-18Z"/><path style="opacity:.854" fill="#a82024" d="m239 597-1 1-1 1c-10 3-14 0-13-10 4-5 8-6 13-1l2-5c2-1 4-3 5-6 4 0 4 2 2 5 3 4 2 7-3 10l-4-2v7Z"/><path style="opacity:.856" fill="#a82024" d="M187 578c8-1 11 2 10 11-3 5-7 6-12 3-5-6-4-10 2-14Z"/><path style="opacity:.904" fill="#a82024" d="m321 594-1-1-1-1c-3-11 1-16 12-14 3 3 4 7 3 13-4 3-8 4-13 3Z"/><path style="opacity:.866" fill="#a82024" d="m213 584 1-1c6-2 9 0 7 7-2 2-4 2-6 1-1 9-6 12-15 9-3-5-3-9 1-13 4-2 8-2 11 2l1-5Z"/><path style="opacity:.848" fill="#a82024" d="M147 586c8-2 10 1 6 8-7 1-9-2-6-8Z"/><path style="opacity:.814" fill="#a82024" d="M383 588c4-2 6 0 8 4-2 6-5 7-10 4-2-4-1-6 2-8Z"/><path style="opacity:.932" fill="#a82024" d="M74 589c11-2 16 3 14 15-3 5-8 7-14 5-6-3-8-8-6-14 1-3 3-5 6-6Z"/><path style="opacity:.782" fill="#a82024" d="M293 591c2-1 4 0 6 1 1 2 0 4-3 6-3-2-4-4-3-7Z"/><path style="opacity:.781" fill="#a82024" d="M98 593c5-1 7 1 6 7-3 4-6 3-9-1-1-3 0-5 3-6Z"/><path style="opacity:.898" fill="#a82024" d="m171 611-2-1c-6-6-6-12 1-17 9-2 13 2 12 12-2 4-6 6-11 6Z"/><path style="opacity:.863" fill="#a82024" d="m237 599 1-1 1-1c7-2 10 0 11 8 4-2 7-1 9 3-2 4-4 6-8 4l-3-3c-9 3-13 0-11-10Z"/><path style="opacity:.902" fill="#a82024" d="M338 597c7-2 12 1 14 9-2 8-7 11-14 9-8-6-8-12 0-18Z"/><path style="opacity:.814" fill="#a82024" d="M191 598c5 0 7 2 5 8-3 2-5 2-8 0-1-4 0-7 3-8Z"/><path style="opacity:.827" fill="#a82024" d="M389 600c7 0 8 3 5 9-5 2-8 0-8-4 0-3 1-4 3-5Z"/><path style="opacity:.812" fill="#a82024" d="M155 601c5 0 7 2 5 8-3 2-5 2-8 0-1-4 0-7 3-8Z"/><path style="opacity:.901" fill="#a82024" d="M223 602c8-1 12 3 11 12l-3 4c-11 3-15-2-13-12l5-4Z"/><path style="opacity:.9" fill="#a82024" d="M94 606c8-1 13 3 12 12-3 6-8 8-14 5-6-7-6-13 2-17Z"/><path style="opacity:.904" fill="#a82024" d="M204 606c11-1 14 4 10 15-6 4-11 3-15-2-2-6 0-11 5-13Z"/><path style="opacity:.793" fill="#a82024" d="m169 610 2 1c2 5 0 8-6 8-5-6-4-9 4-9Z"/><path style="opacity:.888" fill="#a82024" d="M145 611c8-2 12 2 11 11-4 5-9 6-14 2-3-6-2-10 3-13Z"/><path style="opacity:.912" fill="#a82024" d="M183 613c11-2 15 2 13 14-5 6-11 6-17 1-3-6-1-11 4-15ZM353 613c12 0 16 6 11 18-7 5-14 4-19-3-2-8 1-13 8-15Z"/><path style="opacity:.903" fill="#a82024" d="M314 615c9 0 14 5 13 15 8-4 13-2 16 7-3 9-9 12-17 7-2-4-3-7-3-11-9 4-15 1-17-8 0-5 3-9 8-10Z"/><path style="opacity:.901" fill="#a82024" d="M257 619c11-1 15 4 12 15-6 6-12 6-18 0-2-7-1-12 6-15Z"/><path style="opacity:.904" fill="#a82024" d="M236 623c9-1 14 4 12 14l-2 3c-12 4-17 0-16-11 1-3 3-5 6-6Z"/><path style="opacity:.913" fill="#a82024" d="M210 626c11 0 15 6 10 17-3 2-7 3-11 2-6-3-8-7-6-13 1-3 4-5 7-6Z"/><path style="opacity:.919" fill="#a82024" d="M152 632c12-1 17 4 14 17-5 5-11 6-17 2-6-8-5-14 3-19Z"/><path style="opacity:.939" fill="#a82024" d="M179 636c13-2 19 4 17 18-5 8-12 10-20 5-7-6-7-13-2-20l5-3ZM277 667h-10c-8-4-12-11-10-19 5-10 12-13 22-9 6 4 8 11 6 19-2 4-5 7-8 9Z"/><path style="opacity:.907" fill="#a82024" d="M299 638c11-2 15 3 12 14-5 5-11 5-16 0-3-6-1-11 4-14Z"/><path style="opacity:.919" fill="#a82024" d="M221 667h-11c-5-5-6-11-3-16 7-6 13-5 18 3 2 5 0 9-4 13Z"/><path style="opacity:.903" fill="#a82024" d="M239 648c9-1 12 4 10 13-3 3-7 4-12 3-6-6-6-12 2-16Z"/></svg>