<svg height="13.79mm" viewBox="0 0 34.66 13.79" width="34.66mm" xmlns="http://www.w3.org/2000/svg" xmlns:xlink="http://www.w3.org/1999/xlink"><linearGradient id="a" gradientTransform="matrix(70.15 -70.15 70.15 70.15 31.51 66.85)" gradientUnits="userSpaceOnUse" x1=".1521" x2=".5468" y1="-.5875" y2="-.4003"><stop offset="0" stop-color="#6fdc8c"/><stop offset=".3049" stop-color="#6fdc8c"/><stop offset=".9279" stop-color="#009d9a"/><stop offset="1" stop-color="#009d9a"/></linearGradient><g fill="url(#a)" stroke-width=".7367" transform="matrix(.9807783 0 0 .992419 -.9241 -.976)"><path d="m10.91 14.79-.9823-3.261h-4.578l-.9823 3.261h-3.025l4.519-13.71h3.693l4.46 13.71zm-3.242-11h-.09823l-1.513 5.206h3.143z"/><path d="m15.39 14.79v-2.377h1.768v-8.959h-1.768v-2.377h6.522v2.377h-1.768v8.959h1.768v2.377z"/><path d="m35.8 14.79h-3.458l-2.967-5.049h-.05894l-2.888 5.049h-3.222l4.401-7.092-4.185-6.621h3.477l2.672 4.636h.05894l2.711-4.636h3.222l-4.224 6.68z"/></g></svg>