<svg height="32" viewBox="0 0 37 32" width="37" xmlns="http://www.w3.org/2000/svg"><path d="m18.62.152c-.035 0-.07.004-.105.011-.825.008-1.594.427-2.01 1.128l-8.067 13.619-8.067 13.619h.001c-.883 1.491.262 3.425 2.027 3.425h16.135 16.135c1.765 0 2.911-1.934 2.028-3.425l-8.067-13.619-8.068-13.619c-.378-.639-1.053-1.047-1.801-1.119-.038-.011-.076-.018-.115-.02h-.001c-.008 0-.016 0-.025 0z"/><path d="m18.62.655c-.681-.032-1.326.312-1.667.888l-8.067 13.619-8.068 13.619c-.69 1.166.201 2.67 1.582 2.67h16.134 16.135c1.38 0 2.271-1.504 1.581-2.67l-8.067-13.619-8.068-13.619c-.31-.524-.874-.859-1.494-.888z" fill="#fff"/><path d="m18.596 1.157c-.49-.022-.951.224-1.196.637l-8.067 13.62-8.067 13.619c-.505.851.125 1.914 1.134 1.914h16.134 16.135c1.008 0 1.638-1.063 1.134-1.914l-8.068-13.619-8.067-13.62c-.223-.376-.627-.616-1.072-.637z"/><path d="m34.669 29.671h-16.135-16.134l8.067-13.619 8.067-13.62 8.067 13.62z" fill="#fc0"/><path d="m20.81 26.292c0 1.225-1.019 2.219-2.276 2.219s-2.276-.994-2.276-2.219 1.019-2.219 2.276-2.219 2.276.994 2.276 2.219z"/><path d="m18.534 9.141c-1.257 0-2.276.993-2.276 2.219.815 9.425 0 0 .815 9.425 0 .787.654 1.425 1.461 1.425s1.462-.638 1.462-1.425c.814-9.425 0 0 .814-9.425 0-1.225-1.019-2.219-2.276-2.219z"/></svg>