<svg height="32" viewBox="0 0 32 32" width="32" xmlns="http://www.w3.org/2000/svg"><path d="m13.86 1.849c.429-.741 1.222-1.246 2.14-1.246s1.711.505 2.14 1.246l12.903 25.806c.212.366.342.784.342 1.236 0 1.371-1.111 2.482-2.482 2.482l-25.806.01c-1.371 0-2.482-1.111-2.482-2.481 0-.453.13-.87.342-1.236z" fill="#fcea2b"/><path d="m16.993 22.936c0 .548-.445.992-.993.992s-.993-.444-.993-.992v-14.387c0-.548.445-.992.993-.992s.993.444.993.992z" fill="#fff"/><path d="m16.993 27.402c0 .549-.445.993-.993.993s-.993-.444-.993-.993c0-.548.445-.992.993-.992s.993.444.993.992z" fill="#fff"/><g fill="none" stroke="#000" stroke-linecap="round" stroke-linejoin="round" stroke-width="1.231"><path d="m13.86 1.849c.429-.741 1.222-1.246 2.14-1.246s1.711.505 2.14 1.246l12.903 25.806c.212.366.342.784.342 1.236 0 1.371-1.111 2.482-2.482 2.482l-25.806.01c-1.371 0-2.482-1.111-2.482-2.481 0-.453.13-.87.342-1.236z"/><path d="m16.993 22.936c0 .548-.445.992-.993.992s-.993-.444-.993-.992v-14.387c0-.548.445-.992.993-.992s.993.444.993.992z"/><path d="m16.993 27.402c0 .549-.445.993-.993.993s-.993-.444-.993-.993c0-.548.445-.992.993-.992s.993.444.993.992z"/></g></svg>