<svg height="88" viewBox="0 0 100 88" width="100" xmlns="http://www.w3.org/2000/svg"><path d="m15.917 25.478v62.114h66.313v-62.114z" fill="#fdd005"/><path d="m72.447 48.535c-.9.179-2.429.899-3.42 1.35-.18.09-.18.36 0 .36.271.09.451.179.63.36.451.539.991.99.991 1.71 0 .809-.451 1.079-.36 1.799.269 1.441 1.439 2.88 1.439 4.411-.089 1.169-1.17 1.169-1.8 1.98-.18.27-.27.539-.27.899 0 .361-.09.99.27.99.45.091.54-.809.99-.809.63.089.541.99 1.081.99h23.669c-.09-.271-.27-.63-.449-.72-1.171-1.08-4.141-2.521-4.68-4.23-.901-2.611.27-5.94.63-8.821 1.259-8.369.81-12.96-.72-19.89-.811-3.96-1.441-7.469-2.61-11.339-.181-.72-1.17-1.71-1.531-2.34-.27-.45-.54-1.261-.63-1.801-.63-2.97-.359-5.849-2.52-8.37-.81-.9-2.34-.99-3.33-1.62-1.889-.99-3.779-1.98-5.67-3.149-.27-.181-1.08-.451-1.529-.181 2.159 1.531 3.6 3.33 4.229 6.03.27 1.26.63 2.25-.629 2.97-.361.181-2.701 1.711-3.781 4.32-.27.54-1.799 4.051-3.6 7.381-2.159-1.171-4.32-1.26-5.849-1.26-1.62 0-4.501.179-5.851 1.169-2.879 2.161-4.14 4.95-5.039 8.101-.721 2.429-1.17 4.95-1.35 7.47-.181 3.42.18 7.199.539 10.62.271 2.249.54 4.41.72 6.66.45 2.429.36 4.32.27 4.769-.809 2.521-2.069 3.421-4.499 3.871-.361 0-.541.179-.451.36h6.751 8.28c.719 0 .899-.36 1.62-.99.99-.99-.361-2.7 0-4.95.81-5.581 3.239-10.62 4.409-16.02.18-.63.271-1.441.361-2.34.449 2.16 1.079 4.229 1.709 6.3.63 2.159 1.26 3.33 2.251 3.869-.09 0-.181 0-.271.091z" fill="#231f20"/><path d="m77.127 62.304c.451-1.529.72-2.61.181-4.23-.361-1.259-1.441-2.249-1.89-3.509-.541-1.71-.09-3.6-.991-5.131-.179-.36-.63-.72-1.079-.99-1.08-.63-1.441-.99-1.89-2.069-.18-.36-.361-.72-.451-1.08-.989-2.88-1.709-5.85-2.249-8.731-.271 1.531-.45 2.97-.72 4.501-.451 1.709-.901 3.33-1.441 4.95-1.169 3.419-2.34 6.93-2.88 10.53-.09.72-.09 1.35 0 2.07.09.63.631 1.98 0 2.699-.63.72-.81.901-1.44.99-2.069 0-4.5 0-6.569 0 .45-.179.899-.539 1.17-.99.81-1.709-1.261-7.109-1.711-9.089-.359-1.71-1.17-3.33-1.439-5.041-.091-1.169-.27-4.769-.091-5.67 0-.27.18-.36.36 0 .181 1.531-.269 4.95.54 6.66.181.451.991.181 1.26-.179.72-.901 1.081-1.98 1.44-3.06.54-1.89.991-2.97 1.26-5.49.271-2.43-.269-3.241 0-5.67.18-.99-.09-2.07.45-3.69.63-1.89 1.171-3.151 2.521-4.32 1.079-1.081 2.789-1.35 4.319-1.531 4.14 0 3.601 4.501 4.501 6.841.269.809 1.08 2.789 1.529 3.6.36.809.99 2.249 1.441 3.6.36.99.269 2.43 0 2.969-.271.451.18.721.539.361.451-.721.451-1.26.72-2.071.27-.809.45-2.07.721-2.789.449-1.261 1.35-2.43 1.619-3.781.27-1.259.09-2.519-.36-3.779-.269-.45-1.259-3.33-1.799-4.14-1.26-1.351-2.251-1.53-4.321-3.15-.359-.271-.81-.541-1.26-.81 1.08-2.52 2.521-4.771 3.511-7.29.81-2.071 2.159-3.15 3.689-4.321 2.61 1.53 2.431 1.62 2.79 4.681-.09 1.62.091 3.239 0 4.77 0 .63-.449 2.069-.449 2.699.09.99 0 1.35.179 2.431.09.81.9 1.529.721 2.34-.541 3.599-2.071 6.93-2.16 10.529-.09 3.511.54 8.28 3.509 10.621.361.269 1.081-.18 1.17-.63.451-2.071-.179-4.32.09-6.391.18-1.35.541-2.879.99-4.229.361-1.081 1.26-3.6 1.98-4.411.181-.36.63-.089.45.181-.089 0-1.619 3.33-2.249 5.849-.72 2.701-1.35 6.661.359 9.091.54.9 1.71 1.799 2.52 3.149.451.811.72 4.411.54 5.31-.36 2.52-3.419 6.57-6.39 6.84-1.079 0-2.159 0-3.24 0z" fill="#fff"/><path d="m71.817 51.054v-.179c-.09-.091-.359-.27-.359-.27-.361-.36-.18-1.08.359-1.171.901-.27 1.89 0 2.161.811.27.72-.181 1.62-.811 2.159-.539.541-1.44.09-1.799.181-.181.09-.181.179-.09.27.36.179.99.179 1.529.179.36 0 .72-.179.99-.089.181.089.271.449.271.63 0 .449-.271.899-.271 1.26.09.269.36.269.54.45.81 1.26.72 1.98.901 3.149.18 1.441 1.619 1.801 1.53 2.161 0 .089-.09.18-.271.089-.449-.449-1.259-.449-1.889-.36-.36 0-.54.541-.99.631-.18.089-.541 0-.631-.271-.269-.36.18-.99-.09-1.35-.179-.27-.899-.36-.899-.9 0-1.44-.991-2.789-1.35-4.139-.091-.36-.091-.541 0-.901.269-.63.449-1.439 0-2.069-.181-.271.81.089 1.169-.271z" fill="#fff"/><path d="m73.707.565c1.531.81 3.42 3.69 4.41 5.219.451.63 1.081.091.81-.449-1.529-2.161-3.329-3.96-5.22-4.77zm-7.649 23.669c1.169.271 2.7 1.44 3.059 2.521.361 1.08.45 1.71 0 4.859 0 .181.361.36.45 0 .09-.809 0 0 .09-.36.09-.539.451-.449.631-.179-.361-1.081-.091-2.071 1.259-1.98.721.09.63.63 1.801.899.359.091 1.169-.179 1.35-.809.449-1.35 0-2.521-1.08-3.42-.631-.541-1.441-.811-2.25-.27-.181.179-.451.719-.451.99.18 1.169-.45.809-.899 0-.63-.99-2.7-2.43-3.96-2.251zm7.469 17.101c.541-1.71-.089-4.23-.45-6.121-.18-.63.63-.809.81-.179.54 2.519.45 4.41-.36 6.3zm2.97-32.4c-.18.089-.899.63-1.35.9.99.179 2.34.899 2.97 2.07.451.99.81 2.429.99 3.419 0-.63-.09-3.419.181-3.779.449-.541 1.35-.091 1.98.179.449.181.72.72 1.169.99.451.181.901.27 1.35.091.45-.091.901-.451 1.081-.9.269-.811-.541-4.05-2.34-3.33-.721.27-.811 1.35-1.441 1.889-.359.27-.72.361-1.169.27-.451 0-.991-.27-1.441-.63-.63-.449-1.259-.99-1.98-1.169z" fill="#f57215"/><g fill="#231f20"><path d="m72.628 49.885c.269 0 .63.36.539.45-.18.18-.27-.09-.63-.09-.269 0-.539.09-.539-.091 0-.179.27-.269.63-.269z"/><path d="m6.809 47.499-5.703-.586c.215-.998.526-1.784.931-2.358.406-.572.99-1.069 1.753-1.492.547-.302 1.3-.538 2.258-.705.958-.166 1.995-.249 3.109-.249 1.79 0 3.227.1 4.312.3 1.086.2 1.99.618 2.713 1.251.508.44.909 1.062 1.203 1.867.293.805.44 1.574.44 2.306v6.866c0 .732.046 1.305.139 1.72s.295.944.608 1.588h-5.588c-.224-.401-.37-.708-.439-.918-.068-.21-.136-.542-.204-.992-.784.754-1.562 1.293-2.335 1.615-1.058.432-2.286.647-3.686.647-1.86 0-3.272-.43-4.236-1.289-.964-.86-1.447-1.92-1.447-3.181 0-1.182.348-2.154 1.043-2.917.695-.761 1.978-1.328 3.848-1.7 2.242-.449 3.696-.764 4.362-.945.665-.181 1.37-.417 2.115-.71 0-.723-.153-1.231-.457-1.519-.304-.291-.839-.435-1.604-.435-.981 0-1.717.157-2.208.467-.382.243-.691.699-.927 1.369m5.196 3.125c-.826.293-1.684.551-2.578.774-1.218.323-1.989.64-2.313.951-.333.321-.5.687-.5 1.096 0 .468.164.851.493 1.148s.812.445 1.451.445c.668 0 1.288-.161 1.863-.482s.982-.714 1.223-1.177c.24-.462.361-1.063.361-1.805z"/><path d="m21.585 36.523h5.976v21.484h-5.976z"/><path d="m38.567 36.523v5.937h3.281v4.375h-3.281v5.497c0 .661.063 1.099.191 1.312.196.331.539.496 1.03.496.441 0 1.059-.127 1.853-.378l.442 4.113c-1.477.323-2.857.484-4.137.484-1.487 0-2.583-.191-3.287-.569-.704-.381-1.225-.957-1.563-1.731-.337-.774-.506-2.029-.506-3.762v-5.462h-2.187v-4.375h2.187v-2.866z"/><path d="m21.59 61.181h5.977v21.484h-5.977z"/><path d="m31.619 61.181h5.977v4.063h-5.977zm0 5.938h5.977v15.546h-5.977z"/><path d="m41.375 67.119h5.565v2.542c.829-1.039 1.667-1.781 2.516-2.225.848-.447 1.881-.669 3.1-.669 1.648 0 2.937.491 3.868 1.472.931.98 1.397 2.495 1.397 4.545v9.881h-5.977v-8.536c0-.974-.181-1.664-.541-2.068-.362-.404-.869-.607-1.522-.607-.722 0-1.307.274-1.756.818-.449.547-.673 1.526-.673 2.94v7.453h-5.977z"/><path d="m77.791 82.665h-5.58v-2.514c-.828 1.034-1.665 1.77-2.508 2.208-.844.438-1.879.658-3.107.658-1.638 0-2.923-.491-3.854-1.471s-1.396-2.491-1.396-4.531v-9.896h5.977v8.554c0 .977.18 1.67.541 2.08s.868.616 1.522.616c.711 0 1.294-.274 1.748-.821s.681-1.528.681-2.944v-7.485h5.976z"/><path d="m80.106 67.119h7.07l2.441 4.333 2.872-4.333h6.562l-5.295 7.407 5.686 8.139h-6.953l-2.872-5.007-3.378 5.007h-6.446l5.652-8.139z"/></g></svg>