<svg height="352" viewBox="0 0 1043 352" width="1043" xmlns="http://www.w3.org/2000/svg"><path d="m527.784 75.56-16.26-57.762 56.655-17.329 18.847 57.754z" fill="#fd0000"/><path d="m718.144 350.968c-21.895-2.284-39.04-9.838-55.972-24.662-23.449-20.528-35.461-41.106-41.4-70.917-2.524-12.67-2.535-41.666-.019-53.34 5.363-24.892 18.296-49.174 36.176-67.923 10.287-10.788 18.778-17.207 30-22.678 13.494-6.579 22.254-8.584 40.076-9.171 29.344-.966 49.019 3.814 73.591 17.879l10.833 6.2v48.659c-4.273-.715-11.972 1.91-15-1.485 0-2.933-7.25-23.148-10.591-29.53-7.558-14.439-19.682-25.375-33.409-30.137-5.382-1.866-8.565-2.247-18.5-2.213-19.921.069-33.08 4.873-43.276 15.799-10.886 11.666-16.048 26.738-18.189 53.11-1.376 16.947-1.326 85.681.073 98.667 3.918 36.387 16.632 55.021 41.892 61.396 9.319 2.352 28.216 1.512 36.418-1.618 7.179-2.74 13.899-8.708 17.248-15.318 4.11-8.111 5.297-16.355 5.316-36.921l.018-18.75h-36v-9h88.257l-.699 10.25c-1.347 19.725-5.083 32.18-13.526 45.089-11.721 17.923-33.128 31.419-56.532 35.641-8.651 1.561-26.596 2.035-36.785.973z"/><path d="m.465 347.015 88.732-244.5 12.33.199c.916.014 81.902 232.76 81.902 233.962l26 .339v10h-69.769l-25.711-72.023-76.904.523-25.364 71.5zm108.987-82.75-32.456-97.125-35.525 97.875z"/><path d="m223.429 117.015h-35v-9l92.5.004 49.378 160.173 51.585-160.177h55.537v229h33v10h-79l-.519-222.815-71.567 222.815h-12.72l-71.115-223.5-.079 223.5h-12z"/><path d="m485.429 337.015h33v-229h81v9h-35v220h35v10h-114z"/><path d="m833.524 347.015 88.732-244.5 12.33.199c.916.014 81.901 232.76 81.901 233.962l26 .339v10h-69.768l-25.712-72.023-76.904.523-25.363 71.5zm108.987-82.75-32.456-97.125-35.525 97.875z"/></svg>