<svg height="126" width="600" xmlns="http://www.w3.org/2000/svg" xmlns:xlink="http://www.w3.org/1999/xlink"><linearGradient id="a" gradientTransform="matrix(-.22894919 0 0 .22893635 198.41522 68.52471)" gradientUnits="userSpaceOnUse" x1="541.33502" x2="606.91248" y1="104.50665" y2="303.14029"><stop offset="0" stop-color="#fff" stop-opacity="0"/><stop offset="1" stop-color="#fff" stop-opacity=".27451"/></linearGradient><g fill="#838383" fill-rule="evenodd" transform="matrix(.63977748 0 0 .63977748 -53.035926 -161.410612)"><path d="m339.96875 309.09375c-14.47141-.0239-26.4812 2.94367-31.125 4.5625l-4.78125 25.8125c-.0116.0951 23.79543-6.34855 34.28125-5.96875 17.36158.62381 18.95948 6.63541 18.65625 14.75.29595.47462-4.47933-7.33192-19.5-7.59375-18.94961-.32687-45.69284 6.70947-45.65625 35.3125-.51086 32.17412 24.03361 41.63882 40.75 41.8125 15.02821-.27364 22.0777-5.69136 25.9375-8.59375 5.07124-5.30236 10.87308-10.63447 16.40625-17.03125-5.23567 9.51278-9.77472 16.0898-14.5 21.125v4.25l22.84375-3.84375.15625-62.09375c-.23141-8.78839 5.04123-42.41827-43.46875-42.5zm-3.28125 54.0625c9.46889.12995 20.32788 4.79708 20.34375 16.03125.049 10.21821-12.80005 15.71183-21.15625 15.625-8.35976-.0868-19.45093-6.56982-19.5-16.53125.16016-8.90444 10.45953-15.35418 20.3125-15.125z"/><path d="m398.50106 314.83145-.15505 102.82693 26.61213-5.12724.0449-58.30157c.006-8.68089 12.40554-18.82451 27.9627-18.66287 3.30202-5.97408 9.5087-21.24219 11.02088-24.71514-34.75649-.0833-35.19897 9.98993-41.24398 14.94517-.0631-9.45285-.0213-15.12741-.0213-15.12741z"/><path d="m548.2688 328.33058c-.25696-.12068-13.87938-15.93419-41.26638-16.0589-25.65249-.42638-54.42578 9.51895-54.88631 52.5328.22457 37.81852 27.6402 52.59809 55.0314 52.88627 29.31292.30451 40.97654-18.32947 41.67615-18.79124-3.49762-3.0321-16.59792-16.0131-16.59792-16.0131s-8.18236 11.65102-24.05802 11.79913c-15.87942.1512-29.68245-12.27325-29.87805-29.60905-.20349-17.33595 12.68881-26.72821 29.99725-27.48687 14.98466-.003 23.6297 9.67334 23.6297 9.67334z"/><path d="m581.8125 278.84375-25.125 5.90625.1875 133.9375 24.75-4.46875.28125-63.03125c.0529-6.60927 9.56127-16.75916 25.4375-16.4375 15.17973.15775 18.57236 10.11767 18.53125 11.375l.4375 72.96875 24.40625-4.3125.0937-77.375c.1607-7.44539-16.30833-23.16954-42.78125-23.28125-12.58087.0202-19.54815 2.86825-23.09375 4.96875-6.06656 4.68565-12.9998 9.17543-19.8125 14.90625 6.29809-8.09099 11.58551-13.68516 16.75-17.84375z"/></g><g transform="translate(0 -74)"><g fill-rule="evenodd"><path d="m74.211365 79.368008c-4.917141 12.055521-7.882921 19.941256-13.357518 31.638422 3.356612 3.558 7.476695 7.70148 14.167694 12.38115-7.193478-2.96007-12.100317-5.93192-15.767273-9.01581-7.006436 14.62001-17.983504 35.44556-40.259525 75.47103 17.508203-10.10779 31.080248-16.33935 43.728741-18.71715-.543129-2.33599-.851923-4.86283-.83095-7.49932l.02078-.56089c.277817-11.21704 6.112913-19.84295 13.025139-19.25727 6.912233.58568 12.285035 10.15915 12.007225 21.3762-.05225 2.11069-.290326 4.14115-.706307 6.02438 12.511168 2.44741 25.938089 8.66301 43.209399 18.63405-3.40557-6.26988-6.44534-11.92172-9.3482-17.30453-4.57248-3.54397-9.34179-8.15647-19.07029-13.14978 6.68681 1.73751 11.47448 3.74214 15.20638 5.98284-29.514196-54.95029-31.904214-62.25205-42.02529-86.003322z" fill="#1793d1"/><path d="m105.31572 145.02324c-23.94382-32.49867-29.493748-58.691612-30.899523-64.945009 12.772333 29.459869 12.685096 29.821139 30.899523 64.945009z" fill="#fff" fill-opacity=".16568"/><path d="m74.419103 79.866578c-.609732 1.498961-1.202153 2.957138-1.765769 4.341713-.628604 1.544171-1.233975 3.021102-1.828087 4.466356-.59407 1.445268-1.182057 2.845712-1.765769 4.237845-.583739 1.392193-1.168269 2.769883-1.765768 4.15475-.597461 1.384814-1.213527 2.773039-1.848865 4.196298-.635337 1.42329-1.296999 2.89652-1.99428 4.40403-.697339 1.50753-1.418664 3.05738-2.202017 4.69487-.106322.22224-.224217.4812-.33238.70631 3.34591 3.54399 7.453541 7.66655 14.105373 12.31883-7.171189-2.9509-12.062459-5.92139-15.725725-8.99503-.19191.39181-.363125.74126-.560892 1.14256-.690858 1.40188-1.453258 2.91443-2.22279 4.44558-.03201.0647-.05094.12205-.0831.18696-.195054.38782-.360354.72483-.560891 1.12178-.03038.0609-.07335.12576-.103866.18696-3.183017 6.3846-7.117424 14.01057-12.173415 23.47434 14.002057-7.89268 29.114515-19.26779 56.546148-9.47282-1.376281-2.60664-2.634105-5.03488-3.822378-7.33314-1.188251-2.29833-2.298699-4.46692-3.323799-6.50219-1.025027-2.03523-1.980181-3.93676-2.866778-5.75432-.88659-1.81753-1.699219-3.54816-2.472076-5.19344-.772903-1.64525-1.497338-3.21808-2.181244-4.73641-.683951-1.51834-1.332956-2.98808-1.952731-4.42482-.619837-1.4368-1.206201-2.837347-1.786543-4.237837-.580396-1.400536-1.158564-2.786613-1.724221-4.196297-.189218-.471454-.392256-.957533-.581665-1.433388-1.560272-3.6608-3.155736-7.451821-5.006472-11.79949z" fill="url(#a)"/></g><g fill="none" stroke="#000" stroke-miterlimit="6.1" stroke-width="1.32952"><g stroke-linecap="round"><path d="m102.93182 159.57686c5.8658 1.63611 10.18607 3.49564 13.61502 5.55445-26.146077-48.67949-31.005479-59.96498-38.810533-78.419367"/><path d="m125.92426 182.5218c-1.92328-3.56055-3.74383-6.94203-5.51349-10.22354-4.33734-3.36178-8.8518-7.68492-17.60815-12.38256"/><path d="m90.026509 171.73947c9.83416 2.43083 20.378411 7.1189 32.991111 14.05822"/><path d="m62.341314 166.61857c-.09883-1.05447-.147324-2.13385-.138589-3.23226l.02078-.56088c.277816-11.21705 6.112913-19.84296 13.025137-19.25727 6.912234.58564 12.285037 10.15914 12.007227 21.37618-.000531.0215-.0014.0431-.0014.0646"/><path d="m23.607126 187.15354c13.373894-7.49936 24.432641-12.56446 34.676579-15.20649"/><path d="m74.640521 122.86014c-6.81856-2.86513-11.527773-5.7443-15.076062-8.72839-6.735628 14.05492-17.140877 33.84494-37.72671 70.91514"/></g><path d="m71.613057 86.313606c-3.379869 8.387197-6.135804 15.237074-10.44902 24.452804 3.24958 3.44455 7.214713 7.43783 13.535401 11.93512"/></g><g style="fill:none;stroke:#000;stroke-width:1.32952;stroke-linecap:round;stroke-linejoin:round;stroke-miterlimit:6.1"><path d="m82.892665 160.41503 3.930466 3.93047 3.799449-3.79945"/><path d="m116.92635 186.75084 5.24842-1.83062-1.76959-5.07347"/><path d="m108.86546 157.88067-5.26193 1.79145 1.73173 5.08652"/><path d="m55.837682 177.12173 2.162729-5.12052-4.949835-2.09064"/><path d="m20.155514 179.9672 1.633102 5.3132 5.136095-1.57867"/><path d="m74.093802 91.680665-2.191427-5.108301-4.938021 2.118378"/></g><g><g fill="#1793d1" fill-rule="evenodd"><path d="m384.13539 91.407063-7.23901 1.791831.21503 85.828776 7.38233-1.25426-.1075-22.32626.14335-18.06168c-.0155-6.13666 9.11924-15.73466 22.29042-15.69643 13.17355.0408 16.16431 11.12173 16.09066 12.43531l.0357 45.01083 6.3431-1.39763-.21502-45.54837c.10077-3.2356-2.96769-17.63542-21.60949-17.73915-19.04769-.33143-23.12158 14.39247-23.18631 14.0838l-.0359-12.90118z"/><path d="m488.01881 178.59101-7.25112 1.47935-.0341-12.9498c-.001-.5564-3.9837 14.46682-23.18113 14.13272-18.64177-.10373-21.69147-14.53565-21.59053-17.77124l-.22998-45.53903 7.70389-1.55549.11886 44.98138c.003 1.22831 1.47444 12.59726 14.64799 12.63781 13.17114.0384 22.39859-7.93129 22.46396-19.93256l-.0938-35.48985 7.17055-1.82989z"/><path d="m523.43245 114.84423c-17.68898.57692-21.4289 14.65842-21.43032 14.11964l-.0357-12.93702-7.27483 1.4693.28669 61.85403 7.38234-1.93515-.10749-39.63534c-.0155-6.06698 8.89443-15.51942 21.82453-15.69646l6.30723-6.80895c-1.58334-.27887-3.30491-.41952-5.19631-.43005-.59997-.0103-1.18537-.0186-1.756 0z"/></g><g transform="matrix(1.1467729 0 0 1.1467729 -104.13899 -352.32237)"><ellipse cx="575.9821689375" cy="437.04893363165" rx="24.8214868954" ry="25.75975533548" style="fill:none;stroke:#1793d1;stroke-linecap:round;stroke-linejoin:round;stroke-miterlimit:10;stroke-width:5.50000024039"/><path d="m597.40357 391.23606 6.32229-1.58232.29915 75.33328-6.42342 1.09377z" fill="#1793d1" fill-rule="evenodd"/></g></g><g fill="#fff" fill-rule="evenodd" stroke="#000" stroke-miterlimit="6.1" stroke-width="1.32952"><path d="m123.05698 70.012001h9.021737v9.021737h-9.021737z" transform="matrix(.88821764 .45942292 -.45942292 .88821764 0 0)"/><path d="m142.61772 109.16473h9.021738v9.021738h-9.021738z" transform="matrix(.93864087 .34489609 -.34489609 .93864087 0 0)"/><path d="m96.088097 42.656971h9.021738v9.021738h-9.021738z" transform="matrix(.9234413 .38373971 -.38373971 .9234413 0 0)"/><path d="m109.62146 149.42459h9.021737v9.021737h-9.021737z" transform="matrix(.86157648 .50762779 -.50762779 .86157648 0 0)"/><path d="m55.506924-223.08432h9.021738v9.021738h-9.021738z" transform="matrix(-.64735865 .76218553 -.76218553 -.64735865 0 0)"/><path d="m177.10855-24.775015h9.021736v9.021736h-9.021736z" transform="matrix(.2381079 .97123871 -.97123871 .2381079 0 0)"/><path d="m142.62817-125.03406h9.021735v9.021735h-9.021735z" transform="matrix(-.22111192 .97524844 -.97524844 -.22111192 0 0)"/></g></g></svg>