<svg height="167" viewBox="0 0 566 167" width="566" xmlns="http://www.w3.org/2000/svg"><path d="m179.532 51.947c-8.073-.013-14.774 1.642-17.364 2.546l-2.668 14.4c-.006.053 13.276-3.542 19.125-3.33 9.686.348 10.578 3.702 10.409 8.229.165.265-2.499-4.09-10.879-4.236-10.572-.183-25.492 3.743-25.472 19.7-.285 17.95 13.409 23.23 22.735 23.327 8.384-.152 12.317-3.175 14.47-4.794 2.829-2.958 6.066-5.933 9.153-9.502-2.921 5.307-5.453 8.977-8.09 11.786v2.371l12.745-2.145.087-34.641c-.129-4.903 2.812-23.665-24.251-23.711zm-1.831 30.161c5.283.073 11.341 2.677 11.35 8.944.027 5.701-7.141 8.766-11.803 8.717-4.664-.048-10.851-3.665-10.879-9.222.09-4.968 5.836-8.567 11.332-8.439z" fill="#4d4d4d"/><path d="m212.187 55.148-.087 57.367 14.847-2.861.025-32.526c.004-4.843 6.921-10.502 15.6-10.412 1.843-3.333 5.305-11.851 6.149-13.788-19.391-.047-19.637 5.573-23.01 8.338-.035-5.274-.012-8.44-.012-8.44z" fill="#4d4d4d"/><path d="m295.741 62.679c-.143-.067-7.743-8.889-23.022-8.959-14.311-.238-30.364 5.311-30.621 29.308.126 21.099 15.421 29.344 30.702 29.505 16.354.17 22.861-10.226 23.251-10.484-1.951-1.691-9.26-8.933-9.26-8.933s-4.565 6.5-13.422 6.582c-8.859.085-16.559-6.847-16.669-16.518-.113-9.672 7.079-14.912 16.736-15.335 8.36-.002 13.183 5.397 13.183 5.397z" fill="#4d4d4d"/><path d="m314.455 35.071-14.017 3.295.105 74.723 13.808-2.493.157-35.165c.029-3.687 5.334-9.35 14.191-9.17 8.469.088 10.361 5.644 10.338 6.346l.244 40.709 13.617-2.406.052-43.167c.089-4.154-9.098-12.927-23.868-12.989-7.018.011-10.905 1.6-12.883 2.772-3.385 2.614-7.253 5.119-11.054 8.316 3.514-4.514 6.464-7.635 9.345-9.955z" fill="#4d4d4d"/><g fill="#1793d1"><path d="m364.777 37.01 6.322-1.582.299 75.333-6.423 1.094z"/><path d="m381.967 59.493 5.54-2.466.048 54.016-5.351 1.106zm-1.317-19.478 4.467-3.647 3.712 4.129-4.47 3.744z"/><path d="m397.927 58.509 6.323-1.29.03 11.293c.001.485 3.471-12.615 20.214-12.324 16.256.09 18.915 12.675 18.827 15.497l.2 39.71-5.542 1.203-.032-39.224c.065-1.145-2.533-10.832-14.02-10.867-11.486-.034-19.444 8.342-19.43 13.694l.092 34.553-6.422 1.678z"/><path d="m498.694 111.681-6.323 1.29-.03-11.293c-.001-.485-3.474 12.616-20.214 12.324-16.256-.09-18.916-12.675-18.828-15.496l-.2-39.711 6.718-1.356.103 39.224c.003 1.071 1.286 10.985 12.774 11.02 11.485.034 19.532-6.916 19.588-17.381l-.081-30.948 6.252-1.596z"/><path d="m511.085 58.064-4.433 3.469 16.998 22.246-18.13 25.7 4.704 3.491 17.043-23.868 17.59 24.433 4.351-3.47-18.851-26.123 15.038-21.126-4.624-3.91-13.699 19.548z"/><path d="m83.813.625c-7.397 18.135-11.859 29.998-20.094 47.594 5.049 5.352 11.247 11.585 21.312 18.625-10.821-4.453-18.202-8.924-23.718-13.563-10.54 21.993-27.053 53.321-60.563 113.532 26.338-15.206 46.754-24.58 65.781-28.157-.817-3.514-1.281-7.315-1.25-11.281l.032-.844c.417-16.874 9.195-29.85 19.593-28.969 10.398.882 18.481 15.283 18.063 32.157-.079 3.175-.437 6.229-1.063 9.062 18.821 3.682 39.019 13.032 65 28.032-5.123-9.432-9.695-17.934-14.062-26.032-6.879-5.331-14.053-12.27-28.688-19.781 10.059 2.614 17.261 5.629 22.875 9-44.398-82.662-47.993-93.646-63.218-129.375z"/><path d="m557.487 108.367v-4.661h-1.741v-.624h4.189v.624h-1.749v4.661z"/><path d="m560.663 108.367v-5.285h1.053l1.251 3.742c.115.349.199.609.252.782.06-.192.154-.474.281-.847l1.266-3.677h.94v5.285h-.674v-4.423l-1.535 4.423h-.631l-1.529-4.499v4.499z"/><path d="m167.726 151.979v-4.556h-1.702v-.61h4.095v.61h-1.709v4.556z"/><path d="m170.831 151.979v-5.166h1.029l1.223 3.658c.112.341.195.596.246.765.059-.188.151-.464.275-.828l1.237-3.595h.92v5.166h-.659v-4.323l-1.501 4.323h-.617l-1.494-4.397v4.397z"/></g></svg>