<svg height="122" viewBox="0 0 576 122" width="576" xmlns="http://www.w3.org/2000/svg" xmlns:xlink="http://www.w3.org/1999/xlink"><linearGradient id="a" gradientUnits="userSpaceOnUse" x1="528.335" x2="593.912" y1="29.507" y2="228.14"><stop offset="0" stop-color="#fff" stop-opacity="0"/><stop offset="1" stop-color="#fff" stop-opacity=".275"/></linearGradient><path d="m151.468 35.341c-9.258-.016-16.942 1.883-19.913 2.919l-3.059 16.514c-.007.061 15.224-4.062 21.933-3.819 11.107.399 12.13 4.245 11.936 9.437.189.304-2.866-4.691-12.476-4.858-12.124-.21-29.233 4.292-29.21 22.592-.327 20.584 15.376 26.639 26.071 26.75 9.615-.175 14.125-3.641 16.594-5.498 3.245-3.392 6.957-6.803 10.497-10.896-3.35 6.086-6.254 10.294-9.277 13.515v2.719l14.615-2.459.1-39.726c-.148-5.622 3.225-27.138-27.811-27.19zm-2.099 34.588c6.058.083 13.005 3.069 13.016 10.256.031 6.537-8.19 10.052-13.536 9.997-5.348-.056-12.444-4.204-12.475-10.577.102-5.697 6.691-9.823 12.995-9.676z" fill="#838383"/><path d="m188.916 39.011-.099 65.787 17.026-3.28.028-37.301c.004-5.553 7.937-12.043 17.89-11.94 2.113-3.822 6.084-13.59 7.051-15.812-22.236-.053-22.519 6.392-26.387 9.562-.04-6.048-.013-9.678-.013-9.678z" fill="#838383"/><path d="m284.734 47.648c-.164-.077-8.88-10.194-26.401-10.274-16.412-.273-34.821 6.09-35.115 33.609.143 24.196 17.683 33.651 35.208 33.836 18.753.194 26.215-11.727 26.663-12.023-2.238-1.94-10.619-10.245-10.619-10.245s-5.235 7.455-15.392 7.549c-10.159.097-18.99-7.852-19.115-18.943-.13-11.091 8.118-17.1 19.192-17.585 9.586-.002 15.117 6.188 15.117 6.188z" fill="#838383"/><path d="m306.195 15.987-16.075 3.779.12 85.69 15.835-2.859.18-40.326c.033-4.228 6.117-10.722 16.274-10.516 9.712.101 11.882 6.473 11.856 7.277l.28 46.684 15.614-2.759.06-49.503c.103-4.763-10.434-14.823-27.37-14.895-8.049.013-12.507 1.836-14.775 3.179-3.881 2.998-8.317 5.871-12.676 9.537 4.03-5.176 7.412-8.755 10.717-11.416z" fill="#838383"/><path d="m61.211 4.368c-4.917 12.056-7.883 19.941-13.357 31.638 3.356 3.558 7.477 7.702 14.168 12.382-7.194-2.96-12.101-5.932-15.768-9.016-7.006 14.62-17.983 35.445-40.259 75.471 17.508-10.108 31.08-16.34 43.728-18.717-.543-2.336-.851-4.863-.83-7.5l.02-.561c.278-11.217 6.113-19.843 13.025-19.257 6.913.586 12.285 10.159 12.008 21.376-.053 2.111-.291 4.142-.707 6.025 12.512 2.447 25.938 8.663 43.21 18.634-3.406-6.27-6.446-11.922-9.348-17.305-4.573-3.544-9.342-8.156-19.071-13.15 6.687 1.738 11.475 3.743 15.207 5.983-29.515-54.95-31.905-62.252-42.026-86.003z" fill="#1793d1"/><path d="m92.316 70.023c-23.944-32.498-29.494-58.691-30.9-64.945 12.773 29.46 12.685 29.821 30.9 64.945z" fill="#fff"/><path d="m61.419 4.867c-.61 1.499-1.202 2.957-1.766 4.341-.628 1.544-1.234 3.021-1.828 4.467-.594 1.445-1.182 2.845-1.766 4.237-.583 1.393-1.168 2.77-1.765 4.155-.598 1.385-1.214 2.773-1.849 4.197-.635 1.423-1.297 2.896-1.994 4.404-.698 1.507-1.419 3.057-2.202 4.694-.107.223-.225.482-.333.707 3.346 3.544 7.454 7.666 14.106 12.319-7.172-2.951-12.063-5.922-15.726-8.995-.192.391-.363.741-.561 1.142-.691 1.402-1.453 2.915-2.223 4.446-.032.064-.051.122-.083.187-.195.387-.36.724-.561 1.121-.03.061-.073.126-.104.187-3.183 6.385-7.117 14.011-12.173 23.475 14.002-7.893 29.114-19.268 56.546-9.473-1.376-2.607-2.634-5.035-3.822-7.333-1.189-2.299-2.299-4.467-3.324-6.502-1.025-2.036-1.98-3.937-2.867-5.755-.887-1.817-1.699-3.548-2.472-5.193s-1.497-3.218-2.181-4.737c-.684-1.518-1.333-2.988-1.953-4.424-.62-1.437-1.206-2.838-1.787-4.238-.58-1.401-1.158-2.787-1.724-4.197-.189-.471-.392-.957-.581-1.433-1.561-3.661-3.156-7.452-5.007-11.799z" fill="url(#a)"/><g fill="none"><path d="m89.932 84.577c5.866 1.636 10.186 3.495 13.615 5.554-26.146-48.679-31.006-59.965-38.811-78.419" stroke="#000" stroke-linecap="round" stroke-linejoin="round" stroke-width="1.33"/><path d="m112.924 107.522c-1.923-3.561-3.744-6.942-5.513-10.224-4.338-3.362-8.852-7.685-17.608-12.382" stroke="#000" stroke-linecap="round" stroke-linejoin="round" stroke-width="1.33"/><path d="m77.027 96.739c9.834 2.431 20.378 7.119 32.991 14.059" stroke="#000" stroke-linecap="round" stroke-linejoin="round" stroke-width="1.33"/><path d="m49.341 91.619c-.099-1.055-.147-2.134-.138-3.233l.021-.561c.277-11.217 6.112-19.843 13.025-19.257 6.912.586 12.285 10.159 12.007 21.376-.001.022-.002.043-.002.065" stroke="#000" stroke-linecap="round" stroke-linejoin="round" stroke-width="1.33"/><path d="m10.607 112.154c13.374-7.5 24.433-12.565 34.677-15.207" stroke="#000" stroke-linecap="round" stroke-linejoin="round" stroke-width="1.33"/><path d="m61.641 47.86c-6.819-2.865-11.528-5.744-15.077-8.728-6.735 14.055-17.14 33.845-37.726 70.915" stroke="#000" stroke-linecap="round" stroke-linejoin="round" stroke-width="1.33"/><path d="m58.613 11.314c-3.38 8.387-6.136 15.237-10.449 24.452 3.25 3.445 7.215 7.438 13.535 11.936" stroke="#000" stroke-linecap="round" stroke-linejoin="round" stroke-width="1.33"/><path d="m69.893 85.415 3.93 3.93 3.8-3.799" stroke="#000" stroke-linecap="round" stroke-linejoin="round" stroke-width="1.33"/><path d="m103.926 111.751 5.249-1.831-1.77-5.073" stroke="#000" stroke-linecap="round" stroke-linejoin="round" stroke-width="1.33"/><path d="m95.865 82.881-5.261 1.791 1.731 5.087" stroke="#000" stroke-linecap="round" stroke-linejoin="round" stroke-width="1.33"/><path d="m42.838 102.122 2.162-5.121-4.949-2.09" stroke="#000" stroke-linecap="round" stroke-linejoin="round" stroke-width="1.33"/><path d="m7.156 104.967 1.633 5.313 5.136-1.578" stroke="#000" stroke-linecap="round" stroke-linejoin="round" stroke-width="1.33"/><path d="m61.094 16.681-2.192-5.109-4.938 2.119" stroke="#000" stroke-linecap="round" stroke-linejoin="round" stroke-width="1.33"/></g><path d="m371.135 16.407-7.239 1.792.215 85.829 7.383-1.255-.108-22.326.144-18.062c-.016-6.136 9.119-15.734 22.29-15.696 13.174.041 16.164 11.122 16.091 12.435l.035 45.011 6.343-1.397-.215-45.549c.101-3.235-2.967-17.635-21.609-17.739-19.048-.331-23.122 14.392-23.186 14.084l-.036-12.901z" fill="#1793d1"/><path d="m475.019 103.591-7.251 1.479-.034-12.949c-.001-.557-3.984 14.466-23.182 14.132-18.641-.103-21.691-14.535-21.59-17.771l-.23-45.539 7.704-1.555.119 44.981c.003 1.228 1.474 12.597 14.648 12.638 13.171.038 22.398-7.932 22.464-19.933l-.094-35.49 7.17-1.83z" fill="#1793d1"/><path d="m510.432 39.844c-17.689.577-21.428 14.659-21.43 14.12l-.036-12.937-7.274 1.469.286 61.854 7.383-1.935-.108-39.635c-.015-6.067 8.895-15.52 21.825-15.697l6.307-6.809c-1.583-.279-3.305-.419-5.196-.43-.6-.01-1.186-.018-1.756 0z" fill="#1793d1"/><path d="m571.846 73.873c0 16.315-12.744 29.541-28.464 29.541-15.721 0-28.465-13.226-28.465-29.541 0-16.314 12.744-29.54 28.465-29.54 15.72 0 28.464 13.226 28.464 29.54z" fill="none" stroke="#1793d1" stroke-linecap="round" stroke-linejoin="round" stroke-width="5.5"/><path d="m567.947 21.337 7.25-1.815.344 86.39-7.367 1.254z" fill="#1793d1"/><path d="m64.136 43.721 8.014 4.145-4.145 8.013-8.014-4.145z" fill="#fff" stroke="#000" stroke-linecap="round" stroke-linejoin="round" stroke-width="1.33"/><path d="m83.216 76.655 8.469 3.111-3.112 8.469-8.468-3.112z" fill="#fff" stroke="#000" stroke-linecap="round" stroke-linejoin="round" stroke-width="1.33"/><path d="m59.363 1.264 8.331 3.462-3.462 8.331-8.331-3.462z" fill="#fff" stroke="#000" stroke-linecap="round" stroke-linejoin="round" stroke-width="1.33"/><path d="m5.595 109.388 7.773 4.579-4.58 7.773-7.772-4.579z" fill="#fff" stroke="#000" stroke-linecap="round" stroke-linejoin="round" stroke-width="1.33"/><path d="m121.099 111.722-5.841 6.876-6.876-5.84 5.841-6.876z" fill="#fff" stroke="#000" stroke-linecap="round" stroke-linejoin="round" stroke-width="1.33"/><path d="m53.233 91.116 2.149 8.762-8.763 2.148-2.148-8.762z" fill="#fff" stroke="#000" stroke-linecap="round" stroke-linejoin="round" stroke-width="1.33"/><path d="m77.402 91.744-1.994 8.799-8.799-1.995 1.995-8.798z" fill="#fff" stroke="#000" stroke-linecap="round" stroke-linejoin="round" stroke-width="1.33"/></svg>