<svg height="129" viewBox="0 0 349 129" width="349" xmlns="http://www.w3.org/2000/svg" xmlns:xlink="http://www.w3.org/1999/xlink"><linearGradient id="a" x1="50%" x2="50%" y1="100%" y2="0%"><stop offset="0" stop-color="#ce1919"/><stop offset="1" stop-color="#ff1919"/></linearGradient><g fill="none" fill-rule="evenodd" transform="translate(-1)"><g fill-rule="nonzero"><path d="m150.344 1.775v3.52c15.561.926 17.784 2.964 17.784 16.672v82.25c0 13.707-2.408 16.116-17.784 16.671v3.52h61.873c14.449 0 27.601-3.89 34.455-10.189 6.67-5.927 10.374-14.263 10.374-23.155 0-8.151-3.334-15.56-9.077-20.933-5.557-5.002-10.559-7.225-22.6-10.189 9.633-2.408 13.523-4.26 17.969-8.15 4.631-4.076 7.41-10.93 7.41-18.525 0-20.748-16.487-31.492-48.535-31.492zm36.68 62.243c17.968 0 26.49.926 33.158 3.705 10.56 4.446 15.56 11.855 15.56 23.526 0 10.003-3.89 17.228-11.3 21.489-5.927 3.334-13.522 4.816-25.748 4.816-9.077 0-11.67-1.667-11.67-7.595zm0-7.41v-42.421c0-3.89 1.296-5.558 4.075-5.558h8.15c21.304 0 32.604 8.892 32.604 25.379 0 14.45-9.818 22.6-27.231 22.6h-17.599m159.491 37.42c-8.892 14.078-16.857 19.45-28.713 19.45-10.559 0-18.525-5.372-23.897-15.93-3.334-7.04-4.63-13.153-5.001-24.453h57.055c-1.481-12.041-3.334-17.413-7.965-23.341-5.557-6.669-14.079-10.56-23.712-10.56-9.262 0-17.968 3.335-25.008 9.634-8.706 7.595-13.708 20.747-13.708 35.937 0 25.564 13.338 41.495 34.641 41.495 17.598 0 31.492-10.93 39.272-30.936zm-57.24-26.861c2.037-14.45 8.335-21.303 19.635-21.303s15.746 5.187 18.154 21.303h-37.79" fill="#2258ac"/><path d="m8.52494762 2.82523004s29.24710358-2.82571146 57.46770428-2.82571146c28.2208579 0 55.4154701 2.82571146 55.4154701 2.82571146 1.895122 0 3.420733 1.57523964 3.420733 3.53207504 0 0 3.742673 31.61279162 3.742673 60.75292492 0 29.1401334-3.742673 55.807866-3.742673 55.807866 0 1.956835-1.525611 3.532075-3.420733 3.532075 0 0-27.1946122 2.119348-55.4154701 2.119348-28.2208578 0-57.46770428-2.119348-57.46770428-2.119348-1.8951218 0-3.42073342-1.57524-3.42073342-3.532075 0 0-4.10498296-26.6677326-4.10498296-55.807866 0-29.1401333 4.10498296-60.75292492 4.10498296-60.75292492 0-1.9568354 1.52561162-3.53207504 3.42073342-3.53207504z" fill="url(#a)"/><path d="m9.337 3.888s28.831-2.786 56.65-2.786c27.82 0 54.628 2.786 54.628 2.786 1.868 0 3.372 1.552 3.372 3.481 0 0 3.69 31.164 3.69 59.89-34.595-1.878-94 23.793-125.759 0 0-28.726 4.047-59.89 4.047-59.89 0-1.929 1.504-3.481 3.372-3.481z" fill="#fff" fill-opacity=".471" opacity=".2"/></g><path d="m25.283 29.74s12.512-14.234 40.115-14.234c25.346 0 34.067 7.996 37.68 14.253 7.653 13.257-21.829 23.732-35.489 23.732s-28.649-3.57-28.68-9.836c-.032-6.367 14.634-10.957 27.972-10.957s20.309 4.01 26.458 10.957c5.172 5.842 6.371 11.192 6.276 15.38-.283 12.415-2.555 15.085-10.56 22.855-7.977 7.743-7.547 10.728-8.813 15.453-1.906 7.114-2.425 13.005-12.262 13.991-16.019 1.607-20.699-16.06-20.699-16.06" stroke="#fff" stroke-width="9"/></g></svg>