<?xml version="1.0" encoding="UTF-8"?>
<svg version="1.1" viewBox="0 0 900 900" xmlns="http://www.w3.org/2000/svg">
 <g transform="translate(0 -152.36)">
  <g transform="matrix(12.774 0 0 13.453 -604.34 -4031.2)">
   <g transform="matrix(.6263 0 0 .6263 33.712 192.3)">
    <g transform="matrix(-.70666 0 0 .70666 -6.093 -40.117)">
     <g transform="translate(-6.4286 -92.643)">
      <path transform="translate(6.4286 84.643)" d="m-190.89 425.76 45 30.536 0.53572 0.35715 8.9286-3.3929 18.929-8.75 17.143-8.75 18.571-10 27.679-16.607 7.8571-4.8214-43.571-21.964-36.786 19.464-17.679 8.3928-24.286 8.75z" fill="#fff"/>
      <path d="m-83.204 466.29c-55.31 31.494-76.664 35.629-103.59 44.233l47.499 31.839c35.855-14.363 69.041-32.88 101.07-53.217l-44.981-22.854zm-0.31477 1.6395 41.707 21.182c-29.705 18.86-63.73 37.898-96.981 51.217l-44.036-29.51c24.971-7.9789 48.018-13.682 99.31-42.889z" fill="#050"/>
     </g>
     <g transform="translate(-6.4286 -96.643)">
      <path transform="translate(6.4286 84.643)" d="m-190.89 425.76 45 30.536 0.53572 0.35715 8.9286-3.3929 18.929-8.75 17.143-8.75 18.571-10 27.679-16.607 7.8571-4.8214-43.571-21.964-36.786 19.464-17.679 8.3928-24.286 8.75z" fill="#fff"/>
      <path d="m-83.204 466.29c-55.31 31.494-76.664 35.629-103.59 44.233l47.499 31.839c35.855-14.363 69.041-32.88 101.07-53.217l-44.981-22.854zm-0.31477 1.6395 41.707 21.182c-29.705 18.86-63.73 37.898-96.981 51.217l-44.036-29.51c24.971-7.9789 48.018-13.682 99.31-42.889z" fill="#050"/>
     </g>
     <g transform="translate(-6.4286 -100.64)">
      <path transform="translate(6.4286 84.643)" d="m-190.89 425.76 45 30.536 0.53572 0.35715 8.9286-3.3929 18.929-8.75 17.143-8.75 18.571-10 27.679-16.607 7.8571-4.8214-43.571-21.964-36.786 19.464-17.679 8.3928-24.286 8.75z" fill="#fff"/>
      <path d="m-83.204 466.29c-55.31 31.494-76.664 35.629-103.59 44.233l47.499 31.839c35.855-14.363 69.041-32.88 101.07-53.217l-44.981-22.854zm-0.31477 1.6395 41.707 21.182c-29.705 18.86-63.73 37.898-96.981 51.217l-44.036-29.51c24.971-7.9789 48.018-13.682 99.31-42.889z" fill="#050"/>
     </g>
     <g transform="translate(0,-14)">
      <path d="m-180.71 422.01s5.7143 3.9286 6.4286 7.1429c0.71428 3.2143 23.929 16.786 23.929 16.786h11.429l7.8571-1.7857 19.643-9.2857 15.714-6.7857 18.929-10.357 17.857-10.714v-11.429l-25.714-12.143-12.857 1.7857-11.786 7.1429-28.929 12.857-37.5 13.214z" fill="#fff"/>
      <g fill="#165016">
       <path d="m-89.656 378.78c-54.911 30.016-76.111 33.956-102.84 42.156l47.156 30.344c35.597-13.688 68.543-31.337 100.34-50.719l-44.656-21.781zm10.906 8.5312 14.875 7.6875c-0.9554 1.9163-1.5 4.0371-1.5 6.2812 0 2.5503 0.69236 4.9573 1.9062 7.0625-21.464 13.908-45.382 24.753-69.875 34.875-2.7124-2.49-6.6914-4.0625-11.125-4.0625-3.6237 0-6.9301 1.0668-9.5 2.8125l-17.438-11.312c1.1274-1.7778 1.75-3.8069 1.75-5.9688 0-2.267-0.7069-4.3796-1.9375-6.2188 19.455-5.1345 54.124-20.98 72.031-29.938 2.5773 1.2709 5.8241 2.0312 9.375 2.0312 4.567 0 8.657-1.2607 11.438-3.25z"/>
       <path d="m-146.37 410.12c-1.5855 7.1141 1.2005 14.034 8.4028 18.389 7.2023 4.3546 17.172 5.1465 26.662 2.8117z" color="#000000"/>
       <path d="m-82.423 417.97c1.5061-6.5519-1.1403-12.925-7.9818-16.935-6.8415-4.0104-16.311-4.7397-25.327-2.5895z" color="#000000"/>
      </g>
     </g>
     <path d="m-145.18 393.79 40.714 25 0.14986 10.671 20.579-10.4 0.16421-11.878-39.286-23.393z" fill="#050"/>
    </g>
    <path d="m127.85 248.2-0.23853 1.7609-1.5354 1.4086 2.0136 1.2537-1.2764 1.6144 2.1288 1.2319-25.322 16.267 12.764-10.186-8.7235 4.4925 11.739-9.5507-8.7194 4.6328 10.988-8.9062-8.9612 5.6978z" fill="#165016"/>
   </g>
  </g>
 </g>
</svg>
