<?xml version="1.0" encoding="UTF-8" standalone="no"?>
<svg
   xmlns:serif="http://www.serif.com/"
   xmlns:dc="http://purl.org/dc/elements/1.1/"
   xmlns:cc="http://creativecommons.org/ns#"
   xmlns:rdf="http://www.w3.org/1999/02/22-rdf-syntax-ns#"
   xmlns:svg="http://www.w3.org/2000/svg"
   xmlns="http://www.w3.org/2000/svg"
   xmlns:xlink="http://www.w3.org/1999/xlink"
   xmlns:sodipodi="http://sodipodi.sourceforge.net/DTD/sodipodi-0.dtd"
   xmlns:inkscape="http://www.inkscape.org/namespaces/inkscape"
   version="1.1"
   id="svg2"
   width="2885.3333"
   height="481.33334"
   viewBox="0 0 2885.3333 481.33334"
   sodipodi:docname="chimera.svg"
   inkscape:version="1.0.2 (e86c870879, 2021-01-15)">
  <metadata
     id="metadata8">
    <rdf:RDF>
      <cc:Work
         rdf:about="">
        <dc:format>image/svg+xml</dc:format>
        <dc:type
           rdf:resource="http://purl.org/dc/dcmitype/StillImage" />
        <dc:title></dc:title>
      </cc:Work>
    </rdf:RDF>
  </metadata>
  <defs
     id="defs6" />
  <sodipodi:namedview
     pagecolor="#ffffff"
     bordercolor="#666666"
     borderopacity="1"
     objecttolerance="10"
     gridtolerance="10"
     guidetolerance="10"
     inkscape:pageopacity="0"
     inkscape:pageshadow="2"
     inkscape:window-width="1827"
     inkscape:window-height="822"
     id="namedview4"
     showgrid="false"
     inkscape:zoom="0.35529868"
     inkscape:cx="1529.4813"
     inkscape:cy="197.44368"
     inkscape:window-x="188"
     inkscape:window-y="15"
     inkscape:window-maximized="0"
     inkscape:current-layer="g2411" />
  <g
     inkscape:groupmode="layer"
     inkscape:label="Image"
     id="g10"
     style="display:none">
    <image
       width="2885.3333"
       height="481.33334"
       preserveAspectRatio="none"
       style="image-rendering:optimizeQuality"
       xlink:href="file:///home/dan/Downloads/logo.png"
       id="image12"
       sodipodi:absref="/home/dan/Downloads/logo.png" />
  </g>
  <g
     id="g2411">
    <path
       style="display:inline;fill:#000000;stroke-width:1.33333;fill-opacity:1"
       d="m 1522.8816,338.60603 c -37.007,-4.97851 -64.4756,-30.97977 -71.6912,-67.86141 -3.1339,-16.01783 -2.0207,-38.35346 2.6286,-52.74462 7.0686,-21.87972 21.0726,-38.73374 39.786,-47.8831 14.4311,-7.05566 24.5652,-9.27208 42.395,-9.27208 26.6758,0 45.8589,7.33006 62.0037,23.69232 16.1525,16.37008 23.7452,36.88978 23.0449,62.28001 l -0.382,13.84952 -64,0.66667 -64,0.66666 -0.4001,4.77131 c -0.9581,11.42271 9.7573,28.11212 22.0883,34.40291 11.6441,5.94038 28.946,5.98398 41.0933,0.1036 5.362,-2.59574 15.2185,-12.21423 15.2185,-14.8511 0,-0.60133 10.2,-1.09333 22.6667,-1.09333 12.4667,0 22.6667,0.37637 22.6667,0.83639 0,0.46 -1.9432,4.81 -4.3183,9.66666 -5.9489,12.16466 -22.5128,28.77387 -34.4345,34.52882 -15.0138,7.24748 -36.9888,10.5785 -54.3656,8.24082 z m 54.9208,-110.72647 c -0.1094,-3.36624 -1.4628,-8.6003 -3.0091,-11.63125 -13.2211,-25.91549 -52.6867,-30.68353 -72.0348,-8.70289 -7.1421,8.11396 -12.8304,23.27156 -9.8512,26.25077 0.4989,0.499 19.8489,0.749 43,0.55555 L 1578,234 Z m 265.5938,110.68894 c -42.4458,-6.4538 -69.4296,-44.51563 -66.9885,-94.49055 1.3068,-26.75256 8.5593,-44.97091 24.2459,-60.90532 15.5273,-15.77259 32.0526,-22.43861 55.3464,-22.32569 21.0242,0.10186 36.3045,6.33032 50.47,20.57213 5.5358,5.56573 5.889,5.71715 7.6666,3.28624 1.1946,-1.63376 1.8634,-6.05817 1.8634,-12.32821 v -9.77988 l 20.3333,0.36805 20.3333,0.36807 V 250 336.66667 l -20.3333,0.36807 -20.3333,0.36805 v -9.92568 c 0,-15.73827 -1.7007,-17.42035 -9.4051,-9.30199 -14.9785,15.78328 -40.1332,23.90042 -63.1987,20.39338 z m 42.5579,-39.04266 c 14.0557,-6.4349 24.0285,-18.92501 27.4089,-34.32722 0.9438,-4.30012 1.404,-12.84162 1.0851,-20.13566 -0.4776,-10.91945 -1.1448,-13.86744 -4.8344,-21.36205 -15.2528,-30.98289 -55.2775,-36.98683 -78.1076,-11.7166 -2.8301,3.13261 -6.7268,9.06767 -8.6592,13.18901 -3.2088,6.84343 -3.5136,8.9389 -3.5136,24.16002 0,15.37189 0.2832,17.27116 3.6453,24.44785 6.91,14.74983 17.7908,24.57319 31.5278,28.46357 8.8062,2.494 22.6816,1.29438 31.4477,-2.71892 z M 658.66666,336.701 c -12.71705,-2.39181 -19.83137,-4.67792 -30.66667,-9.85436 -41.1675,-19.66734 -65.05658,-67.00136 -58.66069,-116.23076 5.84673,-45.00257 35.11132,-79.73628 77.55585,-92.04991 13.99024,-4.05872 41.84023,-5.0181 56.82992,-1.95767 25.97344,5.30297 48.54235,18.73913 62.3664,37.1292 5.99336,7.97292 12.57419,19.74808 14.49116,25.92917 l 0.9304,3 -23.75652,-0.003 -23.75652,-0.003 -3.72333,-5.89366 c -19.3734,-30.66614 -68.92403,-34.71892 -97.00512,-7.93409 -14.05715,13.40824 -20.86707,29.32381 -22.18839,51.85676 -2.23429,38.10245 15.78691,68.37805 46.58599,78.26444 11.81763,3.7934 32.11181,3.76703 42.79539,-0.0556 11.18962,-4.00371 20.42265,-10.37111 26.30591,-18.14141 9.41359,-12.43244 6.66523,-11.42444 31.15086,-11.42444 12.47468,0 22.26016,0.54826 22.70762,1.27228 1.01311,1.63925 -5.88918,16.87256 -11.01544,24.31098 -13.60952,19.74803 -36.99024,34.98286 -62.28015,40.58162 -12.53495,2.77502 -37.08164,3.38169 -48.66667,1.20278 z m 1916.84544,-0.14961 c -21.6225,-5.23368 -37.6837,-20.78021 -45.8893,-44.41881 -1.7998,-5.18494 -2.204,-15.66704 -2.6159,-67.83436 l -0.4871,-61.7018 20.4068,0.36846 20.4067,0.36846 0.6667,56 c 0.6353,53.36758 0.7986,56.28522 3.4742,62.06774 3.8999,8.42872 9.8083,14.75543 17.4022,18.6342 5.5957,2.85819 8.2352,3.29806 19.7902,3.29806 11.5551,0 14.1946,-0.43987 19.7903,-3.29806 12.7009,-6.4874 18.9905,-17.22782 20.9407,-35.75981 0.672,-6.38484 1.2324,-31.87443 1.2453,-56.64353 l 0.024,-45.03472 20.3333,0.36805 20.3334,0.36807 V 250 336.66667 h -20 -20 l -0.6667,-8.93621 c -0.9475,-12.70055 -2.1261,-13.2345 -11.3656,-5.14918 -13.1704,11.52508 -26.4933,16.1821 -45.7,15.97431 -5.6472,-0.0611 -13.7873,-0.96299 -18.0889,-2.0042 z m 307.1545,0.70325 c 0,-0.77661 0.6,-1.0412 1.3334,-0.58797 0.7333,0.45323 1.3333,1.08864 1.3333,1.41203 0,0.32338 -0.6,0.58797 -1.3333,0.58797 -0.7334,0 -1.3334,-0.63541 -1.3334,-1.41203 z M 826.25726,336.47948 c -0.50816,-0.50816 -0.92394,-53.02392 -0.92394,-116.7017 V 104 h 20 20 v 37.22428 c 0,20.47336 0.36419,38.17336 0.80932,39.33334 1.12187,2.92354 3.64567,2.6346 6.6507,-0.7614 4.53576,-5.12591 18.13753,-13.10342 27.11048,-15.90043 10.06414,-3.13716 29.98033,-3.78237 40.60908,-1.31557 17.12308,3.97405 31.9421,15.30225 39.94817,30.53782 8.99159,17.11102 9.37113,20.54338 9.4598,85.54863 l 0.0791,58 h -20 -20 l -0.76247,-54 c -0.86672,-61.38351 -1.13789,-63.1518 -11.44169,-74.61211 -8.0499,-8.95342 -16.75968,-12.51957 -30.46251,-12.4726 -18.80784,0.0644 -31.50921,8.4699 -38.06887,25.19296 -3.00549,7.66219 -3.1174,9.46258 -3.84666,61.89175 l -0.75114,54 -18.74273,0.36837 c -10.30851,0.2026 -19.15851,-0.0475 -19.66667,-0.55556 z m 210.36904,-0.77701 c -0.3579,-0.93636 -0.4952,-40.10247 -0.3052,-87.0358 l 0.3456,-85.33333 h 20 20 V 250 336.66667 l -19.6948,0.36913 c -15.0213,0.28155 -19.8492,-0.0348 -20.3456,-1.33333 z m 89.3334,0 c -0.3579,-0.93636 -0.4953,-40.10247 -0.3052,-87.0358 L 1126,163.33334 h 20 20 L 1166.4037,172 c 0.2221,4.76667 0.9354,9.19996 1.5851,9.85178 0.6881,0.69021 3.8603,-1.19659 7.5963,-4.5182 28.258,-25.12343 77.3941,-21.03779 100.2183,8.33309 3.2768,4.21667 6.2652,7.66667 6.6408,7.66667 0.3757,0 4.7264,-4.3882 9.6684,-9.75155 14.4427,-15.67409 30.4307,-22.57013 52.1678,-22.50133 6.5624,0.0208 15.0339,0.7546 18.8256,1.63072 17.7907,4.1108 35.2536,17.37634 42.5852,32.34937 8.0183,16.37561 8.256,18.75552 8.2836,82.93945 l 0.025,58.66667 h -20 -20 L 1373.2841,282 c -0.8033,-61.34017 -0.8956,-61.97236 -10.6672,-73.07357 -7.6266,-8.66437 -16.4914,-12.20249 -30.6168,-12.21981 -9.0015,-0.0107 -12.705,0.61421 -18,3.03888 -8.705,3.98616 -15.7559,10.98685 -19.5842,19.44464 -3.0225,6.67733 -3.0954,7.88677 -3.7491,62.1432 l -0.6667,55.33333 h -20 -20 L 1249.2661,282 c -0.4514,-33.60254 -1.2864,-56.23796 -2.1672,-58.74456 -3.845,-10.94221 -10.0475,-18.04308 -20.4322,-23.39144 -8.6454,-4.45258 -27.053,-4.50457 -36.8099,-0.104 -8.4445,3.8087 -15.4477,10.85355 -19.4577,19.57331 -3.0034,6.53093 -3.0794,7.79324 -3.7324,62 l -0.6667,55.33333 -19.6948,0.36914 c -15.0213,0.28154 -19.8492,-0.0348 -20.3455,-1.33334 z m 533.6308,0.77701 c -0.5081,-0.50816 -0.9239,-39.82392 -0.9239,-87.36837 v -86.44444 h 20 20 l 0.019,9.66667 c 0.02,10.81301 0.9527,15.66666 3.0095,15.66666 0.7609,0 4.6284,-3.58572 8.5944,-7.96825 9.1058,-10.0624 22.7325,-17.22695 34.8553,-18.32621 l 8.1892,-0.74258 v 21.33684 21.33684 l -12.6604,0.66223 c -21.6167,1.13069 -33.4728,9.01531 -38.9529,25.90477 -1.6851,5.19316 -2.2566,16.28712 -2.9086,56.46303 l -0.8114,50 -18.7428,0.36837 c -10.3084,0.2026 -19.1584,-0.0475 -19.6667,-0.55556 z m 421.3127,-0.0208 C 2080.4064,335.96199 2080,286.45556 2080,226.44444 V 117.33333 h 20.6666 20.6667 v 92.61977 c 0,90.20582 0.067,92.65572 2.5791,94 1.585,0.84832 15.7321,1.38024 36.7089,1.38024 h 34.13 L 2194.3756,321 2194,336.66667 l -56.0968,0.34761 c -30.8534,0.1912 -56.5034,-0.0588 -57,-0.55554 z M 2228,250.03564 v -87.36897 h 20.0096 20.0097 l -0.3431,87 -0.3429,87 -19.6667,0.36897 -19.6666,0.36899 z m 88.6264,85.66683 c -0.358,-0.93636 -0.4954,-40.10247 -0.3054,-87.0358 l 0.3456,-85.33333 h 20 20 L 2357.0584,173 c 0.4709,11.62104 1.8744,12.21906 10.3473,4.40902 6.8795,-6.34135 18.6275,-12.41558 28.5943,-14.78462 8.6702,-2.06084 26.0181,-2.06 35.1796,0.001 21.2846,4.78992 38.4954,20.64008 46.3737,42.70722 3.0655,8.5866 3.0941,9.23328 3.1037,70 l 0.013,61.33334 h -20 -20 l -0.6667,-56 c -0.6385,-53.63875 -0.7868,-56.25987 -3.5164,-62.1632 -7.1244,-15.40787 -19.2897,-22.93627 -37.1503,-22.98996 -19.752,-0.0593 -33.3234,9.40856 -39.7656,27.74193 -0.8808,2.5066 -1.7157,25.14201 -2.167,58.74456 l -0.734,54.66667 -19.6948,0.36913 c -15.0214,0.28155 -19.8492,-0.0348 -20.3455,-1.33333 z m 406.877,0.57283 c -0.3596,-0.58192 11.605,-19.89587 26.588,-42.91988 14.9831,-23.02402 27.2419,-42.74238 27.2419,-43.81859 0,-1.0762 -12.3,-20.48345 -27.3333,-43.12721 -15.0334,-22.64376 -27.3334,-41.74928 -27.3334,-42.45671 0,-1.50875 42.6296,-1.76244 44.6667,-0.26583 0.7333,0.53878 9.0108,12.56828 18.3945,26.73224 11.8176,17.83794 17.7128,25.62379 19.1816,25.33334 1.1662,-0.23063 9.1118,-12.11932 17.6567,-26.41932 l 15.5361,-26 20.513,-0.36931 c 11.282,-0.20312 20.9537,0.0969 21.4926,0.66667 0.539,0.56978 -11.2649,19.59333 -26.2306,42.27456 -14.9658,22.68121 -27.2106,42.33272 -27.2106,43.67001 0,1.33728 12.331,21.11892 27.4023,43.9592 15.7281,23.83591 26.9035,42.02647 26.2316,42.69836 -0.6439,0.64381 -10.7248,1.00481 -22.4023,0.80221 l -21.2316,-0.36837 -16.9748,-25.26049 c -18.7216,-27.86008 -19.6752,-29.06559 -21.9013,-27.68912 -0.8487,0.52466 -8.2295,12.33658 -16.4019,26.24872 -8.1724,13.91212 -15.5781,25.75196 -16.457,26.31074 -2.129,1.35331 -40.5918,1.35218 -41.4282,-0.001 z M 1049.3333,137.16826 c -6.6284,-1.98042 -12.5786,-6.88468 -15.293,-12.60498 -3.0906,-6.5129 -2.3108,-19.10074 1.502,-24.24786 11.428,-15.427156 37.0193,-13.770573 44.5838,2.88601 3.2689,7.198 3.182,14.63165 -0.2542,21.72979 -4.8334,9.98448 -19.0334,15.67452 -30.5386,12.23704 z m 1191.6853,0.23917 c -16.6886,-5.33788 -23.3558,-23.03336 -14.0032,-37.16627 8.0575,-12.175591 27.4115,-14.223553 38.9207,-4.118407 11.9081,10.455487 9.0599,32.321487 -5.0844,39.033407 -5.7725,2.73924 -15.0241,3.7894 -19.8331,2.25127 z"
       id="path2413"
       sodipodi:nodetypes="ssssssscccsssssssssscssssccssssssscccccccssssssssssssscsssssscccssssscssssccssscccssssssccccccccsssssssssssscccssssssscccssssscssssscccccsssscccsssssssssscccsscsssccccssssscssscsccccssscccssscsccsscccssscccsssccccccccccscccssscsccccssssscsccssssssssscssssssscsssssssssssssssss" />
    <g
       style="clip-rule:evenodd;fill-rule:evenodd;stroke-linejoin:round;stroke-miterlimit:2"
       id="g2617"
       transform="matrix(0.53245211,0,0,0.53245211,-26.019431,-31.894964)">
      <rect
         id="Logo"
         x="0"
         y="0"
         width="1024"
         height="1024"
         style="fill:none" />
      <g
         id="Logo1"
         serif:id="Logo">
        <g
   transform="translate(-36,-36)"
   id="g2588">
            <path
   d="M 100,588 H 246.627 C 264.497,723.817 372.185,831.505 508,849.373 V 996 H 100 Z M 996,996 H 588 V 849.373 C 710.177,833.298 809.592,744.539 841.322,628 H 996 Z M 468,100 V 254.678 C 351.464,286.41 262.706,385.817 246.627,508 H 100 V 100 Z"
   style="fill:#7b7b7b"
   id="path2586" />

        </g>

        <g
   id="Logo2"
   serif:id="Logo">
            <path
   d="M 64,552 H 210.627 C 228.497,687.817 336.185,795.505 472,813.373 V 960 H 64 Z"
   style="fill:#f786f3"
   id="path2590" />

            <path
   d="M 960,960 H 552 V 813.373 C 674.177,797.298 773.592,708.539 805.322,592 H 960 Z"
   style="fill:#d45c92"
   id="path2592" />

            <path
   d="M 432,64 V 218.678 C 315.464,250.41 226.706,349.817 210.627,472 H 64 V 64 Z"
   style="fill:#ab76e4"
   id="path2594" />

            <path
   d="M 743.456,528 H 960 V 440 H 656 v 72 c 0,79.476 -64.524,144 -144,144 -79.476,0 -144,-64.524 -144,-144 0,-79.476 64.524,-144 144,-144 h 72 V 64 H 496 V 280.544 C 375.407,288.775 280,389.334 280,512 c 0,128.044 103.956,232 232,232 122.666,0 223.225,-95.407 231.456,-216 z"
   style="fill:#d64f5d"
   id="path2596" />

        </g>

    </g>
    </g>
  </g>
</svg>
