<svg viewBox="1 1 176 176" xmlns="http://www.w3.org/2000/svg" xmlns:xlink="http://www.w3.org/1999/xlink"><defs><path id="a" d="m8 184h83.77l38.88-38.88v-29.12h-69.3l-53.35-91.52z"/><clipPath id="b"><circle cx="96" cy="96" r="88"/></clipPath><linearGradient id="c" gradientUnits="userSpaceOnUse" x1="29.34" x2="81.84" y1="75.02" y2="44.35"><stop offset="0" stop-color="#a52714" stop-opacity=".6"/><stop offset=".66" stop-color="#a52714" stop-opacity="0"/></linearGradient><linearGradient id="d" gradientUnits="userSpaceOnUse" x1="110.9" x2="52.54" y1="164.5" y2="130.3"><stop offset="0" stop-color="#055524" stop-opacity=".4"/><stop offset=".33" stop-color="#055524" stop-opacity="0"/></linearGradient><clipPath id="e"><path d="m8 184h83.77l38.88-38.88v-29.12h-69.3l-53.35-91.52z"/></clipPath><linearGradient id="f" gradientUnits="userSpaceOnUse" x1="121.9" x2="136.6" y1="49.8" y2="114.1"><stop offset="0" stop-color="#ea6100" stop-opacity=".3"/><stop offset=".66" stop-color="#ea6100" stop-opacity="0"/></linearGradient><clipPath id="g"><path d="m96 56 34.65 60-38.88 68h92.23v-128z"/></clipPath><linearGradient id="h"><stop offset="0" stop-color="#3e2723" stop-opacity=".2"/><stop offset="1" stop-color="#3e2723" stop-opacity="0"/></linearGradient><radialGradient id="i" cx="92.2" cy="55.95" gradientUnits="userSpaceOnUse" r="84.08" xlink:href="#h"/><clipPath id="j"><path d="m21.97 8v40.34l39.39 67.66 34.64-60h88v-48z"/></clipPath><radialGradient id="k" cx="21.9" cy="48.52" gradientUnits="userSpaceOnUse" r="78.04" xlink:href="#h"/><radialGradient id="l" cx="95.8" cy="96.14" gradientUnits="userSpaceOnUse" r="87.87"><stop offset="0" stop-color="#263238" stop-opacity=".2"/><stop offset="1" stop-color="#263238" stop-opacity="0"/></radialGradient></defs><g transform="translate(-7 -7)"><g clip-path="url(#b)"><path d="m21.97 8v108h39.4l34.63-60h88v-48z" fill="#db4437"/><path d="m21.97 8v108h39.4l34.63-60h88v-48z" fill="url(#c)"/><path d="m62.3 115.6-39.82-68.3-.58 1 39.54 67.8z" fill="#3e2723" fill-opacity=".15"/><use fill="#0f9d58" xlink:href="#a"/><path d="m8 184h83.77l38.88-38.88v-29.12h-69.3l-53.35-91.52z" fill="url(#d)"/><path d="m129.8 117.3-.83-.48-38.4 67.15h1.15l38.1-66.64z" fill="#263238" fill-opacity=".15"/><g clip-path="url(#e)"><path d="m96 56 34.65 60-38.88 68h92.23v-128z" fill="#ffcd40"/><path d="m96 56 34.65 60-38.88 68h92.23v-128z" fill="url(#f)"/></g><path d="m96 56 34.65 60-38.88 68h92.23v-128z" fill="#ffcd40"/><path d="m96 56 34.65 60-38.88 68h92.23v-128z" fill="url(#f)"/><g clip-path="url(#g)"><path d="m21.97 8v108h39.4l34.63-60h88v-48z" fill="#db4437"/><path d="m21.97 8v108h39.4l34.63-60h88v-48z" fill="url(#c)"/></g></g><g><path clip-path="url(#b)" d="m96 56v20.95l78.4-20.95z" fill="url(#i)"/><g clip-path="url(#b)"><g clip-path="url(#j)"><use fill="#0f9d58" xlink:href="#a"/><path d="m8 184h83.77l38.88-38.88v-29.12h-69.3l-53.35-91.52z" fill="url(#d)"/></g></g></g><path clip-path="url(#b)" d="m21.97 48.45 57.25 57.24-17.86 10.31z" fill="url(#k)"/><g><path clip-path="url(#b)" d="m91.83 183.9 20.96-78.2 17.86 10.3z" fill="url(#l)"/><g clip-path="url(#b)"><circle cx="96" cy="96" fill="#f1f1f1" r="40"/><circle cx="96" cy="96" fill="#4285f4" r="32"/><path d="m96 55c-22.1 0-40 17.9-40 40v1c0-22.1 17.9-40 40-40h88v-1z" fill="#3e2723" fill-opacity=".2"/><path d="m130.6 116c-6.92 11.94-19.8 20-34.6 20s-27.7-8.06-34.6-20h-.04l-53.36-91.52v1l53.4 91.52c6.92 11.94 19.8 20 34.6 20s27.68-8.05 34.6-20h.05v-1h-.06z" fill="#fff" fill-opacity=".1"/><path d="m97 56c-.17 0-.33.02-.5.03 21.86.27 39.5 18.05 39.5 39.97s-17.64 39.7-39.5 39.97c.17 0 .33.03.5.03 22.1 0 40-17.9 40-40s-17.9-40-40-40z" fill="#3e2723" opacity=".1"/><path d="m131 117.3c3.4-5.88 5.37-12.68 5.37-19.96a39.87 39.87 0 0 0 -1.87-12.09c.95 3.42 1.5 7 1.5 10.73 0 7.28-1.97 14.08-5.37 19.96l.02.04-38.88 68h1.16z" fill="#fff" fill-opacity=".2"/><path d="m96 9c48.43 0 87.72 39.13 88 87.5 0-.17.01-.33.01-.5 0-48.6-39.4-88-88-88s-88.01 39.4-88.01 88c0 .17.01.33.01.5.27-48.37 39.56-87.5 87.99-87.5z" fill="#fff" fill-opacity=".2"/><path d="m96 183c48.43 0 87.72-39.13 88-87.5 0 .17.01.33.01.5 0 48.6-39.4 88-88 88s-88.01-39.4-88.01-88c0-.17.01-.33.01-.5.27 48.37 39.56 87.5 88 87.5z" fill="#3e2723" fill-opacity=".15"/></g></g></g></svg>