<svg height="76" viewBox="0 0 179 76" width="179" xmlns="http://www.w3.org/2000/svg" xmlns:xlink="http://www.w3.org/1999/xlink"><linearGradient id="a"><stop offset="0" stop-color="#7dd2f7"/><stop offset="1" stop-color="#b1e4fa"/></linearGradient><linearGradient id="b" x1="78.944555%" x2="29.89604%" xlink:href="#a" y1="47.679025%" y2="52.682203%"/><linearGradient id="c" x1="4.081967%" x2="105.081967%" y1="19.918563%" y2="87.755689%"><stop offset="0" stop-color="#33bef2"/><stop offset=".75" stop-color="#88e1b8"/></linearGradient><linearGradient id="d" x1="-50291.2001%" x2="-50273.5953%" xlink:href="#a" y1="-3272%" y2="-3247%"/><linearGradient id="e" x1="13.682297%" x2="96.602871%" y1="1.591358%" y2="152.404938%"><stop offset="0" stop-color="#33bef2"/><stop offset=".85" stop-color="#88e1b8"/></linearGradient><linearGradient id="f" x1="60.36717%" x2="23.325283%" y1="42.76779%" y2="97.76779%"><stop offset="0" stop-color="#00aeff"/><stop offset="1" stop-color="#88e1b8"/></linearGradient><linearGradient id="g"><stop offset="0" stop-color="#d1d3d5"/><stop offset="1" stop-color="#f6f7f8"/></linearGradient><linearGradient id="h" x1="50.061093%" x2="50.061093%" xlink:href="#g" y1="16.324528%" y2="88.528302%"/><linearGradient id="i" x1="1.300377%" x2="89.4%" y1="111.575824%" y2="31.751648%"><stop offset="0" stop-color="#f6f7f8" stop-opacity=".4"/><stop offset="1" stop-color="#f0f2f4" stop-opacity="0"/></linearGradient><linearGradient id="j" x1="-73941%" x2="-73941%" xlink:href="#g" y1="-2059%" y2="-2005%"/><linearGradient id="k" x1="-47.039269%" x2="101.892694%" y1="18.104425%" y2="65.112743%"><stop offset=".08" stop-color="#fdb814"/><stop offset=".35" stop-color="#ffe966"/><stop offset=".75" stop-color="#f6f7f8"/><stop offset="1" stop-color="#f0f2f4"/></linearGradient><g fill="none"><path d="m26.5 59.2-7.7-45.9-12.5-1.3z" fill="url(#b)"/><path d="m18.3 6.2 30.5 10.5-28.3-16.7z" fill="url(#c)"/><path d="m6.2 12 12.1-5.9 2.2-6.1z" fill="url(#d)"/><path d="m6.2 12 20.9 2.2-8.8-8.1z" fill="url(#e)"/><path d="m27.1 14.2 21.7 2.4-30.5-10.4z" fill="#0070c5"/><path d="m0 65.4 26.5-6.2-20.3-47.2z" fill="url(#f)"/><path d="m26.5 59.2 4.6 10.6-31.1-4.4z" fill="url(#h)"/><path d="m26.5 59.2-5.1-12-21.4 18.2z" fill="url(#i)"/><path d="m31.1 69.8-8.7 5.8-22.4-10.2z" fill="url(#j)"/><path d="m27.1 14.2 13.5 34.4-9.5 21.3-4.6-10.6-7.8-45.9z" fill="url(#k)"/><g fill="#000"><g transform="translate(56 32)"><path d="m13.4 14.8c-.6374747.4512932-1.3478336.7895593-2.1 1-.8799034.2449094-1.78688385.3792768-2.7.4-1.09666032.023186-2.18622926-.1811082-3.2-.6-.89296252-.3786574-1.70702297-.9213644-2.4-1.6-.6364448-.7434729-1.14349791-1.5885614-1.5-2.5-.37565465-1.0580321-.54537339-2.17817579-.5-3.3-.0032161-1.15188292.16530262-2.29781024.5-3.4.35285399-.93594492.89789692-1.78757449 1.6-2.5.67086874-.6818281 1.49314462-1.19575052 2.4-1.5 1.02141914-.38310365 2.11039953-.55325684 3.2-.5 1.6023422-.07498687 3.1844975.38208021 4.5 1.3l-1.2 2.2c-.4457919-.27293649-.9141757-.50712836-1.4-.7-.5249539-.12197541-1.06117383-.1890029-1.6-.2-1.28951092-.08826595-2.54652271.42932714-3.4 1.4-.86840553 1.10693486-1.29591795 2.49635022-1.2 3.9-.09591795 1.40364978.33159447 2.7930651 1.2 3.9.88020921.9225225 2.12884801 1.3999432 3.4 1.3.61359448.015037 1.2244497-.0867722 1.8-.3.4947477-.1723463.9652744-.4076096 1.4-.7z"/><path d="m18.4 0v12c-.0503501.4232427.0564004.8502447.3 1.2.3177963.2308324.7090144.3375283 1.1.3h.2v2.4c-.460186.0951341-.9309643.1287611-1.4.1-.9279969.1055125-1.8521959-.2271992-2.5-.9-.562226-.7465913-.8452707-1.6664866-.8-2.6v-12.5z"/><path d="m24.5 10.9c-.0080911.8166997.3608633 1.591504 1 2.1.6486373.4337794 1.4209476.6444094 2.2.6.5053432-.0173825 1.0077563-.0843709 1.5-.2.4742158-.0958182.9194227-.3012983 1.3-.6l1.1 1.8c-1.1562832.9302943-2.6189222 1.3940579-4.1 1.3-.8913218.0082065-1.775297-.1617887-2.6-.5-.6844786-.2559022-1.3005216-.6665975-1.8-1.2-.516913-.5335564-.8946733-1.1860515-1.1-1.9-.2382346-.7446814-.3728311-1.5186115-.4-2.3-.038617-.85189538.0975089-1.70268192.4-2.5.2807702-.67145454.6881843-1.28257579 1.2-1.8.4960889-.51452611 1.1158239-.89325305 1.8-1.1.7103165-.23830119 1.4512617-.37301849 2.2-.4.721592-.03193524 1.4406751.10503296 2.1.4.5695801.21484916 1.0826084.556868 1.5 1 .4151274.45985765.7225765 1.00643391.9 1.6.2045436.64674438.3057878 1.32170591.3 2v.8c0 .3-.1.5-.1.7h-7.4zm2.6-4.2c-.6238977-.03395196-1.235631.18195392-1.7.6-.4616575.49285798-.7435254 1.12706073-.8 1.8h4.5v-.3c.0191965-.57454781-.1570746-1.13861526-.5-1.6-.4313562-.32718853-.9586019-.50293711-1.5-.5z"/><path d="m33.5 12.7c-.0593397-1.0635787.4315563-2.0831318 1.3-2.7 1.0421661-.66250729 2.267521-.97759855 3.5-.9h1.8v-.4c.0194037-.51357546-.1596444-1.01491001-.5-1.4-.4537348-.35768653-1.023336-.53568689-1.6-.5-.5388262.0109971-1.0750461.07802459-1.6.2-.4947477.17234626-.9652744.40760958-1.4.7l-1.1-1.8c.6323688-.48339468 1.342551-.85539489 2.1-1.1.8015293-.28638703 1.6491283-.42200287 2.5-.4 1.2329248-.08669354 2.4515032.30755243 3.4 1.1.8090262.86501885 1.2407608 2.01631105 1.2 3.2v4.3c-.0094706.2486649.0605888.4938727.2.7.1668293.1413613.3817198.2129915.6.2h.2v1.9c-.2.1-.4.1-.6.2s-.5.1-.8.1c-.5304329.0357636-1.0578057-.1048691-1.5-.4-.3158249-.3307716-.5248777-.7488771-.6-1.2-.3265208.5283907-.7716093.9734792-1.3 1.3-.6510862.3290918-1.3704697.5003736-2.1.5-.9799009.0411531-1.9407711-.2791369-2.7-.9-.7086114-.7127141-1.0734028-1.697651-1-2.7zm4.4 1.1c.5621259.0198265 1.1066167-.1979698 1.5-.6.3860271-.4776689.5659473-1.0893975.5-1.7v-.6h-1.5c-.5304329-.0357636-1.0578057.1048691-1.5.4-.3403463.3032465-.5243292.7448053-.5 1.2-.0607982.3815385.0928437.7656433.4 1 .3297917.2046117.7119919.3088482 1.1.3z"/><path d="m46 4.7h1.8c.7 0 1.1.3 1.1 1v1.4c.2059991-.70883762.6249188-1.33721712 1.2-1.8.5985304-.46815149 1.3402848-.71540298 2.1-.7.3034543-.0162607.6075164.01752397.9.1v2.6h-.6c-.9221103-.05986021-1.8276333.26612806-2.5.9-.6014768.84152245-.8849514 1.869118-.8 2.9v4.9h-3.1v-11.3z"/><path d="m63.4 13.3h6.8v2.5h-10v-15.2h3.2z"/><path d="m72 .2h3.2v2.8h-3.2zm3.1 15.6h-3.1v-11.1h3.1z"/><path d="m78.2 4.7h1.8c.7 0 1.1.3 1.1 1v.8c.3283083-.6132211.8108505-1.13023063 1.4-1.5.6915356-.42052198 1.4911662-.62912128 2.3-.6 1.0319288-.07158558 2.0468876.29089972 2.8 1 .742914.8532847 1.104253 1.97343561 1 3.1v7.3h-3.1v-7c0-1.3-.6-1.9-1.7-1.9-.6596897-.00964486-1.2869497.28553632-1.7.8-.4340228.61090505-.6457676 1.35201198-.6 2.1v6.1h-3.3z"/><path d="m101.5 15.8h-1.8c-.3281874.025513-.6527579-.0826771-.9-.3-.2146207-.2083741-.3246874-.5018853-.3-.8v-.6c-.2402691.6714109-.7467345 1.2140524-1.4 1.5-.6510862.3290918-1.3704697.5003736-2.1.5-1.0457406.0389508-2.0604063-.3596678-2.8-1.1-.6950455-.8752607-1.018277-1.9886134-.9-3.1v-7.2h3.1v7c-.0652439.5328848.0780824 1.0703583.4 1.5.3153909.3228756.7486592.5034041 1.2.5.636628.031921 1.24356-.271545 1.6-.8.3988403-.6235323.5750553-1.3636354.5-2.1v-6.1h3.1v11.1z"/><path d="m110.3 10 4 5.8h-3.4l-2.3-3.7-2.3 3.7h-3.3l4-5.7-3.8-5.5h3.4l2.1 3.5 2-3.5h3.3z"/><path d="m120 .6-.3 2.6 2.2-1.2.8 2.1-2.4.7 2 2.1-1.8 1.4-1.5-2.5-1.5 2.5-1.8-1.4 1.9-2.1-2.4-.7.8-2.1 2.2 1.2-.3-2.6z"/></g><g transform="translate(57 55)"><path d="m2.9 15.8h-2.1v-15.2h5.2c1.42252316-.11364963 2.83017125.3555664 3.9 1.3.9552394.90634302 1.4666609 2.18489686 1.4 3.5.0666609 1.31510314-.4447606 2.59365698-1.4 3.5-1.06982875.9444336-2.47747684 1.4136496-3.9 1.3h-3.2v5.6zm0-7.3h3.1c.86094204.09154788 1.72326981-.15996438 2.4-.7.60100343-.60608746.89515415-1.45177077.8-2.3.04686535-.84213696-.24064285-1.66872304-.8-2.3-.6910927-.51173566-1.54216154-.75996407-2.4-.7h-3.1z"/><path d="m14.1 4.8h1c.6 0 .9.3.9.8v1.1c.3218592-.58667003.7650325-1.09802381 1.3-1.5.6510862-.32909179 1.3704697-.50037357 2.1-.5h.6c.2 0 .3 0 .4.1v1.6h-.7c-1.0048475-.09161425-1.9972529.27594331-2.7 1-.6800961.88291389-1.0015534 1.99015561-.9 3.1v5.3h-2z"/><path d="m32.2 10.3c.0305688.8188331-.1055161 1.6353423-.4 2.4-.2457071.6660259-.6193984 1.2775207-1.1 1.8-.4805689.5098302-1.0586761.9179059-1.7 1.2-.6972259.2859399-1.4467457.4222162-2.2.4-.753917.0313851-1.5053812-.1052448-2.2-.4-.6268153-.3071525-1.200678-.712232-1.7-1.2-.4806016-.5224793-.8542929-1.1339741-1.1-1.8-.2944839-.7646577-.4305688-1.5811669-.4-2.4-.0305688-.81883309.1055161-1.63534234.4-2.4.2457071-.66602586.6193984-1.27752073 1.1-1.8.4805689-.50983024 1.0586761-.91790591 1.7-1.2.6972259-.28593992 1.4467457-.42221624 2.2-.4.7532543-.02221624 1.5027741.11406008 2.2.4.6413239.28209409 1.2194311.69016976 1.7 1.2.4806016.52247927.8542929 1.13397414 1.1 1.8.2782568.76899661.4138116 1.58232534.4 2.4zm-2.1 0c.0707209-1.07571372-.2488218-2.140856-.9-3-.6421437-.70116396-1.5492217-1.10043672-2.5-1.10043672s-1.8578563.39927276-2.5 1.10043672c-.6511782.859144-.9707209 1.92428628-.9 3-.0707209 1.0757137.2488218 2.140856.9 3 .6421437.701164 1.5492217 1.1004367 2.5 1.1004367s1.8578563-.3992727 2.5-1.1004367c.6953159-.836091 1.0202595-1.9192364.9-3z"/><path d="m33.3 19c.2708232.0305182.545022-.0037567.8-.1.1873108.0055951.368628-.0663564.5011358-.1988642s.2044593-.313825.1988642-.5011358c0-.2.1-.4.1-.7v-12.7h2v12.8c.0787848.7983557-.1743622 1.5939606-.7 2.2-.5971969.5412-1.3998682.7965954-2.2.7h-.5c-.1728218.015564-.3464583-.0191633-.5-.1v-1.5h.3zm1.6-18.6h2v2.2h-2z"/><path d="m41.7 10.8c-.0125205 1.0115284.3841643 1.9852093 1.1 2.7.7592289.6208631 1.7200991.9411531 2.7.9 1.010343.0401655 2.0022801-.2786714 2.8-.9l.8 1.3c-.5059866.4271443-1.0808212.7652824-1.7 1-.679438.2117235-1.3884569.3130119-2.1.3-.7857151.0220024-1.5678469-.1140206-2.3-.4-.6660259-.2457071-1.2775207-.6193984-1.8-1.1-.5145261-.4960889-.8932531-1.1158239-1.1-1.8-.2460637-.8113435-.3806304-1.6523854-.4-2.5-.0305688-.81883309.1055161-1.63534234.4-2.4.2457071-.66602586.6193984-1.27752073 1.1-1.8.4586856-.51141051 1.0455446-.89114279 1.7-1.1.6593249-.29496704 1.378408-.43193524 2.1-.4.6893753-.03261238 1.3761968.10475192 2 .4.5408222.21493088 1.0212852.55811876 1.4 1 .4151274.45985765.7225765 1.00643391.9 1.6.2045436.64674438.3057878 1.32170591.3 2 .0205037.4358006-.0130856.8724624-.1 1.3h-7.8zm3.3-4.6c-.8095374-.03003946-1.5988471.25698224-2.2.8-.5989143.63225631-.9837467 1.43690584-1.1 2.3h5.9v-.2c.0617947-.79647795-.1893135-1.58567516-.7-2.2-.4951752-.50821146-1.193466-.76547649-1.9-.7z"/><path d="m53.6 10.3c-.0928807 1.0949055.2687522 2.179804 1 3 .7108519.7217411 1.6871622 1.1194971 2.7 1.1.4394739-.0175852.8755629-.0846758 1.3-.2.4436821-.0970674.8561368-.3032948 1.2-.6l.8 1.4c-1.0107666.7478701-2.2431305 1.1351845-3.5 1.1-.8513854.0300118-1.7004815-.1058436-2.5-.4-.6555935-.256224-1.239029-.6680608-1.7-1.2-.4847024-.502452-.829459-1.1230139-1-1.8-.204379-.7494064-.3053141-1.5232423-.3-2.3-.0305688-.81883309.1055161-1.63534234.4-2.4.2457071-.66602586.6193984-1.27752073 1.1-1.8.5174242-.51181566 1.1285455-.91922983 1.8-1.2.7646577-.29448387 1.5811669-.43056875 2.4-.4 1.2261462-.03549988 2.4270107.3530151 3.4 1.1l-.8 1.4c-.3006241-.22533166-.6393602-.39469974-1-.5-.489659-.12918238-.9936001-.19637453-1.5-.2-.9995519-.05431524-1.9769748.30769322-2.7 1-.7581161.76899875-1.1574037 1.82166617-1.1 2.9z"/><path d="m68.4 15.8c-.2 0-.4.1-.6.1h-.6c-.9844208.0753897-1.9576972-.2490358-2.7-.9-.587034-.8483405-.8690557-1.8706693-.8-2.9v-5.7h-1.9v-1.6h1.9v-2.8h2v2.8h2.8v1.6h-2.8v5.9c-.0578289.5487505.1244866 1.0956969.5 1.5.5001555.3333618 1.1036733.475366 1.7.4h.5z"/></g></g></g></svg>