<svg viewBox="0 0 1245 752" xmlns="http://www.w3.org/2000/svg"><g fill="none" fill-rule="evenodd" transform="translate(-6 11)"><path d="m43.88818 218.0875h1168.725v426.566h-1168.725z" fill="#f18594" transform="matrix(.9892723 .146083 -.146083 .9892723 69.75557 -87.14917)"/><path d="m83 136 676 100.5s-46.74735 44.03173-154 76.5-179.5 15-276 68.5c-122.9038 68.13837-183.5 198-183.5 198l-124.5-20.5z" fill="#ea5b6f"/><rect height="440" rx="45" stroke="#221f1f" stroke-width="20" transform="matrix(.9892723 .146083 -.146083 .9892723 69.79289 -87.17042)" width="1182.324" x="37.25224" y="211.614"/><path d="m250.2422 487.6231c-9.455 3.965-24.705 6.71-39.04 6.71-41.175 0-65.575-25.925-65.575-67.1 0-45.75 28.67-68.015 65.27-68.015 16.775 0 29.89 3.66 39.04 7.625l9.76-36.6c-8.235-4.575-26.535-9.15-50.63-9.15-62.22 0-112.24 38.735-112.24 108.885 0 58.56 36.6 103.09 107.665 103.09 24.705 0 44.225-4.88 52.46-8.845zm37.72 42.09h128.1v-39.04h-81.74v-166.53h-46.36zm234.445-209.23c63.135 0 97.6 47.275 97.6 104.31 0 67.71-40.565 108.275-100.955 108.275-60.695 0-96.685-46.055-96.685-104.92 0-61.61 39.65-107.665 100.04-107.665zm-.915 36.905c-31.72 0-50.02 29.89-50.02 69.845 0 40.565 18.91 68.93 50.02 68.93 31.415 0 49.41-29.89 49.41-69.845 0-37.21-17.385-68.93-49.41-68.93zm120.985 162.565c11.59 6.405 34.77 12.81 58.255 12.81 56.425 0 82.655-29.28 82.655-63.745 0-28.975-16.775-47.885-53.07-61.305-26.84-10.065-38.125-15.86-38.125-28.975 0-10.37 9.759999-19.825 29.89-19.825 19.825 0 34.77 5.795 42.7 9.76l10.37-37.21c-12.2-5.795-28.975-10.37-52.46-10.37-48.19 0-77.775 26.535-77.775 61.61 0 29.89 22.57 48.8 56.73 61 24.705 8.54 34.465 15.86 34.465 28.67 0 13.42-11.285 22.265-32.635 22.265-19.825 0-39.345-6.405-51.545-12.81zm294.835-114.985h-75.64v-42.7h80.215v-38.125h-126.575v205.57h130.845v-38.125h-84.485v-48.8h75.64zm40.465 123.83v-201.605c17.08-2.745 39.345-4.575 62.525-4.575 39.345 0 64.96499 7.32 84.48499 21.96 21.35 15.86 34.77 41.175 34.77 77.47 0 39.345-14.335 66.49-33.855 83.265-21.65499 17.995-54.89999 26.535-95.15999 26.535-24.095 0-41.48-1.525-52.765-3.05zm46.36-168.665v134.505c3.965.915 10.675.915 16.165.915 42.395.305 70.14999-22.875 70.14999-71.98 0-42.7-25.00999-65.27-65.26999-65.27-10.065 0-17.08.915-21.045 1.83z" fill="#000" transform="matrix(.9892723 .146083 -.146083 .9892723 69.08371 -87.18991)"/><g stroke="#221f1f"><path d="m658 10-473 129" stroke-linecap="square" stroke-width="20"/><path d="m1158 22-436 261" stroke-linecap="square" stroke-width="20" transform="matrix(-1 0 0 1 1880 0)"/><circle cx="685" cy="42" fill="#a8b5d7" r="42" stroke-width="22"/></g></g></svg>