<svg fill="none" height="166" viewBox="0 0 1024 166" width="1024" xmlns="http://www.w3.org/2000/svg"><g fill="#080c14"><g clip-rule="evenodd" fill-rule="evenodd"><path d="m75.4142 165.915c1.7844.009 3.536-.479 5.0582-1.408l44.9186-27.052c2.891-1.739 5.283-4.194 6.946-7.125 1.663-2.932 2.54-6.242 2.547-9.611v-98.7695c.007-1.1302-.21-2.2507-.639-3.2968s-1.061-1.9971-1.86-2.798-1.749-1.436-2.795-1.8685c-1.047-.4326-2.169-.654-3.301-.6516-1.54.0242-3.044.4737-4.343 1.2987l-21.864 13.0961c4.334 4.8133 6.742 11.0508 6.762 17.5225v75.7411c.015 2.898-.745 5.747-2.199 8.255-1.455 2.508-3.553 4.584-6.078 6.014-2.525 1.431-5.3862 2.164-8.2893 2.125-2.9032-.039-5.7436-.849-8.2292-2.346l-16.494-9.896v30.948c-.0049 1.293.247 2.574.741 3.769s1.2203 2.281 2.1371 3.194 2.0058 1.636 3.2041 2.127 2.4822.74 3.7775.732z"/><path d="m71.7153 37.0935 16.7139-10.0416-42.6277-25.64352c-1.5131-.919344-3.2501-1.40650443-5.0215-1.40838-1.2876.00239972-2.5621.257886-3.7508.751872-1.1886.493988-2.2681 1.216798-3.1769 2.127168-.9087.91036-1.6289 1.99046-2.1194 3.17861-.4906 1.18815-.7418 2.46109-.7394 3.74614v75.74161c-.0148 3.393.852 6.7318 2.5158 9.6907 1.6639 2.9588 4.0679 5.4369 6.9774 7.1919l18.5466 11.157v-54.0489c.0074-4.5124 1.1779-8.9469 3.3989-12.8773s5.4179-7.2244 9.2831-9.5653z"/><path d="m65.6287 59.5368v57.9452l19.8294 11.925c1.5075.917 3.2379 1.404 5.0032 1.409 1.29-.003 2.5669-.259 3.7578-.754 1.1908-.495 2.2724-1.219 3.1828-2.131.9105-.912 1.632-1.994 2.1235-3.184.4916-1.191.7426-2.466.7406-3.754v-75.7412c-.004-2.6211-.5355-5.2148-1.5617-7.6275-1.0262-2.4128-2.5267-4.5957-4.4127-6.4197l-19.1697 11.5231c-2.9013 1.7459-5.3005 4.2115-6.9641 7.1571-1.6635 2.9456-2.5348 6.2707-2.5291 9.652z"/></g><path d="m217.764 82.8487c0-23.3977 14.487-39.7366 36.169-39.7366 16.808 0 28.865 9.7161 33.398 25.7143h-11.278c-3.878-10.6972-11.279-15.7802-22.12-15.7802-15.702 0-25.437 11.4741-25.437 29.9797 0 18.5051 9.735 29.9791 25.437 29.9791 11.06 0 18.57-5.3 22.229-16.6655h11.005c-4.26 16.5295-16.385 26.4635-33.452 26.4635-21.683 0-35.951-16.011-35.951-39.9543z"/><path d="m320.96 82.8487c0-23.3977 14.705-39.7366 36.715-39.7366s36.483 16.189 36.483 39.7366c0 23.5473-14.596 39.9543-36.592 39.9543-21.997 0-36.606-16.121-36.606-39.9543zm62.48.109c0-18.4374-9.845-29.9115-25.874-29.9115-16.03 0-25.943 11.4741-25.943 29.9797 0 18.5051 9.954 29.9791 25.943 29.9791 15.988 0 25.874-11.61 25.874-30.0473z"/><path d="m481.311 121.59-21.122-29.6932h-15.484v29.6932h-10.718v-77.279h30.298c17.026 0 26.98 9.0484 26.98 23.8474 0 12.3598-6.745 20.7405-18.351 23.2887l21.341 30.1299zm-36.606-39.3003h19.47c10.732 0 16.385-4.7422 16.385-14.1176 0-9.1711-5.639-13.9133-16.385-13.9133h-19.47z"/><path d="m532.077 44.311h52.745v9.9478h-42.013v22.7572h36.551v9.9342h-36.551v24.7058h43.378v9.934h-54.11z"/><path d="m624.759 44.311h10.732v67.345h36.716v9.934h-47.448z"/><path d="m708.484 44.311h10.719v67.345h36.715v9.934h-47.434z"/><path d="m792.211 44.311h10.718v77.266h-10.718z"/><path d="m845.064 91.2291v-46.9181h10.732v46.8091c0 15.2349 6.636 21.8029 19.239 21.8029 12.602 0 19.347-6.513 19.347-21.8029v-46.8091h10.623v46.9181c0 20.6449-10.281 31.5739-29.861 31.5739s-30.08-10.929-30.08-31.5739z"/><path d="m947.142 44.311h11.947l26.762 51.5513 26.649-51.5513h11.5v77.266h-10.72v-58.5969l-24.22 46.4689h-6.909l-24.277-46.4689v58.5969h-10.732z"/></g></svg>