<svg height="91" viewBox="0 0 357 91" width="357" xmlns="http://www.w3.org/2000/svg"><g fill="none"><g fill="#a80030"><path d="m43.969 47.645c-1.494.02.281.768 2.232 1.069.541-.422 1.027-.846 1.463-1.26-1.213.297-2.449.304-3.695.191"/><path d="m51.986 45.646c.893-1.229 1.541-2.573 1.77-3.963-.201.99-.736 1.845-1.244 2.749-2.793 1.759-.264-1.044-.002-2.111-3.002 3.783-.414 2.268-.524 3.325"/><path d="m54.949 37.942c.182-2.691-.529-1.839-.768-.814.278.146.499 1.898.768.814"/><path d="m38.301 1.163c.798.142 1.724.252 1.591.443.876-.193 1.073-.367-1.591-.443"/><path d="m39.893 1.606-.561.117.523-.048z"/><path d="m64.762 38.962c.09 2.416-.705 3.59-1.424 5.666l-1.293.643c-1.057 2.054.105 1.304-.652 2.937-1.652 1.467-5.006 4.589-6.08 4.875-.785-.017.531-.926.703-1.281-2.209 1.516-1.773 2.276-5.152 3.199l-.098-.221c-8.33 3.92-19.902-3.847-19.75-14.443-.088.672-.253.504-.437.774-.43-5.451 2.518-10.926 7.49-13.165 4.863-2.406 10.564-1.42 14.045 1.829-1.912-2.506-5.721-5.163-10.232-4.917-4.421.072-8.558 2.881-9.938 5.932-2.264 1.425-2.528 5.496-3.514 6.242-1.329 9.76 2.497 13.975 8.97 18.936 1.016.686.286.791.422 1.313-2.15-1.006-4.118-2.526-5.738-4.387.86 1.257 1.787 2.479 2.986 3.439-2.029-.685-4.738-4.913-5.527-5.085 3.495 6.258 14.178 10.975 19.775 8.634-2.59.096-5.879.053-8.787-1.022-1.225-.629-2.884-1.93-2.587-2.173 7.636 2.851 15.522 2.158 22.128-3.137 1.682-1.31 3.518-3.537 4.049-3.567-.799 1.202.137.578-.477 1.639 1.672-2.701-.729-1.1 1.73-4.664l.908 1.25c-.34-2.244 2.785-4.966 2.467-8.512.717-1.084.799 1.168.039 3.662 1.055-2.767.279-3.212.549-5.496.291.768.678 1.583.875 2.394-.688-2.675.703-4.503 1.049-6.058-.342-.15-1.061 1.182-1.227-1.976.025-1.372.383-.719.52-1.057-.268-.155-.975-1.207-1.404-3.224.309-.475.832 1.229 1.256 1.298-.273-1.603-.742-2.826-.762-4.057-1.24-2.59-.439.346-1.443-1.112-1.32-4.114 1.094-.955 1.258-2.823 1.998 2.895 3.137 7.385 3.662 9.244-.4-2.267-1.045-4.464-1.834-6.589.609.257-.979-4.663.791-1.405-1.889-6.945-8.078-13.435-13.773-16.479.695.637 1.574 1.437 1.26 1.563-2.834-1.685-2.336-1.818-2.742-2.53-2.305-.939-2.459.077-3.984.002-4.35-2.308-5.188-2.063-9.191-3.507l.182.852c-2.881-.96-3.357.362-6.47.002-.189-.147.998-.536 1.976-.677-2.786.368-2.656-.55-5.382.101.671-.471 1.383-.784 2.099-1.184-2.271.138-5.424 1.322-4.451.244-3.705 1.654-10.286 3.975-13.979 7.438l-.116-.776c-1.692 2.031-7.379 6.066-7.832 8.699l-.453.105c-.879 1.491-1.45 3.18-2.148 4.713-1.151 1.963-1.688.756-1.524 1.064-2.265 4.592-3.392 8.45-4.363 11.616.692 1.035.017 6.232.278 10.391-1.136 20.544 14.418 40.489 31.42 45.093 2.492.893 6.197.861 9.349.949-3.718-1.064-4.198-.563-7.822-1.826-2.613-1.232-3.185-2.637-5.037-4.244l.733 1.295c-3.63-1.285-2.111-1.59-5.065-2.525l.783-1.021c-1.177-.09-3.117-1.982-3.647-3.033l-1.288.051c-1.546-1.906-2.371-3.283-2.31-4.35l-.416.742c-.471-.809-5.691-7.158-2.983-5.68-.503-.458-1.172-.747-1.897-2.066l.551-.629c-1.301-1.677-2.398-3.826-2.314-4.542.695.938 1.177 1.114 1.655 1.275-3.291-8.164-3.476-.449-5.967-8.31l.526-.042c-.403-.611-.65-1.27-.974-1.919l.23-2.285c-2.368-2.736-.662-11.645-.319-16.53.235-1.986 1.977-4.101 3.3-7.418l-.806-.138c1.542-2.688 8.802-10.799 12.166-10.383 1.629-2.046-.324-.008-.643-.522 3.579-3.703 4.704-2.616 7.119-3.283 2.603-1.545-2.235.604-1.001-.589 4.503-1.149 3.19-2.614 9.063-3.197.62.352-1.437.544-1.953 1.001 3.75-1.836 11.869-1.417 17.145 1.018 6.117 2.861 12.994 11.314 13.266 19.267l.309.083c-.156 3.162.484 6.819-.627 10.177z"/><path d="m27.658 49.695-.211 1.047c.983 1.335 1.763 2.781 3.016 3.821-.902-1.759-1.571-2.486-2.805-4.868"/><path d="m29.979 49.605c-.52-.576-.826-1.268-1.172-1.956.33 1.211 1.006 2.252 1.633 3.312z"/><path d="m71.063 40.675-.219.552c-.402 2.858-1.273 5.686-2.605 8.309 1.472-2.767 2.421-5.794 2.824-8.861"/><path d="m38.598.446c1.009-.369 2.482-.203 3.556-.446-1.398.117-2.789.187-4.162.362z"/><path d="m3.127 19.308c.233 2.154-1.62 2.991.41 1.569 1.09-2.454-.424-.677-.41-1.569"/><path d="m.739 29.282c.469-1.437.553-2.299.732-3.132-1.293 1.654-.596 2.007-.732 3.132"/></g><g transform="translate(94.578153)"><g fill="#000"><path d="m32.3700361 43.7337524c-.108406.113224-.108406 18.0821233-.3324451 22.7724902-.2216301 3.7918015-.5588933 11.9415248-8.5953925 11.9415248-8.2605383 0-10.2696632-9.4891398-10.9393714-13.6157955-.7805233-4.5771428-.7805233-8.3761714-.7805233-10.045624 0-5.3600752.3348541-20.3225143 12.9484962-20.3225143 3.7966195 0 5.9165594 1.1201955 7.5908301 2.0091248zm-32.3700361 13.1749443c0 31.4762888 16.7451158 31.4762888 19.1999098 31.4762888 6.9211218 0 11.3874496-3.7966196 13.2833504-10.3804782l.224039 9.9324c2.1223489-.1132241 4.2422888-.3348542 7.7016452-.3348542 1.2286015 0 2.2307548 0 3.1269112.1132241.8937474 0 1.7850858.108406 2.7896482.2216301-1.7850858-3.5701715-3.1245023-11.6066707-3.1245023-29.0263128 0-16.9667459 0-45.6533865 1.4502316-54.36200302-4.0158406 1.9007188-7.4800151 3.1293203-15.0708451 3.79661955 3.0136872 3.23772627 3.0136872 4.91199697 3.0136872 19.64316997-2.1175308-.6672993-4.7987729-1.4502316-9.3759158-1.4502316-19.98043308.002409-23.2181594 17.4172331-23.2181594 30.3705473z"/><path d="m60.5387368 51.2089494c.1132241-9.2651008 2.0115339-17.5256391 9.9348091-17.5256391 8.7086165 0 9.3735067 9.5975458 9.1518767 17.5256391zm30.1368722 1.1201955c0-13.0617203-2.565609-25.9018106-19.0866857-25.9018106-22.7700812 0-22.7700812 25.2345113-22.7700812 30.5873594 0 22.6592662 10.1564391 31.5895128 27.236409 31.5895128 7.5860121 0 11.2742256-1.1105594 13.2833504-1.6742707-.110815-4.0182496.4456692-6.5862676 1.1201955-10.045624-2.348797 1.4550496-5.3624842 3.3509504-12.0595669 3.3509504-17.4148241 0-17.6388632-15.8561865-17.6388632-21.3246677h29.6984301z"/><path d="m126.991624 57.1279178c0 10.3804782-1.895901 24.3359459-14.844397 24.3359459-1.787495 0-4.01825-.3396722-5.468481-.6721173-.224039-4.0182497-.224039-10.9393715-.224039-18.9758707 0-9.6023639 1.002153-14.6179489 1.787495-17.0799699 2.341569-7.9232752 7.588421-8.0316812 8.590574-8.0316812 8.484577 0 10.158848 11.7198947 10.158848 20.4236932zm-32.0351819 12.1679729c0 8.2629474 0 12.9484963-1.3394165 16.5186677 4.5771428 1.7874947 10.2672544 2.7896481 17.0799694 2.7896481 4.353104 0 16.966746 0 23.774644-13.9506496 3.237726-6.4754526 4.353104-15.1840692 4.353104-21.7703368 0-4.0182497-.448078-12.8352722-3.683396-18.4193865-3.122093-5.2420331-8.147314-7.9232752-13.502571-7.9232752-10.717741 0-13.842244 8.9302466-15.514105 13.5073895 0-5.6925203.108406-25.5621384.999744-35.7209865-7.2535669 3.35095038-11.7223037 3.90502557-16.5186676 4.35310376 4.3531037 1.78267674 4.3531037 9.15669474 4.3531037 33.15778644v27.4580391z"/><path d="m160.284316 87.9369073c-2.235573-.3348542-3.801438-.5588933-7.039164-.5588933-3.565354 0-6.027375.2264482-8.590575.5588933 1.115378-2.1223489 1.561047-3.1293203 1.895901-10.3804782.448078-9.9372181.558893-36.5063278-.22163-42.0880331-.558893-4.2446978-1.561046-4.911997-3.124502-6.0273744 9.151877-.8937474 11.719895-1.5610467 15.959774-3.5701715-.888929 4.907179-1.006971 7.3692-1.006971 14.844397-.219221 38.5178617-.332445 42.6445173 2.127167 47.2216602"/><path d="m196.029392 56.3425764c-.22163 7.0343459-.334854 11.9463429-2.235572 15.8513685-2.343979 5.025221-6.249005 6.4754526-9.151877 6.4754526-6.70431 0-8.149723-5.5792962-8.149723-11.0477774 0-10.4912933 9.378324-11.2790437 13.615795-11.2790437zm-30.700583 13.7338376c0 7.0343459 2.122349 14.0638737 8.376171 17.07997 2.789649 1.2286015 5.579297 1.2286015 6.475453 1.2286015 10.272072 0 13.72902-7.5932391 15.851369-12.281197-.113225 4.911997 0 7.9232752.334854 11.8331188 2.009124-.1132241 4.018249-.3348542 7.3692-.3348542 1.8959 0 3.683395.2216301 5.579296.3348542-1.228602-1.8959008-1.895901-3.0160963-2.235573-7.3692-.22163-4.2398797-.22163-8.4821685-.22163-14.3987279l.113224-22.7724902c0-8.4869864-2.235573-16.8583398-18.980689-16.8583398-11.047777 0-17.520821 3.3509503-20.758547 5.025221 1.341825 2.457203 2.457203 4.5723248 3.459356 9.3783248 4.357922-3.7966195 10.050442-5.8057443 15.851369-5.8057443 9.269918 0 9.269918 6.1405985 9.269918 14.844397-2.122348-.108406-3.909843-.3300361-6.925939-.3300361-14.181916.002409-23.557832 5.4636631-23.557832 20.4261022z"/><path d="m260.326205 76.8867208c.113224 3.7966196.113224 7.8148692 1.67427 11.0525955-2.459612-.2216301-3.909843-.5588932-8.482168-.5588932-2.681242 0-4.131474.2264481-6.253823.5588932.44326-1.4502316.672118-2.0091248.893748-3.9098436.334854-2.5632.558893-11.1610015.558893-14.1770978v-12.0547488c0-5.2468512 0-12.8400903-.339672-15.5165143-.22163-1.8959008-.775706-7.0295278-7.255976-7.0295278-6.362229 0-8.482169 4.6855488-9.265101 8.4821684-.888929 3.9050255-.888929 8.1497233-.888929 24.668391.108406 14.2903218.108406 15.6249203 1.223783 19.5347639-1.895901-.2216301-4.23988-.4432602-7.588421-.4432602-2.681242 0-4.466328.108406-6.694674.4432602.780524-1.7874948 1.228602-2.6812421 1.450232-8.9302466.226448-6.1405985.672117-36.2822888-.339672-43.4226316-.554075-4.3579218-1.674271-5.3600752-2.898054-6.4754527 9.04347-.4480782 11.941524-1.9007188 14.735991-3.3461323v11.8283008c1.337007-3.4641745 4.126655-11.1658196 15.292475-11.1658196 13.955467 0 14.063873 10.1588481 14.177098 16.8535218z"/></g><path d="m161.226244 10.0724802-9.245829 9.2410105-9.24101-9.2410105 9.24101-9.24101053z" fill="#a80030"/></g></g></svg>