<svg height="192" viewBox="0 0 940 192" width="940" xmlns="http://www.w3.org/2000/svg"><path d="m314.045 22.615c-3.486.001-6.718 1.824-8.521 4.807-1.803 2.984-1.914 6.693-.294 9.779l66.994 127.49c1.721 3.274 5.114 5.324 8.813 5.325h2.965c3.712-.001 7.115-2.066 8.83-5.358l66.4-127.488c1.607-3.086 1.486-6.788-.319-9.762-1.805-2.975-5.031-4.792-8.511-4.793h-2.371c-3.714 0-7.12 2.067-8.834 5.362l-56.699 109.041-56.961-109.057c-1.717-3.286-5.117-5.346-8.824-5.346z"/><path d="m485.691 22.004c-5.523 0-9.999 4.477-10 10v88.486c0 14.886 6.499 28.384 18.16 37.264 12.249 9.327 29.376 12.871 51.086 12.871 21.503 0 38.532-3.558 50.752-12.844 11.836-8.849 18.496-22.37 18.496-37.291v-88.486c0-5.522-4.476-9.999-9.999-10h-2.37c-5.523 0-9.999 4.477-10 10v88.299c0 9.412-2.82 15.152-9.715 20.441-6.308 4.839-18.591 8.389-37.164 8.389s-30.856-3.55-37.164-8.389c-6.895-5.289-9.713-11.029-9.713-20.441v-88.299c0-5.522-4.476-9.999-9.999-10z"/><path d="m706.468 21.523c-3.74.001-7.167 2.088-8.884 5.411l-66.95 129.584c-1.6 3.099-1.47 6.809.344 9.789 1.815 2.98 5.051 4.799 8.539 4.8h2.666c3.749.001 7.184-2.096 8.897-5.431l56.849-110.699 56.584 110.681c1.71 3.344 5.149 5.449 8.905 5.449h2.369c3.483 0 6.714-1.813 8.531-4.784 1.816-2.972 1.956-6.674.369-9.774l-66.355-129.584c-1.712-3.341-5.149-5.442-8.903-5.442z"/><path d="m870.367 22.004c-21.711 0-38.837 3.544-51.086 12.871-11.662 8.88-18.16 22.38-18.16 37.266v88.484c0 5.522 4.476 9.999 9.999 10h2.37c5.523-.001 9.999-4.477 10-10v-88.297c0-9.413 2.818-15.152 9.713-20.441 6.308-4.84 18.591-8.389 37.164-8.389s30.856 3.549 37.164 8.389c6.895 5.289 9.715 11.028 9.715 20.441v88.297c0 5.522 4.476 9.999 9.999 10h2.37c5.523-.001 9.999-4.477 10-10v-88.484c0-14.927-6.664-28.452-18.508-37.301-12.219-9.279-29.244-12.836-50.74-12.836z"/><path d="m206.936 23.418c-16.691 0-31.619 6.642-41.771 19.043-2.947 3.542-5.404 7.503-7.417 11.868-5.24 11.365 12.501 3.047 12.501 19.572 0 9.335-19.271 40.307-17.74 48.034 2.255 11.382 6.328 20.964 12.68 28.584 10.181 12.213 25.084 18.692 41.747 18.692h71.796c5.521 0 9.998-4.475 10.001-9.997v-2.518c-.001-5.523-4.478-10-10.001-10.001h-71.581c-11.572 0-19.033-3.406-25.323-10.896-5.805-6.911-9.809-19.805-9.809-39.483s4.004-32.571 9.809-39.483c6.291-7.489 13.751-10.9 25.323-10.9h71.581c5.523 0 10-4.478 10.001-10.001v-2.514c-.001-5.523-4.478-10-10.001-10z"/><path d="m.433.433c351.112 83.79 18.968 151.924 18.968 151.924-6.544 1.045-11.822 4.454-14.999 9.633-3.57 5.819-3.873 13.681-.539 19.209 4.056 6.726 9.196 9.053 13.628 10.055 6.974 1.576 12.603-.936 12.603-.936s169.799-50.46 168.523-100.863c-.641-25.303-52.066-68.102-198.184-89.022z"/></svg>