<svg height="602" width="1555" xmlns="http://www.w3.org/2000/svg"><g fill="#ff282d"><path d="M1058.1 62v405.4H1180v-62h-40.2V.3H1058zM.4 405.5h41.4V209.8H.4V156l41.4-6.8V94.8c0-66 14.4-94.6 98.5-94.6 18.2 0 39.7 2.6 58.6 6l-11.2 66.4c-12.8-2-19-2.4-27.2-2.4-29.6 0-37 3-37 31.9v47.1h61.4v60.6h-61.5v195.7h41v62H.4v-62zM1016.6 385.9c-12.7 2.7-23.9 2.4-32 2.6-33.5.8-30.6-10.2-30.6-41.9V209.8h63.8v-60.6H954V.2h-81.6v363.3c0 71.4 17.6 104 94.3 104 18.2 0 43.2-4.8 62-8.8zM1523.3 405.8a30.8 30.8 0 1 1 0 61.5 30.7 30.7 0 1 1 0-61.5m0 56.7a26 26 0 0 0 25.8-26 25.7 25.7 0 0 0-25.8-25.5 25.6 25.6 0 0 0-25.8 25.6c0 14.2 11.6 25.9 25.8 25.9m5.7-10.8-6.2-9.2h-4.3v9.2h-7v-30.3h12.7c7.4 0 12.1 3.8 12.1 10.5 0 5-2.5 8.3-6.3 9.4l7.5 10.4h-8.5zm-10.5-15.2h5.5c3.2 0 5.3-1.3 5.3-4.6 0-3.2-2.1-4.4-5.1-4.4h-5.7v9zM770.6 209.7V199a351.1 351.1 0 0 0-62.5-4.6c-38 0-42.6 20.1-42.6 31 0 15.5 5.3 23.8 46.4 32.8 60.1 13.5 120.5 27.6 120.5 102.1 0 70.7-36.4 107.2-113 107.2-51.2 0-100.9-11-138.8-20.6v-61h61.7v11c26.6 5 54.4 4.5 69 4.5 40.5 0 47-21.7 47-33.3 0-16-11.6-23.8-49.5-31.5-71.5-12.2-128.3-36.6-128.3-109.2 0-68.8 46-95.8 122.6-95.8 51.8 0 91.3 8 129.2 17.7v60.5zM395.3 263.3l-6.2-6.2-31.5 27.4a15 15 0 0 0-5-.9c-8.6 0-15.5 7.1-15.5 15.9 0 8.7 7 15.8 15.4 15.8 8.5 0 15.4-7.1 15.4-15.8 0-1.7-.2-3.3-.7-4.8z"/><path d="M520.3 385.9V132h-81.7v23.8a166.7 166.7 0 0 0-55.4-21h.5v-28.2h9.9V86h-82.1v20.7h10V135h.5a167.7 167.7 0 1 0 117 308.5l14.6 24h86.2V386h-19.5zm-162.9-.2v-9.6h-9.8v9.6a86.3 86.3 0 0 1-81-81.6h9.7v-9.8h-9.7a86.3 86.3 0 0 1 81-80.9v9.6h9.8v-9.6c43 2.3 77.5 36 81.3 78.5v2.8h-9.8v9.8h9.8v2.7a86.3 86.3 0 0 1-81.3 78.5zM1386.3 149.2h168.3v60.6h-40.2l-103.2 253.8C1381.6 534.9 1333 602 1259 602c-18.2 0-42.4-2-59.2-6l7.4-74c10.7 2 24.9 3.3 32.3 3.3 34.3 0 73-21.3 85-58.3l-104.5-257.2H1180v-60.6h168.3v60.6H1308l59.2 145.7 59.3-145.7h-40.2v-60.6z"/></g></svg>