<svg viewBox="0 0 722.9 207.3" xmlns="http://www.w3.org/2000/svg"><path d="m106.1 4.32c-56.53 0-102.3 44.93-102.4 100.4h-.01809v77.72h.01809c.02713 12.58 10.43 22.77 23.26 22.77h79.15c56.54-.03547 102.3-44.96 102.3-100.4.00008-55.47-45.82-100.4-102.4-100.4zm179.1 40.54c-21.64 0-35.53 16.13-35.66 31.22v87.49c-.0272 10.79 16.73 10.79 16.7 0v-58.39h17.17c4.016 0 7.445-2.854 7.445-7.432s-3.673-7.345-7.445-7.345h-17.17v-13.45c0-8.612 6.871-15.79 20.7-15.62 4.81.0622 6.506 1.203 8.262 2.253 9.591 6.23 18.82-8.195 8.77-13.71-6.161-3.697-11.91-5.005-18.78-5.005zm-158.3.8019c17.19 0 33.42 12.91 33.42 30.72 0 1.652.01 3.305-.2653 5.178-.4763 4.738-4.891 8.143-9.698 7.475-4.807-.6758-8.069-5.153-7.18-9.837.0815-.5346.1105-1.374.1105-2.817 0-10.1-8.425-14-16.39-14-7.963 0-15.14 6.568-15.15 14 .1376 8.593 0 17.12 0 25.7l14.78-.1084c11.54-.2344 11.67 16.81.1331 16.73l-14.91.1084c-.0361 6.912.0543 5.662.0181 9.143 0 0 .125 8.454-.1322 14.86-1.784 18.82-18.12 33.86-37.75 33.86-20.81 0-37.95-16.68-37.95-37.14.6248-21.04 17.73-37.59 39.28-37.4l12.02-.0888v16.7l-12.02.1083h-.06342c-11.84.3437-21.99 8.232-22.18 20.67 0 11.33 9.334 20.41 20.92 20.41 11.57 0 20.83-8.257 20.83-20.39l-.01808-63.25c.006-1.174.04525-2.107.1766-3.402 1.953-15.47 16.06-27.26 32.03-27.26zm341.3.7584c-5.209-.2735-9.041 4.786-8.24 9.598v37.27c-16.52-13.58-43.41-12.63-58.65 2.405-15.42 13.48-18.35 37.9-7.136 54.73 8.238 12.71 23.31 21.78 38.84 21.06 9.766-.0888 19.44-4.227 26.95-10.33-.7705 4.822 3.029 9.93 8.284 9.62 5.159.2256 9.165-4.768 8.373-9.598-.0905-35.84.0905-71.67-.0905-107.5-.2671-4.027-4.186-7.349-8.284-7.237h-.0181zm64.53 36.49a45.62 44.38 0 0 0 -45.62 44.37 45.62 44.38 0 0 0 45.62 44.39 45.62 44.38 0 0 0 45.62-44.39 45.62 44.38 0 0 0 -45.62-44.37zm149 .3899c-11.39 0-19.6 3.317-25.58 7.518-9.076 6.373.6891 19.7 9.765 13.32 4.131-2.899 7.199-4.442 15.82-4.442 10.73.2113 19.35 4.156 19.35 12.02-5.752 3.569-30.76 6.529-44.18 14.02-13.43 7.489-12.72 16.94-12.72 23.07 0 13.45 14.47 22.53 27 22.53 12.52 0 17.84-2.577 30.09-10.81v2.34c-.3957 11.3 17.12 11.3 16.72 0v-48.29c.05441-20.03-14.6-30.98-36.25-31.29zm-83.07.1732c-7.247 0-8.455 5.867-8.417 8.233v71.24c-.1983 4.605 3.685 8.428 8.55 8.428s8.748-3.823 8.55-8.428c0 0 .1286-26.5 0-43.46s13.95-20.63 18.84-20.63c3.636 0 6.552 1.991 9.433 1.885 4.277-.1581 7.776-2.976 7.776-7.908-.1286-7.968-10.08-9.096-17.43-8.948-7.349.1474-13.56 2.356-18.93 5.503 0 0-1.125-5.915-8.373-5.915zm-256.6.1732c-5.548-.4183-11.68.4538-18.42 3.012-16.33 6.19-27.41 21.4-27.46 40.17-.0454 19.66 13.98 45.03 43.08 45.22 19.57.1261 29.36-7.043 34.64-11.92 3.505-3.046 3.764-8.339.5524-11.68-3.218-3.346-8.617-3.428-11.93-.1732-3.944 3.633-9.753 9.03-26.22 7.237-7.067-.7672-14.65-6.398-17.19-10.7l53.95-22.51c4.126-1.798 6.032-6.492 4.286-10.57-7.225-13.94-18.64-26.82-35.28-28.08zm190.7 15.88a28.54 27.76 0 0 1 28.54 27.75 28.54 27.76 0 0 1 -28.54 27.78 28.54 27.76 0 0 1 -28.54-27.78 28.54 27.76 0 0 1 28.54-27.75zm-100.7.4334c14.91-.3818 28.23 12.79 27.95 27.28.3133 14.5-13.05 27.65-27.95 27.28-14.17.3685-27.16-11.4-27.88-25.2-1.509-14.22 10.4-28.1 24.99-29.23.9621-.09232 1.927-.1305 2.894-.1305zm-94.16.4334c8.113.008 15.77 4.111 19.66 10.72l-44.91 18.81c-3.206-11.74 9.952-25.53 17.12-28.1 2.687-.9631 5.425-1.432 8.13-1.43zm363.8 27.47c-.004 5.311.0815 6.846-.0634 12.15-.0362 6.376-4.118 9.325-8.395 11.76-4.276 2.44-12.97 4.576-18 4.81-5.805.1883-13.49-1.091-13.9-7.843.004-4.076 2.019-6.61 5.324-9.425 7.828-5.759 18.42-7.687 35.04-11.46z" fill="#51a2da"/></svg>