<svg height="151pt" viewBox="0 0 560 151" width="560pt" xmlns="http://www.w3.org/2000/svg" xmlns:xlink="http://www.w3.org/1999/xlink"><clipPath id="a"><path d="m551 37h8.621094v10h-8.621094zm0 0"/></clipPath><clipPath id="b"><path d="m.0585938.519531h37.9414062v38.480469h-37.9414062zm0 0"/></clipPath><clipPath id="c"><path d="m4 3h148v147.941406h-148zm0 0"/></clipPath><g fill="#ab2327"><path d="m397.53125 76.433594v30.347656c0 .816406-.039062.699219.820312.699219h16.984376c4.726562 0 9.632812.152343 13.984374-2.003907 5.515626-2.738281 8.757813-10.046874 8.175782-15.984374-.589844-5.996094-4.710938-10.09375-10.175782-12.15625-2.726562-1.027344-6.542968-.902344-9.453124-.902344-3.109376 0-20.335938 0-20.335938 0zm.003906-16.644532-.003906 9.648438h22.804688c8.878906 0 10.320312-12.4375 9.074218-16.042969-1.300781-3.765625-4.855468-6.308593-8.476562-7.460937-3.007813-.683594-23.398438-5.535156-23.398438 13.855468zm25.949219-20.953124c6.175781 1.738281 11.496094 7.203124 13.242187 13.359374 1.902344 6.710938-.222656 13.457032-4.742187 18.601563 5.53125 3.050781 10.175781 7.652344 12.039063 13.8125 1.722656 5.699219 1.304687 12.28125-1.582032 17.535156-3.15625 5.738281-9.179687 10.296875-15.558594 11.660157-3.503906.75-7.199218.492187-10.765624.492187-3.71875 0-18.039063 0-21.757813 0-2.769531 0-4.25-1.972656-4.25-4.507813 0-5.4375 0-10.875 0-16.3125 0-15.878906 0-18.898437 0-34.777343 0-25.894531 27.464844-21.53125 33.375-19.863281"/><path d="m509.699219 45.347656v61.773438h16.324219c16.539062 0 25.378906-15.183594 25.378906-30.574219 0-15.808594-8.007813-31.199219-23.917969-31.199219zm-7.695313-2.601562c0-3.328125 1.976563-4.992188 6.03125-4.992188h20.59375c20.484375 0 30.992188 19.761719 30.992188 38.792969 0 19.445313-12.691406 38.167969-33.074219 38.167969h-20.175781c-3.328125 0-4.367188-.625-4.367188-4.265625z"/><path d="m470.8125 45.472656c-6.699219 0-12.882812 5.476563-12.882812 12.675782 0 6.492187 8.71875 10.246093 17.34375 14.910156 9.125 4.972656 18.863281 9.941406 18.863281 20.492187 0 14.503907-10.851563 22.011719-24.851563 22.011719-6.386718 0-12.269531-1.726562-17.445312-5.074219-1.824219-1.21875-2.738282-2.738281-2.738282-4.460937 0-2.335938 1.117188-3.449219 3.449219-3.449219 1.117188 0 2.332031.40625 3.550781 1.21875 3.957032 2.429687 9.027344 3.851563 13.492188 3.851563 8.828125 0 16.328125-3.851563 16.328125-13.589844 0-6.085938-7.300781-9.941406-15.210937-14.101563-9.941407-5.171875-21.101563-10.851562-21.101563-21.402343 0-13.289063 10.144531-20.996094 22.824219-20.996094 5.476562 0 11.460937 1.519531 17.242187 4.664062 1.925781 1.117188 2.839844 2.941406 2.839844 4.667969 0 2.027344-1.421875 3.957031-3.550781 3.957031-1.21875 0-2.433594-.914062-3.851563-1.828125-3.246093-2.027343-9.03125-3.546875-14.300781-3.546875"/><path d="m234.9375 111.089844c-.09375 1.789062-1.3125 3.40625-3.574219 3.40625s-3.484375-1.695313-3.484375-3.484375v-33.828125c0-9.515625 6.59375-17.054688 19.125-17.054688 6.503906 0 11.496094 1.132813 15.644532 2.824219 1.597656.664063 2.636718 2.167969 2.636718 3.394531 0 2.167969-1.601562 2.921875-3.203125 2.921875-2.921875 0-6.878906-2.261719-13.003906-2.261719-8.859375 0-14.136719 4.335938-14.136719 10.835938z"/><path d="m192.433594 76.519531v34.660157c-.09375 1.789062-1.269532 3.316406-3.53125 3.316406-2.257813 0-3.488282-1.695313-3.488282-3.484375v-50.746094c.414063-16.066406 11.195313-24.09375 22.542969-24.09375h13.609375c3.046875 0 4.625 1.261719 4.625 3.679687 0 2.3125-1.578125 3.472657-4.625 3.472657l-13.328125-.042969c-8.527343 0-15.695312 5.308594-15.695312 17.0625l-.058594 5.011719s0-1.628907-.003906 4.082031h23.402343c1.945313 0 3.523438 1.582031 3.523438 3.527344 0 1.945312-1.578125 3.523437-3.523438 3.523437z"/><path d="m372.886719 85.023438h-38.976563l.050782-.390626c.675781-5.171874 3.601562-10.082031 8.035156-13.476562 3.148437-2.40625 6.898437-3.578125 11.476562-3.578125 4.707032 0 8.683594 1.4375 12.519532 4.519531 3.425781 2.75 6.894531 7.953125 6.894531 12.578125zm7.203125-1.375c-.878906-6.792969-4.480469-13.101563-10.140625-17.757813-4.578125-3.765625-10.359375-5.753906-16.710938-5.753906-12.574219 0-24.402343 10.03125-26.375 22.367187-2.058593 12.910156 5.496094 25.816406 17.582031 30.023438 5.316407 1.847656 11.296876 1.824218 17.792969-.070313 2.046875-.597656 4.339844-1.375 5.644531-3.023437.988282-1.246094.988282-3.390625-.007812-4.5-.703125-.792969-1.882812-1.242188-3.222656-1.242188-.449219 0-.828125.191406-1.269532.414063-.148437.078125-.300781.15625-.457031.226562-.964843.433594-1.859375.792969-2.734375 1.097657-3.617187 1.257812-7.226562 1.523437-10.789062.792968-3.878906-.796875-7.097656-2.515625-9.832032-5.253906-2.296874-2.296875-4.011718-5.214844-4.960937-8.429688l-.128906-.445312h41.765625c1.300781 0 2.257812-.367188 2.929687-1.132812 1.4375-1.640626 1.246094-4.769532.914063-7.3125"/><path d="m311.648438 85.023438h-38.976563l.050781-.390626c.671875-5.171874 3.601563-10.082031 8.03125-13.476562 3.148438-2.40625 6.902344-3.578125 11.476563-3.578125 4.707031 0 8.6875 1.4375 12.523437 4.519531 3.425782 2.75 6.894532 7.953125 6.894532 12.578125zm7.203124-1.375c-.878906-6.792969-4.480468-13.101563-10.136718-17.757813-4.582032-3.765625-10.363282-5.753906-16.71875-5.753906-12.570313 0-24.402344 10.03125-26.371094 22.367187-2.0625 12.910156 5.492188 25.816406 17.578125 30.023438 5.316406 1.847656 11.300781 1.824218 17.796875-.070313 2.046875-.597656 4.339844-1.375 5.640625-3.023437.992187-1.246094.992187-3.390625 0-4.5-.710937-.792969-1.882813-1.242188-3.226563-1.242188-.449218 0-.828124.191406-1.269531.414063-.152343.078125-.300781.15625-.457031.226562-.964844.433594-1.859375.792969-2.738281 1.097657-3.613281 1.257812-7.222657 1.523437-10.785157.792968-3.882812-.796875-7.097656-2.515625-9.835937-5.253906-2.296875-2.296875-4.011719-5.214844-4.960937-8.429688l-.128907-.445312h41.769531c1.300782 0 2.261719-.367188 2.929688-1.132812 1.441406-1.640626 1.246094-4.769532.914062-7.3125"/><path d="m161.941406 10.085938c.140625 0 .273438-.007813.402344-.015626.128906-.011718.242188-.042968.335938-.09375.09375-.050781.171874-.125.230468-.214843.058594-.09375.085938-.222657.085938-.390625 0-.140625-.027344-.25-.089844-.332032-.0625-.078124-.140625-.140624-.238281-.1875-.09375-.042968-.203125-.070312-.320313-.082031-.117187-.007812-.230468-.015625-.339844-.015625h-.902343v1.332032zm-.835937 2.585937h-.746094v-4.554687h1.726563c.550781 0 .964843.101562 1.242187.308593.277344.203125.417969.539063.417969 1 0 .410157-.113282.710938-.339844.902344s-.511719.304687-.847656.339844l1.277344 2.003906h-.847657l-1.179687-1.949219h-.703125zm3.960937-2.355469c0-.5-.082031-.957031-.242187-1.375-.160157-.417968-.386719-.777344-.671875-1.078125s-.617188-.535156-1-.699219c-.382813-.164062-.792969-.246093-1.230469-.246093-.449219 0-.863281.082031-1.25.246093-.386719.164063-.722656.398438-1.007813.699219-.285156.300781-.507812.660157-.671874 1.078125-.160157.417969-.238282.875-.238282 1.375 0 .46875.070313.910156.21875 1.320313.144532.410156.355469.769531.632813 1.078125.273437.308594.605469.550781.996093.730468.386719.179688.828126.269532 1.320313.269532.4375 0 .847656-.082032 1.230469-.246094.382812-.164062.714844-.398438 1-.699219s.511718-.660156.671875-1.074219c.160156-.414062.242187-.871093.242187-1.378906zm.878906 0c0 .617188-.105468 1.175782-.324218 1.683594-.214844.507812-.507813.9375-.878906 1.296875-.371094.359375-.800782.636719-1.289063.835937-.484375.199219-1 .296876-1.53125.296876-.597656 0-1.140625-.105469-1.636719-.3125-.492187-.210938-.917968-.496094-1.273437-.863282-.355469-.367187-.636719-.800781-.835938-1.304687-.203125-.5-.304687-1.046875-.304687-1.632813 0-.617187.109375-1.175781.324218-1.683594.21875-.503906.511719-.9375.882813-1.296874.367187-.359376.800781-.636719 1.289063-.835938.492187-.199219 1.011718-.296875 1.554687-.296875.53125 0 1.046875.097656 1.53125.296875.488281.199219.917969.476562 1.289063.835938.371093.359374.664062.792968.878906 1.296874.21875.507813.324218 1.066407.324218 1.683594"/></g><g clip-path="url(#a)"><path d="m555.472656 41.6875c.140625 0 .273438-.003906.402344-.015625s.238281-.042969.335938-.09375c.09375-.050781.171874-.121094.230468-.214844.058594-.089843.085938-.222656.085938-.390625 0-.136718-.03125-.25-.089844-.328125-.0625-.082031-.140625-.144531-.238281-.1875-.09375-.046875-.203125-.070312-.320313-.082031-.117187-.011719-.230468-.015625-.339844-.015625h-.902343v1.328125zm-.835937 2.585938h-.746094v-4.554688h1.726563c.550781 0 .964843.101562 1.242187.308594.277344.207031.417969.539062.417969 1 0 .410156-.113282.710937-.339844.902344-.226562.191406-.511719.304687-.847656.339843l1.277344 2.003907h-.847657l-1.179687-1.945313h-.703125zm3.960937-2.351563c0-.5-.082031-.957031-.242187-1.375-.160157-.421875-.382813-.78125-.671875-1.078125-.285156-.304688-.617188-.535156-1-.699219-.382813-.167969-.792969-.25-1.230469-.25-.449219 0-.863281.082031-1.25.25-.386719.164063-.722656.394531-1.007813.699219-.285156.296875-.507812.65625-.671874 1.078125-.160157.417969-.238282.875-.238282 1.375 0 .46875.070313.90625.21875 1.316406.144532.410157.355469.773438.632813 1.078125.273437.308594.605469.550782.996093.734375.386719.179688.828126.269531 1.320313.269531.4375 0 .847656-.085937 1.230469-.25.382812-.164062.714844-.398437 1-.699218.289062-.300782.511718-.65625.671875-1.070313.160156-.414062.242187-.875.242187-1.378906zm.878906 0c0 .613281-.109374 1.175781-.324218 1.679687-.214844.507813-.507813.9375-.878906 1.300782-.371094.359375-.800782.636718-1.289063.835937-.488281.195313-.996094.296875-1.53125.296875-.597656 0-1.140625-.105468-1.636719-.316406-.492187-.207031-.917968-.496094-1.273437-.863281-.355469-.367188-.636719-.800781-.835938-1.300781-.203125-.503907-.304687-1.046876-.304687-1.632813 0-.617187.109375-1.179687.324218-1.683594.21875-.507812.511719-.941406.882813-1.300781.367187-.359375.800781-.636719 1.289063-.835938.492187-.195312 1.011718-.296874 1.554687-.296874.535156 0 1.042969.101562 1.53125.296874.488281.199219.917969.476563 1.289063.835938.371093.359375.664062.792969.878906 1.300781.214844.503907.324218 1.066407.324218 1.683594" fill="#ab2327"/></g><path d="m151.089844 3.089844c8.101562 8.097656-14.359375 43.695312-18.15625 47.492187-3.796875 3.792969-13.441406.304688-21.539063-7.796875-8.101562-8.097656-11.59375-17.746094-7.796875-21.542968 3.796875-3.796876 39.390625-26.253907 47.492188-18.152344" fill="#ab2327"/><g clip-path="url(#b)"><path d="m37.476562 11.65625c-12.367187-7.015625-29.964843-14.824219-35.566406-9.222656-5.671875 5.667968 2.417969 23.664062 9.511719 36.058594 6.308594-10.972657 15.289063-20.210938 26.054687-26.835938" fill="#ab2327"/></g><g clip-path="url(#c)"><path d="m138.734375 47.789062c1.136719 3.863282.929687 7.054688-.914063 8.898438-4.316406 4.316406-15.96875-.277344-26.476562-10.277344-.734375-.65625-1.460938-1.339844-2.175781-2.054687-3.796875-3.800781-6.753907-7.847657-8.644531-11.574219-3.679688-6.597656-4.597657-12.429688-1.816407-15.210938 1.515625-1.515624 3.9375-1.925781 6.898438-1.394531 1.925781-1.21875 4.203125-2.578125 6.699219-3.972656-10.152344-5.292969-21.695313-8.285156-33.941407-8.285156-40.617187 0-73.542969 32.921875-73.542969 73.542969 0 40.613281 32.925782 73.539062 73.542969 73.539062 40.617188 0 73.542969-32.925781 73.542969-73.539062 0-13.117188-3.441406-25.417969-9.457031-36.082032-1.300781 2.371094-2.5625 4.546875-3.714844 6.410156" fill="#ab2327"/></g></svg>