<svg height="96" width="96" xmlns="http://www.w3.org/2000/svg" xmlns:xlink="http://www.w3.org/1999/xlink"><linearGradient id="a"><stop offset="0" stop-color="#fff"/><stop offset="1" stop-color="#fff" stop-opacity="0"/></linearGradient><linearGradient id="b" gradientUnits="userSpaceOnUse" x1="36.357143" x2="36.357143" xlink:href="#a" y1="6" y2="63.893143"/><filter id="c" color-interpolation-filters="sRGB" height="1.384" width="1.384" x="-.192" y="-.192"><feGaussianBlur stdDeviation="5.28"/></filter><linearGradient id="d" gradientUnits="userSpaceOnUse" x1="48" x2="48" xlink:href="#a" y1="20.220806" y2="138.66119"/><radialGradient id="e" cx="48" cy="90.171875" gradientTransform="matrix(1.1573129 0 0 .99590774 -7.551021 .197132)" gradientUnits="userSpaceOnUse" r="42" xlink:href="#a"/><clipPath id="f"><rect height="84" rx="6" width="84" x="6" y="6"/></clipPath><linearGradient id="g" gradientUnits="userSpaceOnUse" x1="48" x2="48" y1="90" y2="5.987717"><stop offset="0" stop-color="#78a1bd"/><stop offset="1" stop-color="#afc8d8"/></linearGradient><linearGradient id="h" gradientTransform="matrix(1.0058652 0 0 .994169 100 0)" gradientUnits="userSpaceOnUse" x1="45.447727" x2="45.447727" y1="92.539597" y2="7.01654"><stop offset="0"/><stop offset="1" stop-opacity=".588235"/></linearGradient><linearGradient id="i" gradientTransform="matrix(1.0238095 0 0 1.0119048 -1.142857 -98.071429)" gradientUnits="userSpaceOnUse" x1="32.251034" x2="32.251034" xlink:href="#h" y1="6.131708" y2="90.238609"/><linearGradient id="j" gradientTransform="translate(0 -97)" gradientUnits="userSpaceOnUse" x1="32.251034" x2="32.251034" xlink:href="#h" y1="6.131708" y2="90.238609"/><linearGradient id="k" gradientUnits="userSpaceOnUse" x1="66.67557213812" x2="50.77716310564" y1="63.37886664826" y2="4.04520207044"><stop offset="0" stop-color="#3972ac"/><stop offset="1" stop-color="#5b91c9"/></linearGradient><linearGradient id="l" gradientUnits="userSpaceOnUse" x1="50.035419" x2="50.035419" y1="72.402008" y2="22.69219"><stop offset="0" stop-color="#0e4688"/><stop offset="1" stop-color="#135eb7"/></linearGradient><linearGradient id="m" gradientTransform="matrix(0 1 -1 0 96 0)" gradientUnits="userSpaceOnUse" x1="22.03125" x2="104" xlink:href="#a" y1="48" y2="48"/><linearGradient id="n" gradientUnits="userSpaceOnUse" x1="36" x2="36" xlink:href="#a" y1="8" y2="128.59851"/><g fill="url(#i)"><path d="m12-95.03125c-5.5110903 0-10.03125 4.52016-10.03125 10.03125v71c0 5.5110902 4.5201598 10.03125 10.03125 10.03125h72c5.51109 0 10.03125-4.5201597 10.03125-10.03125v-71c0-5.51109-4.52016-10.03125-10.03125-10.03125z" opacity=".08" transform="scale(1 -1)"/><path d="m12-94.03125c-4.971633 0-9.03125 4.059617-9.03125 9.03125v71c0 4.9716329 4.0596171 9.03125 9.03125 9.03125h72c4.971633 0 9.03125-4.059617 9.03125-9.03125v-71c0-4.971633-4.059617-9.03125-9.03125-9.03125z" opacity=".1" transform="scale(1 -1)"/><path d="m12-93c-4.4091333 0-8 3.590867-8 8v71c0 4.4091333 3.5908667 8 8 8h72c4.409133 0 8-3.5908667 8-8v-71c0-4.409133-3.590867-8-8-8z" opacity=".2" transform="scale(1 -1)"/><rect height="85" opacity=".3" rx="7" transform="scale(1 -1)" width="86" x="5" y="-92"/></g><rect fill="url(#j)" height="84" opacity=".45" rx="6" transform="scale(1 -1)" width="84" x="6" y="-91"/><rect fill="url(#g)" height="84" rx="6" width="84" x="6" y="6"/><path d="m29.8125-.53125c-3.390962 0-6.1875 2.7965378-6.1875 6.1875v58.5c0 3.390962 2.796538 6.1875 6.1875 6.1875h58.46875c3.390962 0 6.1875-2.796538 6.1875-6.1875v-58.5c0-3.3909622-2.796538-6.1875-6.1875-6.1875z" opacity=".05" transform="matrix(.96592582 .25881905 -.25881905 .96592583 0 0)"/><path d="m29.8125.40625c-2.88067 0-5.25 2.3693302-5.25 5.25v58.5c0 2.88067 2.36933 5.25 5.25 5.25h58.46875c2.88067 0 5.25-2.36933 5.25-5.25v-58.5c0-2.8806698-2.36933-5.25-5.25-5.25z" opacity=".15" transform="matrix(.96592582 .25881905 -.25881905 .96592583 0 0)"/><rect height="66.849632" opacity=".3" rx="4.178102" transform="matrix(.96592582 .25881905 -.25881905 .96592583 0 0)" width="66.849632" x="25.621756" y="1.482233"/><rect fill="url(#k)" height="66.849632" rx="4.178102" transform="matrix(.96592582 .25881905 -.25881905 .96592583 0 0)" width="66.849632" x="25.362936" y=".516307"/><path d="m25.28125 21c-2.898211 0-5.28125 2.383039-5.28125 5.28125v45.4375c0 2.898211 2.383039 5.28125 5.28125 5.28125h45.4375c2.898211 0 5.28125-2.383039 5.28125-5.28125v-45.4375c0-2.898211-2.383039-5.28125-5.28125-5.28125z" opacity=".1"/><path d="m25.28125 21.96875c-2.369423 0-4.3125 1.943077-4.3125 4.3125v45.4375c0 2.369423 1.943077 4.3125 4.3125 4.3125h45.4375c2.369423 0 4.3125-1.943077 4.3125-4.3125v-45.4375c0-2.369423-1.943077-4.3125-4.3125-4.3125z" opacity=".15"/><rect height="51.963398" opacity=".3" rx="3.247712" width="51.963398" x="22.018299" y="23.018297"/><rect fill="url(#l)" height="51.963398" rx="3.247712" width="51.963398" x="22.018299" y="22.018297"/><path d="m73.96875 25.28125c0-1.799233-1.450767-3.25-3.25-3.25h-45.4375c-1.799233 0-3.25 1.450767-3.25 3.25v45.4375c0 1.799233 1.450767 3.25 3.25 3.25h45.4375c1.799233 0 3.25-1.450767 3.25-3.25zm-.96875 0v45.4375c0 1.279303-1.001947 2.28125-2.28125 2.28125h-45.4375c-1.279303 0-2.28125-1.001947-2.28125-2.28125v-45.4375c0-1.279303 1.001947-2.28125 2.28125-2.28125h45.4375c1.279303 0 2.28125 1.001947 2.28125 2.28125z" fill="url(#m)" opacity=".4"/><path d="m27.5625 8c-1.942834-.1185637-3.757055 1.1374267-4.28125 3.09375l-15.125 56.5c-.5990803 2.235798.7017019 4.52592 2.9375 5.125l56.5 15.125c2.235798.59908 4.52592-.701702 5.125-2.9375l15.125-56.5c.59908-2.235798-.701702-4.52592-2.9375-5.125l-56.5-15.125c-.279475-.074885-.566202-.1393123-.84375-.15625zm-.09375 1.03125c.209906.014312.442517.06773.65625.125l56.5 15.125c1.709864.458157 2.705765 2.142812 2.25 3.84375l-15.15625 56.5c-.455765 1.700938-2.142812 2.705765-3.84375 2.25l-56.53125-15.15625c-1.7009384-.455765-2.6456566-2.133886-2.1875-3.84375l15.125-56.5c.400887-1.4961298 1.718159-2.4439344 3.1875-2.34375z" fill="url(#n)" opacity=".6"/><rect height="66" rx="12" style="opacity:.1;stroke:#fff;stroke-width:.5;stroke-linecap:round;clip-path:url(#f);fill:url(#d);filter:url(#c)" width="66" x="15" y="15"/><path d="m36 31.03125a.95511873.95511873 0 0 0 -.96875.96875v34a.95511873.95511873 0 0 0 .96875.96875h10a.95511873.95511873 0 0 0 .96875-.96875v-11.03125h11.03125a.95511873.95511873 0 0 0 .96875-.96875v-8a.95511873.95511873 0 0 0 -.96875-.96875h-11.03125v-4.0625h15.03125a.95511873.95511873 0 0 0 .96875-.96875v-8a.95511873.95511873 0 0 0 -.96875-.96875z" fill="#143b69"/><path d="m36 32v34h10v-12h12v-8h-12v-6h16v-8z" fill="#fff"/><path d="m12 6c-3.324 0-6 2.676-6 6v2 68 2c0 .334721.04135.6507.09375.96875.0487.295596.09704.596915.1875.875.00988.03038.020892.0636.03125.09375.098865.287771.2348802.547452.375.8125.1445918.273507.3156161.535615.5.78125s.3737765.473472.59375.6875c.439947.428056.94291.814526 1.5 1.09375.278545.139612.5734731.246947.875.34375-.2562018-.100222-.4867109-.236272-.71875-.375-.00741-.0044-.023866.0045-.03125 0-.031933-.0193-.062293-.04251-.09375-.0625-.120395-.0767-.2310226-.163513-.34375-.25-.1061728-.0808-.2132809-.161112-.3125-.25-.1779299-.161433-.3474596-.345388-.5-.53125-.1075789-.130255-.2183939-.265285-.3125-.40625-.025089-.03838-.038446-.08587-.0625-.125-.064763-.103032-.1302275-.204517-.1875-.3125-.1010083-.194706-.2056748-.415701-.28125-.625-.00796-.02181-.023589-.04055-.03125-.0625-.0318251-.09195-.0358045-.186831-.0625-.28125-.0303323-.106618-.0703894-.203031-.09375-.3125-.0728786-.341512-.125-.698205-.125-1.0625v-2-68-2c0-2.781848 2.2181517-5 5-5h2 68 2c2.781848 0 5 2.218152 5 5v2 68 2c0 .364295-.05212.720988-.125 1.0625-.04415.206893-.08838.397658-.15625.59375-.0077.02195-.0233.04069-.03125.0625-.06274.173739-.138383.367449-.21875.53125-.04158.0828-.07904.169954-.125.25-.0546.09721-.126774.18835-.1875.28125-.09411.140965-.204921.275995-.3125.40625-.143174.17445-.303141.346998-.46875.5-.01117.0102-.01998.02115-.03125.03125-.138386.125556-.285091.234436-.4375.34375-.102571.07315-.204318.153364-.3125.21875-.0074.0045-.02384-.0044-.03125 0-.232039.138728-.462548.274778-.71875.375.301527-.0968.596455-.204138.875-.34375.55709-.279224 1.060053-.665694 1.5-1.09375.219973-.214028.409366-.441865.59375-.6875s.355408-.507743.5-.78125c.14012-.265048.276135-.524729.375-.8125.01041-.03078.02133-.06274.03125-.09375.09046-.278085.1388-.579404.1875-.875.0524-.31805.09375-.634029.09375-.96875v-2-68-2c0-3.324-2.676-6-6-6z" fill="url(#b)" opacity=".5"/><path d="m12 90c-3.324 0-6-2.676-6-6v-2-68-2c0-.334721.04135-.6507.09375-.96875.0487-.295596.09704-.596915.1875-.875.00988-.03038.020892-.0636.03125-.09375.098865-.287771.2348802-.547452.375-.8125.1445918-.273507.3156161-.535615.5-.78125s.3737765-.473472.59375-.6875c.439947-.428056.94291-.814526 1.5-1.09375.278545-.139612.5734731-.246947.875-.34375-.2562018.100222-.4867109.236272-.71875.375-.00741.0044-.023866-.0045-.03125 0-.031933.0193-.062293.04251-.09375.0625-.120395.0767-.2310226.163513-.34375.25-.1061728.0808-.2132809.161112-.3125.25-.1779299.161433-.3474596.345388-.5.53125-.1075789.130255-.2183939.265285-.3125.40625-.025089.03838-.038446.08587-.0625.125-.064763.103032-.1302275.204517-.1875.3125-.1010083.194706-.2056748.415701-.28125.625-.00796.02181-.023589.04055-.03125.0625-.0318251.09195-.0358045.186831-.0625.28125-.0303323.106618-.0703894.203031-.09375.3125-.0728786.341512-.125.698205-.125 1.0625v2 68 2c0 2.781848 2.2181517 5 5 5h2 68 2c2.781848 0 5-2.218152 5-5v-2-68-2c0-.364295-.05212-.720988-.125-1.0625-.04415-.206893-.08838-.397658-.15625-.59375-.0077-.02195-.0233-.04069-.03125-.0625-.06274-.173739-.138383-.367449-.21875-.53125-.04158-.0828-.07904-.169954-.125-.25-.0546-.09721-.126774-.18835-.1875-.28125-.09411-.140965-.204921-.275995-.3125-.40625-.143174-.17445-.303141-.346998-.46875-.5-.01117-.0102-.01998-.02115-.03125-.03125-.138386-.125556-.285091-.234436-.4375-.34375-.102571-.07315-.204318-.153364-.3125-.21875-.0074-.0045-.02384.0044-.03125 0-.232039-.138728-.462548-.274778-.71875-.375.301527.0968.596455.204138.875.34375.55709.279224 1.060053.665694 1.5 1.09375.219973.214028.409366.441865.59375.6875s.355408.507743.5.78125c.14012.265048.276135.524729.375.8125.01041.03078.02133.06274.03125.09375.09046.278085.1388.579404.1875.875.0524.31805.09375.634029.09375.96875v2 68 2c0 3.324-2.676 6-6 6z" fill="url(#e)" opacity=".2"/></svg>