<svg height="47" viewBox="0 0 170 47" width="170" xmlns="http://www.w3.org/2000/svg" xmlns:xlink="http://www.w3.org/1999/xlink"><linearGradient id="a" gradientUnits="userSpaceOnUse" x1="-5.966" x2="22.477" y1="-102.71" y2="46.261"><stop offset="0" stop-color="#fff"/><stop offset=".342" stop-color="#fff"/><stop offset=".52" stop-color="#bebdf3"/><stop offset=".754" stop-color="#867fb7"/><stop offset=".871" stop-color="#9f99c7"/><stop offset="1" stop-color="#524c76"/></linearGradient><linearGradient id="b"><stop offset="0" stop-color="#fff"/><stop offset=".342" stop-color="#fff"/><stop offset=".52" stop-color="#bebbdb"/><stop offset=".754" stop-color="#928bbe"/><stop offset=".871" stop-color="#9f99c7"/><stop offset="1" stop-color="#524c76"/></linearGradient><linearGradient id="c" gradientUnits="userSpaceOnUse" x1="29.025" x2="20.433" xlink:href="#b" y1="34.427" y2="-4.095"/><radialGradient id="d" cx="2.567" cy="22.387" gradientUnits="userSpaceOnUse" r="31.949" xlink:href="#b"/><radialGradient id="e" cx="23.184" cy="42.08" gradientUnits="userSpaceOnUse" r="218.022" xlink:href="#b"/><path d="m.836 37.08c.005-1.911 1.631-4.581 3.94-7.005 1.543-1.621 3.11-3.043 6.527-5.957-2.363-1.296-6.039-2.861-7.883-4.91-.683-.758-1.919-2.476-1.68-4.77.489-4.678 6.262-11.776 14.468-13.276 2.73-.5 5.865-.139 8.445 1.021 8.094 3.639 17.992 12.679 19.21 17.093.429 1.554.347 4.03-.392 5.41-.916 1.711-4.087 5.186-8.425 8.771-6.807 5.625-16.345 11.666-23.467 12.682-2.302.329-4.653-.014-6.303-.945-2.582-1.456-3.438-3.401-3.74-3.984-.801-1.55-.701-3.514-.7-4.13zm19.157-21.479c.088-1.084 4.339-.004 4.07.854-.283.906-4.171.39-4.07-.854z" fill="url(#a)"/><path d="m13.603 22.327c-2.236 1.889-3.724 3.162-5.588 4.866-4.49 4.104-7.541 7.228-5.968 11.498 1.814 4.926 5.792 4.676 10.456 3.76 12.022-2.371 31.784-17.563 30.776-23.175-.815-4.541-11.855-13.568-18.392-16.781-2.043-1.003-4.396-1.522-6.757-1.411-8.989.424-16.008 8.608-15.65 13.042.349 4.314 11.252 8.073 11.123 8.201zm-1.349-15.059c-2.705 3.009-.975 8.831 3.51 12.005 5.249 3.713 13.748 4.385 15.439 1.522 3.155-5.342-.289-10.99-5.431-13.509-5.081-2.49-11.832-1.894-13.518-.018z" fill="url(#c)"/><path d="m21.478 19.146c3.797.528 7.07-.992 7.582-4.742.39-2.856-3.981-5.977-6.609-6.697-2.195-.601-6.96.172-7.281 4.323-.334 4.315 4.094 6.809 6.308 7.116zm-1.859-7.176c-2.496 3.866 3.623 5.054 4.56 4.349 4.038-3.039-3.461-6.053-4.56-4.349z" fill="url(#d)"/><path d="m17.405 2.111c-4.414.465-5.259 1.033-9.258 4.059-1.34 1.014-3.807 3.481-4.439 6.408-.241 1.115.044 2.077.847 2.752 2.57 2.162 6.873 3.915 10.403 5.61 1.034.497.35 1.397-1.318 2.84-4.207 3.643-9.895 8.076-10.292 11.455-.188 1.592.357 3.755 2.29 4.862 2.257 1.293 6.943.449 10.072-.716 4.572-1.703 10.578-5.46 15.347-9.154 4.958-3.841 9.568-8.719 9.796-9.515.28-.977.252-1.88-.288-2.917-.849-1.63-1.983-2.84-3.202-4.196-3.269-3.446-6.727-6.474-10.865-8.795-2.989-1.675-5.618-3.059-9.093-2.693zm6.485 7.726c3.189 1.542 6.464 5.592-.029 7.923-1.765.634-7.364-1.557-7.193-4.546.25-4.416 3.328-5.259 7.222-3.377z" fill="url(#e)"/><g fill="#534779"><path d="m124.551 5.771h2.169v26.078c-.723-.026-1.498.026-2.195-.026 0-8.649 0-17.325 0-25.974 0-.026 0-.078.026-.078z"/><path d="m129.999 5.771h2.401v2.763c-.8 0-1.601 0-2.401 0 0-.903-.052-1.885 0-2.763z"/><path d="m94.032 13.672h1.653v1.833c-.543 0-1.085 0-1.627 0-.052 4.028-.026 8.547-.026 12.781 0 .646-.026 1.291.181 1.653.232.387.904.439 1.472.413v1.91c-1.446.104-2.84 0-3.383-.981-.464-.903-.464-2.22-.464-3.589 0-4.028 0-8.262 0-12.161-.388 0-.801 0-1.188 0 0-.619 0-1.239 0-1.833h1.188c0-1.343 0-2.659 0-4.002.697-.284 1.471-.62 2.168-.878.026 1.601.026 3.228.026 4.854z"/><path d="m164.003 9.051h1.885v.49c-.232 0-.439 0-.671 0-.052 1.962 0 4.028-.026 6.016-.181-.026-.413.026-.568-.026 0-1.988 0-4.002 0-5.99-.233 0-.439 0-.671 0 .025-.155 0-.361.051-.49z"/><path d="m166.508 9.051h.955c.181 2.013.413 3.976.62 5.99.129-.465.155-.956.206-1.446.155-1.498.284-3.047.465-4.519h.955v6.507c-.155 0-.387.026-.49-.026-.026-1.988.026-4.054-.026-6.016-.103.078-.078.233-.103.336-.181 1.859-.414 3.847-.62 5.68-.258 0-.516 0-.775 0-.232-2.014-.413-4.079-.671-6.042-.103 1.911-.026 4.028-.052 6.042-.155 0-.309 0-.49 0 0-2.143-.026-4.389.026-6.506z"/><path d="m64.959 14.757c.078-.362.104-.749.181-1.085h2.014v19.133c0 1.704 0 3.227-.439 4.337-.439 1.188-1.42 1.756-2.995 1.808-1.627.051-2.788-.362-3.382-1.42-.542-1.007-.62-2.428-.594-4.183h2.272c.052 1.187-.129 2.478.31 3.253.387.671 1.652.671 2.117.103.542-.671.465-2.091.465-3.408 0-1.162 0-2.349 0-3.331-.207.259-.362.517-.568.723-1.059 1.033-3.331 1.059-4.08-.232-.516-.878-.516-2.324-.516-3.77 0-2.866 0-5.732 0-8.598 0-2.401.026-4.647 2.169-4.828 1.575-.129 2.453.568 3.046 1.498zm-2.943 4.002v7.203c0 1.24-.052 2.556.413 3.176.336.465 1.214.646 1.756.336.749-.413.774-1.833.774-3.176 0-2.711 0-5.164 0-7.952 0-1.291.026-2.737-.826-3.176-.232-.103-.697-.129-.903-.103-1.343.206-1.214 2.168-1.214 3.692z"/><path d="m77.818 23.819c-1.705 0-3.434 0-5.139 0v3.357c0 1.058-.025 2.324.465 2.892.439.516 1.524.49 1.963 0 .748-.878.335-2.97.464-4.441h2.272c-.051 2.039.129 3.821-.568 5.215-.49.956-1.549 1.42-2.866 1.446-1.342.052-2.556-.284-3.175-1.136-.723-1.007-.775-2.866-.775-4.673 0-1.782 0-3.718 0-5.448 0-1.962-.103-3.796.207-5.242.335-1.626 1.187-2.427 2.969-2.556 1.807-.103 3.021.336 3.589 1.42.594 1.085.619 2.634.619 4.286-.025 1.601-.025 3.305-.025 4.88zm-2.298-5.422c0-1.601.103-3.46-1.575-3.305-1.317.129-1.291 1.756-1.291 3.228v3.615c.903.051 1.91 0 2.866.025 0-1.11 0-2.298 0-3.563z"/><path d="m88.429 31.849c-.723 0-1.445 0-2.168 0 0-4.028 0-8.288 0-12.445 0-1.317.129-2.943-.388-3.769-.439-.698-1.781-.723-2.246-.026-.542.8-.413 2.453-.413 3.769v12.471c-.723 0-1.446 0-2.169 0 0-6.067 0-12.109 0-18.177h2.014c.052.362.103.697.129 1.059.516-.697 1.188-1.42 2.324-1.498 2.917-.232 2.892 2.298 2.892 5.061.025 4.467.025 9.295.025 13.555z"/><path d="m100.952 13.259c1.291-.103 2.504.129 3.176.775 1.291 1.213 1.058 4.26 1.058 6.816v3.95c0 2.582.207 5.578-1.136 6.765-.749.646-1.962.826-3.176.697-1.136-.103-2.039-.568-2.478-1.446-.465-.929-.568-2.323-.594-3.795-.026-1.575 0-2.892 0-4.364 0-1.575-.078-2.943 0-4.389.052-1.317.129-2.814.671-3.718.439-.826 1.394-1.188 2.479-1.291zm-.904 5.577v7.694c0 1.291-.103 2.815.413 3.46.439.542 1.498.491 1.885.129.646-.568.568-2.169.568-3.485 0-2.763 0-5.242 0-8.108 0-1.652.103-3.666-1.626-3.434-1.395.207-1.24 2.143-1.24 3.744z"/><path d="m111.512 13.259c1.627-.129 3.073.258 3.666 1.446.646 1.265.594 3.46.594 5.5v6.067c0 2.014-.026 4.106-1.007 5.112-.955.982-3.305 1.214-4.75.465-1.395-.749-1.575-2.504-1.627-4.725-.052-1.549 0-2.892 0-4.337 0-1.472-.026-2.996 0-4.364.026-1.343.129-2.84.594-3.77.439-.903 1.368-1.291 2.53-1.394zm-.904 5.706v3.976 3.951c0 1.317-.051 2.84.672 3.331.464.309 1.342.206 1.652-.104.62-.568.542-2.22.542-3.511 0-2.711 0-5.267 0-8.107 0-1.679.078-3.641-1.626-3.409-1.42.207-1.24 2.247-1.24 3.873z"/><path d="m142.986 31.849c-.723 0-1.446 0-2.169 0 0-4.002 0-8.21 0-12.367 0-1.317.155-2.918-.335-3.77-.31-.568-1.291-.826-1.963-.413-.826.516-.723 2.246-.723 3.589v12.935c-.671.052-1.471 0-2.194.026 0-6.067 0-12.109 0-18.177h2.014c.051.336.103.697.129 1.059.516-.697 1.187-1.42 2.323-1.498 2.918-.232 2.892 2.272 2.892 5.035.026 4.467.026 9.398.026 13.581z"/><path d="m130.076 13.672h2.169c-.026 6.042.026 12.161-.026 18.177-.723 0-1.42 0-2.143 0-.051-5.99 0-12.083-.026-18.099 0-.026 0-.078.026-.078z"/><path d="m146.317 13.672h2.169v12.368c0 1.601-.259 3.873.929 4.312.697.258 1.394-.026 1.678-.491.517-.826.388-2.453.388-3.77 0-4.156 0-8.391 0-12.445h2.22v18.152c-.619.051-1.368 0-2.014.025-.077-.335-.129-.723-.18-1.084-.465.878-1.498 1.549-2.892 1.472-2.324-.104-2.298-2.505-2.298-4.983 0-4.493 0-9.141 0-13.504-.026 0-.026-.052 0-.052z"/><path d="m155.947 13.672h2.247c.516 2.221 1.033 4.441 1.549 6.662.542-2.195 1.007-4.441 1.523-6.662h2.066c-.775 2.685-1.498 5.448-2.272 8.211-.052.181-.155.387-.155.516 0 .284.258.878.335 1.188.801 2.763 1.55 5.525 2.35 8.236-.775 0-1.575 0-2.35 0-.593-2.504-1.213-4.983-1.781-7.487-.62 2.478-1.188 4.983-1.782 7.487-.697 0-1.368 0-2.065 0 .8-2.711 1.575-5.499 2.375-8.288.103-.387.336-.826.336-1.162 0-.284-.207-.748-.284-1.084-.697-2.53-1.394-5.061-2.092-7.565 0-.026-.025-.026 0-.052z"/></g></svg>