<svg height="498" viewBox="0 0 381 498" width="381" xmlns="http://www.w3.org/2000/svg"><g fill="none" stroke="#566" stroke-linecap="round" stroke-linejoin="round" stroke-width="16"><path d="m324.789 152.58c19.617 76.083 22.315 167.612 19.706 241.634-54.957 12.937-108.45 36.718-164.869 38.812-57.881 2.149-107.084-18.112-171.626-27.169 0 0 7.412-210.129 60.337-295.667 29.012-46.89 44.145-95.415 130.278-101.936 74.217 5.558 92.579 48.984 115.232 107.022"/><path d="m272.314 206.74c-12.122 0-49.101-70.571-49.497-111.117-.161-16.447-3.03-46.308 19.193-45.457 19.029.73 26.71 14.032 32.325 61.62m-10.827 49.945c-4.811 13.894-9.376 24.806-9.376 24.806"/><path d="m222.817 102.694c55.393 11.375 102.435 8.349 132.33 31.315 10.629 8.166-40.08 24.272-62.63 26.264-32.92 2.908-50.507 3.03-50.507 3.03"/><path d="m84.101 158.253s-16.219 52.704-20.948 79.793c-3.431 19.651-5.316 59.608-5.316 59.608s37.338 18.192 57.579 20.203c19.286 1.916 57.578-8.081 57.578-8.081s3.262-39.036 2.98-58.588c-.302-20.941-5-62.631-5-62.631"/><path d="m70.969 304.725c-8.138 23.872-1.188 60.104 6.061 62.629 40.433 14.084 87.632-56.961 76.772-54.548"/><path d="m87.741 422.892s16.218 27.876 25.755 40.84c7.229 9.826 12.393 23.376 23.742 27.851 11.035 4.35 23.516-4.776 35.355-4.041 11.412.709 23.332 13.619 33.335 8.081 4.658-2.578-1.65-13.94 5.051-15.152 12.998-2.35 13.73-14.358 13.132-23.233-.824-12.229-22.223-29.295-22.223-29.295"/><path d="m210.979 428.953s9.154 25.274 20.203 30.305c4.79 2.18 10.406-1.683 15.658-2.02 9.072-.583 19.709 5.043 27.274 0 5.463-3.643 3.545-13 7.576-18.183 4.134-5.316 15.174-5.461 16.162-12.122.919-6.196-11.111-15.152-11.111-15.152"/><path d="m348.664 316.099c17.371 1.717 33.928.149 31.315-7.071-.839-2.317 4.954-14.654-8.132-47.476-14.673-36.801-39.346-60.61-39.346-60.61"/><path d="m340.091 345.601c27.524-1.425 28.217-34.196 27.274-27.274"/></g></svg>