<svg height="168" viewBox="0 0 276 168" width="276" xmlns="http://www.w3.org/2000/svg" xmlns:xlink="http://www.w3.org/1999/xlink"><linearGradient id="a"><stop offset="0" stop-color="#f00" stop-opacity=".584314"/><stop offset="1" stop-color="#fc0"/></linearGradient><linearGradient id="b" x1="-.119225%" x2="72.545926%" xlink:href="#a" y1="50.105571%" y2="71.852257%"/><linearGradient id="c" x1="101.477955%" x2="65.330887%" xlink:href="#a" y1="99.059327%" y2="20.96472%"/><linearGradient id="d" x1="32.686366%" x2="94.239022%" y1="44.731886%" y2="92.144119%"><stop offset="0" stop-color="#ffb638"/><stop offset="1" stop-color="#f0ae26"/></linearGradient><linearGradient id="e" x1="100.118405%" x2="26.505604%" xlink:href="#a" y1="50.137465%" y2="69.165875%"/><g fill="none" transform="translate(-.127162 -.439501)"><path d="m266.996072 1.28126868c-2.831588 5.1749663-5.706254 9.38806942-8.635387 12.70776532-2.831554 3.2222333-5.954004 5.7995226-9.371345 7.7522556-3.319762 1.8552705-7.086393 3.1932266-11.28486 3.9742535-4.100856.6833985-8.809527 1.0304848-14.179683 1.030319-3.961342 0-7.521412-.2028813-10.647045-.5887537h-.049228c-.396265-.028178-1.214686-.1624377-2.060705-.2943769-.891103-.1392323-1.801981-.2739893-3.238294-.5396909-26.327619-4.8713073-35.059208 13.4057501-36.945673 18.44828-.295288.7893145-.441565 1.2756331-.441565 1.2756331l-31.990179 89.1995053-19.625821 33.364203h39.202628c16.100906-35.849334 31.580339-110.7016135 48.132424-117.3136561 3.587636.5017336 8.034616.7357765 13.394645.7357765 7.030054 0 13.324432-.842687 18.889895-2.600329 5.565414-1.7574763 10.571428-4.4834459 15.062863-8.193821 4.491386-3.8078377 8.555344-8.6647245 12.168025-14.5230893 3.710275-5.8583648 7.229074-12.8960604 10.548885-21.09783752l-8.92968-3.3364369z" fill="#ffbf2d"/><path d="m266.995061 1.28491524c-2.831588 5.1749663-5.706038 9.38226806-8.635221 12.70196396-2.831488 3.2222333-5.955181 5.8006829-9.372505 7.7534159-.822134.4594666-1.669727.8816389-2.546476 1.2771249-.008288 0-.014918.0165753-.02304.0165753-1.103565.7760543-2.523005 1.4423803-4.446831 1.9003551-22.18859 5.2830371-37.301958 25.0568417-38.721547 26.9697941.643667-.5292485 1.291578-.9613659 1.938362-1.2922084.097297-.0513833.191511-.0977941.288857-.1442048.016576 0 .030002-.0165753.045582-.0232054.112878-.0530409.229236-.0994517.342064-.1442049 3.587619.5017335 8.033638.7372682 13.393667.7372682 7.030054 0 13.324034-.8496486 18.889481-2.6072906 5.56543-1.7574763 10.566952-4.4763185 15.058404-8.1866936 4.491386-3.8078377 8.557168-8.667708 12.169848-14.5262386 3.710276-5.8581991 7.230963-12.899707 10.550742-21.1014841l-8.931669-3.32947528z" fill="url(#b)"/><path d="m9.25922984 1.28126868c2.83158716 5.1749663 5.70620386 9.38806942 8.63536966 12.70776532 2.8315541 3.2222333 5.9539876 5.7995226 9.371345 7.7522556 3.3197456 1.8552705 7.0863937 3.1932266 11.2848609 3.9742535 4.100872.6835643 8.8095095 1.0304848 14.1796828 1.030319 3.9613579 0 7.5213953-.2028813 10.6470112-.5887537h.0492286c.3962319-.028178 1.2146858-.1624377 2.0607209-.2943769.8911034-.1392323 1.8019644-.2739893 3.2382616-.5396909 26.3276348-4.8713073 35.0592235 13.4057501 36.9456895 18.44828.295271.7893145.441565 1.2756331.441565 1.2756331l31.990146 89.1995053 19.62587 33.364203h-39.202644c-16.100907-35.849334-31.5803229-110.7016135-48.1324246-117.3136561-3.5876186.5017336-8.034632.7357765-13.3946613.7357765-7.0300378 0-13.3244318-.842687-18.8898784-2.600329-5.56543-1.7574763-10.5714445-4.4834459-15.0628465-8.193821-4.4913854-3.8078377-8.5553609-8.6647245-12.1680247-14.5230893-3.71027563-5.8581991-7.22912342-12.8960604-10.54891875-21.09783752l8.92977969-3.3364369z" fill="#ffbf2d"/><path d="m9.25763861 1.28010841c2.83158719 5.1749663 5.70620379 9.38806949 8.63536969 12.70759959 2.831554 3.2222332 5.9539876 5.7995226 9.3713284 7.7522556 3.3197622 1.8552704 7.0864103 3.1932266 11.2848775 3.9742535 4.100872.68373 8.8095095 1.0304848 14.1796994 1.030319 3.9613413 0 7.5213786-.2028813 10.6470112-.5887537h.0490628c.3962651-.028178 1.2147024-.1624377 2.0607375-.2943769.8910868-.1392323 1.8019644-.2739893 3.238245-.5396909 26.3276514-4.8713073 35.0592239 13.4057501 36.9456889 18.4482799.295272.7893146.441565 1.2756331.441565 1.2756331l31.990163 89.1996714 16.485718 33.364037h-36.062509c-16.100889-35.849499-31.5803223-110.7016135-48.132424-117.3136561-3.5876021.5017336-8.034632.7359422-13.3946447.7359422-7.0300212 0-13.3244318-.8428527-18.8898784-2.6004948-5.5654135-1.7574763-10.5714446-4.4834458-15.0628466-8.1938209-4.4913854-3.8078377-8.5553608-8.6645587-12.1680246-14.5230893-3.71027566-5.8581991-7.22912345-12.8960605-10.5489022-21.09783754z" fill="url(#c)"/><path d="m138.094741 134.232536-19.548845 33.378126h39.183052" fill="url(#d)"/><path d="m9.26188188 1.28491524-8.93166927 3.32947529c1.03742982 2.56303462 2.09372231 5.01534641 3.1697891 7.35063677.21521335.4669255.42936589.9253975.64612075 1.3833724.21577692.4556542.43642697.9063359.65372881 1.3530396.07226819.1491774.14785144.2928851.22043457.4409023.36444055.7425722.72591412 1.4795089 1.09459794 2.196721h.00663011c.21977156.4273106.44005695.8511403.66133686 1.2693345.89242933 1.6873629 1.79705806 3.3021261 2.71370386 4.8421348.22888796.3845464.45371497.7573243.68412789 1.1325885.0893407.1458624.1764438.2892385.2660497.4332776.1425473.2295676.290117.4581406.4332777.6842273.2257883.3661479.4472008.7286491.6765198 1.0870065.3653522.5708525.7431524 1.1289419 1.1174055 1.679904.094479.1392323.1861735.2801222.2812327.4180284.2375071.3442685.473539.6822383.7145434 1.0185506.4796056.6693096.966007 1.3235357 1.4594695 1.9611865.2467395.3187425.4947719.6316836.7449425.9426358.500391.6215728 1.0061855 1.2270675 1.5202842 1.81665.3897675.4470352.7881874.8866114 1.1858282 1.3150823.1254748.1359172.2536514.2693482.3800545.4027791.5289833.5589183 1.0613148 1.1005982 1.6039064 1.6266974.2706245.2625523.5393262.5211266.8133321.7753913.2753484.2555907.5498515.5052144.8285648.7525175.2773706.2463085.5554374.4841637.8361563.7221847.8421399.6956642 1.7058609 1.3573491 2.584483 1.9838945 2.3429647 1.6709534 4.8164762 3.0975872 7.4265681 4.2797357.3262511.14752.6500491.2930509.98056.4332777.6631602.2812824 1.3339118.5473156 2.0143931.7980994.3391467.1243146.6751109.2398443 1.0186003.3571972.3434728.1176844.6935426.2322196 1.0413913.3421137.3478156.1093968.6954488.216473 1.0489828.3192397.707068.2055334 1.4289046.4006244 2.1587968.5776483.3649378.087849.7315663.1693993 1.1021895.2509497.3706562.0812188.7410639.1607801 1.1174055.2357004.3787781.0745887.7556833.1442049 1.1402296.2128265.7641202.1359172 1.5390142.2572482 2.3260248.3648218 1.1805076.1607801 2.3862096.2952056 3.6182663.3953203.8213711.0663011 1.6565495.1193419 2.5008608.1591226.8442947.0397806 1.7020154.062986 2.5692835.0762463h1.307441c.6699892 0 1.3271822-.0001658 1.9687448 0 1.2831748-.0165753 2.5084025-.0464108 3.6790975-.0911641.5827535-.0232053 1.1550977-.0464107 1.7103196-.0762462.5575425-.0298355 1.1043277-.0679586 1.6342889-.1060818 1.5898837-.1143694 3.0558507-.2602318 4.4012159-.4483611.1127119.0447532.2293355.091164.342064.1442049.0165752 0 .0300012.0165752.045582.0232053.0974626.0464108.191577.0928216.2888573.1442049.6471484.331174 1.2942968.7626284 1.9383457 1.2922084-1.4165893-1.9089743-16.5303882-21.6862598-38.7215639-26.9697941-1.9237926-.4579748-3.3432494-1.1241351-4.446798-1.9003552-.0082876 0-.0149177-.0165752-.0228738-.0165752-.8747601-.3944916-1.7260662-.8186528-2.546476-1.2769591-.0016575-.0008288-.0049725.0008287-.0066301 0-.2116994-.1209995-.4214926-.2466401-.6309212-.3724464-.0016575-.0008288-.0049726.0008287-.0066301 0-.211285-.1276297-.4143487-.2559223-.6233298-.3876957-.4196693-.2647071-.836206-.5363759-1.2466097-.8209733-.2043897-.1408899-.406028-.2867523-.6081137-.4332777-.4070058-.2952056-.8033041-.5968756-1.2010278-.9121373-.1975109-.1558076-.390099-.3099576-.5853061-.4712351-.1966656-.1624376-.3909609-.3265329-.585306-.4941089-.1929362-.1664157-.3794578-.3379698-.5701066-.5093581-.9532108-.8566102-1.8782769-1.7699078-2.7745185-2.7516613-.1792285-.196417-.3627167-.3991326-.5397075-.6005222-.6512923-.7382627-1.2998827-1.5216101-1.9459372-2.348882-.0803901-.1027667-.155476-.207191-.2356506-.3116152-.1814164-.2357004-.366297-.4717323-.547299-.7145601-.9050597-1.21397302-1.8030252-2.51993886-2.6985044-3.91474817-.3581751-.55792372-.7150573-1.13059944-1.0717903-1.71786139-.17835-.29371386-.354081-.58842223-.5320829-.88942921-.5323481-.90020313-1.06704983-1.83786638-1.59629833-2.80486786z" fill="url(#e)"/></g></svg>