<svg height="85" width="252" xmlns="http://www.w3.org/2000/svg"><g stroke-linecap="round" stroke-linejoin="round" stroke-width="3"><path d="M15.2 32V17c0-4-2.1-7-6.6-7s-6.5 3-6.5 7v58c0 4 2 7 6.5 7s6.6-3 6.6-7V43.3h24V75c0 4 2.2 7 6.6 7 4.5 0 6.6-3 6.6-7V17c0-4-2.1-7-6.6-7-4.4 0-6.5 3-6.5 7v15z" fill="#17498b" stroke="#17498b"/><path d="M154.4 30a41 41 0 0 1-13-14.8c-1.7-3.4-3-5.3-7-5.3s-6.6 2.7-6.7 6c-.2 9.1 10.3 16.7 16.8 21.7-2.5 2-5.8 5.5-8.8 9.1a50 50 0 0 0-11.2 27.4c-.3 4 2 8 7 8 4.7 0 6.6-3 7.1-8.2 1.3-10.9 7-22 15.8-29 8.9 7 14.6 18.1 15.8 29 .6 5.2 2.4 8.2 7.2 8.2 5 0 7.3-4 7-8A50 50 0 0 0 173 46.7c-3-3.6-6.2-7.2-8.7-9.1 6.5-5 17-12.6 16.7-21.8 0-3.2-2.7-5.9-6.6-5.9-4 0-5.3 1.9-7 5.3a41 41 0 0 1-13 14.9z" fill="#2ea4dd" stroke="#2ea4dd"/><g fill="#17498b" stroke="#17498b"><path d="M220 30a41 41 0 0 1-13.1-14.8c-1.7-3.4-3-5.3-7-5.3s-6.5 2.7-6.6 6C193 25 203.6 32.5 210 37.5c-2.5 2-5.7 5.5-8.7 9.1A50 50 0 0 0 190 74.1c-.3 4 2 8 7 8 4.8 0 6.7-3 7.2-8.2 1.2-10.9 7-22 15.8-29 8.8 7 14.5 18.1 15.8 29 .5 5.2 2.4 8.2 7.1 8.2 5 0 7.3-4 7-8a50 50 0 0 0-11.2-27.4c-3-3.6-6.2-7.2-8.7-9.1 6.4-5 16.9-12.6 16.7-21.8-.1-3.2-2.7-5.9-6.7-5.9s-5.3 1.9-7 5.3a41 41 0 0 1-13 14.9zM106.5 56.8c0 12.2-6.9 16.6-18.6 16.6-10.6 0-16.6-3.8-16.6-12.3 0-13.2 19-17.2 35.2-17.2zM95.1 22c8.6 0 11.4 2 11.4 8v4.3C88.3 35.4 59 37.2 59 61.7 58.9 75 70.3 83 85.9 83c9.6 0 14.1-2.6 21.5-8 0 4.4 1.8 7.1 5.7 7.1 4 0 5.8-2.7 5.8-7.2V36c0-12.5-3.4-25.4-22-25.4H71c-4.1 0-6.8 1.9-6.8 5.8 0 4 2.7 5.8 6.8 5.8H95zM162.6 9.9a8.1 8.1 0 1 1-16.2 0 8.1 8.1 0 0 1 16.2 0z"/></g><path d="M228 9.9a8.1 8.1 0 1 1-16.2 0 8.1 8.1 0 0 1 16.2 0z" fill="#2ea4dd" stroke="#2ea4dd"/></g></svg>