<svg height="172" viewBox="0 0 349 172" width="349" xmlns="http://www.w3.org/2000/svg"><g fill="#4987ce"><path d="m86.238 171.63c-.85 0-1.696-.015-2.54-.04l17.466-48.206h24.04c4.218 0 8.852-3.257 10.296-7.236l18.951-52.26c3.1-8.56-1.781-15.562-10.851-15.562h-33.35l-27.985 77.216h-.01l-15.864 43.795c-37.636-8.986-65.648-42.96-65.648-83.496 0-39.379 26.402-72.566 62.403-82.661l-16.366 45.186h-.005l-27.213 75.07 18.116.002 23.141-63.784h13.612l-23.141 63.784 18.108.003 21.566-59.532c3.102-8.56-1.78-15.562-10.839-15.562h-15.226l17.486-48.246c1.275-.057 2.554-.09 3.842-.09 47.208 0 85.473 38.433 85.473 85.84 0 47.411-38.269 85.84-85.473 85.84zm51.719-112.109h-13.612l-19.062 52.538h13.613z"/><path d="m191.716 111.678c-3.042-7.887-1.372-16.526.231-23.597 1.384-6.073 11.673-46.219 12.879-50.275 6.858-.215 9.002-.219 17.17-.13-2.494 16.878-7.213 34.231-11.902 52.648-1.891 12.072 3.429 14.552 11.295 15.988 8.569 1.564 16.311-5.186 20.225-13.542 7.932-23.146 9.362-31.068 15.267-55.199.505-.002 17.177.052 18.015.003-.129.416-6.647 32.726-10.614 46.934-5.189 18.592-5.019 19.248-11.201 27.395-13.718 13.863-48.384 18.664-61.363-.209z"/><path d="m311.089 122.392c-3.639-11.089-6.555-19.006-10.111-28.084-8.313 10.879-11.732 15.09-22.655 28.109-.588 0-13.055.093-16.664.024 20.169-23.786 22.287-25.89 34.034-40.939-2.708-12.974-7.836-30.252-11.369-43.899 8.161.06 10.109-.032 18.465-.032 1.773 9.193 4.528 21.052 6.268 30.201 7.307-9.754 16.875-22.291 22.988-30.303 8.207.086 11.041.049 16.901.154-11.209 13.567-27.405 33.338-36.422 45.301 5.108 14.198 7.442 19.585 16.375 39.511-6.137-.047-12.537.018-17.82-.016z"/></g></svg>