<svg viewBox="0 0 349.8 171.7" xmlns="http://www.w3.org/2000/svg"><g fill="#4987ce" transform="matrix(2.5398486 0 0 2.5507575 837.5838 154.65865)"><path d="m-629.2 132.5c-2.147 0-4.285-.039-6.419-.101l44.14-121.3h60.75c10.66 0 22.37-8.197 26.02-18.21l47.89-131.5c7.835-21.54-4.501-39.16-27.42-39.16h-84.28l-70.72 194.3h-.026l-40.09 110.2c-95.11-22.61-165.9-108.1-165.9-210.1 0-99.09 66.72-182.6 157.7-208l-41.36 113.7h-.012l-68.77 188.9 45.78.004 58.48-160.5h34.4l-58.48 160.5 45.76.008 54.5-149.8c7.84-21.54-4.497-39.16-27.39-39.16h-38.48l44.19-121.4c3.221-.143 6.454-.227 9.708-.227 119.3 0 216 96.71 216 216 0 119.3-96.71 216-216 216zm130.7-282.1h-34.4l-48.17 132.2h34.4z" transform="matrix(.1558 0 0 .1558 -197.4 -13.99)"/><path d="m-253.9-16.85c-1.198-3.092-.5403-6.479.0908-9.251.5449-2.381 4.596-18.12 5.071-19.71 2.7-.08419 3.544-.08593 6.76-.05094-.9818 6.617-2.84 13.42-4.686 20.64-.7446 4.733 1.35 5.705 4.447 6.268 3.374.6134 6.422-2.033 7.963-5.309 3.123-9.074 3.686-12.18 6.011-21.64.1989-.00074 6.763.02021 7.093.00093-.0506.1633-2.617 12.83-4.179 18.4-2.043 7.289-1.976 7.546-4.41 10.74-5.401 5.435-19.05 7.317-24.16-.08191z" stroke-width=".1548"/><path d="m-206.9-12.65c-1.433-4.347-2.581-7.451-3.981-11.01-3.273 4.265-4.619 5.916-8.92 11.02-.2312.000128-5.14.03657-6.561.0095 7.941-9.325 8.775-10.15 13.4-16.05-1.066-5.086-3.085-11.86-4.476-17.21 3.213.02349 3.98-.01244 7.27-.01244.6981 3.604 1.783 8.253 2.468 11.84 2.877-3.824 6.644-8.739 9.051-11.88 3.231.03338 4.347.01898 6.654.06006-4.413 5.319-10.79 13.07-14.34 17.76 2.011 5.566 2.93 7.678 6.447 15.49-2.416-.01848-4.936.0069-7.016-.0064z" stroke-width=".1535"/></g></svg>