<svg height="164.551" viewBox="0 0 265.584 164.551" width="265.584" xmlns="http://www.w3.org/2000/svg"><path d="m33.917 40.078c-.454-1.362-1.246-2.649-2.016-3.849-.999-1.556-2.106-3.056-3.334-4.438-.661-.748-1.567-1.869-2.556-2.242-.182-.067-.312-.137-.51-.133-.111-.032-.206-.04-.289-.033-.361-.095-4.433-1.099-6.261-1.614-2.888-.85-5.671-1.953-8.323-3.376-1.137-.611-2.258-1.261-3.311-2.01-.262-.185-.518-.375-.768-.572-.949-1.276-1.919-2.704-3.129-3.732-.084-.045-.168-.089-.252-.135.188 1.037.799 1.998 1.332 2.892 1.324 2.228 2.87 4.327 4.434 6.392 1.48 1.955 3.057 3.881 4.94 5.465 1.571 1.321 3.36 2.364 5.184 3.296 2.041 1.041 4.071 2.112 6.212 2.938 2.658 1.027 5.362 1.84 8.18 2.273-.121-.02-.244-.039-.366-.058.153.011.3.048.44.109.845.298.503-.842.393-1.173z" fill="#ffaf0f"/><path d="m26.676 30.012c-.312-1.401-.975-2.762-1.623-4.031-.842-1.646-1.797-3.246-2.889-4.741-.504-.719-1.072-1.386-1.7-2.001-.212-.157-.425-.314-.636-.472-1.947-.51-4.016-.296-5.971-.812-1.696-.448-3.304-1.129-4.812-2.013-.861-.558-1.698-1.159-2.479-1.824-.188-.16-.374-.321-.558-.486-.029-.029-.059-.057-.088-.086-.165-.165-.32-.339-.481-.508-.02-.027-.037-.054-.057-.081-.552-.768-1.091-1.557-1.696-2.281-1.043-1.248-2.154-2.777-3.606-3.592.084.049.167.098.25.146-.093-.097-.201-.168-.33-.224.004.106.034.207.057.308-.004-.006-.008-.013-.012-.019.006.019.013.036.019.054.025.103.061.203.104.3.457 1.44 1.006 2.844 1.669 4.199.419.798.84 1.596 1.263 2.393.085.161.177.318.268.477.473.816.927 1.646 1.452 2.429 1.309 1.952 2.677 3.789 4.263 5.523 1.525 1.667 3.229 3.252 5.113 4.508 1.799 1.195 3.707 2.306 5.775 2.957 2 .63 4.125.688 6.188 1.016.373.18.576.062.607-.352-.031-.262-.059-.525-.09-.787z" fill="#ffbb0f"/><path d="m26.739 30.291c-.027-1.437-.399-2.9-.778-4.275-.489-1.781-1.099-3.544-1.858-5.229-.41-.91-.938-2.252-1.772-2.901-.152-.119-.258-.225-.446-.279-.098-.064-.187-.101-.269-.118-.315-.198-.629-.399-.951-.588.102.059.201.118.3.177-1.596-1.014-3.24-1.954-4.826-2.985-2.51-1.672-4.844-3.56-6.955-5.714-.903-.92-1.78-1.875-2.562-2.902-.193-.257-.382-.515-.562-.777-.526-1.503-1.028-3.155-1.876-4.497-.066-.067-.133-.136-.2-.203-.129 1.045.166 2.146.41 3.156.603 2.522 1.45 4.986 2.329 7.423.83 2.307 1.761 4.615 3.087 6.688 1.106 1.73 2.503 3.258 3.966 4.69 1.639 1.603 3.257 3.229 5.056 4.657 2.23 1.772 4.569 3.353 7.13 4.605-.111-.054-.221-.108-.332-.163.143.057.271.136.386.236.716.537.73-.653.723-1.001z" fill="#ffc70f"/><path d="m41.486 48.668c-.595-1.309-1.522-2.504-2.419-3.611-1.161-1.438-2.427-2.808-3.801-4.046-.644-.601-1.335-1.136-2.077-1.608-.24-.11-.479-.221-.719-.33-2.011-.099-3.99.536-6.011.434-1.749-.089-3.46-.424-5.118-.978-.959-.371-1.903-.787-2.805-1.277-.218-.119-.435-.239-.649-.363-.034-.021-.067-.042-.101-.063-.194-.127-.381-.265-.572-.396-.025-.023-.049-.047-.074-.07-.701-.637-1.39-1.299-2.133-1.884-1.277-1.006-2.678-2.272-4.267-2.772.092.031.183.062.274.093-.111-.077-.231-.125-.368-.153.025.104.075.193.118.288-.005-.005-.01-.009-.014-.014.008.015.018.028.025.042.048.102.105.197.173.287.742 1.312 1.565 2.57 2.491 3.759.573.694 1.15 1.389 1.727 2.082.117.139.238.274.36.41.63.702 1.246 1.42 1.921 2.078 1.682 1.641 3.398 3.157 5.309 4.527 1.837 1.318 3.828 2.52 5.932 3.359 2.005.801 4.101 1.495 6.26 1.706 2.087.204 4.18-.176 6.264-.279.402.099.576-.058.523-.469-.083-.251-.165-.502-.249-.752z" fill="#ffa30f"/><path d="m50.881 58.44c-.718-1.244-1.751-2.347-2.746-3.367-1.289-1.323-2.676-2.572-4.154-3.682-.799-.599-1.91-1.517-2.954-1.684-.19-.03-.333-.071-.525-.028-.116-.009-.211.002-.29.026-.373-.021-.746-.046-1.119-.056.117.003.232.007.349.01-1.887-.116-3.775-.144-5.66-.28-3.008-.252-5.966-.776-8.858-1.643-1.234-.37-2.465-.781-3.646-1.305-.292-.129-.581-.264-.866-.406-1.186-1.062-2.423-2.266-3.814-3.03-.09-.027-.182-.055-.271-.082.391.979 1.182 1.797 1.883 2.566 1.744 1.917 3.68 3.664 5.625 5.373 1.842 1.618 3.771 3.189 5.936 4.364 1.803.979 3.764 1.644 5.738 2.189 2.207.612 4.411 1.255 6.675 1.637 2.81.473 5.622.727 8.469.587-.124.006-.247.012-.37.018.152-.02.303-.012.452.02.884.123.32-.925.146-1.227z" fill="#ff970f"/><path d="m28.965 57.35c.348.158.688.338 1.039.492.658.291 1.51.597 1.256.517 3.368 1.052 6.977 1.121 10.422.412-.156.033-.311.065-.465.099 1.658-.358 3.271-.878 4.859-1.474.744-.278 1.651.456 2.188.838 1.387.984 2.637 2.181 3.799 3.415 1.165 1.234 2.287 2.553 3.188 3.994.013.02 1.302 2.028.708 2.233-4.357 1.492-8.894 2.174-13.405.939-1.593-.436-3.155-1.068-4.626-1.816-2.432-1.237-4.543-2.926-6.58-4.727-1.421-1.257-2.852-2.634-4.024-4.128-.636-.809-1.341-1.668-1.508-2.705.019.107.037.214.056.321-.041-.229-.092-.384-.086-.593.006-.175 1.976 1.275 1.81 1.145 1.336 1.047 1.148.938 1.369 1.038z" fill="#ff8b0f"/><path d="m37.917 69.798c.378.074.747.17 1.126.238.707.131 1.605.232 1.341.213 3.521.245 7.046-.521 10.235-2.006-.145.067-.287.135-.431.203 1.532-.734 2.981-1.611 4.39-2.559.659-.442 1.711.064 2.32.311 1.576.637 3.068 1.514 4.487 2.444 1.417.933 2.813 1.956 4.022 3.149.018.018 1.736 1.674 1.205 2.008-3.895 2.461-8.149 4.174-12.825 4.014-1.649-.057-3.317-.311-4.919-.698-2.652-.642-5.097-1.798-7.496-3.079-1.672-.894-3.381-1.904-4.869-3.086-.805-.639-1.689-1.312-2.091-2.284.042.101.085.2.129.3-.094-.213-.179-.352-.222-.557-.034-.172 2.217.785 2.025.697 1.543.709 1.336.646 1.573.692z" fill="#ff7f0f"/><path d="m74.721 78.042c-1.189-.806-2.6-1.346-3.939-1.83-1.739-.629-3.53-1.146-5.346-1.498-.979-.191-2.381-.533-3.393-.227-.185.055-.332.082-.484.203-.108.043-.189.094-.25.15-.345.144-.69.284-1.031.438.105-.048.212-.095.318-.142-1.748.717-3.461 1.517-5.215 2.217-2.816 1.086-5.706 1.904-8.688 2.389-1.273.205-2.559.371-3.85.416-.317.012-.635.017-.952.014-1.532-.438-3.172-.982-4.759-1.062-.094.016-.188.029-.281.045.779.709 1.848 1.102 2.814 1.487 2.406.964 4.91 1.691 7.406 2.38 2.363.651 4.786 1.223 7.244 1.336 2.051.094 4.105-.164 6.12-.533 2.253-.414 4.517-.797 6.72-1.444 2.734-.801 5.375-1.798 7.875-3.168-.107.061-.217.119-.324.179.129-.083.266-.144.415-.18.853-.276-.111-.975-.4-1.17z" fill="#ff730f"/><path d="m52.396 88.068c.375-.074.755-.125 1.131-.203.705-.146 1.576-.391 1.322-.309 3.354-1.098 6.332-3.137 8.727-5.713-.107.117-.215.232-.322.35 1.143-1.256 2.156-2.613 3.104-4.021.443-.658 1.609-.587 2.268-.587 1.699-.003 3.412.247 5.076.575 1.664.33 3.342.752 4.914 1.402.021.01 2.237.896 1.871 1.408-2.681 3.745-5.979 6.932-10.369 8.547-1.549.568-3.189.959-4.82 1.203-2.699.406-5.398.254-8.104-.029-1.887-.197-3.85-.488-5.674-1.025-.986-.289-2.06-.578-2.797-1.328.078.078.154.152.232.23-.166-.162-.299-.258-.414-.434-.098-.145 2.349-.107 2.138-.117 1.696.078 1.479.098 1.717.051z" fill="#ff670f"/><path d="m58.516 95.669c.365-.117.736-.213 1.1-.336.684-.227 1.52-.572 1.277-.461 3.201-1.484 5.918-3.859 7.992-6.699-.092.129-.184.256-.277.385.986-1.381 1.832-2.85 2.607-4.359.363-.705 1.529-.771 2.184-.85 1.688-.203 3.417-.157 5.108-.025 1.69.131 3.407.354 5.044.814.023.006 2.328.625 2.025 1.176-2.223 4.035-5.121 7.59-9.293 9.709-1.471.748-3.054 1.33-4.645 1.764-2.633.719-5.33.887-8.051.926-1.895.023-3.881-.035-5.754-.352-1.014-.172-2.113-.334-2.935-.99.087.068-.067-.021-.204-.18-.113-.135 2.32-.385 2.109-.369 1.695-.123 1.482-.078 1.713-.153z" fill="#ff5b0f"/><path d="m89.244 86.888c-1.467-.127-2.975.068-4.391.279-1.84.271-3.661.658-5.412 1.197-.945.289-2.334.646-3.03 1.363-.128.133-.239.221-.303.393-.068.084-.109.164-.131.238-.216.277-.434.555-.64.838.064-.088.129-.176.193-.264-1.097 1.395-2.118 2.844-3.232 4.229-1.81 2.197-3.83 4.201-6.116 5.971-.977.756-1.985 1.482-3.066 2.109-.268.156-.538.307-.813.449-1.554.336-3.258.633-4.66 1.291-.072.055-.145.109-.217.166 1.062.234 2.195.072 3.237-.049 2.597-.301 5.145-.838 7.665-1.406 2.388-.539 4.779-1.172 6.947-2.203 1.81-.859 3.426-2.016 4.945-3.246 1.701-1.375 3.426-2.73 4.955-4.277 1.896-1.918 3.604-3.959 4.986-6.242-.061.098-.121.197-.181.295.063-.129.149-.24.257-.34.575-.621-.637-.76-.993-.791z" fill="#ff4f0f"/><path d="m101.99 85.65c-.146-1.352-.449-2.675-.928-3.92-.395-1.021-.777-2.188-1.578-2.998.074.145.055.126-.03-.027-.57-.047-1.1.137-1.585.551-.412.305-.826.609-1.24.912-1.727 1.401-3.25 2.994-4.648 4.598-1.4 1.605-2.735 3.291-3.754 5.039-.119.209-1.441 2.338-.652 2.527.639.152.952.605 1.206 1.078 1.003 2.025 1.71 4.266 1.935 6.561.302 3.082-.07 6.266-.645 9.469-.463 2.588-1.01 5.17-1.67 7.764-.164.643-.336 1.281-.553 1.92-.093.27-.188.539-.285.809-.064.102-.133.201-.197.305-.918 1.455-1.838 2.93-2.592 4.424 0 0-.896 1.533-.053.863 1.524-1.207 2.611-2.838 3.691-4.268 2.072-2.746 3.879-5.6 5.627-8.447 1.264-2.059 2.404-4.18 3.269-6.314.232-.574.827-1.984.927-2.215.387-.916.719-1.832 1.018-2.754.487-1.504.912-3.008 1.294-4.512.959-3.785 1.838-7.723 1.443-11.365z" fill="#ff670f"/><path d="m126.348 61.191c.051.082.102.166.15.249-.469-.806-1.365-1.268-2.18-1.71-1.51-.82-3.207-1.449-4.862-1.98-2.37-.762-4.771-1.403-7.317-1.551-1.539-.09-3.125-.049-4.674.168-4.395.611-8.21 2.832-11.615 5.665-.031.026-.029.064-.041.098-1.295 1.096-2.507 2.358-3.621 3.628-1.824 2.079-3.539 4.236-4.805 6.735-.679 1.339-1.26 2.758-1.702 4.206-.478-.9-1.046-1.78-1.737-2.275-1.295-.93-2.586-1.87-3.902-2.769-11.127-7.583-22.27-15.109-32.286-24.159-.102-.093-.806-.737-.846-.772-.207-.191-.413-.383-.618-.575-.582-.548-1.163-1.098-1.736-1.655-1.145-1.114-2.275-2.244-3.379-3.402-2.314-2.426-4.58-4.924-6.748-7.485-1.144-1.351-2.262-2.724-3.336-4.132-.185-.241-.367-.484-.549-.729-.053-.072-.101-.138-.135-.186-.453-.637-.879-1.294-1.305-1.949-.327-.504-.646-1.014-.966-1.522-.084-.145-.185-.317-.288-.495-1.109-2.631-.464-.967-.536-1.15-1.002-2.554-2.128-5.069-3.409-7.497-.711-1.345-1.535-3.134-2.722-4.169-1.029-.897-.571 1.298-.558 1.418.005.039.007.056.011.089-.003.494.025.986.093 1.475.125.819.26 1.639.445 2.447.588 2.573 1.375 5.021 2.21 7.525 1.364 4.083 3.325 8.006 5.319 11.81 3.639 6.94 8.236 13.7 13.543 19.478 4.732 5.153 9.91 9.905 15.318 14.337 5.462 4.476 11.123 8.742 16.885 12.867-.03 0-.047 0-.047 0s.074.038.197.108c.582.416 1.165.83 1.749 1.242 1.914 1.643 4.345 4.805 2.896 9.568-.485.938-.955 1.879-1.412 2.814-.206.422-.401.85-.602 1.273-.077.127-.111.201-.106.225-.529 1.125-1.043 2.258-1.526 3.404-1.476 1.846-3.243 3.447-5.271 4.678-.492.271-.991.527-1.505.756-.352.154-.711.285-1.064.436-.223.096-.015.031-1.689.312.209-.037-2.19.439-2.065.562.15.146.3.213.496.336-.091-.059-.184-.115-.274-.174.877.576 1.988.635 3.014.711 1.894.141 3.873.014 5.759-.189-.685 2.234-1.19 4.535-1.562 6.836-.084.52-.163 1.043-.244 1.564-1.415 1.938-2.926 3.799-4.618 5.531-1.448 1.482-2.962 2.902-4.548 4.234-.801.674-1.613 1.332-2.444 1.967-.379.289-.759.576-1.144.857-.207.15-.412.299-.619.445-.017.012-.023.018-.043.031-1.727 1.193-3.501 2.32-5.33 3.348-.909.514-1.826 1.02-2.764 1.482-.506.248-1.016.488-1.529.723-.181.082-.362.164-.544.244-.026.012-.037.018-.069.031-1.855.785-3.745 1.494-5.671 2.092-.196.057-.392.113-.589.166-.438.119-.876.23-1.314.344-.435.111-.871.223-1.309.324-.15.033-.3.066-.45.102-1.494.295-3.038.59-4.425 1.24-.354.168-1.553.799-.654 1.27 1.053.551 2.645.467 3.766.453 2.066-.025 4.107-.277 6.143-.609 6.737-1.098 13.347-3.273 19.513-6.295-.518.502-1.028 1.012-1.56 1.498-.943.863-1.902 1.713-2.885 2.531-.204.172-.408.34-.613.508-.455.359-.914.717-1.375 1.066-.92.693-1.867 1.35-2.822 1.992-.242.158-.496.322-.631.408-.494.311-.988.615-1.488.912-.212.127-.425.25-.638.375-.491.27-.983.535-1.479.793-.05.025-.101.051-.15.076-.431.205-.862.408-1.296.607-.062.027-.125.057-.187.084-.359.148-.721.289-1.082.432-1.104.303-2.211.6-3.32.879-.367.09-.733.182-1.101.268-.108.016-.228.039-.361.072-2.176.373-4.344 1.426-6.286 2.377-1.693.83-3.375 1.744-4.906 2.85-.067.047-.137.102-.205.15-.073.049-.152.09-.225.139-.307.207-1.834 1.059-1.775 1.688.059.652 6.705-.945 7.769-1.223 9.383-2.449 18.333-6.721 26.528-11.965-.435.662-.882 1.316-1.34 1.963-.204.277-.463.629-.586.791-.354.463-.709.922-1.072 1.375-.156.197-.314.389-.472.582-.364.422-.729.842-1.103 1.256-.028.031-.057.061-.084.092-.342.354-.684.705-1.03 1.055-.052.051-.104.104-.157.156-.278.258-.561.512-.844.766-.93.674-1.863 1.34-2.807 1.994-.313.215-.627.43-.943.641-.092.053-.19.113-.299.188-1.91 1.113-3.572 2.861-5.061 4.436-1.295 1.369-2.548 2.816-3.594 4.389-.047.07-.095.146-.142.219-.051.07-.11.135-.16.205-.216.301-1.347 1.633-1.071 2.201.285.588 5.947-3.238 6.846-3.873 9.721-6.846 17.87-16.031 24.443-25.879.082-.125.162-.25.244-.373 5.754-4.752 10.957-10.217 15.013-16.461 1.005-.996 1.751-1.871 1.915-2.41 2.775-9.109 3.104-13.402 2.406-17.031.468-.221.96-.357 1.49-.256.91.174 1.345-2.617 1.396-2.885.128-.689.215-1.387.283-2.088.923-.732 1.811-1.518 2.598-2.395.137-.152 1.594-1.682 1.088-2.166-.412-.395-.521-.947-.583-1.496-.204-2.326-.146-4.743.265-7.028.551-3.064 1.604-5.971 2.802-8.812.3-.711.616-1.412.928-2.116.811.038 1.671-.07 2.526-.386.968-.356 1.78-.91 2.401-1.562.046-.027.095-.052.136-.088 1.18-1.037 2.407-2.016 3.713-2.895 2.656-1.684 5.635-2.847 8.709-3.244.572-.05 1.145-.089 1.716-.088.36.002.718.027 1.077.033.227.002.027-.021 1.539.366-.189-.049 2.014.446 1.963.298-.061-.179-.155-.29-.264-.466zm-95.415-31.915c.022.032.018.026 0 0zm11.216 118.792c-.062.002-.137.014-.214.025.644-.162.502-.082.214-.025zm8.652-3.258c.732-.42.353-.197 0 0zm6.72-4.629c.989-.808.247-.197 0 0zm-5.29 12.563c-.056.023-.123.061-.189.098.547-.378.439-.253.189-.098zm6.902-6.016c.668-.809.281-.332 0 0z" fill="#ff430f"/><path d="m119.713 99.541h3.264v24.146h-3.264zm9.935-15.27h3.264v32.984c0 3.168 1.439 3.648 2.688 3.648.434 0 .816-.049.816-.049v2.928s-.576.096-1.199.096c-2.018 0-5.568-.623-5.568-5.904v-33.703zm10.895 0h3.264v32.984c0 3.168 1.441 3.648 2.689 3.648.432 0 .816-.049.816-.049v2.928s-.576.096-1.201.096c-2.016 0-5.568-.623-5.568-5.904zm10.801 15.27h3.264v14.498c0 3.793.576 7.152 5.232 7.152 5.521 0 8.93-4.848 8.93-10.08v-11.57h3.264v24.146h-3.168v-3.6c0-1.057.096-1.92.096-1.92h-.096c-.961 2.352-4.129 6.096-9.457 6.096-5.664 0-8.064-3.072-8.064-9.361v-15.361zm27.119 0h3.217v3.602c0 1.055-.096 1.92-.096 1.92h.096c1.152-3.264 4.992-6.098 8.736-6.098 4.465 0 6.77 2.064 7.488 6.049h.096c1.297-3.264 4.801-6.049 8.881-6.049 5.857 0 8.018 3.408 8.018 9.361v15.361h-3.264v-14.545c0-3.936-.816-7.201-5.232-7.201-3.697 0-6.721 3.266-7.633 6.816-.336 1.057-.434 2.209-.434 3.506v11.424h-3.264v-14.545c0-3.648-.527-7.201-5.088-7.201-3.938 0-6.912 3.408-7.922 7.105-.238 1.008-.336 2.111-.336 3.217v11.424h-3.264v-24.146zm54-.577c7.057 0 12.77 5.377 12.77 12.529 0 7.297-5.713 12.77-12.77 12.77s-12.77-5.473-12.77-12.77c0-7.152 5.713-12.529 12.77-12.529zm0 22.371c5.186 0 9.408-4.225 9.408-9.842 0-5.473-4.223-9.553-9.408-9.553-5.184 0-9.408 4.08-9.408 9.553 0 5.618 4.224 9.842 9.408 9.842zm17.711-2.927s2.688 2.928 7.201 2.928c2.592 0 4.848-1.297 4.848-3.84 0-5.281-13.01-3.984-13.01-11.857 0-4.32 3.889-6.674 8.258-6.674 5.088 0 7.439 2.641 7.439 2.641l-1.486 2.496s-2.064-2.207-6.049-2.207c-2.449 0-4.801 1.055-4.801 3.744 0 5.328 13.01 3.889 13.01 11.857 0 3.936-3.408 6.768-8.258 6.768-5.855 0-8.928-3.504-8.928-3.504zm-128.83-29.397c-1.391 0-2.52 1.129-2.52 2.52 0 1.393 1.129 2.521 2.52 2.521 1.393 0 2.521-1.129 2.521-2.521 0-1.391-1.129-2.52-2.521-2.52z" fill="#544A58"/></svg>