<svg width="460" height="230" version="1.1" viewBox="0 0 460 230" xml:space="preserve" xmlns="http://www.w3.org/2000/svg">
<g transform="translate(-21.393 -134.31)">
	<path d="m25.111 359.01h37.543v-159.82h-37.543zm18.696-180.78c11.761 0 20.958-9.047 20.958-20.355 0-11.459-9.197-20.506-20.958-20.506-11.61 0-20.807 9.047-20.807 20.506 0 11.309 9.197 20.355 20.807 20.355zm143.85-40.409c-63.476 0-103.28 43.273-103.28 112.48s39.803 112.33 103.28 112.33c63.325 0 103.13-43.122 103.13-112.33s-39.803-112.48-103.13-112.48zm0 33.171c38.749 0 63.476 30.759 63.476 79.309 0 48.399-24.727 79.158-63.476 79.158-38.9 0-63.476-30.759-63.476-79.158 0-48.549 24.577-79.309 63.476-79.309zm118.97 126.8c1.659 40.108 34.528 64.834 84.585 64.834 52.622 0 85.793-25.934 85.793-67.247 0-32.417-18.696-50.661-62.873-60.762l-25.029-5.73c-26.688-6.333-37.694-14.776-37.694-29.25 0-18.093 16.585-30.155 41.162-30.155 24.878 0 41.914 12.213 43.725 32.568h37.091c-.905-38.297-32.568-64.232-80.513-64.232-47.345 0-80.968 26.084-80.968 64.684 0 31.06 18.998 50.36 59.102 59.558l28.195 6.634c27.441 6.483 38.599 15.53 38.599 31.211 0 18.093-18.244 31.06-44.477 31.06-26.537 0-46.589-13.117-49.001-33.171h-37.694z"/>
</g>
</svg>
