<svg viewBox="0 0 355 277" xmlns="http://www.w3.org/2000/svg"><g fill="#472b91" transform="matrix(.457 0 0 .457 175 -238)"><path d="m79.5 736c.627 23.2.627 38.9 0 61.4-1.36 36.1-25.3 58.5-59.4 58.5-34.8 0-56.6-21.8-57.9-58.5-.732-21.8-.732-40.9 0-61.4.627-34.7 23.8-57.2 59.3-57.2s56.7 24.6 58 57.2zm222-181c0-19.8-15.8-35.5-35.5-35.5-19.2 0-35.5 15.8-35.5 35.5 0 19.9 16.3 35.5 35.5 35.5 19.8 0 35.5-15.7 35.5-35.5zm44.3 398c0-8.26-2.09-15.8-16.4-23.2-6.8-3.35-14.3-5.23-21.1-11.8-6.17-5.96-10.9-15.4-10.9-30.4v-251h-106v49.3h43.4v200c0 62.7 45.9 92.2 82.1 92.2h.732c18.4 0 28.6-11.7 28.6-25.4zm-185-369c0-13-10.9-22.5-25.8-22.5-15.7 0-41 8.78-59.4 22.5-15.7 11-28.6 25.6-38.3 43.6-5.44-.732-10.9-1.46-16.3-1.46-65.5 0-122 52.9-122 118v45c0 29.3 10.9 57.2 29.4 77.7l-30.7 82.6c-2.72 7.63-4.81 12.3-4.81 18.5 0 8.99 3.45 30.3 34.9 30.3h28.6c-7.53 10.2-15.1 24.8-15.1 40.6 0 59.1 45.8 85.8 86 85.8h36.2c53.2 0 87.9-33.6 87.9-85.1 0-53-38.8-85.3-92-85.3h-109l20.5-56.5c15.1 6.8 31.5 9.51 49.1 9.51 64.8 0 121-53.4 121-118v-45c0-44.3-23.8-77.7-55.3-99 9.62-13.1 21.2-27.5 49.1-36.5 21.1-6.9 25.2-15.3 25.2-24.9zm-312 295c0-58.8-37.6-90.1-90.3-105-3.45-.627-25.9-7.53-30-8.89-13.1-4.08-41-14.2-41-46.9 0-25.2 23.8-40.2 49.1-40.2 26.7 0 42.3 15.7 52 24.6 5.44 5.44 12.3 10.9 21.8 10.9 15.8 0 23.3-12.2 23.3-24.5 0-10.2-6.17-21.8-17.1-32.2-29.4-28.1-69-30.8-82.1-30.8-55.3 0-105 35.6-105 94.3 0 62 41.1 85.2 94.4 102 11.6 3.35 22 6.06 27.4 8.15 25.9 8.15 39.6 23.1 39.6 50.6 0 32.6-29.4 50.3-60.1 50.3-32.8 0-52.7-25.6-63.6-54.5l-50 20.6c15.7 51.7 56 86 116 86 62.2 0 116-40.5 116-105zm251 162c0 20.7-14.3 38.6-38.2 41.3-10.2.732-16.4.732-25.9 0-24.6-1.36-39.6-20.6-39.6-41.3 0-21.3 15.1-41.3 40.2-41.9 6.9-.732 15.7-.732 24.6 0 25.3 1.36 38.9 21.3 38.9 41.9"/><path d="m370 662c-13.2 0-24-10.8-24-24s10.9-24 24-24c13.3 0 24 10.9 24 24 0 13.3-10.8 24-24 24zm0-44.8c-11.5 0-20.8 9.3-20.8 20.8s9.3 20.9 20.8 20.9 20.8-9.41 20.8-20.9-9.3-20.8-20.8-20.8zm8.36 35.4c-.627 0-1.15-.209-1.57-.732l-7.11-11.5h-3.55v12h-4.08v-28.6h8.68c5.33 0 9.2 2.93 9.2 8.36 0 4.18-2.51 6.9-6.06 7.84l6.06 9.93c.105.314.314.627.314 1.05 0 .941-.941 1.67-1.88 1.67zm-8.26-25.5h-3.97v10h3.87c3.55 0 5.85-1.46 5.85-5.02 0-3.45-2.3-5.02-5.75-5.02"/></g></svg>