<svg height="277" viewBox="0 0 356 277" width="356" xmlns="http://www.w3.org/2000/svg"><g fill="#472b91"><path d="m211.331 99.352c.287 10.602.287 17.777 0 28.06-.621 16.497-11.562 26.734-27.145 26.734-15.904 0-25.866-9.962-26.461-26.734-.334-9.963-.334-18.692 0-28.06.287-15.858 10.877-26.14 27.101-26.14 16.223 0 25.911 11.242 26.505 26.14zm101.454-82.717c0-9.049-7.22-16.224-16.223-16.224-8.774 0-16.223 7.221-16.223 16.224 0 9.094 7.449 16.223 16.223 16.223 9.049 0 16.223-7.174 16.223-16.223zm12.751 171.284c-3.108-1.531-6.535-2.391-9.643-5.393-2.82-2.724-4.981-7.038-4.981-13.893v-114.707h-48.442v22.53h19.834v91.4c0 28.654 20.976 42.136 37.519 42.136h.335c8.409 0 13.07-5.347 13.07-11.608 0-3.775-1.153-7.084-7.692-10.465zm-88.841-168.314c-7.175 0-18.737 4.013-27.146 10.283-7.175 5.027-13.07 11.699-17.503 19.925-2.486-.334-4.981-.667-7.449-.667-29.934 0-55.754 24.175-55.754 53.926v20.565c0 13.39 4.981 26.14 13.436 35.509l-14.03 37.748c-1.243 3.487-2.198 5.621-2.198 8.455 0 4.108 1.576 13.847 15.949 13.847h13.07c-3.441 4.661-6.9 11.333-6.9 18.554 0 27.009 20.93 39.21 39.302 39.21h16.543c24.312 0 40.17-15.355 40.17-38.89 0-24.221-17.731-38.982-42.044-38.982h-49.813l9.369-25.821c6.9 3.108 14.395 4.346 22.438 4.346 29.614 0 55.297-24.404 55.297-53.926v-20.565c0-20.245-10.876-35.509-25.272-45.243 4.397-5.986 9.689-12.567 22.439-16.68 9.643-3.154 11.887-6.923 11.887-11.311 0-5.941-4.982-10.283-11.791-10.283zm-172.06 97.113c-1.577-.287-11.837-3.441-13.71-4.063-5.987-1.864-18.737-6.489-18.737-21.433 0-11.516 10.876-18.371 22.438-18.371 12.202 0 19.331 7.174 23.764 11.242 2.486 2.486 5.621 4.981 9.963 4.981 7.22 0 10.648-5.575 10.648-11.196 0-4.662-2.82-9.963-7.815-14.716-13.436-12.842-31.533-14.075-37.519-14.075-25.273 0-47.985 16.269-47.985 43.095 0 28.334 18.782 38.936 43.14 46.614 5.302 1.531 10.054 2.769 12.522 3.724 11.836 3.725 18.097 10.557 18.097 23.124 0 14.899-13.435 22.988-27.465 22.988-14.99 0-24.084-11.7-29.066-24.907l-22.85 9.414c7.175 23.627 25.592 39.302 53.012 39.302 28.426 0 53.012-18.508 53.012-47.985 0-26.872-17.366-40.929-41.449-47.738zm155.974 122.019c0 9.46-6.535 17.64-17.458 18.874-4.661.335-7.495.335-11.836 0-11.242-.621-18.097-9.414-18.097-18.874 0-9.734 6.9-18.874 18.371-19.148 3.153-.335 7.175-.335 11.242 0 11.562.621 17.778 9.734 17.778 19.148z"/><path d="m344.09 65.534c-6.032 0-10.968-4.936-10.968-10.968s4.981-10.968 10.968-10.968c6.078 0 10.968 4.981 10.968 10.968 0 6.078-4.936 10.968-10.968 10.968zm0-20.474c-5.255 0-9.506 4.25-9.506 9.506 0 5.255 4.251 9.551 9.506 9.551s9.506-4.3 9.506-9.551-4.251-9.506-9.506-9.506zm3.821 16.178c-.287 0-.526-.095-.718-.334l-3.249-5.256h-1.623v5.484h-1.864v-13.07h3.967c2.435 0 4.204 1.339 4.204 3.82 0 1.911-1.147 3.154-2.769 3.583l2.769 4.538c.048.144.143.287.143.48 0 .43-.43.763-.859.763zm-3.775-11.653h-1.815v4.57h1.769c1.622 0 2.673-.668 2.673-2.294 0-1.577-1.051-2.295-2.627-2.295z"/></g></svg>