<svg enable-background="new 0 0 102 45" height="45" viewBox="0 0 102 45" width="102" xmlns="http://www.w3.org/2000/svg" xmlns:xlink="http://www.w3.org/1999/xlink"><clipPath id="a"><path d="m0 0h102.1v45.4h-102.1z"/></clipPath><path clip-path="url(#a)" d="m4.544 39.9v-36.288h7.152v22.176l7.991-9.216h8.857l-9.264 10.512 9.504 12.816h-9.149l-7.939-11.809v11.809zm26.208-30.672c0-1.152.408-2.136 1.224-2.952s1.8-1.224 2.952-1.224 2.136.408 2.952 1.224 1.224 1.8 1.224 2.952-.408 2.136-1.224 2.952-1.8 1.224-2.952 1.224-2.136-.408-2.952-1.224-1.224-1.8-1.224-2.952zm.576 30.672v-23.328h7.152v23.328zm12.384 0v-23.328h7.152v3.744c1.568-2.88 3.808-4.32 6.72-4.32 1.056 0 1.855.08 2.399.24v6.576c-1.108-.319-2.121-.48-3.039-.48-2.502 0-4.196.72-5.083 2.16-.665 1.088-.998 2.976-.998 5.664v9.744z"/><path clip-path="url(#a)" d="m74.017 35.004c2.054 0 3.771-.943 5.151-2.832l5.056 3.696c-2.432 3.072-5.712 4.607-9.84 4.607-3.68 0-6.736-1.104-9.168-3.312-2.528-2.304-3.792-5.28-3.792-8.928s1.262-6.625 3.785-8.928c2.427-2.208 5.476-3.312 9.148-3.312 3.354 0 6.013 1.104 7.977 3.312s2.946 5.184 2.946 8.928v2.256h-16.704c.289 1.376.922 2.472 1.901 3.288.98.817 2.16 1.225 3.54 1.225zm-5.441-9.408h9.552c.031-1.216-.379-2.256-1.23-3.12-.853-.864-1.922-1.296-3.208-1.296-1.512 0-2.718.432-3.618 1.296-.901.864-1.4 1.904-1.496 3.12z" fill="#ffb600"/><path clip-path="url(#a)" d="m88.664 9.228c0-1.152.408-2.136 1.224-2.952s1.801-1.224 2.952-1.224c1.152 0 2.136.408 2.952 1.224s1.224 1.8 1.224 2.952-.407 2.136-1.224 2.952c-.816.816-1.8 1.224-2.952 1.224-1.151 0-2.136-.408-2.952-1.224s-1.224-1.8-1.224-2.952zm.576 30.672v-23.328h7.151v23.328z"/></svg>