<svg height="74" viewBox="0 0 185 74" width="185" xmlns="http://www.w3.org/2000/svg"><path d="m.088 72.8v-72.576h14.304v44.352l15.982-18.432h17.714l-18.528 21.024 19.008 25.632h-18.298l-15.878-23.618v23.618zm52.416-61.344c0-2.304.816-4.272 2.448-5.904s3.6-2.448 5.904-2.448 4.272.816 5.904 2.448 2.448 3.6 2.448 5.904-.816 4.272-2.448 5.904-3.6 2.448-5.904 2.448-4.272-.816-5.904-2.448-2.448-3.6-2.448-5.904zm1.152 61.344v-46.656h14.304v46.656zm24.768 0v-46.656h14.304v7.488c3.136-5.76 7.616-8.64 13.44-8.64 2.112 0 3.71.16 4.798.48v13.152c-2.216-.638-4.242-.96-6.078-.96-5.004 0-8.392 1.44-10.166 4.32-1.33 2.176-1.996 5.952-1.996 11.328v19.488z"/><path d="m139.034 63.008c4.108 0 7.542-1.886 10.302-5.664l10.112 7.392c-4.864 6.144-11.424 9.214-19.68 9.214-7.36 0-13.472-2.208-18.336-6.624-5.056-4.608-7.584-10.56-7.584-17.856s2.524-13.25 7.57-17.856c4.854-4.416 10.952-6.624 18.296-6.624 6.708 0 12.026 2.208 15.954 6.624s5.892 10.368 5.892 17.856v4.512h-33.408c.578 2.752 1.844 4.944 3.802 6.576 1.96 1.634 4.32 2.45 7.08 2.45zm-10.882-18.816h19.104c.062-2.432-.758-4.512-2.46-6.24-1.706-1.728-3.844-2.592-6.416-2.592-3.024 0-5.436.864-7.236 2.592-1.802 1.728-2.8 3.808-2.992 6.24z" fill="#ffb600"/><path d="m168.328 11.456c0-2.304.816-4.272 2.448-5.904s3.602-2.448 5.904-2.448c2.304 0 4.272.816 5.904 2.448s2.448 3.6 2.448 5.904-.814 4.272-2.448 5.904c-1.632 1.632-3.6 2.448-5.904 2.448-2.302 0-4.272-.816-5.904-2.448s-2.448-3.6-2.448-5.904zm1.152 61.344v-46.656h14.302v46.656z"/></svg>