<svg height="710" viewBox="0 0 604 710" width="604" xmlns="http://www.w3.org/2000/svg"><path d="m220.696 53.198c-6.358 12.567-10.543 28.018-10.907 46.971-1.545 80.391 3.498 67.958.386 104.847-1.145 13.576-7.174 33.934-17.074 53.803-11.318 22.717-26.279 40.504-35.067 53.562-17.983 26.719-35.346 49.856-48.449 76.402-7.446 15.085-12.796 36.293-15.121 51.541-1.554 10.193-1.735 23.372-1.387 35.723-9.215 8.006-13.948 21.49-23.417 31.77-6.108 6.615-17.914 8.763-30.998 11.298-11.225 2.148-23.103 6.518-27.256 13.205-.463.746-.882 1.52-1.267 2.315-9.454 18.203 2.117 49.444-3.526 72.555-2.39 9.826-6.47 19.072-6.543 27.546-.025 4.37.965 9.005 4.008 14.268 3.331 5.794 10.646 9.922 21.051 13.519 9.705 3.356 22.307 6.301 36.961 9.753l5.07 1.183c6.591 1.57 13.157 3.139 19.796 4.467 4.322.893 6.833 1.327 8.981 1.714 9.342 1.666 12.891 2.317 37.805 12.046 6.012 2.342 12.675 4.853 19.724 7.001 13.93 4.322 29.67 7.46 44.204 4.829 7.363-1.328 14.316-4.128 20.496-8.956 6.397-4.998 12.554-11.733 16.923-18.565 1.168-1.822 2.249-3.708 3.194-5.649.829-1.638 1.565-3.316 2.179-5.029.586-1.561 1.074-3.181 1.429-4.807 5.862-2.923 20.368-7.333 54.904-7.668 52.05-.507 86.717 18.276 86.717 18.276l.025-.386c.434 2.463.965 4.756 1.641 6.952.991 3.211 2.318 6.157 4.104 9.005 1.811 2.825 4.057 5.505 6.905 8.136 3.09 2.849 6.808 5.481 11.057 7.726 3.959 2.076 8.402 3.814 13.278 5.094 4.442 1.159 9.246 1.931 14.34 2.173 4.756.241 9.729.024 14.92-.724 8.763-1.256 15.523-4.032 21.341-7.629 5.673-3.501 10.308-7.701 15.04-11.998l.145-.121c3.115-2.825 6.277-5.697 9.777-8.329 2.342-1.762 4.491-3.404 6.543-4.997 3.042-2.342 4.732-3.67 6.446-5.022 5.142-4.031 10.453-8.232 15.764-12.191 5.505-4.08 11.347-8.233 17.696-12.288 4.804-3.09 10.212-6.591 15.403-9.995 5.359-3.524 10.96-7.218 16.247-10.839 9.443-6.414 22.476-14.364 27.413-24.69 1.649-3.194 2.534-6.618 2.295-10.299-.773-11.805-14.751-22.451-27.111-33.026-6.012-5.166-12.071-10.284-15.233-15.523-2.559-4.224-5.65-10.598-6.518-15.233-2.44-12.854-2.388-22.456-8.474-30.947-5.585-7.792-10.467-10.033-19.075-11.006-1.291-.145-2.504-.326-3.68-.518 5.593-20.588 7.196-33.66 6.173-50.907-2.337-39.399-27.088-81.096-59.433-128.591-10.909-16.018-23.672-32.583-32.738-46.784-10.504-16.452-21.445-35.48-25.661-52.769-3.175-13.017-4.524-37.586-4.957-78.506 1.545-62.696-17.865-91.641-41.354-109.699-23.49-18.058-57.965-17.769-70.398-16.682v-.001c-10.424.909-54.272 11.427-74.736 52.694z" fill="#282828"/><path d="m64.459 519.475c-12.352 5.935-40.796 5.814-47.696 17.636-7.575 13.003-2.678 27.407-2.606 44.005.025 11.749-.169 24.826-5.114 38.746-4.053 11.46-5.428 15.513.386 25.598 5.814 10.108 31.049 14.958 65.187 23.112 34.162 8.131 23.281 2.123 61.52 17.057 23.691 9.264 57.129 20.628 78.794 3.715 7.986-6.248 21.086-20.385 21.882-34.161.459-7.865-.265-16.261-2.147-21.352-6.249-16.985-18.746-24.246-30.615-42.003-21.737-32.98-44.826-64.247-63.282-91.702-13.027-19.42-23.498-24.125-32.352-22.581-27.214 4.801-18.432 29.674-43.957 41.93z" fill="#fcc624"/><path d="m410.605 491.397c-11.986 8.468-9.39 33.85-10.094 47.22-1.067 20.455-1.213 43.264-1.916 52.339-1.165 15.02-12.546 48.943-11.162 64.958 1.359 15.991 2.523 25.357 12.472 34.529 9.973 9.172 27.517 16.015 49.185 12.885 21.669-3.131 29.87-16.598 43.92-27.128 14.025-10.531 28.463-23.028 47.001-34.918 18.539-11.914 48.385-31.423 52.68-36.689 4.295-5.29 7.207-9.851 4.101-16.791-3.082-6.94-13.904-17.665-25.721-27.42-30.817-25.478-17.513-49.162-30.38-61.682-3.925-4.229-6.843-6.56-11.399-7.488-24.594-5.009-31.351 4.651-45.792 3.232-15.572-1.53-9.718 1.893-41.683-2.372-11.003-1.25-23.616-5.607-31.212-.676z" fill="#fcc624"/><path d="m227.161 209.092c.279.294.175.816.484 1.124 3.641 3.626 7.852 7.18 11.523 11.339 4.221 4.782 8.089 10.13 11.682 13.408 6.605 6.026 12.881 9.247 22.049 10.378 17.706 2.186 30.944-2.724 45.876-12.572 7.025-4.635 16.754-13.181 22.379-17.406 9.367-7.05 12.047-6.494 14.823-10.043 2.873-3.693 4.273-13.35 3.428-17.913-.675-3.524-1.907-5.866-5.721-8.28-4.25-2.68-11.564-5.504-24.239-9.801l-.023-.024c-6.486-2.371-13.168-4.759-18.915-6.952-12.868-4.998-21.252-8.784-32.953-7.847-5.382.431-10.679 1.587-15.235 3.356v.023c-8.571 3.606-16.866 9.151-23.675 13.92-5.987 4.176-12.119 9.728-15.668 15.426-2.103 3.372-5.433 10.328-2.327 14.328.008.01 7.932 4.069 15.887 8.773 12.859 7.604 27.548 11.532 40.663 10.801 10.432-.581 22.075-3.876 30.482-7.922 8.462-4.073 18.866-10.496 29.008-18.322 1.569-1.159 4.558-4.094 6.428-4.98 1.648-.781 6.96-.328 6.716 1.477-.191 1.412-6.43 3.934-8.679 5.604-11.093 8.24-23.444 16.31-31.472 20.01-8.294 3.822-22.252 8.236-31.687 8.792-8.619.509-15.938-.447-23.43-2.981-7.244-2.449-11.538-4.576-19.251-9.031-2.46-1.42-4.825-2.606-8.154-4.685z" fill="#fcc624"/><path d="m332.133 100.449c-14.131-.167-27.778 10.797-32.264 25.575-3.716 12.329-3.547 22.125-2.944 27.482v.001c4.15 1.255 8.468 2.896 13.415 4.802-3.064-6.901-2.847-15.853 1.207-23.236 5.791-10.593 17.252-13.995 25.6-7.576 8.324 6.418 10.399 20.195 4.584 30.788-2.099 3.836-4.946 6.731-8.131 8.565 5.525 1.906 9.965 3.522 13.56 4.994 4.638-5.887 10.78-15.279 13.367-23.308 4.211-13.062.966-36.24-16.6-45.168-3.842-1.952-7.837-2.872-11.794-2.919zm-92.398 6.286c-2.252-.004-4.661.417-7.232 1.314h-.001c-11.147 3.884-15.394 22.632-11.461 39.619 2.172 9.361 6.008 18.264 11.727 23.79 1.182-.917 2.388-1.809 3.595-2.63.94-.675 1.881-1.327 2.798-1.954-7.214-3.523-11.967-14.453-10.712-25.045 1.303-11.027 8.638-17.541 16.383-14.525s12.956 14.428 11.654 25.455c-.169 1.447-.434 2.823-.796 4.102 2.292-1.182 4.367-2.123 6.297-2.872.483-.192.941-.386 1.4-.531.723-5.549.627-11.606-.58-17.662-3.379-16.632-10.915-29.039-23.072-29.061zm117.197 103.305c-2.654 1.375-7.287 3.305-14.357 8.783-5.139 4.005-14.645 12.329-21.932 17.372-4.758 3.294-9.965 6.142-15.088 8.372-7.373 3.211-14.57 5.142-19.995 5.285-19.444 1.028-28.694-3.788-37.559-13.027-3.718-3.875-6.535-8.121-11.226-13.301-2.078-2.295-4.954-5.344-7.886-7.439-.08 2.546-8.243 56.893-19.23 80.918-10.986 24.026-10.448 15.862-17.831 40.975-10.254 9.304-21.495 34.302-28.896 55.82-7.635 25.262-13.419 44.741-13.897 73.038-3.816-7.605-6.56-15.787-7.639-24.686-3.8-31.252 4.473-68.528 29.172-95.362 1.046-1.136 1.024-1.6.56-1.571-.361.023-.989.345-1.591.882-30.846 27.521-38.18 78.283-35.008 100.963 2.268 16.216 6.498 30.206 15.105 41.581.002.028.004.056.005.084.146.166.294.328.441.491 2.26 2.913 4.808 5.653 7.698 8.209 0 0 0 0 .001.001 5.038 5.562 11.329 11.634 24.14 21.371 23.578 17.919 40.101 27.38 43.353 39.033 4.328 15.512-5.373 25.77-17.47 32.077 8.845 8.85 37.079 26.98 88.566 24.714 45.343-1.995 73.777-19.156 98.05-48.764.155-6.814.9-18.215 1.238-30.522.322-11.753.39-23.524 2.189-32.652.423-2.148 1.234-4.183 1.959-5.972 2.961-7.305 10.931-12.281 18.558-12.64 4.01-.188 8.219-.479 12.243.356.743-5.812 1.322-11.403 1.729-16.838 5.195-1.507 14.333-2.929 25.31-3.295 17.009-.567 37.383 1.02 47.67 7.472-2.292-2.005-5.101-3.773-8.093-5.205-12.036-5.76-28.521-7.697-45.324-8.22 4.49-11.92 9.132-29.018 8.64-41.808-1.292-33.57-17.979-59.428-41.761-77.415-.591-.447-1.167-.786-1.39-.819-.223-.034-.094.238.725 1.014 27.541 26.07 36.747 55.762 34.452 84.572-.895 11.245-5.775 23.99-11.359 34.29-2.616-.005-5.703.132-8.343.179 1.334-35.288-5.603-64.894-25.272-106.112-1.883-3.571-10.885-18.715-16.258-22.99-4.2-20.545-4.753-19.537-13.155-38.345-12.741-28.524-17.359-61.494-21.244-80.869z" fill="#f5f5f5"/><g fill="#282828"><path d="m510.553 487.899c.423-.796 1.281-3.985 1.346-4.633 1.621-16.151-29.799-19.785-54.255-18.97-11.097.37-19.746 1.679-24.911 3.204-8.998 2.656-13.428 8.75-14.425 16.374-2.018 15.434 2.562 48.038 17.875 55.171 15.836 7.376 39.817-3.153 53.974-19.035 9.586-10.754 15.69-23.275 20.396-32.111z"/><path d="m269.915 162.809c-1.037-1.545-5.359-.749-7.436 0-2.052.772-3.645 3.018-2.8 4.539.435.772 1.376 1.159 2.1 1.014 1.111-.242 2.294-1.473 3.791-2.608 1.593-1.231 3.91-2.317 4.345-2.945z"/><path d="m283.338 162.857c-.628-.652 7.025-2.221 10.042.145 3.042 2.366 2.849 4.224 1.932 5.214-.966 1.014-9.874-4.514-11.974-5.359z"/></g></svg>