<svg viewBox="0 0 250 59" xmlns="http://www.w3.org/2000/svg"><path d="m.98438 58h9.7266v-25.352c0-5 3.2812-8.6328 7.9688-8.6328 4.5312 0 7.3438 2.8516 7.3438 7.4609v26.523h9.4531v-25.586c0-4.9609 3.2031-8.3984 7.8906-8.3984 4.7656 0 7.4219 2.8906 7.4219 7.9688v26.016h9.7266v-28.398c0-8.2812-5.3516-13.789-13.516-13.789-5.9766 0-10.898 3.2031-12.891 8.3203h-.23438c-1.5234-5.3125-5.7031-8.3203-11.562-8.3203-5.625 0-10 3.1641-11.797 7.9688h-.19531v-7.1875h-9.3359v41.406zm80.822-6.6797c-4.2188 0-7.0312-2.1484-7.0312-5.5469 0-3.2812 2.6953-5.3906 7.3828-5.7031l9.5703-.58594v3.1641c0 5-4.4141 8.6719-9.9219 8.6719zm-2.9297 7.3438c5.3125 0 10.508-2.7734 12.891-7.2656h.19531v6.6016h9.375v-28.516c0-8.3203-6.6797-13.75-16.953-13.75-10.547 0-17.148 5.5469-17.578 13.281h9.0234c.625-3.4375 3.5547-5.6641 8.1641-5.6641 4.8047 0 7.7344 2.5 7.7344 6.8359v2.9688l-10.938.625c-10.078.625-15.742 5.0391-15.742 12.383 0 7.4609 5.8203 12.5 13.828 12.5zm65.158-27.305c-.66406-8.7109-7.4219-15.625-18.359-15.625-12.031 0-19.844 8.3203-19.844 21.562 0 13.438 7.8125 21.523 19.922 21.523 10.391 0 17.539-6.0938 18.32-15.352h-9.1797c-.89844 4.6875-4.1016 7.5-9.0234 7.5-6.1719 0-10.156-5-10.156-13.672 0-8.5156 3.9453-13.672 10.078-13.672 5.1953 0 8.2812 3.3203 9.0625 7.7344h9.1797zm30.041-30.664c-16.445 0-26.758 11.211-26.758 29.141s10.312 29.102 26.758 29.102c16.406 0 26.719-11.172 26.719-29.102s-10.312-29.141-26.719-29.141zm0 8.5938c10.039 0 16.445 7.9688 16.445 20.547 0 12.539-6.4062 20.508-16.445 20.508-10.078 0-16.445-7.9688-16.445-20.508 0-12.578 6.3672-20.547 16.445-20.547zm30.822 32.852c.42969 10.391 8.9453 16.797 21.914 16.797 13.633 0 22.227-6.7188 22.227-17.422 0-8.3984-4.8438-13.125-16.289-15.742l-6.4844-1.4844c-6.9141-1.6406-9.7656-3.8281-9.7656-7.5781 0-4.6875 4.2969-7.8125 10.664-7.8125 6.4453 0 10.859 3.1641 11.328 8.4375h9.6094c-.23438-9.9219-8.4375-16.641-20.859-16.641-12.266 0-20.977 6.7578-20.977 16.758 0 8.0469 4.9219 13.047 15.312 15.43l7.3047 1.7188c7.1094 1.6797 10 4.0234 10 8.0859 0 4.6875-4.7266 8.0469-11.523 8.0469-6.875 0-12.07-3.3984-12.695-8.5938h-9.7656z"/></svg>