<svg height="89" viewBox="0 0 434 89" width="434" xmlns="http://www.w3.org/2000/svg"><path d="m30.819 18.096-8.402 29.06c3.812-6.831 7.053-11.966 9.723-15.399 4.165-5.33 8.211-9.189 12.159-11.602 2.323-1.373 4.749-2.059 7.293-2.059 2.188 0 4.011.723 5.455 2.151 1.444 1.434 2.166 3.269 2.166 5.51 0 2.077-.527 4.788-1.576 8.133l-4.882 16.141c7.402-13.089 14.417-22.277 21.046-27.555 3.677-2.92 7.308-4.38 10.896-4.38 2.084 0 3.797.748 5.137 2.236 1.341 1.489 2.011 3.792 2.011 6.913 0 2.458-.44 5.068-1.318 7.825l-8.031 24.774c-1.759 5.388-2.632 8.377-2.632 8.977 0 .574.168 1.071.506 1.484.223.288.526.43.904.43.374 0 17.685-7.845 19.565-10.937l2.126 1.351c-1.022 1.716-21.774 14.189-23.61 15.227-1.837 1.032-3.526 1.544-5.076 1.544-1.424 0-2.619-.512-3.581-1.544-.958-1.034-1.436-2.303-1.436-3.804 0-2.06 1.018-6.199 3.053-12.422l6.767-20.658c1.537-4.763 2.355-7.402 2.457-7.916.148-.819.223-1.613.223-2.385 0-1.07-.259-1.906-.765-2.507-.558-.602-1.182-.902-1.879-.902-1.946 0-4.006.922-6.185 2.764-6.394 5.454-12.368 13.086-17.927 22.917-3.659 6.475-7.09 14.78-10.286 24.902h-9.755l11.726-38.932c1.277-4.197 1.919-7.007 1.919-8.426 0-1.155-.24-2.018-.721-2.572-.485-.557-1.08-.837-1.782-.837-1.445 0-2.987.514-4.611 1.545-2.63 1.671-6.025 5.255-10.177 10.744-4.146 5.496-7.36 10.747-9.645 15.763-1.096 2.358-3.711 9.93-7.834 22.715h-9.52l12.045-41.781 1.562-5.419c.298-.826.452-1.434.452-1.824 0-.953-.435-1.807-1.302-2.569-.863-.756-1.971-1.133-3.314-1.133-.565 0-9.912 1.975-12.467 2.489l-.487-2.288z"/><path d="m160.894 19.103-12.452 43.587-1.432 5.845c-.136.56-.205 1.037-.205 1.421 0 .621.152 1.158.451 1.615.242.351.544.521.906.521.39 0 11.646-9.201 14.843-12.228l2.185 1.547c-3.899 3.666-13.661 11.273-16.291 13.364-2.63 2.098-5.067 3.145-7.304 3.145-1.55 0-2.754-.46-3.602-1.384-.852-.921-1.278-2.265-1.278-4.024 0-2.103.474-4.87 1.419-8.304l1.381-4.679c-6.165 7.28-11.835 12.365-17.004 15.26-3.714 2.085-7.356 3.131-10.931 3.131-3.436 0-6.395-1.278-8.89-3.829-2.49-2.551-3.738-6.071-3.738-10.541 0-6.715 2.216-13.792 6.637-21.246 4.427-7.447 10.041-13.407 16.852-17.884 5.327-3.542 10.357-5.317 15.082-5.317 2.825 0 5.178.629 7.055 1.871 1.877 1.251 3.298 3.32 4.273 6.204l2.113-6.52zm-23.643 3.384c-2.987 0-6.159 1.261-9.518 3.784-4.756 3.565-8.99 8.859-12.698 15.872-3.71 7.008-5.563 13.352-5.563 19.017 0 2.856.826 5.117 2.47 6.772 1.654 1.662 3.543 2.486 5.676 2.486 5.287 0 11.035-3.379 17.243-10.134 7.566-8.992 11.234-18.209 10.996-27.654 0-3.57-.77-6.153-2.309-7.748-1.54-1.593-3.639-2.395-6.297-2.395z"/><path d="m408.119 38.252c0 6.444-1.704 12.817-5.117 19.128-3.409 6.31-8.161 11.314-14.256 15.003-6.087 3.692-12.013 5.537-17.757 5.537-5.881 0-10.672-1.875-14.387-5.633-3.709-3.755-5.563-8.621-5.563-14.588 0-6.306 1.808-12.64 5.436-18.995 3.625-6.356 8.472-11.377 14.542-15.069 6.07-3.689 11.939-5.539 17.601-5.539 5.666 0 10.326 1.868 13.997 5.606 3.668 3.737 5.504 8.586 5.504 14.55zm-10.521-4.41c0-3.992-.982-7.05-2.949-9.176-1.955-2.119-4.496-3.182-7.596-3.182-6.344 0-12.179 4.518-17.502 13.547-5.329 9.036-7.994 18.019-7.994 26.943 0 4.076 1.035 7.22 3.104 9.434 2.069 2.204 4.684 3.31 7.831 3.31 6.081 0 11.786-4.492 17.111-13.487 5.331-8.986 7.995-18.118 7.995-27.389z"/><path d="m413.19 17.113v-13.961h-3.92v-1.627h10.103v1.627h-3.919v13.961z"/><path d="m433.27 1.525v15.588h-2.196v-11.245l-3.197 5.921h-1.102l-3.225-5.936v11.26h-2.2v-15.588h1.75l4.227 7.869 4.245-7.869z"/><path d="m282.441 18.096-8.398 29.06c3.814-6.831 7.055-11.966 9.72-15.399 4.168-5.33 8.215-9.189 12.162-11.602 2.321-1.373 4.752-2.059 7.292-2.059 2.186 0 4.011.723 5.454 2.151 1.446 1.434 2.168 3.269 2.168 5.51 0 2.077-.527 4.788-1.577 8.133l-4.883 16.141c7.402-13.089 14.415-22.277 21.048-27.555 3.678-2.92 7.306-4.38 10.894-4.38 2.086 0 3.798.748 5.137 2.236 1.343 1.489 2.013 3.792 2.013 6.913 0 2.458-.44 5.068-1.318 7.825l-8.033 24.774c-1.758 5.388-2.63 8.377-2.63 8.977 0 .574.167 1.071.507 1.484.223.288.524.43.9.43s17.686-7.845 19.568-10.937l2.125 1.351c-1.024 1.716-21.775 14.189-23.609 15.227-1.836 1.032-3.526 1.544-5.079 1.544-1.424 0-2.618-.512-3.578-1.544-.958-1.034-1.436-2.303-1.436-3.804 0-2.06 1.018-6.199 3.05-12.422l6.769-20.658c1.539-4.763 2.357-7.402 2.456-7.916.149-.819.223-1.613.223-2.385 0-1.07-.259-1.906-.766-2.507-.555-.602-1.18-.902-1.877-.902-1.946 0-4.004.922-6.183 2.764-6.397 5.454-12.371 13.086-17.932 22.917-3.656 6.475-7.086 14.78-10.286 24.902h-9.752l11.726-38.932c1.276-4.197 1.92-7.007 1.92-8.426 0-1.155-.241-2.018-.722-2.572-.487-.557-1.081-.837-1.783-.837-1.441 0-2.986.514-4.61 1.545-2.632 1.671-6.024 5.255-10.176 10.744-4.146 5.496-7.364 10.747-9.647 15.763-1.098 2.358-3.709 9.93-7.833 22.715h-9.519l12.044-41.78 1.564-5.42c.297-.826.45-1.434.45-1.823 0-.954-.433-1.808-1.304-2.57-.863-.756-1.967-1.133-3.311-1.133-.566 0-9.91 1.975-12.468 2.489l-.487-2.288z"/><path d="m216.465 45.332c-6.94 1.598-16.616 2.144-28.974 1.665-.558 3.218-.92 5.922-1.068 8.086-.403 5.844 1.174 11.141 4.702 15.863 3.526 4.738 8.006 7.535 13.458 8.414 4.352.712 8.609.423 12.76-.861 4.164-1.283 10.433-4.589 18.806-9.936l1.669 3.154c-15.142 13.116-29.118 18.623-41.898 16.546-8.688-1.412-15.017-5.483-19.003-12.241-3.985-6.75-5.729-13.765-5.23-21.056.666-9.771 4.089-19.326 10.241-28.688 6.182-9.339 13.594-16.181 22.236-20.509 8.648-4.345 17.351-5.798 26.085-4.377 6.293 1.025 10.869 3.191 13.702 6.504 2.835 3.324 4.122 6.915 3.86 10.79-.376 5.441-2.722 10.326-7.052 14.663-5.702 5.643-13.806 9.651-24.294 11.983zm-10.49-32.094c-7.451 5.982-13.284 15.663-17.533 29.02 9.084.352 16.542-.356 22.367-2.133 7.736-2.375 13.626-5.778 17.73-10.206 4.073-4.392 6.26-8.86 6.572-13.401.187-2.752-.457-5.115-1.945-7.088-1.514-1.95-3.734-3.183-6.728-3.669-6.203-1.01-13.01 1.478-20.463 7.477" fill="#ff9600"/></svg>