<svg height="236.91138" width="774" xmlns="http://www.w3.org/2000/svg"><path d="m666 223.91135c-4.9706 0-9-4.02943-9-9.00003 0-4.9705 4.0294-8.99993 9-8.99993 4.97048 0 9 4.02943 9 8.99993 0 4.9706-4.02952 9.00003-9 9.00003z" fill="#2397d4"/><path d="m132.68252 163.75887h-.01c-6.6729 0-12.10712-5.4267-12.1142-12.095-.01-6.69052 5.42515-12.1253 12.1041-12.13237 6.683 0 12.1162 5.4267 12.12427 12.095 0 6.69053-5.42513 12.1263-12.1041 12.13338zm32.71756-8.88273c-6.23094 0-11.30246-5.06615-11.30657-11.29167-.01-6.24198 5.06124-11.31635 11.2963-11.32148 6.23917 0 11.3107 5.0651 11.31684 11.29062 0 6.24197-5.06224 11.31635-11.29628 11.32252h-.01zm-9.30658-32.28548c0 5.5754-4.51975 10.09516-10.09515 10.09516s-10.09515-4.51976-10.09515-10.09516 4.51975-10.09515 10.09515-10.09515 10.09516 4.51976 10.09516 10.09516zm15.34464-16.95986c0 5.12937-4.15817 9.28755-9.28754 9.28755s-9.28754-4.15818-9.28754-9.28755c0-5.12936 4.15817-9.28754 9.28754-9.28754s9.28754 4.15818 9.28754 9.28754zm-20.99792-16.55605c0 4.46033-3.6158 8.07613-8.07612 8.07613s-8.07613-3.6158-8.07613-8.07613c0-4.46032 3.6158-8.07612 8.07613-8.07612 4.46032 0 8.07612 3.6158 8.07612 8.07612z" fill="#2397d4" transform="translate(-80 -80.99863)"/><g fill="#262f45"><path d="m221 110.91137c-24 0-42 18-42 42v40h12v-40c0-18 12-30 30-30s30 12 30 30v40h12v-40c0-18 12-30 30-30s30 12 30 30v40h12v-40c0-24-18-42-42-42-15.66528 0-28.78428 7.6868-36 19.6874-7.21572-12.0006-20.33472-19.6874-36-19.6874zm175 0c-24 0-42 18-42 42s18 42 42 42c12 0 22.5-4.5 30-12v10h12v-40c0-24-18-42-42-42zm0 12c18 0 30 12 30 30s-12 30-30 30-30-12-30-30 12-30 30-30zm204-12c-24 0-42 18-42 42s18 42 42 42v-12c-15.90756 0-27.10606-9.3968-29.5-24h71.125c.25558-1.9564.375-3.9482.375-6 0-24-18-42-42-42zm0 12c15.90756 0 27.10606 9.397 29.5 24h-59c2.39394-14.603 13.59244-24 29.5-24zm60-10h12v80h-12zm72-2c-24 0-42 18-42 42s18 42 42 42c12 0 22.5-4.5 30-12v10h12v-40c0-24-18-42-42-42zm0 12c18 0 30 12 30 30s-12 30-30 30-30-12-30-30 12-30 30-30zm-234-12c-24 0-42 18-42 42s18 42 42 42c12 0 22.5-4.5 30-12v12c0 18-12 30-30 30v12c24 0 42-18 42-42v-42c0-24-18-42-42-42zm0 12c18 0 30 12 30 30s-12 30-30 30-30-12-30-30 12-30 30-30z"/><path d="m18.9258 93.6735c-10.4504 13.54547-18.9258 28.78103-18.9258 47.23792 0 40.00634 30.35843 73 68 73 37.64044 0 68-32.9935 68-73 0-18.46054-8.4889-33.212-19.53017-47.2379-4.14024-4.34463-10.11757-3.69864-14.469-.91856-12.73295 6.58854-19.60608 9.22093-34.00083 9.15645-13.92202-.0624-21.23667-2.33602-33.97033-9.27735-4.35142-2.6592-10.96363-3.3052-15.10386 1.03943zm9.0742 11.23792c13.19828 7.29754 24.9691 11 40 11 15.0436 0 26.79494-3.7025 40-11 7.2055 10.15985 14 22.7579 14 36 0 32.8013-24.1753 59-54 59-29.82612 0-55-26.19854-55-59 0-13.22462 7.7788-25.8322 15-36z"/></g></svg>