<svg height="245" viewBox="0 0 945 245" width="945" xmlns="http://www.w3.org/2000/svg"><path d="m122.375 0c-67.586 0-122.375 54.789-122.375 122.375 0 67.585 54.789 122.375 122.375 122.375 67.585 0 122.375-54.79 122.375-122.375 0-67.586-54.79-122.375-122.375-122.375zm0 233.032c-61.114 0-110.657-49.543-110.657-110.657s49.543-110.657 110.657-110.657 110.657 49.543 110.657 110.657-49.543 110.657-110.657 110.657z"/><path d="m174.154 189.914c-.412-3.919-1.463-12.702-2.584-12.499-1.192.218-3.272 9.895-3.958 13.247 2.203-.171 4.384-.425 6.542-.748z" fill="none"/><path d="m185.299 187.521c-1.349-.73-2.951-1.565-3.224-2.021-.394-.655-.919-18.627.263-20.726 1.18-2.101 4.853-7.349 5.902-10.627 1.051-3.28.131-12.461-.393-14.822-.525-2.362 2.768-4.07 4.317-4.379.943-.189 3.02-.944 3.423-2.443.544-2.031 2.491-3.28 2.36-6.297-.067-1.559-1.674-2.688-2.85-4.484-1.101-1.682-1.758-4.063-2.266-4.698-1.049-1.311-5.103-3.839-5.283-5.03-.181-1.19-3.121-8.249-5.323-7.935-2.341.334-2.414 8.186-2.414 8.186s-6.417 2.139-7.927 6.354c-1.074 3-1.813 5.906-3.208 7.927-2.61 3.786-5.953 5.565-7.065 6.764-1.705 1.836-3.409 4.984-6.296 5.509-2.887.526-7.168 2.008-12.807 5.024-5.642 3.019-9.777 10.257-10.696 14.848-.917 4.59-2.316 12.394-1.006 16.985 1.312 4.591 1.291 5.251 1.422 6.957.13 1.706-6.475-3.759-7.996-6.172-1.938-3.075-5.51-8.035-4.812-13.147.88-6.459 4.588-9.626 5.755-12.52 4.152-10.284-9.172-18.424-10.757-15.475-1.572 2.926 10.946 6.038 6.699 13.872-1.986 3.663-5.284 6.983-6.321 13.304-1.188 7.236 4.637 16.836 6.269 19.594-30.881-14.725-52.223-46.229-52.223-82.72 0-29.059 13.536-54.955 34.643-71.734-43.128 9.474-75.407 47.903-75.407 93.877 0 53.087 43.036 96.123 96.123 96.123 29.781 0 56.398-13.545 74.029-34.81-4.153 1.883-8.475 3.462-12.931 4.716zm-13.729-10.106c1.122-.203 2.172 8.58 2.584 12.499-2.158.323-4.339.577-6.543.748.686-3.352 2.766-13.029 3.959-13.247z"/><path d="m268.147 66.834h16.322l31.337 72.467h.261l31.599-72.467h15.93v92.444h-10.968v-77.559h-.262l-33.166 77.561h-6.659l-33.165-77.561h-.261v77.561h-10.968z"/><path d="m381.89 66.834c4.178 0 7.442 3.395 7.442 7.442 0 4.309-3.133 7.443-7.442 7.443-4.31 0-7.443-3.133-7.443-7.443 0-4.047 3.264-7.442 7.443-7.442zm-5.092 31.337h10.185v61.109h-10.185z"/><path d="m448.676 148.441h-.262c-3.786 6.921-12.535 12.404-23.502 12.404-17.105 0-30.554-13.84-30.554-32.119 0-18.542 12.926-32.122 32.121-32.122 8.879 0 16.321 3.917 21.936 10.446h.262v-46.484h10.185v98.712h-10.185v-10.837zm-21.675-42.435c-13.188 0-21.675 9.923-21.675 22.72 0 12.796 8.487 22.719 21.675 22.719s21.675-9.925 21.675-22.719c0-12.795-8.487-22.72-21.675-22.72z"/><path d="m469.606 112.666c0-5.615-.522-10.446-.522-14.494h9.663c0 3.265.261 6.66.261 10.055h.262c2.742-6.007 10.315-11.621 20.368-11.621 16.061 0 23.242 10.185 23.242 24.939v37.736h-10.185v-36.691c0-10.184-4.44-16.582-13.972-16.582-13.188 0-18.933 9.532-18.933 23.503v29.77h-10.185z"/><path d="m538.941 66.834c4.179 0 7.442 3.395 7.442 7.442 0 4.309-3.133 7.443-7.442 7.443s-7.442-3.133-7.442-7.443c0-4.047 3.265-7.442 7.442-7.442zm-5.093 31.337h10.187v61.109h-10.187z"/><path d="m615.912 156.537c0 22.067-11.883 34.08-33.295 34.08-11.882 0-21.414-3.135-30.031-11.622l7.312-8.356c6.397 6.92 13.319 10.577 22.72 10.577 18.28 0 23.111-11.751 23.111-24.679v-7.833h-.262c-4.831 7.833-13.449 11.359-21.545 11.359-19.193 0-32.512-13.318-32.512-31.337 0-19.978 13.058-32.122 32.512-32.122 8.228 0 17.498 3.917 21.545 12.013h.262v-10.446h10.185zm-31.99-5.876c13.974 0 21.807-10.446 21.807-22.197 0-13.188-8.88-22.458-21.807-22.458-12.796 0-21.542 9.923-21.542 22.719-.001 12.405 9.66 21.936 21.542 21.936z"/><path d="m626.554 60.566h10.187v46.093h.261c2.742-4.831 10.054-10.054 19.585-10.054 16.061 0 23.241 10.185 23.241 24.939v37.734h-10.184v-36.69c0-10.184-4.441-16.582-13.972-16.582-13.188 0-18.933 9.532-18.933 23.502v29.771h-10.186v-98.713z"/><path d="m723.492 106.789h-18.019v30.554c0 7.835.13 14.103 9.14 14.103 3.004 0 6.268-.653 9.011-2.089l.391 9.271c-3.524 1.565-8.095 2.219-11.882 2.219-14.495 0-16.845-7.834-16.845-20.5v-33.557h-13.319v-8.62h13.319v-17.364h10.186v17.365h18.019v8.618z"/><path d="m728.726 66.834h28.205c15.276 0 30.684 5.746 30.684 22.72 0 10.706-6.268 17.888-16.19 20.891v.261c11.882 1.045 20.892 10.576 20.892 22.72 0 20.368-18.933 25.853-36.038 25.853h-27.552v-92.445zm10.968 39.172h15.146c10.315 0 21.021-2.22 21.021-15.016 0-11.359-9.923-13.971-19.846-13.971h-16.321zm0 43.089h18.541c10.707 0 22.328-4.309 22.328-16.061 0-12.926-10.968-16.844-22.066-16.844h-18.803z"/><path d="m844.793 83.156c-3.657-5.876-10.186-8.487-16.845-8.487-9.662 0-19.716 4.57-19.716 15.539 0 8.487 4.7 12.273 19.455 16.974 14.362 4.57 27.682 9.27 27.682 27.421 0 18.41-15.8 27.027-32.513 27.027-10.707 0-22.198-3.525-28.466-12.795l9.401-7.704c3.918 6.79 11.752 10.315 19.717 10.315 9.4 0 20.107-5.484 20.107-16.061 0-11.36-7.703-13.319-24.156-18.802-13.057-4.31-22.979-10.055-22.979-25.462 0-17.758 15.276-26.637 31.468-26.637 10.315 0 19.064 2.873 25.853 10.837z"/><path d="m863.202 66.834h35.516c18.149 0 45.309 12.143 45.309 46.223s-27.159 46.223-45.309 46.223h-35.516zm10.97 82.261h20.892c21.152 0 37.212-10.706 37.212-36.038s-16.06-36.038-37.212-36.038h-20.892z"/><path d="m636.72 179.678h-5.745v13.1c0 1.784 1.045 2.829 2.785 2.829 1.001 0 2.044-.306 2.96-.697l.217 2.35c-.957.35-2.394.697-3.395.697-3.743 0-5.179-2.306-5.179-5.179v-13.1h-4.353v-2.349h4.353v-5.789h2.611v5.789h5.745v2.349z"/><path d="m637.233 164.533h2.611v16.319h.086c1.047-2.22 3.614-4.047 6.877-4.047 6.267 0 7.659 4.265 7.659 8.66v11.968h-2.61v-11.838c0-3.264-.915-6.44-5.049-6.44-3.873 0-6.963 2.698-6.963 8.226v10.053h-2.611z"/><path d="m674.784 193.647c-2.045 3.046-5.135 4.309-8.703 4.309-6.138 0-10.185-4.396-10.185-10.619 0-6.006 4.179-10.531 10.053-10.531 6.18 0 9.444 4.743 9.444 9.399v1.828h-16.886c0 2.176 1.522 7.572 7.615 7.572 2.655 0 5.44-1.393 6.745-3.569zm-2.002-7.963c0-3.569-3.09-6.528-6.963-6.528-5.701 0-7.312 5.483-7.312 6.528z"/><path d="m684.579 164.533h2.611v16.319h.087c1.61-2.784 5.049-4.047 8.052-4.047 6.178 0 10.575 4.438 10.575 10.575 0 6.136-4.397 10.575-10.575 10.575-3.004 0-6.441-1.263-8.052-4.047h-.087v3.524h-2.611zm10.75 31.073c4.917 0 7.963-3.7 7.963-8.226s-3.046-8.226-7.963-8.226c-4.744 0-8.4 3.699-8.4 8.226 0 4.526 3.656 8.226 8.4 8.226z"/><path d="m707.556 192.298c1.086 2.133 3.481 3.308 5.831 3.308 2.263 0 4.612-1.393 4.612-3.7 0-5.526-11.924-1.653-11.924-9.312 0-3.917 3.568-5.788 6.876-5.788 3.264 0 5.788 1.219 7.095 3.786l-2.351 1.392c-1.001-1.827-2.394-2.828-4.744-2.828-1.871 0-4.265 1.132-4.265 3.222 0 5.439 11.925 1.218 11.925 9.355 0 4.135-3.438 6.224-7.268 6.224-3.439 0-6.529-1.307-8.095-4.091z"/><path d="m739.399 193.908h-.088c-1.609 2.785-5.048 4.048-8.051 4.048-6.18 0-10.575-4.439-10.575-10.575 0-6.137 4.396-10.575 10.575-10.575 3.003 0 6.441 1.263 8.051 4.047h.088v-16.319h2.611v32.9h-2.611zm-8.137-14.753c-4.919 0-7.964 3.699-7.964 8.226 0 4.525 3.045 8.226 7.964 8.226 4.744 0 8.398-3.7 8.398-8.226 0-4.527-3.654-8.226-8.398-8.226z"/><path d="m753.809 179.678h-4.179v-2.349h4.179v-6.572c0-5.179 3.438-6.746 6.005-6.746 1.263 0 2.22.173 3.003.522l-.521 2.263c-.608-.305-1.349-.436-2.35-.436-2.395 0-3.524 1.742-3.524 5.354v5.615h4.698v2.35h-4.698v17.756h-2.611z"/><path d="m769.867 176.806c6.179 0 10.575 4.438 10.575 10.575 0 6.136-4.396 10.575-10.575 10.575s-10.575-4.439-10.575-10.575c0-6.137 4.396-10.575 10.575-10.575zm0 18.8c4.918 0 7.964-3.7 7.964-8.226s-3.046-8.226-7.964-8.226-7.964 3.699-7.964 8.226c0 4.526 3.047 8.226 7.964 8.226z"/><path d="m781.902 182.984c0-1.479-.218-4.612-.218-5.655h2.611c.044 1.479.089 3.133.174 3.523 1.306-2.351 3.396-4.047 6.397-4.047.522 0 1.002.088 1.523.218l-.304 2.566c-.393-.13-.741-.174-1.002-.174-4.525 0-6.572 3.134-6.572 7.052v10.966h-2.611z"/><path d="m818.069 193.647c-2.046 3.046-5.137 4.309-8.706 4.309-6.135 0-10.183-4.396-10.183-10.619 0-6.006 4.178-10.531 10.053-10.531 6.18 0 9.443 4.743 9.443 9.399v1.828h-16.885c0 2.176 1.522 7.572 7.615 7.572 2.655 0 5.439-1.393 6.745-3.569zm-2.002-7.963c0-3.569-3.09-6.528-6.964-6.528-5.7 0-7.311 5.483-7.311 6.528z"/><path d="m817.01 177.329h2.958l6.703 17.276 6.527-17.276h2.655l-7.921 20.104h-2.697z"/><path d="m852.933 193.647c-2.046 3.046-5.136 4.309-8.705 4.309-6.136 0-10.184-4.396-10.184-10.619 0-6.006 4.179-10.531 10.053-10.531 6.181 0 9.444 4.743 9.444 9.399v1.828h-16.886c0 2.176 1.523 7.572 7.616 7.572 2.654 0 5.438-1.393 6.745-3.569zm-2.001-7.963c0-3.569-3.09-6.528-6.964-6.528-5.7 0-7.312 5.483-7.312 6.528z"/><path d="m855.084 182.984c0-1.479-.218-4.612-.218-5.655h2.612c.043 1.479.088 3.133.173 3.523 1.307-2.351 3.396-4.047 6.397-4.047.522 0 1.002.088 1.523.218l-.304 2.566c-.393-.13-.741-.174-1.002-.174-4.525 0-6.571 3.134-6.571 7.052v10.966h-2.612z"/><path d="m873.712 203.657c-1.001 2.567-2.654 4.221-5.527 4.221-.869 0-1.74-.175-2.567-.392l.262-2.438c.739.218 1.566.48 2.35.48 1.915 0 2.741-1.785 3.352-3.351l1.826-4.657-8.182-20.193h2.916l6.659 16.929 6.483-16.929h2.786z"/><path d="m892.814 176.806c6.179 0 10.575 4.438 10.575 10.575 0 6.136-4.396 10.575-10.575 10.575-6.18 0-10.575-4.439-10.575-10.575 0-6.137 4.396-10.575 10.575-10.575zm0 18.8c4.918 0 7.964-3.7 7.964-8.226s-3.046-8.226-7.964-8.226-7.964 3.699-7.964 8.226c.001 4.526 3.046 8.226 7.964 8.226z"/><path d="m904.85 182.984c0-1.479-.218-4.612-.218-5.655h2.612c.043 1.479.087 3.133.173 3.523h.13c1.045-2.22 3.612-4.047 6.876-4.047 6.268 0 7.659 4.265 7.659 8.66v11.968h-2.61v-11.838c0-3.264-.914-6.44-5.049-6.44-3.874 0-6.962 2.698-6.962 8.226v10.053h-2.612z"/><path d="m942.401 193.647c-2.046 3.046-5.137 4.309-8.705 4.309-6.136 0-10.184-4.396-10.184-10.619 0-6.006 4.178-10.531 10.053-10.531 6.18 0 9.443 4.743 9.443 9.399v1.828h-16.885c0 2.176 1.522 7.572 7.615 7.572 2.655 0 5.439-1.393 6.745-3.569zm-2.001-7.963c0-3.569-3.091-6.528-6.965-6.528-5.7 0-7.311 5.483-7.311 6.528z"/></svg>