<svg height="128" viewBox="0 0 548 128" width="548" xmlns="http://www.w3.org/2000/svg"><g fill="#e41b23"><path d="m38.77 110.209c7.61-6.484 14.447-14.235 18.816-23.327 2.678-5.708 4.793-11.627 5.85-17.83 1.479-8.949 2.043-18.041 2.537-27.132.281-6.271.422-12.544.422-18.886v-22.622h-9.653v11.205c-.282 11.065-.917 22.129-2.608 33.052-1.339 8.598-3.241 17.195-6.835 25.088-3.103 6.906-7.118 13.461-12.192 19.028-4.934 5.497-10.782 10.078-17.267 13.531-5.496 2.889-11.416 5.073-17.547 5.99v18.957c5.074-.705 10.078-1.973 14.94-3.665 8.455-2.958 16.701-7.328 23.537-13.389z"/><path d="m70.13 86.882c0 13.461-.069 26.992.071 40.452 5.849-.071 11.769 0 17.688 0v-126.852c-5.92 0-11.84 0-17.76 0 .001 28.753.001 57.577.001 86.4z"/><path d="m150.258 106.544c-8.879-2.889-17.054-7.752-23.82-14.236-7.047-6.695-12.473-15.081-16.208-24.031-3.946-9.303-5.708-19.31-6.977-29.247-1.551-12.826-1.974-25.722-1.902-38.619h-9.585v20.79c-.071 12.262.353 24.524 1.41 36.716.563 5.638 1.198 11.346 2.678 16.843 1.479 5.497 3.664 10.783 6.483 15.787 3.594 6.342 8.387 11.98 13.741 16.984 3.243 2.959 6.625 5.849 10.359 8.245 5.075 3.313 10.643 5.92 16.421 7.893 4.862 1.621 9.797 2.96 14.87 3.594 0-6.342 0-12.614 0-18.957-2.466-.352-5.003-.986-7.47-1.762z"/><path d="m324.773 21.576v-19.091h-70.455v19.091h25.909v105.606h18.637v-105.606z"/><path d="m465.985 75.516c3.637-2.727 7.879-4.545 11.212-7.576 6.516-5.605 10-13.939 10.606-22.272.605-8.333.605-16.515-3.182-23.788-5.455-11.212-17.273-18.939-29.849-19.242h-22.272c-1.97 0-3.787.152-5.605.758-6.061 1.97-10.606 8.03-10.606 14.394v109.546h18.788c0-33.939 0-67.879 0-101.818.151-2.273 1.97-4.091 4.242-4.091h14.395c6.97-.304 13.484 5.151 15 11.818 1.212 5.151 1.363 11.061-1.364 15.757-3.636 6.364-10.303 10.304-16.97 12.879-3.484 1.363-6.666 3.939-8.03 7.576-1.666 4.849-.909 10.151 1.97 14.242 9.546 14.395 19.091 28.939 28.788 43.485h22.121c-10-15-20.303-30-30.151-45.151-1.214-2.123-1.062-5.002.907-6.517z"/><path d="m547.955 119.909c.151-4.545-4.697-8.03-8.939-6.817-3.182.757-5.454 3.636-5.454 6.817-.304 3.637 2.727 6.97 6.363 7.273 4.091.757 8.333-3.03 8.03-7.273zm-7.576 6.061c-3.939 0-6.817-4.696-5-8.182.606-1.515 1.97-2.727 3.485-3.182 3.03-1.061 6.666.758 7.424 3.939s-1.97 7.88-5.909 7.425z"/><path d="m362.501 2.789c-5.909-1.516-12.122.757-15.759 5.757-2.121 2.879-2.575 6.515-3.636 9.696-10.606 36.364-21.061 72.729-31.667 108.94h19.395c3.03-10.455 6.061-20.909 9.091-31.364h37.727c3.031 10.455 6.061 20.909 9.092 31.364h19.545c-11.061-37.879-21.969-75.758-33.03-113.637-1.364-4.999-5.455-9.545-10.758-10.756zm-17.273 75.303c4.546-15.758 9.091-31.516 13.637-47.273 4.545 15.758 9.091 31.516 13.637 47.273z"/><path d="m230.682 5.667c-5.908-5.151-15.908-4.091-20.908 2.121-2.728 3.03-3.182 7.272-4.395 11.062-10.605 36.211-21.061 72.271-31.515 108.484h19.394c3.03-10.455 6.061-20.909 9.242-31.364h37.728c3.03 10.455 6.061 20.909 9.091 31.364h19.546c-11.061-37.879-22.122-75.758-33.183-113.637-.757-3.181-2.576-5.908-5-8.03zm-23.03 72.425c4.545-15.758 9.09-31.516 13.787-47.121 4.546 15.757 9.092 31.515 13.637 47.121-9.242 0-18.334.15-27.424 0z"/><path d="m542.955 116.879c-1.667-1.061-3.637-.303-5.455-.605v7.728h1.364c0-1.213 0-2.273.151-3.485.606.151 1.363.303 1.818.606 1.061 1.212 1.363 3.484 3.484 2.879-.605-1.213-1.515-2.425-2.424-3.485 1.516-.304 2.425-2.274 1.062-3.638zm-4.091 2.879v-2.272c1.061.151 2.575-.303 3.182.758 0 .151.151.151.151.303-.151 1.515-2.272 1.059-3.333 1.211z"/><path d="m504.925 2.637v124.697h19.697c0-41.516 0-83.03 0-124.697z"/></g></svg>