<svg height="136.68491mm" viewBox="0 0 1543.4284 484.31659" width="435.58978mm" xmlns="http://www.w3.org/2000/svg" xmlns:xlink="http://www.w3.org/1999/xlink"><linearGradient id="a" gradientUnits="userSpaceOnUse" x1="1197.31718" x2="1265.62181" y1="940.0133" y2="1117.35943"><stop offset="0" stop-color="#637ddf"/><stop offset=".23168644" stop-color="#649afa"/><stop offset="1" stop-color="#719efa"/></linearGradient><linearGradient id="b" gradientUnits="userSpaceOnUse" x1="271.247019" x2="360.737349" y1="-703.73994" y2="-548.96296"><stop offset="0" stop-color="#699ad7"/><stop offset=".24345198" stop-color="#7eb1dd"/><stop offset="1" stop-color="#7ebae4"/></linearGradient><linearGradient id="c" gradientUnits="userSpaceOnUse" x1="280.49655" x2="368.39886" y1="-709.00487" y2="-553.62651"><stop offset="0" stop-color="#415e9a"/><stop offset=".23168644" stop-color="#4a6baf"/><stop offset="1" stop-color="#5277c3"/></linearGradient><g transform="translate(-132.5822 958.04022)"><g><g fill-rule="evenodd"><path d="m309.40365-710.2521 122.19683 211.6751-56.15706.5268-32.6236-56.8692-32.85645 56.5653-27.90237-.011-14.29086-24.6896 46.81047-80.4902-33.22946-57.8256z" fill="#5277c3"/><path d="m353.50926-797.4433-122.21756 211.6631-28.53477-48.37 32.93839-56.6875-65.41521-.1719-13.9414-24.1698 14.23637-24.721 93.11177.2939 33.46371-57.6903z" fill="#7ebae4"/><path d="m362.88537-628.243 244.41439.012-27.62229 48.8968-65.56199-.1817 32.55876 56.7371-13.96098 24.1585-28.52722.032-46.3013-80.7841-66.69317-.1353z" fill="#7ebae4"/><path d="m505.14318-720.9886-122.19683-211.6751 56.15706-.5268 32.6236 56.8692 32.85645-56.5653 27.90237.011 14.29086 24.6896-46.81047 80.4902 33.22946 57.8256z" fill="#7ebae4"/><path d="m309.40365-710.2521 122.19683 211.6751-56.15706.5268-32.6236-56.8692-32.85645 56.5653-27.90237-.011-14.29086-24.6896 46.81047-80.4902-33.22946-57.8256z" fill="#5277c3"/><path d="m451.3364-803.53264-244.4144-.012 27.62229-48.89685 65.56199.18175-32.55875-56.73717 13.96097-24.15851 28.52722-.0315 46.3013 80.78414 66.69317.13524z" fill="#5277c3"/><path d="m460.87178-633.8425 122.21757-211.66304 28.53477 48.37003-32.93839 56.68751 65.4152.1718 13.9414 24.1698-14.23636 24.7211-93.11177-.294-33.46371 57.6904z" fill="#5277c3"/></g><g display="none" transform="translate(72.039038 -1799.4476)"><path d="m460.60629 594.72881-250.86446-.00001-125.432214-217.255 125.432234-217.25498 250.86446.00001 125.43222 217.255z" display="inline" fill="#4e4d52" opacity=".236"/><path d="m385.59154 773.06721h-100.83495l-50.41747-87.32564 50.41748-87.32563 100.83495.00001 50.41748 87.32563z" display="inline" fill="#4e4d52" transform="translate(0 -308.26772)"/><path d="m1216.5591 938.53395 123.0545 228.14035-42.6807-1.2616-43.4823-79.7725-39.6506 80.3267-32.6875-19.7984 53.4737-100.2848-37.1157-73.88955z" fill="url(#a)" fill-rule="evenodd" transform="translate(0 -308.26772)"/><path id="d" d="m-34.74221 446.17056h48.834862v226.22897h-48.834862z" display="inline" fill="#c53a3a" opacity=".415" transform="matrix(.8660254 -.5 .5 .8660254 0 0)"/><path d="m251.98568 878.63831-14.02447 24.29109h-28.04894l-14.02447-24.29109 14.02447-24.2911h28.04894z" display="inline" fill-rule="evenodd" opacity=".509" transform="translate(0 -308.26772)"/><use height="100%" transform="matrix(.5 .8660254 -.8660254 .5 558.02636 12.372992)" width="100%" xlink:href="#d"/><path d="m545.71014 467.07007h5.394748v115.12564h-5.394748z" display="inline" fill-opacity=".650794" fill-rule="evenodd" transform="matrix(.8660254 .5 -.5 .8660254 0 -308.26772)"/></g></g><g><path id="e" d="m309.54892-710.38827 122.19683 211.67512-56.15706.5268-32.6236-56.8692-32.85645 56.5653-27.90237-.011-14.29086-24.6896 46.81047-80.4901-33.22946-57.8257z" fill="url(#b)" fill-rule="evenodd"/><use height="100%" transform="matrix(.5 .8660254 -.8660254 .5 -416.334159 -710.462564)" width="100%" xlink:href="#e"/><use height="100%" transform="matrix(.5 -.8660254 .8660254 .5 823.470405 -5.10774)" width="100%" xlink:href="#e"/><use height="100%" transform="matrix(-1 0 0 -1 814.83736 -1431.513)" width="100%" xlink:href="#e"/><path id="f" d="m309.54892-710.38827 122.19683 211.67512-56.15706.5268-32.6236-56.8692-32.85645 56.5653-27.90237-.011-14.29086-24.6896 46.81047-80.4901-33.22946-57.8256z" fill="url(#c)" fill-rule="evenodd"/><use height="100%" transform="matrix(-.5 .8660254 -.8660254 -.5 -9.137814 -1426.891401)" width="100%" xlink:href="#f"/><use height="100%" transform="matrix(-.5 -.8660254 .8660254 -.5 1230.893908 -721.082971)" width="100%" xlink:href="#f"/></g><g><g><path d="m969.15319-847.11833h-30.81755v139.86428c0 19.75484.79019 50.96749 1.97548 85.73601h-1.18529c-15.40877-28.84207-32.79303-56.49884-45.04104-75.46349l-96.79872-150.1368h-42.27536v267.87565h30.81755v-139.86427c0-19.75485-.79019-56.89395-1.97548-91.26737h1.18529c22.91561 39.90478 36.34891 62.0302 48.99201 80.99485l96.79872 150.13679h38.32439z"/><path d="m1027.8251-579.24268h33.1881v-191.22686h-33.1881zm16.594-219.27874c11.4578 0 20.5451-9.08722 20.5451-20.54503s-9.0873-20.54504-20.5451-20.54504-20.545 9.08723-20.545 20.54504 9.0872 20.54503 20.545 20.54503z"/><path d="m1267.7785-770.46954h-37.9293l-46.6214 70.32723h-1.1853l-45.0411-70.32723h-41.09l68.3517 93.24285v1.18529l-70.7223 96.79872h37.9293l49.7822-75.85859h1.1853l49.7822 75.85859h41.09l-72.3027-98.37911v-1.18529z"/></g><path d="m1468.5915-800.79725c-66.1477 0-120.5358 48.14083-120.5358 128.25306s54.3881 128.25306 120.5358 128.25306 120.5359-48.14083 120.5359-128.25306-54.3882-128.25306-120.5359-128.25306zm0 24.98914c49.2433 0 86.727 36.74872 86.727 103.26392s-37.4837 103.26392-86.727 103.26392-86.727-36.74872-86.727-103.26392 37.4837-103.26392 86.727-103.26392z" transform="scale(.95067318 1.0518862)"/><path d="m1523.761-773.88643c0 37.10927 19.3277 57.21012 64.1681 75.37819 34.4034 13.91598 48.3193 26.28573 48.3193 51.79835 0 30.92438-25.126 46.38657-58.3697 46.38657-17.395 0-37.1093-2.70588-58.7564-10.05042l-3.479 26.67228c18.9412 6.95799 39.8152 9.66387 60.6891 9.66387 51.7984 0 95.0925-26.28573 95.0925-79.24374 0-36.7227-22.4202-54.50422-67.6471-72.6723-30.1512-11.9832-44.8403-24.73951-44.8403-51.41179 0-25.89917 22.4202-40.2017 50.6387-40.2017 16.6218 0 34.7899 4.2521 47.5462 9.27732l3.479-26.28573c-14.6891-6.18488-32.8572-9.27732-52.958-9.27732-47.5463 0-83.8824 27.4454-83.8824 69.96642z"/></g></g></svg>