<svg height="436" viewBox="0 0 1516 436" width="1516" xmlns="http://www.w3.org/2000/svg" xmlns:xlink="http://www.w3.org/1999/xlink"><linearGradient id="a" x1="2.033573%" x2="56.657356%" y1="3.133021%" y2="76.07156%"><stop offset="0" stop-color="#699ad7"/><stop offset=".24345198" stop-color="#7eb1dd"/><stop offset="1" stop-color="#7ebae4"/></linearGradient><linearGradient id="b" x1="7.679371%" x2="61.333847%" y1=".651926%" y2="73.873865%"><stop offset="0" stop-color="#415e9a"/><stop offset=".23168644" stop-color="#4a6baf"/><stop offset="1" stop-color="#5277c3"/></linearGradient><g fill="none" fill-rule="evenodd"><g transform="translate(-7.5822 -12.95978)"><g fill="url(#a)"><path d="m161.54892 236.61173 122.19683 211.67512-56.15706.5268-32.6236-56.8692-32.85645 56.5653-27.90237-.011-14.29086-24.6896 46.81047-80.4901-33.22946-57.8257z"/><path d="m42.5489199.61173 122.1968291 211.675119-56.157059.5268-32.6236002-56.8692-32.8564499 56.5653-27.9023699-.011-14.29086-24.6896 46.8104698-80.490099-33.2294598-57.8257002z" transform="matrix(.5 .8660254 -.8660254 .5 184.9099 112.266219)"/><path d="m42.5489199.61173 122.1968291 211.675119-56.157059.5268-32.6236002-56.8692-32.8564499 56.5653-27.9023699-.011-14.29086-24.6896 46.8104698-80.490099-33.2294598-57.8257002z" transform="matrix(.5 -.8660254 .8660254 .5 193.226345 355.163479)"/><path d="m42.54892.61173 122.19683 211.67512-56.15706.5268-32.6236-56.8692-32.85645 56.5653-27.90237-.011-14.29086-24.6896 46.81047-80.4901-33.22946-57.8257z" transform="matrix(-1 0 0 -1 399.83736 226.487)"/></g><path d="m161.54892 236.61173 122.19683 211.67512-56.15706.5268-32.6236-56.8692-32.85645 56.5653-27.90237-.011-14.29086-24.6896 46.81047-80.4901-33.22946-57.8256z" fill="url(#b)"/><path d="m42.5489199.61173 122.1968291 211.675119-56.157059.5268-32.6236002-56.8692-32.8564499 56.5653-27.9023699-.011-14.29086-24.6896 46.8104698-80.490099-33.2294598-57.8256002z" fill="url(#b)" transform="matrix(-.5 .8660254 -.8660254 -.5 325.106244 106.837381)"/><path d="m42.5489199.61173 122.1968291 211.675119-56.157059.5268-32.6236002-56.8692-32.8564499 56.5653-27.9023699-.011-14.29086-24.6896 46.8104698-80.490099-33.2294598-57.8256002z" fill="url(#b)" transform="matrix(-.5 -.8660254 .8660254 -.5 333.649848 350.188248)"/></g><g fill="#000" fill-rule="nonzero" transform="translate(599.4178 86.04022)"><path d="m214.15319.88167h-30.81755v139.86428c0 19.75484.79019 50.96749 1.97548 85.73601h-1.18529c-15.40877-28.84207-32.79303-56.49884-45.04104-75.46349l-96.79872-150.1368h-42.27536v267.87565h30.81755v-139.86427c0-19.75485-.79019-56.89395-1.97548-91.26737h1.18529c22.91561 39.90478 36.34891 62.0302 48.99201 80.99485l96.79872 150.13679h38.32439z"/><path d="m272.8251 268.75732h33.1881v-191.22686h-33.1881zm16.594-219.27874c11.4578 0 20.5451-9.08722 20.5451-20.54503s-9.0873-20.54504-20.5451-20.54504-20.545 9.08723-20.545 20.54504 9.0872 20.54503 20.545 20.54503z"/><path d="m512.7785 77.53046h-37.9293l-46.6214 70.32723h-1.1853l-45.0411-70.32723h-41.09l68.3517 93.24285v1.18529l-70.7223 96.79872h37.9293l49.7822-75.85859h1.1853l49.7822 75.85859h41.09l-72.3027-98.37911v-1.18529z"/><path d="m641.150551 5.65242373c-62.884844 0-114.590152 50.63867477-114.590152 134.90762427 0 84.268949 51.705308 134.907624 114.590152 134.907624 62.884845 0 114.590248-50.638675 114.590248-134.907624 0-84.2689495-51.705403-134.90762427-114.590248-134.90762427zm0 26.28573147c46.814285 0 82.449033 38.6554715 82.449033 108.6218928 0 69.966421-35.634748 108.621892-82.449033 108.621892-46.814284 0-82.449032-38.655471-82.449032-108.621892 0-69.9664213 35.634748-108.6218928 82.449032-108.6218928z"/><path d="m768.761 74.11357c0 37.10927 19.3277 57.21012 64.1681 75.37819 34.4034 13.91598 48.3193 26.28573 48.3193 51.79835 0 30.92438-25.126 46.38657-58.3697 46.38657-17.395 0-37.1093-2.70588-58.7564-10.05042l-3.479 26.67228c18.9412 6.95799 39.8152 9.66387 60.6891 9.66387 51.7984 0 95.0925-26.28573 95.0925-79.24374 0-36.7227-22.4202-54.50422-67.6471-72.6723-30.1512-11.9832-44.8403-24.73951-44.8403-51.41179 0-25.89917 22.4202-40.2017 50.6387-40.2017 16.6218 0 34.7899 4.2521 47.5462 9.27732l3.479-26.28573c-14.6891-6.18488-32.8572-9.27732-52.958-9.27732-47.5463 0-83.8824 27.4454-83.8824 69.96642z"/></g></g></svg>