<svg height="50" viewBox="0 0 163 50" width="163" xmlns="http://www.w3.org/2000/svg"><path d="m62.176 31.859c0 5.746-4.629 10.266-10.547 10.266s-10.543-4.52-10.543-10.266c0-5.769 4.625-10.367 10.543-10.367s10.547 4.598 10.547 10.367m-3.684 0c0-3.992-3.015-7.023-6.863-7.023-3.844 0-6.859 3.031-6.859 7.023 0 3.996 3.015 6.946 6.859 6.946 3.848 0 6.863-2.95 6.863-6.946" fill="#00b3e3"/><path d="m78.09 35.23c0 4.098-3.176 6.891-6.59 6.891-1.832 0-3.309-.519-4.441-1.406v8.328h-3.551v-20.344h3.555v1.047c1.128-.914 2.609-1.437 4.437-1.437 3.414 0 6.59 2.82 6.59 6.921m-3.445 0c0-2.402-1.614-3.917-3.766-3.917-1.91 0-3.82 1.515-3.82 3.917 0 2.403 1.91 3.887 3.82 3.887 2.152.004 3.766-1.484 3.766-3.887" fill="#00b3e3"/><path d="m92.957 36.145h-10.223c.352 1.878 1.723 3.027 3.364 3.027 1.05 0 2.367-.133 3.336-1.723l3.175.653c-1.183 2.714-3.578 4.019-6.511 4.019-3.793 0-6.887-2.793-6.887-6.891 0-4.101 3.094-6.917 6.941-6.917 3.578 0 6.668 2.687 6.805 6.656zm-10.113-2.43h6.484c-.457-1.672-1.75-2.402-3.176-2.402-1.343 0-2.879.781-3.308 2.402" fill="#00b3e3"/><path d="m107.445 33.793v7.937h-3.55v-7.207c0-1.828-1.075-3.054-2.715-3.054-2.02 0-3.336 1.304-3.336 4.492v5.769h-3.551v-13.031h3.551v1.176c1.047-1.016 2.445-1.566 4.222-1.566 3.227 0 5.379 2.246 5.379 5.484" fill="#00b3e3"/><path d="m129.285 41.73h-2.851l-5.004-12.875-5.032 12.875h-2.824l-6.699-19.843h3.82l4.493 13.105 5.136-13.105h2.18l5.137 13.105 4.492-13.105h3.847zm0 0" fill="#00b3e3"/><path d="m144.719 28.621-.188 3.317h-.781c-3.281 0-4.789 1.96-4.789 5.589v4.203h-3.551v-13.031h3.551v2.274c.996-1.516 2.555-2.453 4.816-2.453.348 0 .618 0 .942.101" fill="#00b3e3"/><path d="m152.27 36.926c0 1.281.621 1.984 1.695 1.984.617 0 1.531-.262 2.234-.625l1.024 2.871c-1.399.731-2.368.969-3.496.969-3.204 0-5.004-1.777-5.004-4.937v-5.668h-2.879v-2.821h2.879v-4.726l3.547-1.043v5.769h5.191v2.821h-5.191zm0 0" fill="#00b3e3"/><g fill="#002b49"><path d="m75.125 48.969h-.801l-.75-2-.754 2h-.797l-1.222-3.688h1.019l.633 1.989.797-1.989h.648l.793 1.989.637-1.989h1.024zm0 0"/><path d="m80.156 48.168h.785v.801h-2.531v-.801h.785v-2.082h-.785v-.805h2.531v.805h-.785zm0 0"/><path d="m85.902 48.969-.703-.801h-.746v.801h-.961v-3.688h1.77c1 0 1.605.571 1.605 1.426 0 .551-.254.992-.695 1.238l.933 1.024zm-.675-1.602c.398 0 .73-.262.73-.66 0-.387-.332-.629-.73-.629h-.774v1.285zm0 0"/><path d="m91.988 48.969h-2.902v-3.688h2.871v.801h-1.91v.629h1.879v.801h-1.879v.656h1.941zm0 0"/><path d="m97.344 48.969h-2.805v-3.688h.957v2.887h1.848zm0 0"/><path d="m102.777 48.969h-2.898v-3.688h2.871v.801h-1.91v.629h1.879v.801h-1.879v.656h1.937zm0 0"/><path d="m108.379 46.27-.941.187c-.079-.375-.34-.484-.563-.484-.227 0-.41.113-.41.316 0 .149.078.238.242.289l.742.227c.625.199.965.48.965 1.058 0 .828-.75 1.18-1.496 1.18-.824 0-1.496-.422-1.59-1.125l.985-.195c.082.363.304.519.636.519.281 0 .449-.125.449-.32 0-.145-.078-.25-.289-.301l-.707-.199c-.574-.16-.964-.449-.964-1.043 0-.754.609-1.168 1.441-1.168.789 0 1.375.371 1.5 1.059"/><path d="m113.402 46.27-.941.187c-.078-.375-.34-.484-.563-.484-.226 0-.41.113-.41.316 0 .149.078.238.246.289l.739.227c.625.199.965.48.965 1.058 0 .828-.75 1.18-1.497 1.18-.824 0-1.492-.422-1.589-1.125l.984-.195c.082.363.305.519.637.519.281 0 .449-.125.449-.32 0-.145-.078-.25-.289-.301l-.707-.199c-.574-.16-.965-.449-.965-1.047 0-.75.609-1.164 1.441-1.164.789 0 1.375.371 1.5 1.059"/><path d="m120.355 46.711h1.786v.801h-1.786v1.457h-.96v-3.688h2.875v.801h-1.915zm0 0"/><path d="m127.23 48.969-.699-.801h-.75v.801h-.961v-3.688h1.77c1 0 1.605.571 1.605 1.426 0 .551-.254.992-.695 1.238l.934 1.024zm-.675-1.602c.398 0 .73-.262.73-.66 0-.387-.332-.629-.73-.629h-.774v1.285zm0 0"/><path d="m133.316 48.969h-2.898v-3.688h2.867v.801h-1.906v.629h1.879v.801h-1.879v.656h1.937zm0 0"/><path d="m138.766 48.969h-2.899v-3.688h2.871v.801h-1.91v.629h1.879v.801h-1.879v.656h1.942zm0 0"/><path d="m143.012 45.281c1.211 0 2.011.739 2.011 1.844s-.8 1.844-2.011 1.844h-1.696v-3.688zm-.008 2.887c.652 0 1.055-.418 1.055-1.043s-.403-1.043-1.055-1.043h-.727v2.086zm0 0"/><path d="m151.07 47.129c0 1.078-.91 1.914-2.031 1.914s-2.035-.836-2.035-1.914.91-1.918 2.035-1.918 2.031.844 2.031 1.918m-.965 0c0-.606-.472-1.078-1.066-1.078-.598 0-1.066.472-1.066 1.078 0 .609.468 1.078 1.066 1.078.594 0 1.066-.465 1.066-1.078"/><path d="m157.461 48.969h-.938v-1.75l-1.121 1.496h-.289l-1.121-1.496v1.75h-.941v-3.688h.617l1.59 2.172 1.59-2.172h.613zm0 0"/></g><path d="m160.691 22.594-.992-1.043h-.406v1.043h-.457v-2.469h.949c.535 0 .856.297.856.715.011.281-.168.539-.438.64l1.055 1.114zm-.906-1.442c.27 0 .406-.136.406-.312 0-.18-.14-.313-.406-.313h-.492v.625zm0 0" fill="#00b3e3"/><path d="m159.828 23.789c-1.308 0-2.367-1.027-2.367-2.293 0-1.269 1.059-2.301 2.367-2.301 1.305 0 2.367 1.032 2.367 2.297 0 1.27-1.062 2.297-2.367 2.297m0-4.266c-1.121 0-2.031.883-2.031 1.969 0 1.09.91 1.973 2.031 1.973s2.031-.883 2.031-1.973c0-1.086-.91-1.969-2.031-1.969zm0 0" fill="#00b3e3"/><path d="m19.359 24.031c-1.711 0-3.101 1.348-3.101 3.012s1.39 3.012 3.101 3.012c1.715 0 3.106-1.348 3.106-3.012-.004-1.66-1.391-3.008-3.106-3.012" fill="#00b3e3"/><path d="m.305 8.547 3.23 3.133c4.051-3.934 9.653-6.36 15.824-6.36 6.176 0 11.778 2.43 15.829 6.36l3.23-3.133c-4.875-4.734-11.617-7.684-19.059-7.684-7.437 0-14.179 2.95-19.054 7.684" fill="#00b3e3"/><path d="m6.129 14.199 3.23 3.137c2.563-2.488 6.11-4.027 10-4.027 3.895 0 7.442 1.539 10.004 4.027l3.231-3.137c-3.387-3.285-8.074-5.347-13.231-5.347-5.16 0-9.843 2.058-13.234 5.347" fill="#00b3e3"/><path d="m11.922 19.824 3.23 3.133c2.325-2.254 6.094-2.254 8.418 0l3.231-3.133c-1.973-1.914-4.649-2.988-7.442-2.98-2.879 0-5.507 1.136-7.437 2.98" fill="#00b3e3"/><path d="m30.82 18.965c1.707 2.273 2.723 5.066 2.723 8.078 0 7.59-6.363 13.766-14.184 13.766-7.816 0-14.179-6.176-14.179-13.766 0-3.012 1.015-5.805 2.722-8.078l-3.257-3.168c-2.536 3.105-4.024 7.008-4.024 11.246 0 10.02 8.422 18.191 18.738 18.191 10.321 0 18.743-8.171 18.743-18.191 0-4.238-1.52-8.141-4.02-11.246zm0 0" fill="#002b49"/></svg>