<svg height="600" viewBox="0 0 1800 600" width="1800" xmlns="http://www.w3.org/2000/svg" xmlns:xlink="http://www.w3.org/1999/xlink"><defs><path id="a" d="m317.381 90.57c3.881 14.561-44.402 40.955-108.633 58.07-64.237 17.115-120.101 18.475-123.984 3.908-2.308-8.66 11.662-20.09 38.854-32.477.07.305.375.545.455.855-22.012 10.643-35.208 20.938-33.227 28.373 3.581 13.436 62.026 7.857 121.301-7.934 59.271-15.795 101.627-38.005 98.047-51.444-2.971-11.143-25.408-13.121-71.264-3.992-.055-.139-.172-.386-.23-.518 50.917-10.421 75.411-7.122 78.681 5.159"/><clipPath id="b"><use height="234.46" width="345.31" xlink:href="#a"/></clipPath></defs><g transform="matrix(5.40574 0 0 5.40574 41.57 -353.4)"><g><path d="m12.515 92.669c3.693 0 6.754 1.337 9.182 4.011 2.207 2.438 3.311 5.324 3.311 8.659 0 3.349-1.167 6.275-3.499 8.78-2.333 2.505-5.331 3.757-8.995 3.757-3.679 0-6.685-1.252-9.017-3.757-2.331-2.505-3.497-5.431-3.497-8.78 0-3.319 1.104-6.199 3.311-8.638 2.428-2.687 5.496-4.032 9.204-4.032zm-.011 3.019c-2.565 0-4.769.947-6.611 2.843-1.843 1.895-2.764 4.187-2.764 6.874 0 1.733.42 3.35 1.26 4.848s1.975 2.655 3.405 3.471c1.43.815 3 1.223 4.709 1.223s3.28-.407 4.71-1.223c1.43-.815 2.565-1.973 3.405-3.471s1.26-3.114 1.26-4.848c0-2.688-.925-4.979-2.775-6.874-1.849-1.896-4.049-2.843-6.599-2.843z" fill="#4667a9"/><path d="m29.406 93.286h3.084v4.406c1.218-1.674 2.619-2.93 4.205-3.768 1.584-.837 3.353-1.256 5.305-1.256 3.404 0 6.317 1.227 8.738 3.68s3.632 5.406 3.632 8.857c0 3.525-1.2 6.519-3.599 8.979s-5.293 3.69-8.683 3.69c-1.908 0-3.661-.396-5.261-1.19-1.6-.793-3.045-1.975-4.336-3.547v12.89h-3.084v-32.741zm12.339 2.358c-2.667 0-4.913.933-6.738 2.795-1.825 1.864-2.737 4.183-2.737 6.955 0 1.819.407 3.456 1.22 4.908s1.978 2.604 3.495 3.455 3.118 1.276 4.803 1.276c1.656 0 3.213-.429 4.671-1.287s2.619-2.058 3.484-3.599c.864-1.54 1.297-3.154 1.297-4.842 0-1.702-.429-3.315-1.287-4.842-.857-1.525-2.011-2.711-3.462-3.555s-3.032-1.264-4.746-1.264z" fill="#4667a9"/><path d="m78.972 109.305 2.6 1.366c-.853 1.675-1.838 3.026-2.956 4.054-1.117 1.028-2.375 1.811-3.771 2.347-1.397.536-2.978.805-4.742.805-3.911 0-6.969-1.281-9.174-3.845s-3.308-5.461-3.308-8.692c0-3.041.933-5.751 2.801-8.131 2.367-3.025 5.535-4.539 9.505-4.539 4.087 0 7.351 1.55 9.792 4.649 1.735 2.188 2.617 4.921 2.646 8.196h-21.571c.059 2.785.948 5.067 2.669 6.848s3.846 2.671 6.376 2.671c1.22 0 2.408-.212 3.563-.637 1.154-.424 2.136-.987 2.945-1.689s1.683-1.838 2.625-3.403zm0-6.456c-.412-1.645-1.011-2.96-1.798-3.944-.787-.983-1.827-1.776-3.122-2.379s-2.654-.903-4.081-.903c-2.353 0-4.375.757-6.066 2.27-1.236 1.102-2.17 2.754-2.802 4.957h17.869z" fill="#4667a9"/><path d="m86.762 93.286h3.084v4.297c1.234-1.646 2.6-2.876 4.098-3.691 1.499-.814 3.129-1.223 4.892-1.223 1.792 0 3.382.456 4.77 1.366 1.389.911 2.413 2.138 3.074 3.68s.991 3.944.991 7.205v12.339h-3.085v-11.436c0-2.762-.114-4.605-.343-5.53-.357-1.587-1.043-2.78-2.057-3.581-1.014-.8-2.336-1.2-3.967-1.2-1.866 0-3.537.617-5.014 1.851s-2.45 2.762-2.919 4.583c-.294 1.189-.441 3.364-.441 6.522v8.791h-3.084v-23.973z" fill="#4667a9"/><g fill="#59595b"><path d="m113.997 83.415c.702 0 1.302.25 1.799.749.497.5.746 1.102.746 1.807 0 .69-.249 1.286-.746 1.785s-1.097.749-1.799.749c-.688 0-1.28-.25-1.777-.749s-.745-1.095-.745-1.785c0-.705.248-1.307.745-1.807.497-.499 1.09-.749 1.777-.749zm-1.531 9.871h3.085v23.973h-3.085z"/><path d="m120.609 93.286h3.085v4.297c1.233-1.646 2.6-2.876 4.098-3.691 1.498-.814 3.129-1.223 4.892-1.223 1.792 0 3.382.456 4.771 1.366 1.388.911 2.412 2.138 3.073 3.68s.992 3.944.992 7.205v12.339h-3.085v-11.436c0-2.762-.115-4.605-.344-5.53-.357-1.587-1.043-2.78-2.057-3.581-1.014-.8-2.336-1.2-3.966-1.2-1.866 0-3.538.617-5.014 1.851-1.477 1.234-2.45 2.762-2.92 4.583-.294 1.189-.44 3.364-.44 6.522v8.791h-3.085z"/><path d="m170.705 84.032v33.227h-3.041v-4.12c-1.293 1.572-2.743 2.754-4.352 3.547-1.608.794-3.368 1.19-5.277 1.19-3.393 0-6.29-1.23-8.692-3.69-2.401-2.461-3.603-5.454-3.603-8.979 0-3.451 1.212-6.404 3.636-8.857s5.34-3.68 8.747-3.68c1.969 0 3.75.419 5.344 1.256 1.594.838 2.992 2.094 4.197 3.768v-13.66h3.041zm-12.328 11.612c-1.717 0-3.302.422-4.754 1.266-1.453.844-2.608 2.029-3.467 3.555-.858 1.526-1.287 3.14-1.287 4.842 0 1.688.433 3.302 1.299 4.842.865 1.541 2.028 2.74 3.488 3.599 1.459.858 3.025 1.287 4.698 1.287 1.688 0 3.287-.426 4.798-1.276 1.512-.852 2.674-2.003 3.488-3.455s1.222-3.089 1.222-4.908c0-2.772-.913-5.091-2.74-6.955-1.826-1.865-4.075-2.797-6.745-2.797z"/><path d="m177.403 83.415c.702 0 1.302.25 1.799.749.497.5.746 1.102.746 1.807 0 .69-.249 1.286-.746 1.785s-1.097.749-1.799.749c-.688 0-1.28-.25-1.777-.749s-.745-1.095-.745-1.785c0-.705.248-1.307.745-1.807.497-.499 1.09-.749 1.777-.749zm-1.531 9.871h3.085v23.973h-3.085z"/><path d="m207.9 93.286v23.973h-3.041v-4.12c-1.293 1.572-2.743 2.754-4.352 3.547-1.608.794-3.368 1.19-5.277 1.19-3.394 0-6.291-1.23-8.692-3.69-2.401-2.461-3.603-5.454-3.603-8.979 0-3.451 1.212-6.404 3.636-8.857s5.34-3.68 8.747-3.68c1.969 0 3.749.419 5.344 1.256 1.594.838 2.992 2.094 4.197 3.768v-4.406h3.041zm-12.328 2.358c-1.717 0-3.302.422-4.754 1.266-1.453.844-2.608 2.029-3.467 3.555-.858 1.526-1.287 3.14-1.287 4.842 0 1.688.433 3.302 1.298 4.842.866 1.541 2.029 2.74 3.488 3.599 1.46.858 3.026 1.287 4.699 1.287 1.688 0 3.287-.426 4.798-1.276 1.512-.852 2.674-2.003 3.488-3.455s1.222-3.089 1.222-4.908c0-2.772-.913-5.091-2.74-6.955-1.826-1.865-4.075-2.797-6.745-2.797z"/><path d="m213.487 93.286h3.085v4.297c1.233-1.646 2.6-2.876 4.098-3.691 1.498-.814 3.129-1.223 4.892-1.223 1.792 0 3.382.456 4.771 1.366 1.388.911 2.412 2.138 3.073 3.68s.992 3.944.992 7.205v12.339h-3.085v-11.436c0-2.762-.115-4.605-.344-5.53-.357-1.587-1.043-2.78-2.057-3.581-1.014-.8-2.336-1.2-3.966-1.2-1.866 0-3.538.617-5.014 1.851-1.477 1.234-2.45 2.762-2.92 4.583-.294 1.189-.44 3.364-.44 6.522v8.791h-3.085z"/><path d="m263.539 93.286v23.973h-3.041v-4.12c-1.293 1.572-2.743 2.754-4.352 3.547-1.608.794-3.368 1.19-5.277 1.19-3.394 0-6.291-1.23-8.692-3.69-2.401-2.461-3.603-5.454-3.603-8.979 0-3.451 1.212-6.404 3.636-8.857s5.34-3.68 8.747-3.68c1.969 0 3.749.419 5.344 1.256 1.594.838 2.992 2.094 4.197 3.768v-4.406h3.041zm-12.328 2.358c-1.717 0-3.302.422-4.754 1.266-1.453.844-2.608 2.029-3.467 3.555-.858 1.526-1.287 3.14-1.287 4.842 0 1.688.433 3.302 1.298 4.842.866 1.541 2.029 2.74 3.488 3.599 1.46.858 3.026 1.287 4.699 1.287 1.688 0 3.287-.426 4.798-1.276 1.512-.852 2.674-2.003 3.488-3.455s1.222-3.089 1.222-4.908c0-2.772-.913-5.091-2.74-6.955-1.826-1.865-4.075-2.797-6.745-2.797z"/></g></g><g><use fill="#656668" height="234.46" width="345.31" xlink:href="#a"/><g clip-path="url(#b)"><path d="m133.81 234.462 211.503-126.533-58.805-102.176-211.499 126.535z" fill="none"/></g></g></g></svg>