<?xml version="1.0" encoding="UTF-8"?>
<svg viewBox="0 0 128 128" xmlns="http://www.w3.org/2000/svg">
 <defs>
  <radialGradient id="c" cx="366.62" cy="455.87" r="217" gradientTransform="matrix(1 0 0 .05023 0 432.97)" gradientUnits="userSpaceOnUse">
   <stop stop-color="#2e3436" offset="0"/>
   <stop stop-color="#2e3436" stop-opacity="0" offset="1"/>
  </radialGradient>
  <radialGradient id="b" cx="26.142" cy="967.47" r="83.382" gradientUnits="userSpaceOnUse">
   <stop stop-color="#555" offset="0"/>
   <stop stop-color="#323232" offset="1"/>
  </radialGradient>
  <radialGradient id="a" cx="258.54" cy="319.49" r="72.666" fx="242" fy="307.75" gradientTransform="matrix(2.9531 -1.4509e-7 1.4509e-7 2.9531 -734.04 21.855)" gradientUnits="userSpaceOnUse">
   <stop stop-color="#fefeff" offset="0"/>
   <stop stop-color="#f5f5f5" offset=".21288"/>
   <stop stop-color="#d2d2d2" offset=".60671"/>
   <stop stop-color="#6d6d6d" offset="1"/>
  </radialGradient>
 </defs>
 <g transform="translate(0 -924.36)">
  <path transform="matrix(.2944 0 0 .2944 -43.804 883.56)" d="m583.61 455.87a217 10.899 0 1 1 -433.99 0 217 10.899 0 1 1 433.99 0z" fill="url(#c)" fill-rule="evenodd" opacity=".52915"/>
  <path d="m18.466 954.62h91.322c4.5993 0 8.302 3.7027 8.302 8.302v46.393c0 4.5993-3.7027 8.302-8.302 8.302h-91.322c-4.5993 0-8.302-3.7027-8.302-8.302v-46.393c0-4.5993 3.7027-8.302 8.302-8.302z" fill="url(#a)" fill-rule="evenodd" stroke="#3e3e3e" stroke-opacity=".44624" stroke-width="1.0455"/>
  <path d="m30.257 966.94c-2.2933 4e-5 -4.1209 0.45479-5.489 1.3505s-2.4149 2.174-3.1474 3.8444-1.2166 3.6842-1.4376 6.0444-0.32672 5.0006-0.32672 7.9285 0.10574 5.5798 0.32672 7.9394 0.70505 4.3734 1.4376 6.0444 1.7794 2.9487 3.1474 3.8444 3.1956 1.3505 5.489 1.3505c2.4603 0 4.3875-0.524 5.783-1.5574s2.4375-2.4248 3.1148-4.1821 1.0976-3.7957 1.2633-6.1206 0.25047-4.7692 0.25049-7.3186-0.08477-4.9822-0.25049-7.3077-0.58606-4.3639-1.2633-6.1206-1.7193-3.1486-3.1148-4.1821-3.3227-1.5573-5.783-1.5574zm14.06 0.72968v36.887h6.9701v-14.408h3.0712c1.7408 2e-5 3.2084-0.27627 4.4108-0.8277s2.1806-1.3319 2.9405-2.3306 1.3126-2.183 1.6445-3.5613 0.49006-2.8986 0.49008-4.5523c-2.1e-5 -1.1364-0.10535-2.3657-0.32672-3.692s-0.6496-2.5461-1.2851-3.6484-1.5321-2.0147-2.6791-2.7554-2.6308-1.1108-4.4543-1.1109h-10.782zm23.078 0v36.887h17.578v-7.0246h-10.608v-8.4186h9.5294v-7.0354h-9.5294v-7.3839h10.15v-7.0246h-17.12zm20.736 0v36.887h6.2186v-25.419h0.07623l6.0988 25.419h7.874v-36.887h-6.4691v23.971h-0.0762l-5.7286-23.971h-7.9938zm-57.917 5.0642c0.69076 3e-5 1.2596 0.21652 1.6881 0.66434s0.75615 1.1883 0.99106 2.2217 0.38824 2.416 0.45741 4.1385 0.098 3.8346 0.09802 6.3493c-1.8e-5 2.5494-0.02886 4.6768-0.09802 6.382s-0.22253 3.0833-0.45741 4.1167-0.56261 1.7739-0.99106 2.2217-0.99731 0.66434-1.6881 0.66434-1.2409-0.21648-1.6554-0.66434-0.72653-1.1883-0.9475-2.2217-0.36647-2.4115-0.43563-4.1167-0.10892-3.8326-0.10891-6.382c-1e-5 -2.5147 0.03974-4.6267 0.10891-6.3493s0.21464-3.105 0.43563-4.1385 0.53294-1.7738 0.9475-2.2217 0.96376-0.66431 1.6554-0.66434zm21.074 1.3396h1.7861c0.69076 4e-5 1.2618 0.13401 1.7316 0.39207s0.83722 0.60859 1.1 1.0564 0.45582 0.96537 0.56632 1.5683 0.16335 1.2697 0.16336 1.993c-1.4e-5 0.62029-0.04502 1.2174-0.14158 1.7861s-0.28182 1.0571-0.54454 1.4703-0.61403 0.75477-1.0564 1.0128-1.0082 0.38119-1.699 0.38118h-1.9059v-9.6601z" fill="url(#b)"/>
  <path d="m18.462 958.41c-2.5564 0-4.4979 1.9464-4.4979 4.5088v46.384c0 2.5624 1.9415 4.5087 4.4979 4.5087h91.33c2.5564 0 4.4979-1.9463 4.4979-4.5087v-46.384c0-2.5624-1.9415-4.5088-4.4979-4.5088h-91.33z" fill="none" stroke="#555" stroke-width="1.0455"/>
 </g>
</svg>
