<svg height="167.858" width="209.104" xmlns="http://www.w3.org/2000/svg" xmlns:xlink="http://www.w3.org/1999/xlink"><g fill="#00bce4"><path id="a" d="m74.145 145.897c-.568.568-.841 1.228-.841 2.03v.339h5.744v-.339c0-1.601-1.273-2.87-2.872-2.872-.804.001-1.463.275-2.031.842zm-.841 8.365c0 .876.729 1.605 1.605 1.605h6.334c1.357 0 2.195.838 2.195 2.194 0 1.357-.838 2.195-2.195 2.195h-6.334c-1.657 0-3.101-.58-4.265-1.73-1.15-1.163-1.731-2.607-1.731-4.265v-6.334c0-4.041 3.221-7.261 7.262-7.263 2.019 0 3.752.705 5.148 2.115 1.41 1.396 2.114 3.13 2.114 5.147v4.729h-10.133z"/><path d="m99.738 140.665c1.662 0 3.094.584 4.246 1.75 1.166 1.153 1.749 2.584 1.75 4.246v11.4c0 1.357-.838 2.195-2.195 2.195s-2.195-.838-2.195-2.195v-11.4c0-.922-.684-1.604-1.605-1.605h-1.604v13.006c0 1.357-.838 2.195-2.195 2.195s-2.195-.838-2.195-2.195v-13.006h-3.21v13.006c0 1.357-.838 2.195-2.195 2.195s-2.195-.838-2.195-2.195v-15.202c0-1.357.838-2.195 2.195-2.195z"/><use transform="matrix(-1 0 0 1 266.202 0)" xlink:href="#b"/><use transform="translate(56.752)" xlink:href="#a"/><path id="b" d="m142.894 154.262c0 3.37 2.625 5.995 5.995 5.995h6.334c1.356 0 2.194-.838 2.194-2.195v-22.802c0-1.356-.838-2.195-2.194-2.195-1.357 0-2.195.839-2.195 2.195v5.405h-4.139c-3.472 0-5.993 2.658-5.995 5.995zm10.134 1.606h-4.139c-.903 0-1.604-.701-1.604-1.605v-7.601c0-.927.678-1.604 1.605-1.605h4.138z"/><use transform="translate(17.229)" xlink:href="#b"/><use transform="translate(108.4365)" xlink:href="#a"/><use transform="translate(51.6855)" xlink:href="#b"/></g><g fill="#5c6f7b"><use transform="matrix(-1 0 0 -1 174.6455 300.9225)" xlink:href="#b"/><use transform="translate(-34.4565)" xlink:href="#a"/><path d="m51.685 142.86c0-1.357.838-2.195 2.195-2.195h6.334c1.662 0 3.094.584 4.246 1.75 1.167 1.153 1.749 2.584 1.75 4.246v11.4c0 1.357-.838 2.195-2.195 2.195s-2.195-.838-2.195-2.195v-11.4c0-.922-.684-1.604-1.605-1.605h-4.138v13.006c0 1.357-.838 2.195-2.195 2.195s-2.195-.838-2.195-2.195v-15.202z"/><path d="m10.134 147.928c0-1.601-1.273-2.87-2.872-2.872-1.599 0-2.872 1.273-2.872 2.872v5.067c0 .824.267 1.485.822 2.049.564.555 1.226.823 2.05.823 1.601 0 2.871-1.273 2.872-2.873zm-10.134 0c0-4.041 3.22-7.261 7.262-7.263 2.019 0 3.752.705 5.148 2.115 1.411 1.396 2.114 3.13 2.114 5.147v5.067c0 4.041-3.222 7.262-7.262 7.262-1.997 0-3.732-.713-5.147-2.114-1.402-1.415-2.115-3.151-2.115-5.147z"/></g><path d="m25.428 79.124c0-43.7 35.425-79.124 79.124-79.124s79.123 35.424 79.123 79.124c0 14.938-4.139 28.909-11.333 40.828h-26.366c10.352-10.5 16.738-24.918 16.738-40.828 0-32.123-26.039-58.163-58.162-58.163s-58.163 26.04-58.163 58.163c0 15.91 6.388 30.328 16.738 40.828h-26.366c-7.193-11.92-11.333-25.89-11.333-40.828z" fill="#5c6f7b"/><path d="m94.122 79.124c0-2.882 1.168-5.491 3.059-7.379l17.436-17.494c-9.682-3.913-21.184-1.944-29.033 5.905-10.476 10.476-10.476 27.461 0 37.937 10.476 10.477 27.461 10.477 37.938 0 4.547-4.547 7.12-10.321 7.721-16.256l18.46-18.461c5.838 16.774 2.056 36.151-11.345 49.553-18.67 18.67-48.939 18.67-67.609 0s-18.67-48.938 0-67.608c18.669-18.67 48.939-18.67 67.609 0 2.535 2.536 4.728 5.287 6.574 8.193l-32.986 32.997c-1.888 1.89-4.511 3.045-7.393 3.045-5.762-.002-10.431-4.672-10.431-10.432z" fill="#00bce4"/></svg>