<svg height="452" viewBox="0 0 1718 452" width="1718" xmlns="http://www.w3.org/2000/svg"><path d="m68.223 73.544c19.963 0 36.51 7.228 49.635 21.683 11.931 13.179 17.899 28.78 17.899 46.808 0 18.104-6.309 33.921-18.915 47.463-12.612 13.541-28.818 20.309-48.625 20.309-19.887 0-36.137-6.768-48.743-20.309-12.601-13.542-18.904-29.359-18.904-47.463 0-17.941 5.968-33.51 17.898-46.695 13.126-14.525 29.71-21.796 49.755-21.796zm-.06 16.32c-13.865 0-25.78 5.12-35.737 15.369-9.963 10.244-14.941 22.634-14.941 37.159 0 9.368 2.27 18.109 6.811 26.207s10.676 14.352 18.406 18.763c7.731 4.406 16.218 6.612 25.456 6.612s17.731-2.201 25.461-6.612c7.73-4.405 13.866-10.665 18.407-18.763 4.54-8.098 6.811-16.833 6.811-26.207 0-14.531-5.001-26.915-15.001-37.159-9.995-10.249-21.888-15.369-35.673-15.369z" fill="#4667a9"/><path d="m159.531 76.88h16.671v23.818c6.585-9.05 14.158-15.839 22.732-20.369 8.562-4.525 18.125-6.79 28.677-6.79 18.401 0 34.148 6.633 47.235 19.893 13.088 13.261 19.634 29.224 19.634 47.879 0 19.055-6.487 35.24-19.455 48.538-12.969 13.298-28.613 19.947-46.938 19.947-10.314 0-19.791-2.14-28.44-6.433-8.649-4.286-16.46-10.676-23.439-19.174v69.68h-16.671v-176.989zm66.702 12.747c-14.418 0-26.559 5.043-36.424 15.109-9.866 10.076-14.796 22.612-14.796 37.597 0 9.833 2.2 18.682 6.595 26.531s10.693 14.076 18.893 18.677c8.201 4.6 16.855 6.898 25.964 6.898 8.952 0 17.369-2.32 25.25-6.958 7.882-4.638 14.158-11.125 18.834-19.455 4.67-8.325 7.011-17.05 7.011-26.175 0-9.2-2.319-17.92-6.957-26.174-4.633-8.244-10.871-14.655-18.715-19.218-7.843-4.562-16.39-6.832-25.655-6.832z" fill="#4667a9"/><path d="m427.472 163.474 14.055 7.385c-4.611 9.054-9.936 16.357-15.979 21.914-6.039 5.558-12.839 9.79-20.385 12.688-7.552 2.897-16.099 4.351-25.634 4.351-21.142 0-37.673-6.924-49.593-20.785-11.919-13.86-17.882-29.52-17.882-46.986 0-16.439 5.044-31.089 15.142-43.954 12.795-16.353 29.92-24.537 51.381-24.537 22.093 0 39.738 8.379 52.933 25.131 9.379 11.828 14.147 26.602 14.304 44.306h-116.607c.318 15.055 5.124 27.391 14.427 37.018 9.304 9.628 20.791 14.439 34.467 14.439 6.595 0 13.017-1.146 19.261-3.444 6.238-2.292 11.547-5.335 15.92-9.13s9.098-9.936 14.19-18.396zm0-34.899c-2.227-8.893-5.465-16.001-9.719-21.32-4.255-5.314-9.877-9.601-16.877-12.861-7.001-3.259-14.347-4.881-22.061-4.881-12.72 0-23.65 4.092-32.791 12.271-6.682 5.957-11.731 14.888-15.147 26.796h96.595z" fill="#4667a9"/><path d="m469.583 76.88h16.671v23.228c6.671-8.898 14.055-15.547 22.153-19.952 8.103-4.401 16.914-6.611 26.445-6.611 9.687 0 18.282 2.465 25.785 7.384 7.509 4.924 13.044 11.557 16.617 19.893 3.574 8.336 5.357 21.32 5.357 38.948v66.702h-16.676v-61.82c0-14.931-.617-24.894-1.854-29.894-1.93-8.579-5.639-15.028-11.12-19.358-5.481-4.325-12.628-6.487-21.445-6.487-10.087 0-19.12 3.335-27.104 10.006s-13.244 14.931-15.779 24.775c-1.59 6.427-2.384 18.184-2.384 35.256v47.522h-16.672v-129.592z" fill="#4667a9"/><g fill="#59595b"><path d="m616.808 23.52c3.795 0 7.038 1.351 9.725 4.049 2.687 2.703 4.033 5.957 4.033 9.768 0 3.73-1.346 6.952-4.033 9.649-2.687 2.698-5.93 4.049-9.725 4.049-3.719 0-6.919-1.351-9.606-4.049-2.687-2.697-4.027-5.919-4.027-9.649 0-3.811 1.34-7.065 4.027-9.768 2.687-2.698 5.892-4.049 9.606-4.049zm-8.276 53.36h16.677v129.592h-16.677z"/><path d="m652.551 76.88h16.677v23.228c6.665-8.898 14.054-15.547 22.152-19.952 8.098-4.401 16.915-6.611 26.445-6.611 9.687 0 18.282 2.465 25.791 7.384 7.503 4.924 13.039 11.557 16.612 19.893s5.362 21.32 5.362 38.948v66.702h-16.676v-61.82c0-14.931-.622-24.894-1.86-29.894-1.93-8.579-5.638-15.028-11.12-19.358-5.481-4.325-12.627-6.487-21.439-6.487-10.087 0-19.125 3.335-27.104 10.006-7.984 6.671-13.244 14.931-15.785 24.775-1.589 6.427-2.378 18.184-2.378 35.256v47.522h-16.677z"/><path d="m923.357 26.855v179.617h-16.439v-22.272c-6.99 8.498-14.828 14.887-23.526 19.174-8.692 4.292-18.206 6.433-28.526 6.433-18.342 0-34.002-6.649-46.987-19.947-12.979-13.304-19.476-29.483-19.476-48.538 0-18.656 6.551-34.619 19.655-47.879 13.103-13.26 28.866-19.893 47.284-19.893 10.644 0 20.271 2.265 28.888 6.789 8.617 4.531 16.174 11.32 22.688 20.369v-73.842h16.439zm-66.642 62.772c-9.282 0-17.85 2.281-25.699 6.843-7.855 4.563-14.098 10.968-18.742 19.218-4.638 8.249-6.957 16.974-6.957 26.174 0 9.125 2.341 17.85 7.022 26.175 4.676 8.33 10.963 14.812 18.855 19.455 7.887 4.638 16.353 6.957 25.397 6.957 9.124 0 17.768-2.303 25.936-6.897 8.174-4.606 14.455-10.828 18.855-18.677 4.401-7.849 6.606-16.699 6.606-26.532 0-14.984-4.935-27.52-14.811-37.597-9.871-10.081-22.029-15.119-36.462-15.119z"/><path d="m959.564 23.52c3.795 0 7.039 1.351 9.725 4.049 2.687 2.703 4.033 5.957 4.033 9.768 0 3.73-1.346 6.952-4.033 9.649-2.686 2.698-5.93 4.049-9.725 4.049-3.719 0-6.919-1.351-9.606-4.049-2.686-2.697-4.027-5.919-4.027-9.649 0-3.811 1.341-7.065 4.027-9.768 2.687-2.698 5.893-4.049 9.606-4.049zm-8.276 53.36h16.677v129.592h-16.677z"/><path d="m1124.423 76.88v129.592h-16.439v-22.272c-6.989 8.498-14.828 14.887-23.525 19.174-8.693 4.292-18.207 6.433-28.527 6.433-18.347 0-34.007-6.649-46.986-19.947-12.979-13.304-19.477-29.483-19.477-48.538 0-18.655 6.552-34.619 19.655-47.879 13.104-13.26 28.867-19.893 47.284-19.893 10.644 0 20.266 2.265 28.889 6.79 8.616 4.53 16.173 11.319 22.687 20.368v-23.817h16.439zm-66.642 12.747c-9.281 0-17.849 2.281-25.699 6.843-7.854 4.563-14.098 10.969-18.741 19.218-4.638 8.249-6.957 16.974-6.957 26.174 0 9.125 2.34 17.85 7.016 26.175 4.682 8.33 10.968 14.812 18.855 19.455 7.893 4.638 16.358 6.957 25.402 6.957 9.125 0 17.769-2.303 25.937-6.897 8.173-4.606 14.455-10.828 18.855-18.677s6.606-16.699 6.606-26.532c0-14.984-4.936-27.52-14.812-37.597-9.871-10.081-22.028-15.119-36.462-15.119z"/><path d="m1154.625 76.88h16.677v23.228c6.665-8.898 14.055-15.547 22.153-19.952 8.097-4.401 16.914-6.611 26.444-6.611 9.688 0 18.283 2.465 25.791 7.384 7.503 4.924 13.039 11.557 16.612 19.893s5.363 21.32 5.363 38.948v66.702h-16.677v-61.82c0-14.931-.622-24.894-1.86-29.894-1.93-8.579-5.638-15.028-11.119-19.358-5.482-4.325-12.628-6.487-21.439-6.487-10.088 0-19.126 3.335-27.105 10.006-7.984 6.671-13.244 14.931-15.785 24.775-1.589 6.427-2.378 18.184-2.378 35.256v47.522h-16.677z"/><path d="m1425.193 76.88v129.592h-16.438v-22.272c-6.99 8.498-14.828 14.887-23.526 19.174-8.693 4.292-18.207 6.433-28.526 6.433-18.348 0-34.008-6.649-46.987-19.947-12.979-13.304-19.477-29.483-19.477-48.538 0-18.655 6.552-34.619 19.655-47.879 13.104-13.26 28.867-19.893 47.284-19.893 10.644 0 20.266 2.265 28.889 6.79 8.616 4.53 16.173 11.319 22.687 20.368v-23.817h16.439zm-66.642 12.747c-9.281 0-17.849 2.281-25.699 6.843-7.854 4.563-14.098 10.969-18.741 19.218-4.638 8.249-6.957 16.974-6.957 26.174 0 9.125 2.34 17.85 7.016 26.175 4.682 8.33 10.968 14.812 18.855 19.455 7.893 4.638 16.358 6.957 25.402 6.957 9.125 0 17.769-2.303 25.937-6.897 8.173-4.606 14.455-10.828 18.855-18.677s6.606-16.699 6.606-26.532c0-14.984-4.936-27.52-14.812-37.597-9.871-10.081-22.028-15.119-36.462-15.119z"/></g><path d="m1716.249 62.198c20.98 78.713-240.025 221.392-587.242 313.911-347.248 92.519-649.234 99.871-670.225 21.126-12.476-46.814 63.042-108.602 210.035-175.562.378 1.648 2.027 2.946 2.459 4.621-118.991 57.534-190.325 113.186-179.616 153.378 19.358 72.631 335.296 42.472 655.721-42.89 320.404-85.383 549.37-205.445 530.017-278.092-16.06-60.237-137.349-70.929-385.235-21.58-.297-.752-.929-2.087-1.243-2.8 275.244-56.334 407.653-38.5 425.329 27.888" fill="#656668"/><path d="m723.912 840.041 1143.33-684.005-317.884-552.337-1143.309 684.016z" fill="none"/></svg>