<svg height="74.001" viewBox="0 0 394.71 74.001" width="394.71" xmlns="http://www.w3.org/2000/svg"><g fill="#040404" transform="translate(-1.07 .001452)"><path d="m211.27 41.55a13 13 0 0 1 -5.07 10.81c-3.36 2.78-7.82 4-13.38 4-6.7 0-11.83-.74-15.44-2.21v-3.75a40.47 40.47 0 0 0 15.12 2.54c4.47 0 8.08-1.06 10.7-3.18a9.79 9.79 0 0 0 4-8.11 8.84 8.84 0 0 0 -1.37-5.16 11.72 11.72 0 0 0 -4.2-3.72 55 55 0 0 0 -8.75-3.65c-5.58-1.9-9.5-4-11.61-6.26a12.48 12.48 0 0 1 -3.19-8.86 12.18 12.18 0 0 1 4.81-10.07q4.83-3.93 12.44-3.93a35.5 35.5 0 0 1 14.47 2.94l-1.41 3.3a33.14 33.14 0 0 0 -13-2.88c-4.06 0-7.32.93-9.72 2.86a9.11 9.11 0 0 0 -3.56 7.62 10 10 0 0 0 1.1 5 9.76 9.76 0 0 0 3.59 3.51 47.64 47.64 0 0 0 8.63 3.78 47.32 47.32 0 0 1 9.62 4.27 14.13 14.13 0 0 1 4.74 4.76 12.34 12.34 0 0 1 1.48 6.41"/><path d="m234 56.39c-5.93 0-10.59-1.83-13.91-5.49s-4.92-8.72-4.92-15.33 1.57-11.68 4.79-15.64a15.83 15.83 0 0 1 13.04-5.88 14.13 14.13 0 0 1 11.38 5.07c2.72 3.34 4.13 7.91 4.13 13.65v3h-29.46c0 5.64 1.4 9.91 4 12.86s6.21 4.37 10.95 4.37a33.2 33.2 0 0 0 6.13-.45 41.59 41.59 0 0 0 6.73-2.14v3.39a28 28 0 0 1 -6.46 2.11 34.5 34.5 0 0 1 -6.4.48m-1.09-39a12.25 12.25 0 0 0 -9.5 3.91c-2.32 2.62-3.74 6.34-4.12 11.19h25.19c0-4.69-1-8.38-3.07-11.08a10.18 10.18 0 0 0 -8.5-4"/><path d="m271.22 14.05a13.75 13.75 0 0 1 3.68.31l1.1 3.83a19.88 19.88 0 0 0 -5.29-.67 10.3 10.3 0 0 0 -8.58 4.42 18.09 18.09 0 0 0 -3.36 11.2v22.51h-3.67v-40.77h3.2l.39 7.36h.21a17.76 17.76 0 0 1 5.38-6.37 12.93 12.93 0 0 1 6.94-1.82"/><path d="m294 55.65-15.77-40.77h3.77l10.6 27.77a77 77 0 0 1 3.14 9.27h.26c1.05-3.37 2.1-6.57 3.19-9.4l10.5-27.64h3.86l-15.8 40.77z"/><path d="m333.76 56.39q-8.91 0-13.89-5.49c-3.32-3.64-5-8.72-5-15.33s1.62-11.68 4.83-15.64a15.83 15.83 0 0 1 12.94-5.88 14.11 14.11 0 0 1 11.39 5.07c2.75 3.34 4.15 7.91 4.15 13.65v3h-29.39c0 5.64 1.38 9.91 4 12.86s6.21 4.37 10.97 4.37a32.77 32.77 0 0 0 6.11-.45 38.4 38.4 0 0 0 6.72-2.14v3.39a28.55 28.55 0 0 1 -6.4 2.11 34.76 34.76 0 0 1 -6.43.48m-1.1-39a12.2 12.2 0 0 0 -9.47 3.91c-2.37 2.62-3.75 6.34-4.14 11.19h25.19c0-4.69-1-8.38-3.05-11.08a10.34 10.34 0 0 0 -8.53-4"/><path d="m372.47 14.05a31 31 0 0 1 5.56.53l-.72 3.61a19.65 19.65 0 0 0 -5.28-.67 10.3 10.3 0 0 0 -8.58 4.42 18.2 18.2 0 0 0 -3.32 11.2v22.51h-3.73v-40.77h3.17l.37 7.36h.27a17.23 17.23 0 0 1 5.34-6.37 13.05 13.05 0 0 1 6.92-1.82"/><path d="m74.84 56.41a16.91 16.91 0 0 1 -7.31-1.47 12.4 12.4 0 0 1 -5.53-4.48h-.4c.25 2.45.41 4.69.41 6.71v16.83h-6.13v-59h5l.88 5.62h.24a15 15 0 0 1 5.54-4.88 17.41 17.41 0 0 1 7.29-1.48c5.37 0 9.57 1.84 12.49 5.53s4.39 8.92 4.39 15.57-1.51 11.85-4.49 15.55-7.11 5.54-12.39 5.54m-.91-36.92c-4.19 0-7.17 1.14-9 3.46s-2.83 6-2.9 11v1.41c0 5.71.94 9.82 2.9 12.24s5 3.69 9.18 3.69a9.7 9.7 0 0 0 8.27-4.19c2-2.89 3-6.8 3-11.85s-1-8.92-3-11.66a9.83 9.83 0 0 0 -8.43-4.06"/><path d="m115.59 56.41q-9 0-14.23-5.5c-3.49-3.65-5.23-8.71-5.23-15.22s1.6-11.78 4.86-15.64a16.08 16.08 0 0 1 13-5.83c5.08 0 9.11 1.67 12.12 5.08s4.46 7.76 4.46 13.27v3.89h-28.06c.14 4.78 1.33 8.43 3.64 10.91s5.52 3.74 9.68 3.74a33 33 0 0 0 13-2.82v5.5a28.77 28.77 0 0 1 -6.18 2.1 37.15 37.15 0 0 1 -7.06.52m-1.67-37a9.89 9.89 0 0 0 -7.79 3.24c-2 2.09-3.11 5-3.46 8.84h21.33c0-3.88-.9-6.89-2.61-9a9.27 9.27 0 0 0 -7.46-3.11"/><path d="m166 55.67v-26.32c0-3.33-.74-5.78-2.25-7.43s-3.93-2.43-7.13-2.43c-4.25 0-7.4 1.14-9.36 3.46s-3 6.11-3 11.4v21.32h-6.19v-40.67h5l1 5.62h.28a13 13 0 0 1 5.35-4.71 17.25 17.25 0 0 1 7.6-1.65c4.94 0 8.63 1.22 11.06 3.59s3.74 6.13 3.74 11.31v26.51z"/><path d="m25.87 57.05c-7.69 0-13.79-2.59-18.2-7.73-3.8-4.39-5.91-10.22-6.44-17.32l-.12-1.11h6.16v.95c.4 5.82 2 10.43 4.76 13.76 3.18 4 7.73 5.87 13.8 5.87s10.7-1.93 13.85-5.84 4.81-9.61 4.81-17-1.63-13.1-4.81-17a15.89 15.89 0 0 0 -10.68-5.52l-.89-.11v-5.64l1.13.09a22.22 22.22 0 0 1 14.88 7.55c4.3 5.09 6.5 12 6.5 20.72s-2.21 15.5-6.52 20.6-10.59 7.73-18.23 7.73"/><path d="m1.07 24.49a24.47 24.47 0 0 1 6.64-16.57c7.29-7.36 14.18-7.23 14.18-7.23l5.68 5.31s-10.13-.6-15.47 5.82c-5.88 7-4.91 18.42-4.91 18.42z"/><path d="m382.05 10.74h-.95v-7.33h-2.59v-.84h6.13v.84h-2.59z"/><path d="m389.51 10.74-2.78-7.25c.05.58.08 1.26.08 2.05v5.2h-.88v-8.17h1.43l2.59 6.74 2.61-6.74h1.42v8.17h-.93v-5.27c0-.6 0-1.26.08-2l-2.8 7.24z"/></g></svg>