<svg height="133" width="549" xmlns="http://www.w3.org/2000/svg" xmlns:xlink="http://www.w3.org/1999/xlink"><radialGradient id="a" cx="50%" cy="50%" gradientTransform="matrix(.88736 0 0 1 .056 0)" r="50%"><stop offset="0" stop-color="#fff68e"/><stop offset=".731" stop-color="#eed26a"/><stop offset="1" stop-color="#d6aa4a"/></radialGradient><linearGradient id="b"><stop offset="0" stop-color="#fff68e"/><stop offset=".5" stop-color="#faea82"/><stop offset="1" stop-color="#d6aa4a"/></linearGradient><radialGradient id="c" cx="50%" cy="50%" gradientTransform="matrix(.62283 0 0 1 .189 0)" r="71.529%" xlink:href="#b"/><radialGradient id="d" cx="50%" cy="50%" gradientTransform="matrix(1 0 0 .892 0 .054)" r="95.965%" xlink:href="#b"/><radialGradient id="e" cx="50%" cy="50%" gradientTransform="matrix(.71231 0 0 1 .144 0)" r="76.495%" xlink:href="#b"/><radialGradient id="f" cx="50%" cy="50%" gradientTransform="scale(1 .99902)" r="90.68%" xlink:href="#b"/><radialGradient id="g" cx="-142.012%" cy="157.813%" gradientTransform="matrix(1 0 0 .985 0 .024)" r="1292.725%" xlink:href="#b"/><radialGradient id="h" cx="50%" cy="50%" gradientTransform="matrix(1 0 0 .74454 0 .128)" r="105.04%" xlink:href="#b"/><radialGradient id="i" cx="50%" cy="50%" gradientTransform="matrix(.99651 0 0 1 .002 0)" r="90.477%" xlink:href="#b"/><radialGradient id="j" cx="50%" cy="50%" gradientTransform="matrix(1 0 0 .42442 0 .288)" r="139.124%" xlink:href="#b"/><radialGradient id="k" cx="50%" cy="50%" gradientTransform="matrix(1 0 0 .7168 0 .142)" r="107.054%" xlink:href="#b"/><radialGradient id="l" cx="50%" cy="50%" gradientTransform="matrix(1 0 0 .35489 0 .323)" r="152.143%" xlink:href="#b"/><radialGradient id="m" cx="50%" cy="50%" gradientTransform="matrix(1 0 0 .51656 0 .242)" r="126.107%" xlink:href="#b"/><g fill="none"><g fill="#cf4229"><path d="m244.806 94.716c-.834 1.694-2.327 5.505.879 5.326 93.428.397 186.861.081 280.292.183h13.434c.848-1.797 2.496-4.934.714-6.113-98.336-.021-196.672-.052-295.008-.092l-.239.535-.072.16zm119.464-57.801c-.582 2.034.334 4.248 2.69 3.917 2.204.052 5.76.515 5.4 3.55.016 12.82.43 25.851-.147 38.565-1.244 3.167-6.466 1.223-7.922 3.312-.544 1.882-.087 4.62 2.43 4.068 12.223-.051 24.552.301 36.717-.37 7.933-1.002 17.175-3.572 20.445-11.66 2.27-6.313-1.849-12.905-7.596-15.538-1.313-.939-4.188-1.438-4.722-2.087 5.812-1.603 11.243-7.373 9.39-13.764-1.843-7.454-10.34-9.82-16.986-10.762-13.193-.726-26.434-.17-39.644-.348l-.03.585zm29.504 4.118c4.053-.571 8.64 2.107 8.53 6.57.395 3.763.224 9.043-4.284 10.177-2.334.774-4.834.747-7.266.915.344-5.633-.486-11.634.513-17.095.718-.44 1.606-.625 2.507-.567zm-2.324 23.19c4.997-.172 11.52 1.088 13.013 6.699 1.458 4.903.536 11.915-5.308 13.397-2.493.245-6.467 1.543-8.145-.915-.32-6.38-.15-12.79-.256-19.181zm-133.667-4.853c-.416 0-1.052.104-1.63.256-.576.153-1.094.345-1.244.495a.555.555 0 0 1 -.347.128c-.31 0-2.533 1.76-3.533 2.8-.71.74-2.136 2.715-2.141 2.965-.002.062-.255.592-.55 1.172-.78 1.535-1.738 3.785-1.738 4.081 0 .14-.146.504-.33.805-.183.302-.509 1.107-.713 1.776-.205.669-.431 1.287-.513 1.39-.082.105-.334.752-.55 1.429a62.66 62.66 0 0 1 -.713 2.104 36.043 36.043 0 0 0 -1.007 3.203c-.248.953-.384 1.725-.384 2.178 0 .513.025.847.183 1.135.159.289.446.542.934.915.222.171.398.257.713.312.316.054.774.073 1.538.073.831 0 1.273-.007 1.665-.092.393-.085.733-.239 1.337-.549.695-.357 1.505-.851 1.793-1.098.945-.81 2.892-2.825 2.892-2.983 0-.086.138-.257.293-.385.338-.28 1.812-2.532 1.812-2.764 0-.09.127-.262.274-.384.148-.122.71-1.148 1.245-2.27a158.623 158.623 0 0 1 1.281-2.653c.176-.339.372-.845.44-1.135.067-.29.308-.97.53-1.501s.489-1.28.586-1.666c.098-.386.38-1.419.64-2.287.316-1.055.498-2.28.531-3.368a9.328 9.328 0 0 0 -.054-1.483c-.058-.426-.16-.764-.293-.988-.272-.454-.715-.863-1.245-1.153s-1.143-.458-1.702-.458z"/><path d="m257.783 59.37c.558 0 1.172.168 1.702.458s.973.699 1.245 1.153c.134.224.235.562.293.988.057.426.071.939.054 1.483a13.738 13.738 0 0 1 -.53 3.368c-.26.868-.543 1.901-.641 2.287-.098.387-.364 1.135-.586 1.666s-.463 1.211-.53 1.5c-.068.29-.264.797-.44 1.136-.175.338-.746 1.532-1.28 2.654-.535 1.121-1.098 2.147-1.246 2.27-.147.121-.274.294-.274.383 0 .232-1.474 2.484-1.812 2.764-.155.128-.293.3-.293.385 0 .158-1.947 2.174-2.892 2.983-.288.247-1.098.741-1.793 1.098-.604.31-.944.464-1.337.55-.392.084-.834.09-1.665.09-.764 0-1.222-.018-1.538-.072a1.432 1.432 0 0 1 -.713-.312c-.488-.373-.775-.626-.934-.915-.159-.288-.183-.622-.183-1.135 0-.453.136-1.225.384-2.178.249-.952.596-2.078 1.007-3.203.177-.483.5-1.428.714-2.104.215-.677.467-1.324.549-1.428s.308-.722.512-1.391c.205-.669.53-1.474.714-1.776.184-.3.33-.664.33-.805 0-.296.958-2.546 1.739-4.081.294-.58.547-1.11.549-1.172.005-.25 1.43-2.225 2.141-2.965 1-1.04 3.223-2.8 3.533-2.8a.555.555 0 0 0 .347-.128c.15-.15.668-.342 1.245-.495.577-.152 1.213-.256 1.629-.256zm43.89-3.001c-.411 0-1.212.248-1.94.549-.727.3-1.383.66-1.5.878-.099.184-.267.346-.385.348-.117.002-.529.349-.915.787s-.888 1.02-1.116 1.281c-.483.55-1.618 2.181-1.977 2.855-.136.256-.545 1.047-.915 1.758-.37.71-.753 1.372-.842 1.464a.682.682 0 0 0 -.165.402c0 .126-.233.714-.512 1.318-.28.604-.537 1.296-.586 1.538-.05.241-.26.873-.458 1.39l-.348.934.385-.11c.213-.06.736-.186 1.171-.274a10.47 10.47 0 0 0 1.666-.531 68.018 68.018 0 0 1 1.226-.512c.822-.321 3.026-1.49 3.35-1.776.193-.17.447-.33.567-.366.245-.074.834-.552 1.464-1.153.63-.6 1.303-1.328 1.739-1.904a12.884 12.884 0 0 0 2.123-4.3c.204-.72.33-1.394.348-1.996s-.06-1.12-.256-1.5c-.155-.3-.48-.577-.86-.77a2.852 2.852 0 0 0 -1.264-.31z"/><path d="m301.673 56.369c.437 0 .884.118 1.263.31.38.193.706.47.86.77.198.38.275.898.257 1.5s-.144 1.276-.348 1.995a12.884 12.884 0 0 1 -2.123 4.301c-.436.576-1.109 1.303-1.739 1.904-.63.6-1.219 1.079-1.464 1.153-.12.037-.374.195-.567.366-.324.286-2.528 1.455-3.35 1.776-.193.075-.743.306-1.226.512a10.47 10.47 0 0 1 -1.666.53c-.435.089-.958.215-1.171.275l-.385.11.348-.933c.198-.518.409-1.15.458-1.391.049-.242.306-.934.586-1.538.279-.604.512-1.192.512-1.318 0-.125.076-.31.165-.402s.472-.754.842-1.464c.37-.711.779-1.502.915-1.758.359-.674 1.494-2.305 1.977-2.855.228-.26.73-.843 1.116-1.281s.798-.785.915-.787c.118-.002.286-.164.385-.348.117-.219.773-.577 1.5-.878.728-.301 1.529-.55 1.94-.55zm170.804-19.454c-.668 2.024.409 4.317 2.76 3.985 2.174-.007 5.52.716 4.85 3.592-.023 12.905.332 26-.197 38.803-1.664 2.207-4.912 1.953-7.358 2.306-.562 2.147-.32 5.46 2.709 4.74 11.88-.142 23.838.448 35.672-.457 10.693-1.305 22.05-6.414 26.48-16.864 2.68-6.014 2.905-13.287.641-19.46-3.835-10.512-15.088-16.014-25.602-17.304-13.064-1.012-26.258-.182-39.37-.458-.965-.437-.39.745-.585 1.117zm30.054 4.338c6.144-.28 12.216 3.037 14.68 8.726 3.285 6.775 3.028 14.725 1.81 22.004-1.027 6.197-6.104 11.877-12.738 12.3-2.363-.164-5.856 1.304-7.486-.988.212-13.783-.418-27.728.31-41.42 1.118-.328 2.24-.653 3.424-.622z"/><path d="m467.444 34.517c-1.597-.261-2.26 1.364-2.856 2.251-5.195.224-10.031-2.738-15.32-2.16-8.79-.544-19.22 2.761-22.256 11.843-1.628 5.301-.63 11.645 3.88 15.246 7.295 6.906 17.975 8.011 26.229 13.142 4.232 2.78 1.835 9.328-2.526 10.45-7.27 2.336-16.204-.222-20.206-7.046-2.186-2.286-1.862-6.003-4.064-8.127-2.01-.852-5.444-.385-4.727 2.58.024 6.072-.593 12.336.298 18.304 1.141 1.259 4.053 1.063 5.033.11.644-3.468 4.419-1.184 6.48-.805 10.16 2.413 22.282 2.438 30.767-4.411 5.919-4.687 7.553-13.802 3.13-20.06-5.228-7.55-15.145-8.912-22.934-12.721-4.152-1.218-11.037-4.524-7.76-9.92 3.885-4.539 11.117-3.595 15.978-1.153 4.521 2.402 7.14 6.902 9.28 11.293 1.798 1.51 6.072.917 5.266-2.197-.013-5.23.348-10.521-.178-15.722-.85-1.022-2.316-.917-3.514-.897zm-231.698 33.364c.082-.259.15-.454.22-.695.166-.58.445-1.457.622-1.94.177-.484.425-1.231.53-1.666.107-.435.388-1.494.641-2.343l.476-1.537-.366-.476c-.23-.31-.55-.532-1.061-.696-.247-.079-.714-.108-1.062-.164z"/></g><path d="m205.748 35.14c-14.641.432-28.381 9.48-35.453 22.073-4.057 7.494-6.578 17.745-1.172 25.258 6.236 8.971 18.684 10.476 28.782 8.59 14.572-2.655 27.409-13.316 32.643-27.186 3.008-7.877 2.045-18.298-5.143-23.355-5.363-4.465-12.762-5.796-19.657-5.38zm1.244 5.49c4.705-.488 9.122 3.508 8.273 8.365-.492 8.488-3.616 16.703-7.596 24.105-3.542 6.453-9.467 13.502-17.607 12.977-4.443.143-7.588-4.16-7.248-8.438 1.195-11.052 5.268-22.336 12.391-30.877 3.04-3.386 7.047-6.185 11.787-6.132z" fill="#f2ca30"/><path d="m205.052 36.29c-.217.004-.287.05-.476.055.785-.026 1.475-.054 2.929-.055-1.014 0-1.8-.01-2.453 0zm45.373 15.798c-6.135 1.043-12.396 1.559-18.614 2.27-.262 2.97-.444 5.829 3.368 5.07 1.588-.189 2.295.756 1.244 2.16a1038.13 1038.13 0 0 1 -11.842 36.752c-.574 2.65-3.161 2.475-5.271 2.653-2.018 1.055-1.443 5.596 1.336 4.924 7.802.073 15.732.456 23.465-.22 1.828-1.53.886-5.658-2.032-4.85-1.553-.055-4.136-.116-2.947-2.453.673-2.703 1.702-5.67 2.654-8.09 9.64 3.363 19.976-2.31 26.009-9.645 5.133-6.084 9.204-14.91 6.186-22.824-3.156-6.706-12.611-7.209-18.45-3.99-1.008.355-3.583 1.861-3.038 1.757 1.232-1.907.5-4.067-2.068-3.514zm50.169-.018c-12.3 1.32-23.915 11.131-26.032 23.498-1.06 5.737 1.675 11.95 7.234 13.986 8.585 3.922 19.533 1.18 25.259-6.241 1.372-1.386 4.068-4.49 1.19-5.839-2.158-1.754-4.839-.453-6.059 1.739-2.554 3.121-8.097 5.899-11.55 2.599-1.052-1.523-1.204-4-.457-5.51 8.623-1.424 18.437-3.945 23.337-11.805 2.83-4.301.243-10.437-4.704-11.64-2.606-1.1-5.461-.786-8.218-.787zm37.319 0c-6.314 1.299-12.805 1.528-19.144 2.397-1.5 1.36-1.1 5.14 1.5 4.832 1.317.07 4.126.001 2.436 2.173-2.61 9.195-6.708 18.13-9.061 27.46.864 2.698 4.928.85 6.955 1.43 2.547-.723 7.332 1.665 7.793-1.952 3.35-9.58 7.156-19.95 15.314-26.4.82-.638 3.605-2.387 3.762-.862-2.795 7.54-6.76 14.6-8.072 22.622-.78 4.175 3.1 7.567 7.12 7.267 7.438.618 13.544-4.81 17.186-10.744.858-2.26-2.284-3.386-4.008-3.203-2.006 1.705-3.364 4.191-5.564 5.472 2.352-7.51 6.891-14.437 7.948-22.328.95-4.545-3.132-8.854-7.71-8.134-6.766-.877-12.555 3.65-16.766 8.37.483-2.621 3.321-5.423 1.94-8.09-.493-.308-1.06-.374-1.629-.31z" fill="#f2ca30"/><path d="m301.673 56.369c.874 0 1.814.48 2.124 1.08.788 1.524-.267 5.227-2.215 7.796-.873 1.151-2.712 2.908-3.203 3.057-.12.037-.374.195-.567.366-.324.286-2.528 1.455-3.35 1.776-.193.075-.743.306-1.226.512a10.47 10.47 0 0 1 -1.666.53c-.435.089-.958.215-1.171.275l-.385.11.348-.933c.198-.518.409-1.15.458-1.391.049-.242.306-.934.586-1.538.279-.604.512-1.192.512-1.318 0-.125.076-.31.165-.402s.472-.754.842-1.464c.37-.711.779-1.502.915-1.758.359-.674 1.494-2.305 1.977-2.855.228-.26.73-.843 1.116-1.281s.798-.785.915-.787c.118-.002.286-.164.385-.348.234-.437 2.617-1.427 3.44-1.427zm-43.89 3.001c1.117 0 2.404.703 2.947 1.61.536.9.447 3.731-.183 5.84-.26.868-.543 1.901-.64 2.287-.098.387-.365 1.135-.587 1.666s-.463 1.211-.53 1.5c-.068.29-.264.797-.44 1.136-.175.338-.746 1.532-1.28 2.654-.535 1.121-1.098 2.147-1.246 2.27-.147.121-.274.294-.274.383 0 .232-1.474 2.484-1.812 2.764-.155.128-.293.3-.293.385 0 .158-1.947 2.174-2.892 2.983-.288.247-1.098.741-1.793 1.098-1.208.62-1.339.64-3.002.64-1.529 0-1.807-.042-2.251-.384-.975-.747-1.117-1.025-1.117-2.05 0-.907.568-3.132 1.391-5.38.177-.484.5-1.43.714-2.105.215-.677.467-1.324.549-1.428s.308-.722.513-1.391c.204-.669.53-1.474.713-1.776.184-.3.33-.664.33-.805 0-.296.958-2.546 1.739-4.081.294-.58.547-1.11.549-1.172.005-.25 1.43-2.225 2.141-2.965 1-1.04 3.223-2.8 3.533-2.8a.555.555 0 0 0 .347-.128c.3-.3 2.042-.75 2.874-.75z" fill="#f2ca30"/><path d="m160.74 94.752c-.647 1.545-2.482 5.112.403 5.326 17.862.125 35.77.404 53.61-.128 1.749-1.226 1.755-3.933 1.793-5.93h-55.513l-.217.544z" fill="#cf4229"/><path d="m218.408 110.535c-1.194-.288-2.676-1.32-3.266-2.275-.202-.327-.437-.595-.521-.595s-.207-.296-.271-.658c-.065-.363-.24-.797-.387-.966-.253-.29-1.678-.308-25.23-.31-27.08-.002-25.715.045-27.407-.946-.395-.231-.876-.595-1.068-.808a3.58 3.58 0 0 0 -.845-.643c-1.312-.678-2.668-2.343-3.052-3.749-.493-1.8-.146-5.562.567-6.154.14-.117.255-.305.255-.418 0-.114.297-.481.659-.817 1.94-1.798 3.037-2.089 7.91-2.093 2.775-.002 3.583-.054 3.652-.233.049-.128-.547-.887-1.345-1.713-.789-.815-1.637-1.798-1.885-2.184-.249-.387-.59-.862-.76-1.057s-.5-.712-.732-1.149c-.233-.437-.51-.949-.617-1.139-.676-1.199-1.597-3.659-1.608-4.296-.005-.242-.165-.94-.357-1.553-.448-1.429-.487-5.438-.071-7.318.15-.676.3-1.628.333-2.117.055-.807.603-2.987.97-3.855.081-.193.2-.588.263-.878.197-.907 1.303-3.659 1.871-4.655.083-.145.228-.46.323-.702.094-.242.29-.637.435-.878.145-.242.39-.711.546-1.043s.473-.853.706-1.158c.233-.306.423-.617.423-.693 0-.075.455-.765 1.01-1.532 2.386-3.294 5.226-6.403 8.205-8.98 1.651-1.43 5.012-3.934 5.516-4.11.159-.056.447-.24.64-.41.193-.169 1.103-.696 2.022-1.171.92-.476 1.868-.992 2.108-1.147.24-.156.843-.442 1.338-.636a46.677 46.677 0 0 0 1.669-.695c1.553-.693 4.288-1.65 5.6-1.959 6.043-1.424 6.41-1.469 11.945-1.472 5.574-.003 5.5-.012 11.254 1.47.345.089.859.282 1.142.43.284.148.596.27.695.27.316.002 2.646 1.033 3.77 1.668.6.34 1.15.617 1.223.617.072 0 .274.158.45.35.174.194.416.352.537.352.12 0 .92.58 1.776 1.289a27.484 27.484 0 0 1 4.266 4.419c1.18 1.545 3.17 5.79 3.17 6.76 0 .984.212 1.054 2.635.865 3.03-.237 6.599-.694 11.432-1.463 2.268-.362 3.693-.127 5.126.843.525.355.31.383 3.03-.402 3.256-.94 8.674-.78 11.242.334.193.084.8.307 1.35.496.55.188 1.577.72 2.284 1.18 1.33.867 3.832 3.17 3.832 3.526 0 .11.123.304.274.43.15.124.547.825.88 1.558.335.732.675 1.45.756 1.594.288.514.746.388 1.549-.426.862-.874 3.621-3.008 5.052-3.907.769-.483 1.636-.959 4.05-2.224.942-.494 2.125-.996 2.347-.996.12 0 .438-.114.708-.253 1.305-.675 5.683-1.63 8.582-1.87 5.168-.431 9.822.666 13.243 3.12.965.692 1.073.704 1.792.19 1.251-.897 1.85-1.052 4.597-1.194 1.449-.075 3.188-.22 3.864-.323.677-.103 2.297-.271 3.602-.373 2.736-.214 4.079-.406 8.695-1.245 1.656-.3 3.514-.11 4.635.475.52.272 1.167.714 1.436.984.556.556.85.599 1.562.23 1.525-.788 4.65-1.63 6.93-1.866 3.367-.35 6.665.164 9.416 1.466 1.206.57 1.747.966 2.811 2.055 1.4 1.433 2.415 3.141 2.65 4.46.072.402.265 1.206.429 1.785.344 1.216.268 3.237-.165 4.391-.145.387-.267.943-.271 1.237-.007.499-1.649 5.58-1.927 5.965-.07.097-.228.531-.352.966-.123.435-.285.87-.359.966-.285.373-.74 2.058-.594 2.204.083.084.784.47 1.556.859.773.389 1.697.956 2.053 1.26 1.283 1.093 1.203 2.126 1.153-14.988l-.045-15.33-1.669-.108c-.918-.06-1.906-.17-2.196-.247-1.423-.375-2.778-1.493-3.684-3.04l-.62-1.056v-2.368c0-2.28.02-2.405.524-3.395.98-1.925 2.215-2.838 4.458-3.294 1.966-.4 28.53-.414 34.727-.018 4.288.274 7.363.64 8.864 1.054.483.133 1.195.298 1.581.365.954.168 4.546 1.41 5.592 1.933.467.233.952.424 1.077.424s.322.115.439.255c.116.14.54.416.944.613.402.197 1.127.675 1.61 1.064a23.46 23.46 0 0 0 1.318.994c.507.333 2.163 2.229 2.658 3.043.462.759.828.631 1.51-.526.313-.53 1.005-1.419 1.538-1.975s.975-1.07.983-1.142c.023-.225 2.472-2.217 3.312-2.694.441-.25 1.11-.666 1.486-.922s.775-.466.887-.466.296-.092.409-.205.465-.3.782-.417c1.48-.544 3.313-1.136 4.353-1.405.628-.163 1.34-.36 1.581-.44.242-.08 1.19-.23 2.108-.336.918-.105 2.222-.266 2.899-.357 1.674-.226 5.768-.22 7.014.01.56.104 1.859.293 2.887.42s2.817.482 3.977.788 2.283.6 2.498.654c.285.071.597-.084 1.165-.58 1.282-1.123 2.568-1.47 5.454-1.47 2.054 0 2.61.06 3.513.38.59.21 1.147.446 1.239.527s6.976.147 15.3.147c17.079 0 20.43.134 26.6 1.062.722.108 1.44.265 1.595.348.156.083.711.2 1.235.261.524.06 1.23.215 1.568.343s1.642.565 2.898.97c1.256.407 2.36.81 2.45.898.093.087.337.158.545.158.207 0 .52.158.694.352.175.193.488.351.695.351s.452.073.544.162c.092.09.805.48 1.586.868.78.388 1.521.829 1.646.98.125.15.29.273.364.273.22 0 1.767 1.083 2.992 2.094 1.66 1.37 2.7 2.408 4.298 4.294 1.173 1.385 2.76 3.784 2.979 4.503.073.241.235.557.36.702.463.539 1.569 3.646 2.273 6.387.419 1.63.445 1.993.445 6.16 0 3.18-.067 4.671-.238 5.294-.13.476-.334 1.3-.451 1.832-.271 1.227-.853 3.042-1.27 3.964-.179.393-.324.842-.324 1 0 .156-.081.335-.18.396s-.405.608-.68 1.215a18.977 18.977 0 0 1 -1.226 2.195c-.399.6-.725 1.133-.725 1.185 0 .155-1.78 2.242-2.04 2.393-.135.077-.244.234-.244.348 0 .22-.673.874-2.865 2.78-1.235 1.073-3.075 2.377-4.917 3.484-.415.25-.647.51-.613.689.05.257.693.298 6.114.389 3.95.066 6.333.176 6.849.317.958.263 2.387 1.152 2.756 1.716.149.227.392.412.541.412.646 0 2.357 1.657 2.902 2.81.329.696.374 1.113.38 3.461.007 1.91-.054 2.732-.211 2.89-.121.12-.22.33-.22.467 0 .738-2.524 2.939-3.777 3.294-.29.082-66.535.192-147.21.245l-146.684.095-.673 1.364c-.914 1.851-2.244 2.961-4.03 3.365-1.745.394-25.276.38-26.916-.015zm25.17-5.89c.218-.22.29-1.835.104-2.323-.08-.206-.362-.28-1.098-.287-1.58-.015-3.675-.42-4.203-.812-.386-.288-.488-.52-.534-1.216-.067-1.022.21-2.628.663-3.847.18-.483.457-1.313.617-1.844s.436-1.361.614-1.844c.179-.483.5-1.453.713-2.154.214-.702.464-1.322.556-1.379.091-.057.615.055 1.165.247 2.38.835 2.842.914 5.33.914 2.14 0 2.724-.068 4.676-.545 1.227-.3 2.508-.69 2.848-.865s.973-.458 1.408-.629c.435-.17.915-.414 1.068-.54.152-.127.366-.231.474-.231s.537-.217.952-.483c.416-.266.887-.562 1.047-.659.547-.33 3.22-2.42 3.796-2.967 4.639-4.413 7.33-8.493 9.047-13.72 1.374-4.179 1.373-8.755-.001-11.314-1.284-2.39-2.564-3.432-5.434-4.427-1.372-.475-1.633-.506-4.23-.505-2.681 0-2.82.019-4.545.6-2.803.942-5.313 2.515-7.86 4.924-.566.535-1.056.974-1.088.974-.105 0 .293-1.125.622-1.757.175-.338.442-.97.593-1.405.15-.435.467-1.257.704-1.827.238-.57.39-1.144.34-1.274-.129-.337-1.35-.299-3.172.1-.845.184-2.524.424-3.731.531-1.208.108-3.422.352-4.92.543-1.497.19-3.71.445-4.918.566l-2.196.221v2.633l1.618.134c1.991.165 2.81.427 3.27 1.046l.354.476-.462 1.544a63.309 63.309 0 0 0 -.655 2.333 19.082 19.082 0 0 1 -.515 1.669 34.46 34.46 0 0 0 -.623 1.932c-.167.58-.409 1.33-.539 1.669a22.07 22.07 0 0 0 -.538 1.756c-.166.628-.446 1.484-.623 1.903-.176.419-.32.887-.32 1.041 0 .25-.194.845-1.3 3.994a39.44 39.44 0 0 0 -.647 2.108 27.238 27.238 0 0 1 -.678 2.108c-.187.483-.708 2.064-1.16 3.513-.45 1.449-.96 3.03-1.13 3.513-.698 1.963-1.275 3.738-1.488 4.579-.125.49-.306 1.043-.404 1.23-.097.186-.312.887-.478 1.556-.603 2.433-2.21 5.144-3.224 5.44-.692.201-2.436.456-3.12.456-.512 0-.772.086-.846.278-.187.488-.114 2.103.104 2.322.305.305 23.692.305 23.997 0zm-.073-18.447c-.974-.747-1.122-1.015-1.122-2.04 0-.908.582-3.138 1.404-5.387.177-.483.497-1.432.712-2.108s.457-1.315.539-1.419.316-.736.52-1.405c.206-.669.523-1.462.707-1.764.184-.3.334-.662.334-.803 0-.296.964-2.558 1.744-4.094.295-.58.537-1.104.538-1.166.005-.25 1.431-2.224 2.141-2.964 1-1.04 3.222-2.808 3.532-2.808.134 0 .296-.053.36-.117.3-.3 2.043-.761 2.875-.761 1.117 0 2.406.705 2.948 1.613.537.898.448 3.745-.182 5.853-.26.869-.552 1.896-.65 2.282a14.829 14.829 0 0 1 -.58 1.669c-.223.531-.46 1.203-.527 1.493s-.266.803-.442 1.142c-.175.338-.756 1.532-1.29 2.653-.535 1.122-1.093 2.14-1.24 2.261-.147.123-.267.296-.267.386 0 .231-1.49 2.484-1.828 2.765-.154.128-.28.303-.28.388 0 .159-1.957 2.164-2.902 2.973-.288.247-1.093.741-1.789 1.098-1.207.62-1.343.65-3.006.65-1.529 0-1.804-.048-2.25-.39zm-29.075 12.622c.327-.394.89-2.262.895-2.967l.004-.659h-53.516l-.457 1.113c-.518 1.26-.75 2.288-.579 2.564.081.131 8.112.187 26.786.187 22.248 0 26.703-.04 26.868-.238zm324.459-.217c.44-.966.92-2.592.869-2.948l-.054-.373-146.91-.044-146.91-.044-.359.834c-.466 1.086-.764 2.392-.627 2.748.1.259 12.302.282 146.946.282h146.838zm-316.637-5.736c.07-.253 1.05-3.3 1.313-4.084.49-1.455.964-2.956 1.361-4.303.242-.822.523-1.664.625-1.872.426-.875-.419-1.03-1.186-.216-.634.672-4.746 4.195-4.897 4.195-.06 0-.6.378-1.202.84a33.578 33.578 0 0 1 -2.023 1.429c-1.248.79-1.161 1.047.513 1.526 1.647.472 2.007.654 2.805 1.416 1.089 1.04 2.54 1.616 2.69 1.069zm-26.247-2.669c3.143-.486 5.069-.935 6.533-1.524.452-.181.987-.33 1.188-.33.2 0 .502-.074.67-.165.168-.09.7-.334 1.183-.542 3.329-1.431 5.104-2.379 7.818-4.174 2.706-1.79 6.242-4.924 8.465-7.503a70.005 70.005 0 0 1 1.569-1.775c.197-.204.49-.57.651-.814.162-.244.613-.907 1.003-1.474s.966-1.465 1.28-1.996c.313-.532.644-1.085.734-1.23.347-.558 2.284-4.738 2.284-4.929 0-.11.226-.884.503-1.72.606-1.826 1.14-5.35 1.12-7.403-.02-2.182-.583-5.121-1.261-6.587-.179-.386-.429-.94-.555-1.23-.326-.747-1.248-2.195-1.398-2.195-.07 0-.257-.277-.418-.615-.16-.338-.355-.615-.432-.615s-.568-.414-1.09-.922c-1.263-1.227-4.12-3.293-4.555-3.293-.082 0-.688-.276-1.346-.614s-1.332-.614-1.498-.615c-.166 0-.56-.112-.878-.247-.775-.331-1.632-.56-3.827-1.018-1.616-.337-2.39-.385-6.236-.383-4.053.001-4.575.038-6.764.472-1.304.259-2.648.547-2.986.64-.338.092-.97.26-1.405.373-1.008.262-3.635 1.273-5.029 1.935-.591.28-1.135.51-1.208.51-.243 0-3.309 1.796-5.075 2.972-.956.636-1.871 1.236-2.034 1.333a3.827 3.827 0 0 0 -.604.485c-.169.169-.44.378-.602.465-.81.433-4.041 3.568-5.916 5.74-1.595 1.847-1.773 2.072-2.03 2.56-.12.226-.264.45-.322.498-.098.08-.48.652-1.35 2.02-.726 1.14-1.46 2.561-2.628 5.094-.424.92-1.248 3.616-1.77 5.796-.46 1.918-.506 2.392-.506 5.27 0 3.119.008 3.183.577 4.82.804 2.313 1.487 3.631 2.611 5.036.532.665 1.02 1.288 1.085 1.385.193.285 2.795 2.547 2.93 2.547.069 0 .413.219.765.486 1.2.91 4.58 2.42 6.261 2.797l2.284.512c.677.153 1.941.343 2.81.425 2.152.2 7.36.058 9.4-.258zm-7.114-3.1c-1.538-.262-2.445-.582-3.422-1.21-2.079-1.335-3.147-3.17-3.622-6.216-.277-1.782-.277-2.047.005-4.385.166-1.368.444-3.002.62-3.63.174-.628.452-1.734.615-2.459.731-3.241 3.196-10.215 4.47-12.647.076-.145.52-1.014.985-1.932s1.122-2.103 1.46-2.635c1.48-2.333 2.236-3.435 2.443-3.565.123-.078.223-.226.223-.33 0-.4 2.965-3.565 4.575-4.884 1.269-1.04 3.172-2.287 3.491-2.287.2 0 .363-.069 1.418-.6 1.112-.562 4.461-1.013 5.975-.806 3.324.455 4.573.985 6.102 2.591 1.038 1.09 1.32 1.577 1.855 3.207.318.967.373 1.531.358 3.688-.01 1.653-.11 2.917-.284 3.601-.148.58-.32 1.45-.385 1.932-.13.983-.309 1.753-.795 3.425-.183.628-.491 1.695-.685 2.372-.51 1.779-1.31 4.102-1.617 4.696a1.478 1.478 0 0 0 -.157.551c0 .285-1.521 3.701-2.59 5.819-.147.29-.424.843-.616 1.23-.193.386-.44.81-.548.944-.272.332-1.295 2.107-1.556 2.7-.117.266-.264.483-.326.483s-.445.514-.851 1.142-.807 1.141-.891 1.141-.201.154-.261.342c-.122.385-3.179 3.504-4.227 4.313-3.767 2.91-7.804 4.08-11.762 3.408zm4.502-5.013c.712-.158 1.397-.368 1.522-.467.124-.099.618-.36 1.096-.582 1.257-.583 4.683-4.083 6.187-6.323.652-.97 1.185-1.824 1.185-1.896s.238-.475.527-.896c.29-.422.527-.807.527-.856 0-.05.508-1.142 1.128-2.427 3.527-7.31 6.06-17.019 5.469-20.96-.086-.575-.302-1.014-.733-1.49-.555-.614-.717-.688-1.77-.8-2.029-.218-4.135.26-5.685 1.291-2.146 1.427-2.65 1.87-4.145 3.637-.772.912-2.934 3.942-3.24 4.538-.057.112-.214.402-.348.643-.58 1.045-1.755 3.286-1.934 3.689l-.43.966c-.58 1.296-.934 2.159-1.152 2.81-.13.387-.337.859-.46 1.05-.125.19-.226.49-.226.667 0 .176-.158.648-.352 1.047-.193.4-.35.866-.35 1.036 0 .169-.08.356-.177.416-.096.06-.175.336-.175.615 0 .278-.07.55-.156.602-.085.053-.195.314-.244.581s-.247 1.039-.442 1.715c-.194.676-.407 1.585-.473 2.02s-.232 1.18-.369 1.657c-.164.572-.249 1.75-.249 3.476 0 2.251.048 2.703.347 3.289.603 1.18 2.498 1.533 5.122.952zm237.107 7.373c.529-.959.683-1.105 1.357-1.294.846-.237 2.272-.059 4.202.525 4.575 1.383 7.72 1.836 12.736 1.836 4.596 0 6.254-.199 10.364-1.243 1.69-.429 4.682-1.763 6.412-2.858 1.84-1.165 4.16-3.57 5.207-5.4.858-1.5 1.04-1.985 1.737-4.624.205-.777.212-3.58.01-4.392-.683-2.75-1.3-4.248-2.375-5.764-.624-.88-2.79-3.16-3.367-3.545-.218-.145-.856-.582-1.418-.971-1.202-.831-3.407-1.923-5.503-2.724a231.84 231.84 0 0 1 -5.094-2.02c-.532-.218-1.717-.689-2.635-1.045-2.146-.834-2.417-.948-3.186-1.343-.352-.18-.74-.328-.865-.328-.357 0-3.818-1.592-5.983-2.751-1.001-.537-2.28-1.8-2.819-2.782-.545-.995-.577-1.152-.573-2.81.006-1.553.058-1.861.469-2.654.45-.869 1.684-2.353 1.956-2.353.074 0 .478-.237.9-.527.421-.29.895-.527 1.053-.527s.459-.091.668-.203c.765-.41 3.223-.841 4.779-.84 2.263.002 5.648.752 7.403 1.64.497.252.953.457 1.013.457.406 0 4.04 2.769 4.61 3.512.113.146.457.541.767.88 1.419 1.55 2.758 3.675 3.595 5.708.747 1.815.786 1.845 2.396 1.845 1.176 0 1.397-.049 1.553-.34.226-.423.248-16.147.023-16.503-.189-.298-1.647-.456-2.719-.296-.734.11-.81.172-1.084.891-.493 1.29-.73 1.409-2.777 1.381-1.29-.017-2.076-.124-2.85-.387-1.043-.355-2.655-.745-6.045-1.465-1.385-.294-2.359-.356-5.71-.366-4.617-.013-6.153.197-10.189 1.397-1.465.436-3.95 1.602-3.952 1.855 0 .073-.115.132-.255.132-.292 0-2.228 1.53-2.968 2.347-1.743 1.922-3.11 4.431-3.541 6.494-.31 1.488-.35 5.355-.069 6.57 1.01 4.344 5.44 8.509 12.279 11.545.82.365 2.066.93 2.767 1.257.7.326 1.395.593 1.544.593.148 0 .563.15.922.332a9.76 9.76 0 0 0 1.442.558c.435.124.87.279.966.344.097.065 1.164.492 2.372.95 2.283.865 2.723 1.044 4.04 1.648.435.2 1.076.484 1.425.633.35.15.734.392.856.538.122.147.287.267.367.267.304 0 1.754 1.098 2.315 1.753 1.3 1.519 1.75 3.32 1.362 5.448-.547 3.001-3.026 5.367-6.676 6.37-1.122.31-1.814.362-4.655.357-2.586-.004-3.536-.07-4.217-.29-.483-.157-1.036-.286-1.23-.287-.614-.004-3.546-1.37-5.06-2.356-3.367-2.194-6.445-6.498-7.77-10.865-.726-2.389-.658-2.318-2.275-2.378-1.166-.043-1.437-.001-1.623.253-.292.4-.328 18.51-.038 19.051.166.31.343.342 1.622.296l1.436-.05zm-156.558.372c.061-.16-.244-.784-.752-1.537a34.514 34.514 0 0 1 -1.383-2.232c-.29-.53-.654-.988-.808-1.017-.158-.03-.871.51-1.62 1.228a62.336 62.336 0 0 1 -1.96 1.808c-.342.29-.868.74-1.17.999-.351.301-.511.57-.444.746.092.239.634.275 4.07.275 3.404 0 3.978-.038 4.067-.27zm20.565-.098c1.897-.408 2.856-.694 3.65-1.09.772-.385 1.922-.97 2.4-1.22 1.346-.71 4.246-3.228 5.626-4.887 2.783-3.348 2.803-3.444.907-4.31-1.49-.682-1.934-.594-2.961.59-3.9 4.492-7.132 6.096-11.093 5.507-2.207-.328-3.452-1.36-4.166-3.455-.487-1.43-.322-4.662.28-5.461.083-.112.643-.257 1.242-.323.6-.065 1.696-.27 2.437-.455.74-.185 1.535-.336 1.766-.336.506 0 4.035-1.007 6.133-1.75 1.63-.577 5.812-2.642 6.389-3.155.193-.171.707-.557 1.142-.856 2.832-1.947 4.974-5.04 5.2-7.51.225-2.456-.573-4.255-2.57-5.79-.832-.641-1.505-.966-2.949-1.424-1.836-.582-1.928-.593-5.021-.593-2.913 0-3.325.041-5.45.545-5.174 1.226-9.894 3.875-14.037 7.876-1.44 1.391-4.335 4.978-4.335 5.372 0 .126-.063.256-.14.288-.249.103-1.63 2.817-2.22 4.362-.817 2.136-1.037 3.298-1.114 5.884-.075 2.53.233 4.315.969 5.621.217.387.483.92.59 1.186.106.265.263.483.349.483s.365.316.621.702c.256.387.542.703.636.703s.324.195.512.434c.188.238.525.534.75.658 2.212 1.221 3.606 1.813 5.284 2.244 1.697.436 2.267.499 4.694.513 2.188.012 3.119-.061 4.48-.353zm-4.14-18.803c.197-.517.4-1.138.45-1.38.048-.241.317-.933.597-1.537.279-.604.507-1.2.507-1.326s.073-.303.162-.395.464-.749.834-1.46c.37-.71.784-1.501.92-1.756.359-.674 1.49-2.32 1.972-2.87l1.119-1.27c.386-.439.799-.798.916-.8s.294-.153.392-.336c.234-.438 2.617-1.423 3.44-1.423.874 0 1.8.469 2.11 1.068.79 1.525-.261 5.233-2.209 7.802-.872 1.15-2.71 2.903-3.201 3.052-.12.037-.377.206-.57.377-.323.286-2.516 1.448-3.338 1.768-.193.076-.746.306-1.23.511-.482.206-1.233.447-1.668.535s-.965.21-1.177.27l-.387.11.36-.94zm18.858 18.557c0-.67-.654-.847-.968-.26-.295.55-.09.908.484.842.408-.047.484-.138.484-.582zm26.719.369c.052-.135-.14-.945-.426-1.8-.664-1.985-.929-2.038-1.622-.326-.488 1.205-.633 2.021-.4 2.254.065.065.62.117 1.236.117.795 0 1.145-.07 1.212-.245zm14.168-.207c.968-.164 2.045-.484 2.663-.79.571-.283 1.106-.514 1.19-.514.083 0 .485-.218.894-.483.408-.266.834-.523.945-.571.45-.195 2.82-2.457 3.958-3.777.666-.772 1.318-1.523 1.448-1.668 1.482-1.65 1.87-2.713 1.067-2.914-.242-.06-.733-.26-1.091-.443-.359-.182-.748-.332-.866-.332s-.736.613-1.374 1.361c-3.063 3.595-4.6 4.76-5.65 4.282-.41-.187-.444-.28-.372-1.036.042-.457.18-1.107.306-1.445.307-.824 1.367-3.39 1.852-4.48.214-.482.448-1.075.519-1.317a7.43 7.43 0 0 1 .448-1.054c.29-.558 1.18-2.685 1.873-4.479.149-.386.373-.94.497-1.23.38-.887 1.093-2.908 1.581-4.478.255-.821.546-1.69.645-1.932.1-.242.222-1.318.271-2.393.074-1.582.03-2.146-.229-2.969-.426-1.354-1.428-2.49-2.786-3.155-1.044-.513-1.143-.527-4.13-.583-3.021-.057-3.08-.05-4.83.5-.974.306-2.127.755-2.562.998-1.512.843-3.486 2.184-3.582 2.433-.053.138-.204.25-.335.25-.352 0-4.252 3.97-6.413 6.527-1.034 1.223-1.904 2.157-1.934 2.075s.074-.346.232-.587.433-.898.61-1.46c.179-.562.69-1.891 1.137-2.954.447-1.062.936-2.288 1.087-2.722.15-.435.379-1.028.508-1.318.641-1.447 1.136-2.886 1.136-3.307 0-.403-.073-.47-.52-.47-.286 0-1.175.15-1.976.332-.801.183-2.365.424-3.477.537-1.11.114-3.127.355-4.48.536-2.952.396-6.449.707-7.93.705-.822-.002-1.104.065-1.185.276-.149.388-.129 2.053.027 2.289.071.107.84.235 1.71.284 1.787.102 2.736.426 3.166 1.083.28.428.273.524-.17 1.99a65.752 65.752 0 0 0 -.619 2.157c-.084.338-.287.97-.451 1.405a29.223 29.223 0 0 0 -.536 1.58c-.13.435-.56 1.7-.955 2.811a666.836 666.836 0 0 0 -2.103 5.972c-.182.531-.738 2.112-1.235 3.513-.498 1.4-.972 2.784-1.055 3.074-.082.29-.641 1.957-1.243 3.705-.617 1.794-1.044 3.306-.981 3.472.103.267.645.289 6.102.246l5.989-.046 1.017-2.99c.559-1.643 1.147-3.24 1.305-3.547.16-.308.29-.685.29-.84 0-.154.266-.85.592-1.545.326-.696.854-1.858 1.173-2.583 1.09-2.469 2.512-5.255 3.561-6.974.307-.503.816-1.352 1.13-1.888.316-.536.639-.974.72-.974.08 0 .234-.195.342-.433.54-1.184 4.084-5.027 5.522-5.988.412-.275.89-.617 1.06-.759.532-.442 2.637-1.251 3.253-1.251 1.079 0 2.019.799 1.859 1.58-.112.549-.497 1.567-1.047 2.77-.233.51-.423 1.014-.423 1.12 0 .107-.237.661-.527 1.232-.29.57-.527 1.12-.527 1.223 0 .102-.237.698-.527 1.324s-.527 1.202-.527 1.28-.277.748-.615 1.49-.615 1.436-.615 1.542-.237.695-.527 1.308c-.29.614-.527 1.235-.527 1.38 0 .146-.151.6-.336 1.01a14.32 14.32 0 0 0 -.549 1.447 83.4 83.4 0 0 1 -.627 1.932c-.658 1.955-.984 4.388-.755 5.63.231 1.25.497 1.795 1.236 2.533.87.87 1.324 1.105 2.766 1.43 1.715.386 3.467.403 5.512.055zm53.096-.846c.773-.16 2.038-.366 2.811-.458a22.06 22.06 0 0 0 2.723-.531c.725-.2 1.634-.426 2.02-.5.387-.074.98-.262 1.318-.418s.978-.403 1.422-.548c.445-.146 1.22-.507 1.721-.802.502-.296.96-.539 1.017-.539.311 0 2.614-1.702 3.603-2.663 1.15-1.117 1.666-1.848 2.648-3.748.806-1.56 1.05-4.32.565-6.38-.865-3.668-3.5-6.524-8.165-8.85-.725-.362-1.478-.66-1.674-.662s-.527-.124-.736-.27-1.471-.543-2.806-.883a246.91 246.91 0 0 1 -2.594-.668c-.217-.067 1.54-.642 1.96-.642.176 0 .754-.164 1.285-.365.53-.2 1.186-.433 1.457-.517.892-.277 3.256-1.546 4.201-2.255 2.247-1.685 3.453-3.54 4.02-6.184.462-2.156-.336-5.32-1.835-7.272-1.11-1.445-2.918-2.812-5.035-3.806-1.57-.737-5.166-1.917-5.827-1.912-.258.002-.93-.107-1.493-.242-2.825-.677-4.193-.72-22.544-.72h-17.83l-.054 1.123c-.03.618.022 1.199.114 1.29.091.092 1.222.269 2.512.393 3.426.329 4.696 1.046 5.31 2.995.275.869.301 2.583.313 20.26.011 18.032-.009 19.372-.3 20.247-.382 1.153-1.173 1.951-2.301 2.325-.469.155-1.92.46-3.223.68l-2.372.398-.053 1.033c-.03.568-.01 1.146.043 1.285.084.219 2.565.243 18.235.175 16.012-.068 18.303-.112 19.544-.369zm-10.013-2.91c-1.79-.222-2.753-.818-3.28-2.027-.179-.41-.242-2.8-.285-10.671l-.054-10.144h1.868c1.777 0 5.44.38 6.758.7 1.77.431 3.915 1.644 5.091 2.878 1.701 1.784 2.436 3.517 2.822 6.654.343 2.784-.211 6.134-1.366 8.254-.974 1.791-3.53 3.569-5.844 4.065-1.458.313-4.35.46-5.71.291zm5.534-5.284c.782-.395 1.252-.931 1.68-1.92.284-.656.34-1.193.335-3.25-.006-2.287-.038-2.533-.464-3.43-.253-.531-.646-1.136-.873-1.345-.711-.65-1.86-1.143-2.737-1.173l-.84-.029-.046 5.62c-.026 3.09-.011 5.711.032 5.824.114.297 2.148.089 2.913-.297zm-9.101-29.695c.062-10.371-.023-9.818 1.621-10.595.871-.412 1.158-.454 3.158-.454 2.056 0 2.309.04 3.867.596 3.5 1.251 4.99 3.463 5.277 7.836.109 1.66-.076 4.244-.418 5.845-.306 1.434-1.169 2.602-2.965 4.019-.127.1-.916.42-1.755.713-1.568.546-2.912.736-6.765.952l-2.075.116zm7.871 3.028c.405-.298.451-.48.595-2.34.27-3.512-.142-5.237-1.347-5.636-1.006-.333-1.005-.34-1.005 4.14 0 2.257.06 4.163.131 4.235.196.196 1.128-.033 1.626-.399zm113.22 34.78a89.68 89.68 0 0 0 4.391-.84c1.063-.24 2.249-.503 2.635-.583.786-.162 2.486-.766 2.665-.945.064-.065.27-.117.456-.117.438 0 3.587-1.465 5.154-2.398 3.697-2.2 6.118-4.48 8.74-8.23.872-1.246 2.924-6.08 2.924-6.886 0-.242.135-.925.3-1.519.438-1.582.441-8.195.005-9.625-.167-.546-.304-1.164-.304-1.373 0-.339-.273-1.124-.952-2.728-.552-1.306-1.725-3.6-1.841-3.6-.07 0-.254-.257-.407-.571-.626-1.278-3.83-4.525-5.774-5.852-2.203-1.503-4.675-2.833-6.485-3.487-1.882-.68-2.154-.771-3.162-1.053a82.475 82.475 0 0 1 -2.098-.626c-.622-.195-1.374-.356-1.67-.356s-.806-.077-1.134-.17c-.328-.095-1.592-.312-2.81-.483-2-.282-3.917-.312-19.956-.312h-17.742l-.053 1.187c-.049 1.127-.03 1.195.39 1.354.242.092 1.174.22 2.071.285 1.748.126 3.393.666 4.152 1.362.227.208.571.687.764 1.065.347.675.352 1.01.342 20.764-.01 19.653-.019 20.092-.36 20.76a4.84 4.84 0 0 1 -.935 1.198c-.755.663-3.128 1.428-4.966 1.601l-1.406.133-.053 1.034c-.03.569-.01 1.147.043 1.285.083.215 2.525.242 17.357.189 16.992-.06 17.299-.068 19.72-.463zm-10.662-3.192c-.927-.156-1.513-.534-2.056-1.324l-.37-.538v-21.003c0-23.751-.152-21.469 1.469-22.001 2.55-.838 4.691-.783 9.598.246.629.131 3.036 1.265 3.513 1.653.145.119.493.33.773.471.608.305 3.444 3.12 3.444 3.419 0 .115.167.359.37.543.204.184.5.585.659.892.823 1.59 1.106 2.182 1.579 3.307.284.676.571 1.506.637 1.844.067.338.266 1.09.444 1.669.669 2.186.79 3.539.79 8.782 0 5.428-.129 6.763-.898 9.275-.23.754-.419 1.509-.419 1.678 0 .276-.262.898-1.197 2.836-.476.986-1.872 3.014-2.606 3.784-2.227 2.338-5.627 3.93-9.372 4.391-2.17.267-5.023.3-6.358.076zm7.267-5.075c1.917-.49 2.881-1.004 4.176-2.227.862-.815 1.36-1.49 1.985-2.69.46-.882.835-1.755.835-1.94 0-.186.068-.38.15-.431.433-.268 1.256-6.536 1.254-9.538 0-2.497-.7-7.624-1.16-8.517-.134-.261-.244-.608-.244-.772 0-.496-1.565-3.436-2.208-4.148-.332-.367-.603-.734-.603-.816 0-.217-1.902-1.674-2.723-2.084-1.725-.864-4.472-1.473-4.93-1.094-.216.18-.252 2.65-.252 17.285 0 9.39.053 17.127.117 17.192.236.235 2.32.108 3.603-.22zm-55.187 1.644c1.91-.35 2.774-.984 2.93-2.145.125-.947-.1-1.214-1.84-2.174-1.212-.67-1.898-.97-3.905-1.716a11.36 11.36 0 0 1 -1.174-.505c-.211-.117-.501-.212-.645-.212-.143 0-.484-.11-.758-.246-.744-.368-3.17-1.319-4.328-1.697-.56-.183-1.233-.45-1.493-.596-.992-.551-3.978-1.684-4.208-1.596-.309.119-.124 1.498.32 2.378.17.338.517 1.064.77 1.613 1.15 2.48 3.603 4.949 6.015 6.05 1.206.55 3.86 1.073 5.589 1.1.676.012 1.903-.103 2.727-.254zm-138.364-6.62c.135-.515.492-1.652.621-1.977.363-.91.552-1.682.453-1.843-.182-.295-.717-.198-1.07.193-.185.203-.83.732-1.433 1.175-.605.444-1.099.923-1.099 1.066 0 .311.504.9.774.906.106.003.39.159.631.348.502.392 1.038.455 1.123.131zm114.41-9.719c.07-.181-.17-.561-.69-1.098-1.843-1.897-2.615-2.914-3.559-4.685-.471-.884-.876-.945-1.71-.256-.912.756-.873 1.208.176 2.048 1.05.84 3.382 3.125 3.382 3.314 0 .077.172.324.382.548.47.5 1.843.587 2.02.13zm47.753-5.87c0-3.514-.022-3.776-.321-3.834-.205-.04-.54.194-.924.642-.715.836-2.193 1.786-2.777 1.786-.613 0-.909.432-.663.972.109.238.294.434.411.434.23 0 1.471 1.255 2.843 2.875 1.388 1.64 1.43 1.554 1.43-2.875zm-15.08-6.418c.056-.149-.025-.412-.182-.585s-.285-.393-.285-.488c0-.096-.461-.882-1.025-1.746-1.034-1.586-2.74-3.32-3.894-3.959-.338-.187-.958-.533-1.377-.768-.998-.56-3.73-1.143-5.339-1.14-1.38.002-2.887.331-3.571.78-.555.363-.571 1.137-.033 1.619.501.449 3.22 1.756 5.593 2.69 1.006.395 2.086.834 2.4.975 1.126.507 1.735.754 3.206 1.302 1.346.502 2.204.84 3.513 1.384.627.26.875.244.993-.064z" fill="#1e1812"/><path d="m87.71.322c-1.294 2.999-.932 6.498-1.875 9.614-.217.718-.93 2.887-1.971 2.736-2.13-.306-1.027-4.385-3.485-4.466l.771 5.96c-3.694.463-3.19-5.284-4.689-7.618-1.73-2.694-2.147 1.222-2.031 2.427.074.772.23 1.537.323 2.307.161 1.34.2 2.507.03 3.846-3.53-.042-2.234-4.671-4.824-5.384l.193 5.576c-3.913-.033-5.697-3.553-7.415-6.537-.717-1.246-1.671-3.654-3.39-2.885.804 3.464 2.707 6.78 2.9 10.383.05.932-.832 3.297-2.128 2.862-2.996-1.006-2.594-6.423-5.09-7.848-.506-.288-1.303-.036-1.857-.013.002 2.874 1.27 6.347 2.278 9.037.217.579.826 2.613-.439 2.575-2.26-.067-2.823-4.435-5.12-3.92.282 1.178.984 2.134 1.376 3.268.239.693.682 1.394.81 2.115.281 1.577-1.724 1.705-2.764 1.4-2.458-.723-4.224-2.725-5.982-4.476-.487-.486-1.773-2.194-2.584-1.419-.902.863.87 2.378 1.372 2.957 1.502 1.73 3.127 3.756 3.844 5.96.308.948.369 2.294-.575 2.944-.936.644-2.46-.526-3.215-1.021-2.313-1.517-4.613-4.168-7.525-4.23l-.682 1.73 1.857 2.5 4.807 5.384-5.596-2.307c.226 1.458 3.73 3.224 3.04 4.726-.408.89-2.436.906-3.233.792-2.853-.405-4.871-2.521-7.525-3.28-2.343-.67-1.907 1.141-.579 2.187.461.363.905.744 1.35 1.126a42 42 0 0 1 2.316 2.14c1.17 1.166 2.196 2.413 3.28 3.654l-5.595-.193v.385l5.402 2.5-.964 3.845c-1.56-.004-2.825-.427-4.245-1.043-.968-.42-1.987-1.116-3.088-1.04-1.314.093-2.095 1.288-1.215 2.405 1.32 1.675 3.964 2.629 5.652 3.933.645.498 1.579 1.35.85 2.2-1.44 1.678-5.32-.476-7.216.083v.384c1.76 1.024 5.368 1.608 6.403 3.495.81 1.476-1.493 4.82-3.123 4.69-1.453-.117-2.788-1.75-3.86-2.608-2.563-2.053-5.307-4.468-8.296-5.884-5.126-2.429-10.216 1.44-14.279 3.96.52 1.635 2.57-.105 3.86.187 1.733.391 3.05 1.999 4.162 3.275 5.372 6.165 9.868 13.155 11.877 21.15.529 2.105 1.431 4.624-.147 6.51-.424.506-1.055.572-1.522.99-.349.312-.33.754.148.9.884.27 2.173-.14 3.04-.349 2.832-.68 6.066-2.202 7.352-4.974.8-1.724 1.081-5.079 3.068-5.768.44 1.848 2.525 4.292 2.322 6.153-.18 1.652-1.927 3.566-2.948 4.79-.361.433-1.234 1.382-.712 2.004.52.62 1.593-.714 1.917-1.018 1.464-1.378 4.665-3.555 5.534-.393.755 2.75-1.672 7.196-2.885 9.614-.338.673-1.892 2.776-1.285 3.527.7.865 2.163-1.389 2.475-1.796 1.216-1.587 5.475-6.291 7.738-4.6 2.76 2.061 1.808 3.535.762 6.33-.295.788-1.383 2.762-.643 3.511.716.725 1.656.061 2.022-.63.662-1.251 2.444-4.969 4.226-4.02 1.116.594 2.822 1.601 3.471 2.71 1.015 1.735.132 5.197-.138 7.082-.156 1.086-1.327 4.472-.355 5.257.898.724 1.624-1.454 1.894-1.988.95-1.881 2.044-3.807 3.46-5.384.507-.566 1.225-1.514 2.088-1.353 4.482.836-.097 5.285 1.742 7.556.372.46 1.382.426 1.924.527l2.316-5.96c1.177.451 2.91.608 3.778 1.579.73.815.873 2.193 1.084 3.227.59 2.896.914 5.711.54 8.653.367.263.946.873 1.438.56.623-.396.703-2.012.915-2.675.681-2.122 1.72-4.15 2.685-6.153.635-1.32 2.368-2.725 3.618-.908 1.283 1.864.77 5.124 1.571 7.253 2.05-1.007 2.273-5.258 2.316-7.307l2.657.387 1.597 3.267 2.885 8.268c1.493-.57 1.02-3.43 1.188-4.807.227-1.867.661-5.617 2.035-7.006.553-.56 1.655-.608 2.373-.878.819 1.99 1.268 4.246 2.259 6.15.386.743 1.267 1.543 2.158 1.088.852-.436.82-1.428.71-2.238-.268-1.993-.723-3.952-.882-5.961 3.825-.27 6.069 2.813 8.472 5.384.93.993 1.738 2.31 3.105 2.692l-1.983-5.769-1.104-5.384c1.388-.579 4.325-3.408 5.788-2.996 2.18.614 3.844 6.665 6.55 5.242 1.153-.606.557-1.634.015-2.438-.807-1.197-3.233-4.072-2.97-5.575.194-1.114 2.067-2.412 3.159-2.397 2.501.034 6.85 1.932 8.297 3.934l1.736-.192c-.26-3.442-5.437-5.013-6.178-8.46a2.57 2.57 0 0 1 .024-1.1c.55-2.21 1.884-1.244 3.26-.65.43.185 1.368.66 1.723.13.392-.583-.303-1.353-.557-1.842-.52-.996-.996-2.147-.78-3.268 1.803.47 2.915 1.538 4.438 2.547.36.239 1.154.837 1.609.504.478-.35-.228-1.058-.455-1.32-.68-.786-2.762-2.684-2.557-3.83.139-.772 1.448-1.6 1.982-2.131 1.764-1.756 3.773-3.544 5.21-5.577h.193c3.408 3.962 14.092 1.184 12.735-4.807-.85.122-1.64.787-2.509.489-3.8-1.306-2.882-7.373-7.14-7.41-.313-3.955-1.907-7.908-3.832-11.345-.882-1.576-2.716-3.018-3.356-4.623-.355-.89-.295-2.3-.336-3.26 2.232-.347 1.132-2.6.319-3.846-.906-1.39-1.864-3.04-3.039-4.213-1.443-1.44-3.593-2.38-3.408-4.824.172-2.277 4.109-1.988 4.777-4.039-1.167.05-2.321.339-3.473.53-2.867.476-3.367-.485-2.028-3.03 1.17-2.222 3.032-3.908 4.674-5.768.526-.595 2.147-1.95 1.312-2.812-.69-.712-1.83.375-2.415.761-2.13 1.407-4.508 2.447-6.946 3.2-.726.224-2.867 1.059-3.11-.224-.327-1.73 2.962-2.054 2.531-4.001-1.316.311-3.901 2.38-5.165 1.421-1.522-1.154.712-4.101.951-5.459.242-1.375-.868-1.426-1.649-.565-.273.3-.522.63-.774.95-.436.552-.798 1.088-1.081 1.73-3.16-1.838 2.819-3.975 1.694-5.676-.401-.607-1.141 0-1.501.314-.75.654-3.57 3.893-4.184 1.516-.678-2.63.692-5.787 1.401-8.268.186-.647 1.022-2.395.21-2.86-1.185-.68-1.704 1.612-1.982 2.284-.855 2.068-2.268 3.867-3.935 5.35-.55.489-1.481 1.437-2.304 1.211-1.195-.328-1.2-3.63-1.162-4.639.018-.48.29-1.31-.182-1.658-.614-.454-.935.457-1.027.89-.299 1.416-1.18 5.46-3.286 2.808-1.906-2.4 1.041-7.377-2.845-8.385l-2.122 6.73c-2.544-.553-1.98-4.177-1.35-6.153l-1.159-.385c-.182.785-.44 1.55-.712 2.308-1.028 2.876-2.402 3.436-3.464.192-.81-2.476-.522-5.147-.925-7.691-.16-1.015-.256-2.044-1.266-2.5z" fill="#000"/><path d="m87.904 6.09c-.114 5.494-1.779 9.61-7.911 9.615l2.122 8.652c-2.303-2.405-3.142-5.77-4.18-8.845-.66-1.95-1.499-3.912-1.801-5.96h-.193c.072 3.47.806 6.915.106 10.383-.385 1.906-1.463 3.388-2.036 5.191h-.193l1.158-8.46c-4.308.34-8.027.99-10.85-3.076-.613-.884-1.086-1.895-1.5-2.885h-.192c.483 3.218 3.358 6.972-.018 9.67-.515.413-1.11.666-1.719.906l3.05 4.607 1.774 2.315c-4.882-3.222-7.786-8.833-10.227-14.037h-.193c.623 4.142 3.149 7.886 3.777 12.114.218 1.47.79 3.548-.496 4.615l-1.544-7.307c-2.248 1.162-3.977 4.655-6.946 4.162-1.263-.21-2.285-1.229-3.474-1.662.56 1.761 2.108 3.427 1.225 5.384-.327.724-.964 1.279-1.418 1.922l6.175 2.308c-1.127 1.343-3.472.288-4.824-.343-2.562-1.196-4.841-2.777-7.14-4.408-1.305-.927-2.841-2.248-4.437-2.556.983 2.1 3.505 3.88 5.21 5.417 1.409 1.27 2.462 2.74 3.65 4.197 1.171 1.436 2.7 3.057 2.138 5-2.052-2.063-3.844-3.562-6.946-2.84-1.126.262-2.076.921-3.28.892-2.146-.053-4.218-1.142-6.175-1.898 1.136 2.428 4.131 3.736 4.77 6.537.47 2.06-1.02 4.686-1.297 6.73l6.56.962v.384c-5.625 1.483-9.59-1.596-14.857-2.5v.193c3.553 1.675 7.58 4.504 10.113 7.499.921 1.09 2.051 2.354 2.043 3.845-1.036-.837-2.995-3.023-4.437-2.802-1.151.175-1.532 1.448-1.684 2.418-.411 2.617-.44 5.428-.44 8.076-1.104-.962-.964-2.302-.964-3.654-1.373.901-2.856 2.032-4.63 1.677-1.796-.359-3.584-2.562-4.825-3.792-2.45-2.429-5.167-4.825-8.683-5.302-1.833-.249-7.387.008-4.905 2.799.256.288.513.587.86.767 1.307.68 4.096-.187 5.589-.187v.193l-4.824.961c1.938 4.048 6.135.42 8.49 2.884-1.609-.474-4.372-.474-5.982 0l2.696 3.461 1.239 1.615 4.556.5v.193h-4.054c.24 2.117 2.697 1.54 4.245 1.346v.192l-3.28.577c.515 1.191 1.775 4.725 2.97 5.267.935.424 2.236-.395 3.012-.845-1.065 1.936-2.97 1.156-1.93 3.846l3.088-1.538c-.689.773-1.845 1.384-2.31 2.31-.536 1.068.37 3.003.766 4.035l3.087-2.307-2.938 3.286.237 3.443c2.586-1.073 4.682-2.978 5.786-5.576.457-1.078.505-2.427 1.05-3.435.4-.737 1.553-.619 1.785-1.416.444-1.525-.501-2.763.255-4.378h.193l.579 3.076c1.949-.545 3.11-3.6 3.666-5.384h.386c.538 2.468-1.703 4.066-2.509 6.153 1.362.315 3.812.973 3.666 2.692l-4.823-1.73 3.666 8.076h.193c1.765-2.659 3.47-6.887 5.981-8.845.877 2.836-2.161 5.141-3.28 7.499 1.655-.451 4.655-2.665 6.175-1.73-2.127.881-4.016 2.153-5.578 3.845-.514.556-1.454 1.49-1.443 2.307.012.835 1.042 1.846 1.507 2.5 1.686 2.373 3.724 4.872 6.285 6.345 1.049-1.985 1.934-3.97 2.484-6.153.253-1.002.212-2.351 1.183-2.884.944 5.305-2.864 11.152-4.053 16.151 3.628-3.065 5.818-8.022 10.42-9.998-.106 2.472-4.094 3.78-4.307 6.534-.075.967 1.13 1.47 1.798 1.93 1.872 1.293 3.455 2.729 5.596 3.591.77.31 1.498.963 2.214.219 1.3-1.354 1.412-3.984 1.205-5.737-.132-1.11-.595-2.807.248-3.653l1.343 7.883-.765 9.23h.193c1.804-4.568 3.403-9.534 6.947-13.075.02 2.41-2.715 5.798-3.666 8.076 3.618 1.686 7.858 2.705 11.77 3.46.306-2.415.217-4.749-.416-7.114-.283-1.059-1.214-2.475-.549-3.46 2.393 5.131 5.013 10.337 5.017 16.15h.193c.002-3.525.62-7.122 1.312-10.575.127-.63.309-3.229 1.203-3.229.976 0 .594 1.557.497 2.076-.439 2.36-.972 4.733-1.276 7.114l8.298-.207 2.889-.512-.078-2.934-3.97-6.922c1.51-.344 3.002 2.334 3.703 3.46 2.555 4.107 4.277 9.341 5.367 14.037h.193c-.504-6.355-2.167-12.22-1.351-18.651 1.878.751.866 5.487 1.103 7.307.077.586-.011 2.116.695 2.348.66.217 1.817-.35 2.447-.554 2.27-.738 4.393-1.802 6.56-2.79.828-.377 2.002-.838 2.061-1.89.21-3.703-3.134-4.756-5.34-6.728 1.947-.202 3.368 1.07 4.823 2.196 2.173 1.681 4.314 3.59 6.09 5.687 1.023 1.209 1.781 2.83 2.98 3.846-.661-2.065-2.253-4.005-3.234-5.96-1.9-3.792-3.369-7.898-3.906-12.115h.193l3.666 9.614c1.993-.675 3.61-3.034 4.899-4.614.58-.711 1.297-1.365 1.275-2.308 3.24-1.16-.914-3.722-1.543-4.807 2.243-.336 4.261 1.828 6.367 2.308-.938-2.004-2.571-4.623-2.122-6.922h.386l1.35 3.845c3.38-3.114 7.383-6.31 9.9-10.19 3.553-5.482 3.53-12.413 1.044-18.267-.68-1.603-1.33-3.876-2.529-5.164-1.708-1.832-3.185 1.252-3.398 2.664.84.125 1.607.407 2.315.884 2.617 1.765 2.751 4.859 1.65 7.576-.467 1.153-1.332 2.182-1.415 3.461-.104 1.585.752 3.09 1.027 4.615.456 2.532-.787 5.227-2.612 6.904-1.693 1.556-4.065 2.414-6.368 2.075-1.064-.156-2.197-1.158-3.279-.76-1.697.625-2.027 3.185-3.088 4.472-.479-2.891 1.723-4.556 2.183-7.115.24-1.33-.738-3.534-1.155-4.807-.329-1.007-.838-3.84-2.377-3.263-.993.373-1.493 1.497-2.075 2.302-1.375 1.898-2.624 4.223-5.066 4.807.897-2.308 3.33-4.239 4.69-6.345 2.7-4.18 5.563-11.245 1.988-15.767-1.077-1.363-2.806-2.326-4.363-3.054-2.14-1.002-4.497-1.314-6.753-1.946v-.383l2.701-.385-.579-4.23-1.736.577c.02-7.04 7.09-10.88 11.963-14.614l-.89 2.5 2.405 3.653 4.853 7.5-1.93-.193c.372 2.754 1.033 5.334.058 8.076-.626 1.762-2.167 3.23-2.633 5-.236.891.193 1.795.194 2.691.001 1.25-.43 2.452-.706 3.653 3.456-1.638 4.117-6.663 7.718-7.883-.294-1.702-1.02-3.238-1.14-5-.262-3.799.492-7.555-.102-11.344-.65-4.146-2.462-7.861-3.968-11.729l1.737.77c.4-2.66 2.599-4.098 4.052-6.154-2.23.809-5.657 3.565-8.104 2.113-1.688-1-2.3-3.204-4.052-4.036l-2.316 9.23h-.193c-1.018-4.262 1.168-8.293 2.123-12.306-2.94 2.37-4.994 5.36-9.07 5.96l5.597-4.055 1.283-1.872-1.67-1.437-4.244-3.019 1.93.385.771-6.153h-.193a11.408 11.408 0 0 1 -1.561 2.115c-.797.858-1.844 2.23-2.988 2.622-2.245.77-5.345-1.836-7.414-2.43v8.845c-1.971-.328-1.715-2.311-1.736-4.038-.046-3.8-.165-7.54-.001-11.344h-.193c-.577 4.275-1.984 10.366-6.174 12.498 1.199-1.92 2.34-3.559 2.975-5.768.187-.652.736-1.764.048-2.281-1.945-1.459-4.927-.212-6.525-2.53-1.57-2.277-.54-5.179-1.515-7.495z" fill="url(#a)"/><path d="m76.168 10.128.228.193zm-.227.577.227.193z" fill="#0f0d06"/><path d="m99.095 11.474.228.228z" fill="#0e0b05"/><path d="m86.939 11.859.228.227z" fill="#0f0d06"/><path d="m98.902 12.244.228.227z" fill="#0d0b05"/><path d="m86.746 12.436.228.227z" fill="#0f0d06"/><path d="m54.908 13.974.228.227z" fill="#fff"/><path d="m85.781 13.974.193.192zm-.193.192.193.193zm4.438.193.193.192zm-26.435.192.193.192zm26.821 0 .193.192zm-34.925.192.193.193zm9.455 0 .193.193zm25.856 0 .193.193z" fill="#0f0d06"/><path d="m65.521 15.32.193.227zm17.366 0 .193.227z" fill="#0f0e07"/><path d="m113.374 15.32.228.227z" fill="#0d0b05"/><path d="m113.245 15.64.076.152-.076-.151z" fill="#fff"/><path d="m55.487 15.705.193.227zm39.556 0 .193.227z" fill="#0f0d06"/><path d="m63.977 16.474.228.227z" fill="#0f0e07"/><path d="m112.988 16.474.228.227z" fill="#0e0b05"/><path d="m56.452 18.204.193.193zm.965 0 .193.193zm.193.385.193.192z" fill="#0f0e07"/><path d="m86.167 19.358-3.087 13.844c2.378-1.444 2.88-6.71 3.087-9.23h.193c.413 2.218.614 4.439 1.52 6.538.358.832.752 1.94 1.76 1.923l-2.47-8.653z" fill="#000"/><path d="m79.22 19.55.194.193-.193-.193zm-16.4.385.193.192zm-.965.769.193.192zm-.965.384.193.193zm24.698.577.193.193z" fill="#0f0e07"/><path d="m67.258 21.858c.04 4.916 2.48 9.391 1.543 14.42.926-.563.952-1.881.964-2.884.028-2.326-.379-4.606-.385-6.922h.193c.672 2.324 2.495 6.945 5.21 7.307-.326-1.25-1.352-2.194-2.039-3.269-1.525-2.387-3.02-7.203-5.486-8.652z" fill="#000"/><path d="m59.54 22.05.227.227-.228-.227z" fill="#0f0e07"/><path d="m67.643 22.05.228.227z" fill="#0f0e08"/><path d="m94.078 22.242.228.228z" fill="#0f0d06"/><path d="m85.395 22.627.193.227zm9.455 0 .193.227z" fill="#0f0e07"/><path d="m111.251 22.627.228.227z" fill="#0f0d06"/><path d="m94.657 22.819.193.227zm-1.157.227.192.228zm.964 0 .193.228z" fill="#0f0e07"/><path d="m68.415 23.204.193.227zm12.735.227.193.227z" fill="#0f0e08"/><path d="m112.41 23.396.227.227-.228-.227z" fill="#0d0b05"/><path d="m93.5 23.78.227.228z" fill="#0f0e07"/><path d="m106.813 23.973c-2.145 3.357-4.702 7.938-7.91 10.383v.192c2.432-.432 5.061-3.496 5.788-5.768h.193c-.028 3.42-1.606 7.046-.193 10.383h.193c1.027-3.461.492-7.545 1.376-11.152.277-1.132 1.298-3.018.553-4.038z" fill="#000"/><path d="m57.03 24.357.229.228-.228-.228z" fill="#0f0e07"/><path d="m69.187 24.55.193.192zm-10.612.384.193.192zm-1.351.192.193.193zm4.438 0 .193.193zm25.663 0 .193.193zm-1.544.385.193.192z" fill="#0f0e08"/><path d="m106.813 25.511.228.227z" fill="#0f0d06"/><path d="m118.584 25.703.193.228zm-72.359.228.193.227z" fill="#fff"/><path d="m69.959 25.896.228.227z" fill="#0f0e08"/><path d="m118.584 25.896.228.227z" fill="#0e0b05"/><path d="m105.27 26.28.228.227z" fill="#0f0e07"/><path d="m63.206 26.665.227.227z" fill="#0f0e08"/><path d="m99.481 26.665.228.227z" fill="#0f0e07"/><path d="m64.942 27.05.228.227-.228-.228z" fill="#0e0d08"/><path d="m65.135 27.241.228.228z" fill="#0f0e08"/><path d="m104.498 27.241.228.228z" fill="#0f0e07"/><path d="m65.328 27.434.228.227z" fill="#010101"/><path d="m49.506 27.626.227.227z" fill="#0f0e07"/><path d="m117.04 27.626.193.192zm-.193.192.193.193zm-80.655.385.193.192z" fill="#0f0d06"/><path d="m47.383 28.203.228.227z" fill="#0f0e07"/><path d="m70.345 28.395.228.228z" fill="#0e0d08"/><path d="m104.884 28.587.228.228z" fill="#0f0e07"/><path d="m114.146 28.587.228.228z" fill="#0f0d06"/><path d="m116.075 28.587.228.228z" fill="#0e0b05"/><path d="m104.69 28.78.229.227-.228-.227z" fill="#0f0e07"/><path d="m68.608 29.549.228.227z" fill="#0e0d08"/><path d="m117.233 29.741.228.228z" fill="#0f0d06"/><path d="m69.573 30.126.228.227z" fill="#0e0d08"/><path d="m111.637 30.318.228.227z" fill="#0e0b05"/><path d="m72.66 30.51.228.228z" fill="#0e0d08"/><path d="m120.706 30.895.228.227z" fill="#0f0d06"/><path d="m131.126 30.895.228.227z" fill="#fff"/><path d="m73.046 31.087.228.227z" fill="#0e0d08"/><path d="m103.147 31.087.228.227z" fill="#0f0e07"/><path d="m131.126 31.087.228.227z" fill="#0e0b05"/><path d="m130.354 31.28.193.227-.193-.228zm.579 0 .193.227-.193-.228z" fill="#0d0b05"/><path d="m102.761 31.472.228.227z" fill="#0f0e07"/><path d="m130.74 31.472.228.227z" fill="#0e0b05"/><path d="m72.081 31.664.228.227z" fill="#0e0d08"/><path d="m94.078 31.664c-1.139 2.561-1.695 4.94-4.052 6.73v.384c1.694.445 2.874-1.673 3.28-3.076h.194c.167 1.292.325 3.978 1.736 4.422l-.947-4.422-.21-4.038z" fill="#000"/><path d="m121.285 31.664.228.227z" fill="#0f0d06"/><path d="m130.547 31.664.228.227z" fill="#0d0b05"/><path d="m52.786 31.856c.417 4.73 6.8 7.926 5.982 13.075 1.026-.597.756-1.712.412-2.692-.713-2.026-1.905-3.799-2.728-5.768 1.846 1.68 4.575 3.578 7.14 2.5l-4.05-1.672z" fill="#000"/><path d="m130.354 31.856.228.228z" fill="#0e0b05"/><path d="m130.161 32.048.228.228z" fill="#0d0b05"/><path d="m118.005 32.24.228.228-.228-.227z" fill="#0f0d06"/><path d="m128.424 32.24.228.228-.228-.227z" fill="#0d0b05"/><path d="m129.968 32.24.228.228-.228-.227z" fill="#0e0b05"/><path d="m72.66 32.433.228.227z" fill="#0e0d08"/><path d="m101.99 32.433.227.227z" fill="#0f0e07"/><path d="m129.775 32.433.228.227z" fill="#0d0b05"/><path d="m52.786 32.625.193.228zm49.01 0 .194.228-.193-.228z" fill="#0f0e08"/><path d="m129.582 32.625.228.228z" fill="#0e0b05"/><path d="m54.137 32.818.227.227z" fill="#0f0e07"/><path d="m129.39 32.818.227.227-.228-.227z" fill="#0d0b05"/><path d="m43.331 33.01.228.227z" fill="#0f0e07"/><path d="m101.446 33.01.227.227zm-.228.227.228.228z" fill="#0f0e08"/><path d="m40.823 33.394.228.228z" fill="#0f0e07"/><path d="m73.625 33.394.228.228z" fill="#0e0d08"/><path d="m79.414 33.394c-.584 1.914-2.222 5.651-1.544 7.5h.386l1.35-4.615h.194c.476 1.74.976 4.38 3.087 4.614l-3.087-7.499z" fill="#000"/><path d="m41.016 33.587.227.227z" fill="#0f0e08"/><path d="m128.617 33.587.228.227z" fill="#0d0b05"/><path d="m41.209 33.779.227.227z" fill="#0f0e07"/><path d="m47.383 33.779.193.227zm52.098 0 .193.227z" fill="#0f0e08"/><path d="m41.402 33.971.227.228z" fill="#0f0e07"/><path d="m44.875 33.971.228.228z" fill="#0f0e08"/><path d="m93.114 33.971.193.228zm1.157 0 .193.228z" fill="#0e0d08"/><path d="m99.288 33.971.228.228z" fill="#0f0e08"/><path d="m41.595 34.164.227.227z" fill="#0f0e07"/><path d="m99.095 34.164.193.192zm-43.029.384.193.192z" fill="#0e0d08"/><path d="m104.112 34.548.228.228z" fill="#0f0e08"/><path d="m54.137 35.125.193.227zm38.398.227.193.228z" fill="#0e0d08"/><path d="m47.962 35.51.193.227zm-4.824.227.193.227z" fill="#0f0e08"/><path d="m57.417 35.702.193.227zm11.384 0 .193.227z" fill="#0e0d08"/><path d="m117.233 35.702.228.227z" fill="#0f0d06"/><path d="m69.187 36.086.193.193zm10.42.193.193.192zm13.893 0 .192.192zm-38.013.769.193.192z" fill="#0e0d08"/><path d="m126.688 37.048.228.227z" fill="#0d0b05"/><path d="m57.996 37.625.228.227z" fill="#0e0d08"/><path d="m125.723 37.625.228.227z" fill="#0d0b05"/><path d="m56.066 37.817.193.227zm35.697.227.193.228z" fill="#0e0d08"/><path d="m66.486 38.201.965 8.076h.385l-.193-5.768c1.259.873 2.961 3.025 4.631 2.307-.644-.695-1.578-.818-2.314-1.412-1.198-.966-1.83-3.073-3.474-3.203z" fill="#000"/><path d="m57.417 38.586.193.192zm32.61.192.192.193-.193-.193zm-33.189.193.193.192zm20.84 0 .192.192-.193-.192z" fill="#0e0d08"/><path d="m104.498 38.97.193.228-.193-.227zm.386 0 .193.228-.193-.227z" fill="#0f0e08"/><path d="m108.936 39.355c-2.035 2.034-3.735 3.431-6.56 4.23v.385c1.67.478 3.287-.446 4.63-1.346-.22 1.129-1.664 4.084-.578 4.807l1.853-5.576z" fill="#000"/><path d="m68.222 39.547.193.228zm-21.997.228.193.227zm31.066 0 .193.227zm17.945 0 .193.227z" fill="#0e0d08"/><path d="m108.357 39.74.228.227z" fill="#0f0d06"/><path d="m33.104 40.124.228.228z" fill="#0f0e07"/><path d="m82.308 40.124.228.228z" fill="#0e0d08"/><path d="m43.524 40.317.228.227z" fill="#0f0e08"/><path d="m126.88 40.317.229.227-.228-.227z" fill="#0d0b05"/><path d="m57.61 40.509.193.227zm.772 0 .193.227zm19.874 0 .193.227zm-33.574.227.193.228z" fill="#0e0d08"/><path d="m107.2 41.086.192.227-.193-.227zm1.157.227.193.227z" fill="#0f0e08"/><path d="m120.513 41.278.228.227z" fill="#0f0d06"/><path d="m32.526 41.47.227.228z" fill="#010101"/><path d="m69.187 41.663.193.227zm-10.227.227.193.227zm11.578 0 .193.227z" fill="#0e0d08"/><path d="m33.104 42.047.228.227z" fill="#0f0e07"/><path d="m105.849 42.047.227.227z" fill="#0f0e08"/><path d="m69.959 42.24.193.227-.193-.228zm2.122.227.193.227z" fill="#0e0d08"/><path d="m106.62 42.624.228.227z" fill="#0f0e08"/><path d="m70.924 42.816.193.228zm.386.228.193.227zm32.61 0 .192.227-.193-.227z" fill="#0e0d08"/><path d="m116.268 43.009.193.227zm-82.199.227.193.227z" fill="#0f0e07"/><path d="m111.058 51.853c4.415-1.059 9.243-1.685 13.7-.769-.664-2.297-2.385-4.183-3.911-5.96-.522-.608-1.187-1.732-2.071-1.799-1.047-.079-1.96.927-2.7 1.508-2.168 1.702-4.036 4.436-5.018 7.02z" fill="url(#c)"/><path d="m105.077 43.585.228.228z" fill="#0e0d08"/><path d="m115.496 43.585.228.228z" fill="#0f0e07"/><path d="m75.94 43.778-1.157 5.96c.968-.731 1.193-3.065 1.35-4.23l1.737 1.923c-.203-1.296-.962-2.763-1.93-3.653z" fill="#000"/><path d="m102.375 43.97.228.227z" fill="#0e0d08"/><path d="m106.62 43.97.193.227zm13.314.227.193.228z" fill="#0f0e08"/><path d="m94.85 44.354-3.666 3.654 3.473-2.5.58 3.461c.674-.985.32-3.686-.387-4.615zm-40.906.577v.193c1.626 1.635 2.964 3.888 3.98 5.96.559 1.141.4 2.4 1.615 3.077-.097-2.248-1.061-3.953-1.93-5.96 1.368.794 3.2 1.981 4.825 1.537v-.384c-2.19-.97-3.885-1.795-5.789-3.306-.811-.644-1.641-1.476-2.701-1.117z" fill="#000"/><path d="m116.075 44.739.193.192zm-39.17.385.193.192zm-22.768.192.193.192zm22.961.192.193.192z" fill="#0e0d08"/><path d="m121.092 45.508.228.228z" fill="#0f0e08"/><path d="m76.52 45.7.227.228-.228-.228z" fill="#0e0d08"/><path d="m113.374 45.7.228.228z" fill="#0f0e08"/><path d="m123.022 45.7.228.228z" fill="#0f0d06"/><path d="m35.42 45.893.228.227z" fill="#0f0e08"/><path d="m93.114 45.893.193.227zm1.543 0 .193.227zm11.385 0 .193.227zm-49.397.227.193.227zm19.296 0 .193.227z" fill="#0e0d08"/><path d="m128.81 46.085.228.227z" fill="#0f0d06"/><path d="m114.339 46.277.228.228z" fill="#0f0e08"/><path d="m93.307 46.47.227.227z" fill="#0e0d08"/><path d="m41.016 46.662c.18 1.621 1.513 2.227 2.701 3.122 1.63 1.23 3.146 2.56 4.392 4.184.812 1.058 1.312 2.887 2.361 3.654-.225-2.827-1.9-6.154-4.63-7.307v-.192c2.777.537 5.542 1.565 8.297.384v-.384l-3.28-.129z" fill="#000"/><path d="m55.294 46.662.193.192zm36.662.192.193.192zm14.472 0 .192.192zm-48.625.192.193.193zm33.96 0 .193.193z" fill="#0e0d08"/><path d="m123.986 47.046.228.228z" fill="#0f0d06"/><path d="m112.023 47.239.228.227z" fill="#0f0e08"/><path d="m130.74 47.239.386 4.614 4.245.577c-.71-1.868-2.738-4.46-4.631-5.191z" fill="url(#d)"/><path d="m77.87 47.431.228.227z" fill="#0e0d08"/><path d="m84.045 47.431-1.737 3.269 1.93-2.115 1.157 1.922z" fill="#000"/><path d="m106.235 47.431.227.227z" fill="#0e0d08"/><path d="m130.74 47.431.228.227z" fill="#0d0b05"/><path d="m55.873 47.623.193.228zm2.702 0 .193.228z" fill="#0e0d08"/><path d="m122.829 47.623.228.228z" fill="#0f0d06"/><path d="m35.034 47.816.228.227z" fill="#0f0e08"/><path d="m83.466 48.008.193.192zm-23.927.192.193.192zm-1.157.385.193.192zm37.047 0 .193.192zm37.048 0 .192.192zm-48.24.192.194.192-.193-.192zm48.432 0 .193.192zm-85.479.192.193.192zm85.672 0 .193.192zm-89.917.192.193.193zm42.064 0 .193.193z" fill="#0e0d08"/><path d="m34.648 49.546.228.227z" fill="#0f0e08"/><path d="m43.524 49.546.228.227z" fill="#0e0d08"/><path d="m112.216 49.546.228.227z" fill="#0d0b05"/><path d="m74.976 49.738.193.228zm8.104.228.193.227z" fill="#0e0d08"/><path d="m34.455 50.315.228.228z" fill="#0f0e08"/><path d="m47.19 50.315.193.228zm11.385 0 .193.228zm-.965.228.193.227z" fill="#0e0d08"/><path d="m111.637 50.507.228.228z" fill="#0d0b05"/><path d="m119.934 50.507.228.228z" fill="#0f0e08"/><path d="m123.408 50.7.227.227z" fill="#0d0b05"/><path d="m45.454 51.084.193.228zm12.542.228.193.227z" fill="#0e0d08"/><path d="m134.985 51.661.228.228z" fill="#0d0b05"/><path d="m102.568 52.046-3.28 2.5 2.895-1.539-.386 2.307c.82-.57 1.126-2.362.771-3.268z" fill="#000"/><path d="m121.864 63.583c1.464-.695 2.164-2.357 2.56-3.846.486-1.833 1.118-6.665-1.218-7.575-1.285-.501-3.43.076-4.815.076-1.254 0-3.928-.19-4.9.741-.898.86-.227 4.101.434 4.975.686.907 2.319 1.086 3.308 1.549 1.972.921 3.56 2.164 4.631 4.08z" fill="#fff"/><path d="m127.267 52.238.228.227z" fill="#0f0d06"/><path d="m134.213 52.238.193.227zm1.158 0-.193.455z" fill="#0d0b05"/><path d="m123.794 52.43.227.228z" fill="#020202"/><path d="m135.37 52.43.229.228-.228-.228z" fill="#fff"/><path d="m35.42 52.623.228.227z" fill="#0f0e08"/><path d="m101.41 52.623.229.227-.228-.227z" fill="#0e0d08"/><path d="m30.21 52.815.228.227z" fill="#0f0e07"/><path d="m113.181 52.815.193.227zm10.805 0 .193.227zm-64.64.227.193.228zm42.644 0 .193.228z" fill="#0e0d08"/><path d="m31.368 53.2.228.227-.228-.228z" fill="#0f0e08"/><path d="m100.446 53.2.228.227-.228-.228z" fill="#0e0d08"/><path d="m124.18 53.2.227.227-.228-.228z" fill="#020202"/><path d="m130.74 53.2v1.73c3.499-1.261 4.291 3.84.579 3.653l.772 4.423c2.585-1.203 3.776-7 1.653-9.169-.64-.654-2.137-.57-3.004-.638z" fill="#fff"/><path d="m29.052 53.392.228.227z" fill="#0f0e07"/><path d="m49.12 53.584.193.227zm51.905 0 .193.227zm9.648 0 .193.227z" fill="#0e0d08"/><path d="m124.372 53.584.193.227zm9.262 0 .193.227z" fill="#020202"/><path d="m29.631 53.776.228.228z" fill="#0f0e07"/><path d="m110.287 53.776.193.228zm-51.134.228.193.227z" fill="#0e0d08"/><path d="m120.9 53.968c-.396.405-.973.7-1.263 1.195-2.04 3.475 5.668 3.565 3.49-.193-.248-.427-.688-.706-1.07-1.002l-1.158.577v-.577z" fill="#000"/><path d="m121.092 53.968v.228h.772z" fill="#020202"/><path d="m124.565 53.968.228.228z" fill="#010101"/><path d="m30.21 54.16.228.228-.228-.227z" fill="#0f0e07"/><path d="m120.385 54.289.076.151z" fill="#020202"/><path d="m120.642 54.225.129.076zm.257.151v.228l.965-.228z" fill="#010101"/><path d="m122.25 54.16.228.228-.228-.227z" fill="#020202"/><path d="m120.127 54.353.228.227z" fill="#010101"/><path d="m122.636 54.353.228.227z" fill="#050505"/><path d="m30.789 54.545.228.228z" fill="#0f0e07"/><path d="m119.934 54.545.228.228z" fill="#010101"/><path d="m131.319 54.545.579.455v-.227z" fill="#020202"/><path d="m131.512 54.545.228.228z" fill="#050505"/><path d="m131.705 54.545.228.228z" fill="#010101"/><path d="m132.09 54.545.228.228-.227-.228z" fill="#020202"/><path d="m132.284 54.545.227.228z" fill="#010101"/><path d="m49.699 54.738.227.227z" fill="#0e0d08"/><path d="m80.379 54.738c0 .979-.19 1.971.771 2.5v-1.924l2.316.77z" fill="#000"/><path d="m80.764 54.738.228.227z" fill="#0e0d08"/><path d="m130.933 54.738.228.227z" fill="#020202"/><path d="m131.126 54.738.386.454v-.454zm.965 0 .193.227z" fill="#010101"/><path d="m81.343 54.93.228.227z" fill="#0e0d08"/><path d="m119.548 54.93.228.227z" fill="#010101"/><path d="m130.354 54.93.228.227z" fill="#0f0e08"/><path d="m130.547 54.93.228.227z" fill="#050505"/><path d="m92.149 57.43.965-1.731 1.157.77c-.848-2.262-2.109-.643-2.122.96z" fill="#000"/><path d="m123.215 55.122.193.228zm7.139 0 .193.228z" fill="#010101"/><path d="m68.801 55.314c.341 1.242.876 2.302 1.93 3.077l-1.158-2.5 2.316.193c-.598-1.08-1.999-.77-3.088-.77z" fill="#000"/><path d="m71.503 55.314.193.228zm9.647 0 .193.228z" fill="#0e0d08"/><path d="m130.161 55.314.228.228z" fill="#fff"/><path d="m32.14 55.507.227.227z" fill="#0f0e08"/><path d="m93.692 55.507.228.227z" fill="#0e0d08"/><path d="m129.968 55.507.228.227z" fill="#fff"/><path d="m81.922 55.699.228.227z" fill="#0e0d08"/><path d="m58.96 56.468 2.702 3.269-1.544-2.692 2.316-.385-.193-.769z" fill="#000"/><path d="m69.573 55.891.228.228z" fill="#0e0d08"/><path d="m123.408 55.891.227.228z" fill="#050505"/><path d="m129.775 55.891v.577h.228z" fill="#fff"/><path d="m68.994 56.084.228.227z" fill="#0e0d08"/><path d="m129.775 56.468.228.228z" fill="#050505"/><path d="m50.278 56.66.192.228zm8.682 0 .193.228z" fill="#0e0d08"/><path d="m129.775 56.66v.577h.228z" fill="#fff"/><path d="m123.086 57.004.064.152zm10.741-.151.193.227z" fill="#010101"/><path d="m49.892 57.045.193.227zm30.68 0 .192.227zm-46.31.227.193.228zm35.311 0 .193.228z" fill="#0e0d08"/><path d="m119.741 57.237.228.228z" fill="#050505"/><path d="m34.455 57.43.228.227z" fill="#0f0e08"/><path d="m129.968 57.43.228.227z" fill="#fff"/><path d="m122.443 57.622.228.227z" fill="#010101"/><path d="m129.968 57.622.228.227z" fill="#050505"/><path d="m120.513 57.814.228.228z" fill="#020202"/><path d="m120.706 57.814.193.228zm1.287.076.128.076z" fill="#010101"/><path d="m130.161 57.814.228.228z" fill="#fff"/><path d="m133.313 57.942.076.152z" fill="#010101"/><path d="m133.441 57.814.228.228z" fill="#050505"/><path d="m35.034 58.006.228.228z" fill="#010101"/><path d="m121.285 58.006.228.228z" fill="#050505"/><path d="m130.354 58.006.228.228z" fill="#fff"/><path d="m113.953 58.199.228.227z" fill="#010101"/><path d="m130.547 58.199.228.227z" fill="#fff"/><path d="m130.933 58.199.228.227z" fill="#010101"/><path d="m39.472 61.852v.385l5.596 1.922c-.114-1.46-2.01-1.897-3.28-2.115l3.859-3.46c-2.051-.24-4.513 2.25-6.175 3.268z" fill="#000"/><path d="m130.74 58.391.228.227z" fill="#050505"/><path d="m130.933 58.391.228.227z" fill="#fff"/><path d="m131.126 58.391.228.227z" fill="#020202"/><path d="m131.898 58.391v.227h.579z" fill="#010101"/><path d="m35.613 58.583.228.228z" fill="#0f0e08"/><path d="m124.565 58.583.193.228zm7.333 0 .193.228z" fill="#0e0d08"/><path d="m115.496 58.776.228.227z" fill="#010101"/><path d="m47.576 61.083v.384l4.245 1.52 2.509 1.75c-.275-2.043-2.45-2.386-3.86-3.462 1.793-.336 4.226-.365 5.017-2.307l-7.91 2.115z" fill="#000"/><path d="m111.83 59.16.228.227z" fill="#0e0d08"/><path d="m116.461 59.16.228.227z" fill="#010101"/><path d="m43.138 59.352.193.193zm10.806.193.193.192zm1.157 0 .193.192zm79.305 0 .193.192zm-97.828.192.193.192z" fill="#0e0d08"/><path d="m134.406 59.737.228.227z" fill="#020202"/><path d="m42.173 59.93.193.192-.193-.193zm12.542 0 .193.192-.193-.193zm69.464.192.193.192zm7.333 0 .193.192zm-89.917.192.192.192z" fill="#0e0d08"/><path d="m126.109 60.314.193.192zm-110.178.384.193.193z" fill="#0f0d06"/><path d="m131.512 60.698.228.228z" fill="#010101"/><path d="m35.806 61.083.228.227z" fill="#0e0d08"/><path d="m74.783 62.429.579-1.346c-.821.13-1.468.763-.58 1.346z" fill="#000"/><path d="m40.244 61.275.228.228z" fill="#0e0d08"/><path d="m17.09 61.467.227.228-.228-.228z" fill="#0f0d06"/><path d="m117.619 61.467.228.228z" fill="#0f0e08"/><path d="m50.856 61.66.228.227z" fill="#0e0d08"/><path d="m131.705 61.66.228.227z" fill="#010101"/><path d="m36.385 61.852.228.227z" fill="#0e0d08"/><path d="m118.198 61.852.228.227z" fill="#0f0e07"/><path d="m123.408 61.852.227.227z" fill="#0e0d08"/><path d="m7.248 62.044.228.228z" fill="#0e0b05"/><path d="m17.861 62.044.228.228z" fill="#0f0d06"/><path d="m31.754 62.044.228.228z" fill="#0f0e08"/><path d="m133.248 62.044.228.228z" fill="#020202"/><path d="m52.207 62.237.228.227z" fill="#0e0d08"/><path d="m81.73 62.237-.194 1.346c.604-.353.707-.668.58-1.346h-.387z" fill="#000"/><path d="m82.115 62.237.228.227z" fill="#0e0d08"/><path d="m89.833 63.583.58-1.346c-.75.215-1.37.751-.58 1.346z" fill="#000"/><path d="m123.215 62.237.227.227z" fill="#010101"/><path d="m133.055 62.237.228.227z" fill="#020202"/><path d="m51.242 62.621.228.228z" fill="#0e0d08"/><path d="m121.285 62.621.228.228z" fill="#010101"/><path d="m125.144 62.621.228.228z" fill="#0f0e07"/><path d="m132.704 62.621.228.228zm-.227.228.227.227z" fill="#010101"/><path d="m53.365 63.006.228.227z" fill="#0e0d08"/><path d="m19.212 63.198.227.227z" fill="#0f0d06"/><path d="m121.671 63.198.228.227z" fill="#0e0d08"/><path d="m11.3 63.39.228.228-.227-.228z" fill="#0e0b05"/><path d="m81.922 63.39.193.228zm7.525 0 .193.228z" fill="#0e0d08"/><path d="m95.622 64.736v.77l1.93-1.347z" fill="#000"/><path d="m53.558 64.352.193.227zm42.836 0 .193.227zm.965 0 .193.227z" fill="#0e0d08"/><path d="m104.884 64.352v2.307c.728-.707.728-1.6 0-2.307z" fill="#000"/><path d="m130.547 64.352.228.227z" fill="#0f0d06"/><path d="m138.458 64.352.228.227z" fill="#0d0b05"/><path d="m96.2 64.544.194.227-.193-.227zm.966 0 .193.227zm7.525 0 .193.227z" fill="#0e0d08"/><path d="m123.986 64.544.228.227z" fill="#0f0e07"/><path d="m129.582 64.736.228.228z" fill="#0f0d06"/><path d="m96.008 65.313.193.227zm-27.593.227.193.228z" fill="#0e0d08"/><path d="m66.872 68.197 2.315.577-1.285-1.234.706-1.842c-.93.48-1.5 1.498-1.736 2.5z" fill="#000"/><path d="m130.74 65.698.228.227z" fill="#0e0d05"/><path d="m122.829 74.158v.192c4.855.612 7.041-1.7 10.612-4.422-.512 1.377-3.06 3.145-2.992 4.422.072 1.368 2.23 1.494 3.185 1.117 1.824-.72 2.977-2.727 3.373-4.578.823-3.842-4.238-6.987-7.407-4.535-2.716 2.102-3.915 5.693-6.771 7.804z" fill="url(#e)"/><path d="m11.686 66.082.228.228z" fill="#010101"/><path d="m31.947 69.928c.25 1.434 1.677.664 2.701.594 1.472-.1 4.204.375 5.017 1.713l1.35-.192c-.345-2.176-3.493-2.172-5.21-2.307 1.264-1.273 3.074-1.652 3.474-3.654z" fill="#000"/><path d="m137.107 66.082.228.228z" fill="#0d0b05"/><path d="m22.492 66.274.228.228z" fill="#0f0e07"/><path d="m139.423 66.467.228.227z" fill="#0d0b05"/><path d="m17.282 66.659.228.227z" fill="#0f0d06"/><path d="m67.45 66.659.193.192-.192-.192zm-29.715.192.193.193zm29.908.193.193.192z" fill="#0e0d08"/><path d="m23.843 67.428.227.228z" fill="#0f0e07"/><path d="m36.964 67.428.193.228zm1.543 0 .193.228z" fill="#0e0d08"/><path d="m12.072 67.62.228.228z" fill="#0e0b05"/><path d="m76.52 67.62-2.123 2.692 2.701.962-1.93-1.154c.402-.84 1.979-1.568 1.351-2.5z" fill="#000"/><path d="m136.529 67.62.227.228z" fill="#0e0d05"/><path d="m28.86 67.813.227.227-.228-.227z" fill="#0f0e07"/><path d="m36.385 67.813.193.227zm30.294 0 .193.227z" fill="#0e0d08"/><path d="m24.614 68.005.193.227zm3.86 0 .192.227z" fill="#0f0e07"/><path d="m37.735 68.197.193.228zm21.804 0 .193.228z" fill="#0e0d08"/><path d="m59.732 68.197-2.315 2.115c.903.305 2.99 1.49 3.666.577l-2.508-.961 1.157-1.73zm49.976 0 2.701 2.115v.385l-2.508 1.346c1.32-.108 2.446-.507 3.473-1.346-.75-1.267-2.216-2.221-3.666-2.5z" fill="#000"/><path d="m25.193 68.39.228.227z" fill="#0f0e07"/><path d="m136.915 68.39.227.227z" fill="#010101"/><path d="m140.195 68.39.193.227zm-127.35.227.192.227-.193-.227z" fill="#0d0b05"/><path d="m75.362 68.582.193.227zm.965 0 .192.227zm34.539 0 .192.227z" fill="#0e0d08"/><path d="m127.653 68.582.193.227zm9.261 0 .193.227-.192-.227z" fill="#0e0d05"/><path d="m58.768 68.774.192.228zm.771 0 .193.228zm15.63 0 .193.228z" fill="#0e0d08"/><path d="m13.23 68.966.228.228z" fill="#0e0b05"/><path d="m47.77 68.966c-1.169 2.61-2.968 4.735-5.018 6.727-1.176 1.144-3.01 2.207-3.473 3.849l8.49-1.796 4.438-.896c-2.646-1.879-7.286.212-9.84 1.346 1.754-3.51 5.2-4.903 5.981-9.037l-.193-.193h-.386z" fill="#000"/><path d="m59.346 68.966.193.228zm15.63 0 .193.228zm35.504 0 .193.228zm-74.288.228.193.227z" fill="#0e0d08"/><path d="m83.08 70.89 1.158.191v-1.921c-.838.27-.933.943-1.158 1.73z" fill="#000"/><path d="m33.49 69.351.228.227z" fill="#0f0e08"/><path d="m111.058 69.351.193.227zm-63.675.227.193.228z" fill="#0e0d08"/><path d="m13.809 69.736.228.227z" fill="#0e0b05"/><path d="m36.578 69.736.193.227zm38.59.227.194.227-.193-.227z" fill="#0e0d08"/><path d="m137.107 69.928.228.227z" fill="#010101"/><path d="m112.988 70.12.228.227z" fill="#0f0e08"/><path d="m125.337 70.12.228.227z" fill="#0f0e07"/><path d="m59.54 70.312.227.228-.228-.228z" fill="#0e0d08"/><path d="m132.67 70.312.227.228-.228-.228z" fill="#0f0d06"/><path d="m58.189 70.505.193.227zm24.89 0 .194.227-.193-.227z" fill="#0e0d08"/><path d="m92.149 70.505.193 2.115c.895-.473 1.48-1.132 1.736-2.115l-1.35.961-.58-.961z" fill="#000"/><path d="m40.244 70.697.193.227zm51.712 0 .193.227zm1.544 0 .192.227z" fill="#0e0d08"/><path d="m113.181 70.697.228.227z" fill="#0f0e08"/><path d="m133.055 70.697.228.227z" fill="#0e0d05"/><path d="m14.58 70.89.229.227-.228-.228z" fill="#0e0b05"/><path d="m59.346 70.89.193.227-.193-.228zm33.96 0 .194.227-.193-.228zm17.945.227.193.227z" fill="#0e0d08"/><path d="m125.53 71.466.228.227z" fill="#0e0d05"/><path d="m136.722 71.466.227.227z" fill="#010101"/><path d="m141.16 71.658.227.228z" fill="#0d0b05"/><path d="m136.529 72.043.227.227z" fill="#010101"/><path d="m47.19 72.235.228.228z" fill="#0e0d08"/><path d="m19.79 72.427.228.228-.227-.228z" fill="#0e0b05"/><path d="m130.161 72.62.228.227z" fill="#020202"/><path d="m124.372 72.812.228.227z" fill="#0d0b05"/><path d="m129.968 72.812.193.227zm-5.789.227.193.228z" fill="#0e0d05"/><path d="m64.942 74.543.386-1.346c-.828.24-1.283.834-.386 1.346z" fill="#000"/><path d="m15.931 73.389.228.227z" fill="#0f0d06"/><path d="m64.363 73.389.193.227zm-19.681.227.193.228z" fill="#0e0d08"/><path d="m128.424 73.581.228.228z" fill="#0e0d05"/><path d="m44.489 73.773.228.228z" fill="#0e0d08"/><path d="m135.564 73.773.193.228zm-8.104.228.193.227z" fill="#010101"/><path d="m135.37 73.966.229.227-.228-.227z" fill="#0e0d05"/><path d="m99.481 74.35-.193 2.692-1.736-1.153c.18 1.166 1 1.72 2.122 1.922l.193-3.46h-.386z" fill="#000"/><path d="m125.723 74.35v.228h.579z" fill="#010101"/><path d="m51.821 80.311c1.277-.055 5.725.116 6.368-.77l-4.245-.576 2.315-4.422c-1.404.437-3.814 4.411-4.438 5.768zm15.63 16.728c1.455-.83 3.35-3.307 4.052-4.807-1.545.461-2.22 1.97-3.28 3.077l-.58-4.038c4.513-.393 6.496-5.306 9.152-8.26 1.617-1.798 3.642-2.577 5.706-3.661-1.217-1.451-2.909.082-4.052.959-3.063 2.35-4.83 5.198-7.525 7.885l1.543-4.037h-.193c-.838 2.006-1.84 4.147-3.859 5.191l.772-2.692h-.193c-.811 1.932-1.726 2.883-3.859 2.884l1.93-4.422h-.193l-2.509 4.23-.772-.192 1.93-3.653h-.193c-.976 1.555-2.004 3.768-4.052 3.268l1.737-3.268c-.967.754-1.386 2.557-2.527 3.005-.52.205-1.501-.175-1.293-.861.272-.892 1.744-1.77 2.324-2.529 1.976-2.586 3.579-6.802 6.512-8.392 2.403-1.303 6.058.348 8.683.315 1.504-.018 3.217-.532 3.667-2.114-1.227-.132-2.387.657-3.667.66-3.243.005-8.565-1.605-11.351.589-2.537 1.997-2.681 4.677-4.277 7.21-.779 1.238-2.155 2.075-3.28 2.967-.417.33-1.172.811-1.014 1.444.194.78 1.524 1.197 2.17 1.492a21.766 21.766 0 0 0 4.631 1.51c.843.173 2.098.145 2.814.662 1.307.943.866 4.158 1.046 5.578z" fill="#000"/><path d="m134.213 75.12.193.227-.193-.228zm-3.28.227.193.227zm2.701 0 .193.227z" fill="#010101"/><path d="m31.368 75.504-.193 1.154.772-1.154z" fill="#000"/><path d="m76.905 75.504.228.227z" fill="#0e0d08"/><path d="m131.705 75.504.228.227z" fill="#010101"/><path d="m99.867 75.696.228.228z" fill="#0e0d08"/><path d="m131.512 81.08c-.443-1.304-.24-2.88-1.09-4.03-1.112-1.501-3.603-1.374-5.278-1.353-.578.007-1.542-.028-1.916.519-.447.652.366 2.246.541 2.941.726 2.88 1.374 6.855 3.884 8.785 1.65 1.268 4.97.437 6.347-.922 2.196-2.167 2.79-7.232.558-9.572-2.76-2.894-2.717 2.254-3.046 3.632z" fill="url(#f)"/><path d="m17.475 75.889.228.227z" fill="#0f0d06"/><path d="m65.521 75.889.228.227z" fill="#0e0d08"/><path d="m35.613 76.08.228.228-.228-.227z" fill="#0f0e08"/><path d="m42.173 76.08.193.228-.193-.227zm13.314 0 .193.228-.193-.227z" fill="#0e0d08"/><path d="m31.754 76.273.228.227z" fill="#0f0e08"/><path d="m36.578 76.273.193.227zm5.402 0 .193.227zm26.628 0 .193.227zm-26.82.227.192.228-.193-.228z" fill="#0e0d08"/><path d="m31.56 76.658.229.227-.228-.227z" fill="#0f0e08"/><path d="m54.33 76.658.193.227zm10.42 0 .192.227-.193-.227z" fill="#0e0d08"/><path d="m78.449 76.658.228.227z" fill="#0e0b05"/><path d="m133.634 76.658.228.227z" fill="#0e0d08"/><path d="m143.475 76.85-1.031 4.807-.731 2.491 1.376.97-.386-1.73h.193c.893 2.135 1.833 2.5 4.052 2.5l-1.35-2.885c.89 1.02 1.212 2.462 2.7 2.692l-1.35-2.5c1.235 1.336 1.845 2.258 3.666 1.346v-.384c-3.215-1.525-3.507-6.651-7.139-7.307z" fill="url(#g)"/><path d="m112.602 78.388.579-1.346c-.788.229-1.203.67-.579 1.346z" fill="#000"/><path d="m53.944 77.234.227.228z" fill="#0e0d08"/><path d="m130.547 77.234.228.228z" fill="#0e0d05"/><path d="m66.679 77.427.228.227z" fill="#0f0e08"/><path d="m123.215 77.427.227.227z" fill="#010101"/><path d="m141.352 77.427.228.227z" fill="#0d0b05"/><path d="m47.77 77.619.227.227-.228-.227z" fill="#0e0d08"/><path d="m66.486 77.619.193.227zm-35.118.227.193.228zm.772 0 .193.228zm34.153 0 .193.228z" fill="#0f0e08"/><path d="m54.137 78.004.193.227zm9.261 0 .193.227z" fill="#0e0d08"/><path d="m34.648 78.196.228.227z" fill="#0f0e08"/><path d="m118.777 78.196.228.227z" fill="#0f0e07"/><path d="m131.512 78.196.228.227z" fill="#010101"/><path d="m34.455 78.58.228.228z" fill="#0f0e08"/><path d="m65.714 78.58.228.228z" fill="#0f0e07"/><path d="m86.553 78.58 2.123 2.308.964-2.308-.964 1.539zm19.489 0-.193 2.885-1.93-1.154c-.107 1.268 1.84 2.708 2.894 3.269l-.385-5z" fill="#000"/><path d="m52.593 78.965.193.227zm3.28 0 .193.227zm-3.473.227.193.228z" fill="#0e0d08"/><path d="m118.198 79.157.228.228z" fill="#0f0e07"/><path d="m22.685 79.542.228.227z" fill="#0f0d06"/><path d="m34.841 79.734.228.228z" fill="#0f0e08"/><path d="m51.821 79.734.228.228z" fill="#0e0d08"/><path d="m79.028 79.734.228.228z" fill="#0f0d06"/><path d="m117.812 79.734.193.228zm1.35.228.194.227-.193-.227z" fill="#0f0e07"/><path d="m87.71 80.119.194.227-.193-.227zm59.238 0 .193.227zm-84.707.227.193.227z" fill="#0e0d08"/><path d="m117.426 80.311.228.227z" fill="#0f0e07"/><path d="m20.948 80.503.193.228zm57.115 0 .193.228z" fill="#0f0d06"/><path d="m79.607 80.503.228.228z" fill="#0e0d08"/><path d="m20.37 80.696.227.227-.228-.227z" fill="#0f0d06"/><path d="m88.097 80.696.193.227zm16.594 0 .193.227z" fill="#0e0d08"/><path d="m118.39 81.08.229.227-.228-.227z" fill="#0f0e07"/><path d="m78.256 81.465.228.227z" fill="#0e0d08"/><path d="m20.37 81.657.227.227-.228-.227z" fill="#0f0d06"/><path d="m124.372 81.657.193.227zm-82.392.227.193.228z" fill="#0e0d08"/><path d="m53.75 81.85c-.604 2.88-2.67 5.472-4.521 7.69-.883 1.057-2.24 2.12-2.618 3.461 3.198-.917 6.793-4.154 10.227-3.845-.883-1.705-5.004.66-6.56.961 1.251-1.848 2.963-3.458 3.768-5.576.339-.888.552-2.083-.295-2.692z" fill="#000"/><path d="m63.591 81.85.228.227-.228-.228z" fill="#0f0e07"/><path d="m76.134 81.85.227.227-.227-.228z" fill="#0e0d08"/><path d="m22.685 82.042.193.227zm.772 0 .193.227z" fill="#0f0d06"/><path d="m53.558 82.234.228.227z" fill="#0e0d08"/><path d="m115.882 82.234.228.227z" fill="#0f0e07"/><path d="m124.565 82.426.193.227zm11.192.227.193.228z" fill="#010101"/><path d="m148.492 82.618.228.228z" fill="#0f0e08"/><path d="m76.712 82.81.228.228-.228-.227z" fill="#0e0d08"/><path d="m35.613 83.003.228.227z" fill="#0f0e08"/><path d="m21.913 83.195.228.228z" fill="#0f0d06"/><path d="m74.783 83.195.228.228z" fill="#0e0d08"/><path d="m21.72 83.387.228.228z" fill="#0f0d06"/><path d="m106.235 83.387.227.228z" fill="#0e0d08"/><path d="m96.78 86.464c-.816-.811-1.648-1.932-2.895-1.73l3.667 4.422.964-5.576c-1.47.231-1.398 1.685-1.736 2.884z" fill="#000"/><path d="m146.176 83.58.228.227z" fill="#0f0e07"/><path d="m33.297 83.772.193.227zm4.052 0 .193.227z" fill="#0f0e08"/><path d="m78.642 85.503-.193-.962h-.579l.193 2.5c1.124-.194 2.294-2.208 2.509-3.269l-1.93 1.73z" fill="#000"/><path d="m135.564 83.772.228.227z" fill="#010101"/><path d="m40.63 83.964.193.228zm33.574 0 .193.228zm1.544 0 .193.228zm22.768 0 .193.228z" fill="#0e0d08"/><path d="m116.268 83.964.228.228z" fill="#0f0e07"/><path d="m150.614 84.157.228.227z" fill="#0d0b05"/><path d="m60.118 84.349.228.227z" fill="#0e0d08"/><path d="m141.545 84.349.228.227z" fill="#0e0b05"/><path d="m42.173 84.541.193.228zm10.42 0 .193.228z" fill="#0e0d08"/><path d="m67.129 84.67.076.15z" fill="#000"/><path d="m115.496 84.733.228.228z" fill="#0f0e07"/><path d="m136.915 84.733.192.228zm5.981 0 .193.228z" fill="#0d0b05"/><path d="m53.75 84.926.194.192-.193-.192zm13.122 0 .193.192zm-14.665.384.193.193zm82.778 0 .193.193z" fill="#0e0d08"/><path d="m136.722 85.31.227.228z" fill="#0d0b05"/><path d="m147.141 85.31.228.228z" fill="#0f0d06"/><path d="m25.386 85.503.228.227z" fill="#000"/><path d="m58.768 85.503.227.227z" fill="#0e0d08"/><path d="m113.953 85.503.228.227z" fill="#0f0e07"/><path d="m25 85.695.193.227zm.386 0 .193.227z" fill="#0f0d06"/><path d="m65.135 85.695.228.227z" fill="#0f0e08"/><path d="m73.046 85.695.193.192zm61.746 0 .193.192zm-38.012.384.193.193zm29.329 0 .193.193z" fill="#0e0d08"/><path d="m28.666 86.272.228.227z" fill="#0f0e07"/><path d="m72.467 86.464.193.227zm25.085 0 .193.227z" fill="#0e0d08"/><path d="m40.823 86.656.228.228z" fill="#0f0e08"/><path d="m61.855 86.656.228.228z" fill="#0e0b05"/><path d="m64.363 86.656.228.228z" fill="#0e0d08"/><path d="m66.1 86.656.228.228z" fill="#0f0e08"/><path d="m73.818 86.656.228.228z" fill="#0e0d08"/><path d="m137.493 86.656.228.228z" fill="#0d0b05"/><path d="m57.03 86.849.194.227-.193-.227zm11.771 0 .193.227z" fill="#0e0d08"/><path d="m85.781 86.849-.964 2.5h-.193l-1.544-2.116 1.35 4.423h.194c.513-1.285 2.33-3.649 1.157-4.807z" fill="#000"/><path d="m95.815 86.849.228.227z" fill="#0e0d08"/><path d="m65.907 87.04.228.228-.228-.227z" fill="#0f0e08"/><path d="m123.986 87.04.228.228-.228-.227z" fill="#0f0d06"/><path d="m59.153 87.233.228.227z" fill="#0d0b05"/><path d="m85.395 87.233.228.227z" fill="#0e0d08"/><path d="m35.034 87.425.228.228z" fill="#0f0e08"/><path d="m65.328 87.425.228.228z" fill="#0f0e07"/><path d="m68.801 87.425.193.228zm1.737 0 .193.228z" fill="#0e0d08"/><path d="m23.65 87.618.227.227z" fill="#0f0d06"/><path d="m70.924 87.618.193.227zm56.343 0 .193.227zm-76.797.227.193.227zm76.99 0 .193.227z" fill="#0e0d08"/><path d="m23.07 88.002.229.228-.228-.228z" fill="#0f0d06"/><path d="m61.469 88.002.228.228z" fill="#0d0b05"/><path d="m63.977 88.002.228.228z" fill="#0f0d06"/><path d="m70.924 88.002.228.228z" fill="#0e0d08"/><path d="m106.62 88.194 1.158 6.346c-1.23-1.071-5.023-6.005-6.56-4.23 3.55 1.127 5.029 5.26 8.104 7.114l-.962-3.653-1.16-5.769z" fill="#000"/><path d="m127.653 88.002.227.228z" fill="#0e0d08"/><path d="m131.319 88.194.228.228z" fill="#010101"/><path d="m136.143 88.194.227.228z" fill="#0e0b05"/><path d="m22.492 88.387.228.227z" fill="#0d0b05"/><path d="m27.509 88.387.228.227z" fill="#0f0e07"/><path d="m51.242 88.387.228.227z" fill="#0e0d08"/><path d="m60.697 88.387.193.227zm.579 0 .193.227z" fill="#0d0b05"/><path d="m64.75 88.387.227.227-.228-.227z" fill="#0e0b05"/><path d="m128.617 88.387.228.227z" fill="#010101"/><path d="m135.95 88.387.228.227z" fill="#0d0b05"/><path d="m49.892 88.579.227.227z" fill="#0e0d08"/><path d="m60.311 88.579.193.227zm2.702 0 .193.227z" fill="#0d0b05"/><path d="m37.542 88.771.228.228z" fill="#0f0e08"/><path d="m68.994 88.964.228.227z" fill="#0f0e07"/><path d="m26.93 89.156.228.227z" fill="#0f0d06"/><path d="m64.17 89.156.228.227z" fill="#0e0b05"/><path d="m68.608 89.156.228.227z" fill="#0f0e07"/><path d="m52.786 89.348.228.228z" fill="#0e0d08"/><path d="m126.495 89.348.228.228z" fill="#0f0d06"/><path d="m59.732 89.54.228.228z" fill="#0e0d08"/><path d="m116.847 89.54c-.977 2.384 1.408 4.942 2.316 7.115-2.51-1.289-4.736-3.436-7.719-3.461v.769c4.297.374 6.588 4.754 10.034 6.73-.032-3.584-3.12-7.705-4.245-11.153z" fill="#000"/><path d="m122.636 89.54.228.228z" fill="#0f0d06"/><path d="m51.628 89.733.228.227z" fill="#0e0d08"/><path d="m127.267 89.733.228.227z" fill="#0f0d06"/><path d="m134.599 89.733.228.227z" fill="#0e0b05"/><path d="m70.73 89.925.229.227-.228-.227z" fill="#0e0d08"/><path d="m134.406 89.925.228.227z" fill="#0d0b05"/><path d="m40.823 90.117.193.228zm65.99 0 .193.228z" fill="#0f0e08"/><path d="m134.213 90.117.228.228z" fill="#0e0b05"/><path d="m40.63 90.31.228.227z" fill="#0f0e08"/><path d="m62.048 90.31.193.227zm8.104 0 .193.227z" fill="#0e0d08"/><path d="m123.794 90.31.227.227z" fill="#0f0d06"/><path d="m40.472 90.502.227.227zm-.228.227.228.228z" fill="#0f0e08"/><path d="m84.817 90.694.227.228z" fill="#0e0d08"/><path d="m40.05 90.886.229.228-.228-.228z" fill="#0f0e08"/><path d="m47.962 90.886.228.228z" fill="#0e0d08"/><path d="m107.778 91.079.228.227z" fill="#0f0e08"/><path d="m116.654 91.656.228.227z" fill="#0f0e07"/><path d="m39.279 91.848.228.227z" fill="#0f0e08"/><path d="m48.927 91.848.193.227zm-.386.227.193.228z" fill="#0e0d08"/><path d="m77.677 92.425-1.35.192c.455 1.078 1.258 1.95 1.635 3.076.418 1.249.147 2.972 1.452 3.654.604-1.352 2.09-3.556 1.736-5-1.096.538-1.615 1.707-1.736 2.885h-.193z" fill="#000"/><path d="m38.7 92.617.228.227z" fill="#0f0e08"/><path d="m59.732 92.617c0 3.773-.515 7.321-1.543 10.96 1.342.049 2.046-1.342 2.773-2.307 1.437-1.906 2.878-4.007 5.138-5v-.192c-2.292-.296-5.157 3.12-5.982 5h-.193c.68-2.618 1.284-5.889.193-8.461z" fill="#000"/><path d="m71.31 92.617.227.227z" fill="#0e0d08"/><path d="m126.88 92.617.229.227-.228-.227z" fill="#0e0b05"/><path d="m131.512 92.617.228.227z" fill="#0d0b05"/><path d="m92.535 96.847-4.438-3.076c.247.787.874 1.021 1.459 1.562 1.15 1.064 2.156 3.553 3.75 3.821l.386-6.345c-1.557.592-1.157 2.675-1.157 4.038z" fill="#000"/><path d="m117.233 92.81.228.227-.228-.228z" fill="#0f0e07"/><path d="m131.319 92.81.228.227-.228-.228z" fill="#0e0b05"/><path d="m77.87 93.001.228.228-.228-.229z" fill="#0e0d08"/><path d="m107.392 93.194.228.227z" fill="#0f0e08"/><path d="m76.712 93.386.228.227z" fill="#0e0d08"/><path d="m105.27 93.386.193.227zm1.35.227.193.228z" fill="#0f0e08"/><path d="m106.813 93.77.228.228-.228-.227z" fill="#0f0e07"/><path d="m69.959 93.963.193.227zm18.91 0 .193.227z" fill="#0e0d08"/><path d="m114.918 94.155.227.228z" fill="#0f0e08"/><path d="m39.086 94.347.228.228z" fill="#0f0e07"/><path d="m81.15 94.347.193.193zm-11.77.385.193.192z" fill="#0e0d08"/><path d="m106.428 94.732.227.227z" fill="#0f0e08"/><path d="m119.163 94.732.227.227z" fill="#0f0d06"/><path d="m128.424 94.732.228.227z" fill="#0e0b05"/><path d="m129.39 94.732.227.227-.228-.227z" fill="#010101"/><path d="m39.472 94.924.228.228z" fill="#0f0e07"/><path d="m129.196 94.924.228.228z" fill="#0e0b05"/><path d="m89.447 95.117.228.227z" fill="#0e0d08"/><path d="m116.654 95.117.228.227z" fill="#0f0d06"/><path d="m129.003 95.117.228.227z" fill="#0e0b05"/><path d="m48.927 95.501.193.192zm28.943 0 .193.192zm12.35.385.192.192-.193-.192z" fill="#0e0d08"/><path d="m48.734 96.27.228.228z" fill="#0f0e08"/><path d="m91.956 96.463.228.227z" fill="#0e0d08"/><path d="m103.533 96.463c-1.36 2.403.623 7.357.965 9.998h-.193c-1.075-2.264-3.147-4.133-4.824-5.96-.236-.258-1.458-1.917-1.896-1.22-.455.728 1.778 2.455 2.197 2.95 1.542 1.821 2.935 3.881 4.103 5.96.675 1.203 1.263 2.81 2.543 3.462-.966-4.96-2.495-10.112-2.509-15.19z" fill="#000"/><path d="m116.654 96.463.228.227z" fill="#0f0d06"/><path d="m63.977 96.655.228.227z" fill="#010101"/><path d="m64.942 96.655.193.227zm14.086 0 .193.227z" fill="#0e0d08"/><path d="m108.357 96.655.228.227z" fill="#0f0e07"/><path d="m103.147 96.847.228.227z" fill="#0f0e08"/><path d="m128.232 96.847.227.227z" fill="#0e0b05"/><path d="m67.45 97.04.228.227-.227-.228z" fill="#0e0d08"/><path d="m79.22 97.04.229.227-.228-.228z" fill="#0f0e08"/><path d="m123.794 97.232.192.227zm2.508 0 .193.227z" fill="#0e0b05"/><path d="m63.977 97.424.193.227zm27.4 0 .193.227z" fill="#0e0d08"/><path d="m117.619 97.424.228.227z" fill="#0f0d06"/><path d="m48.348 97.616.228.228z" fill="#0f0e08"/><path d="m124.758 97.809.228.227z" fill="#0e0b05"/><path d="m59.346 98 .228.228-.228-.227z" fill="#0e0d08"/><path d="m41.98 98.193.228.227z" fill="#0f0e07"/><path d="m91.956 98.193.193.227zm11.191 0 .193.227z" fill="#0f0e08"/><path d="m128.232 98.193.227.227z" fill="#0d0b05"/><path d="m39.279 98.385-2.122 5.961 4.438-3.076c-.078-1.486-.886-2.461-2.316-2.885z" fill="url(#h)"/><path d="m62.82 98.578.193.227zm29.522.227.193.227z" fill="#0e0d08"/><path d="m47.576 99.539.228.227z" fill="#0f0e08"/><path d="m119.934 99.539.228.227z" fill="#0f0d06"/><path d="m98.71 99.731.227.228-.228-.228z" fill="#0f0e08"/><path d="m56.452 99.924.228.227z" fill="#0e0d08"/><path d="m71.31 99.924-.193.192c.944 2.584 1.873 4.726 2.33 7.499.213 1.288.081 2.964 1.143 3.845 1.085-2.051 1.475-4.431 2.466-6.537.569-1.209 1.497-2.27 1.2-3.653-1.854.909-2.95 5.013-3.473 6.922-.957-2.542-.664-6.96-3.473-8.268z" fill="#000"/><path d="m97.937 100.308.228.228zm.228.228.228.227z" fill="#0f0e08"/><path d="m59.925 100.693.228.227z" fill="#0e0d08"/><path d="m98.323 100.693.228.227z" fill="#0f0e08"/><path d="m44.682 100.885.228.227z" fill="#0f0e07"/><path d="m48.734 100.885.228.227z" fill="#0f0e08"/><path d="m59.925 100.885.228.227z" fill="#fff"/><path d="m98.516 100.885.228.227z" fill="#0f0e08"/><path d="m124.758 100.885.228.227z" fill="#010101"/><path d="m60.89 101.077.193.228zm16.787.228.193.227z" fill="#0e0d08"/><path d="m103.533 101.27.228.227z" fill="#0f0e07"/><path d="m78.256 101.462.228.227z" fill="#0e0d08"/><path d="m100.253 101.462.228.227z" fill="#0f0e08"/><path d="m100.446 101.654.228.228z" fill="#0f0d06"/><path d="m45.84 101.846.192.228zm14.471 0 .193.228z" fill="#0f0e07"/><path d="m84.43 101.846c2.182 4.318 3.798 8.38 5.017 13.076 1.361-.76 1.174-2.103 1.159-3.462-.035-3.164 1.184-6.314.964-9.421-.91.31-1.073 1.24-1.232 2.115-.38 2.098-.388 4.264-.89 6.345-1.047-2.422-1.876-8.151-5.017-8.653z" fill="#000"/><path d="m85.01 101.846.227.228-.228-.228z" fill="#0e0d08"/><path d="m115.882 101.846.228.228z" fill="#0f0d06"/><path d="m72.081 102.039.228.227z" fill="#0e0d08"/><path d="m99.674 102.039.193.227zm-51.326.227.193.227z" fill="#0f0e07"/><path d="m63.013 102.231.227.227z" fill="#0e0d08"/><path d="m90.798 102.231.228.227z" fill="#0f0e08"/><path d="m123.794 102.231.227.227z" fill="#0f0d06"/><path d="m39.279 102.423.228.228z" fill="#0d0b05"/><path d="m90.605 102.616.193.192zm-39.17.384.193.192z" fill="#0f0e08"/><path d="m76.712 103 .193.228zm1.158 0 .193.228z" fill="#0e0d08"/><path d="m100.446 103 .193.228zm-49.204.228.193.227z" fill="#0f0e07"/><path d="m116.461 103.192.228.228z" fill="#0f0d06"/><path d="m123.022 103.192.228.228z" fill="#0d0b05"/><path d="m51.05 103.385.227.227-.228-.227z" fill="#0f0e08"/><path d="m77.677 103.385.228.227z" fill="#0e0d08"/><path d="m86.36 103.385.228.227z" fill="#0f0e08"/><path d="m125.144 103.385-1.35 2.307 4.245 1.923z" fill="url(#i)"/><path d="m102.183 103.577.227.227z" fill="#0f0e07"/><path d="m77.484 103.77.228.227-.228-.228z" fill="#0e0d08"/><path d="m85.588 103.962.228.227z" fill="#0f0e08"/><path d="m37.35 104.154.227.227-.228-.227z" fill="#0d0b05"/><path d="m52.786 104.154.228.227z" fill="#0f0e08"/><path d="m36.964 104.346.227.227z" fill="#fff"/><path d="m76.134 104.346.227.227z" fill="#0e0d08"/><path d="m85.781 104.346.228.227z" fill="#0f0e08"/><path d="m122.057 104.346.228.227z" fill="#0e0b05"/><path d="m85.974 104.73.193.193-.193-.192zm1.158 0 .193.193-.193-.192zm-.965.385.193.192zm1.158 0 .193.192zm-11.577.192.193.193zm.964 0 .193.193z" fill="#0f0e08"/><path d="m110.287 105.307.227.228z" fill="#0f0d06"/><path d="m87.518 105.5.228.227z" fill="#0f0e08"/><path d="m123.986 105.692.228.227z" fill="#010101"/><path d="m48.734 105.884.228.228z" fill="#0f0e07"/><path d="m70.538 106.077.228.227z" fill="#000"/><path d="m102.568 106.077.228.227z" fill="#0f0e07"/><path d="m75.362 106.269.228.227z" fill="#0f0e08"/><path d="m111.637 106.269.228.227z" fill="#0f0d06"/><path d="m52.014 106.461.228.228z" fill="#0f0e07"/><path d="m70.924 106.461.228.228z" fill="#0f0e08"/><path d="m112.41 106.846.192.227-.193-.227zm-12.35.227.193.227zm.386 0 .193.227z" fill="#0f0d06"/><path d="m47.576 107.23.228.228z" fill="#0f0e07"/><path d="m74.976 107.23.228.228z" fill="#0f0e08"/><path d="m103.34 107.23.193.193zm-49.01.77.193.192-.193-.193z" fill="#0f0e07"/><path d="m78.449 108 .193.227-.193-.228zm-31.645.227.193.227z" fill="#0f0e08"/><path d="m105.656 108.192.228.227z" fill="#0f0d06"/><path d="m88.676 108.384.193.227zm-33.575.227.193.228z" fill="#0f0e07"/><path d="m104.112 108.576.228.228z" fill="#0f0d06"/><path d="m92.342 108.769.228.227z" fill="#0f0e07"/><path d="m55.487 108.96.228.228-.228-.227z" fill="#0f0e08"/><path d="m115.11 109.153.228.227-.227-.227z" fill="#0e0b05"/><path d="m46.032 109.345.228.228z" fill="#0f0e07"/><path d="m73.625 109.345.228.228z" fill="#0f0e08"/><path d="m85.395 109.345.228.228z" fill="#0f0e07"/><path d="m115.303 109.345.228.228z" fill="#0e0b05"/><path d="m62.627 109.538.193.192zm26.435.192.193.192zm-32.224.192.193.192zm37.82 0 .192.192-.193-.192zm-37.241.385.193.192zm36.083.192.192.192zm-26.05.192.193.193-.192-.193zm27.786 0 .193.193zm-27.978.385.193.192zm-7.912.192.193.192zm2.509 0 .193.192zm33.767 0 .193.192zm-35.697.192.193.193zm20.26.193.194.192-.193-.192z" fill="#0f0e07"/><path d="m55.487 112.037-.386 5.961c1.696-1.805 4.524-5.598.386-5.96z" fill="url(#j)"/><path d="m68.222 112.037.228.228z" fill="#0f0e07"/><path d="m111.637 112.806.228.228z" fill="#0e0b05"/><path d="m119.356 112.806.227.228z" fill="#0d0b05"/><path d="m90.798 112.999.228.227z" fill="#0f0e07"/><path d="m110.866 113.191.227.227z" fill="#0e0b05"/><path d="m80.957 113.576.193.227zm8.105 0 .193.227z" fill="#0f0e07"/><path d="m109.515 113.768.228.227z" fill="#0d0b05"/><path d="m90.22 114.345.227.227-.228-.227z" fill="#0f0e07"/><path d="m95.815 114.345.228.227z" fill="#0f0d06"/><path d="m108.357 114.345.228.227z" fill="#0e0b05"/><path d="m67.836 114.537.193.227zm22.19 0 .193.227z" fill="#0f0e07"/><path d="m107.971 114.537.228.227z" fill="#0e0b05"/><path d="m85.588 114.922.228.227z" fill="#0f0e07"/><path d="m96.008 114.922.193.227zm1.544 0 .193.227z" fill="#0f0d06"/><path d="m56.645 115.306.228.227z" fill="#0d0b05"/><path d="m70.73 115.498.194.193-.193-.193zm11 .385.192.192-.193-.192z" fill="#0f0e07"/><path d="m104.69 115.883.194.227-.193-.227zm-.578.227.193.228z" fill="#0e0b05"/><path d="m121.092 116.267.193.228zm.386 0 .193.228z" fill="#0d0b05"/><path d="m102.761 116.46.228.227z" fill="#0f0d06"/><path d="m106.428 117.806c.743 1.59 2.43 3.227 3.859 4.23l-1.737-5.384z" fill="url(#k)"/><path d="m98.323 116.844.193.193zm-33.574.385.193.192z" fill="#0f0d06"/><path d="m76.712 117.229.228.227z" fill="#0f0e07"/><path d="m106.813 117.421.228.228z" fill="#0d0b05"/><path d="m78.449 117.613.228.228z" fill="#0f0d06"/><path d="m107.2 118.96.227.227-.228-.228zm.227.227.228.227z" fill="#0d0b05"/><path d="m73.625 126.074h.193l1.737-6.153-2.197-.372-.119 1.718z" fill="url(#l)"/><path d="m107.585 119.344.193.192zm1.93.77.193.191-.193-.192z" fill="#0d0b05"/><path d="m89.64 121.075 2.123 6.152c.476-1.1 1.946-5.347.903-6.229-.807-.682-2.15-.154-3.026.076z" fill="url(#m)"/><path d="m90.026 120.882.228.228z" fill="#0d0b05"/><path d="m108.936 120.882.193.192zm-9.069.77.193.192-.193-.193z" fill="#010101"/><path d="m109.9 121.844.194.192-.193-.192zm-20.067.192.193.192zm20.26 0 .387.384-.386-.384z" fill="#0d0b05"/><path d="m110.287 122.036.227.227z" fill="#fff"/><path d="m100.832 122.42.228.228z" fill="#0e0b05"/><path d="m74.59 122.613.228.227z" fill="#0d0b05"/><path d="m131.797 75.618c-.764-.138-1.36-.704-1.36-1.289 0-.552.354-1.109 1.799-2.826 1.152-1.37 1.013-1.333-1.12.291-2.358 1.797-4.047 2.481-6.401 2.593-1.093.052-1.988.025-1.988-.06s.322-.425.716-.756c.394-.33 1.716-1.933 2.938-3.563 2.232-2.976 3.32-3.985 4.755-4.404 2.268-.663 5.188 1.083 5.846 3.495.61 2.24-1.372 5.845-3.542 6.446-.467.13-.9.222-.963.205a18.407 18.407 0 0 0 -.68-.132z" fill="#fef666"/><path d="m128.736 88.508c-.743-.205-1.699-.977-2.394-1.933-.828-1.14-1.412-2.698-2.393-6.387-.43-1.615-.833-3.104-.896-3.308-.317-1.031 1.938-1.555 4.695-1.092 2.17.365 2.967 1.09 3.357 3.053.147.74.295 1.45.329 1.573.034.125.194-.47.355-1.32.18-.947.492-1.777.804-2.138l.51-.591.827.556c1.299.874 2.034 2.588 2.02 4.71-.019 3.004-1.26 5.345-3.354 6.326-1.036.485-3.055.774-3.86.551z" fill="#fef67a"/></g></svg>