<svg height="316" viewBox="0 0 355 355" width="316" xmlns="http://www.w3.org/2000/svg" xmlns:xlink="http://www.w3.org/1999/xlink"><clipPath id="a"><path d="m286.93231-479.57623h91.44915v91.868645h-91.44915z" transform="scale(1 -1)"/></clipPath><path d="m505.45206-246.91972h200v200.91745h-200z" transform="matrix(.98501345 -.769576825 .769576825 .98501345 -306.16542875 787.707925)"/><g clip-path="url(#a)" transform="matrix(2.154232125 -1.6830705 -1.6830705 -2.154232125 190.72978375 1671.550325)"><g fill="#1770c1"><path d="m367.74184 448.66054c-.75847.59699-1.26319 1.53366-1.40555 2.73474-.16963 3.42986-.13798 6.85704.13951 10.20551.24859 2.55947 1.87366 3.57641 3.88496 3.74696 1.98843.0807 3.78623-1.11459 4.11567-3.65536.13794-3.20227.13318-6.45126-.0699-9.70135-.31225-3.52704-1.70277-3.75349-3.72712-4.01304-1.16067-.16521-2.17616.0896-2.93762.68254zm2.23238 1.4426c.13395-.0583.29053-.0844.47356-.0655 1.2843.14997 1.17116 3.3836 1.06906 6.56522-.033 4.28846.14802 6.69272-1.0703 6.69718-1.48199-.0132-1.39049-2.46487-1.32106-6.63111.0606-3.82824-.0913-6.12758.84875-6.56586" fill-rule="evenodd"/><path d="m380.53874 459.88679 2.46185.0348-.0469 3.1818c-.1832 1.51309-1.59839 2.67446-3.80836 2.71061-2.54525-.0719-3.825-1.50357-3.8829-4.35373-.0389-2.56178.99335-3.89335 3.12953-5.44845 3.2577-2.49475 2.80425-5.26049 1.02937-5.39596-1.40636.0904-1.41607 1.76977-1.51803 3.73082l-2.6204.0338.0889-3.87788c.13712-1.16965 2.28521-2.57737 4.63284-2.56179 2.0716.11819 3.74754 2.21826 3.65735 4.46806-.19897 1.62371-.0204 3.82603-3.25438 6.15492-3.56017 1.96028-2.74238 4.60003-1.39512 4.70394 1.60852-.0861 1.54633-1.25982 1.52563-3.38262" fill-rule="evenodd"/><path d="m389.68708 470.041.97696-.11927-6.87392-26.13996-1.10661.0119 7.0036 26.24776" fill-rule="evenodd"/><path d="m393.07336 459.93301-2.8733-.2361-.0991 2.77204c.047 2.29937 2.21172 4.02663 4.48849 3.94784 2.57312-.1537 3.56214-1.20648 3.91288-3.24928.28335-1.99093-.74158-4.16379-2.95107-6.57026-1.82308-2.09-2.54475-3.72902-2.81639-5.30329l5.20193.15965-.0842-3.09173-7.91313-.25484-.0468 3.59224c.0389 1.34036 1.04361 3.48685 2.75572 5.50396 2.88016 3.01828 3.85319 6.14798 1.63546 6.23872-.99528-.11313-1.50246-.85522-1.20905-3.50896" fill-rule="evenodd"/><path d="m370.82282 439.83973c4.67253-3.50827 10.34287-4.79326 15.72206-4.03267 5.37164.75875 10.4545 3.56131 13.95855 8.22828 3.51664 4.68375 4.80105 10.36326 4.03965 15.74806-.76236 5.38679-3.57208 10.48005-8.24385 13.98774-4.68536 3.51785-10.36926 4.80304-15.75967 4.03584-5.38843-.76616-10.4857-3.58287-14.00355-8.26821-3.50526-4.66857-4.77746-10.33348-4.00084-15.70969.77617-5.37841 3.60146-10.4709 8.28765-13.98935zm-.67789-.90286c-4.93245 3.70339-7.90625 9.06615-8.72384 14.73078-.81706 5.66542.51991 11.63314 4.21127 16.5496 3.70339 4.93248 9.0732 7.89723 14.7514 8.70464 5.67681.8072 11.66089-.54453 16.59335-4.24793 4.91886-3.69316 7.87804-9.05871 8.68026-14.73554.80202-5.67044-.54893-11.65011-4.25115-16.58096-3.69013-4.91488-9.0441-7.8653-14.70552-8.6653-5.66561-.80062-11.63693.55152-16.55577 4.24471"/></g><path d="m302.88188 403.0816c-.75851.59698-1.2624 1.53308-1.40476 2.73413-.16423 3.4271-.13389 6.85408.14418 10.20333.2445 2.56248 1.87368 3.57641 3.87678 3.74437 1.99604.082 3.7868-1.11378 4.11987-3.64977.13653-3.20246.13687-6.45505-.0707-9.70078-.30807-3.53142-1.69858-3.75786-3.7215-4.01724-1.16908-.16637-2.18534.0889-2.94385.68596zm2.23316 1.44201c.13795-.0616.29036-.083.47477-.0743 1.28309.15831 1.16994 3.39198 1.06427 6.56883-.0255 4.29023.15169 6.69753-1.06731 6.70118-1.47599-.0142-1.3901-2.4627-1.3165-6.63332.0616-3.82882-.0962-6.12394.84477-6.56287" fill="#bfbebe" fill-rule="evenodd"/><path d="m315.67959 414.3073 2.46299.0262-.0482 3.19024c-.18698 1.50969-1.59838 2.67443-3.81216 2.70718-2.54524-.0718-3.81719-1.5032-3.87509-4.35337-.0458-2.56276.98634-3.8943 3.12193-5.45023 3.2583-2.49392 2.81265-5.25926 1.02996-5.39514-1.40775.0904-1.41305 1.77374-1.51864 3.73002l-2.61279.0356.0888-3.87784c.1378-1.16888 2.27683-2.57858 4.62585-2.56283 2.07386.12234 3.75158 2.21521 3.66457 4.46767-.20316 1.62812-.0261 3.83039-3.25817 6.15153-3.5566 1.96506-2.74661 4.60443-1.39555 4.71171 1.61035-.0937 1.54196-1.26401 1.52562-3.38259" fill="#bfbebe" fill-rule="evenodd"/><path d="m324.82793 424.46147.97251-.12372-6.86832-26.14418-1.10778.0207 7.00358 26.24772" fill="#bfbebe" fill-rule="evenodd"/><path d="m328.20981 414.34929-2.86571-.23435-.10687 2.7703c.0552 2.30057 2.2159 4.03225 4.48924 3.94721 2.57792-.15732 3.56976-1.20466 3.91633-3.24304.28272-1.99171-.74101-4.173-2.95447-6.5764-1.8195-2.08527-2.54495-3.72771-2.81179-5.30557l5.20049.15946-.084-3.08314-7.91733-.26046-.0458 3.59307c.043 1.34459 1.04301 3.48603 2.76049 5.50033 2.87919 3.02528 3.85685 6.15279 1.6391 6.24354-1.00431-.11509-1.50724-.8516-1.21806-3.51097" fill="#bfbebe" fill-rule="evenodd"/><path d="m305.96365 394.2602c4.67175-3.50768 10.34349-4.79246 15.72129-4.03211 5.37218.75963 10.45446 3.56134 13.95912 8.22909 3.51606 4.68295 4.80105 10.36329 4.03908 15.74731-.76157 5.38618-3.5721 10.48007-8.24304 13.98711-4.68458 3.51724-10.36609 4.80061-15.7551 4.03366-5.38978-.76633-10.48688-3.58447-14.00355-8.2682-3.50585-4.66936-4.77881-10.33373-4.00306-15.70932.77459-5.37723 3.5991-10.46909 8.28526-13.98754zm-.67791-.90286c-4.93242 3.70339-7.90521 9.06413-8.72146 14.72897-.8176 5.66461.52215 11.63274 4.21355 16.54919 3.70338 4.93248 9.07276 7.90004 14.74815 8.70708 5.67463.8076 11.65873-.54415 16.59198-4.24815 4.91806-3.69255 7.87726-9.05813 8.68004-14.73414.80285-5.67102-.5495-11.65096-4.2511-16.58099-3.69079-4.91563-9.04474-7.86602-14.70612-8.66607-5.66486-.80121-11.63696.55151-16.55504 4.24411" fill="#bfbebe"/><path d="m338.27729 422.52161c-.75786.59779-1.26178 1.53388-1.40415 2.73496-.17037 3.43048-.13472 6.86166.14636 10.2079.2409 2.55767 1.86605 3.57461 3.87755 3.74378 1.98826.082 3.7868-1.1138 4.1193-3.65056.13418-3.20569.13318-6.45072-.0737-9.7048-.31286-3.52782-1.69877-3.75651-3.72632-4.01365-1.16151-.16456-2.17755.0893-2.93906.68237zm2.23678 1.44679c.13016-.062.28673-.0878.46917-.0698 1.28565.15018 1.17558 3.3878 1.06963 6.56607-.0305 4.2932.15112 6.69668-1.07006 6.69571-1.47844-.008-1.39071-2.46342-1.3173-6.6327.0606-3.8218-.096-6.12531.84854-6.55944" fill="#167947" fill-rule="evenodd"/><path d="m351.07859 433.75209 2.46225.0262-.0498 3.18561c-.18398 1.51372-1.59916 2.67506-3.80917 2.71121-2.54442-.0726-3.82116-1.50018-3.87869-4.35817-.0417-2.55796.98938-3.8903 3.12537-5.44404 3.2571-2.49552 2.8126-5.25928 1.03016-5.39654-1.40774.0903-1.41387 1.77435-1.51865 3.73001l-2.61637.0308.0838-3.87425c.13785-1.16886 2.28584-2.57662 4.63348-2.56105 2.07465.12133 3.74756 2.21823 3.65754 4.46668-.19913 1.62511-.0204 3.82681-3.25455 6.1563-3.5554 1.95669-2.7424 4.60006-1.39493 4.70252 1.61312-.0882 1.54632-1.2598 1.52921-3.37777" fill="#167947" fill-rule="evenodd"/><path d="m360.22695 443.90626.97254-.12367-6.87317-26.14065-1.10236.0175 7.00298 26.24689" fill="#167947" fill-rule="evenodd"/><path d="m363.60884 433.79412-2.86795-.23886-.10483 2.77486c.0475 2.30016 2.21232 4.02742 4.48848 3.94784 2.57853-.15661 3.56974-1.20468 3.9171-3.24366.28334-1.99094-.74521-4.16862-2.95385-6.57567-1.82309-2.09002-2.54556-3.72846-2.81719-5.30271l5.20191.15966-.0843-3.09173-7.91375-.25566-.0468 3.59302c.0389 1.34039 1.04444 3.48627 2.76052 5.50032 2.87537 3.0219 3.854 6.14742 1.63549 6.23874-1.00009-.10923-1.50808-.85094-1.21446-3.5061" fill="#167947" fill-rule="evenodd"/><path d="m341.35904 413.70019c4.67182-3.50765 10.3435-4.79247 15.72133-4.03206 5.37216.75957 10.45444 3.56131 13.95909 8.22906 3.51667 4.68374 4.80229 10.3649 4.04151 15.75048-.76176 5.38757-3.57031 10.48248-8.24126 13.98955-4.68537 3.51786-10.36748 4.80042-15.75569 4.03287-5.39021-.76857-10.49008-3.58711-14.00794-8.27246-3.50586-4.66935-4.77804-10.3343-4.00307-15.70928.77538-5.37782 3.5991-10.4691 8.28603-13.98816zm-.67724-.90205c-4.93246 3.70338-7.90665 9.06395-8.72205 14.72817-.81702 5.66543.52292 11.63215 4.21429 16.54861 3.70337 4.93246 9.07191 7.90065 14.74936 8.70864 5.67722.80943 11.66112-.54091 16.5936-4.2443 4.91804-3.69258 7.87582-9.05835 8.67882-14.73578.80083-5.67202-.5519-11.65409-4.25349-16.58416-3.69018-4.91488-9.04412-7.86525-14.70616-8.66608-5.66484-.8012-11.63632.5523-16.55437 4.2449" fill="#167947"/><path d="m279.66502 433.79481c-.7579.59779-1.26179 1.53384-1.40018 2.73192-.16898 3.43072-.13798 6.85708.14014 10.20637.24799 2.55861 1.87308 3.57556 3.8804 3.74913 1.99222.0786 3.79101-1.11818 4.11564-3.65536.13773-3.2009.13667-6.45369-.0667-9.70377-.31146-3.52764-1.70281-3.75352-3.72571-4.01284-1.16612-.1624-2.18158.0924-2.94366.68455zm2.23374 1.44281c.13798-.0616.29518-.0866.47839-.0695 1.28408.15137 1.17038 3.38421 1.06884 6.56663-.034 4.28764.14752 6.69194-1.07087 6.6964-1.48199-.0132-1.38989-2.4641-1.3219-6.63052.0616-3.82884-.0903-6.12817.84555-6.56346" fill="#fbbc09" fill-rule="evenodd"/><path d="m292.46732 445.01828 2.46122.0348-.045 3.18263c-.18318 1.51311-1.5984 2.67447-3.80838 2.71062-2.54526-.0719-3.825-1.5036-3.8829-4.35379-.0377-2.56098.99278-3.8941 3.12874-5.44783 3.25792-2.49611 2.80564-5.26026 1.03077-5.39574-1.40755.0888-1.41664 1.76897-1.51864 3.73l-2.62097.0327.0893-3.87705c.13715-1.16966 2.28527-2.5774 4.63289-2.56183 2.07163.11821 3.74818 2.21905 3.65732 4.46808-.19892 1.62371-.0204 3.82601-3.25434 6.15488-3.56018 1.96029-2.74241 4.60006-1.39513 4.70398 1.60856-.0861 1.54634-1.25983 1.52562-3.38262" fill="#fbbc09" fill-rule="evenodd"/><path d="m301.61564 455.17249.97616-.11891-6.87315-26.14062-1.10659.0119 7.00356 26.24775" fill="#fbbc09" fill-rule="evenodd"/><path d="m305.00057 445.06429-2.87195-.23584-.0997 2.77127c.0467 2.30073 2.21233 4.02743 4.48829 3.94923 2.5739-.15434 3.56216-1.20647 3.91348-3.24847.28358-1.99234-.74138-4.1652-2.95085-6.57166-1.82308-2.09004-2.54498-3.72765-2.81719-5.30272l5.20189.15967-.0843-3.09176-7.91232-.25544-.0481 3.59283c.0399 1.33979 1.04445 3.48625 2.75649 5.50334 2.87941 3.01889 3.85325 6.148 1.63605 6.23956-.9966-.11322-1.50322-.85462-1.21099-3.50997" fill="#fbbc09" fill-rule="evenodd"/><path d="m282.75138 424.97115c4.67176-3.50762 10.34287-4.79323 15.72209-4.03261 5.37222.75956 10.45448 3.56127 13.95852 8.22823 3.51663 4.6838 4.80105 10.3633 4.03967 15.7481-.76235 5.38679-3.5721 10.48007-8.24385 13.98774-4.68614 3.51845-10.36928 4.80304-15.76047 4.03647-5.38762-.76678-10.48569-3.5829-14.00355-8.26822-3.50525-4.66856-4.77663-10.33412-4.00007-15.71032.7762-5.37842 3.60071-10.47031 8.28766-13.98939zm-.67786-.9028c-4.93249 3.70338-7.90624 9.06617-8.72392 14.73076-.81699 5.66543.52136 11.63334 4.21215 16.54899 3.70338 4.93248 9.07293 7.89865 14.74977 8.70585 5.67762.80663 11.66172-.54511 16.59418-4.2485 4.91884-3.69319 7.87805-9.05875 8.68084-14.73476.8014-5.67124-.54952-11.65093-4.25169-16.58179-3.69023-4.91488-9.04494-7.86463-14.70558-8.66528-5.66561-.8006-11.63689.55153-16.55575 4.24473" fill="#fbbc09"/><path d="m307.4806 461.20678c-.75787.59782-1.2626 1.5345-1.40011 2.73196-.16965 3.42986-.13797 6.85707.13952 10.20551.24859 2.55946 1.87364 3.57642 3.87674 3.74438 1.99665.0827 3.79081-1.1168 4.11991-3.64977.13621-3.20109.13595-6.45448-.0668-9.70377-.31143-3.52761-1.70275-3.75352-3.72548-4.01425-1.16991-.16579-2.18457.0884-2.94388.68594zm2.2338 1.44283c.13795-.0616.29456-.0873.47413-.0749 1.28767.15618 1.17399 3.389 1.06885 6.56667-.0305 4.29241.15115 6.69672-1.06645 6.70055-1.48278-.0116-1.3907-2.46347-1.32207-6.62913.0606-3.82962-.0913-6.12896.84554-6.56343" fill="#f1471d" fill-rule="evenodd"/><path d="m320.28232 472.42948 2.46187.0348-.0471 3.1818c-.18619 1.50912-1.59777 2.67525-3.81136 2.70659-2.54164-.067-3.822-1.49957-3.87933-4.34893-.0389-2.56178.99057-3.89875 3.12958-5.44845 3.25411-2.49955 2.80425-5.2605 1.02657-5.40131-1.40416.0953-1.41387 1.77429-1.51585 3.73537l-2.62038.0338.0879-3.87726c.13935-1.17006 2.28605-2.578 4.63426-2.56164 2.07161.11821 3.74395 2.21344 3.65675 4.46732-.19893 1.62367-.0204 3.82537-3.25438 6.15488-3.55956 1.96111-2.74236 4.60005-1.3951 4.70394 1.60553-.0901 1.54632-1.2598 1.52562-3.3826" fill="#f1471d" fill-rule="evenodd"/><path d="m329.43066 482.58367.97614-.11894-6.87615-26.1446-1.10218.0165 7.0022 26.24755" fill="#f1471d" fill-rule="evenodd"/><path d="m332.81254 472.47151-2.86891-.23191-.0991 2.77207c.0468 2.30076 2.21229 4.02744 4.48545 3.94384 2.57314-.1538 3.56434-1.20188 3.91573-3.24386.2841-1.99154-.74143-4.16522-2.9501-6.57226-1.8233-2.08866-2.54936-3.73188-2.821-5.30614l5.20192.15967-.0806-3.08695-7.91296-.25624-.0468 3.59364c.0409 1.33916 1.04081 3.48148 2.75287 5.49852 2.88317 3.02231 3.85679 6.15282 1.63907 6.24359-.99967-.11722-1.50324-.85462-1.21404-3.51397" fill="#f1471d" fill-rule="evenodd"/><path d="m310.5664 452.38238c4.67256-3.50826 10.34429-4.79306 15.72205-4.0327 5.37223.75958 10.45452 3.56136 13.95914 8.22909 3.51668 4.68375 4.80046 10.36249 4.0391 15.74728-.76099 5.38702-3.57151 10.48088-8.24326 13.98858-4.68539 3.51784-10.36989 4.8022-15.7605 4.03645-5.38837-.76619-10.48628-3.58371-14.00356-8.26824-3.50583-4.66938-4.7766-10.33411-4.00143-15.71055.77699-5.37895 3.60148-10.47086 8.28846-13.98991zm-.67787-.90284c-4.93246 3.70338-7.90628 9.06613-8.72467 14.7314-.81706 5.66541.5213 11.6333 4.21271 16.54978 3.70275 4.93162 9.07314 7.89722 14.75136 8.70462 5.67683.80723 11.66092-.54452 16.59337-4.24788 4.91885-3.6932 7.87744-9.05957 8.68027-14.73557.80201-5.67047-.55032-11.65034-4.25193-16.58038-3.69018-4.91486-9.04473-7.86606-14.70534-8.66669-5.66483-.80121-11.63693.55154-16.55577 4.24472" fill="#f1471d"/></g></svg>