<svg width="179.82" height="26.191" version="1.1" viewBox="0 0 179.82 26.191" xmlns="http://www.w3.org/2000/svg" xmlns:xlink="http://www.w3.org/1999/xlink">
 <defs>
  <g id="a">
   <path d="m2.1602-4.6875c0-.20312-.16406-.375-.375-.375-.29297 0-.375.20312-.38281.47266l-.089844 1.2617h-.19531c-.26172 0-.50391.042969-.50391.375 0 .3125.23438.375.50391.375h.14453l-.054688.79297h-.24609c-.29297 0-.49609.066406-.49609.36719s.21875.375.49609.375h.19531l-.082031 1.207c0 .054688-.00781.10547-.00781.13672 0 .22266.15625.39062.375.39062.24609 0 .375-.16797.375-.47266l.089841-1.2617h.53906c0 .00781-.097656 1.3711-.097656 1.3711 0 .1875.17188.36328.36719.36328.23438 0 .36719-.1875.39062-.47266l.082031-1.2617h.20312c.27734 0 .49609-.074219.49609-.36719 0-.30859-.21875-.375-.50391-.375h-.14453l.0625-.79297h.23828c.27734 0 .49609-.070313.49609-.375 0-.31641-.23438-.375-.49609-.375h-.1875l.097657-1.375v-.023437c0-.16406-.1875-.33594-.375-.33594-.30078 0-.375.20312-.38281.47266l-.089844 1.2617h-.53125c.066407-1.0508.089844-1.2031.089844-1.3594zm.39062 2.1094-.054687.79297h-.53906l.058594-.79297z"/>
  </g>
  <clipPath id="ag">
   <path d="m46 15h4v6h-4z"/>
  </clipPath>
  <clipPath id="af">
   <path d="m50 15h4v6h-4z"/>
  </clipPath>
  <clipPath id="u">
   <path d="m53 15h5v6h-5z"/>
  </clipPath>
  <clipPath id="j">
   <path d="m57 15h5v6h-5z"/>
  </clipPath>
  <clipPath id="g">
   <path d="m68 15h5v6h-5z"/>
  </clipPath>
  <clipPath id="f">
   <path d="m72 15h5v6h-5z"/>
  </clipPath>
  <clipPath id="e">
   <path d="m76 15h4v6h-4z"/>
  </clipPath>
  <clipPath id="d">
   <path d="m80 15h4v6h-4z"/>
  </clipPath>
  <clipPath id="c">
   <path d="m87 15h5v6h-5z"/>
  </clipPath>
  <clipPath id="b">
   <path d="m91 15h4v6h-4z"/>
  </clipPath>
  <clipPath id="ae">
   <path d="m95 15h4v6h-4z"/>
  </clipPath>
  <clipPath id="ad">
   <path d="m98 15h5v6h-5z"/>
  </clipPath>
  <clipPath id="ac">
   <path d="m113 15h5v6h-5z"/>
  </clipPath>
  <clipPath id="ab">
   <path d="m117 15h5v6h-5z"/>
  </clipPath>
  <clipPath id="aa">
   <path d="m121 15h4v6h-4z"/>
  </clipPath>
  <clipPath id="z">
   <path d="m136 15h4v6h-4z"/>
  </clipPath>
  <clipPath id="y">
   <path d="m140 15h4v6h-4z"/>
  </clipPath>
  <clipPath id="x">
   <path d="m143 15h5v6h-5z"/>
  </clipPath>
  <clipPath id="w">
   <path d="m147 15h5v6h-5z"/>
  </clipPath>
  <clipPath id="v">
   <path d="m158 15h5v6h-5z"/>
  </clipPath>
  <clipPath id="t">
   <path d="m162 15h5v6h-5z"/>
  </clipPath>
  <clipPath id="s">
   <path d="m166 15h4v6h-4z"/>
  </clipPath>
  <clipPath id="r">
   <path d="m170 15h4v6h-4z"/>
  </clipPath>
  <clipPath id="q">
   <path d="m181 15h4v6h-4z"/>
  </clipPath>
  <clipPath id="p">
   <path d="m185 15h4v6h-4z"/>
  </clipPath>
  <clipPath id="o">
   <path d="m188 15h5v6h-5z"/>
  </clipPath>
  <clipPath id="n">
   <path d="m192 15h5v6h-5z"/>
  </clipPath>
  <clipPath id="m">
   <path d="m200 15h4v6h-4z"/>
  </clipPath>
  <clipPath id="l">
   <path d="m211 15h4v6h-4z"/>
  </clipPath>
  <clipPath id="k">
   <path d="m215 15h4v6h-4z"/>
  </clipPath>
  <clipPath id="i">
   <path d="m218 15h5v6h-5z"/>
  </clipPath>
  <clipPath id="h">
   <path d="m222 15h5v6h-5z"/>
  </clipPath>
 </defs>
 <g transform="translate(-46.367 -15)" clip-path="url(#ag)">
  <g fill="#202121">
   <use x="45.902344" y="19.499998" xlink:href="#a"/>
  </g>
 </g>
 <g transform="translate(-46.367 -15)" clip-path="url(#af)">
  <g fill="#202121">
   <use x="49.652344" y="19.499998" xlink:href="#a"/>
  </g>
 </g>
 <g transform="translate(-46.367 -15)" clip-path="url(#u)">
  <g fill="#202121">
   <use x="53.402344" y="19.499998" xlink:href="#a"/>
  </g>
 </g>
 <g transform="translate(-46.367 -15)" clip-path="url(#j)">
  <g fill="#202121">
   <use x="57.15234" y="19.499998" xlink:href="#a"/>
  </g>
 </g>
 <g transform="translate(-1.8386 -2.1153)" fill="#202121">
  <use x="60.90234" y="19.499998" xlink:href="#glyph-0-1"/>
  <use x="64.652344" y="19.499998" xlink:href="#glyph-0-1"/>
 </g>
 <g transform="translate(-46.367 -15)" clip-path="url(#g)">
  <g fill="#202121">
   <use x="68.402344" y="19.499998" xlink:href="#a"/>
  </g>
 </g>
 <g transform="translate(-46.367 -15)" clip-path="url(#f)">
  <g fill="#202121">
   <use x="72.152344" y="19.499998" xlink:href="#a"/>
  </g>
 </g>
 <g transform="translate(-46.367 -15)" clip-path="url(#e)">
  <g fill="#202121">
   <use x="75.902344" y="19.499998" xlink:href="#a"/>
  </g>
 </g>
 <g transform="translate(-46.367 -15)" clip-path="url(#d)">
  <g fill="#202121">
   <use x="79.652344" y="19.499998" xlink:href="#a"/>
  </g>
 </g>
 <g transform="translate(-1.8386 -2.1153)" fill="#202121">
  <use x="83.402344" y="19.499998" xlink:href="#glyph-0-1"/>
 </g>
 <g transform="translate(-46.367 -15)" clip-path="url(#c)">
  <g fill="#202121">
   <use x="87.152344" y="19.499998" xlink:href="#a"/>
  </g>
 </g>
 <g transform="translate(-46.367 -15)" clip-path="url(#b)">
  <g fill="#202121">
   <use x="90.902344" y="19.499998" xlink:href="#a"/>
  </g>
 </g>
 <g transform="translate(-46.367 -15)" clip-path="url(#ae)">
  <g fill="#202121">
   <use x="94.652344" y="19.499998" xlink:href="#a"/>
  </g>
 </g>
 <g transform="translate(-46.367 -15)" clip-path="url(#ad)">
  <g fill="#202121">
   <use x="98.402344" y="19.499998" xlink:href="#a"/>
  </g>
 </g>
 <g transform="translate(-1.8386 -2.1153)" fill="#202121">
  <use x="102.15234" y="19.499998" xlink:href="#glyph-0-1"/>
  <use x="105.90234" y="19.499998" xlink:href="#glyph-0-1"/>
  <use x="109.65234" y="19.499998" xlink:href="#glyph-0-1"/>
 </g>
 <g transform="translate(-46.367 -15)" clip-path="url(#ac)">
  <g fill="#202121">
   <use x="113.40234" y="19.499998" xlink:href="#a"/>
  </g>
 </g>
 <g transform="translate(-46.367 -15)" clip-path="url(#ab)">
  <g fill="#202121">
   <use x="117.15234" y="19.499998" xlink:href="#a"/>
  </g>
 </g>
 <g transform="translate(-46.367 -15)" clip-path="url(#aa)">
  <g fill="#202121">
   <use x="120.90234" y="19.499998" xlink:href="#a"/>
  </g>
 </g>
 <g transform="translate(-1.8386 -2.1153)" fill="#202121">
  <use x="124.65234" y="19.499998" xlink:href="#glyph-0-1"/>
  <use x="128.40234" y="19.499998" xlink:href="#glyph-0-1"/>
  <use x="132.15234" y="19.499998" xlink:href="#glyph-0-1"/>
 </g>
 <g transform="translate(-46.367 -15)" clip-path="url(#z)">
  <g fill="#202121">
   <use x="135.90234" y="19.499998" xlink:href="#a"/>
  </g>
 </g>
 <g transform="translate(-46.367 -15)" clip-path="url(#y)">
  <g fill="#202121">
   <use x="139.65234" y="19.499998" xlink:href="#a"/>
  </g>
 </g>
 <g transform="translate(-46.367 -15)" clip-path="url(#x)">
  <g fill="#202121">
   <use x="143.40234" y="19.499998" xlink:href="#a"/>
  </g>
 </g>
 <g transform="translate(-46.367 -15)" clip-path="url(#w)">
  <g fill="#202121">
   <use x="147.15234" y="19.499998" xlink:href="#a"/>
  </g>
 </g>
 <g transform="translate(-1.8386 -2.1153)" fill="#202121">
  <use x="150.90234" y="19.499998" xlink:href="#glyph-0-1"/>
  <use x="154.65234" y="19.499998" xlink:href="#glyph-0-1"/>
 </g>
 <g transform="translate(-46.367 -15)" clip-path="url(#v)">
  <g fill="#202121">
   <use x="158.40234" y="19.499998" xlink:href="#a"/>
  </g>
 </g>
 <g transform="translate(-46.367 -15)" clip-path="url(#t)">
  <g fill="#202121">
   <use x="162.15234" y="19.499998" xlink:href="#a"/>
  </g>
 </g>
 <g transform="translate(-46.367 -15)" clip-path="url(#s)">
  <g fill="#202121">
   <use x="165.90234" y="19.499998" xlink:href="#a"/>
  </g>
 </g>
 <g transform="translate(-46.367 -15)" clip-path="url(#r)">
  <g fill="#202121">
   <use x="169.65234" y="19.499998" xlink:href="#a"/>
  </g>
 </g>
 <g transform="translate(-1.8386 -2.1153)" fill="#202121">
  <use x="173.40234" y="19.499998" xlink:href="#glyph-0-1"/>
  <use x="177.15233" y="19.499998" xlink:href="#glyph-0-1"/>
 </g>
 <g transform="translate(-46.367 -15)" clip-path="url(#q)">
  <g fill="#202121">
   <use x="180.90233" y="19.499998" xlink:href="#a"/>
  </g>
 </g>
 <g transform="translate(-46.367 -15)" clip-path="url(#p)">
  <g fill="#202121">
   <use x="184.65233" y="19.499998" xlink:href="#a"/>
  </g>
 </g>
 <g transform="translate(-46.367 -15)" clip-path="url(#o)">
  <g fill="#202121">
   <use x="188.40233" y="19.499998" xlink:href="#a"/>
  </g>
 </g>
 <g transform="translate(-46.367 -15)" clip-path="url(#n)">
  <g fill="#202121">
   <use x="192.15233" y="19.499998" xlink:href="#a"/>
  </g>
 </g>
 <g transform="translate(-1.8386 -2.1153)" fill="#202121">
  <use x="195.90233" y="19.499998" xlink:href="#glyph-0-1"/>
 </g>
 <g transform="translate(-46.367 -15)" clip-path="url(#m)">
  <g fill="#202121">
   <use x="199.65233" y="19.499998" xlink:href="#a"/>
  </g>
 </g>
 <g transform="translate(-1.8386 -2.1153)" fill="#202121">
  <use x="203.40233" y="19.499998" xlink:href="#glyph-0-1"/>
  <use x="207.15233" y="19.499998" xlink:href="#glyph-0-1"/>
 </g>
 <g transform="translate(-46.367 -15)" clip-path="url(#l)">
  <g fill="#202121">
   <use x="210.90233" y="19.499998" xlink:href="#a"/>
  </g>
 </g>
 <g transform="translate(-46.367 -15)" clip-path="url(#k)">
  <g fill="#202121">
   <use x="214.65233" y="19.499998" xlink:href="#a"/>
  </g>
 </g>
 <g transform="translate(-46.367 -15)" clip-path="url(#i)">
  <g fill="#202121">
   <use x="218.40233" y="19.499998" xlink:href="#a"/>
  </g>
 </g>
 <g transform="translate(-46.367 -15)" clip-path="url(#h)">
  <g fill="#202121">
   <use x="222.15233" y="19.499998" xlink:href="#a"/>
  </g>
 </g>
 <g transform="translate(-46.367 -15)" fill="#202121">
  <use x="45.902344" y="24.749998" xlink:href="#a"/>
  <use x="49.652344" y="24.749998" xlink:href="#glyph-0-1"/>
  <use x="53.402344" y="24.749998" xlink:href="#glyph-0-1"/>
  <use x="57.15234" y="24.749998" xlink:href="#glyph-0-1"/>
  <use x="60.90234" y="24.749998" xlink:href="#a"/>
  <use x="64.652344" y="24.749998" xlink:href="#glyph-0-1"/>
  <use x="68.402344" y="24.749998" xlink:href="#a"/>
  <use x="72.152344" y="24.749998" xlink:href="#glyph-0-1"/>
  <use x="75.902344" y="24.749998" xlink:href="#glyph-0-1"/>
  <use x="79.652344" y="24.749998" xlink:href="#glyph-0-1"/>
  <use x="83.402344" y="24.749998" xlink:href="#glyph-0-1"/>
  <use x="87.152344" y="24.749998" xlink:href="#a"/>
  <use x="90.902344" y="24.749998" xlink:href="#glyph-0-1"/>
  <use x="94.652344" y="24.749998" xlink:href="#glyph-0-1"/>
  <use x="98.402344" y="24.749998" xlink:href="#glyph-0-1"/>
  <use x="102.15234" y="24.749998" xlink:href="#a"/>
  <use x="105.90234" y="24.749998" xlink:href="#glyph-0-1"/>
  <use x="109.65234" y="24.749998" xlink:href="#a"/>
  <use x="113.40234" y="24.749998" xlink:href="#glyph-0-1"/>
  <use x="117.15234" y="24.749998" xlink:href="#glyph-0-1"/>
  <use x="120.90234" y="24.749998" xlink:href="#glyph-0-1"/>
  <use x="124.65234" y="24.749998" xlink:href="#a"/>
  <use x="128.40234" y="24.749998" xlink:href="#glyph-0-1"/>
  <use x="132.15234" y="24.749998" xlink:href="#glyph-0-1"/>
  <use x="135.90234" y="24.749998" xlink:href="#a"/>
  <use x="139.65234" y="24.749998" xlink:href="#glyph-0-1"/>
  <use x="143.40234" y="24.749998" xlink:href="#glyph-0-1"/>
  <use x="147.15234" y="24.749998" xlink:href="#glyph-0-1"/>
  <use x="150.90234" y="24.749998" xlink:href="#a"/>
  <use x="154.65234" y="24.749998" xlink:href="#glyph-0-1"/>
  <use x="158.40234" y="24.749998" xlink:href="#a"/>
  <use x="162.15234" y="24.749998" xlink:href="#glyph-0-1"/>
  <use x="165.90234" y="24.749998" xlink:href="#glyph-0-1"/>
  <use x="169.65234" y="24.749998" xlink:href="#glyph-0-1"/>
  <use x="173.40234" y="24.749998" xlink:href="#glyph-0-1"/>
  <use x="177.15233" y="24.749998" xlink:href="#glyph-0-1"/>
  <use x="180.90233" y="24.749998" xlink:href="#a"/>
  <use x="184.65233" y="24.749998" xlink:href="#glyph-0-1"/>
  <use x="188.40233" y="24.749998" xlink:href="#glyph-0-1"/>
  <use x="192.15233" y="24.749998" xlink:href="#glyph-0-1"/>
  <use x="195.90233" y="24.749998" xlink:href="#glyph-0-1"/>
  <use x="199.65233" y="24.749998" xlink:href="#a"/>
  <use x="203.40233" y="24.749998" xlink:href="#glyph-0-1"/>
  <use x="207.15233" y="24.749998" xlink:href="#glyph-0-1"/>
  <use x="210.90233" y="24.749998" xlink:href="#a"/>
  <use x="45.902344" y="29.999998" xlink:href="#a"/>
  <use x="49.652344" y="29.999998" xlink:href="#a"/>
  <use x="53.402344" y="29.999998" xlink:href="#a"/>
  <use x="57.15234" y="29.999998" xlink:href="#a"/>
  <use x="68.402344" y="29.999998" xlink:href="#a"/>
  <use x="72.152344" y="29.999998" xlink:href="#a"/>
  <use x="75.902344" y="29.999998" xlink:href="#a"/>
  <use x="87.152344" y="29.999998" xlink:href="#a"/>
  <use x="90.902344" y="29.999998" xlink:href="#a"/>
  <use x="94.652344" y="29.999998" xlink:href="#a"/>
  <use x="98.402344" y="29.999998" xlink:href="#a"/>
  <use x="105.90234" y="29.999998" xlink:href="#a"/>
  <use x="128.40234" y="29.999998" xlink:href="#a"/>
  <use x="135.90234" y="29.999998" xlink:href="#a"/>
  <use x="139.65234" y="29.999998" xlink:href="#a"/>
  <use x="143.40234" y="29.999998" xlink:href="#a"/>
  <use x="147.15234" y="29.999998" xlink:href="#a"/>
  <use x="158.40234" y="29.999998" xlink:href="#a"/>
  <use x="162.15234" y="29.999998" xlink:href="#a"/>
  <use x="165.90234" y="29.999998" xlink:href="#a"/>
  <use x="188.40233" y="29.999998" xlink:href="#a"/>
  <use x="199.65233" y="29.999998" xlink:href="#a"/>
  <use x="218.40233" y="29.999998" xlink:href="#a"/>
  <use x="45.902344" y="35.25" xlink:href="#a"/>
  <use x="49.652344" y="35.25" xlink:href="#glyph-0-1"/>
  <use x="53.402344" y="35.25" xlink:href="#glyph-0-1"/>
  <use x="57.15234" y="35.25" xlink:href="#glyph-0-1"/>
  <use x="60.90234" y="35.25" xlink:href="#glyph-0-1"/>
  <use x="64.652344" y="35.25" xlink:href="#glyph-0-1"/>
  <use x="68.402344" y="35.25" xlink:href="#a"/>
  <use x="72.152344" y="35.25" xlink:href="#glyph-0-1"/>
  <use x="75.902344" y="35.25" xlink:href="#glyph-0-1"/>
  <use x="79.652344" y="35.25" xlink:href="#glyph-0-1"/>
  <use x="83.402344" y="35.25" xlink:href="#glyph-0-1"/>
  <use x="87.152344" y="35.25" xlink:href="#a"/>
  <use x="90.902344" y="35.25" xlink:href="#glyph-0-1"/>
  <use x="94.652344" y="35.25" xlink:href="#glyph-0-1"/>
  <use x="98.402344" y="35.25" xlink:href="#a"/>
  <use x="102.15234" y="35.25" xlink:href="#glyph-0-1"/>
  <use x="105.90234" y="35.25" xlink:href="#glyph-0-1"/>
  <use x="109.65234" y="35.25" xlink:href="#a"/>
  <use x="113.40234" y="35.25" xlink:href="#glyph-0-1"/>
  <use x="117.15234" y="35.25" xlink:href="#glyph-0-1"/>
  <use x="120.90234" y="35.25" xlink:href="#glyph-0-1"/>
  <use x="124.65234" y="35.25" xlink:href="#a"/>
  <use x="128.40234" y="35.25" xlink:href="#glyph-0-1"/>
  <use x="132.15234" y="35.25" xlink:href="#glyph-0-1"/>
  <use x="135.90234" y="35.25" xlink:href="#a"/>
  <use x="139.65234" y="35.25" xlink:href="#glyph-0-1"/>
  <use x="143.40234" y="35.25" xlink:href="#glyph-0-1"/>
  <use x="147.15234" y="35.25" xlink:href="#glyph-0-1"/>
  <use x="150.90234" y="35.25" xlink:href="#glyph-0-1"/>
  <use x="154.65234" y="35.25" xlink:href="#glyph-0-1"/>
  <use x="158.40234" y="35.25" xlink:href="#a"/>
  <use x="162.15234" y="35.25" xlink:href="#glyph-0-1"/>
  <use x="165.90234" y="35.25" xlink:href="#glyph-0-1"/>
  <use x="169.65234" y="35.25" xlink:href="#glyph-0-1"/>
  <use x="173.40234" y="35.25" xlink:href="#glyph-0-1"/>
  <use x="177.15233" y="35.25" xlink:href="#glyph-0-1"/>
  <use x="180.90233" y="35.25" xlink:href="#glyph-0-1"/>
  <use x="184.65233" y="35.25" xlink:href="#glyph-0-1"/>
  <use x="188.40233" y="35.25" xlink:href="#glyph-0-1"/>
  <use x="192.15233" y="35.25" xlink:href="#a"/>
  <use x="195.90233" y="35.25" xlink:href="#glyph-0-1"/>
  <use x="199.65233" y="35.25" xlink:href="#a"/>
  <use x="203.40233" y="35.25" xlink:href="#glyph-0-1"/>
  <use x="207.15233" y="35.25" xlink:href="#glyph-0-1"/>
  <use x="210.90233" y="35.25" xlink:href="#glyph-0-1"/>
  <use x="214.65233" y="35.25" xlink:href="#glyph-0-1"/>
  <use x="218.40233" y="35.25" xlink:href="#glyph-0-1"/>
  <use x="222.15233" y="35.25" xlink:href="#a"/>
  <use x="45.902344" y="40.499996" xlink:href="#a"/>
  <use x="49.652344" y="40.499996" xlink:href="#glyph-0-1"/>
  <use x="53.402344" y="40.499996" xlink:href="#glyph-0-1"/>
  <use x="57.15234" y="40.499996" xlink:href="#glyph-0-1"/>
  <use x="60.90234" y="40.499996" xlink:href="#glyph-0-1"/>
  <use x="64.652344" y="40.499996" xlink:href="#glyph-0-1"/>
  <use x="68.402344" y="40.499996" xlink:href="#a"/>
  <use x="72.152344" y="40.499996" xlink:href="#a"/>
  <use x="75.902344" y="40.499996" xlink:href="#a"/>
  <use x="79.652344" y="40.499996" xlink:href="#a"/>
  <use x="83.402344" y="40.499996" xlink:href="#glyph-0-1"/>
  <use x="87.152344" y="40.499996" xlink:href="#a"/>
  <use x="90.902344" y="40.499996" xlink:href="#glyph-0-1"/>
  <use x="94.652344" y="40.499996" xlink:href="#glyph-0-1"/>
  <use x="98.402344" y="40.499996" xlink:href="#glyph-0-1"/>
  <use x="102.15234" y="40.499996" xlink:href="#a"/>
  <use x="105.90234" y="40.499996" xlink:href="#glyph-0-1"/>
  <use x="109.65234" y="40.499996" xlink:href="#glyph-0-1"/>
  <use x="113.40234" y="40.499996" xlink:href="#a"/>
  <use x="117.15234" y="40.499996" xlink:href="#a"/>
  <use x="120.90234" y="40.499996" xlink:href="#a"/>
  <use x="124.65234" y="40.499996" xlink:href="#glyph-0-1"/>
  <use x="128.40234" y="40.499996" xlink:href="#glyph-0-1"/>
  <use x="132.15234" y="40.499996" xlink:href="#glyph-0-1"/>
  <use x="135.90234" y="40.499996" xlink:href="#a"/>
  <use x="139.65234" y="40.499996" xlink:href="#glyph-0-1"/>
  <use x="143.40234" y="40.499996" xlink:href="#glyph-0-1"/>
  <use x="147.15234" y="40.499996" xlink:href="#glyph-0-1"/>
  <use x="150.90234" y="40.499996" xlink:href="#glyph-0-1"/>
  <use x="154.65234" y="40.499996" xlink:href="#glyph-0-1"/>
  <use x="158.40234" y="40.499996" xlink:href="#a"/>
  <use x="162.15234" y="40.499996" xlink:href="#a"/>
  <use x="165.90234" y="40.499996" xlink:href="#a"/>
  <use x="169.65234" y="40.499996" xlink:href="#a"/>
  <use x="173.40234" y="40.499996" xlink:href="#glyph-0-1"/>
  <use x="177.15233" y="40.499996" xlink:href="#a"/>
  <use x="180.90233" y="40.499996" xlink:href="#a"/>
  <use x="184.65233" y="40.499996" xlink:href="#a"/>
  <use x="188.40233" y="40.499996" xlink:href="#a"/>
  <use x="192.15233" y="40.499996" xlink:href="#glyph-0-1"/>
  <use x="195.90233" y="40.499996" xlink:href="#glyph-0-1"/>
  <use x="199.65233" y="40.499996" xlink:href="#a"/>
  <use x="203.40233" y="40.499996" xlink:href="#glyph-0-1"/>
  <use x="207.15233" y="40.499996" xlink:href="#a"/>
  <use x="210.90233" y="40.499996" xlink:href="#a"/>
  <use x="214.65233" y="40.499996" xlink:href="#a"/>
  <use x="218.40233" y="40.499996" xlink:href="#a"/>
 </g>
</svg>
