<svg height="374" viewBox="0 0 601 374" width="601" xmlns="http://www.w3.org/2000/svg"><g stroke="#000" stroke-linecap="round" stroke-linejoin="round" stroke-width="2.56"><path d="m298.127 208.451c11.819-44.675-35.768-124.359-36.651-98.068-1.767.834-49.458-49.243-32.678-9.181 0 2.504-51.223-36.724-24.728 8.346 1.766 0-57.847-21.7-21.638 16.693 6.183 5.007 81.38 70.108 73.431 145.224-4.314 5.699-47.631 13.51-83.739-8.143 6.094-2.993 6.53-30.655-16.628-18.565-2.65-15.023-39.743-51.747-48.574 35.889-2.65 4.173-106.105 91.093-106.105 91.093s155.928-87.063 159.46-96.244c28.557 14.391 83.166 18.774 96.51 11.912-2.174 33.622 52.565 66.454 138.104 40.455 16.887 1.21 37.565-7.403 20.122-22.793 4.264 2.268 27.618.354 59.885-15.892-21.776-7.899-45.337-6.963-41.205-33.975-18.547 15.858-47.691 35.46-52.99 17.933.883-1.67 36.209-24.205 16.78-25.874-3.533-.834 20.313-10.85 4.416-20.031-1.767.835 27.378-15.858 11.481-26.708-2.65 0 18.546-9.181 9.715-20.865-1.767-.835 47.69-32.551 10.598-29.212 21.196-10.016 47.69-37.558-5.299-23.37-.442-.417 48.574-29.629 43.495-50.286-5.706-27.258-11.26-6.051-58.509 37.767-4.416 2.504 49.457-73.447 31.794-89.305-30.028-14.188-39.743 85.966-60.055 90.974-1.767 1.669 44.158-95.982 24.728-106.832-22.962-10.85-30.027 70.109-52.107 110.171-4.415-30.047 24.729-100.155 15.897-112.675-14.13-12.519-21.196-2.086-25.17 11.685-7.065 24.204-33.02 174.58-50.34 189.877z"/><path d="m468.013 333.888c.223 3.24 9.2 5.663 13.087 3.724 6.163 1.76 38.611 8.12 41.201 12.329 13.042 14.185 68.997 21.625 77.151 9.222 1.687-6.2-60.717-30.729-76.626-16.81-12.43-2.434-33.282-6.674-41.247-8.886-3.732-3.967-9.426-6.793-12.074-3.902-1.062.144-58.88-14.21-61.689-14.98-1.471-.403-2.264 4.339.051 5.281.945.385 57.198 12.952 60.146 14.022z"/></g></svg>