<svg height="22" viewBox="0 0 133 22" width="133" xmlns="http://www.w3.org/2000/svg"><g fill="#232020"><path d="m11.654 18.718h-3.628l.99-4.6h3.485c2.259 0 2.794 1.117 2.794 2.002 0 1.249-.804 2.598-3.641 2.598m9.804-2.804h-3.624l.99-4.596h3.477c2.26 0 2.795 1.117 2.795 1.995 0 1.253-.803 2.601-3.638 2.601m1.351-7.205h-3.625l.99-4.599h3.481c2.256 0 2.794 1.119 2.794 2 0 1.25-.808 2.599-3.64 2.599m-9.803 2.806h-3.633l.99-4.601h3.487c2.255 0 2.792 1.119 2.792 2.004 0 1.248-.804 2.597-3.636 2.597m-9.381 0h-3.625l.988-4.601h3.48c2.26 0 2.797 1.119 2.797 2.004 0 1.248-.806 2.597-3.64 2.597m10.634-6.916h-3.629l.989-4.599h3.487c2.256 0 2.79 1.118 2.79 1.999 0 1.25-.805 2.6-3.637 2.6m-9.377 0h-3.626l.99-4.599h3.476c2.262 0 2.8 1.118 2.8 1.999 0 1.25-.807 2.6-3.64 2.6"/><path d="m130.475 5.896h-.278v-1.69h.43l.507 1.28.49-1.28h.427v1.69h-.277v-1.411h-.007l-.552 1.411h-.18l-.55-1.411h-.01zm-.521-1.469h-.524v1.469h-.278v-1.469h-.513v-.221h1.315z"/><path d="m97.094 21.515v-17.249l10.347 8.624zm-38.022-8.327-2.365-1.465h-9.97l8.385 5.057c-1.768.524-4.024.575-6.105.575-2.555 0-6.88-.202-8.526-1.079-1.583-.843-1.59-2.225-1.59-3.491 0-1.265.005-2.895 1.59-3.736 1.646-.876 5.972-1.08 8.526-1.08 2.552 0 6.855.252 8.526 1.08 1.748.865 1.529 4.139 1.529 4.139m68.19-8.994h-9.388l-5.741 4.784-5.739-4.784h-15.96v11.721l-13.7-11.721h-9.132v14.282l-2.79-1.73c.406-1.33.417-2.778.417-3.961 0-2.264-.009-5.755-2.842-7.262-2.945-1.567-8.804-1.93-13.37-1.93s-10.425.363-13.371 1.93c-2.833 1.507-2.842 4.998-2.842 7.262s.014 5.513 2.842 7.016c2.947 1.573 8.801 1.934 13.371 1.934 3.842 0 8.585-.26 11.752-1.275l1.775 1.106h11.688v-11.688l13.662 11.688h18.527l5.712-4.765 5.714 4.765h9.387l-10.407-8.676z"/></g></svg>