<svg height="177" viewBox="-.6520539 -.6520539 133.3552578 23.0392378" width="1024" xmlns="http://www.w3.org/2000/svg"><g fill="#232020"><path d="m11.65375 18.7175h-3.6275l.99-4.6h3.485c2.25875 0 2.79375 1.1175 2.79375 2.0025 0 1.24875-.80375 2.5975-3.64125 2.5975m9.80375-2.80375h-3.62375l.99-4.59625h3.4775c2.26 0 2.795 1.1175 2.795 1.995 0 1.25375-.80375 2.60125-3.63875 2.60125m1.35125-7.205h-3.625l.99-4.59875h3.48125c2.25625 0 2.79375 1.11875 2.79375 2 0 1.25-.8075 2.59875-3.64 2.59875m-9.8025 2.80625h-3.63375l.99-4.60125h3.4875c2.255 0 2.7925 1.11875 2.7925 2.00375 0 1.24875-.805 2.5975-3.63625 2.5975m-9.38125 0h-3.625l.9875-4.60125h3.48c2.26 0 2.7975 1.11875 2.7975 2.00375 0 1.24875-.80625 2.5975-3.64 2.5975m10.63375-6.91625h-3.62875l.98875-4.59875h3.4875c2.25625 0 2.79 1.1175 2.79 1.99875 0 1.25-.805 2.6-3.6375 2.6m-9.37625 0h-3.62625l.99-4.59875h3.47625c2.26125 0 2.8 1.1175 2.8 1.99875 0 1.25-.8075 2.6-3.64 2.6"/><path d="m130.47487 5.89575h-.2775v-1.69h.43001l.50624 1.28.49002-1.28h.4275v1.69h-.27751v-1.41125h-.007l-.55125 1.41125h-.18l-.55001-1.41125h-.01v1.41125zm-.52125-1.46875h-.52375v1.46875h-.2775v-1.46875h-.51375v-.22125h1.31501v.22125z"/><path d="m97.09425 21.51513v-17.24875l10.34625 8.62375zm-38.0225-8.3275-2.365-1.465h-9.97l8.385 5.0575c-1.7675.52375-4.02375.575-6.105.575-2.555 0-6.88-.2025-8.52625-1.07875-1.5825-.84375-1.59-2.225-1.59-3.49125 0-1.265.005-2.895 1.59-3.73625 1.64625-.87625 5.9725-1.08 8.52625-1.08 2.5525 0 6.855.2525 8.52625 1.08 1.7475.865 1.52875 4.13875 1.52875 4.13875m68.19-8.99375h-9.3875l-5.74125 4.78375-5.73875-4.78375h-15.96v11.72125l-13.7-11.72125h-9.1325v14.2825l-2.79-1.73c.40625-1.33.4175-2.77875.4175-3.96125 0-2.26375-.009-5.755-2.8425-7.2625-2.945-1.56625-8.80375-1.93-13.37-1.93s-10.425.36375-13.37125 1.93c-2.8325 1.5075-2.84125 4.99875-2.84125 7.2625s.0138 5.5125 2.84125 7.01625c2.9475 1.5725 8.80125 1.93375 13.37125 1.93375 3.8425 0 8.585-.26 11.7525-1.275l1.775 1.10625h11.6875v-11.68875l13.6625 11.68875h18.52625l5.7125-4.765 5.71376 4.765h9.38749l-10.4075-8.67625z"/></g></svg>