<svg height="103" viewBox="0 0 437 103" width="437" xmlns="http://www.w3.org/2000/svg"><path d="m90.654 59.254c8.931 0 21.851-1.842 21.851-12.467.029-.82-.045-1.64-.22-2.441l-5.318-23.1c-1.231-5.088-2.309-7.393-11.231-11.856-6.928-3.54-22.011-9.39-26.474-9.39-4.155 0-5.361 5.357-10.317 5.357-4.771 0-8.311-4-12.774-4-4.282 0-7.075 2.92-9.233 8.927 0 0-6 16.933-6.773 19.39-.126.454-.18.917-.16 1.386 0 6.583 25.918 28.169 60.649 28.169m23.222-8.125c1.235 5.845 1.235 6.46 1.235 7.231 0 9.995-11.235 15.542-26.01 15.542-33.384.02-62.627-19.541-62.627-32.471 0-1.801.361-3.584 1.075-5.233-12.008.599-27.549 2.743-27.549 16.465 0 22.475 53.251 50.175 95.42 50.175 32.329 0 40.482-14.619 40.482-26.167 0-9.082-7.851-19.39-22.011-25.542" fill="#e00"/><path d="m113.876 51.104c1.235 5.845 1.235 6.46 1.235 7.231 0 9.995-11.235 15.542-26.01 15.542-33.384.02-62.627-19.541-62.627-32.471 0-1.801.361-3.584 1.075-5.233l2.616-6.471c-.121.445-.175.899-.16 1.358 0 6.583 25.917 28.169 60.649 28.169 8.931 0 21.851-1.845 21.851-12.47.029-.816-.045-1.637-.22-2.441z"/><path d="m413.559 65.904c0 8.486 5.107 12.612 14.419 12.612 2.866-.069 5.713-.468 8.487-1.196v-9.849c-1.772.566-3.624.845-5.484.83-3.833 0-5.253-1.201-5.253-4.805v-15.087h11.107v-10.136h-11.107v-12.853l-12.139 2.628v10.225h-8.062v10.136h8.032zm-37.836.225c0-2.628 2.631-3.901 6.611-3.901 2.431.01 4.848.312 7.211.897v5.103c-2.329 1.275-4.941 1.919-7.592 1.879-3.897 0-6.23-1.498-6.23-3.978m3.709 12.539c4.283 0 7.741-.899 10.968-3.077v2.408h12.006v-25.464c0-9.677-6.522-14.99-17.411-14.99-6.084 0-12.095 1.425-18.565 4.355l4.356 8.935c4.658-1.952 8.569-3.154 12.017-3.154 5 0 7.582 1.949 7.582 5.933v1.949c-2.939-.763-5.971-1.143-9.009-1.129-10.22 0-16.371 4.287-16.371 11.948 0 6.983 5.551 12.311 14.414 12.311m-66.001-.675h12.915v-20.595h21.631v20.576h12.949v-52.564h-12.9v20.195h-21.627v-20.195h-12.915l-.054 52.583zm-49.165-19.922c0-5.707 4.506-10.063 10.44-10.063 3.084-.064 6.083 1.035 8.397 3.081v13.886c-2.265 2.139-5.287 3.286-8.397 3.189-5.856 0-10.44-4.355-10.44-10.064m18.998 19.903h12.017v-55.219l-12.134 2.626v14.941c-3.09-1.747-6.586-2.656-10.142-2.626-11.557 0-20.648 8.93-20.648 20.346-.133 11.143 8.784 20.284 19.921 20.42h.356c3.834.02 7.569-1.186 10.66-3.447zm-55.136-30.547c3.823 0 7.05 2.48 8.33 6.304h-16.562c1.196-3.945 4.203-6.304 8.232-6.304m-20.469 10.713c0 11.562 9.458 20.576 21.617 20.576 6.683 0 11.567-1.806 16.601-6.015l-8.043-7.139c-1.875 1.958-4.652 3.008-7.953 3.008-4.243.122-8.125-2.388-9.765-6.304h28.31v-3.022c0-12.618-8.482-21.699-20.049-21.699-5.41-.079-10.63 1.991-14.516 5.756-3.883 3.77-6.109 8.926-6.192 14.336v.503m-20.952-21.724c4.282 0 6.68 2.7 6.68 5.938 0 3.232-2.398 5.932-6.68 5.932h-12.774v-11.87zm-25.704 41.529h12.915v-19.15h9.83l9.916 19.15h14.459l-11.562-21.03c6.01-2.446 9.931-8.301 9.907-14.79 0-9.464-7.432-16.744-18.565-16.744h-26.9z"/></svg>