<svg height="252" viewBox="-3.084375 -3.084375 443.00374 108.98125" width="1024" xmlns="http://www.w3.org/2000/svg"><path d="m90.6538 59.2537c8.9312 0 21.8512-1.8412 21.8512-12.4662.029-.82-.045-1.64-.22-2.4413l-5.3175-23.1c-1.2312-5.0887-2.31-7.3937-11.2312-11.8562-6.9288-3.54-22.0113-9.39-26.4738-9.39-4.155 0-5.3612 5.3575-10.3175 5.3575-4.7712 0-8.3112-4-12.7737-4-4.2825 0-7.075 2.92-9.2338 8.9262 0 0-6 16.9338-6.7725 19.39-.1262.4538-.18.9175-.16 1.3863 0 6.5825 25.9175 28.1687 60.6488 28.1687m23.2225-8.125c1.235 5.845 1.235 6.46 1.235 7.2313 0 9.995-11.235 15.5425-26.01 15.5425-33.3838.02-62.6275-19.5413-62.6275-32.4713 0-1.8012.3612-3.5837 1.075-5.2337-12.0075.6-27.5488 2.7437-27.5488 16.465 0 22.475 53.2513 50.175 95.42 50.175 32.3288 0 40.4825-14.6188 40.4825-26.1663 0-9.0825-7.8512-19.39-22.0112-25.5425" fill="#e00"/><path d="m113.8763 51.1037c1.235 5.845 1.235 6.46 1.235 7.2313 0 9.995-11.235 15.5425-26.01 15.5425-33.3838.02-62.6275-19.5413-62.6275-32.4713 0-1.8012.3612-3.5837 1.075-5.2337l2.6162-6.47c-.1212.445-.175.8987-.16 1.3575 0 6.5825 25.9175 28.1687 60.6488 28.1687 8.9312 0 21.8512-1.845 21.8512-12.47.029-.8162-.045-1.6362-.22-2.4412z"/><path d="m413.5588 65.9037c0 8.4863 5.1075 12.6125 14.4187 12.6125 2.8663-.069 5.7138-.4687 8.4875-1.1962v-9.8488c-1.7725.5663-3.6237.845-5.4837.83-3.8338 0-5.2538-1.2012-5.2538-4.805v-15.0875h11.1075v-10.1362h-11.1075v-12.8525l-12.1387 2.6275v10.225h-8.0613v10.1362h8.0313zm-37.8363.225c0-2.6275 2.6313-3.9012 6.6113-3.9012 2.4312.01 4.8487.3125 7.2112.8975v5.1025c-2.3287 1.275-4.9412 1.92-7.5925 1.88-3.8962 0-6.23-1.4988-6.23-3.9788m3.71 12.5388c4.2825 0 7.74-.8988 10.9675-3.0763v2.4075h12.0063v-25.4637c0-9.6775-6.5225-14.99-17.4113-14.99-6.0837 0-12.095 1.425-18.565 4.355l4.3563 8.935c4.6575-1.9525 8.5687-3.1538 12.0162-3.1538 5 0 7.5825 1.9488 7.5825 5.9325v1.9488c-2.9387-.7625-5.9712-1.1425-9.0087-1.1288-10.22 0-16.3713 4.2875-16.3713 11.9488 0 6.9825 5.5513 12.31 14.4138 12.31m-66.0013-.675h12.915v-20.595h21.6313v20.5762h12.9487v-52.5637h-12.9v20.195h-21.6262v-20.195h-12.915l-.054 52.5825zm-49.165-19.9213c0-5.7075 4.5063-10.0637 10.44-10.0637 3.085-.064 6.0838 1.035 8.3975 3.0812v13.8863c-2.265 2.1387-5.2875 3.2862-8.3975 3.1887-5.855 0-10.44-4.355-10.44-10.0637m18.9988 19.9025h12.0162v-55.2188l-12.1337 2.6263v14.9412c-3.09-1.7475-6.5863-2.6562-10.1413-2.6262-11.5575 0-20.6487 8.93-20.6487 20.3462-.1325 11.1425 8.7837 20.2838 19.9212 20.42h.3563c3.8337.02 7.5687-1.1862 10.66-3.4475zm-55.1363-30.5463c3.8225 0 7.05 2.48 8.33 6.3038h-16.5625c1.1963-3.945 4.2038-6.3038 8.2325-6.3038m-20.4687 10.7125c0 11.5625 9.4575 20.5763 21.6162 20.5763 6.6838 0 11.5675-1.8063 16.6013-6.015l-8.0425-7.1388c-1.875 1.9575-4.6525 3.0075-7.9538 3.0075-4.2425.1225-8.125-2.3875-9.765-6.3037h28.31v-3.0225c0-12.6175-8.4812-21.6988-20.0487-21.6988-5.41-.079-10.63 1.9913-14.5163 5.7563-3.8825 3.77-6.1087 8.9262-6.1912 14.3362v.5025m-20.9525-21.7237c4.2825 0 6.68 2.7 6.68 5.9375 0 3.2325-2.3975 5.9325-6.68 5.9325h-12.7738v-11.87zm-25.7038 41.5287h12.915v-19.15h9.83l9.9163 19.15h14.4587l-11.5625-21.03c6.01-2.4462 9.9313-8.3012 9.9075-14.79 0-9.4637-7.4325-16.7437-18.565-16.7437h-26.9z"/></svg>