<svg fill-rule="evenodd" height="316" viewBox="39286 -219228 111917 111910" width="316" xmlns="http://www.w3.org/2000/svg"><path d="m95251-137888 17958-7436 7437-17965-7437-17959-17958-7436-17959 7436-7436 17959 7436 17965zm-7 29037c-1875 0-3731-96-5561-281l-519-64-3513-19085-1197-346c-2272-704-4448-1625-6502-2745l-666-378-15981 11008-678-538c-2688-2214-5159-4684-7379-7372l-544-692 11008-15987-372-646c-1113-2055-2041-4231-2745-6509l-346-1203-19085-3520-64-499c-185-1831-281-3687-281-5562 0-1882 96-3738 281-5568l71-531 19091-3520 333-1171c704-2272 1632-4448 2745-6509l384-666-11008-15981 532-672c2220-2688 4691-5164 7379-7379l697-557 15988 11015 640-365c2054-1120 4230-2042 6502-2752l1197-339 3520-19085 505-64c1831-186 3687-282 5568-282 1876 0 3732 96 5562 282l531 64 3520 19091 1178 333c2272 704 4448 1632 6502 2746l647 377 15987-11008 691 538c2688 2221 5158 4691 7379 7379l538 691-11008 15981 377 653c1114 2054 2042 4230 2746 6502l333 1178 19091 3520 70 525c186 1830 276 3686 276 5568 0 1875-90 3731-276 5561l-70 519-19085 3513-339 1197c-704 2272-1626 4448-2746 6502l-371 647 11008 15987-544 691c-2214 2688-4691 5159-7373 7379l-684 538-15981-11008-659 378c-2061 1113-4237 2041-6509 2745l-1184 339-3520 19092-519 64c-1830 185-3686 281-5568 281z" fill="#090"/><path d="m147961-168467-19008-3590 2426-2080 19257 3641zm-35782-11737 7008 16934-7008 16928-16935 7014-16934-7014-2054 2054 18988 7860 18983-7860 7865-18982-7865-18989zm27341-17133-3328 461-71-96c-2157-2612-4563-5018-7181-7181l-89-71-15987 10906-1018-582c-1971-1076-4064-1965-6246-2644l-1575-441 2080-2426 359 96c1772 557 3488 1235 5139 2029l1517 774 16185-11040 1479 1159c2764 2278 5299 4819 7577 7577zm-37056-21331-2029 2675-2464-186c-903-45-1811-70-2727-70-915 0-1824 25-2726 70l-2464 186-3597 19008-1574 441c-2176 679-4269 1568-6240 2644h-7 7l-1018 582-15987-10906-90 71c-2617 2163-5024 4569-7180 7181l-71 89 10906 15987-589 1018c-1069 1971-1958 4064-2637 6246l-448 1575-19001 3590-186 2464c-51 903-70 1811-70 2727 0 915 19 1824 70 2726l186 2470-2682 2029-192-1510c-186-1882-288-3783-288-5715 0-1927 102-3834 288-5709l192-1511 19258-3641 102-359c550-1772 1229-3488 2022-5139l775-1517-11040-16185 1165-1479c2278-2758 4812-5299 7571-7577l1478-1159 16192 11040 1517-774h-6 6c1645-794 3366-1472 5139-2029l359-96 3635-19257 1510-192c1882-192 3783-288 5715-288 1927 0 3834 96 5716 288zm-40935 64179 448 1574c679 2183 1568 4269 2637 6240v7-7l582 1024-10899 15981-3334 461 11040-16192-775-1511c-793-1651-1472-3366-2022-5139l-102-358zm24935 24928 3590 19001-2035 2682-3635-19258z" fill="#00e500"/><path d="m128953-172057 2426-2080-96-359c-551-1772-1229-3488-2029-5139l-774-1510 11040-16192-3328 461-10906 15987 589 1011c1069 1971 1958 4064 2637 6246zm-50643 25715-7014-16934 7014-16935 16934-7008 16935 7015 2048-2055-18983-7865-18988 7865-7860 18983 7860 18988zm-35782-11738 19001 3591-2425 2080-19258-3642zm11769 28410 71 90c2156 2617 4563 5024 7180 7180l90 71 15981-10899 1024 582c1971 1075 4064 1958 6240 2637l1581 448-2080 2425-359-102h-6 6c-1773-550-3494-1229-5139-2022l-1517-775-16192 11040-1478-1165c-2759-2278-5293-4812-7571-7571l-1165-1478zm35757 19110 2464 192c902 45 1811 64 2726 64 916 0 1824-19 2727-64l2464-192 3590-19001 1575-448c2182-679 4275-1562 6246-2637l1018-582 15987 10899 89-71c2618-2156 5024-4563 7181-7180l71-90-10906-15981 589-1024-7 7 7-7c1069-1971 1958-4057 2637-6240l441-1574 19008-3591 186-2470c45-902 70-1811 70-2726 0-916-25-1824-70-2727l-186-2464 2675-2029 199 1511c185 1875 288 3782 288 5709 0 1932-103 3833-288 5715l-199 1510-19251 3642-102 358c-551 1773-1229 3488-2029 5139l-774 1511 11040 16192-1159 1478c-2278 2759-4813 5293-7577 7571l-1479 1165-16185-11040-1517 775c-1651 793-3367 1472-5139 2022l-359 102-3641 19258-1504 192c-1882 192-3789 288-5716 288-1932 0-3833-96-5715-288l-1510-192zm16051-88851-3641-19257-2029 2675 3590 19008z" fill="#004c00"/></svg>