<svg height="40" viewBox="0 0 40 40" width="40" xmlns="http://www.w3.org/2000/svg"><path d="m0 40h40v-40h-40z" fill="#053766"/><path d="m40 8.48c-.051-.129-.152-.232-.279-.287-.128-.054-.272-.055-.401-.003l-3.9 1.36c-1.708.572-3.452 1.03-5.22 1.37-3.61.66-6.2-2.23-6.2-2.23-.144-.178-.384-.246-.6-.17-.258.084-.512.181-.76.29.417-2.826 1.381-5.544 2.84-8 .17-.172.17-.448 0-.62-.163-.201-.436-.278-.68-.19-2.46 1.231-4.803 2.684-7 4.34-4.8 3.73-7.47 7.53-7.8 11.34-.25 3.1 1.79 5.13 3.74 7l.34.33c.679 1.977.505 4.147-.48 5.99-1.74 3.84-5.6 7.19-10.44 9-1.52.58-2.8 1-2.8 1-.258.086-.406.356-.34.62.069.224.276.377.51.38h.13c3.791-.931 7.477-2.248 11-3.93l1-.5c6.2-3.22 9.51-7 9.89-11.16.26-2.65-1.31-4.43-3-6 2.16-3 9.16-5.38 9.21-5.38l6.91-2.4c2.21-.7 3.91-1.37 4-1.41.14-.043.254-.146.312-.281.057-.134.053-.288-.012-.419zm-18.37.87c-2.263 1.069-4.264 2.622-5.86 4.55-.33-.814-.461-1.695-.38-2.57.26-2.85 3.31-6.16 3.78-6.66 1.498-1.062 3.054-2.04 4.66-2.93-1.219 2.374-1.982 4.955-2.25 7.61zm-12.87 26.89c2.509-1.734 4.528-4.086 5.86-6.83.72-1.493 1.04-3.146.93-4.8.985 1.002 1.51 2.367 1.45 3.77-.38 3.64-4.88 6.24-4.92 6.28-1.08.57-2.19 1.09-3.32 1.58zm12.69-11.92c-.25 2.86-2.08 5.3-4.58 7.32.636-.934 1.025-2.015 1.13-3.14.26-2.73-1.65-4.63-3.52-6.45s-3.65-3.6-3.44-6.21c.26-3.06 2.17-5.79 4.5-8.1-.677 1.077-1.11 2.288-1.27 3.55-.34 3.35 1.91 5.42 3.86 7.24s3.52 3.27 3.31 5.79zm-2.76-6.7c-.904-.778-1.716-1.657-2.42-2.62 1.83-2.93 6-4.84 7.22-5.33 1.299 1.257 2.961 2.072 4.75 2.33-1.02.37-7.24 2.56-9.55 5.62z" fill="#fff"/></svg>