<svg height="72pt" preserveAspectRatio="xMidYMid meet" viewBox="0 0 335.66759 72" width="335.66759pt" xmlns="http://www.w3.org/2000/svg"><g transform="matrix(.009972 0 0 -.009972 0 72)"><path d="m4978 7049c-129-19-188-89-188-222 0-86 30-143 91-174 65-34 183-43 542-43h317v-1545-1544l-462-3c-420-3-467-5-503-21-79-36-124-104-125-187 0-96 37-162 114-203l41-22h1215c958 0 1223 3 1251 13 75 27 109 90 109 207 0 93-27 149-91 185l-44 25-517 3-518 3v1710c0 1919 7 1759-74 1802-41 22-46 22-571 24-291 0-556-3-587-8z"/><path d="m15003 7050c-134-20-205-113-189-249 10-81 42-131 104-157 48-20 179-34 314-34h118v-1545-1545h-113c-133 0-262-15-311-35-19-8-47-31-63-52-26-34-28-43-28-128 0-82 3-95 27-132 17-26 45-49 75-64 47-24 54-24 381-27 319-3 335-2 375 17 23 12 53 36 66 56 50 74 50 77 51 600l1 490 135 122 136 122 444-484c244-267 444-486 444-488 0-3-20-12-44-21-62-24-121-69-153-117-36-55-40-162-7-206 30-41 78-70 135-82 80-17 953-15 1012 3 119 36 175 138 147 270-13 66-38 99-93 128-37 20-63 23-227 27l-186 6-564 614c-311 337-565 616-565 620 0 8 384 348 495 438 108 87 259 177 355 212 47 17 140 38 219 50 189 29 267 67 302 148 27 64 11 166-34 216-9 11-35 29-57 41-39 21-48 21-545 21-564 0-562 0-630-70-29-30-34-43-38-93-7-94 44-167 150-218l36-17-432-361-431-362-5 1107c-5 1089-5 1107-25 1129-46 52-66 54-410 56-176 1-343-1-372-6z"/><path d="m30900 5959c-421-35-769-199-1035-489-243-265-364-598-364-1005-1-438 137-789 415-1054 113-108 199-169 334-237 252-127 491-171 855-161 181 6 236 12 395 42 208 39 222 42 375 92 280 91 485 189 586 280 66 59 92 115 93 193 1 57-3 72-26 106-42 59-90 87-159 92-72 5-153-20-394-123-456-195-590-233-862-242-316-11-554 52-747 198-177 135-300 374-323 627l-6 72h1116c726 0 1143 4 1194 11 170 22 215 76 222 261 8 250-65 498-209 714-74 109-263 296-380 374-219 147-447 224-735 249-135 12-194 12-345 0zm455-452c352-94 590-357 650-714l7-43h-981c-540 0-981 2-981 4 0 19 65 197 91 248 131 260 367 442 659 506 127 29 151 31 320 26 113-2 165-8 235-27z"/><path d="m2425 5950c-464-53-780-245-896-545-41-104-52-189-46-334 9-228 79-378 238-517 231-200 562-284 1131-284 516 0 699-78 738-316 59-352-296-579-832-533-354 30-659 172-796 371-16 24-46 76-67 117-72 143-121 184-222 184-81-1-138-31-173-93l-25-45v-380-380l26-56c31-65 75-103 140-119 66-17 150 7 268 76l94 55 156-35c343-76 518-99 766-99 208-1 292 9 463 54 212 56 372 148 512 296 151 159 217 349 207 593-13 307-131 509-377 644-181 99-432 149-825 166-385 16-527 29-663 60-96 23-148 47-203 97-123 111-111 331 26 468 121 120 285 175 523 175 270-1 451-51 643-180 35-24 136-117 225-206 167-170 214-204 284-204 46 0 111 31 138 65 49 62 57 119 57 415 0 313-8 360-71 430-73 80-160 79-330-6l-111-56-119 32c-282 74-384 90-599 95-110 2-236 0-280-5z"/><path d="m9007 5945c-252-27-511-96-646-172-79-44-153-111-176-159-19-40-21-123-6-181 23-84 111-163 183-163 50 0 177 40 353 110 192 77 297 111 410 130 93 16 340 8 420-14 259-71 393-254 412-563 7-107 10-103-86-78-341 88-877 90-1213 4-548-139-845-506-815-1004 16-259 127-478 321-631 187-148 399-214 691-214 396 0 748 135 1101 424l31 25 17-107c19-126 45-184 104-229 55-41 99-46 427-41 289 4 306 8 362 72 42 47 57 96 50 171-5 72-25 112-70 142-48 33-107 43-279 50l-158 6v751c0 425-5 784-10 826-43 328-189 572-426 711-111 65-183 91-344 126-96 21-492 25-653 8zm597-1441c113-16 334-68 349-83 5-5 7-98 5-207l-3-199-37-65c-108-190-391-364-713-437-129-29-351-36-445-14-194 45-336 152-394 295-53 132-29 307 58 423 181 241 662 358 1180 287z"/><path d="m12729 5946c-185-28-310-67-464-142-294-142-535-382-683-679-151-305-180-744-71-1103 124-407 485-775 904-922 207-72 375-95 629-87 303 10 528 66 801 197 183 89 311 174 411 274 93 94 133 165 141 253 7 79-31 154-99 196-105 65-215 32-429-130-225-170-389-252-599-300-100-23-137-26-290-26-158-1-185 2-275 26-331 88-579 324-675 642-38 126-45 179-44 350 1 149 4 182 26 266 92 343 347 591 704 684 164 42 423 45 569 6 238-64 403-195 573-456 136-209 184-248 305-247 82 0 150 30 184 81 41 60 46 120 40 516-5 404-10 441-64 506-36 43-80 59-158 59-143 0-213-43-236-144l-12-55-47 24c-157 79-352 146-540 186-123 25-173 31-330 34-123 3-213 0-271-9z"/><path d="m23700 5944c-356-39-637-134-765-258-62-61-79-106-73-190 12-140 116-239 234-221 56 8 178 50 324 110 254 105 383 136 571 136 159-1 258-20 367-72 184-88 276-254 297-530l6-87-82 20c-408 94-885 96-1241 4-162-43-283-95-403-176-242-163-367-374-395-667-25-269 52-515 218-694 129-138 278-226 467-275 124-32 372-44 518-25 309 41 610 174 864 382 80 66 77 68 88-36 14-131 48-203 122-254l38-26h315c311 0 316 0 363 24 30 15 58 38 75 64 24 37 27 50 27 131 0 80-3 95-24 125-45 63-152 90-363 91h-106l-5 768c-5 803-7 836-52 1002-23 85-82 212-133 286-48 71-158 178-229 223-115 72-291 130-463 151-115 14-407 11-560-6zm507-1429c94-7 273-42 381-74l72-22v-157c-1-186-14-258-63-338-106-175-406-349-712-414-121-26-346-31-440-11-104 23-222 86-290 155-95 96-132 196-122 336 20 297 339 498 842 530 118 7 167 6 332-5z"/><path d="m28440 5953c-384-41-727-246-1068-638l-52-60v268c0 297-3 312-63 344-29 16-70 18-462 18-420 0-431 0-470-21-22-12-48-30-57-41-53-58-65-188-25-264 45-85 145-109 455-109h162v-964-965l-307-3c-288-3-311-4-353-24-77-36-120-105-120-194 0-86 40-153 114-193l41-22h1090 1090l49 25c61 31 86 75 93 163 9 110-22 178-100 220-42 22-46 22-589 25l-548 3v622 623l135 141c349 365 621 531 900 550 116 7 164-6 358-99 175-84 223-93 305-58 60 26 125 92 155 158 29 63 27 167-3 234-55 124-213 222-414 257-56 10-238 12-316 4z"/><path d="m18500 5881c-70-22-120-63-141-116-16-43-14-163 5-207 28-66 96-101 215-110l35-3 332-1060c368-1173 378-1204 405-1257 29-56 79-109 124-129 46-21 167-25 229-8 54 15 112 73 139 139 12 30 108 371 212 758 105 386 192 702 195 702s86-280 184-622c99-343 194-670 212-728 61-194 133-260 282-260 41 0 93 6 116 12 57 17 118 81 146 154 12 32 174 563 359 1178l336 1119 82 17c138 27 178 76 178 215-1 94-26 152-85 188-35 22-37 22-540 22-497 0-506 0-552-22-34-15-52-32-66-60-44-88-35-216 20-278 46-53 103-66 319-74l186-6-242-881c-133-485-244-887-247-894-2-7-86 261-186 596-101 335-194 640-208 677-65 172-153 236-306 224-114-10-187-64-226-169-10-29-104-340-207-691-104-350-192-634-196-630-5 7-509 1753-509 1766 0 2 87 7 193 10 213 5 275 18 319 64 44 47 58 87 58 160 0 96-28 149-95 183l-50 25-500 2c-275 1-511-2-525-6z"/><path d="m100 2395v-1195l9458 2 9457 3 3 93 3 92h-9366-9365v1100 1100h-95-95z"/><path d="m19414 1982c-55-44-59-109-10-158l34-34h126 126v-464-465l-176-3-176-3-29-33c-40-45-40-99 0-144l29-33 444-3c506-3 500-3 527 73 13 37 12 45-4 79-28 58-57 66-240 66h-155v570 570h-237c-210 0-240-2-259-18z"/><path d="m22490 1885v-115h125 125v115 115h-125-125z"/><path d="m25467 1600c-27-10-73-37-103-60l-54-41v52 52l-133-5c-152-6-184-16-209-68-34-69 17-150 95-150h27v-260-260h-30c-70 0-130-51-130-110 0-34 28-79 61-95 25-14 63-16 221-13l190 3 29 33c63 70 22 168-74 179l-47 6v203 202l53 46c78 66 133 88 223 88 85-1 135-20 168-65 19-26 21-45 24-251l4-223-38-7c-54-11-82-33-95-75-16-53 8-107 55-126 41-18 318-21 360-5 14 5 35 24 47 42 42 67 4 149-75 163l-34 7-5 241c-2 134-10 258-16 277-31 100-117 183-229 219-83 28-217 28-285 1z"/><path d="m22355 1593c-62-7-76-14-95-46-31-50-26-93 14-133l34-34h126 126v-259-260l-176-3-176-3-29-33c-40-45-40-99 0-144l29-33 444-3c506-3 500-3 527 73 13 37 12 45-4 79-28 58-57 66-240 66h-155v370 370l-197-1c-109-1-211-4-228-6z"/><path d="m27880 1593c-59-9-72-15-90-46-31-50-26-93 14-133 31-31 40-34 90-34h56v-238c0-264 7-307 60-380 38-53 96-95 169-123 44-18 78-23 156-23 87 0 107 3 155 25 30 14 75 43 100 64l45 38 3-52 3-51h129c71 0 140 4 154 10 40 15 68 67 62 115-6 47-39 81-91 91l-35 6v369 369l-147-1c-190 0-240-8-270-43-35-42-32-105 8-145 29-29 35-31 110-31h79v-199-199l-65-60c-48-45-79-65-117-77-98-29-195-15-251 35l-32 28-3 346-3 346-132-1c-73-1-143-3-157-6z"/><path d="m30805 1591c-80-15-105-41-105-111 0-48 32-87 80-96 19-4 83-52 170-126l141-119-48-43c-199-178-270-236-295-241-16-4-42-18-58-32-26-21-30-32-30-74 0-53 19-81 66-99 42-16 359-13 399 4 75 32 85 139 18 181-18 11-31 23-30 26 1 4 35 34 75 68 64 52 76 59 91 48 52-37 141-111 141-116-1-3-15-15-33-26-61-39-61-130 2-172 32-22 44-23 211-23 100 0 190 5 208 11 39 13 64 52 66 99 1 52-26 87-80 103-33 9-86 48-204 146-88 74-160 135-160 137s65 58 144 124c89 74 152 120 166 120 35 0 90 62 90 101 0 45-33 97-67 106-50 14-325 9-361-6-64-27-81-107-35-162l27-32-29-24c-17-13-46-37-66-53l-35-29-67 54c-58 46-65 54-51 66 51 42 54 116 5 163-28 27-32 28-167 31-77 2-157 1-179-4z"/></g></svg>