<svg height="785" viewBox="0 0 2281 785" width="2281" xmlns="http://www.w3.org/2000/svg"><path d="m633.228 762.423c-30.297-33.992-63.303-113.599-63.678-153.583-.098-10.515 12.667-20.279 60.838-46.535 13.138-7.16 22.95-14.536 21.804-16.39-1.146-1.853-3.236-2.657-4.645-1.787-1.409.871-19.549 3.495-40.31 5.832-20.761 2.336-40.121 6.015-43.022 8.175-7.573 5.639-19.715 67.571-22.556 115.05l-2.427 40.568-6.15-13.894c-7.584-17.133-16.538-67.021-16.538-92.143 0-25.139 6.779-73.047 10.94-77.318 3.573-3.668 95.723-19.106 115.469-19.345 14.327-.173 13.511-7.077-1.396-11.812-25.971-8.251-96.791-38.825-96.791-41.788 0-6.052 34.532-80.787 46.302-100.208 12.433-20.513 52.197-66.503 55.042-63.658.944.944-3.009 10.144-8.784 20.446-11.464 20.449-39.013 95.002-42.073 113.859-2.268 13.979-1.424 14.565 45.805 31.773 17.858 6.506 35.247 12.931 38.642 14.277 13.831 5.482 4.661-6.412-21.862-28.354-15.419-12.757-28.99-26.201-30.156-29.875-5.118-16.125 59.01-100.525 101.727-133.885 29.324-22.901 31.299-22.115 9.141 3.636-34.866 40.52-53.382 71.088-63.462 104.772l-4.531 15.141 17.359 17.69c19.408 19.777 51.472 45.511 56.705 45.511 1.879 0 5.491-8.334 8.025-18.52 3.69-14.83 8.345-22.106 23.362-36.515l18.753-17.994 18.35-126.641c10.093-69.653 19.918-128.625 21.834-131.051 2.612-3.306 24.498-4.409 87.508-4.409 46.213 0 84.722 1.19 85.575 2.646.852 1.455-3.768 39.157-10.268 83.782-6.5 44.626-11.866 83.121-11.925 85.547-.211 8.637-6.75 4.154-19.728-13.526l-13.166-17.935 7.123-49.973c3.918-27.485 6.438-51.163 5.602-52.619-.837-1.455-23.545-2.645-50.463-2.645-43.596 0-49.132.674-50.683 6.173-.958 3.396-8.577 55.056-16.931 114.802l-15.19 108.628 11.317 8.857c13.7 10.722 19.885 30.627 16.51 53.133-2.399 16-2.38 16.038 5.872 11.621 24.061-12.877 85.647-56.134 92.483-64.958 4.393-5.672.083-43.489-7.857-68.927-3.936-12.612-13.577-33.877-21.426-47.257-7.848-13.38-13.522-25.076-12.607-25.99 3.472-3.473 36.211 34.27 52.109 60.074 21.071 34.201 37.655 84.572 30.631 93.036-2.626 3.164-21.431 16.928-41.788 30.587-20.357 13.658-35.289 25.408-33.182 26.11 2.107.703 25.611-6.15 52.229-15.228 38.646-13.18 49.005-18.1 51.408-24.421 4.071-10.707-2.266-96.168-9.081-122.467-3.005-11.597-4.754-21.794-3.887-22.661 2.367-2.367 14.193 15.505 26.609 40.21 13.483 26.827 25.299 75.496 26.212 107.954l.677 24.102-42.332 15.517c-23.283 8.534-50.667 17.973-60.853 20.975-10.186 3.001-18.52 6.696-18.52 8.21s25.002 6.476 55.561 11.027c30.558 4.551 58.395 9.704 61.858 11.45 7.452 3.758 6.784 9.159-8.608 69.648-9.806 38.539-25.59 75.289-43.922 102.267-9.637 14.182-10.649 9.485-3.228-14.976 6.112-20.141 15.948-87.965 15.948-109.961 0-8.55-1.638-16.557-3.64-17.794-2.001-1.238-18.273-4.478-36.159-7.201-56.406-8.587-60.89-6.124-26.682 14.657 26.58 16.146 45.315 32.232 45.315 38.909 0 10.081-31.637 67.591-53.173 96.658-22.059 29.774-51.861 60.891-72.042 75.221l-10.602 7.527 7.056-9.088c33.38-42.996 43.56-58.455 56.69-86.09 18.656-39.268 27.188-69.894 21.424-76.904-10.015-12.18-67.31-51.817-74.938-51.843-2.614-.009-3.355 8.336-2.271 25.562 2.107 33.494-3.501 62.077-18.298 93.258-48.14 101.443-148.079 100.464-167.981-1.646-5.462-28.024-2.971-55.532 7.978-88.109 4.732-14.081 7.885-26.321 7.006-27.199-2.074-2.074-17.293 5.711-50.091 25.624-41.823 25.392-42.342 26.069-42.271 55.13.089 36.272 8.336 69.919 26.22 106.98 8.661 17.947 15.149 32.631 14.417 32.631-.731 0-9.399-9.054-19.262-20.12zm-472.981-211.493c-84.651-16.443-135.853-54.795-153.305-114.831-5.901-20.299-8.314-62.321-3.981-69.332 2.818-4.558 173.834-5.808 180.59-1.319 2.145 1.425 4.977 8.449 6.293 15.607 4.679 25.453 32.347 37.94 74.441 33.596 22.536-2.326 39.929-10.735 43.891-21.221 6.786-17.963-10.668-28.754-72.632-44.903-83.725-21.822-132.918-41.697-162.367-65.603-40.005-32.474-47.158-102.564-16.909-165.679 24.035-50.15 80.408-90.222 151.603-107.765 43.133-10.628 130.698-11.54 172.857-1.801 77.975 18.015 122.852 61.057 132.701 127.277 2.985 20.072 3.011 29.428.098 35.822l-3.943 8.653-86.976-.943c-94.44-1.025-88.658.293-95.265-21.713-1.881-6.265-7.79-12.716-15.35-16.757-16.11-8.611-50.229-8.81-67.081-.391-10.564 5.277-12.347 7.94-12.347 18.446 0 10.686 1.829 13.278 14.111 19.996 7.761 4.244 40.304 14.387 72.317 22.54 95.409 24.295 123.378 36.193 150.64 64.076 23.768 24.309 31.076 44.212 30.826 83.952-.596 95.062-61.962 165.636-169.119 194.497-23.35 6.289-39.789 7.765-95.247 8.555-36.865.525-70.995.183-75.846-.759zm1275.887-15.212c-49.702-15.881-72.944-47.413-72.944-98.961 0-29.094 10.289-63.631 24.518-82.302 28.912-37.938 76.258-55.952 181.852-69.189 67.536-8.467 83.483-12.412 93.567-23.146 15.231-16.213-.801-29.903-35.004-29.891-21.519.007-39.64 9.423-46.015 23.91-2.8 6.363-8.356 12.368-12.347 13.344-3.991.977-41.387 1.327-83.102.778l-75.845-.997 1.004-14.111c1.442-20.262 19.531-55.148 38.077-73.432 41.709-41.12 126.409-63.135 221.111-57.47 114.666 6.858 164.228 34.827 173.406 97.856 1.692 11.615-2.823 52.178-15.613 140.271l-17.992 123.931 7.859 13.983c6.607 11.755 7.208 15.411 3.775 22.947l-4.085 8.964-85.45-.945-85.451-.945-2.38-11.644c-1.308-6.404-3.086-12.351-3.951-13.215-.864-.864-10.176 3.082-20.693 8.77s-33.189 14.413-50.383 19.389c-40.01 11.579-101.252 12.541-133.914 2.105zm173.257-104.288c12.629-3.75 20.8-8.868 26.754-16.757 9.256-12.262 18.876-39.958 15.168-43.666-1.253-1.253-13.017.491-26.141 3.876-63.202 16.299-78.542 24.289-78.542 40.908 0 19.371 27.293 26.172 62.761 15.639zm-458.799 96.809c-35.708-8.413-56.545-28.38-63.319-60.676-3.651-17.407-2.504-30.393 10.711-121.244 8.14-55.962 14.787-102.939 14.77-104.395-.016-1.455-11.192-2.645-24.834-2.645-18.936 0-25.292-1.269-26.862-5.361-2.614-6.811 9.311-90.218 13.713-95.912 1.876-2.428 14.159-4.705 28.541-5.292l25.248-1.03 7.948-52.915c4.371-29.104 8.696-54.9 9.61-57.325 1.266-3.359 21.813-4.41 86.229-4.41 46.512 0 85.366 1.292 86.342 2.872s-1.275 23.407-5.002 48.506c-3.728 25.098-6.814 49.999-6.859 55.335l-.081 9.701h35.277c41.458 0 38.556-5.846 28.646 57.703-4.007 25.697-8.408 43.022-11.411 44.924-2.688 1.702-19.446 3.12-37.239 3.15l-32.351.054-1.931 9.701c-1.062 5.335-6.026 38.635-11.031 73.999-6.495 45.883-8.078 66.208-5.53 70.969 4.196 7.842 17.969 11.132 46.594 11.132 14.281 0 20.694 1.371 20.626 4.41-.055 2.425-3.774 29.561-8.266 60.302-5.383 36.839-9.859 56.964-13.13 59.035-6.383 4.042-148.897 3.537-166.409-.588zm692.364-6.768c0-9.343 7.034-62.664 12.402-94.021 1.63-9.518 15.021-21.767 91.837-84.003 49.46-40.073 89.008-74.349 87.884-76.167-1.158-1.875-31.759-3.308-70.626-3.308-37.72 0-68.59-1.19-68.601-2.645-.077-10.139 15.193-110.053 17.792-116.414l3.243-7.937h181.751 181.752l-.081 9.701c-.13 15.522-13.115 98.844-16.19 103.886-1.539 2.525-6.818 7.765-11.729 11.646-49.688 39.257-160.731 133.973-160.731 137.098 0 2.823 23.483 4.531 79.372 5.773 76.756 1.706 79.349 1.997 78.616 8.819-2.571 23.955-16.031 113.275-17.404 115.497-.911 1.474-88.874 2.681-195.472 2.681h-193.815zm-1325.547-71.413c-3.655-4.57 54.75-419.721 60.299-428.614 3.297-5.285 169.98-6.461 173.217-1.223 1.083 1.753-6.103 59.298-15.971 127.879l-17.94 124.692-19.869 18.337c-10.928 10.086-20.572 17.635-21.431 16.775-.859-.859.253-12.286 2.472-25.393 9.013-53.237 31.769-224.809 30.162-227.409-.949-1.535-23.101-2.791-49.228-2.791-46.066 0-47.589.24-50.353 7.937-1.568 4.366-12.703 76.992-24.743 161.392-21.334 149.538-22.267 154.355-36.546 188.732-15.101 36.353-19.294 44.096-23.878 44.096-1.465 0-4.251-1.985-6.191-4.41zm357.802-358.061c-1.666-2.8 6.443-61.733 9.64-70.066 1.484-3.866 12.633-4.897 52.933-4.897 28.08 0 51.866 1.313 52.858 2.918 2.091 3.384-6.79 65.636-10.137 71.052-2.599 4.205-102.821 5.151-105.294.993z"/></svg>