<svg height="84" viewBox="0 0 325 84" width="325" xmlns="http://www.w3.org/2000/svg"><path d="m135.651 26.082h20.655l-10.924-16.864-20.045 30.496h-9.12l24.383-36.632c1.06-1.48 2.827-2.374 4.787-2.374 1.895 0 3.661.864 4.689 2.313l24.481 36.69h-9.126l-4.305-6.813h-20.913zm94.761 6.814v-31.823h-7.743v34.934c0 .956.385 1.881 1.124 2.59s1.735 1.11 2.827 1.11h35.303l4.562-6.813zm-128.092-5.707c7.515 0 13.622-5.828 13.622-13.041s-6.102-13.075-13.622-13.075h-33.87v38.636h7.738v-31.823h25.614c3.598 0 6.488 2.806 6.488 6.258 0 3.453-2.891 6.257-6.488 6.257l-21.823-.031 23.108 19.332h11.244l-15.547-12.519zm-81.499 12.52c-11.112 0-20.131-8.633-20.131-19.303 0-10.671 9.019-19.333 20.131-19.333h23.393c11.112 0 20.126 8.667 20.126 19.333s-9.009 19.303-20.126 19.303zm22.874-6.813c7.2 0 13.028-5.58 13.028-12.49 0-6.906-5.828-12.52-13.028-12.52h-22.356c-7.195 0-13.028 5.614-13.028 12.52 0 6.905 5.833 12.49 13.028 12.49zm146.994 6.813c-11.117 0-20.141-8.633-20.141-19.303 0-10.671 9.029-19.333 20.141-19.333h27.788l-4.529 6.813h-22.743c-7.195 0-13.043 5.614-13.043 12.52 0 6.905 5.848 12.49 13.043 12.49h27.915l-4.561 6.813zm94.659-6.813c-5.945 0-10.985-3.824-12.53-9.096h33.088l4.561-6.813h-37.65c1.542-5.243 6.585-9.096 12.53-9.096h22.712l4.594-6.813h-27.819c-11.117 0-20.141 8.666-20.141 19.332s9.029 19.304 20.141 19.304h23.866l4.561-6.814h-27.915" fill="#f80000"/><path d="m316.687 5.16c0-1.881 1.575-3.391 3.534-3.391 1.991 0 3.566 1.51 3.566 3.391 0 1.912-1.575 3.423-3.566 3.423-1.96 0-3.534-1.511-3.534-3.423zm3.534 4.379c2.505 0 4.529-1.943 4.529-4.348s-2.024-4.347-4.529-4.347c-2.474 0-4.497 1.942-4.497 4.347s2.023 4.348 4.497 4.348zm-.418-6.94c.707 0 .996.03 1.317.154.899.277.996 1.048.996 1.357 0 .061 0 .215-.064.4-.032.185-.161.555-.611.833-.064.031-.096.062-.224.123l1.156 2.004h-1.124l-1.028-1.85h-.707v1.85h-.996v-4.871zm.353 2.22c.322-.031.643-.031.836-.309.096-.123.128-.246.128-.431 0-.247-.16-.463-.385-.586-.225-.093-.45-.093-.932-.093h-.289v1.419z" fill="#f80000"/><path d="m15.384 83.338q-3.091 0-5.431-.76-2.299-.761-3.884-2.055-1.546-1.331-2.378-3.119-.833-1.788-.951-3.804h4.002q.357 3.233 2.537 4.945 2.18 1.674 6.224 1.674 1.466 0 2.695-.304 1.268-.343 2.14-.951.912-.647 1.427-1.598.515-.951.515-2.244 0-1.37-.634-2.283-.595-.913-1.744-1.521-1.11-.609-2.695-1.028-1.545-.418-3.487-.836-1.982-.381-3.765-.913-1.744-.533-3.092-1.408-1.347-.913-2.14-2.244-.753-1.332-.753-3.386 0-1.788.753-3.195.753-1.408 2.101-2.359 1.347-.989 3.21-1.483 1.902-.533 4.161-.533 2.735 0 4.717.647 1.981.608 3.329 1.712 1.387 1.103 2.14 2.624.753 1.522 1.03 3.348h-3.923q-.396-2.587-2.259-3.918-1.863-1.37-4.994-1.37-2.933 0-4.677 1.103-1.744 1.104-1.744 3.234 0 1.141.555 1.94.594.761 1.585 1.293 1.03.533 2.418.913 1.426.343 3.091.685 2.14.418 4.082.951 1.982.533 3.488 1.522 1.545.951 2.417 2.472.912 1.522.912 3.88 0 2.017-.833 3.576-.792 1.56-2.259 2.625-1.466 1.065-3.487 1.598-2.022.57-4.4.57z"/><path d="m43.543 83.338q-2.418 0-4.36-.837-1.902-.836-3.25-2.282-1.347-1.484-2.1-3.424-.714-1.978-.714-4.223 0-2.206.714-4.146.753-1.978 2.1-3.424 1.348-1.483 3.25-2.32 1.942-.837 4.36-.837 2.418 0 4.32.837 1.903.837 3.25 2.32 1.348 1.446 2.061 3.424.713 1.94.713 4.146 0 2.245-.713 4.223-.713 1.94-2.061 3.424-1.347 1.446-3.25 2.282-1.902.837-4.32.837zm-.04-2.891q1.625 0 2.854-.608 1.268-.609 2.1-1.674.833-1.065 1.229-2.473.436-1.445.436-3.119 0-1.636-.436-3.081-.396-1.446-1.229-2.511-.832-1.103-2.1-1.712-1.229-.609-2.854-.609-1.625 0-2.893.609-1.228.609-2.061 1.712-.832 1.065-1.268 2.511-.396 1.445-.396 3.081 0 1.674.396 3.119.436 1.408 1.268 2.473.833 1.065 2.061 1.674 1.268.608 2.893.608z"/><path d="m61.52 54.467h3.685v28.306h-3.685z"/><path d="m80.319 83.192c-1.004 0-1.955-.127-2.853-.38-.872-.229-1.638-.584-2.299-1.065-.634-.482-1.136-1.078-1.506-1.788-.37-.736-.555-1.598-.555-2.587 0-1.192.212-2.168.634-2.929.45-.761 1.07-1.37 1.863-1.826.819-.457 1.784-.812 2.893-1.065 1.136-.254 2.391-.457 3.765-.609.793-.076 1.506-.178 2.14-.304.634-.127 1.176-.292 1.625-.495.449-.228.793-.507 1.031-.837.237-.329.356-.761.356-1.293 0-1.116-.396-1.991-1.189-2.625-.766-.634-1.889-.951-3.368-.951-1.691 0-2.959.355-3.805 1.065-.819.71-1.255 1.674-1.308 2.891h-3.567c.027-.862.225-1.686.595-2.472.37-.787.911-1.484 1.625-2.093.713-.608 1.598-1.09 2.655-1.445 1.083-.355 2.338-.533 3.765-.533 1.004 0 1.942.089 2.814.267.872.177 1.651.456 2.338.836.899.508 1.599 1.218 2.101 2.131s.753 2.054.753 3.423v9.55c.109.984-.326 2.619.479 2.48h.159v2.473c-.531.32-.746.288-.86.304-1.136 0-1.629-.684-2.21-1.191-.581-.533-.686-1.264-.898-2.355h-.039c-.344.457-.74.888-1.189 1.294s-.965.773-1.546 1.103c-.581.304-1.242.545-1.982.723-.713.203-1.519.304-2.417.304zm.912-2.587c1.057 0 1.968-.165 2.734-.494.793-.355 1.44-.786 1.942-1.294.529-.532.912-1.115 1.15-1.749.264-.634.396-1.243.396-1.826v-3.348c-.528.33-1.229.621-2.1.875-.846.228-1.705.418-2.577.571-.871.152-1.664.317-2.377.494-.714.152-1.322.38-1.824.685-.502.279-.898.647-1.188 1.103-.265.431-.397 1.002-.397 1.712 0 .659.119 1.204.357 1.636.238.405.555.735.951.989.396.253.846.431 1.348.532.528.076 1.056.114 1.585.114z"/><path d="m103.489 66.025h.119q.99-1.788 2.576-2.853 1.585-1.103 3.725-1.103.436 0 .713.076.317.038.634.152v3.348h-.118q-.397-.115-.714-.153-.317-.038-.792-.038-1.229 0-2.339.457-1.109.418-1.942 1.217-.832.799-1.347 1.94-.476 1.142-.476 2.587v11.11h-3.686v-20.43h3.647z"/><path d="m118.376 54.467h3.844v4.108h-3.844zm.079 7.876h3.686v20.43h-3.686z"/><path d="m138.954 83.387q-4.439 0-6.854-1.826-2.418-1.864-2.656-4.984h3.726q.158 1.103.674 1.864.515.761 1.268 1.217.792.457 1.783.685.991.19 2.14.19 2.537 0 3.646-.913 1.15-.951 1.15-2.32 0-1.674-1.387-2.321-1.348-.685-4.162-1.217-1.545-.304-3.012-.685-1.426-.38-2.536-1.027-1.07-.647-1.744-1.712-.634-1.065-.634-2.739 0-2.624 2.021-4.146 2.061-1.56 5.787-1.56 4.003 0 6.062 1.636 2.059 1.636 2.418 4.299h-3.686q-.238-1.598-1.427-2.435-1.149-.836-3.448-.836-2.18 0-3.17.836-.952.837-.952 2.017 0 .798.357 1.331.396.495 1.11.837.753.342 1.783.571 1.07.228 2.418.494 1.585.304 3.012.685 1.427.38 2.497 1.065 1.109.685 1.743 1.826.634 1.103.634 2.891 0 1.56-.634 2.739-.634 1.179-1.783 1.978-1.11.761-2.695 1.141-1.585.419-3.448.419z"/></svg>