<svg height="87.5" width="329.4" xmlns="http://www.w3.org/2000/svg"><g stroke-width="2.925" transform="matrix(.5081 0 0 .4877 2.7 1.722)"><g fill="#f80000" transform="translate(-715.1 -719.7)"><path d="m980.7 771.7h40.65l-21.5-34.58-39.45 62.53h-17.95l47.99-75.11c2.086-3.035 5.564-4.868 9.42-4.868 3.73 0 7.207 1.77 9.23 4.742l48.18 75.23h-17.96l-8.472-13.97h-41.16zm186.5 13.97v-65.25h-15.24v71.63c0 1.96.7588 3.857 2.213 5.311 1.454 1.454 3.414 2.276 5.564 2.276h69.48l8.978-13.97zm-252.1-11.7c14.79 0 26.81-11.95 26.81-26.74s-12.01-26.81-26.81-26.81h-66.66v79.22h15.23v-65.25h50.41c7.081 0 12.77 5.753 12.77 12.83 0 7.081-5.69 12.83-12.77 12.83l-42.95-.0633 45.48 39.64h22.13l-30.6-25.67zm-160.4 25.67c-21.87 0-39.62-17.7-39.62-39.58s17.75-39.64 39.62-39.64h46.04c21.87 0 39.61 17.77 39.61 39.64s-17.73 39.58-39.61 39.58zm45.02-13.97c14.17 0 25.64-11.44 25.64-25.61 0-14.16-11.47-25.67-25.64-25.67h-44c-14.16 0-25.64 11.51-25.64 25.67s11.48 25.61 25.64 25.61zm289.3 13.97c-21.88 0-39.64-17.7-39.64-39.58s17.77-39.64 39.64-39.64h54.69l-8.914 13.97h-44.76c-14.16 0-25.67 11.51-25.67 25.67s11.51 25.61 25.67 25.61h54.94l-8.977 13.97zm186.3-13.97c-11.7 0-21.62-7.84-24.66-18.65h65.12l8.978-13.97h-74.1c3.035-10.75 12.96-18.65 24.66-18.65h44.7l9.041-13.97h-54.75c-21.88 0-39.64 17.77-39.64 39.64s17.77 39.58 39.64 39.58h46.97l8.977-13.97h-54.94"/><path d="m1337 728.8c0-3.857 3.098-6.954 6.954-6.954 3.92 0 7.018 3.098 7.018 6.954 0 3.92-3.098 7.018-7.018 7.018-3.857 0-6.954-3.098-6.954-7.018zm6.954 8.978c4.931 0 8.914-3.983 8.914-8.914s-3.983-8.914-8.914-8.914c-4.868 0-8.851 3.983-8.851 8.914s3.983 8.914 8.851 8.914zm-.822-14.23c1.391 0 1.96.0632 2.592.3161 1.77.569 1.96 2.15 1.96 2.782 0 .1264 0 .4426-.1264.8219-.063.3794-.3159 1.138-1.201 1.707-.1264.0632-.1896.1264-.4424.2529l2.276 4.109h-2.213l-2.023-3.793h-1.391v3.793h-1.96v-9.989zm.6956 4.552c.632-.0632 1.264-.0632 1.644-.6322.1895-.2529.2532-.5057.2532-.8851 0-.5057-.3164-.9483-.7588-1.201-.4428-.1896-.8852-.1896-1.834-.1896h-.5687v2.908h1.264"/></g><g stroke-width="2.925"><path d="m28.9 169.4q-6.084 0-10.69-1.56-4.524-1.56-7.644-4.212-3.042-2.73-4.68-6.396-1.638-3.666-1.872-7.8h7.878q.702 6.63 4.992 10.14 4.29 3.432 12.25 3.432 2.886 0 5.304-.624 2.496-.702 4.212-1.95 1.794-1.326 2.808-3.276 1.014-1.95 1.014-4.602 0-2.808-1.248-4.68-1.17-1.872-3.432-3.12-2.184-1.248-5.304-2.106-3.042-.858-6.864-1.716-3.9-.78-7.41-1.872-3.432-1.092-6.084-2.886-2.652-1.872-4.212-4.602-1.482-2.73-1.482-6.942 0-3.666 1.482-6.552t4.134-4.836q2.652-2.028 6.318-3.042 3.744-1.092 8.19-1.092 5.382 0 9.283 1.326 3.9 1.248 6.552 3.51 2.73 2.262 4.212 5.382 1.482 3.12 2.028 6.864h-7.722q-.78-5.304-4.446-8.034-3.666-2.808-9.829-2.808-5.772 0-9.205 2.262-3.432 2.262-3.432 6.63 0 2.34 1.092 3.978 1.17 1.56 3.12 2.652 2.028 1.092 4.758 1.872 2.808.702 6.084 1.404 4.212.858 8.034 1.95 3.9 1.092 6.864 3.12 3.042 1.95 4.758 5.07 1.794 3.12 1.794 7.956 0 4.134-1.638 7.332-1.56 3.198-4.446 5.382-2.886 2.184-6.864 3.276-3.978 1.17-8.659 1.17z"/><path d="m84.32 169.4q-4.758 0-8.581-1.716-3.744-1.716-6.396-4.68-2.652-3.042-4.134-7.02-1.404-4.056-1.404-8.659 0-4.524 1.404-8.502 1.482-4.056 4.134-7.02 2.652-3.042 6.396-4.758 3.822-1.716 8.581-1.716 4.758 0 8.503 1.716t6.396 4.758q2.652 2.964 4.056 7.02 1.404 3.978 1.404 8.502 0 4.602-1.404 8.659-1.404 3.978-4.056 7.02-2.652 2.964-6.396 4.68-3.744 1.716-8.503 1.716zm-.078-5.928q3.198 0 5.616-1.248 2.496-1.248 4.134-3.432 1.638-2.184 2.418-5.07.8581-2.964.8581-6.396 0-3.354-.8581-6.318-.78-2.964-2.418-5.148-1.638-2.262-4.134-3.51-2.418-1.248-5.616-1.248-3.198 0-5.694 1.248-2.418 1.248-4.056 3.51-1.638 2.184-2.496 5.148-.78 2.964-.78 6.318 0 3.432.78 6.396.8581 2.886 2.496 5.07 1.638 2.184 4.056 3.432 2.496 1.248 5.694 1.248z"/><path d="m119.7 110.2h7.254v58.04h-7.254z"/><path d="m156.7 169.1c-1.976 0-3.848-.26-5.616-.78-1.716-.468-3.224-1.196-4.524-2.184-1.248-.9881-2.236-2.21-2.964-3.666-.728-1.508-1.092-3.276-1.092-5.304 0-2.444.416-4.446 1.248-6.006.884-1.56 2.106-2.808 3.666-3.744 1.612-.936 3.51-1.664 5.694-2.184 2.236-.52 4.706-.9361 7.41-1.248 1.56-.156 2.964-.364 4.212-.624s2.314-.598 3.198-1.014c.884-.468 1.56-1.04 2.028-1.716s.702-1.56.702-2.652c0-2.288-.78-4.082-2.34-5.382-1.508-1.3-3.718-1.95-6.63-1.95-3.328 0-5.824.728-7.488 2.184-1.612 1.456-2.47 3.432-2.574 5.928h-7.02c.052-1.768.442-3.458 1.17-5.07s1.794-3.042 3.198-4.29 3.146-2.236 5.226-2.964c2.132-.728 4.602-1.092 7.41-1.092 1.976 0 3.822.182 5.538.546s3.25.936 4.602 1.716c1.768 1.04 3.146 2.496 4.134 4.368.9881 1.872 1.482 4.212 1.482 7.02v19.58c.2144 2.018-.6415 5.37.9443 5.086h.312v5.07c-1.045.6575-1.469.5916-1.692.624-2.236 0-3.206-1.403-4.35-2.443-1.144-1.092-1.351-2.591-1.767-4.827h-.078c-.676.9361-1.456 1.82-2.34 2.652s-1.898 1.586-3.042 2.262c-1.144.624-2.444 1.118-3.9 1.482-1.404.416-2.99.624-4.758.624zm1.794-5.304c2.08 0 3.874-.338 5.382-1.014 1.56-.728 2.834-1.612 3.822-2.652 1.04-1.092 1.794-2.288 2.262-3.588.52-1.3.78-2.548.78-3.744v-6.864c-1.04.676-2.418 1.274-4.134 1.794-1.664.468-3.354.858-5.07 1.17s-3.276.65-4.68 1.014c-1.404.312-2.6.78-3.588 1.404-.9881.572-1.768 1.326-2.34 2.262-.52.884-.78 2.054-.78 3.51 0 1.352.234 2.47.702 3.354.468.832 1.092 1.508 1.872 2.028s1.664.884 2.652 1.092c1.04.156 2.08.234 3.12.234z"/><path d="m202.3 133.9h.234q1.95-3.666 5.07-5.85 3.12-2.262 7.332-2.262.858 0 1.404.156.624.078 1.248.312v6.864h-.234q-.78-.234-1.404-.312-.624-.078-1.56-.078-2.418 0-4.602.9361-2.184.858-3.822 2.496-1.638 1.638-2.652 3.978-.9361 2.34-.9361 5.304v22.78h-7.254v-41.89h7.176z"/><path d="m231.6 110.2h7.566v8.424h-7.566zm.156 16.15h7.254v41.89h-7.254z"/><path d="m272.1 169.5q-8.737 0-13.49-3.744-4.758-3.822-5.226-10.22h7.332q.312 2.262 1.326 3.822t2.496 2.496q1.56.936 3.51 1.404 1.95.39 4.212.39 4.992 0 7.176-1.872 2.262-1.95 2.262-4.758 0-3.432-2.73-4.758-2.652-1.404-8.19-2.496-3.042-.624-5.928-1.404-2.808-.78-4.992-2.106-2.106-1.326-3.432-3.51-1.248-2.184-1.248-5.616 0-5.382 3.978-8.502 4.056-3.198 11.39-3.198 7.878 0 11.93 3.354t4.758 8.815h-7.254q-.468-3.276-2.808-4.992-2.262-1.716-6.786-1.716-4.29 0-6.24 1.716-1.872 1.716-1.872 4.134 0 1.638.702 2.73.78 1.014 2.184 1.716 1.482.702 3.51 1.17 2.106.468 4.758 1.014 3.12.624 5.928 1.404 2.808.78 4.914 2.184 2.184 1.404 3.432 3.744 1.248 2.262 1.248 5.928 0 3.198-1.248 5.616t-3.51 4.056q-2.184 1.56-5.304 2.34-3.12.858-6.786.858z"/></g></g></svg>