<svg height="75" width="340" xmlns="http://www.w3.org/2000/svg"><linearGradient id="a" x1="85.13%" x2="23.907%" y1="98.434%" y2="1.372%"><stop offset=".082" stop-color="#d7d7d7"/><stop offset=".173" stop-color="#c5c5c5"/><stop offset=".42" stop-color="#727272"/><stop offset=".682" stop-color="#343434"/><stop offset=".87" stop-color="#0e0e0e"/><stop offset="1"/></linearGradient><g fill="none" fill-rule="evenodd"><path d="M29.588 24.045H17.369v-3.75c0-1.75-.156-2.864-.469-3.343s-.833-.72-1.562-.72c-.792 0-1.39.324-1.797.97s-.61 1.625-.61 2.937c0 1.688.23 2.958.688 3.813.438.854 1.677 1.885 3.719 3.093 5.854 3.48 9.541 6.334 11.062 8.563s2.282 5.823 2.282 10.781c0 3.604-.422 6.26-1.266 7.969s-2.474 3.14-4.89 4.297c-2.417 1.156-5.23 1.734-8.438 1.734-3.521 0-6.526-.667-9.016-2s-4.12-3.031-4.89-5.094-1.157-4.99-1.157-8.78v-3.313h12.22v6.156c0 1.896.171 3.114.515 3.656s.953.813 1.828.813 1.526-.344 1.953-1.032.64-1.708.64-3.062c0-2.98-.406-4.927-1.218-5.844-.834-.917-2.886-2.448-6.156-4.594-3.271-2.166-5.438-3.74-6.5-4.718s-1.943-2.334-2.641-4.063S.619 24.577.619 21.89c0-3.875.495-6.708 1.484-8.5S4.692 10.196 6.9 9.186c2.209-1.01 4.875-1.516 8-1.516 3.417 0 6.328.552 8.735 1.657 2.406 1.104 4 2.494 4.781 4.172s1.172 4.526 1.172 8.546zm35.281 14.313c0 5.083-.12 8.682-.36 10.797s-.989 4.047-2.25 5.797c-1.26 1.75-2.963 3.093-5.109 4.03s-4.645 1.407-7.5 1.407c-2.708 0-5.14-.443-7.297-1.328s-3.89-2.214-5.203-3.984-2.093-3.698-2.343-5.782c-.25-2.083-.375-5.729-.375-10.937v-8.656c0-5.084.12-8.683.359-10.797s.99-4.047 2.25-5.797 2.963-3.094 5.11-4.031c2.145-.938 4.645-1.407 7.5-1.407 2.708 0 5.14.443 7.296 1.329s3.89 2.213 5.203 3.984 2.094 3.698 2.344 5.781c.25 2.083.375 5.73.375 10.938zM51.713 21.733c0-2.354-.13-3.86-.39-4.516s-.798-.984-1.61-.984c-.688 0-1.214.266-1.578.797s-.547 2.099-.547 4.703v23.625c0 2.937.12 4.75.36 5.437s.796 1.032 1.671 1.032c.896 0 1.469-.396 1.719-1.188.25-.792.375-2.677.375-5.656zm47.969-13v33.812c0 3.834-.125 6.526-.375 8.079-.25 1.552-.99 3.145-2.22 4.78s-2.848 2.876-4.859 3.72-4.38 1.265-7.109 1.265c-3.02 0-5.687-.5-8-1.5s-4.042-2.302-5.187-3.906-1.823-3.297-2.032-5.078-.312-5.526-.312-11.235V8.733h13.156V46.67c0 2.209.12 3.62.36 4.235s.723.922 1.453.922c.833 0 1.37-.339 1.609-1.016s.36-2.276.36-4.797V8.733zm5.093 0h9.313c6.208 0 10.411.24 12.61.719s3.989 1.703 5.374 3.672 2.078 5.109 2.078 9.421c0 3.938-.49 6.584-1.468 7.938s-2.907 2.167-5.782 2.437c2.605.646 4.354 1.51 5.25 2.594.896 1.083 1.453 2.078 1.672 2.985s.328 3.4.328 7.484v13.344h-12.218V42.514c0-2.708-.214-4.385-.641-5.031s-1.547-.969-3.36-.969v22.813h-13.156zm13.157 8.656v11.25c1.479 0 2.515-.203 3.109-.61s.89-1.723.89-3.952v-2.782c0-1.604-.286-2.656-.859-3.156s-1.62-.75-3.14-.75zm52.03 13.406h-13.155v-8.812c0-2.563-.141-4.162-.422-4.797s-.901-.953-1.86-.953c-1.083 0-1.77.385-2.062 1.156s-.438 2.438-.438 5v23.5c0 2.458.146 4.063.438 4.813.292.75.948 1.125 1.969 1.125.979 0 1.62-.375 1.921-1.125.303-.75.454-2.51.454-5.282v-6.343h13.156v1.968c0 5.23-.37 8.938-1.11 11.125s-2.375 4.105-4.906 5.75-5.65 2.47-9.36 2.47c-3.853 0-7.03-.699-9.53-2.095-2.5-1.395-4.157-3.328-4.97-5.796s-1.218-6.183-1.218-11.141V26.577c0-3.646.125-6.38.375-8.203s.995-3.579 2.234-5.266 2.959-3.016 5.157-3.984c2.198-.97 4.724-1.454 7.578-1.454 3.875 0 7.073.75 9.594 2.25s4.177 3.37 4.968 5.61 1.188 5.724 1.188 10.453zm4.72-22.062h21.937v10.125h-8.781v9.594h8.219v9.625h-8.22v11.125h9.657v10.125h-22.812z" fill="red"/><path d="M241.942 8.733v50.594h-11.5V25.17l-4.594 34.157h-8.156l-4.844-33.375v33.375h-11.5V8.733h17.031c.5 3.042 1.031 6.625 1.594 10.75l1.812 12.875 3-23.625zm69.312 18.625h-13.156v-4.594c0-2.896-.125-4.708-.375-5.437s-.844-1.094-1.781-1.094c-.813 0-1.365.312-1.657.937s-.437 2.23-.437 4.813v24.281c0 2.271.146 3.766.437 4.485s.875 1.078 1.75 1.078c.959 0 1.61-.407 1.953-1.22s.516-2.395.516-4.75v-6h-2.656V32.17h15.406v27.157h-8.281l-1.219-3.625c-.896 1.562-2.026 2.734-3.39 3.515s-2.975 1.172-4.829 1.172c-2.208 0-4.276-.536-6.203-1.61s-3.39-2.4-4.39-3.984c-1-1.583-1.625-3.244-1.875-4.984s-.375-4.349-.375-7.828V26.952c0-4.834.26-8.344.78-10.532s2.016-4.192 4.485-6.015c2.469-1.823 5.662-2.735 9.578-2.735 3.854 0 7.052.792 9.594 2.375 2.542 1.584 4.198 3.464 4.969 5.641s1.156 5.339 1.156 9.484zm5.094-18.625h21.937v10.125h-8.78v9.594h8.218v9.625h-8.219v11.125h9.656v10.125h-22.812z" fill="#000"/><path d="M253.537.316c-.07 0-.14 0-.208.002-2.205.089-4.735.673-6.008 1.62-1.273.948-1.93 1.734-1.93 1.734s-8.743.556-12.193 4.006c0 0 5.626.88 6.797.833 0 0 2.766.165 3.739 2.058 0 0 .985 2.238.87 2.795-.116.556.228.543-.425 1.466-.653.923-2.504 2.927-2.515 4.377-.011 1.449-.165 2.768.11 4.482.276 1.714.341 3.367.438 5.778.096 2.411-.183 4.077.28 5.3.463 1.223 1.173 3.403 1.44 1.46l.01-1.45s.637-1.336 1.456.15c.818 1.485 1.921 4.96 5.23 8.347l2.582 4.173c.104.154 1.073 1.238 1.23 1.402l3.108 2.733c-.308.938-1.692 2.96-2.833 3.47 0 0-1.322-.147-4.405 2.041 0 0-1.276.51-3.647 1.008 0 0-2.15.354-2.659 2.135 1.697-1.217 2.752-.864 2.752-.864 7.267-1.009 8.717-.245 10.37.31 1.144.138 2.613.394 2.613.394-1.284-1.2-2.15-1.489-2.15-1.489l-.64-2.083c-.21-.687 1.734-2.753 2.011-3.677l.224.198c.137.157.263.314.537.47l2.443 2.15s.939 4.517 1.831 7.862c.893 3.345 2.056 6.541 3.858 6.745 0 0 1.74 2.138 2.86 2.507 0 0 7.928 3.273 11.813.358 0 0 2.64-1.28 2.415-3.48-.226-2.198-1.337-4.086-1.417-4.358-.08-.273-5.524-10.684-5.68-11.16 0 0-.589-.952-.6-1.228-.01-.234.926.715.926.715.683 1.56 3.917 8.558 4.714 9.492.796.934 2.298 2.253 2.298 2.253l-.187-1.235.434.535s.662 1.008-.504-2.258c-1.165-3.265-2.669-6.378-3.752-11.027-1.083-4.648-2.506-9.213-2.985-12.574-.48-3.362-1.006-4.445-1.417-6.085-.41-1.64-1.589-5.25-2.903-8.784-1.315-3.535-3.503-9.934-8.05-11.477 0 0 .201-1.872-1.11-3.613-1.312-1.742-2.516-4.244-4.434-5.616-1.858-1.33-4.566-2.885-6.737-2.901z" fill="url(#a)" fill-rule="nonzero"/><path d="M301.178 53.572h-2.055v-.718c0-.452-.02-.736-.059-.85-.039-.113-.132-.17-.278-.17-.127 0-.213.048-.259.146-.045.098-.068.348-.068.752v3.794c0 .355.023.588.068.7.046.113.137.17.274.17.15 0 .251-.064.305-.191.053-.127.08-.375.08-.742v-.938h-.415v-1.201h2.407v4.243h-1.293l-.19-.566c-.14.244-.317.427-.53.549a1.493 1.493 0 0 1-.755.183c-.345 0-.668-.084-.97-.251-.3-.168-.53-.376-.685-.623s-.254-.507-.293-.779c-.04-.272-.059-.68-.059-1.223v-2.349c0-.755.04-1.303.122-1.645.082-.342.315-.655.7-.94.387-.285.885-.427 1.497-.427.603 0 1.102.123 1.5.37.397.248.655.542.776.882.12.34.18.834.18 1.482zm5.386-2.91v7.905h-1.802l-1.069-3.594v3.594h-1.719v-7.905h1.72l1.151 3.56v-3.56zm5.498 0v5.283c0 .599-.02 1.02-.058 1.262-.04.243-.155.492-.347.747a1.8 1.8 0 0 1-.76.581c-.313.132-.684.198-1.11.198-.472 0-.889-.078-1.25-.234-.361-.157-.632-.36-.81-.61-.18-.251-.285-.516-.318-.794s-.049-.864-.049-1.756v-4.677h2.056v5.927c0 .346.019.566.056.662.037.096.113.144.227.144.13 0 .214-.053.251-.159s.057-.355.057-.75v-5.824zm4.283-.152L314 58.718h-1.494l2.358-8.208zm2.524.152v6.323h1.25v1.582h-3.306v-7.905zm3.804 0v7.905h-2.056v-7.905zm5.415 0v7.905h-1.802l-1.07-3.594v3.594h-1.718v-7.905h1.719l1.152 3.56v-3.56zm5.498 0v5.283c0 .599-.02 1.02-.059 1.262-.039.243-.154.492-.347.747-.192.256-.445.45-.759.581s-.684.198-1.11.198c-.473 0-.89-.078-1.25-.234s-.632-.36-.811-.61a1.69 1.69 0 0 1-.318-.794c-.032-.278-.048-.864-.048-1.756v-4.677h2.055v5.927c0 .346.019.566.056.662.038.096.114.144.227.144.13 0 .214-.053.252-.159s.056-.355.056-.75v-5.824zm4.96 0-.717 3.496 1.084 4.409h-1.904c-.228-.788-.437-1.746-.625-2.876a28.085 28.085 0 0 1-.215 1.587l-.196 1.289h-2.002l.743-4.41-.743-3.495h1.988c.036.218.107.58.215 1.089.084.387.154.742.21 1.064l.439-2.153z" fill="#fff"/></g></svg>