<svg height="201" viewBox="0 0 321 201" width="321" xmlns="http://www.w3.org/2000/svg"><g fill="#73ba25"><path d="m280.85 25.7c-3.311-.119-6.451 1.051-8.85 3.301s-3.815 5.298-3.915 8.599c-.229 6.821 5.111 12.559 11.916 12.81 3.31.1 6.465-1.07 8.878-3.32 2.41-2.261 3.796-5.311 3.901-8.599.23-6.819-5.109-12.549-11.93-12.791zm2.021 13.512c-3.031 0-5.48-1.64-5.48-3.65 0-2.029 2.449-3.66 5.48-3.66 3.03 0 5.486 1.631 5.486 3.66 0 2.01-2.458 3.65-5.486 3.65zm28.798 14.729c.088-.069.295-.251.268-.419-.685-4.279-7.059-25.029-11.884-30.019-1.33-1.359-2.394-2.699-4.55-3.96-17.454-10.171-58.863-16.309-60.803-16.59 0 0-.194-.041-.329.091-.105.102-.125.3-.125.3s-.16 8.58-.184 9.539c-4.229-1.421-34.972-11.351-63.791-12.351-24.44-.859-60.033-4.02-107.2 24.98l-1.394.868c-22.19 13.841-37.51 30.91-45.518 50.739-2.512 6.24-5.89 20.32-2.542 33.569 1.442 5.791 4.131 11.611 7.756 16.819 8.194 11.77 21.944 19.58 36.749 20.899 20.904 1.87 36.733-7.519 42.363-25.099 3.871-12.13 0-29.928-14.839-39.008-12.07-7.391-25.049-5.711-32.578-.73-6.531 4.331-10.23 11.06-10.165 18.451.151 13.11 11.444 20.078 19.564 20.099 2.359 0 4.728-.41 7.399-1.28.951-.289 1.845-.649 2.831-1.259l.309-.181.194-.13-.065.039c1.851-1.261 2.964-3.311 2.964-5.511 0-.599-.084-1.208-.256-1.82-.959-3.32-4.239-5.328-7.638-4.709l-.459.109-.621.189-.902.31c-1.869.46-3.269.5-3.569.511-.95-.062-5.624-1.461-5.624-6.581v-.07c0-1.88.754-3.199 1.17-3.92 1.454-2.28 5.435-4.518 10.814-4.049 7.059.61 12.149 4.23 15.52 11.06 3.128 6.349 2.309 14.159-2.11 19.88-4.39 5.668-12.205 8.078-22.598 6.959-10.481-1.159-19.34-7.191-24.303-16.579-4.857-9.178-5.122-20.059-.686-28.418 10.609-20.029 30.649-19.82 41.637-17.921 16.26 2.82 34.758 17.819 41.319 35.139 1.059 2.76 1.599 4.949 2.071 6.95l.709 2.991 18.37 8.969c.394.192.528.258.685.14.19-.141.081-.529.081-.529-.114-.411-.38-.79-.805-5.93-.349-4.562-1.059-17.051 5.229-23.24 2.441-2.419 6.161-4.578 9.099-5.269 12.04-2.941 26.159-.912 39.507 14.539 6.91 7.98 10.279 11.619 11.97 13.249 0 0 .385.364.589.531.223.184.369.338.694.52.558.31 22.954 10.621 22.954 10.621s.266.131.462-.111c.193-.239.01-.479.01-.479-.149-.17-14.199-18.328-11.698-33.279 1.969-11.909 11.447-10.83 24.558-9.349 4.279.499 9.151 1.059 14.196 1.171 14.084.09 29.254-2.511 38.604-6.601 6.049-2.629 9.909-4.38 12.328-6.579.87-.721 1.32-1.891 1.79-3.15l.33-.831c.391-1.021.966-3.171 1.219-4.35.102-.519.221-1.027-.209-1.359-.392-.303-1.294.24-1.294.24-4.106 2.471-14.369 7.151-23.965 7.351-11.914.24-36.054-12.061-38.555-13.36-1.674-3.986-3.346-7.973-5.044-11.948 17.27 11.379 31.594 17.668 42.559 18.638 12.207 1.087 21.723-5.573 25.853-8.344.541-.359 1.08-.762 1.576-1.148zm-48.992-16.369c.175-4.73 2.155-9.12 5.614-12.34 3.46-3.231 7.974-4.9 12.708-4.749 9.76.349 17.43 8.588 17.095 18.338-.184 4.73-2.165 9.12-5.614 12.33-3.461 3.249-7.965 4.919-12.719 4.76-9.75-.36-17.411-8.58-17.084-18.338z"/><path d="m133.98 140.01c-7.784 0-12.065 6.58-12.065 11.13v5.84c0 6.7 5.474 10.851 10.55 10.851h17.819c2.245 0 2.715 1.47 2.715 2.71v3.769c0 .4-.081 4.02-2.715 4.02h-24.303c-2.415 0-4.16 1.68-4.16 3.979v1.042c0 2.291 1.745 3.96 4.16 3.96h25.624c6.698 0 11.02-4.66 11.02-11.879v-6.301c0-6.779-4.87-9.81-9.706-9.81h-17.533c-2.639 0-3.835-1.98-3.835-3.379v-3.48c0-2.191 1.464-3.46 4.025-3.46h19.408c2.38 0 4.17-1.71 4.17-3.971v-1.04c0-2.27-1.82-3.981-4.251-3.981h-20.922z"/><path d="m206.84 140.01c-2.301 0-4.155 1.87-4.155 4.171v29.838c0 2.39-1.95 4.311-4.311 4.311h-13.545c-2.369 0-4.309-1.921-4.309-4.311v-29.838c0-2.301-1.87-4.171-4.169-4.171h-1.31c-2.334 0-4.171 1.842-4.171 4.171v30.968c0 7.21 5.674 12.44 13.489 12.44h14.485c7.805 0 13.475-5.228 13.475-12.44v-30.968c0-2.329-1.829-4.171-4.16-4.171z"/><path d="m232.77 140.01c-7.78 0-12.074 6.58-12.074 11.13v5.84c0 6.7 5.484 10.851 10.564 10.851h17.814c2.249 0 2.72 1.47 2.72 2.71v3.769c0 .4-.081 4.02-2.72 4.02h-24.314c-2.404 0-4.16 1.68-4.16 3.979v1.042c0 2.291 1.756 3.96 4.16 3.96h25.633c6.7 0 11.041-4.66 11.041-11.879v-6.301c0-6.779-4.885-9.81-9.72-9.81h-17.533c-2.646 0-3.839-1.98-3.839-3.379v-3.48c0-2.191 1.464-3.46 4.025-3.46h19.419c2.375 0 4.158-1.71 4.158-3.971v-1.04c0-2.27-1.818-3.981-4.26-3.981h-20.913z"/><path d="m273.74 140.01c-2.31 0-4.055 1.712-4.055 3.981v39.358c0 2.259 1.705 3.96 3.964 3.96h31.364c2.415 0 4.16-1.669 4.16-3.96v-1.042c0-2.299-1.745-3.979-4.16-3.979h-25.687v-10.02h18.822c2.41 0 4.16-1.691 4.16-3.981v-1.04c0-2.301-1.75-3.971-4.16-3.971h-18.822v-10.32h24.382c2.406 0 4.16-1.659 4.16-3.971v-1.04c0-2.301-1.754-3.981-4.16-3.981h-29.968z"/><path d="m7.143 158.745c-3.93 0-7.129 3.058-7.129 6.829v14.84c0 3.831 3.095 6.951 6.891 6.951h9.599c3.795 0 6.891-3.12 6.891-6.951v-14.84c0-3.769-3.201-6.829-7.13-6.829zm-2.076 21.08v-13.551c0-1.589 1.305-2.889 2.901-2.889h7.478c1.561 0 2.891 1.33 2.891 2.889v13.551c0 1.599-1.295 2.899-2.891 2.899h-7.534c-1.6 0-2.845-1.272-2.845-2.899z"/><path d="m45.133 158.569c-2.768 0-4.855.989-6.53 1.8-1.021.489-1.905.912-2.59.912-.311 0-.576-.141-.716-.37l-.638-1.221c-.16-.321-.8-.949-1.591-.949h-.949c-.912 0-1.642.819-1.642 1.819v37.64c0 1.181.932 2.11 2.11 2.11h.821c1.17 0 2.12-.94 2.12-2.11v-12.489c0-.37.241-.77.485-.77.685 0 1.569.401 2.59.87 1.675.77 3.762 1.719 6.53 1.719h.886c4.9 0 7.948-2.801 7.948-7.3v-14.368c0-4.431-3.113-7.291-7.948-7.291h-.886zm-9.603 20.963v-12.962c0-1.79 1.4-3.188 3.189-3.188h7.01c1.791 0 3.189 1.399 3.189 3.188v12.962c0 1.759-1.435 3.188-3.189 3.188h-7.01c-1.756 0-3.189-1.429-3.189-3.188z"/><path d="m68.162 158.745c-3.931 0-7.121 3.058-7.121 6.829v14.729c0 3.82 3.101 7.06 6.759 7.06h9.904c1.225 0 2.11-.849 2.11-2.001v-.649c0-1.16-.885-1.991-2.11-1.991h-8.136c-2.28 0-3.483-1.121-3.483-3.252v-4.309h14.678c2.361 0 3.757-1.44 3.757-3.88v-5.71c0-3.769-3.195-6.83-7.11-6.83h-9.248zm-2.075 7.48c0-1.591 1.25-2.84 2.843-2.84h7.71c1.589 0 2.829 1.249 2.829 2.84v4.599h-13.384c.002-.6.002-4.599.002-4.599z"/><path d="m104.923 158.569c-2.759 0-4.84.989-6.521 1.791-1.045.491-1.938.921-2.667.921-.321 0-.451-.041-.7-.472l-.581-1.059c-.333-.671-.899-1.009-1.664-1.009h-.816c-.985 0-1.704.768-1.704 1.819v24.689c0 1.17.924 2.11 2.115 2.11h.815c1.17 0 2.124-.95 2.124-2.11v-18.679c0-1.75 1.43-3.188 3.18-3.188h7.014c1.756 0 3.185 1.438 3.185 3.188v18.679c0 1.17.93 2.11 2.11 2.11h.824c1.17 0 2.121-.95 2.121-2.11v-19.389c0-4.43-3.115-7.291-7.954-7.291z"/><path d="m316.198 177.792c2.136 0 3.838 1.736 3.838 3.909 0 2.205-1.703 3.924-3.855 3.924-2.137 0-3.873-1.719-3.873-3.924 0-2.171 1.736-3.909 3.873-3.909zm-.017.607c-1.719 0-3.126 1.477-3.126 3.301 0 1.859 1.407 3.316 3.143 3.316 1.737.02 3.126-1.457 3.126-3.299 0-1.841-1.389-3.318-3.126-3.318zm-.73 5.575h-.695v-4.358c.365-.053.713-.105 1.233-.105.662 0 1.095.138 1.355.329.261.19.401.485.401.904 0 .572-.382.919-.851 1.059v.037c.383.068.642.416.73 1.059.105.679.207.939.277 1.077h-.729c-.106-.138-.209-.538-.295-1.112-.105-.554-.382-.765-.938-.765h-.486v1.875zm0-2.415h.503c.574 0 1.06-.207 1.06-.747 0-.382-.277-.765-1.06-.765-.226 0-.382.018-.503.037z"/></g></svg>