<svg height="31" viewBox="0 0 37 31" width="37" xmlns="http://www.w3.org/2000/svg"><path d="m.112.663v7.173h9.312v22.502h26.645s-.002-5.879-.002-5.879-9.682.003-9.682.003-.006-7.673-.006-7.673 9.693-9.739 9.693-9.739v-2.193s-4.219-4.194-4.219-4.194z" fill="#09345f"/><path d="m25.186 11.342v3.598h-3.597s3.597-3.598 3.597-3.598zm0 0s-3.597 3.598-3.597 3.598 3.597-3.598 3.597-3.598zm9.641 17.892h-3.63v-3.565h3.63zm-4.812-23.85h-3.63v-3.566h3.63zm-4.829 23.85h-3.597v-3.565h3.597zm-4.812-23.85h-3.597v-3.566h3.597zm4.812 0h-3.597v-3.566h3.597zm4.829 23.85h-3.63v-3.565h3.63zm4.812-22.662h-3.63v3.598s3.63-3.598 3.63-3.598zm0 0s-3.63 3.598-3.63 3.598 3.63-3.598 3.63-3.598zm-9.641 13.138h-3.597v-3.598h3.597zm9.641-14.326h-3.63v-3.566s3.63 3.566 3.63 3.566zm0 0s-3.63-3.566-3.63-3.566 3.63 3.566 3.63 3.566zm-14.453 10.728v3.598h-3.597s3.597-3.598 3.597-3.598zm0 0s-3.597 3.598-3.597 3.598 3.597-3.598 3.597-3.598zm9.641-4.77h-3.63v3.598s3.63-3.598 3.63-3.598zm0 0s-3.63 3.598-3.63 3.598 3.63-3.598 3.63-3.598zm0-1.172h-3.63v-3.598h3.63zm-9.641 14.294h-3.597v-3.565h3.597zm4.812 0h-3.597v-3.565h3.597zm-8.409 1.205h3.597v3.565s-3.597-3.565-3.597-3.565zm0 0s3.597 3.565 3.597 3.565-3.597-3.565-3.597-3.565z" fill="#fff"/></svg>