<svg height="103" width="451" xmlns="http://www.w3.org/2000/svg"><path d="M4.7 97.3h93.6V4.7H4.7z" fill="#fff"/><g fill="#004680"><path d="M41 36.8 37.4 46h27.9l-3.8-9.2 28.3 14.4-28.3 14.4 3.8-9.3H37.3l3.8 9.3-28.4-14.4z"/><path d="M96.4 0H6a6 6 0 0 0-6 6v90.4a6 6 0 0 0 6 6h90.4a6 6 0 0 0 6-6V6a6 6 0 0 0-6-6zM51.2 93.4a42.2 42.2 0 1 1 0-84.4 42.2 42.2 0 0 1 0 84.4zM136.6 71.8h9.1V36.5h12.6v-7H124v7h12.6z"/><path d="M146.3 72.4H136V37.1h-12.6v-8.2h35.5V37h-12.6zm-9.1-1.2h8V36h12.5v-5.8h-33.1v5.8h12.6z"/><path d="M168 41.2c-2.9 0-5.8.9-8.3 2.5-5 3.5-6.1 9.2-6.1 14 0 4.8 1.1 8.7 3.8 11.6 3.1 3.2 8 3.6 10.4 3.6 4.4 0 8.2-1.1 10.4-3.4A10 10 0 0 0 181 63h-7.9c-.8 3.3-3 4.1-5.2 4.1-6 0-6-6-6-7.9h19.9a22 22 0 0 0-1.8-10.8 12.7 12.7 0 0 0-12-7.2zm-5.8 12.6c.2-3.5 1.8-6.6 5.6-6.6 5 0 5.1 5.2 5.1 6.6z"/><path d="M167.8 73.5c-2.6 0-7.6-.5-10.8-3.8-2.7-2.8-4-6.8-4-12 0-6.7 2.1-11.5 6.4-14.5 2.6-1.7 5.6-2.6 8.7-2.6 3.3 0 9.3 1 12.5 7.5 2.1 4.4 1.9 9.1 1.8 11.2v.5h-19.9c.1 3 .9 6.7 5.4 6.7 2.5 0 4-1.1 4.6-3.6l.1-.5h9v.7c-.1 2.5-1.2 5-3 6.8-2.2 2.3-6.1 3.6-10.8 3.6zm.3-31.7c-2.9 0-5.7.8-8 2.4-4 2.7-6 7.3-6 13.5 0 5 1.3 8.6 3.7 11.1 3 3 7.6 3.5 10 3.5 4.4 0 8-1.1 10-3.2a9.1 9.1 0 0 0 2.6-5.5h-6.8c-.7 2.6-3 4.3-5.7 4.1-4.4 0-6.6-2.8-6.6-8.5v-.6h19.9c.3-3.4-.3-6.8-1.7-10-2.1-4.3-6.6-7-11.4-6.8zm5.4 12.6h-12l.1-.6c.2-4.5 2.5-7.2 6.2-7.2 3.6 0 5.7 2.6 5.7 7.2zM163 53.2h9.4c-.1-2.6-1-5.4-4.5-5.4-3.8 0-4.7 3.4-5 5.4zM213.1 52.4c0-1.3 0-4.8-2-7.2-3-3.4-8.1-3.8-10.6-3.8-2.8 0-6.2.4-9 2.4a8.3 8.3 0 0 0-3.3 7h8.5c0-1 .2-2 .7-2.7a4 4 0 0 1 3.2-1.6 4 4 0 0 1 4 2.4c.3 1.3.4 2.6.3 4-2.9 0-8 0-11.7 1.6a9.8 9.8 0 0 0-6.3 9.2c0 2.4 1 4.7 2.6 6.5 1.2 1.1 3.1 2.3 7.4 2.3 1.6 0 5.6 0 8.8-4.7 0 1.3.1 2.7.3 4h7.9c-.5-2.4-.7-5-.7-7.5zm-9.8 12.8a5 5 0 0 1-3.7 1.7 4 4 0 0 1-4.2-4.2c0-3.5 4-5.3 9.5-4.8 0 3.1-.1 5.4-1.6 7.3z"/><path d="M196.9 73.1c-4.6 0-6.7-1.4-7.8-2.5A10.4 10.4 0 0 1 193 54a30 30 0 0 1 11.3-1.7c0-1 0-2-.4-3a3.4 3.4 0 0 0-3.3-2.1c-1 0-2.1.4-2.7 1.3-.5.7-.6 1.5-.6 2.3v.6h-9.7v-.6c0-3 1.3-5.7 3.6-7.4 2.3-1.7 5.5-2.5 9.3-2.5 2.8 0 8 .5 11 4 2.2 2.6 2.2 6.4 2.2 7.6v12c0 2.4.3 4.9.8 7.3l.1.7h-9l-.2-.5a23 23 0 0 1-.2-2.4c-2 2.4-5.1 3.8-8.3 3.6zm8-19.7c-2.8 0-8 0-11.5 1.6-5.1 2.4-5.9 6.5-5.9 8.7 0 2.2.9 4.4 2.4 6 1 1 2.8 2.2 7 2.2 1.6 0 5.2 0 8.3-4.5l1.1-1.5v1.9c0 1.1 0 2.3.2 3.4h6.7c-.5-2.2-.6-4.6-.6-6.9V52.4c0-3-.7-5.3-2-6.8-2.7-3.2-7.5-3.6-10-3.6-3.7 0-6.6.7-8.7 2.2a7.4 7.4 0 0 0-3 6h7.2c0-.9.3-1.7.8-2.4a4.8 4.8 0 0 1 8.2 1c.4 1.3.5 2.7.4 4v.6zm-5.3 14.1a4.7 4.7 0 0 1-4.8-4.8c0-1.3.5-2.6 1.5-3.4 1.7-1.6 4.8-2.3 8.7-2h.5v.6c0 3.2-.1 5.7-1.8 7.7a5.5 5.5 0 0 1-4.1 2zm3.6-9c-2.7 0-4.9.5-6.1 1.7-.7.6-1.1 1.5-1.1 2.5a3.5 3.5 0 0 0 3.6 3.6c1.2 0 2.4-.5 3.2-1.5 1.3-1.6 1.5-3.6 1.5-6.4h-1zM256.9 41.7c-3 0-7 .7-9.5 5.5-.6-1.4-2.5-5.6-9.3-5.6-6 0-8.2 3.2-9.2 4.4l-.2-3.8h-8.4c.2 2 .3 3.7.3 5.6v24h8.7V54.4c0-2 0-6.7 5.4-6.7 4.9 0 5 4.3 5 6.6v17.5h8.6V57c0-4.4.2-9.3 5.4-9.3 4.5 0 5 3.6 5 6.7v17.4h8.7V55.1c0-2.5.1-6.1-1.5-8.7-.6-1.2-3-4.7-9-4.7z"/><path d="M268 72.4h-10v-18c0-3.6-.7-6-4.3-6-4.4 0-4.8 3.7-4.8 8.6v15.4H239V54.3c0-2.9-.3-6-4.3-6-4.2 0-4.8 3-4.8 6.1v18h-10V47.8c0-1.6 0-3.4-.2-5.5v-.7h9.5l.2 2.9a11 11 0 0 1 8.7-3.5c3.1 0 7.1.9 9.3 4.9 2.1-3.3 5.2-4.8 9.5-4.8 6.1 0 8.7 3.5 9.5 5 1.6 2.5 1.6 6 1.6 8.5zm-8.7-1.2h7.5V54.6c0-2.5 0-5.6-1.4-7.9-.7-1.3-3-4.4-8.5-4.4-2.7 0-6.6.5-9 5.1l-.6 1.2-.5-1.2c-1.4-3.5-4.3-5.2-8.7-5.2-5.6 0-7.7 3-8.7 4.2l-1 1.3-.3-4.9h-7.2l.3 5v23.4h7.5V54.4c0-2 0-7.3 6-7.3 5.5 0 5.5 5 5.5 7.2v17h7.5V57c0-4.2 0-9.9 6-9.9 5.6 0 5.6 5.1 5.6 7.3zM289.7 68h-.2L276 29.5h-4.1l15.5 42.3h4.3l15.3-42.3H303z"/><path d="M292 72.4h-5.2l-.1-.4-15.8-43h5.5l.1.3 13 37L302.7 29h5.1zm-4.3-1.2h3.5l14.8-41h-2.5l-13.4 38.4h-1l-.1-.4-13.5-38h-2.9zM311.7 29.5h4V34h-4z"/><path d="M316.4 34.5H311V29h5.3zm-4.1-1.2h2.9v-3.2h-3zM312 42.4h3.5v29.4H312z"/><path d="M316.1 72.4h-4.7V41.8h4.7zm-3.5-1.2h2.3V43h-2.3zM335.9 41.5c-8.7 0-13.1 7.7-13.1 15.6 0 8 4 15.6 12.9 15.6 7 0 11.4-3.2 13.3-10.2h-3.7c-.9 4-4.4 7-8.5 7-7.2 0-10.1-5.3-10.2-11.6h22.7c0-9.2-3.6-16.4-13.4-16.4zm-9.2 13.2c.5-5.1 3.5-10 9.2-10 6.1 0 9.2 4.3 9.6 10z"/><path d="M335.7 73.3c-9.4 0-13.5-8.1-13.5-16.2 0-7.8 4.3-16.2 13.7-16.2 9 0 14 6 14 17v.6h-22.7c.2 3.6 1.6 10.4 9.6 10.4 3.8 0 7.1-2.8 7.9-6.6V62h5l-.2.7c-1.8 7.2-6.4 10.7-13.8 10.7zm.2-31.2c-8.6 0-12.5 7.8-12.5 15 0 11 6.6 15 12.3 15 6.6 0 10.6-2.9 12.5-9h-2.5c-1 4-4.7 7-9 7-6.6 0-10.6-4.4-10.7-12.1v-.7h22.7c-.1-7-2.5-15.2-12.8-15.2zM346 55.3h-20v-.6c.4-4.9 3.3-10.5 9.8-10.5 6 0 9.7 3.9 10.2 10.5zm-18.7-1.2h17.4c-.6-5.6-3.8-8.7-8.9-8.7-5.4 0-8 4.5-8.5 8.7zM386.9 67h-.1L378 42.4h-4.2L365 67.2h-.1l-8.8-24.8h-3.9L363 71.8h3.6l9.2-25.3h.1l9 25.3h3.4l11-29.4h-4z"/><path d="M388.7 72.4h-4.2l-8.7-24.3-8.8 24.3h-4.4l-11.2-30.6h5.1l8.5 23.8 8.5-23.8h5l8.3 23.5 8.1-23.5h5.2zm-3.3-1.2h2.5L398.4 43h-2.6l-8.5 24.6h-1L377.7 43h-3.4l-8.9 24.8h-1L355.8 43H353l10.3 28.2h2.8l9.2-25.3h1zM415 41.5c-8.7 0-13 7.7-13 15.6 0 8 4 15.6 12.8 15.6 7.1 0 11.5-3.2 13.3-10.2h-3.7c-.8 4-4.3 7-8.5 7-7.2 0-10-5.3-10.2-11.6h22.8c0-9.2-3.6-16.4-13.4-16.4zM406 54.7c.4-5.1 3.5-10 9.2-10 6.1 0 9.2 4.3 9.6 10z"/><path d="M414.8 73.3c-9.3 0-13.5-8.1-13.5-16.2 0-7.8 4.3-16.2 13.8-16.2 9 0 14 6 14 17v.6h-22.7c.1 3.6 1.5 10.4 9.5 10.4 3.9 0 7.2-2.8 8-6.6V62h5l-.2.7c-1.9 7.2-6.4 10.7-13.9 10.7zm.3-31.2c-8.6 0-12.6 7.8-12.6 15 0 11 6.7 15 12.3 15 6.7 0 10.7-2.9 12.5-9H425c-1 4-4.7 7-9 7-6.7 0-10.6-4.4-10.8-12.1v-.7H428c-.2-7-2.5-15.2-12.8-15.2zm10.2 13.2h-20.1v-.6c.5-4.9 3.3-10.5 10-10.5 5.8 0 9.6 3.9 10 10.5zm-18.8-1.2H424c-.6-5.6-3.8-8.7-8.9-8.7-5.5 0-8 4.5-8.6 8.7zM446.5 41.5c-3 .3-5.6 2.3-6.6 5.3h-.1l-.2-4.4H436l.3 6.6v22.8h3.5V54.1c.1-5.6 2.9-9.3 8-9.3l2.2.2v-3.4h-3.5z"/><path d="M440.4 72.4h-4.7V49a54 54 0 0 0-.3-6.5v-.7h4.8l.1 2.8a8 8 0 0 1 6.2-3.7l3.6.1h.5v4.6h-.6l-.9-.1a9 9 0 0 0-1.2-.1c-4.7 0-7.4 3.2-7.5 8.7zm-3.5-1.2h2.3v-17c.1-6.3 3.4-10 8.7-10h1.4l.1.1v-2.1h-2.8a7 7 0 0 0-6.1 4.8l-.2.4h-1L439 43h-2.4v.9c.2 1.6.3 3.4.3 5.2z"/></g></svg>