<svg xmlns="http://www.w3.org/2000/svg" width="1330" height="179" style="shape-rendering:geometricPrecision;text-rendering:geometricPrecision;image-rendering:optimizeQuality;fill-rule:evenodd;clip-rule:evenodd"><path fill="#000551" d="M19 0h141q14 6 18 22v134q-3 18-22 23H22q-16-5-22-19V19Q4 4 19 0m62 18q50-2 73 43 19 56-29 89a72 72 0 0 1-90-14 72 72 0 0 1-3-90q19-24 49-28m768-3q27-1 20 27-8 10-21 7-13-4-12-17 0-14 13-17m-643 4h125v27h-47v113h-31V46h-47zm489 0h35l31 105 33-105h33l-48 140h-36z" style="opacity:1"/><path fill="#000551" d="M353 54q53-2 57 52l-1 11h-70q3 18 23 20 14-1 24-12l20 16a57 57 0 0 1-56 19q-37-7-42-43-4-33 21-54 11-7 24-9m2 24q21-3 24 19h-40q1-16 16-19m107-24q21-3 38 12l1-10h26v84l6 19-29-1-4-8a46 46 0 0 1-40 10q-31-6-39-35-9-36 17-61 11-8 24-10m9 25q23-1 28 23 3 42-37 30-15-13-11-32 3-18 20-21m128-25q21-4 33 15 18-21 44-14 16 6 20 23l2 12 1 69h-30l-2-69q-7-14-21-6-6 5-7 12v64h-30l-1-66q-5-19-22-10-6 6-7 13v62h-30l-1-84-5-19h29l4 14 10-11zm328 0q40-3 52 36l2 27h-70q3 19 23 20 15-1 24-12l20 16a51 51 0 0 1-45 20q-51-2-53-53 1-46 47-54m1 24q21-3 23 20h-40q0-17 17-20m265-24q52-1 55 53l-1 10h-70q3 19 23 20 14-1 24-12l20 16a51 51 0 0 1-45 20q-51-2-53-53 1-46 47-54m0 24q23-3 24 20h-40q0-17 16-20m137-22v29q-36-9-40 27v48h-30l-1-87-4-17h28l6 15q14-24 41-15m-491 0h30v104h-30zm142 0q17-1 33 1l19 72 17-56-5-16q15-3 32 0l20 72 19-72q15-2 31-1l-31 104h-37l-15-47-15 46-37 1zM74 63l1 1-4 15 37-1q-4-7-5-15l47 26-46 26q0-9 4-16H71l4 14-1 2-46-26z" style="opacity:1"/></svg>