<svg height="103" viewBox="0 0 451 103" width="451" xmlns="http://www.w3.org/2000/svg"><path d="m4.744 97.303h93.512v-92.606h-93.512z" fill="#fff"/><g fill="#004680"><path d="m41.092 36.84-3.792 9.209h27.895l-3.792-9.209 28.332 14.355-28.332 14.356 3.792-9.21h-27.895l3.762 9.21-28.407-14.356z"/><path d="m96.392 0h-90.393c-3.309.01-5.989 2.69-5.999 5.999v90.393c.01 3.309 2.69 5.989 5.999 5.998h90.393c3.309-.009 5.989-2.689 5.998-5.998v-90.393c-.009-3.309-2.689-5.989-5.998-5.999zm-45.197 93.403c-23.311 0-42.208-18.897-42.208-42.208s18.897-42.208 42.208-42.208 42.208 18.897 42.208 42.208c0 11.194-4.447 21.93-12.362 29.846-7.916 7.915-18.652 12.362-29.846 12.362z"/><path d="m136.594 71.83h9.14v-35.332h12.598v-7.032h-34.336v7.032h12.598z"/><path d="m146.334 72.43h-10.34v-35.332h-12.598v-8.232h35.535v8.232h-12.597zm-9.141-1.201h7.942v-35.332h12.597v-5.831h-33.136v5.831h12.597z"/><path d="m168.061 41.244c-2.956-.028-5.854.829-8.32 2.461-4.98 3.457-6.152 9.199-6.152 14.003 0 4.747 1.113 8.731 3.808 11.543 3.106 3.223 7.91 3.692 10.43 3.692 4.336 0 8.203-1.172 10.371-3.457 1.694-1.732 2.695-4.025 2.813-6.445h-7.911c-.82 3.281-2.988 4.101-5.156 4.101-6.035 0-6.035-5.976-6.035-7.91h19.863c.117-2.461.235-6.797-1.758-10.84-2.695-5.508-7.734-7.148-11.953-7.148zm-5.859 12.539c.176-3.457 1.758-6.621 5.566-6.621 5.039 0 5.157 5.273 5.157 6.621z"/><path d="m167.827 73.543c-2.662 0-7.612-.503-10.861-3.875-2.64-2.754-3.977-6.777-3.977-11.959 0-6.667 2.156-11.545 6.41-14.497 2.569-1.696 5.584-2.59 8.662-2.568 3.298 0 9.305.972 12.493 7.484 2.141 4.346 1.915 9.102 1.818 11.132l-.027.572h-19.829c.081 3.044.861 6.71 5.428 6.71 2.499 0 3.952-1.159 4.574-3.647l.114-.455h9.031l-.055.65c-.13 2.557-1.188 4.978-2.975 6.81-2.197 2.315-6.135 3.643-10.806 3.643zm.234-31.699c-2.837-.022-5.617.8-7.987 2.36-3.902 2.709-5.886 7.254-5.886 13.505 0 4.93 1.192 8.57 3.643 11.127 2.939 3.051 7.524 3.507 9.996 3.507 4.343 0 7.964-1.192 9.936-3.27 1.45-1.467 2.362-3.382 2.587-5.432h-6.794c-.608 2.56-2.987 4.299-5.612 4.101-4.402 0-6.635-2.863-6.635-8.51v-.6h19.89c.263-3.416-.329-6.845-1.723-9.975-2.112-4.338-6.594-7.013-11.415-6.813zm5.463 12.539h-11.953l.031-.631c.23-4.502 2.535-7.19 6.166-7.19 3.659 0 5.756 2.632 5.756 7.221zm-10.673-1.2h9.46c-.116-2.601-1.047-5.421-4.543-5.421-3.773 0-4.7 3.406-4.917 5.421z"/><path d="m213.123 52.435c0-1.348-.059-4.863-2.051-7.266-2.93-3.398-8.086-3.808-10.547-3.808-2.812 0-6.269.469-8.965 2.402-2.195 1.631-3.445 4.24-3.339 6.973h8.496c-.065-.925.16-1.846.644-2.637.758-1.053 1.985-1.666 3.281-1.641 1.677-.069 3.221.913 3.868 2.461.36 1.276.499 2.604.41 3.926-2.871 0-8.086 0-11.719 1.641-5.449 2.519-6.27 6.855-6.27 9.199-.034 2.424.893 4.762 2.579 6.504 1.171 1.113 3.105 2.344 7.382 2.344 1.641 0 5.567 0 8.848-4.746-.018 1.353.08 2.706.293 4.043h7.852c-.498-2.469-.734-4.983-.704-7.5zm-9.844 12.773c-.927 1.073-2.273 1.693-3.691 1.7-1.131.039-2.226-.393-3.026-1.193s-1.232-1.896-1.193-3.026c0-3.516 3.984-5.273 9.551-4.805 0 3.164-.117 5.449-1.641 7.324z"/><path d="m196.892 73.133c-4.621 0-6.662-1.432-7.795-2.509-1.812-1.851-2.808-4.35-2.765-6.939 0-2.496.859-7.082 6.617-9.744 3.507-1.584 8.398-1.689 11.368-1.695.052-1.06-.076-2.12-.377-3.137-.568-1.3-1.88-2.116-3.298-2.05-1.099-.028-2.141.488-2.786 1.379-.413.692-.602 1.494-.54 2.298v.6h-9.718l.023-.622c-.1-2.919 1.242-5.701 3.59-7.439 2.326-1.668 5.46-2.514 9.314-2.514 2.816 0 7.989.522 11.001 4.017 2.196 2.646 2.197 6.412 2.197 7.654l.058 11.895c-.031 2.476.2 4.949.691 7.377l.155.726h-9.105l-.082-.505c-.131-.809-.219-1.625-.263-2.443-2.049 2.432-5.107 3.78-8.285 3.651zm8.028-19.688c-2.781 0-7.957 0-11.472 1.588-5.147 2.38-5.917 6.442-5.917 8.652-.029 2.264.834 4.448 2.402 6.08 1.058 1.004 2.815 2.168 6.959 2.168 1.572 0 5.252 0 8.355-4.488l1.093-1.581v1.923c-.015 1.151.055 2.302.21 3.443l6.602-.001c-.402-2.277-.593-4.587-.57-6.899l-.059-11.895c0-3.037-.643-5.352-1.913-6.883-2.693-3.123-7.474-3.591-10.085-3.591-3.598 0-6.497.77-8.615 2.289-1.894 1.368-3.029 3.55-3.061 5.886h7.279c.025-.839.277-1.656.729-2.363 1.022-1.361 2.69-2.078 4.381-1.883 1.692.195 3.152 1.272 3.838 2.831.384 1.339.534 2.734.443 4.124v.6zm-5.332 14.063c-1.291.043-2.542-.451-3.455-1.364-.913-.914-1.407-2.164-1.364-3.455-.013-1.303.535-2.55 1.504-3.421 1.744-1.603 4.83-2.31 8.698-1.981l.548.046v.551c0 3.231-.127 5.675-1.774 7.703l-.015.017c-1.041 1.202-2.551 1.896-4.142 1.904zm3.62-9.098c-2.711 0-4.893.611-6.122 1.741-.725.643-1.133 1.57-1.117 2.538-.043.972.324 1.918 1.012 2.606.689.688 1.634 1.056 2.607 1.013 1.241-.008 2.418-.549 3.232-1.486 1.309-1.617 1.482-3.604 1.498-6.379-.379-.022-.75-.033-1.11-.033z"/><path d="m256.896 41.654c-3.047 0-7.031.762-9.492 5.508-.586-1.407-2.519-5.567-9.316-5.567-5.918 0-8.203 3.164-9.141 4.453l-.293-3.808h-8.379c.176 1.875.293 3.691.293 5.566v24.024h8.731v-17.403c0-1.992 0-6.679 5.449-6.679 4.805 0 4.863 4.218 4.863 6.503v17.579h8.731v-14.825c0-4.394.117-9.257 5.332-9.257 4.511 0 4.98 3.515 4.98 6.679v17.403h8.731v-16.7c0-2.578.117-6.152-1.465-8.73-.645-1.172-3.047-4.746-9.024-4.746z"/><path d="m267.984 72.43h-9.929v-18.003c0-3.649-.746-6.079-4.381-6.079-4.384 0-4.733 3.752-4.733 8.657v15.425h-9.929v-18.179c0-2.856-.331-5.903-4.264-5.903-4.262 0-4.85 2.922-4.85 6.079v18.003h-9.929v-24.624c0-1.646-.093-3.397-.291-5.51l-.062-.656h9.594l.219 2.842c1.37-1.513 3.934-3.487 8.659-3.487 3.117 0 7.154.879 9.362 4.881 2.058-3.242 5.159-4.822 9.446-4.822 6.109 0 8.713 3.536 9.549 5.057 1.558 2.535 1.548 5.995 1.54 8.521zm-8.73-1.201h7.531l.001-16.6c.007-2.515.016-5.645-1.378-7.915-.747-1.359-3.044-4.46-8.512-4.46-2.692 0-6.549.537-8.96 5.184l-.591 1.142-.495-1.187c-1.437-3.449-4.384-5.198-8.762-5.198-5.597 0-7.735 2.94-8.648 4.196l-.959 1.318-.383-4.869h-7.167c.162 1.863.237 3.455.237 4.966v23.423h7.531v-16.802c0-1.991 0-7.28 6.049-7.28 5.463 0 5.463 4.978 5.463 7.104v16.978h7.531v-14.224c0-4.16 0-9.858 5.932-9.858 5.58 0 5.58 5.102 5.58 7.28z"/><path d="m289.655 68.021h-.117l-13.594-38.496h-4.16l15.469 42.305h4.336l15.293-42.305h-3.809z"/><path d="m292.01 72.43h-5.177l-.144-.394-15.763-43.111h5.443l.141.4 13.084 37.05 13.052-37.45h5.09zm-4.337-1.201h3.495l14.859-41.104h-2.528l-13.417 38.496h-.969l-.14-.4-13.454-38.096h-2.877z"/><path d="m311.689 29.525h4.102v4.394h-4.102z"/><path d="m316.39 34.52h-5.3v-5.595h5.3zm-4.101-1.201h2.902v-3.194h-2.902z"/><path d="m311.982 42.416h3.516v29.414h-3.516z"/><path d="m316.098 72.43h-4.715v-30.615h4.715zm-3.516-1.201h2.316v-28.213h-2.316z"/><path d="m335.889 41.537c-8.73 0-13.125 7.617-13.125 15.586 0 8.027 4.102 15.585 12.891 15.585 7.09 0 11.484-3.222 13.301-10.253h-3.692c-.817 4.055-4.359 6.987-8.496 7.031-7.207 0-10.078-5.274-10.195-11.543h22.734c0-9.199-3.574-16.406-13.418-16.406zm-9.199 13.183c.469-5.156 3.516-9.961 9.258-9.961 6.094 0 9.141 4.278 9.551 9.961z"/><path d="m335.655 73.309c-9.319 0-13.49-8.13-13.49-16.186 0-7.796 4.295-16.186 13.724-16.186 9.04 0 14.018 6.039 14.018 17.006v.6h-22.712c.187 3.541 1.587 10.343 9.573 10.343 3.859-.034 7.163-2.773 7.911-6.559l.102-.472h4.949l-.193.75c-1.86 7.202-6.401 10.704-13.882 10.704zm.234-31.172c-8.605 0-12.525 7.768-12.525 14.986 0 11.061 6.621 14.985 12.291 14.985 6.685 0 10.68-2.881 12.512-9.053h-2.431c-1.036 4.114-4.725 7.006-8.968 7.031-6.716 0-10.651-4.422-10.795-12.132l-.011-.611h22.74c-.124-7.079-2.511-15.206-12.813-15.206zm10.254 13.183h-20.11l.06-.654c.44-4.847 3.286-10.507 9.855-10.507 5.88 0 9.674 3.932 10.149 10.518zm-18.78-1.2h17.479c-.614-5.579-3.828-8.761-8.894-8.761-5.474 0-8.008 4.579-8.585 8.761z"/><path d="m386.87 66.966h-.117l-8.672-24.55h-4.16l-8.907 24.785h-.117l-8.79-24.785h-3.867l10.781 29.414h3.576l9.199-25.372h.117l9.023 25.372h3.34l10.957-29.414h-3.867z"/><path d="m388.693 72.43h-4.18l-8.664-24.36-8.832 24.36h-4.415l-11.221-30.615h5.15l8.428 23.765 8.54-23.765h5.007l8.3 23.501 8.132-23.501h5.159zm-3.333-1.201h2.499l10.51-28.213h-2.575l-8.496 24.55h-.97l-8.672-24.55h-3.313l-8.907 24.785h-.963l-8.79-24.785h-2.584l10.341 28.213h2.736l9.199-25.371h.962z"/><path d="m415.057 41.537c-8.73 0-13.125 7.617-13.125 15.586 0 8.027 4.102 15.585 12.891 15.585 7.09 0 11.484-3.222 13.301-10.253h-3.692c-.817 4.055-4.359 6.987-8.496 7.031-7.207 0-10.078-5.274-10.195-11.543h22.734c0-9.199-3.574-16.406-13.418-16.406zm-9.199 13.183c.469-5.156 3.516-9.961 9.258-9.961 6.094 0 9.141 4.278 9.551 9.961z"/><path d="m414.823 73.309c-9.319 0-13.49-8.13-13.49-16.186 0-7.796 4.295-16.186 13.724-16.186 9.04 0 14.018 6.039 14.018 17.006v.6h-22.712c.187 3.541 1.587 10.343 9.573 10.343 3.859-.034 7.163-2.773 7.91-6.559l.103-.472h4.949l-.193.75c-1.86 7.202-6.401 10.704-13.882 10.704zm.234-31.172c-8.605 0-12.525 7.768-12.525 14.986 0 11.061 6.621 14.985 12.291 14.985 6.685 0 10.68-2.881 12.512-9.053h-2.431c-1.036 4.114-4.725 7.006-8.968 7.031-6.716 0-10.651-4.422-10.795-12.132l-.011-.611h22.74c-.124-7.079-2.511-15.206-12.813-15.206zm10.254 13.183h-20.11l.06-.654c.44-4.847 3.286-10.507 9.855-10.507 5.88 0 9.674 3.932 10.149 10.518zm-18.78-1.2h17.479c-.614-5.579-3.828-8.761-8.894-8.761-5.474 0-8.008 4.579-8.585 8.761z"/><path d="m446.526 41.537c-3.06.235-5.675 2.294-6.621 5.214h-.117l-.176-4.335h-3.633c.118 1.992.352 4.335.293 6.621v22.793h3.516v-17.696c.117-5.625 2.871-9.375 8.086-9.375.703 0 1.465.176 2.168.235v-3.399c-1.172-.058-2.344-.117-3.516-.058z"/><path d="m440.388 72.43h-4.715v-23.393c.043-1.718-.081-3.5-.192-5.073-.037-.521-.072-1.027-.1-1.513l-.038-.636h4.845l.114 2.798c1.358-2.146 3.662-3.513 6.197-3.676 1.2-.059 2.406 0 3.573.059l.569.028v4.621l-.649-.053c-.289-.025-.587-.067-.887-.111-.407-.069-.818-.109-1.231-.122-4.642 0-7.37 3.203-7.486 8.788zm-3.516-1.201h2.316v-17.095c.13-6.25 3.377-9.975 8.686-9.975.47.012.939.057 1.402.135.056.008.111.016.166.024v-2.152c-.957-.045-1.935-.077-2.886-.03h-.005c-2.814.228-5.214 2.128-6.08 4.815l-.141.401h-1.118l-.176-4.336h-2.418q.029.424.059.864c.113 1.599.24 3.412.195 5.172z"/></g></svg>