<svg height="100" viewBox="0 0 322 100" width="322" xmlns="http://www.w3.org/2000/svg"><path d="m292.199 22.637 2.129-.696-1.535-4.722c-.074-.231-.254-.399-.469-.465l-7.914-2.574c-.09-.032-.195-.032-.297 0-.246.082-.386.351-.304.601l1.492 4.594c.543 1.664 1.191 2.645 2.207 3.246 1.109.656 2.937.586 4.691.016m17.446-11.102-1.317 1.813 4.016 2.918c.199.144.441.175.656.105l7.914-2.574c.094-.031.176-.09.238-.172.157-.215.11-.512-.105-.668l-3.906-2.84c-1.418-1.027-2.516-1.437-3.692-1.328-1.285.121-2.719 1.254-3.804 2.746m-12.754-.785 1.316 1.813 4.016-2.922c.195-.141.3-.364.3-.59v-8.324c0-.098-.031-.196-.089-.282-.157-.211-.454-.257-.668-.101l-3.907 2.836c-1.418 1.031-2.148 1.949-2.406 3.101-.285 1.258.352 2.973 1.438 4.469m15.945 13.16-2.133-.691-1.531 4.722c-.078.231-.027.469.101.653l4.895 6.734c.055.078.141.141.238.172.25.082.52-.055.602-.305l1.492-4.593c.543-1.664.59-2.836.125-3.922-.512-1.188-2.035-2.2-3.789-2.77m-10.781 6.86v-2.243h-4.965c-.246 0-.461.121-.59.301l-4.891 6.738c-.058.079-.093.176-.093.282 0 .261.214.476.476.476h4.828c1.754 0 2.883-.316 3.77-1.097.969-.852 1.465-2.614 1.465-4.457" fill="#2f97da"/><path d="m295.672 28.238c.351.219.82.129 1.066-.211l4.203-5.781c.102-.141.098-.324 0-.457l-.543-.75c-.093-.129-.269-.195-.433-.141l-7.535 2.45c-1.512.492-3.086.593-4.211.168zm7.867-19.195c-.414.031-.738.375-.738.797v7.148c0 .176.109.321.265.371l.879.286c.157.05.336 0 .438-.141l4.656-6.406c.934-1.289 2.145-2.297 3.309-2.614zm-10.906 6.742c-.098.403.129.817.531.949l6.797 2.207c.164.055.34-.003.434-.14l.543-.746c.097-.133.105-.321 0-.457l-4.653-6.407c-.937-1.289-1.523-2.753-1.461-3.957zm20.683 1.547c-.156-.379-.582-.582-.984-.457l-6.797 2.211c-.168.051-.273.207-.269.367v.926c0 .164.101.32.269.371l7.531 2.449c1.512.489 2.848 1.328 3.504 2.34zm-4.859 11.863c.316-.269.379-.734.129-1.078l-4.199-5.785c-.102-.137-.282-.191-.434-.141l-.879.286c-.156.05-.273.195-.273.371v7.922c0 1.589-.383 3.117-1.141 4.054zm-163.332 18.801-5.082-10.031c-.48-.938-1.723-1.699-2.773-1.699h-40.364c-1.043 0-1.902.855-1.902 1.906v9.621c0 1.043.859 1.902 1.902 1.902h48.43c.098-.59.039-1.207-.211-1.699m-66.184-11.73h-11.836c-.996 0-1.808.812-1.808 1.816v58.93c0 1 .812 1.812 1.808 1.812h11.836c1 0 1.809-.812 1.809-1.812v-58.93c0-1.004-.809-1.816-1.809-1.816m-27.144 0h-49.727c-1.007 0-1.82.812-1.82 1.816v9.801c0 1.004.813 1.812 1.82 1.812h17.41v47.321c.004.996.817 1.808 1.813 1.808h11.828c1.004 0 1.813-.812 1.813-1.812v-47.317h16.863c1.004 0 1.816-.808 1.816-1.812v-9.801c0-1.004-.812-1.816-1.816-1.816m155.668 0h-46.606c-1 0-1.816.812-1.816 1.816v58.93c0 1 .816 1.812 1.816 1.812h46.606c.996 0 1.812-.812 1.812-1.812v-9.805c0-1-.816-1.812-1.812-1.812h-33.699v-11.961h26.98c1 0 1.813-.821 1.813-1.813v-9.344c0-1.004-.813-1.816-1.813-1.816h-26.98v-10.766h33.699c.996 0 1.812-.812 1.812-1.812v-9.801c0-1.004-.816-1.816-1.812-1.816m90.672 61.132h1.398v-4.859h-1.176l-1.648 1.922-1.637-1.922h-1.176v4.859h1.399v-2.636l1.301 1.558h.238l1.301-1.558zm-5.379-3.445v-1.414h-4.145v1.414h1.364v3.445h1.414v-3.445zm-10.961-57.687h-11.637c-1.051 0-1.906.855-1.906 1.906v61.199c.598.293 1.285.422 1.871.32l11.707-2.093c.063-.012.129-.028.188-.047.945-.266 1.687-1.215 1.687-2.199v-57.18c0-1.051-.855-1.906-1.91-1.906m-44.863-.868-11.707 2.09c-.063.012-.125.028-.188.047-.945.262-1.687 1.211-1.687 2.195v57.192c0 1.047.863 1.902 1.906 1.902h11.644c1.047 0 1.907-.855 1.907-1.902v-61.207c-.602-.289-1.289-.422-1.875-.317m-92.141 51.903v9.621c0 1.047-.867 1.902-1.91 1.902h-40.367c-1.051 0-2.293-.765-2.766-1.699l-5.086-10.031c-.25-.492-.309-1.114-.211-1.699h48.43c1.043 0 1.91.855 1.91 1.906m122.715 11.578c-.141-.121-.27-.258-.375-.402l-27.578-38.207v-24.063c.144.125.269.258.375.402l27.578 38.2zm-141.426-48.438-30.988 33.555c-.172.184-.309.406-.418.649h19.035l30.977-33.543c.175-.188.316-.414.425-.661zm0 0" fill="#000a18"/></svg>