<svg height="171" viewBox="-.424 -.244 758 171" width="758" xmlns="http://www.w3.org/2000/svg"><circle cx="712.027" cy="45.326" fill="#dd4814" r="45.326"/><path d="m681.207 39.273c-3.344 0-6.053 2.709-6.053 6.053 0 3.342 2.709 6.051 6.053 6.051 3.342 0 6.051-2.709 6.051-6.051-.001-3.344-2.71-6.053-6.051-6.053zm43.207 27.504c-2.895 1.672-3.887 5.371-2.215 8.264 1.67 2.895 5.369 3.887 8.264 2.215 2.895-1.67 3.887-5.369 2.215-8.264-1.671-2.892-5.372-3.885-8.264-2.215zm-30.063-21.451c0-5.98 2.971-11.264 7.516-14.463l-4.424-7.41c-5.295 3.539-9.234 8.947-10.871 15.281 1.91 1.559 3.133 3.932 3.133 6.592 0 2.658-1.223 5.031-3.133 6.59 1.635 6.336 5.574 11.744 10.871 15.283l4.424-7.412c-4.545-3.197-7.516-8.48-7.516-14.461zm17.676-17.678c9.234 0 16.811 7.08 17.605 16.109l8.623-.127c-.424-6.666-3.336-12.65-7.811-17.051-2.301.869-4.959.736-7.256-.588-2.301-1.328-3.744-3.568-4.139-6-2.236-.617-4.59-.955-7.023-.955-4.184 0-8.139.982-11.65 2.721l4.205 7.535c2.262-1.052 4.786-1.644 7.446-1.644zm0 35.354c-2.66 0-5.184-.592-7.445-1.645l-4.205 7.535c3.512 1.74 7.467 2.723 11.65 2.723 2.434 0 4.787-.338 7.023-.957.395-2.432 1.838-4.67 4.139-6 2.299-1.326 4.955-1.457 7.256-.588 4.475-4.4 7.387-10.385 7.811-17.051l-8.625-.127c-.794 9.032-8.37 16.11-17.604 16.11zm12.385-39.131c2.895 1.672 6.594.682 8.264-2.213 1.672-2.895.682-6.594-2.213-8.266-2.895-1.67-6.594-.678-8.266 2.217-1.67 2.893-.678 6.592 2.215 8.262z" fill="#fff"/><path d="m90.651 164.257c-4.606 1.153-10.684 2.375-18.238 3.669-7.555 1.296-16.296 1.942-26.225 1.942-8.633 0-15.901-1.261-21.799-3.775-5.902-2.516-10.65-6.079-14.245-10.685-3.599-4.604-6.188-10.037-7.77-16.296-1.585-6.259-2.374-13.198-2.374-20.827v-63.023h20.073v58.706c0 13.672 2.158 23.456 6.476 29.354 4.316 5.902 11.581 8.851 21.799 8.851 2.158 0 4.387-.072 6.691-.218 2.3-.141 4.458-.323 6.475-.539 2.013-.216 3.848-.431 5.504-.646 1.652-.216 2.839-.465 3.561-.755v-94.753h20.073v108.995z"/><path d="m139.644 60.225c2.445-1.581 6.151-3.237 11.115-4.963 4.964-1.728 10.684-2.59 17.159-2.59 8.057 0 15.216 1.438 21.476 4.315 6.259 2.88 11.547 6.907 15.863 12.088 4.317 5.18 7.588 11.368 9.821 18.562 2.229 7.196 3.346 15.107 3.346 23.74 0 9.066-1.333 17.235-3.993 24.5-2.664 7.266-6.441 13.417-11.332 18.452-4.894 5.039-10.792 8.923-17.698 11.656-6.907 2.731-14.677 4.1-23.311 4.1-9.355 0-17.627-.646-24.821-1.942-7.196-1.295-13.095-2.589-17.698-3.885v-160.799l20.073-3.452zm0 89.788c2.013.576 4.856 1.115 8.526 1.617 3.669.506 8.235.757 13.705.757 10.792 0 19.425-3.562 25.9-10.684 6.475-7.124 9.713-17.231 9.713-30.327 0-5.751-.577-11.148-1.727-16.187-1.153-5.035-3.021-9.388-5.611-13.057-2.59-3.67-5.936-6.547-10.037-8.635-4.101-2.084-9.032-3.129-14.785-3.129-5.47 0-10.505.938-15.108 2.806-4.607 1.872-8.131 3.815-10.576 5.827z"/><path d="m330.44 164.257c-4.607 1.153-10.684 2.375-18.238 3.669-7.555 1.296-16.295 1.942-26.224 1.942-8.634 0-15.901-1.261-21.8-3.775-5.902-2.516-10.65-6.079-14.245-10.685-3.599-4.604-6.188-10.037-7.77-16.296-1.585-6.26-2.375-13.199-2.375-20.828v-63.022h20.073v58.706c0 13.672 2.158 23.456 6.475 29.354 4.316 5.902 11.581 8.851 21.799 8.851 2.158 0 4.388-.072 6.691-.218 2.3-.141 4.458-.323 6.475-.539 2.013-.216 3.848-.431 5.504-.646 1.652-.216 2.84-.465 3.561-.755v-94.753h20.073v108.995z"/><path d="m359.359 58.499c4.604-1.151 10.717-2.375 18.347-3.671 7.625-1.294 16.402-1.941 26.33-1.941 8.922 0 16.33 1.261 22.232 3.776 5.898 2.52 10.609 6.043 14.137 10.576 3.523 4.533 6.006 9.967 7.447 16.296 1.436 6.333 2.158 13.312 2.158 20.937v63.023h-20.074v-58.708c0-6.905-.469-12.803-1.402-17.697-.938-4.89-2.48-8.849-4.641-11.87-2.158-3.023-5.037-5.216-8.633-6.584-3.6-1.367-8.061-2.051-13.381-2.051-2.16 0-4.393.074-6.691.216-2.304.145-4.499.325-6.583.541-2.089.215-3.96.469-5.611.755-1.656.29-2.844.506-3.562.646v94.751h-20.073z"/><path d="m496.413 55.262h42.52v16.835h-42.52v51.799c0 5.611.43 10.253 1.295 13.921.863 3.671 2.158 6.549 3.885 8.634 1.727 2.088 3.885 3.562 6.475 4.425s5.611 1.296 9.064 1.296c6.186 0 11.08-.682 14.678-2.051 3.594-1.366 6.043-2.337 7.338-2.913l4.316 16.403c-2.016 1.008-5.578 2.304-10.684 3.884-5.109 1.582-10.898 2.374-17.375 2.374-7.627 0-13.92-.97-18.885-2.913s-8.957-4.856-11.979-8.741c-3.021-3.886-5.146-8.668-6.367-14.354-1.225-5.682-1.836-12.264-1.836-19.748v-100.148l20.074-3.453v34.75z"/><path d="m648.143 164.257c-4.607 1.153-10.686 2.375-18.238 3.669-7.555 1.296-16.295 1.942-26.225 1.942-8.633 0-15.9-1.261-21.799-3.775-5.902-2.516-10.65-6.079-14.246-10.685-3.598-4.604-6.188-10.037-7.77-16.296-1.586-6.26-2.375-13.199-2.375-20.828v-63.022h20.074v58.706c0 13.672 2.158 23.456 6.475 29.354 4.316 5.902 11.58 8.851 21.799 8.851 2.158 0 4.387-.072 6.691-.218 2.299-.141 4.459-.323 6.475-.539 2.014-.216 3.848-.431 5.504-.646 1.652-.216 2.84-.465 3.561-.755v-94.753h20.074z"/></svg>