<svg height="54" viewBox="0 0 261 54" width="261" xmlns="http://www.w3.org/2000/svg"><path d="m0 54h261v-54h-261z" fill="#f1b40d"/><g fill="#fff"><path d="m40.122 2.361v31.395q0 8.294-5.011 13.021-5.007 4.728-13.772 4.741-8.761 0-13.555-4.771-4.799-4.771-4.799-13.165v-31.221h5.649v31.616q0 6.075 3.315 9.316 3.32 3.242 9.759 3.302 6.144 0 9.459-3.263 3.315-3.258 3.315-9.364v-31.607z"/><path d="m72.07 50.816v-23.461q0-4.446-2.026-6.634-2.026-2.188-6.339-2.188c-3.801 0-6.591 1.014-8.366 3.037-1.775 2.028-2.655 5.447-2.655 10.127v19.058h-5.507v-36.261h4.483l.893 4.97h.261c1.154-1.811 2.803-3.254 4.747-4.16 2.121-1.001 4.447-1.503 6.795-1.469q6.569 0 9.897 3.159 3.323 3.159 3.315 10.127v23.695z"/><path d="m84.423 4.649c-.091-1.01.243-2.011.925-2.765.629-.589 1.466-.906 2.33-.88.85-.017 1.67.304 2.282.889.716.732 1.085 1.733 1.015 2.756.07 1.022-.299 2.028-1.015 2.764-1.297 1.214-3.315 1.214-4.612 0-.673-.758-1.007-1.755-.925-2.764zm5.971 46.167h-5.454v-36.322h5.506z"/><path d="m106.76 32.226-12.643-17.732h6.265l9.594 13.923 9.563-13.923h6.204l-12.643 17.732 13.303 18.59h-6.235l-10.192-14.712-10.284 14.712h-6.244z"/><path d="m159.865 50.816-7.897-24.089q-.772-2.461-1.957-7.193h-.173l-.699 2.452-1.492 4.802-8.032 24.028h-3.254l-10.353-36.032h3.549l5.78 20.883q2.026 7.769 2.647 11.405h.204q1.965-7.748 2.859-10.309l7.433-21.979h2.981l7.098 21.918q2.382 7.787 2.92 10.309h.191q.274-2.158 2.656-11.535l5.506-20.692h3.328l-9.798 36.032z"/><path d="m198.135 50.816-.833-5.698h-.26c-1.493 2.032-3.415 3.709-5.628 4.918-2.122 1.01-4.448 1.499-6.795 1.439q-5.315 0-8.266-2.713c-2.03-1.963-3.106-4.706-2.95-7.523-.109-3.319 1.571-6.443 4.4-8.185q4.391-2.917 12.726-3.038l6.864-.191v-2.47q0-5.135-2.087-7.761-2.087-2.621-6.734-2.608c-3.623.091-7.172 1.053-10.34 2.812l-1.228-2.856c3.662-1.772 7.672-2.712 11.741-2.751q5.932 0 8.874 3.037 2.942 3.038 2.942 9.607v23.964zm-13.273-2.318q5.771 0 9.125-3.302 3.358-3.298 3.337-9.165v-3.545l-6.309.264c-5.068.243-8.678 1.014-10.826 2.371-2.156 1.326-3.406 3.726-3.246 6.248-.125 1.963.617 3.883 2.027 5.257 1.657 1.343 3.762 2.015 5.892 1.872z"/><path d="m222.368 14.095c1.649.013 3.289.165 4.912.46l-.629 3.146c-1.536-.373-3.107-.564-4.686-.555-3.012-.026-5.845 1.439-7.563 3.909-2.052 2.877-3.089 6.348-2.951 9.875v19.886h-3.289v-36.032h2.79l.334 6.492h.226c1.107-2.215 2.738-4.134 4.743-5.59 1.844-1.105 3.965-1.656 6.113-1.591z"/><path d="m244.354 51.475q-7.858 0-12.258-4.828-4.404-4.831-4.404-13.563 0-8.606 4.252-13.802c2.786-3.432 7.025-5.356 11.447-5.187 3.861-.169 7.584 1.469 10.057 4.438q3.684 4.446 3.684 12.072v2.652h-25.982q.061 7.415 3.472 11.332c2.26 2.604 5.514 3.909 9.732 3.909 1.818.021 3.636-.122 5.424-.434 2.035-.429 4.018-1.048 5.935-1.854v2.99c-1.809.81-3.705 1.412-5.649 1.798-1.883.338-3.797.494-5.71.477zm-.963-34.429c-3.155-.147-6.214 1.092-8.375 3.389q-3.163 3.436-3.692 9.906h22.307q0-6.279-2.725-9.802c-1.779-2.331-4.582-3.649-7.515-3.523z"/></g></svg>