<svg height="109" viewBox="0 0 469 109" width="469" xmlns="http://www.w3.org/2000/svg"><g fill="#2378ff"><path d="m274.255 64.73 15.576-56.933h21.055l-26.319 78.203h-20.625l-26.103-78.203h20.893zm67.139-56.933 17.456 54.409 17.402-54.409h24.814v78.203h-18.906v-18.262l1.826-37.383-18.906 55.645h-12.461l-18.96-55.698 1.826 37.436v18.262h-18.852v-78.203zm108.741 57.417c0-2.757-.985-4.906-2.955-6.445-1.933-1.54-5.353-3.134-10.258-4.781-4.906-1.647-8.916-3.24-12.032-4.78-10.133-4.977-15.2-11.816-15.2-20.518 0-4.332 1.253-8.146 3.76-11.44 2.542-3.33 6.123-5.908 10.742-7.734 4.619-1.862 9.811-2.793 15.576-2.793 5.622 0 10.653 1.002 15.093 3.007 4.476 2.006 7.949 4.87 10.42 8.594 2.471 3.688 3.706 7.914 3.706 12.676h-18.799c0-3.187-.984-5.658-2.954-7.412-1.933-1.755-4.565-2.632-7.895-2.632-3.366 0-6.034.752-8.003 2.256-1.934 1.468-2.901 3.348-2.901 5.64 0 2.005 1.075 3.831 3.223 5.478 2.148 1.611 5.926 3.294 11.333 5.049 5.407 1.719 9.847 3.581 13.32 5.586 8.451 4.87 12.676 11.584 12.676 20.141 0 6.84-2.578 12.211-7.734 16.114-5.157 3.903-12.228 5.854-21.216 5.854-6.338 0-12.085-1.128-17.241-3.384-5.121-2.291-8.988-5.406-11.602-9.345-2.578-3.975-3.867-8.54-3.867-13.697h18.906c0 4.19 1.074 7.287 3.223 9.292 2.184 1.97 5.711 2.955 10.581 2.955 3.115 0 5.568-.663 7.358-1.988 1.826-1.36 2.74-3.258 2.74-5.693z"/><path d="m69.134 48.51c0 7.627-1.415 14.376-4.243 20.249-2.829 5.872-6.858 10.402-12.085 13.589-5.192 3.151-11.119 4.726-17.779 4.726s-12.568-1.522-17.724-4.565c-5.157-3.08-9.185-7.466-12.085-13.159-2.865-5.694-4.369-12.229-4.512-19.605v-4.404c0-7.663 1.397-14.413 4.19-20.249 2.828-5.873 6.857-10.402 12.084-13.589 5.264-3.187 11.244-4.78 17.94-4.78 6.624 0 12.532 1.575 17.724 4.726 5.193 3.151 9.221 7.645 12.085 13.482 2.901 5.8 4.369 12.461 4.405 19.98zm-19.175-3.277c0-7.77-1.307-13.66-3.921-17.67-2.578-4.047-6.284-6.07-11.118-6.07-9.453 0-14.448 7.09-14.985 21.27l-.054 5.747c0 7.663 1.271 13.553 3.813 17.671 2.543 4.118 6.32 6.176 11.333 6.176 4.763 0 8.433-2.023 11.011-6.069s3.885-9.865 3.921-17.456zm77.067 12.139c0 9.024-2.041 16.239-6.123 21.646-4.047 5.371-9.525 8.056-16.436 8.056-5.335 0-9.722-1.951-13.159-5.854v27.124h-18.101v-80.459h16.919l.537 5.371c3.474-4.297 8.039-6.445 13.697-6.445 7.161 0 12.729 2.649 16.704 7.949 3.974 5.263 5.962 12.514 5.962 21.753zm-18.101-1.128c0-10.312-3.008-15.469-9.023-15.469-4.297 0-7.162 1.54-8.594 4.62v22.88c1.575 3.223 4.476 4.834 8.701 4.834 5.765 0 8.737-4.977 8.916-14.931zm51.498 30.83c-8.916 0-16.131-2.65-21.645-7.949-5.515-5.335-8.272-12.264-8.272-20.786v-1.504c0-5.944 1.092-11.19 3.276-15.737 2.22-4.548 5.443-8.057 9.668-10.528 4.226-2.506 9.239-3.759 15.039-3.759 8.165 0 14.61 2.542 19.336 7.627 4.727 5.048 7.09 12.102 7.09 21.162v7.036h-35.986c.644 3.258 2.059 5.818 4.243 7.68s5.013 2.793 8.486 2.793c5.73 0 10.205-2.005 13.428-6.015l8.272 9.775c-2.256 3.115-5.461 5.604-9.615 7.466-4.117 1.826-8.558 2.739-13.32 2.739zm-2.041-46.299c-5.299 0-8.45 3.51-9.453 10.528h18.262v-1.397c.071-2.9-.663-5.138-2.203-6.714-1.539-1.611-3.741-2.417-6.606-2.417zm47.738-12.89.591 6.821c4.011-5.264 9.543-7.895 16.597-7.895 6.051 0 10.563 1.808 13.535 5.424 3.008 3.617 4.565 9.06 4.673 16.329v37.436h-18.154v-36.685c0-2.936-.591-5.084-1.773-6.445-1.182-1.396-3.33-2.095-6.445-2.095-3.545 0-6.177 1.397-7.896 4.19v41.035h-18.1v-58.115z"/><path d="m134 35c7.932-14 6.188-29.396 3.051-35 10.449 2.777 32.542 20.29 41.949 31.196-5.625-3.545-25.875-17.113-45 3.804z"/></g></svg>