<svg fill="none" height="129" viewBox="0 0 476 129" width="476" xmlns="http://www.w3.org/2000/svg"><g fill="#2378ff"><path d="m277.255 80.7305 15.576-56.9336h21.055l-26.319 78.2031h-20.625l-26.103-78.2031h20.893zm67.139-56.9336 17.456 54.4092 17.402-54.4092h24.814v78.2031h-18.906v-18.2617l1.826-37.3828-18.906 55.6445h-12.461l-18.96-55.6982 1.826 37.4365v18.2617h-18.852v-78.2031zm108.741 57.417c0-2.7572-.985-4.9056-2.955-6.4453-1.933-1.5398-5.353-3.1332-10.258-4.7803-4.906-1.6472-8.916-3.2406-12.032-4.7803-10.133-4.9772-15.2-11.8164-15.2-20.5176 0-4.3327 1.253-8.1461 3.76-11.4404 2.542-3.3301 6.123-5.9082 10.742-7.7344 4.619-1.862 9.811-2.7929 15.576-2.7929 5.622 0 10.653 1.0026 15.093 3.0078 4.476 2.0052 7.949 4.8698 10.42 8.5937 2.471 3.6882 3.706 7.9134 3.706 12.6758h-18.799c0-3.1868-.984-5.6576-2.954-7.4121-1.933-1.7546-4.565-2.6318-7.895-2.6318-3.366 0-6.034.7519-8.003 2.2558-1.934 1.4681-2.901 3.348-2.901 5.6397 0 2.0052 1.075 3.8313 3.223 5.4785 2.148 1.6113 5.926 3.2942 11.333 5.0488 5.407 1.7188 9.847 3.5807 13.32 5.5859 8.451 4.8698 12.676 11.5837 12.676 20.1416 0 6.8392-2.578 12.2103-7.734 16.1133-5.157 3.9033-12.228 5.8543-21.216 5.8543-6.338 0-12.085-1.128-17.241-3.3836-5.121-2.2916-8.988-5.4069-11.602-9.3457-2.578-3.9746-3.867-8.54-3.867-13.6963h18.906c0 4.1895 1.074 7.2868 3.223 9.292 2.184 1.9694 5.711 2.9541 10.581 2.9541 3.115 0 5.568-.6624 7.358-1.9873 1.826-1.3607 2.74-3.2584 2.74-5.6933z"/><path d="m72.1338 64.5098c0 7.6269-1.4144 14.3766-4.2432 20.249s-6.8571 10.402-12.0849 13.5889c-5.1921 3.1513-11.1182 4.7263-17.7784 4.7263-6.6601 0-12.5683-1.522-17.7246-4.5652-5.1562-3.0794-9.1845-7.4658-12.08493-13.1592-2.86458-5.6934-4.36849-12.2282-4.51172-19.6045v-4.4043c0-7.6627 1.39649-14.4124 4.18946-20.249 2.82879-5.8724 6.85709-10.402 12.08499-13.5889 5.2636-3.1868 11.2435-4.7802 17.9394-4.7802 6.6244 0 12.5326 1.5755 17.7246 4.7265 5.1921 3.1511 9.2204 7.6449 12.085 13.4815 2.9004 5.8007 4.3685 12.4609 4.4043 19.9804zm-19.1748-3.2764c0-7.7702-1.307-13.6605-3.9209-17.6709-2.5781-4.0462-6.2842-6.0693-11.1182-6.0693-9.4531 0-14.4482 7.0898-14.9853 21.2695l-.0537 5.7471c0 7.6627 1.2711 13.553 3.8134 17.6709 2.5424 4.1178 6.32 6.1767 11.333 6.1767 4.7624 0 8.4327-2.0231 11.0108-6.0693s3.8851-9.8649 3.9209-17.4561zm77.067 12.1387c0 9.0234-2.041 16.2386-6.123 21.6455-4.047 5.3714-9.525 8.0564-16.436 8.0564-5.335 0-9.7217-1.951-13.1592-5.8543v27.1243h-18.1006v-80.4592h16.919l.5371 5.3711c3.4733-4.2969 8.0387-6.4454 13.6967-6.4454 7.161 0 12.729 2.6498 16.704 7.9493 3.974 5.2636 5.962 12.5146 5.962 21.7529zm-18.101-1.128c0-10.3125-3.008-15.4687-9.023-15.4687-4.2973 0-7.1619 1.5397-8.5942 4.6191v22.8809c1.5755 3.2226 4.4759 4.834 8.7012 4.834 5.765 0 8.737-4.9772 8.916-14.9317zm51.498 30.8299c-8.916 0-16.131-2.65-21.645-7.949-5.515-5.3353-8.272-12.264-8.272-20.7861v-1.5039c0-5.944 1.092-11.1898 3.276-15.7373 2.22-4.5476 5.443-8.0567 9.668-10.5274 4.226-2.5065 9.239-3.7598 15.039-3.7598 8.165 0 14.61 2.5424 19.336 7.627 4.727 5.0488 7.09 12.1029 7.09 21.1621v7.0361h-35.986c.644 3.2585 2.059 5.8187 4.243 7.6807s5.013 2.793 8.486 2.793c5.73 0 10.205-2.0052 13.428-6.0156l8.272 9.7753c-2.256 3.1153-5.461 5.6039-9.615 7.4659-4.117 1.826-8.558 2.739-13.32 2.739zm-2.041-46.2986c-5.299 0-8.45 3.5091-9.453 10.5273h18.262v-1.3965c.071-2.9003-.663-5.1383-2.203-6.7138-1.539-1.6113-3.741-2.417-6.606-2.417zm47.738-12.8906.591 6.8213c4.011-5.2637 9.543-7.8956 16.597-7.8956 6.051 0 10.563 1.8083 13.535 5.4249 3.008 3.6165 4.565 9.0592 4.673 16.3281v37.4365h-18.154v-36.6846c0-2.9362-.591-5.0846-1.773-6.4453-1.182-1.3965-3.33-2.0947-6.445-2.0947-3.545 0-6.177 1.3965-7.896 4.1894v41.0352h-18.1v-58.1152z"/><path d="m137 51c7.932-14 6.188-29.3965 3.051-34.9999 10.449 2.7768 32.542 20.2898 41.949 31.1956-5.625-3.545-25.875-17.1125-45 3.8043z"/></g></svg>