<svg class="h-[100%] w-[100%] sm:h-[80%] sm:w-[80%] dark:shadow-xl dark:shadow-white text-black dark:text-white rounded-xl p-12 sm:p-24 md:p-36 md:mb-4" width="1074.8" height="1232.7" fill="currentColor" version="1.1" viewBox="0 0 1074.8 1232.7" xmlns="http://www.w3.org/2000/svg">
 <path d="m945.46 653.46h-780v161h780z" fill="none"/>
 <path class="text-white dark:text-black stroke-black dark:stroke-white" d="m5.7319 921.4-1.732 1 531.74 307 1.732 1 1.732-1 529.91-305.94 1.73-1-1.73-1-530.01-306-1.732-1-1.732 1z" fill="none" stroke="#000" stroke-width="4"/>
 <path class="text-black dark:text-white" d="m331.46 734.5-122.09 70.487 530.01 306 122.09-70.49z"/>
 <path class="text-black dark:text-white" d="m861.86 804.77-122.1-70.5-530.35 306.2 122.11 70.5z"/>
 <g clip-rule="evenodd" fill-rule="evenodd">
  <path class="text-white dark:text-black stroke-black dark:stroke-white" d="m739.85 733.46-204.38-118v-612l530.01 306v612l-204.09-117.83v-3.3c0-38.75-27.2-85.875-60.77-105.26-33.557-19.375-60.768-3.675-60.768 35.085z" fill="none" stroke="#000" stroke-width="4"/>
  <path class="text-black dark:text-white" d="m834.13 427.38c-23.96-13.395-35.99-20.255-36.08-20.581-4.1-15-11.302-30.298-24.294-37.799-12.367-7.14-23.037-2.94-23.037 11.9 0 42.84 88.751 66.08 88.751 147.28 0 26.6-17.46 56.28-64.017 29.4-35.888-20.72-61.834-55.86-67.654-101.78l39.237 22.528c.089.387.181.773.275 1.158 4.156 17.072 12.417 32.056 27.9 40.994 14.789 8.54 27.159 6.72 27.159-12.04 0-43.68-88.751-69.72-88.751-143.92 0-39.2 28.613-50.68 61.349-31.78 32.012 18.48 56.012 56.14 59.162 94.64zm58.74 194.63-37.83-21.84v-217.84l37.83 21.84z"/>
  <path class="text-white dark:text-black stroke-black dark:stroke-white" d="m211.98 803.46-.011-3.3c-.136-38.759 26.965-85.879 60.524-105.25 33.567-19.38 60.878-3.665 61.014 35.084l.011 3.3 204.09-117.83-2.137-612-530.01 306 2.136 612z" fill="none" stroke="#000" stroke-width="4"/>
 </g>
 <path class="text-black dark:text-white" d="m91.026 458.46 35.126-20.28 24.495 133.62.433-.25 28.306-164.11 32.857-18.97 26.554 134.25.511-.295 26.811-165.06 34.45-19.89-44.008 242.53-34.858 20.125-26.331-132.56-.675.39-27.121 163.42-35.507 20.5zm249.15-143.84 55.374-31.97 55.749 184.94-36.234 20.92-12.129-41.315-63.081 36.42-9.063 53.55-35.291 20.375zm21.266 41.24-15.043 88.344 47.684-27.53-17.867-69.344zm377.98 378.6 122.11 70.5-530.01 306-122.11-70.5z"/>
 <path class="text-black dark:text-white" d="m739.46 734.15 50.12 29.5 71.42 40.67v-3.3c0-38.75-27.2-85.875-60.77-105.26-33.559-19.375-60.77-3.675-60.77 35.085zm-406.46-1-50.118 29.5-71.42 40.67v-3.3c0-38.75 27.202-85.875 60.769-105.26 33.559-19.375 60.769-3.675 60.769 35.085z" clip-rule="evenodd" fill-rule="evenodd"/>
</svg>
