<svg height="390" width="509" xmlns="http://www.w3.org/2000/svg"><g fill="#1fbeca"><path d="M280.8 95.2h-.1a40.5 40.5 0 0 0-40.5 40.4h-13.4a54 54 0 0 1 53.9-54z"/><path d="M280.7 68.2a67.4 67.4 0 0 0-67.4 67.5h-13.5a81 81 0 0 1 80.9-81z"/><path d="M280.7 41.2a94.4 94.4 0 0 0-94.4 94.5h-13.5a108 108 0 0 1 107.9-108z"/><path d="M280.7 14.2c-67 0-121.4 54.4-121.4 121.5h-13.5c0-74.5 60.4-135 134.8-135h.1v13.5"/></g><path d="m423.4 194.6-4.7 1.4c-.9.3 0-2.1 0-2.1a40.9 40.9 0 0 1-27-1.2 57 57 0 0 1-28.7-29.2c-6.2-12-39.8-12.6-45.8-12.8-6-.1-14.5-.6-23.4-14.8 0 0 5.5.6 8.3-3.4 0 0-1.5-2-7.5-5.5s-7-5.5-7-5.5-5.2-7-7.6-7.3c-2.4-.2-4.4.4-5.5-1-1.2-1.4-7.4-7.3-9.1-7.4-1.7 0-6.1 8.9-2.4 14.7 0 0-.2 1.7-1.7 1.2-1.6-.5-4.7 2.4-.7 5 4 2.7 8 6.9 8.4 9.6.5 2.7-2.7 11 1.5 21.9l1-1.7s1.2 7.9 5 12.8l.7-1s2.5 9.3 7.2 15.3l.7-.1s4 7 8 11c3.9 4.1 4.6 6 4.9 8.2.2 2.2 4.8 26 4.6 29.1-.2 3.1-3.2 1.3-5.2 3.2-2 1.9-1.6 4.2 2.4 4.6 4 .4 5.6-1.8 7.1-5s2-5.3 1.4-11.8l-.5-7c3.2 7 6 13.4 6.3 14.7.6 3-2.7 2-4.2 4.4-1.5 2.3-.4 4.5 3.6 3.9 4-.7 5-3.3 5.5-6.7.7-3.5.7-5.6-1.6-11.8-2-5.8-6.8-20.8-7-25 3 .4 13.7 1.2 32-3.2 0 0 2-.3 3.3-.2 1.4.2-.2 7.1 3.4 13.3 1 1.7 2.2 3.4 3.4 5 .3 8.6.5 17.2.2 18.6-.6 3-3.3.9-5.5 2.4-2.3 1.6-2.2 4 1.7 5 3.9 1 5.8-1 7.7-4l1-1.6c-.5 1.8-1.2 3.2-1.9 3.5-1.8 1-3.7 3.6-1.6 5.4 2 1.8 7.4 1 8.4-2s.8-12.2 2.3-16.5c1.6-4.3-.3-10.1.4-12.2 3-9.3 1-19 1-19s3 11 6 12.8l1.7-1.5s12.3 11.2 17.9 11.4l1-2s17.8 2.7 22.9-.7l-2-1s10-5.7 9.6-14.2"/><path d="M362 298.3h-30.5V289c0-4.4-.4-7.2-1.2-8.4-.8-1.2-2-1.8-4-1.8a5 5 0 0 0-4.4 2.5 14 14 0 0 0-1.5 7.3c0 4.3.5 7.4 1.7 9.6 1 2.1 4.2 4.7 9.3 7.7 14.6 8.7 23.9 15.9 27.7 21.5 3.8 5.5 5.7 14.5 5.7 27 0 9-1 15.6-3.2 19.9a24.8 24.8 0 0 1-12.2 10.8c-6 2.9-13.1 4.3-21.1 4.3-8.8 0-16.4-1.7-22.6-5a24.6 24.6 0 0 1-12.2-12.8c-2-5.1-3-12.4-3-22v-8.2h30.6v15.4c0 4.7.5 7.8 1.3 9.1.9 1.4 2.4 2 4.6 2 2.2 0 3.8-.8 4.9-2.5 1-1.7 1.6-4.3 1.6-7.7 0-7.4-1-12.3-3-14.6-2.1-2.3-7.3-6.1-15.5-11.5-8.1-5.4-13.6-9.4-16.2-11.8a27.7 27.7 0 0 1-6.6-10.2 44.8 44.8 0 0 1-2.6-16.6 46 46 0 0 1 3.7-21.3 25 25 0 0 1 12-10.5 47.9 47.9 0 0 1 20-3.8c8.5 0 15.8 1.4 21.8 4.1 6 2.8 10 6.3 12 10.5s3 11.3 3 21.4zM444.9 298.3h-30.6V289c0-4.4-.4-7.2-1.2-8.4-.7-1.2-2-1.8-3.9-1.8a5 5 0 0 0-4.5 2.5 14 14 0 0 0-1.5 7.3c0 4.3.6 7.4 1.7 9.6 1.1 2.1 4.2 4.7 9.3 7.7 14.7 8.7 23.9 15.9 27.7 21.5 3.8 5.5 5.7 14.5 5.7 27 0 9-1 15.6-3.1 19.9a24.8 24.8 0 0 1-12.3 10.8c-6 2.9-13 4.3-21.1 4.3-8.8 0-16.3-1.7-22.6-5a24.6 24.6 0 0 1-12.2-12.8c-2-5.1-2.9-12.4-2.9-22v-8.2H404v15.4c0 4.7.4 7.8 1.3 9.1.8 1.4 2.4 2 4.5 2 2.2 0 3.9-.8 5-2.5 1-1.7 1.5-4.3 1.5-7.7 0-7.4-1-12.3-3-14.6-2.1-2.3-7.2-6.1-15.4-11.5a151 151 0 0 1-16.3-11.8 27.6 27.6 0 0 1-6.6-10.2 45 45 0 0 1-2.6-16.6 46 46 0 0 1 3.7-21.3 25 25 0 0 1 12-10.5 47.9 47.9 0 0 1 20-3.8c8.6 0 15.9 1.4 21.9 4.1 6 2.8 10 6.3 12 10.5 1.9 4.2 2.9 11.3 2.9 21.4zM488.8 260v101.3h20v25.4h-53V260z" fill="#1fbeca"/><path d="m107.9 283.3-12.5 103h-34a1990 1990 0 0 1-6.5-49.7c-.8 9-2 18.2-3.5 27.4L48 386.3H13.9L.6 283.3h27c.2 2.7 2.5 22.4 6.8 59l7-59h26l6.4 59a538 538 0 0 1 7.1-59zM152.5 311.7c0-5.2-.3-8.6-.9-10-.5-1.3-1.8-2-3.6-2-1.9 0-3.1.7-3.7 2-.7 1.4-1 4.8-1 10v46.5c0 4.9.3 8 1 9.5.6 1.5 1.8 2.2 3.6 2.2 1.9 0 3.1-.6 3.7-2 .6-1.3.9-4.2.9-8.7zm31.3 7.8v25.2c0 9.3-.5 16-1.4 20.4a28.7 28.7 0 0 1-17.7 20.4 58.7 58.7 0 0 1-34 .4 24 24 0 0 1-11.3-7c-2.6-3-4.5-6.7-5.7-11.1a84 84 0 0 1-1.7-19.7v-26.4c0-9.5 1-17 3.1-22.4 2-5.4 5.8-9.7 11.2-13a39.3 39.3 0 0 1 20.6-4.8c7 0 13 1 18.1 3.1a29.1 29.1 0 0 1 17.3 18.6c1 3.6 1.5 9 1.5 16.3M194.1 260.7h32.3v125.6H194zM280.7 260.7v15.9c-6.5 0-10.3.3-11.5.9-1.1.6-1.7 2.3-1.7 5v3.3h13.2v16.3h-7.5v84.2H242v-84.2h-6.4v-16.3h6.4c0-6.8.2-11.3.7-13.6.5-2.2 1.6-4.3 3.4-6 1.9-1.8 4.5-3.2 7.8-4.1 3.3-1 8.4-1.4 15.4-1.4z"/></svg>