<svg height="390" viewBox="0 0 509 390" width="509" xmlns="http://www.w3.org/2000/svg"><g fill="#1fbeca"><path d="m280.755 95.159c-.025 0-.053-.006-.091-.002-22.331.013-40.441 18.129-40.428 40.491l-13.479.002c-.013-29.805 24.126-53.985 53.907-53.993.039-.002.057.002.091.006z"/><path d="m280.747 68.164c-.026.004-.059.006-.083.006-37.234 0-67.408 30.215-67.397 67.487l-13.484.006c-.004-44.721 36.199-80.98 80.869-80.993.029.007.059.004.095.007z"/><path d="m280.738 41.179c-.021-.004-.045-.004-.08-.004-52.127.013-94.372 42.319-94.357 94.492l-13.482.006c-.015-59.62 48.26-107.971 107.833-107.988.029 0 .052-.002.08.007z"/><path d="m280.738 14.192c-.034-.004-.07-.006-.095-.006-67.017.032-121.326 54.415-121.307 121.485l-13.486.007c-.022-74.526 60.328-134.963 134.785-134.986h.093l.01 13.498"/></g><path d="m423.35 194.598s-1.778.486-4.615 1.416c-.904.297.033-2.137.033-2.137-8.845 2.328-19.501 2.611-27.096-1.179-16.874-8.416-22.416-17.271-28.651-29.192-6.233-11.927-39.822-12.584-45.81-12.758-5.981-.175-14.561-.636-23.398-14.882 0 0 5.483.667 8.311-3.33 0 0-1.531-2.004-7.536-5.498-6.007-3.495-7.073-5.568-7.073-5.568s-5.076-6.989-7.477-7.23c-2.402-.241-4.429.363-5.559-1.021-1.133-1.387-7.357-7.332-9.083-7.393-1.727-.058-6.091 8.875-2.397 14.681 0 0-.171 1.719-1.738 1.214-1.569-.505-4.636 2.424-.619 5.027 4.013 2.603 7.982 6.818 8.404 9.517.421 2.708-2.729 11.064 1.498 21.901l.978-1.641s1.176 7.869 5.073 12.771l.56-.983s2.539 9.276 7.251 15.305l.707-.165s3.92 6.987 7.899 11.09c3.982 4.101 4.723 5.913 4.964 8.134.241 2.22 4.786 26.041 4.583 29.144-.192 3.106-3.132 1.302-5.166 3.181-2.038 1.876-1.586 4.239 2.423 4.643 4.002.402 5.618-1.869 7.092-5.076 1.479-3.201 2.032-5.232 1.413-11.766-.184-1.958-.376-4.435-.528-7.023 3.206 6.964 6.083 13.377 6.343 14.717.595 3.049-2.704 2.051-4.199 4.385-1.496 2.323-.463 4.496 3.514 3.875 3.975-.626 4.964-3.228 5.585-6.699.623-3.476.644-5.577-1.601-11.752-2.121-5.836-6.803-20.823-7.118-25.016 3.086.407 13.82 1.257 32.085-3.186 0 0 2.015-.307 3.335-.174 1.32.131-.268 7.099 3.342 13.246 1.02 1.74 2.226 3.419 3.432 5.034.304 8.616.532 17.148.217 18.634-.635 3.043-3.288.838-5.571 2.402-2.284 1.56-2.178 3.962 1.73 4.938 3.907.979 5.825-1.036 7.751-3.991.367-.569.686-1.103.982-1.641-.526 1.816-1.176 3.214-1.88 3.561-1.875.928-3.702 3.634-1.656 5.403 2.049 1.759 7.463.975 8.436-2.051.968-3.016.771-12.164 2.315-16.461 1.546-4.294-.336-10.132.34-12.206 3.035-9.334 1.094-18.984 1.094-18.984s2.883 10.94 5.841 12.809l1.755-1.569s12.338 11.27 17.896 11.399l.979-1.911s17.878 2.657 22.932-.698l-2.032-1.063s10.142-5.702 9.709-14.183" fill="#000"/><path d="m362.036 298.305h-30.573v-9.39c0-4.385-.389-7.174-1.168-8.375-.782-1.199-2.085-1.797-3.912-1.797-1.983 0-3.479.807-4.492 2.424-1.018 1.622-1.527 4.072-1.527 7.363 0 4.226.572 7.414 1.719 9.554 1.088 2.139 4.184 4.724 9.297 7.741 14.652 8.708 23.878 15.847 27.682 21.427 3.806 5.589 5.709 14.586 5.709 26.999 0 9.027-1.056 15.68-3.168 19.954-2.11 4.279-6.189 7.867-12.234 10.761-6.049 2.894-13.082 4.342-21.11 4.342-8.808 0-16.325-1.668-22.551-5.004-6.233-3.342-10.312-7.591-12.24-12.758-1.926-5.164-2.89-12.491-2.89-21.987v-8.293h30.567v15.415c0 4.745.431 7.792 1.293 9.153.861 1.358 2.38 2.036 4.57 2.036 2.191 0 3.817-.865 4.89-2.585 1.064-1.722 1.603-4.275 1.603-7.668 0-7.458-1.02-12.335-3.048-14.632-2.091-2.294-7.221-6.127-15.408-11.503-8.18-5.422-13.598-9.363-16.261-11.817-2.655-2.452-4.858-5.841-6.607-10.17-1.746-4.332-2.616-9.864-2.616-16.591 0-9.703 1.237-16.797 3.715-21.282 2.475-4.489 6.473-7.996 11.997-10.529 5.527-2.53 12.201-3.794 20.012-3.794 8.55 0 15.837 1.386 21.858 4.149 6.017 2.763 10.005 6.245 11.961 10.446 1.958 4.198 2.932 11.337 2.932 21.401z" fill="#1fbeca"/><path d="m444.877 298.305h-30.571v-9.39c0-4.385-.39-7.174-1.168-8.375-.787-1.199-2.086-1.797-3.913-1.797-1.981 0-3.477.807-4.497 2.424-1.018 1.622-1.523 4.072-1.523 7.363 0 4.226.566 7.414 1.709 9.554 1.094 2.139 4.197 4.724 9.31 7.741 14.648 8.708 23.876 15.847 27.68 21.427 3.806 5.589 5.708 14.586 5.708 26.999 0 9.027-1.053 15.68-3.161 19.954-2.117 4.279-6.195 7.867-12.24 10.761-6.047 2.894-13.087 4.342-21.111 4.342-8.805 0-16.327-1.668-22.551-5.004-6.231-3.342-10.313-7.591-12.24-12.758-1.928-5.164-2.893-12.491-2.893-21.987v-8.293h30.573v15.415c0 4.745.43 7.792 1.286 9.153.866 1.358 2.384 2.036 4.571 2.036 2.194 0 3.823-.865 4.891-2.585 1.069-1.722 1.601-4.275 1.601-7.668 0-7.458-1.013-12.335-3.051-14.632-2.083-2.294-7.218-6.127-15.402-11.503-8.181-5.422-13.6-9.363-16.26-11.817-2.661-2.452-4.864-5.841-6.606-10.17-1.742-4.332-2.617-9.864-2.617-16.591 0-9.703 1.233-16.797 3.711-21.282 2.473-4.489 6.478-7.996 12.001-10.529 5.527-2.53 12.202-3.794 20.014-3.794 8.551 0 15.828 1.386 21.856 4.149 6.02 2.763 10.008 6.245 11.962 10.446 1.949 4.198 2.931 11.337 2.931 21.401z" fill="#1fbeca"/><path d="m488.771 259.958v101.338h20.015v25.357h-52.926v-126.695z" fill="#1fbeca"/><path d="m107.901 283.337-12.501 102.969h-33.993c-1.856-12.584-4.015-29.16-6.497-49.746-.845 9.061-2.021 18.191-3.518 27.401l-3.437 22.345h-34.071l-13.28-102.969h26.992c.207 2.691 2.493 22.348 6.85 58.973.34-3.763 2.687-23.423 7.031-58.973h25.933l6.343 58.973c1.001-17.216 3.394-36.872 7.185-58.973z" fill="#000"/><path d="m152.482 311.735c0-5.271-.285-8.599-.856-9.969-.568-1.373-1.78-2.059-3.639-2.059-1.865 0-3.103.686-3.723 2.059-.617 1.37-.932 4.698-.932 9.969v46.483c0 4.861.315 8.027.932 9.502.62 1.48 1.837 2.213 3.641 2.213 1.863 0 3.094-.672 3.688-2.019.593-1.344.889-4.238.889-8.694zm31.325 7.759v25.224c0 9.261-.467 16.045-1.399 20.366-.931 4.319-2.921 8.354-5.969 12.109-3.051 3.75-6.963 6.513-11.749 8.299-4.778 1.782-10.267 2.676-16.475 2.676-6.919 0-12.791-.76-17.596-2.287-4.807-1.524-8.543-3.828-11.202-6.902-2.662-3.084-4.565-6.807-5.699-11.181-1.136-4.367-1.709-10.924-1.709-19.671v-26.381c0-9.571 1.037-17.048 3.105-22.423 2.064-5.387 5.785-9.702 11.163-12.965 5.371-3.254 12.25-4.879 20.622-4.879 7.03 0 13.064 1.04 18.105 3.13 5.04 2.104 8.928 4.829 11.668 8.192 2.737 3.361 4.613 6.83 5.62 10.398 1.006 3.571 1.515 9.002 1.515 16.295" fill="#000"/><path d="m194.116 260.677h32.254v125.629h-32.254z" fill="#000"/><path d="m280.662 260.677v15.908c-6.461 0-10.273.297-11.435.89-1.162.595-1.745 2.293-1.745 5.084v3.259h13.18v16.295h-7.441v84.193h-31.323v-84.193h-6.437v-16.295h6.437c0-6.779.233-11.299.697-13.578.465-2.276 1.616-4.31 3.452-6.09 1.831-1.789 4.406-3.143 7.713-4.078 3.31-.928 8.453-1.395 15.431-1.395z" fill="#000"/></svg>